<svg id="Layer_1" viewBox="0 0 512 512" xmlns="http://www.w3.org/2000/svg" data-name="Layer 1"><path d="m145.005 441.695c4.11 7.172 1.644 16.384-5.499 20.523l-26.022 15.024c-7.143 4.11-16.384 1.644-20.522-5.499l-73.787-127.843c-4.139-7.143-1.672-16.384 5.5-20.495l25.994-15.024c7.171-4.139 16.384-1.672 20.523 5.499l73.814 127.814zm346.082-140.088-.028-.057c-3.742-6.463-9.921-11.169-17.178-13.096-7.115-1.899-14.769-.992-21.175 2.608l-.085.057-.085.057c-.028.028-.057.028-.113.057l-121.294 70.044c-4.139 2.381-9.411 5.471-14.088 6.661-3.883 1.021-6.775.652-10.602-.368l-99.184-26.249c-1.248-.34-1.984-1.616-1.645-2.835.312-1.219 1.588-1.984 2.807-1.644l85.691 22.677c6.208 1.644 12.784.85 18.368-2.324 5.556-3.146 9.468-8.362 11.14-14.542v-.057c1.644-6.18.794-12.728-2.324-18.283l-.028-.085-.057-.057c-.028-.057-.057-.085-.057-.113-3.26-5.641-8.589-9.78-14.882-11.452l-113.669-30.472h-.057c-.057-.028-.142-.028-.199-.057-3.883-1.276-8.192-1.616-12.246-1.219-4.025.425-8.164 1.559-11.679 3.6l-79.342 45.808 50.655 87.732 9.298-5.357.028.028 2.296-1.361c3.487-2.041 6.888-3.43 10.942-3.685 3.657-.198 7.427.567 10.97 1.361l.085.028h.085c.113.028.198.028.283.057l113.442 30.387c4.706 1.276 9.638 1.616 14.457.964 4.847-.652 9.496-2.268 13.748-4.706l165.345-95.471c6.52-3.77 11.225-9.921 13.153-17.178 1.928-7.228.964-14.995-2.778-21.458zm-288.454-136.006v-.028l.17-.142 21.26-21.543c.284-1.843.397-3.77.397-5.698 0-11.254-4.563-21.458-11.934-28.828-7.37-7.398-17.575-11.962-28.857-11.962s-21.458 4.564-28.828 11.962c-7.37 7.37-11.934 17.575-11.934 28.828s4.564 21.458 11.934 28.857c7.37 7.37 17.575 11.934 28.828 11.934 4.847 0 9.496-.85 13.805-2.381l.028-.028v-.255h.028v-.227l.028-.028v-.198l.028-.028v-.142l.028-.057v-.142l.028-.028v-.17l.029-.028.028-.142v-.028c.028-.113.028-.227.057-.369l.057-.17v-.113l.028-.028v-.113h.028v-.113l.028-.028v-.085l.028-.028v-.085l.028-.028v-.085l.028-.028v-.085l.028-.028v-.085l.028-.028v-.057l.028-.028v-.085l.028-.057v-.057l.028-.028v-.057l.028-.028v-.057l.028-.028v-.085l.028-.028v-.057l.028-.028v-.057l.029-.057v-.028l.028-.028v-.057l.057-.113v-.057l.057-.142.028-.057.028-.113v-.028l.085-.17.057-.198.057-.113v-.028l.028-.028.029-.113.057-.113v-.028l.057-.113v-.028h.028l.028-.113.028-.057.057-.142.028-.028c.057-.113.085-.227.142-.312v-.028l.085-.17.085-.142v-.028l.085-.142.028-.057.057-.085.057-.113.028-.085.057-.085v-.028l.057-.113.085-.142.028-.028.085-.17.113-.17v-.028l.028-.028.085-.142.028-.028.057-.113.028-.028.057-.085v-.028l.028-.028.085-.085v-.028l.113-.17.085-.142.057-.057v-.028l.113-.142v-.028l.114-.142.028-.028.057-.085.085-.085.057-.085.057-.113.028-.028.028-.028.113-.142v-.028h.028l.085-.113.057-.057v-.028h.028l.113-.17.142-.17h.028l.114-.142v-.028l.085-.085.085-.085.028-.028.085-.085.028-.028.085-.113.028-.028.113-.113.142-.142.028-.028zm-112.394-6.18 15.222 3.458c.709 2.296 1.531 4.535 2.438 6.718s1.899 4.337 3.005 6.463l-8.306 13.209c-1.729 2.778-2.863 5.924-2.863 9.014 0 3.118 1.049 6.094 3.543 8.589l11.707 11.735c2.495 2.495 5.5 3.543 8.618 3.543 3.089 0 6.236-1.134 9.014-2.863l13.209-8.334c2.126 1.105 4.28 2.126 6.463 3.033 2.154.907 4.394 1.701 6.718 2.438l3.458 15.222c.708 3.175 2.154 6.208 4.337 8.391 2.211 2.211 5.074 3.572 8.589 3.572h16.583c3.515 0 6.378-1.361 8.561-3.572 2.211-2.183 3.628-5.216 4.365-8.391l3.458-15.222c2.324-.737 4.563-1.531 6.718-2.438 1.248-.51 2.495-1.077 3.742-1.672v-15.307h-2.834c-5.272 0-9.751-2.069-12.982-5.272l-.085-.085-.057-.057-.028-.028-.085-.085-.028-.028-.057-.057-.057-.085-.085-.085-.085-.085-.057-.057-.028-.028-.057-.057-.028-.028-.028-.057-.028-.028-.028-.028-.057-.085h-.028l-.057-.085-.057-.057-.028-.028-.057-.057v-.028l-.085-.085-.085-.085v-.028l-.057-.057-.028-.028-.057-.085-.057-.085-.057-.057-.028-.028-.057-.057v-.028l-.085-.113-.028-.028-.028-.057h-.028l-.057-.085-.057-.085-.057-.085-.028-.028-.028-.057-.028-.028-.028-.057-.057-.028v-.057l-.057-.057-.057-.085-.057-.085-.028-.028-.028-.057-.028-.028-.028-.057-.028-.028-.085-.113v-.028l-.057-.057-.057-.113-.057-.085-.057-.085v-.028l-.057-.057v-.028l-.057-.057-.028-.057v-.028l-.057-.057-.057-.113-.057-.085-.028-.085-.028-.028-.028-.057-.028-.028-.028-.057-.028-.057-.029-.028-.028-.057v-.028l-.057-.085-.057-.113-.028-.085h-.028l-.028-.085-.028-.028-.028-.113-.028-.028-.028-.057-.028-.028-.028-.085-.057-.085c-4.904 1.587-10.148 2.438-15.619 2.438-14.003 0-26.702-5.698-35.887-14.882-9.212-9.184-14.882-21.883-14.882-35.915s5.669-26.702 14.882-35.915c9.185-9.184 21.884-14.854 35.887-14.854s26.731 5.669 35.915 14.854c8.192 8.192 13.578 19.134 14.684 31.323l16.696-16.923.113-.085 8.759-8.872c-.113-.312-.227-.624-.369-.907-.907-2.211-1.899-4.365-3.005-6.491l8.306-13.209c1.729-2.75 2.863-5.896 2.863-9.014s-1.049-6.094-3.543-8.589l-11.707-11.707c-2.495-2.494-5.5-3.543-8.618-3.543-3.089 0-6.236 1.106-9.014 2.863l-13.209 8.306c-2.126-1.106-4.281-2.098-6.463-3.033-2.154-.879-4.394-1.701-6.718-2.409l-3.458-15.222c-.737-3.203-2.154-6.208-4.365-8.419-2.183-2.183-5.046-3.572-8.561-3.572h-16.583c-3.515 0-6.378 1.389-8.589 3.572-2.183 2.211-3.628 5.216-4.337 8.419l-3.458 15.222c-2.324.709-4.563 1.531-6.718 2.409-2.183.935-4.337 1.928-6.463 3.033l-13.209-8.306c-2.778-1.757-5.925-2.863-9.014-2.863-3.118 0-6.123 1.049-8.618 3.543l-11.707 11.707c-2.495 2.495-3.543 5.471-3.543 8.589s1.134 6.265 2.863 9.014l8.306 13.238c-1.105 2.098-2.098 4.252-3.005 6.463-.907 2.154-1.729 4.394-2.438 6.718l-15.222 3.458c-3.203.709-6.208 2.154-8.39 4.337-2.211 2.211-3.6 5.074-3.6 8.589v16.554c0 3.543 1.389 6.378 3.6 8.589 2.183 2.183 5.187 3.628 8.39 4.365zm277.342 6.009-30.189-30.557c4.224-8.787 9.128-16.951 14.429-23.924 1.644 1.757 3.6 2.92 5.754 3.345 16.016 3.175 31.833 4.876 47.452 4.932 15.619.057 30.983-1.531 45.978-4.961 1.672-.397 3.26-1.219 4.649-2.438 9.808 12.869 18.227 29.764 23.698 47.055 3.316 10.46 5.584 21.146 6.491 31.266.907 10.233.368 19.871-1.984 28.035-4.422 15.307-14.797 25.427-33.194 25.427h-92.891c-2.183 0-4.252-.142-6.208-.397v-46.205h2.835c5.272 0 9.723-2.069 12.982-5.272 1.786-1.786 3.175-3.883 4.139-6.151.936-2.296 1.446-4.734 1.446-7.228 0-4.535-1.673-9.156-5.386-12.926zm25.2 21.515v-.283l.028-.284c.34-2.721-1.587-5.216-4.337-5.556-2.721-.34-5.216 1.587-5.556 4.309-.057.397-.085.709-.085.907-.028.397-.057.709-.057.907 0 5.102 2.608 9.609 6.803 12.784 2.665 1.984 5.953 3.458 9.638 4.167v4.876c0 2.778 2.239 5.017 4.989 5.017s4.989-2.239 4.989-5.017v-4.876c3.685-.709 6.973-2.183 9.638-4.167 4.195-3.175 6.803-7.682 6.803-12.784 0-13.606-10.29-15.477-20.551-17.32-6.151-1.105-12.302-2.211-12.302-7.512 0-1.786 1.077-3.487 2.834-4.819 2.126-1.616 5.159-2.608 8.589-2.608s6.463.992 8.589 2.608c1.757 1.332 2.834 3.033 2.834 4.819v.283l-.028.283c-.34 2.721 1.587 5.216 4.337 5.556 2.721.34 5.216-1.587 5.556-4.309.057-.397.085-.709.085-.907.028-.425.057-.709.057-.907 0-5.102-2.608-9.609-6.803-12.784-2.665-1.984-5.953-3.458-9.638-4.167v-4.904c0-2.75-2.239-4.989-4.989-4.989s-4.989 2.239-4.989 4.989v4.904c-3.685.709-6.973 2.183-9.638 4.167-4.195 3.175-6.803 7.682-6.803 12.784 0 13.606 10.29 15.477 20.551 17.32 6.151 1.106 12.302 2.211 12.302 7.512 0 1.786-1.077 3.487-2.834 4.819-2.126 1.616-5.159 2.608-8.561 2.608h-.057c-3.402 0-6.435-.992-8.561-2.608-1.757-1.332-2.834-3.033-2.834-4.819zm-38.409-107.603c1.247-.709 2.607-1.077 4.11-1.077l.028.028h.028l1.049.113c14.967 3.345 29.877 4.847 44.759 4.734 14.882-.085 29.735-1.757 44.561-4.734l.142-.057c.454-.085.907-.113 1.304-.113 1.36 0 2.636.34 3.798.964 2.92-4.252 5.386-8.731 7.285-13.124 2.834-6.548 4.45-12.983 4.563-18.255.142-6.661-2.098-11.82-7.2-14.031-4.479-1.984-10.829-1.106-19.276 3.94l-8.476 5.046c-3.458 2.069-4.167 1.672-5.159 1.106h-.028l-.396-.227v-.028l-11.792-6.633c-1.956-1.106-3.657-1.814-5.188-2.239-1.616-.454-3.005-.595-4.28-.539-1.248-.057-2.665.085-4.28.539-1.531.425-3.232 1.134-5.188 2.239l-11.792 6.633-.425.255c-.992.567-1.701.964-5.159-1.106l-8.476-5.046c-8.447-5.046-14.797-5.924-19.276-3.94-5.102 2.211-7.341 7.37-7.2 14.031.113 5.272 1.729 11.707 4.564 18.255 1.927 4.45 4.422 8.957 7.398 13.266zm95.527 3.94c-30.274 6.123-60.718 6.831-91.389 0-3.657-.057-6.491 5.868-6.491 13.039s2.948 12.359 6.491 13.068c31.521 6.236 62.079 6.718 91.389 0 3.543-.822 6.491-5.868 6.491-13.068s-2.948-13.663-6.491-13.039zm-243.553 85.635 69.193-70.016c5.358-5.386 13.947-5.386 19.276 0l69.222 70.016c8.447 8.561 2.409 23.074-9.638 23.074h-7.824v65.48c0 6.208-5.074 11.282-11.282 11.282h-25.455v-42.633c0-6.803-2.778-12.954-7.228-17.433-4.479-4.45-10.63-7.228-17.433-7.228s-12.926 2.778-17.405 7.228c-4.479 4.479-7.229 10.63-7.229 17.433v42.633h-25.455c-6.208 0-11.282-5.074-11.282-11.282v-65.48h-7.824c-12.047 0-18.113-14.513-9.638-23.074zm61.049-7.285-5.49 1.247c-.659 2.135-1.424 4.214-2.257 6.228.867 1.488 2.467 2.502 4.326 2.502h42.689c2.778 0 5.018-2.239 5.018-4.989s-2.239-4.989-5.018-4.989h-39.269zm7.436 54.142c-2.636 2.636-4.309 6.321-4.309 10.346v42.633h29.31v-42.633c0-4.025-1.644-7.71-4.309-10.346-2.636-2.665-6.321-4.309-10.346-4.309s-7.682 1.644-10.347 4.309z"/></svg>