<?xml version="1.0" encoding="utf-8"?><!-- Uploaded to: SVG Repo, www.svgrepo.com, Generator: SVG Repo Mixer Tools -->
<svg fill="#000000" width="800px" height="800px" viewBox="0 0 24 24" id="bill-euro-left" data-name="Flat Color" xmlns="http://www.w3.org/2000/svg" class="icon flat-color"><path id="primary" d="M20,2H8A2,2,0,0,0,6,4H6A6,6,0,0,1,6,16v5a1,1,0,0,0,.45.83A1,1,0,0,0,7,22a1,1,0,0,0,.39-.08l1.94-.83,1.94.83a1,1,0,0,0,.78,0L14,21.09l1.95.83a1,1,0,0,0,.78,0l1.94-.83,1.95.83A1,1,0,0,0,22,21V4A2,2,0,0,0,20,2Z" style="fill: rgb(0, 0, 0);"></path><path id="secondary" d="M9.74,11.56A1,1,0,0,1,9.67,13a4,4,0,0,1-6.53-2H3A1,1,0,0,1,3,9h.14A4,4,0,0,1,9.67,7a1,1,0,0,1,.07,1.42,1,1,0,0,1-1.41.07A2,2,0,0,0,7,8,2,2,0,0,0,5.27,9H6a1,1,0,0,1,0,2H5.27A2,2,0,0,0,7,12a2,2,0,0,0,1.33-.51A1,1,0,0,1,9.74,11.56ZM14,16h4a1,1,0,0,0,0-2H14a1,1,0,0,0,0,2Zm2-4h2a1,1,0,0,0,0-2H16a1,1,0,0,0,0,2Z" style="fill: rgb(44, 169, 188);"></path></svg>