<?xml version="1.0" encoding="iso-8859-1"?>
<!-- Uploaded to: SVG Repo, www.svgrepo.com, Generator: SVG Repo Mixer Tools -->
<svg version="1.1" id="Layer_1" xmlns="http://www.w3.org/2000/svg" xmlns:xlink="http://www.w3.org/1999/xlink" 
	 viewBox="0 0 392.669 392.669" xml:space="preserve">
<rect x="51.268" y="21.851" style="fill:#FFFFFF;" width="290.004" height="245.98"/>
<rect x="73.183" y="43.507" style="fill:#FFC10D;" width="246.432" height="202.279"/>
<g>
	<path style="fill:#194F82;" d="M126.452,158.772h-0.065C126.064,158.836,126.387,158.836,126.452,158.772z"/>
	<path style="fill:#194F82;" d="M126.322,138.99h0.065C126.71,138.99,126.387,138.99,126.322,138.99z"/>
	<path style="fill:#194F82;" d="M381.741,267.83h-18.554V21.851h18.554c6.012,0,10.925-4.848,10.925-10.925
		C392.666,4.913,387.817,0,381.741,0H10.928C4.916,0,0.003,4.848,0.003,10.925c0,6.012,4.848,10.925,10.925,10.925h18.554v245.98
		H10.928c-6.012,0-10.925,4.848-10.925,10.925c0,6.012,4.848,10.925,10.925,10.925h93.479l-34.004,88.178
		c-2.133,5.624,0.646,11.895,6.271,14.093c5.624,2.133,11.895-0.646,14.093-6.271l14.093-36.525h182.82l14.093,36.525
		c2.133,5.624,8.469,8.404,14.093,6.271s8.404-8.469,6.271-14.093l-34.004-88.178h93.479c6.012,0,10.925-4.848,10.925-10.925
		C392.472,272.679,387.753,267.83,381.741,267.83z M113.328,327.24l14.545-37.624h136.921l14.545,37.624H113.328z M51.268,267.83
		V21.851h290.004v245.98H51.268z"/>
	<path style="fill:#194F82;" d="M126.452,106.214c9.051,0,16.485,7.37,16.485,16.485c0,5.43,4.396,9.826,9.826,9.826
		c5.43,0,9.826-4.396,9.826-9.826c0-16.485-11.119-30.384-26.246-34.715v-7.499c0-5.43-4.396-9.826-9.826-9.826
		s-9.826,4.396-9.826,9.826v7.499c-15.127,4.331-26.246,18.166-26.246,34.715c0,19.846,16.162,36.073,36.073,36.073
		c0.065,0,0.065,0,0.065,0c8.404,0.776,16.291,7.628,16.291,16.226c0,9.115-7.434,16.485-16.485,16.485
		c-9.05,0-16.485-7.37-16.485-16.485c0-5.43-4.396-9.826-9.826-9.826s-9.762,4.396-9.762,9.826
		c0,16.485,11.119,30.384,26.246,34.715v7.499c0,5.43,4.396,9.826,9.826,9.826c5.43,0,9.826-4.396,9.826-9.826v-7.499
		c15.127-4.331,26.246-18.166,26.246-34.715c0-19.846-16.162-36.073-36.073-36.073c-0.065,0-0.065,0-0.065,0
		c-8.404-0.776-16.291-7.628-16.291-16.226C110.031,113.648,117.337,106.214,126.452,106.214z"/>
	<path style="fill:#194F82;" d="M201.377,151.079c-5.43,0-9.826,4.396-9.826,9.826v56.307c0,5.43,4.396,9.826,9.826,9.826
		c5.43,0,9.826-4.396,9.826-9.826v-56.307C211.203,155.475,206.743,151.079,201.377,151.079z"/>
	<path style="fill:#194F82;" d="M246.953,92.121c-5.43,0-9.826,4.396-9.826,9.826v115.265c0,5.43,4.396,9.826,9.826,9.826
		c5.43,0,9.826-4.396,9.826-9.826V101.883C256.779,96.517,252.383,92.121,246.953,92.121z"/>
	<path style="fill:#194F82;" d="M292.464,62.642c-5.43,0-9.826,4.396-9.826,9.826v144.743c0,5.43,4.396,9.826,9.826,9.826
		c5.43,0,9.826-4.396,9.826-9.826V72.469C302.29,67.038,297.894,62.642,292.464,62.642z"/>
</g>
</svg>