<svg fill="none" height="64" viewBox="0 0 64 64" width="64" xmlns="http://www.w3.org/2000/svg"><path clip-rule="evenodd" d="m2 16c0-7.73199 6.26801-14 14-14h32c7.732 0 14 6.26801 14 14v44c0 .7523-.4221 1.4409-1.0924 1.7822-.6704.3414-1.4756.2777-2.0839-.1647l-10.4741-7.6175h-32.3496c-7.73199 0-14-6.268-14-14zm15 2c-1.1046 0-2 .8954-2 2s.8954 2 2 2h30c1.1046 0 2-.8954 2-2s-.8954-2-2-2zm0 12c-1.1046 0-2 .8954-2 2s.8954 2 2 2h12c1.1046 0 2-.8954 2-2s-.8954-2-2-2z" fill="rgb(0,0,0)" fill-rule="evenodd"/></svg>