<?xml version="1.0"?>
<svg xmlns="http://www.w3.org/2000/svg" id="Layer_1" data-name="Layer 1" viewBox="0 0 64 64"><path d="M4.85,57.21h54.3A4.85,4.85,0,0,0,64,52.36V11.64a4.85,4.85,0,0,0-4.85-4.85H4.85A4.85,4.85,0,0,0,0,11.64V52.36A4.85,4.85,0,0,0,4.85,57.21ZM22.42,12.37a1.14,1.14,0,1,1-1.15,1.14A1.14,1.14,0,0,1,22.42,12.37Zm-7.25,0A1.14,1.14,0,1,1,14,13.51,1.15,1.15,0,0,1,15.17,12.37Zm-7.24,0a1.14,1.14,0,1,1-1.14,1.14A1.14,1.14,0,0,1,7.93,12.37ZM1.94,20H62.06V52.36a2.91,2.91,0,0,1-2.91,2.91H4.85a2.91,2.91,0,0,1-2.91-2.91Z"/><path d="M38.54,27.59h3.25v1.68a1,1,0,0,0,1,1H47.1a1,1,0,0,0,1-1V27.59H58.82a1,1,0,0,0,0-1.94H48.07V24a1,1,0,0,0-1-1H42.76a1,1,0,0,0-1,1v1.68H38.54a1,1,0,0,0,0,1.94Z"/><path d="M38.54,39h11v1.68a1,1,0,0,0,1,1h4.33a1,1,0,0,0,1-1V39h3a1,1,0,1,0,0-1.94h-3V35.37a1,1,0,0,0-1-1H50.52a1,1,0,0,0-1,1v1.68h-11a1,1,0,0,0,0,1.94Z"/><path d="M38.54,49.62h4.22V51.3a1,1,0,0,0,1,1h4.34a1,1,0,0,0,1-1V49.62h9.79a1,1,0,0,0,0-1.94H49V46a1,1,0,0,0-1-1H43.73a1,1,0,0,0-1,1v1.68H38.54a1,1,0,0,0,0,1.94Z"/><path d="M8,45.35l2.92-1.18a11.8,11.8,0,0,0,2.25,2.27l-1.24,2.91,5.59,2.37,1.23-2.9h0a11.87,11.87,0,0,0,3.15,0l1.18,2.93,5.63-2.28-1.18-2.92a11.74,11.74,0,0,0,2.27-2.24l2.9,1.24L35.07,40l-2.9-1.23a.06.06,0,0,0,0,0,11.87,11.87,0,0,0,0-3.15l2.93-1.18-2.27-5.63-2.92,1.18a12.34,12.34,0,0,0-2.24-2.27l1.23-2.91-5.58-2.37-1.23,2.91h-.05a11.87,11.87,0,0,0-3.15,0l-1.18-2.93-5.62,2.27,1.18,2.92A12.09,12.09,0,0,0,11,29.77l-2.9-1.23L5.74,34.12l2.9,1.23s0,0,0,0a11.8,11.8,0,0,0,0,3.14L5.69,39.73ZM20.41,29.86a7.2,7.2,0,1,1-7.2,7.19A7.19,7.19,0,0,1,20.41,29.86Z"/></svg>
