<svg clip-rule="evenodd" fill-rule="evenodd" height="512" image-rendering="optimizeQuality" shape-rendering="geometricPrecision" text-rendering="geometricPrecision" viewBox="0 0 512 512" width="512" xmlns="http://www.w3.org/2000/svg"><g id="Layer_x0020_1"><path d="m422.499 326.999h-68.2006c-1.82481 0-43.8474 1.58741-81.0664 2.45198 0 1.37363-20.8418 1.17756-45.4123.483072-2.27717-.0389765-4.28151-.0968507-5.95041-.175985-33.156-1.01693-70.453-2.75906-72.2695-2.75906h-60.1006c-49.3998 0-89.4995-40.2001-89.4995-89.4983 0-46.8001 36.3001-85.5003 82.2995-89.1995-.400395-3.30001-.499608-6.49963-.499608-9.70042 0-49.3998 40.2001-89.4995 89.4995-89.4995 34.6997 0 66.3002 20.2997 81.0002 51.3002 15.1985-10.9004 33.3993-16.8001 52.199-16.8001 20.2997 0 40.2001 7.00042 55.9998 19.6997 14.2997 11.5004 24.7997 27.1997 29.8997 44.7001l32.1013-.00118111c49.3998 0 89.4995 40.2001 89.4995 89.4995s-40.2001 89.4995-89.4995 89.4995z" fill="#a4a4a4"/><path d="m354.299 462.898h-204.699c-3.30001 0-6.00002-2.70001-6.00002-6.00002v-217.098c0-1.69961.700396-3.30001 1.9004-4.39962l51.1998-47.5005c1.09961-1.0004 2.59961-1.6004 4.09962-1.6004h153.499c3.30001 0 6.00002 2.70001 6.00002 6.00002v142.598c0 1.363 5.7449 18.6461 12.2563 38.4592l3.2445-1.15985c.702758 0 .405119 3.70159-.494883 9.5457 8.49215 25.9583 17.1036 53.0187 15.3567 53.0187-1.41024 0-9.35908-17.6552-17.9977-38.1226-4.65356 24.2623-12.2646 58.1529-12.2646 60.2588 0 3.30001-2.8004 6.00002-6.10041 6.00002z" fill="#f0f0f0"/><path d="m143.6 245.8v-6.00002c0-1.69961.700396-3.30001 1.9004-4.39962l51.1998-47.5005c1.09961-1.0004 2.59961-1.6004 4.09962-1.6004h6.00002v53.5006c0 3.30001-2.70001 6.00002-6.00002 6.00002h-57.1998z" fill="#d8d8d8"/><path d="m333.798 261.498h-38.6989c-3.30001 0-6.00002-2.70001-6.00002-6.00002v-39.4985c0-3.30001 2.70001-6.00002 6.00002-6.00002h38.6989c3.30001 0 6.00002 2.70001 6.00002 6.00002v39.4985c0 3.30001-2.70001 6.00002-6.00002 6.00002z" fill="#e5e5e6"/><g fill="#d8d8d8"><path d="m279.099 228.199h-64.0986c-3.30001 0-6.00002-2.70001-6.00002-6.00002s2.70001-6.00002 6.00002-6.00002h64.0986c3.30001 0 6.00002 2.70001 6.00002 6.00002s-2.70001 6.00002-6.00002 6.00002z"/><path d="m279.799 255.298h-64.0998c-3.30001 0-6.00002-2.69883-6.00002-5.99884s2.70001-6.00002 6.00002-6.00002h64.0998c3.30001 0 6.00002 2.70001 6.00002 6.00002s-2.70001 5.99884-6.00002 5.99884z"/><path d="m332.099 285.198h-161.998c-3.30001 0-6.00002-2.70001-6.00002-6.00002s2.70001-6.00002 6.00002-6.00002h161.998c3.30001 0 6.00002 2.70001 6.00002 6.00002s-2.70001 6.00002-6.00002 6.00002z"/><path d="m333.798 312.099h-161.998c-3.30001 0-6.00002-2.70001-6.00002-6.00002s2.70001-6.00002 6.00002-6.00002h161.998c3.30001 0 6.00002 2.70001 6.00002 6.00002s-2.70001 6.00002-6.00002 6.00002z"/><path d="m330.999 340.898h-161.999c-3.30001 0-6.00002-2.70001-6.00002-6.00002s2.70001-6.00002 6.00002-6.00002h161.999c3.30001 0 6.00002 2.70001 6.00002 6.00002s-2.70001 6.00002-6.00002 6.00002z"/><path d="m301.199 367.698h-130.498c-3.30001 0-6.00002-2.70001-6.00002-6.00002s2.70001-6.00002 6.00002-6.00002h130.498c3.30001 0 6.00002 2.70001 6.00002 6.00002s-2.70001 6.00002-6.00002 6.00002z"/><path d="m167.9 396.498c-3.30001 0-6.00002-2.70001-6.00002-6.00002s2.70001-6.00002 6.00002-6.00002h123.098c3.30001 0 6.00002 2.70001 6.00002 6.00002s-2.70001 6.00002-6.00002 6.00002z"/><path d="m270.199 423.398h-100.6c-3.30001 0-6.00002-2.70001-6.00002-6.00002s2.70001-6.00002 6.00002-6.00002h100.6c3.30001 0 6.00002 2.70001 6.00002 6.00002s-2.6008 6.00002-6.00002 6.00002z"/></g><path d="m351.798 462.898c-36.9001 0-66.9994-30.1005-66.9994-66.9994 0-36.9001 30.1005-66.9994 66.9994-66.9994 36.9001 0 66.9994 30.1005 66.9994 66.9994.00118111 36.9001-30.0993 66.9994-66.9994 66.9994z" fill="#878787"/><path d="m332.099 421.199c-1.6004 0-3.1004-.600002-4.30041-1.80001-2.29961-2.40001-2.29961-6.19963.100394-8.50042l39.4005-38.5997c2.40001-2.29961 6.19963-2.29961 8.50042.100394 2.29961 2.40001 2.29961 6.19963-.100394 8.50042l-39.4005 38.5997c-1.2 1.09961-2.70001 1.69961-4.20001 1.69961z" fill="#f0f0f0"/><path d="m371.099 421.598c-1.6004 0-3.1004-.600002-4.30041-1.80001l-38.5997-39.4005c-2.29961-2.40001-2.29961-6.19963.100394-8.50042 2.40001-2.29961 6.19963-2.29961 8.50042.100394l38.5997 39.4005c2.29961 2.40001 2.29961 6.19963-.100394 8.50042-1.2 1.09961-2.70001 1.69961-4.20001 1.69961z" fill="#f0f0f0"/></g></svg>