<svg fill="none" height="300" viewBox="0 0 64 64" width="300" xmlns="http://www.w3.org/2000/svg" version="1.1" xmlns:xlink="http://www.w3.org/1999/xlink" xmlns:svgjs="http://svgjs.dev/svgjs"><g width="100%" height="100%" transform="matrix(1,0,0,1,0,0)"><g clip-rule="evenodd" fill="#000" fill-rule="evenodd"><path d="m16 2c-7.73199 0-14 6.26801-14 14v1h60v-1c0-7.73199-6.268-14-14-14zm2 10c1.1046 0 2-.8954 2-2 0-1.10457-.8954-2-2-2h-4c-1.1046 0-2 .89543-2 2 0 1.1046.8954 2 2 2z" fill="#000000" fill-opacity="1" data-original-color="#000000ff" stroke="none" stroke-opacity="1"/><path d="m2 48v-27h60v27c0 7.732-6.268 14-14 14h-32c-7.73199 0-14-6.268-14-14zm20.8713-15.1973c2.2331-2.3437 5.3844-3.8027 8.8742-3.8027 6.768 0 12.2545 5.4865 12.2545 12.2545 0 1.1046.8954 2 2 2s2-.8954 2-2c0-8.9771-7.2774-16.2545-16.2545-16.2545-4.9367 0-9.3569 2.2004-12.3368 5.671-.4274-.4234-1.0402-.6499-1.6822-.5613-1.0942.151-1.8588 1.1605-1.7077 2.2547l.5271 3.8182c.0824.597.4296 1.1251.9452 1.4373.5155.3122 1.1444.3752 1.7117.1716l3.5456-1.2727c1.0396-.3732 1.5799-1.5185 1.2067-2.5581-.1939-.5402-.5961-.9455-1.0838-1.158zm-2.8713 8.1973c0-1.1046-.8954-2-2-2s-2 .8954-2 2c0 8.8704 7.3115 16 16.2545 16 4.9272 0 9.3516-2.16 12.3361-5.5809.4286.4251 1.0439.6519 1.6878.5614 1.0938-.1537 1.8559-1.165 1.7021-2.2589l-.527-3.75c-.0835-.594-.4292-1.1192-.9418-1.4307s-1.138-.3766-1.7037-.1771l-3.5457 1.25c-1.0417.3672-1.5885 1.5094-1.2212 2.5512.187.5304.5749.9326 1.0482 1.151-2.2264 2.2675-5.3574 3.684-8.8348 3.684-6.8021 0-12.2545-5.4064-12.2545-12z" fill="#000000" fill-opacity="1" data-original-color="#000000ff" stroke="none" stroke-opacity="1"/></g></g></svg>