<svg clip-rule="evenodd" fill-rule="evenodd" stroke-linejoin="round" stroke-miterlimit="2" viewBox="0 0 128 128" xmlns="http://www.w3.org/2000/svg"><g id="Icon"><path d="m60.182 104h-52.182c-1.105 0-2-.895-2-2v-68h102v27.998c-2.497-1.336-5.18-2.369-8-3.05v-9.948c0-1.105-.895-2-2-2h-10c-1.105 0-2 .895-2 2v9.529c-1.387.247-2.744.579-4.068.989.044-.165.068-.339.068-.518v-10c0-1.105-.895-2-2-2h-10c-1.105 0-2 .895-2 2v10c0 1.105.895 2 2 2h8.025c-2.386 1.079-4.626 2.425-6.682 4h-1.343c-1.105 0-2 .895-2 2v.926c-1.474 1.47-2.814 3.074-4 4.792v-5.718c0-1.105-.895-2-2-2h-10c-1.105 0-2 .895-2 2v10c0 1.105.895 2 2 2h8.578c-.537 1.295-.996 2.63-1.372 4h-7.206c-1.105 0-2 .895-2 2v10c0 1.105.895 2 2 2h6.366c.358 2.426.973 4.769 1.816 7zm-27.681-56.75 4 5c.366.458.992.734 1.499.75s1.149-.22 1.543-.654l10-11c.742-.816.682-2.082-.135-2.825-.816-.742-2.082-.682-2.825.135l-8.423 9.265-2.535-3.169c-.69-.862-1.949-1.002-2.811-.313-.862.69-1.002 1.949-.313 2.811zm9.499 8.75v1h-6c0-1.104-.896-2-2-2s-2 .896-2 2v2c0 1.105.895 2 2 2h10c1.105 0 2-.895 2-2v-3c0-1.104-.896-2-2-2s-2 .896-2 2zm-14 29c0-1.105-.895-2-2-2h-10c-1.105 0-2 .895-2 2v10c0 1.105.895 2 2 2h10c1.105 0 2-.895 2-2zm-4 2v6h-6v-6zm40-38c0-1.105-.895-2-2-2h-10c-1.105 0-2 .895-2 2v10c0 1.105.895 2 2 2h10c1.105 0 2-.895 2-2zm-4 2v6h-6v-6zm-14 34c0-1.105-.895-2-2-2h-10c-1.105 0-2 .895-2 2v10c0 1.105.895 2 2 2h10c1.105 0 2-.895 2-2zm-4 2v6h-6v-6zm-14-20c0-1.105-.895-2-2-2h-10c-1.105 0-2 .895-2 2v10c0 1.105.895 2 2 2h10c1.105 0 2-.895 2-2zm-4 2v6h-6v-6zm22-2c0-1.105-.895-2-2-2h-10c-1.105 0-2 .895-2 2v10c0 1.105.895 2 2 2h10c1.105 0 2-.895 2-2zm-4 2v6h-6v-6zm16.014 24h-4.014v-6h4.366c-.241 1.632-.366 3.302-.366 5 0 .334.005.668.014 1zm37.986-42v6h-6v-6zm-36 18v6h-6v-6zm18-18v6h-6v-6zm16-37h12c1.105 0 2 .895 2 2v14h-102v-14c0-1.105.895-2 2-2h10v6c0 1.591.632 3.117 1.757 4.243.079.079.16.155.243.229l-.002-14.474c0-2.208 1.79-3.998 3.998-3.998h.004c1.06 0 2.077.421 2.827 1.171s1.171 1.767 1.171 2.827l.002 4.002h12v6c0 1.591.632 3.117 1.757 4.243.079.079.16.155.243.229l-.002-14.474c0-2.208 1.79-3.998 3.998-3.998h.004c1.06 0 2.077.421 2.827 1.171s1.171 1.767 1.171 2.827l.002 4.002h12v6c0 1.591.632 3.117 1.757 4.243.079.079.16.155.243.229l-.002-14.474c0-2.208 1.79-3.998 3.998-3.998h.004c1.06 0 2.077.421 2.827 1.171s1.171 1.767 1.171 2.827l.002 4.002h12v6c0 1.591.632 3.117 1.757 4.243.079.079.16.155.243.229l-.002-14.474c0-2.208 1.79-3.998 3.998-3.998h.004c1.06 0 2.077.421 2.827 1.171s1.171 1.767 1.171 2.827zm-2 48c16.557 0 30 13.443 30 30s-13.443 30-30 30-30-13.443-30-30 13.443-30 30-30zm-12.101 29.516 5.257 5.257-5.903 5.903c-1.562 1.562-1.562 4.095 0 5.657l1.414 1.414c1.562 1.562 4.095 1.562 5.657 0l5.903-5.903 6.057 6.056c1.562 1.563 4.095 1.563 5.657.001l1.414-1.415c1.562-1.562 1.562-4.094 0-5.657l-6.057-6.056 2.115-2.115c3.336.89 7.044.027 9.66-2.589 2.964-2.964 3.677-7.334 2.137-10.974-.259-.612-.806-1.056-1.459-1.183-.653-.128-1.327.078-1.797.549l-3.124 3.123s-1.414-1.414-1.414-1.414l3.123-3.124c.471-.47.677-1.144.549-1.797-.127-.653-.571-1.2-1.183-1.459-3.64-1.54-8.01-.827-10.974 2.137-2.616 2.615-3.479 6.324-2.589 9.66l-2.115 2.115-5.256-5.257 5.656-5.657c.573-.572.744-1.433.434-2.18-.31-.748-1.04-1.235-1.849-1.234-6.186.002-13.744 4.103-22.652 13.339-.757.785-.745 2.032.026 2.803l4.242 4.242c.781.781 2.048.781 2.829 0zm3.596 15.403-1.414-1.414 15.968-15.969c.576-.576.746-1.443.428-2.193-.924-2.185-.498-4.808 1.282-6.587.867-.867 1.934-1.413 3.053-1.638-.001 0-1.639 1.638-1.639 1.638-.781.781-.781 2.047 0 2.828l4.243 4.243c.781.781 2.047.781 2.828 0l1.638-1.638c-.225 1.119-.771 2.185-1.638 3.052-1.779 1.78-4.402 2.206-6.587 1.282-.75-.318-1.617-.148-2.193.428zm5.904-14.389-1.414 1.414-5.257-5.257 1.414-1.414zm-15.147-3.834 1.405 1.406-1.414 1.414-1.426-1.426c.484-.481.962-.946 1.435-1.394zm22.218 10.905 6.057 6.057-1.414 1.414-6.057-6.057zm-17.985-12.328-1.248-1.248c2.683-2.251 5.184-3.923 7.524-5.027 0 0-3.355 3.355-6.276 6.275z"/></g></svg>