<?xml version="1.0" standalone="no"?>
<!DOCTYPE svg PUBLIC "-//W3C//DTD SVG 20010904//EN"
 "http://www.w3.org/TR/2001/REC-SVG-20010904/DTD/svg10.dtd">
<svg version="1.0" xmlns="http://www.w3.org/2000/svg"
 width="1890.000000pt" height="550.000000pt" viewBox="0 0 1890.000000 550.000000"
 preserveAspectRatio="xMidYMid meet">

<g transform="translate(0.000000,550.000000) scale(0.100000,-0.100000)"
fill="#000000" stroke="none">
<path d="M18095 5219 c-187 -76 -353 -143 -370 -149 -29 -11 -27 -13 95 -62
69 -29 126 -53 128 -54 4 -2 -498 -1227 -508 -1237 -4 -4 -96 258 -205 582
l-199 591 -348 0 c-191 0 -348 -1 -348 -3 0 -2 169 -452 375 -1001 206 -549
375 -1004 375 -1012 0 -8 -53 -143 -117 -300 -83 -205 -113 -288 -104 -293 24
-15 562 -234 565 -230 2 2 248 598 546 1324 298 726 545 1324 549 1328 7 7 72
-15 193 -67 l37 -16 -35 83 c-136 318 -278 643 -283 648 -3 3 -159 -56 -346
-132z"/>
<path d="M5060 3425 l0 -1485 335 0 335 0 0 1485 0 1485 -335 0 -335 0 0
-1485z"/>
<path d="M13140 3425 l0 -1485 335 0 335 0 0 1485 0 1485 -335 0 -335 0 0
-1485z"/>
<path d="M1069 4815 c-286 -45 -501 -144 -680 -312 -173 -164 -247 -356 -236
-613 9 -217 67 -367 191 -498 157 -165 352 -252 791 -352 254 -58 298 -71 378
-113 111 -58 167 -154 151 -260 -9 -58 -25 -87 -77 -134 -97 -90 -193 -116
-422 -117 -119 -1 -182 4 -245 17 -248 54 -476 157 -657 298 -48 38 -71 49
-98 49 l-35 0 0 -334 0 -334 77 -32 c190 -79 441 -147 638 -171 150 -19 498
-16 620 5 275 47 460 124 627 261 124 102 228 264 274 425 26 92 27 366 1 460
-31 113 -79 201 -153 280 -165 175 -369 265 -844 371 -257 58 -385 105 -437
161 -50 53 -69 154 -44 230 7 23 35 58 70 91 101 93 258 135 461 123 263 -15
520 -111 746 -278 34 -25 62 -38 82 -38 l32 0 0 323 0 323 -97 36 c-178 66
-399 117 -595 138 -132 14 -414 11 -519 -5z"/>
<path d="M10610 3361 l0 -1421 355 0 355 0 0 465 0 465 198 0 c231 0 389 12
504 39 272 64 518 238 645 456 155 266 172 679 38 949 -73 147 -192 263 -350
340 -108 53 -159 71 -285 98 -90 20 -133 21 -777 25 l-683 4 0 -1420z m1200
860 c85 -30 121 -52 169 -108 73 -82 101 -205 82 -348 -19 -132 -81 -235 -175
-290 -89 -51 -167 -66 -373 -72 l-193 -6 0 427 0 428 213 -4 c187 -4 220 -7
277 -27z"/>
<path d="M7010 4135 c-112 -17 -162 -29 -251 -61 -283 -100 -503 -327 -603
-621 -52 -152 -61 -222 -61 -453 1 -184 4 -228 23 -308 83 -358 308 -604 662
-725 161 -55 327 -77 575 -77 267 0 472 37 708 128 l117 45 0 273 0 274 -36 0
c-26 0 -54 -11 -91 -36 -81 -54 -215 -120 -301 -148 -119 -40 -222 -56 -355
-56 -229 0 -391 52 -497 159 -84 85 -124 173 -144 319 l-6 42 736 0 737 0 -6
203 c-8 229 -25 353 -67 477 -112 332 -356 520 -740 570 -102 13 -297 11 -400
-5z m287 -427 c99 -24 170 -83 214 -177 20 -44 49 -170 49 -217 l0 -24 -406 0
-406 0 7 43 c9 62 34 146 55 188 41 79 134 153 235 185 51 16 192 17 252 2z"/>
<path d="M3189 4125 c-123 -17 -250 -41 -361 -66 l-88 -21 0 -259 0 -259 25 0
c13 0 59 14 102 31 223 89 368 122 543 121 326 -1 470 -79 496 -269 l6 -51
-63 -6 c-524 -48 -656 -70 -830 -137 -225 -87 -356 -210 -420 -396 -24 -71
-42 -239 -34 -322 25 -249 156 -442 366 -541 113 -52 176 -63 344 -58 130 4
161 8 230 32 114 39 220 98 308 172 42 35 78 64 81 64 3 0 7 -48 8 -107 l3
-108 328 -3 327 -2 0 792 c0 889 1 871 -71 1018 -94 191 -284 309 -589 365
-128 24 -571 30 -711 10z m709 -1407 l-3 -232 -62 -42 c-121 -83 -249 -110
-395 -84 -136 24 -198 98 -199 240 -2 207 111 286 471 329 85 10 163 19 173
20 16 1 17 -14 15 -231z"/>
<path d="M9240 4133 c-86 -9 -242 -47 -325 -80 -156 -62 -269 -141 -350 -245
-86 -108 -123 -205 -132 -343 -12 -191 47 -358 168 -476 119 -116 280 -183
594 -249 282 -60 365 -99 377 -181 19 -129 -93 -205 -322 -216 -226 -11 -494
72 -697 217 -48 35 -94 60 -108 60 l-25 0 0 -284 0 -285 83 -31 c191 -75 371
-115 580 -129 431 -31 785 73 993 290 114 120 164 237 171 404 10 200 -34 323
-156 445 -120 120 -262 183 -541 239 -368 75 -440 114 -440 235 0 45 4 53 45
92 67 65 146 87 305 86 100 0 144 -5 223 -26 110 -28 251 -91 356 -160 40 -25
83 -46 96 -46 l25 0 -2 272 -3 271 -70 29 c-100 41 -277 87 -402 103 -97 13
-351 18 -443 8z"/>
<path d="M14789 4125 c-123 -17 -250 -41 -361 -66 l-88 -21 0 -259 0 -259 25
0 c13 0 59 14 102 31 223 89 368 122 543 121 326 -1 470 -79 496 -269 l6 -51
-63 -6 c-244 -22 -398 -39 -489 -52 -375 -54 -621 -190 -729 -402 -61 -119
-84 -366 -48 -514 46 -188 175 -347 348 -428 113 -52 176 -63 344 -58 130 4
161 8 230 32 117 40 220 98 307 171 42 36 79 65 82 65 3 0 7 -48 8 -107 l3
-108 328 -3 327 -2 0 792 c0 889 1 871 -71 1018 -94 192 -282 308 -589 366
-118 22 -578 28 -711 9z m709 -1407 l-3 -232 -62 -42 c-121 -83 -249 -110
-395 -84 -138 24 -198 98 -198 243 0 153 55 225 210 275 36 11 81 24 100 28
33 7 293 40 333 43 16 1 17 -14 15 -231z"/>
<path d="M16812 2182 c-12 -32 -22 -62 -22 -67 0 -8 536 -235 564 -239 5 0 21
28 36 64 l27 66 -286 117 c-157 65 -288 117 -291 117 -3 0 -15 -26 -28 -58z"/>
<path d="M16757 2048 c-3 -7 -14 -36 -25 -65 l-21 -51 156 -64 c95 -38 147
-64 134 -66 -11 -2 -21 -10 -21 -18 0 -8 -4 -14 -8 -14 -4 0 -68 25 -141 55
-73 30 -137 53 -141 50 -5 -3 -14 -21 -20 -40 l-12 -35 -119 0 -119 0 0 -830
0 -830 190 0 190 0 0 550 c0 434 3 550 13 549 6 0 46 -15 87 -33 l75 -32 3
-517 2 -517 130 0 130 0 0 723 c1 607 3 726 15 747 18 32 18 40 0 40 -10 0
-15 10 -15 30 0 27 3 30 25 24 22 -5 27 -1 50 52 14 32 24 63 22 69 -5 10
-542 235 -563 235 -7 0 -14 -6 -17 -12z m145 -410 c72 -30 78 -34 78 -61 0
-21 -4 -28 -14 -24 -133 51 -166 70 -166 93 0 31 8 30 102 -8z m-11 -212 c74
-30 84 -37 87 -61 3 -25 1 -27 -24 -21 -15 4 -55 20 -90 36 -54 24 -64 33 -64
54 0 14 1 26 3 26 2 0 41 -15 88 -34z"/>
<path d="M180 970 l0 -830 140 0 140 0 0 830 0 830 -140 0 -140 0 0 -830z"/>
<path d="M610 970 l0 -830 65 0 65 0 0 830 0 830 -65 0 -65 0 0 -830z"/>
<path d="M1010 970 l0 -830 70 0 70 0 0 830 0 830 -70 0 -70 0 0 -830z"/>
<path d="M1710 970 l0 -830 125 0 125 0 0 830 0 830 -125 0 -125 0 0 -830z"/>
<path d="M2140 970 l0 -830 190 0 190 0 0 830 0 830 -190 0 -190 0 0 -830z"/>
<path d="M2690 970 l0 -830 60 0 60 0 0 830 0 830 -60 0 -60 0 0 -830z"/>
<path d="M3240 970 l0 -830 65 0 65 0 0 830 0 830 -65 0 -65 0 0 -830z"/>
<path d="M3640 970 l0 -830 80 0 80 0 0 830 0 830 -80 0 -80 0 0 -830z"/>
<path d="M3930 970 l0 -830 130 0 130 0 0 830 0 830 -130 0 -130 0 0 -830z"/>
<path d="M4740 970 l0 -830 145 0 145 0 0 830 0 830 -145 0 -145 0 0 -830z"/>
<path d="M5310 970 l0 -830 70 0 70 0 0 830 0 830 -70 0 -70 0 0 -830z"/>
<path d="M5590 970 l0 -830 60 0 60 0 0 830 0 830 -60 0 -60 0 0 -830z"/>
<path d="M6290 970 l0 -830 60 0 60 0 0 830 0 830 -60 0 -60 0 0 -830z"/>
<path d="M6580 970 l0 -830 120 0 120 0 0 830 0 830 -120 0 -120 0 0 -830z"/>
<path d="M7130 970 l0 -830 55 0 55 0 0 830 0 830 -55 0 -55 0 0 -830z"/>
<path d="M7820 970 l0 -830 60 0 60 0 0 830 0 830 -60 0 -60 0 0 -830z"/>
<path d="M8080 970 l0 -830 270 0 270 0 0 830 0 830 -270 0 -270 0 0 -830z"/>
<path d="M8920 970 l0 -830 65 0 65 0 0 830 0 830 -65 0 -65 0 0 -830z"/>
<path d="M9350 970 l0 -830 205 0 205 0 0 830 0 830 -205 0 -205 0 0 -830z"/>
<path d="M9900 970 l0 -830 205 0 205 0 0 830 0 830 -205 0 -205 0 0 -830z"/>
<path d="M10450 970 l0 -830 125 0 125 0 0 830 0 830 -125 0 -125 0 0 -830z"/>
<path d="M10880 970 l0 -830 125 0 125 0 0 830 0 830 -125 0 -125 0 0 -830z"/>
<path d="M11420 970 l0 -830 60 0 60 0 0 830 0 830 -60 0 -60 0 0 -830z"/>
<path d="M11700 970 l0 -830 60 0 60 0 0 830 0 830 -60 0 -60 0 0 -830z"/>
<path d="M12380 970 l0 -830 80 0 80 0 0 830 0 830 -80 0 -80 0 0 -830z"/>
<path d="M12810 970 l0 -830 60 0 60 0 0 830 0 830 -60 0 -60 0 0 -830z"/>
<path d="M13100 970 l0 -830 125 0 125 0 0 830 0 830 -125 0 -125 0 0 -830z"/>
<path d="M13920 970 l0 -830 135 0 135 0 0 830 0 830 -135 0 -135 0 0 -830z"/>
<path d="M14330 970 l0 -830 130 0 130 0 0 830 0 830 -130 0 -130 0 0 -830z"/>
<path d="M14760 970 l0 -830 265 0 265 0 0 830 0 830 -265 0 -265 0 0 -830z"/>
<path d="M15440 970 l0 -830 125 0 125 0 0 830 0 830 -125 0 -125 0 0 -830z"/>
<path d="M15870 970 l0 -830 60 0 60 0 0 830 0 830 -60 0 -60 0 0 -830z"/>
<path d="M17670 970 l0 -830 205 0 205 0 0 830 0 830 -205 0 -205 0 0 -830z"/>
<path d="M18210 970 l0 -830 65 0 65 0 0 830 0 830 -65 0 -65 0 0 -830z"/>
<path d="M18490 970 l0 -830 140 0 140 0 0 830 0 830 -140 0 -140 0 0 -830z"/>
</g>
</svg>
