<?xml version="1.0" standalone="no"?>
<!DOCTYPE svg PUBLIC "-//W3C//DTD SVG 20010904//EN"
 "http://www.w3.org/TR/2001/REC-SVG-20010904/DTD/svg10.dtd">
<svg version="1.0" xmlns="http://www.w3.org/2000/svg"
 width="800.000000pt" height="800.000000pt" viewBox="0 0 800.000000 800.000000"
 preserveAspectRatio="xMidYMid meet">

<g transform="translate(0.000000,800.000000) scale(0.100000,-0.100000)"
fill="#000000" stroke="none">
<path d="M1850 7683 c-323 -31 -628 -115 -850 -236 -201 -108 -417 -286 -531
-436 -68 -90 -153 -266 -183 -379 -82 -308 -48 -688 84 -962 56 -115 112 -190
214 -288 230 -221 550 -365 1061 -478 275 -61 595 -144 659 -171 78 -33 181
-100 228 -149 64 -68 83 -123 83 -244 -1 -118 -11 -149 -69 -219 -76 -91 -198
-167 -312 -195 -84 -21 -292 -46 -382 -46 -208 0 -460 41 -676 110 -289 93
-508 208 -760 399 -100 76 -109 81 -156 81 l-50 0 0 -528 0 -528 101 -43 c129
-54 385 -141 548 -186 264 -73 471 -103 771 -113 568 -20 959 45 1315 218 450
218 722 555 802 990 23 128 23 409 0 536 -21 114 -60 240 -99 319 -102 202
-299 376 -585 517 -138 67 -445 171 -628 213 -312 71 -626 148 -685 167 -166
53 -286 141 -332 242 -19 42 -23 68 -23 151 0 89 3 106 26 150 39 73 135 160
221 200 180 83 281 99 559 92 244 -6 367 -27 586 -98 208 -68 488 -218 664
-356 49 -38 63 -44 95 -41 l39 3 0 510 0 510 -120 48 c-305 123 -668 202
-1080 237 -110 9 -453 11 -535 3z"/>
<path d="M4350 5375 l0 -2235 560 0 560 0 0 730 0 730 268 0 c466 1 694 22
916 86 272 79 482 200 702 407 181 171 312 400 378 664 112 444 55 918 -146
1224 -71 107 -202 248 -297 319 -124 93 -378 203 -577 251 -222 53 -214 52
-1326 56 l-1038 4 0 -2236z m1814 1371 c32 -9 102 -35 155 -58 77 -34 108 -54
156 -103 117 -117 159 -235 158 -445 -2 -233 -44 -354 -171 -491 -53 -58 -81
-78 -156 -114 -50 -24 -118 -51 -151 -59 -83 -21 -294 -36 -507 -36 l-178 0 0
666 0 666 318 -5 c254 -3 329 -8 376 -21z"/>
<path d="M290 1610 l0 -1300 220 0 220 0 0 1300 0 1300 -220 0 -220 0 0 -1300z"/>
<path d="M960 1610 l0 -1300 105 0 105 0 0 1300 0 1300 -105 0 -105 0 0 -1300z"/>
<path d="M1600 1610 l0 -1300 110 0 110 0 0 1300 0 1300 -110 0 -110 0 0
-1300z"/>
<path d="M2030 1610 l0 -1300 100 0 100 0 0 1300 0 1300 -100 0 -100 0 0
-1300z"/>
<path d="M2530 1610 l0 -1300 205 0 205 0 0 1300 0 1300 -205 0 -205 0 0
-1300z"/>
<path d="M3360 1610 l0 -1300 310 0 310 0 0 1300 0 1300 -310 0 -310 0 0
-1300z"/>
<path d="M4550 1610 l0 -1300 100 0 100 0 0 1300 0 1300 -100 0 -100 0 0
-1300z"/>
<path d="M5110 1610 l0 -1300 95 0 95 0 0 1300 0 1300 -95 0 -95 0 0 -1300z"/>
<path d="M5740 1610 l0 -1300 120 0 120 0 0 1300 0 1300 -120 0 -120 0 0
-1300z"/>
<path d="M6510 1610 l0 -1300 205 0 205 0 0 1300 0 1300 -205 0 -205 0 0
-1300z"/>
<path d="M7310 1610 l0 -1300 230 0 230 0 0 1300 0 1300 -230 0 -230 0 0
-1300z"/>
</g>
</svg>
