<svg width="787" height="212" viewBox="0 0 787 212" fill="none" xmlns="http://www.w3.org/2000/svg">
<path d="M132.57 0.563477V67.5235V199.813L199.14 133.243V0.563477H132.57Z" fill="#FF3D00"/>
<path d="M0 67.5235H132.57V0.563477H66.58L0 67.5235Z" fill="#FD9158"/>
<path d="M478.994 103.573C459.224 103.573 443.194 87.273 443.644 67.403C444.084 48.073 460.364 32.853 479.694 32.853L507.844 32.783V1.08301H480.054C443.184 1.07301 412.404 30.343 411.864 67.203C411.314 104.683 441.644 135.343 478.994 135.343L488.284 135.323L512.654 103.633L478.984 103.563L478.994 103.573Z" fill="#333333"/>
<path d="M507.853 1.07324L507.813 135.173C507.813 135.173 507.833 135.173 507.853 135.173H542.303C542.303 135.173 542.343 135.193 542.343 135.173V34.2032L507.853 1.07324Z" fill="#333333"/>
<path d="M298.013 0.573242C298.013 0.573242 297.983 0.613242 298.013 0.643242V31.5132C298.013 31.5132 298.003 31.5232 298.013 31.5232H345.463C345.463 31.5232 345.503 31.5432 345.503 31.5632V135.163L381.223 103.973C381.223 103.973 381.233 103.953 381.233 103.943V31.5732C381.233 31.5732 381.253 31.5332 381.273 31.5332H406.623L431.823 0.573242H298.013Z" fill="#333333"/>
<path d="M732.903 75.273C732.903 75.273 730.133 75.2331 730.143 75.2231L773.923 19.573L773.743 0.763047L751.333 0.623047L699.363 66.273C699.363 66.273 699.363 66.293 699.363 66.303V83.583C699.363 83.583 699.363 83.6031 699.363 83.6131L740.253 134.613L778.133 134.543L732.893 75.2831L732.903 75.273Z" fill="#333333"/>
<path d="M656.094 104.143C656.094 104.143 656.074 104.123 656.064 104.123H600.284C600.284 104.123 600.234 104.083 600.254 104.053L655.034 29.4832C655.034 29.4832 655.044 29.4532 655.034 29.4332L632.844 0.573242C632.844 0.573242 632.824 0.573242 632.814 0.573242H525.644L557.564 31.2332H611.694C611.694 31.2332 611.744 31.2732 611.724 31.3032L557.604 104.573V104.593V135.183C557.604 135.183 557.624 135.183 557.644 135.183H681.904L656.104 104.153L656.094 104.143Z" fill="#333333"/>
<path d="M699.283 134.413L699.353 0.573342C699.353 0.573342 699.333 0.573342 699.313 0.573342H665.373C665.373 0.573342 665.333 0.553342 665.333 0.573342V95.5533L699.283 134.403V134.413Z" fill="#333333"/>
<path d="M298.172 182.725V187.893H305.111V191.171H298.172V196.634H305.997V200H294.038V179.359H305.997V182.725H298.172ZM320.68 196.722H327.472V200H316.546V179.388H320.68V196.722ZM341.026 182.725V187.893H347.966V191.171H341.026V196.634H348.851V200H336.892V179.359H348.851V182.725H341.026ZM377.916 179.388L370.356 200H365.336L357.776 179.388H362.206L367.875 195.777L373.516 179.388H377.916ZM399.825 196.073H391.616L390.257 200H385.916L393.329 179.359H398.142L405.554 200H401.183L399.825 196.073ZM398.703 192.765L395.72 184.142L392.738 192.765H398.703ZM429.143 179.388V182.725H423.651V200H419.516V182.725H414.024V179.388H429.143ZM443.086 182.725V187.893H450.025V191.171H443.086V196.634H450.911V200H438.951V179.359H450.911V182.725H443.086ZM491.677 179.388L484.708 192.824V200H480.574V192.824L473.576 179.388H478.241L482.671 188.808L487.071 179.388H491.677ZM510.421 200.207C508.492 200.207 506.72 199.754 505.106 198.848C503.492 197.943 502.212 196.693 501.267 195.098C500.322 193.484 499.85 191.663 499.85 189.635C499.85 187.627 500.322 185.826 501.267 184.231C502.212 182.617 503.492 181.357 505.106 180.451C506.72 179.546 508.492 179.093 510.421 179.093C512.37 179.093 514.142 179.546 515.737 180.451C517.351 181.357 518.621 182.617 519.546 184.231C520.491 185.826 520.964 187.627 520.964 189.635C520.964 191.663 520.491 193.484 519.546 195.098C518.621 196.693 517.351 197.943 515.737 198.848C514.123 199.754 512.351 200.207 510.421 200.207ZM510.421 196.515C511.662 196.515 512.754 196.24 513.699 195.689C514.644 195.118 515.382 194.311 515.914 193.267C516.446 192.224 516.711 191.013 516.711 189.635C516.711 188.257 516.446 187.056 515.914 186.032C515.382 184.989 514.644 184.192 513.699 183.64C512.754 183.089 511.662 182.814 510.421 182.814C509.181 182.814 508.079 183.089 507.114 183.64C506.169 184.192 505.431 184.989 504.899 186.032C504.368 187.056 504.102 188.257 504.102 189.635C504.102 191.013 504.368 192.224 504.899 193.267C505.431 194.311 506.169 195.118 507.114 195.689C508.079 196.24 509.181 196.515 510.421 196.515ZM534.906 179.388V192.145C534.906 193.543 535.271 194.616 535.999 195.364C536.727 196.092 537.751 196.456 539.07 196.456C540.409 196.456 541.442 196.092 542.171 195.364C542.899 194.616 543.263 193.543 543.263 192.145V179.388H547.427V192.115C547.427 193.868 547.043 195.354 546.275 196.575C545.527 197.775 544.514 198.681 543.234 199.291C541.974 199.902 540.566 200.207 539.011 200.207C537.476 200.207 536.078 199.902 534.818 199.291C533.578 198.681 532.593 197.775 531.865 196.575C531.136 195.354 530.772 193.868 530.772 192.115V179.388H534.906ZM568.844 200L564.297 191.968H562.348V200H558.213V179.388H565.95C567.545 179.388 568.903 179.674 570.025 180.244C571.148 180.796 571.984 181.554 572.535 182.518C573.106 183.463 573.392 184.526 573.392 185.707C573.392 187.066 572.998 188.296 572.211 189.399C571.423 190.481 570.252 191.23 568.697 191.643L573.628 200H568.844ZM562.348 188.867H565.803C566.925 188.867 567.761 188.601 568.313 188.07C568.864 187.519 569.14 186.761 569.14 185.796C569.14 184.851 568.864 184.123 568.313 183.611C567.761 183.079 566.925 182.814 565.803 182.814H562.348V188.867ZM609.445 189.428C610.607 189.645 611.562 190.226 612.31 191.171C613.058 192.115 613.432 193.198 613.432 194.419C613.432 195.521 613.156 196.496 612.605 197.342C612.073 198.169 611.296 198.819 610.272 199.291C609.248 199.764 608.038 200 606.64 200H597.751V179.388H606.256C607.654 179.388 608.855 179.614 609.859 180.067C610.882 180.52 611.65 181.15 612.162 181.957C612.693 182.764 612.959 183.68 612.959 184.703C612.959 185.904 612.634 186.908 611.985 187.716C611.355 188.523 610.508 189.094 609.445 189.428ZM601.886 187.893H605.665C606.65 187.893 607.408 187.676 607.939 187.243C608.471 186.79 608.736 186.15 608.736 185.324C608.736 184.497 608.471 183.857 607.939 183.404C607.408 182.951 606.65 182.725 605.665 182.725H601.886V187.893ZM606.049 196.634C607.053 196.634 607.831 196.397 608.382 195.925C608.953 195.452 609.238 194.783 609.238 193.917C609.238 193.031 608.943 192.342 608.353 191.85C607.762 191.338 606.965 191.082 605.961 191.082H601.886V196.634H606.049ZM627.594 179.388V192.145C627.594 193.543 627.958 194.616 628.686 195.364C629.415 196.092 630.438 196.456 631.757 196.456C633.096 196.456 634.13 196.092 634.858 195.364C635.586 194.616 635.951 193.543 635.951 192.145V179.388H640.114V192.115C640.114 193.868 639.731 195.354 638.963 196.575C638.215 197.775 637.201 198.681 635.921 199.291C634.661 199.902 633.254 200.207 631.698 200.207C630.163 200.207 628.765 199.902 627.505 199.291C626.265 198.681 625.281 197.775 624.552 196.575C623.824 195.354 623.459 193.868 623.459 192.115V179.388H627.594ZM658.017 200.207C656.58 200.207 655.281 199.961 654.119 199.468C652.978 198.976 652.072 198.268 651.403 197.342C650.733 196.417 650.389 195.324 650.369 194.064H654.799C654.858 194.911 655.153 195.58 655.685 196.073C656.236 196.565 656.984 196.811 657.929 196.811C658.893 196.811 659.651 196.584 660.203 196.132C660.754 195.659 661.029 195.049 661.029 194.301C661.029 193.69 660.842 193.188 660.468 192.795C660.094 192.401 659.622 192.096 659.051 191.879C658.5 191.643 657.732 191.387 656.748 191.111C655.409 190.718 654.316 190.334 653.47 189.96C652.643 189.566 651.924 188.985 651.314 188.218C650.724 187.43 650.428 186.387 650.428 185.087C650.428 183.867 650.733 182.804 651.344 181.898C651.954 180.993 652.81 180.303 653.913 179.831C655.015 179.339 656.275 179.093 657.693 179.093C659.819 179.093 661.541 179.614 662.86 180.658C664.199 181.682 664.937 183.119 665.075 184.969H660.527C660.488 184.261 660.183 183.68 659.612 183.227C659.061 182.754 658.323 182.518 657.397 182.518C656.59 182.518 655.94 182.725 655.448 183.138C654.976 183.552 654.74 184.152 654.74 184.94C654.74 185.491 654.917 185.954 655.271 186.328C655.645 186.682 656.098 186.977 656.63 187.214C657.181 187.43 657.949 187.686 658.933 187.981C660.272 188.375 661.364 188.769 662.211 189.162C663.057 189.556 663.786 190.147 664.396 190.934C665.006 191.722 665.311 192.755 665.311 194.035C665.311 195.137 665.026 196.161 664.455 197.106C663.884 198.051 663.047 198.809 661.945 199.38C660.842 199.931 659.533 200.207 658.017 200.207ZM679.822 179.388V200H675.687V179.388H679.822ZM708.328 200H704.193L694.832 185.855V200H690.698V179.359H694.832L704.193 193.533V179.359H708.328V200ZM723.339 182.725V187.893H730.279V191.171H723.339V196.634H731.165V200H719.205V179.359H731.165V182.725H723.339ZM748.83 200.207C747.393 200.207 746.094 199.961 744.932 199.468C743.79 198.976 742.885 198.268 742.216 197.342C741.546 196.417 741.202 195.324 741.182 194.064H745.611C745.671 194.911 745.966 195.58 746.497 196.073C747.049 196.565 747.797 196.811 748.742 196.811C749.706 196.811 750.464 196.584 751.015 196.132C751.567 195.659 751.842 195.049 751.842 194.301C751.842 193.69 751.655 193.188 751.281 192.795C750.907 192.401 750.435 192.096 749.864 191.879C749.313 191.643 748.545 191.387 747.56 191.111C746.222 190.718 745.129 190.334 744.283 189.96C743.456 189.566 742.737 188.985 742.127 188.218C741.536 187.43 741.241 186.387 741.241 185.087C741.241 183.867 741.546 182.804 742.156 181.898C742.767 180.993 743.623 180.303 744.726 179.831C745.828 179.339 747.088 179.093 748.505 179.093C750.632 179.093 752.354 179.614 753.673 180.658C755.012 181.682 755.75 183.119 755.888 184.969H751.34C751.301 184.261 750.996 183.68 750.425 183.227C749.874 182.754 749.135 182.518 748.21 182.518C747.403 182.518 746.753 182.725 746.261 183.138C745.789 183.552 745.552 184.152 745.552 184.94C745.552 185.491 745.73 185.954 746.084 186.328C746.458 186.682 746.911 186.977 747.442 187.214C747.994 187.43 748.761 187.686 749.746 187.981C751.084 188.375 752.177 188.769 753.024 189.162C753.87 189.556 754.598 190.147 755.209 190.934C755.819 191.722 756.124 192.755 756.124 194.035C756.124 195.137 755.839 196.161 755.268 197.106C754.697 198.051 753.86 198.809 752.758 199.38C751.655 199.931 750.346 200.207 748.83 200.207ZM773.617 200.207C772.18 200.207 770.881 199.961 769.719 199.468C768.577 198.976 767.672 198.268 767.002 197.342C766.333 196.417 765.988 195.324 765.969 194.064H770.398C770.457 194.911 770.753 195.58 771.284 196.073C771.835 196.565 772.583 196.811 773.528 196.811C774.493 196.811 775.251 196.584 775.802 196.132C776.353 195.659 776.629 195.049 776.629 194.301C776.629 193.69 776.442 193.188 776.068 192.795C775.694 192.401 775.221 192.096 774.651 191.879C774.099 191.643 773.332 191.387 772.347 191.111C771.009 190.718 769.916 190.334 769.069 189.96C768.243 189.566 767.524 188.985 766.914 188.218C766.323 187.43 766.028 186.387 766.028 185.087C766.028 183.867 766.333 182.804 766.943 181.898C767.554 180.993 768.41 180.303 769.512 179.831C770.615 179.339 771.875 179.093 773.292 179.093C775.418 179.093 777.141 179.614 778.46 180.658C779.799 181.682 780.537 183.119 780.675 184.969H776.127C776.088 184.261 775.783 183.68 775.212 183.227C774.66 182.754 773.922 182.518 772.997 182.518C772.19 182.518 771.54 182.725 771.048 183.138C770.575 183.552 770.339 184.152 770.339 184.94C770.339 185.491 770.516 185.954 770.871 186.328C771.245 186.682 771.698 186.977 772.229 187.214C772.78 187.43 773.548 187.686 774.532 187.981C775.871 188.375 776.964 188.769 777.81 189.162C778.657 189.556 779.385 190.147 779.995 190.934C780.606 191.722 780.911 192.755 780.911 194.035C780.911 195.137 780.625 196.161 780.055 197.106C779.484 198.051 778.647 198.809 777.544 199.38C776.442 199.931 775.133 200.207 773.617 200.207Z" fill="#333333"/>
</svg>
