<svg id="Capa_1" enable-background="new 0 0 512 512" height="512" viewBox="0 0 512 512" width="512" xmlns="http://www.w3.org/2000/svg"><g><path d="m95 95h130v98h-130z"/><path d="m349.018 289h162.982v-19c0-24.813-20.187-45-45-45h-117.982z"/><path d="m349.018 319v128h117.982c24.813 0 45-20.187 45-45v-83z"/><path d="m319 46c0-24.813-20.187-45-45-45h-229c-24.813 0-45 20.187-45 45v420c0 24.813 20.187 45 45 45h229c24.813 0 45-20.187 45-45 0-304.44 0 407.758 0-420zm-208.08 371.48c-.668 8.005-8.056 14.288-16.4 13.44-8.053-.672-14.292-8.126-13.45-16.4.919-8.686 8.891-14.92 17.86-13.23 7.942 1.655 12.734 8.864 11.99 16.19zm0-64.01c-.659 8.068-8.152 14.306-16.4 13.46-8.449-.878-14.266-8.39-13.45-16.41.919-8.686 8.891-14.92 17.86-13.23 7.976 1.662 12.743 8.923 11.99 16.18zm0-63.99c-.674 8.082-8.168 14.294-16.4 13.45-8.535-.886-14.27-8.498-13.45-16.4.899-8.671 8.878-14.932 17.86-13.24 7.942 1.655 12.734 8.864 11.99 16.19zm64.01 128c-.421 4.056-2.453 7.698-5.42 10.12-9.752 7.947-24.51 1.076-24.51-11.6 0-8.602 7.355-15.759 16.479-14.93 8.357.875 14.272 8.327 13.451 16.41zm-5.42-53.88c-9.752 7.947-24.51 1.076-24.51-11.6 0-13.103 15.842-20.118 25.609-10.61 6.426 6.591 5.58 16.758-1.099 22.21zm0-64c-9.752 7.947-24.51 1.076-24.51-11.6 0-13.071 15.809-20.151 25.609-10.61 6.267 6.428 5.77 16.418-1.099 22.21zm69.42 117.88c-.882 8.496-8.446 14.267-16.41 13.45-8.422-.875-14.268-8.364-13.45-16.41.917-8.67 8.881-14.922 17.86-13.23 7.928 1.652 12.744 8.864 12 16.19zm0-64.01c-.798 7.857-7.598 14.18-16.41 13.46-8.422-.875-14.268-8.364-13.45-16.41.926-8.75 8.955-14.908 17.86-13.23 7.985 1.664 12.737 8.928 12 16.18zm0-63.99c-.882 8.498-8.448 14.267-16.41 13.45-8.422-.875-14.268-8.364-13.45-16.41.917-8.671 8.882-14.922 17.86-13.23 7.981 1.663 12.739 8.913 12 16.19zm16.07-81.48c0 8.284-6.716 15-15 15h-160c-8.284 0-15-6.716-15-15v-128c0-8.284 6.716-15 15-15h160c8.284 0 15 6.716 15 15z"/></g></svg>