<svg clip-rule="evenodd" fill-rule="evenodd" height="512" image-rendering="optimizeQuality" shape-rendering="geometricPrecision" text-rendering="geometricPrecision" viewBox="0 0 512 512" width="512" xmlns="http://www.w3.org/2000/svg"><g id="Layer_x0020_1"><g id="_281684760"><path d="m107 486v-81c0-3 2-6 6-6h61c3 0 6 3 6 6v81zm298 0v-265h-28c-2 0-4-1-5-3s-1-5 0-6l63-96c1-2 3-3 5-3s4 1 5 3l66 95c1 1 1 2 1 4 0 3-3 6-6 6h-28v265zm-99 0v-179c0-3 2-6 6-6h61c3 0 6 3 6 6v179zm-100 0v-120c0-4 3-6 6-6h61c4 0 6 2 6 6v120z"/><path d="m496 510h-419c-3 0-6-3-6-6 0-4 3-6 6-6h419c3 0 6 2 6 6 0 3-3 6-6 6z"/><path d="m71 374c-13 0-23-8-25-21-1-10 4-24 21-28 11-4 22-9 31-13 3-1 6-2 8-4 23-10 45-23 65-38 62-45 107-102 134-169 5-12 9-25 12-37l1-3-33-14c-2-1-4-4-4-6s2-5 4-5l80-33c3-1 6 0 7 3l33 80c1 2 0 5-1 6-2 2-5 3-7 2l-32-14c-14 47-35 90-62 129-28 38-63 73-103 102-26 19-54 35-82 47-10 5-24 11-36 15-4 1-7 1-11 1z"/><path d="m110 233c-61 0-110-49-110-110 0-60 49-110 110-110s110 50 110 110c0 61-49 110-110 110zm-6-45c-17-3-30-17-30-35 0-3 3-6 6-6 4 0 6 3 6 6 0 11 8 20 18 23v-47c-17-3-30-18-30-35 0-18 13-32 30-35v-4c0-3 3-6 6-6s6 3 6 6v4c17 3 29 17 29 35 0 3-2 6-6 6-3 0-6-3-6-6 0-11-7-20-17-23v47c17 3 29 17 29 35s-12 32-29 35v3c0 4-3 6-6 6s-6-2-6-6zm12-12c10-3 17-12 17-23s-7-20-17-23zm-12-105c-10 3-18 12-18 23s8 20 18 23z"/></g></g></svg>