<svg id="Layer_1" enable-background="new 0 0 512 512" height="512" viewBox="0 0 512 512" width="512" xmlns="http://www.w3.org/2000/svg"><path clip-rule="evenodd" d="m256 16.912 36.11 20.848-116.22 67.1-36.11-20.848zm-29.476 446.931-125.176 1.075c-1.638.014-3.017 1.432-3.004 3.068l.207 24.097c.014 1.638 1.432 3.017 3.068 3.004l125.177-1.076c1.638-.014 3.017-1.432 3.004-3.068l-.207-24.097c-.014-1.638-1.433-3.016-3.069-3.003zm-4.634 12.419c1.528 3.843-.349 8.196-4.192 9.724-3.842 1.528-8.196-.349-9.724-4.192s.349-8.196 4.192-9.724c3.843-1.527 8.196.349 9.724 4.192zm-90.652-27.539 72.405-.622.096-63.055c.02-13.689-1.296-28.32-12.101-38.058-20.361-18.354-41.11-33.77-59.218-55.042-5.354-4.568-13.344-5.18-18.537.014-5.296 5.296-4.895 11.19-.944 17.153 11.364 13.043 24.109 24.578 36.312 36.781 3.124 3.124 3.124 8.189 0 11.312-3.124 3.124-8.189 3.124-11.312 0-14.51-14.51-29.554-28.183-42.549-44.178-8.735-10.754-13.466-22.862-13.415-36.79l.33-86.5c.082-21.629-4.979-32.575-11.422-36.781-8.394-5.48-22.116 1.77-22.379 11.078l-4.512 159.236c-.352 12.488 4.106 23.047 12.908 31.847l72.026 72.025c1.738 1.738 2.508 4.077 2.312 6.348zm249.524 0v-15.231c-.196-2.271.575-4.61 2.312-6.348l72.026-72.025c8.802-8.8 13.26-19.359 12.908-31.847l-4.512-159.236c-.263-9.279-14.02-16.534-22.379-11.078-6.443 4.206-11.504 15.152-11.422 36.781l.33 86.5c.051 13.928-4.68 26.037-13.415 36.79-12.995 15.995-28.039 29.668-42.549 44.178-3.124 3.124-8.189 3.124-11.312 0-3.124-3.124-3.124-8.189 0-11.312 12.203-12.203 24.948-23.738 36.312-36.781 2.082-3.141 3.068-6.159 3.001-8.893-.07-2.887-1.405-5.72-3.945-8.26-5.194-5.194-13.183-4.581-18.537-.014-18.108 21.272-38.858 36.687-59.218 55.042-10.805 9.738-12.121 24.369-12.101 38.058l.095 63.055zm29.89 16.196-125.176-1.075c-1.636-.014-3.055 1.365-3.068 3.004l-.207 24.097c-.014 1.636 1.365 3.055 3.004 3.068l125.176 1.076c1.636.014 3.054-1.366 3.068-3.004l.207-24.097c.014-1.637-1.366-3.056-3.004-3.069zm-120.542 16.876c-1.528-3.843.349-8.196 4.191-9.724 3.843-1.528 8.196.349 9.724 4.192s-.349 8.196-4.191 9.724c-3.843 1.528-8.196-.349-9.724-4.192zm17.962-434.819-116.22 67.1 20.057 11.58 116.22-67.1zm36.019 20.796-116.22 67.1 28.129 16.241 116.22-67.1zm36.11 30.064-116.201 67.089v134.2l116.202-67.089v-134.2zm-132.201 201.29v-134.2l-28.092-16.219-.018 42.639c.005 6.057-6.614 10.015-11.982 6.906l-36.012-20.805c-2.376-1.379-3.974-3.951-3.974-6.896v-51.86l-36.123-20.856v134.201zm-64.141-171.233 20.05 11.576v38.043l-20.049-11.576z" fill-rule="evenodd"/></svg>