<svg height="512pt" viewBox="0 0 512 512" width="512pt" xmlns="http://www.w3.org/2000/svg"><path d="m391 271c-66.273438 0-120 53.726562-120 120s53.726562 121 120 121 121-54.726562 121-121-54.726562-120-121-120zm0 105c24.8125 0 45 20.1875 45 45 0 19.53125-12.578125 36.023438-30 42.238281v33.761719h-30v-33.761719c-17.421875-6.214843-30-22.707031-30-42.238281h30c0 8.277344 6.722656 15 15 15s15-6.722656 15-15-6.722656-15-15-15c-24.8125 0-45-20.1875-45-45 0-19.53125 12.578125-36.023438 30-42.238281v-32.761719h30v32.761719c17.421875 6.214843 30 22.707031 30 42.238281h-30c0-8.277344-6.722656-15-15-15s-15 6.722656-15 15 6.722656 15 15 15zm0 0"/><path d="m451 30h-60v-30h-30v30h-30v-30h-30v30h-150v-30h-30v30h-30v-30h-30v30h-61v91h451zm0 0"/><path d="m241 391c0-82.703125 67.296875-150 150-150 21.355469 0 41.59375 4.632812 60 12.714844v-102.714844h-451v300h253.714844c-8.082032-18.40625-12.714844-38.644531-12.714844-60zm90-210h60v30h-60zm-90 0h60v30h-60zm0 60h60v30h-60zm-120 90h-60v-30h60zm0-60h-60v-30h60zm0-60h-60v-30h60zm90 120h-60v-30h60zm0-60h-60v-30h60zm0-60h-60v-30h60zm0 0"/></svg>