<svg id="Layer_1" height="512" viewBox="0 0 66 66" width="512" xmlns="http://www.w3.org/2000/svg"><g><g><path d="m60.7 28.7c-2 0-3.7 1.4-4.1 3.3h-5l-8.4-14.5 3.4-3.4c2.9 1.7 6.5-.3 6.5-3.6 0-1.1-.5-2.2-1.3-3-3.6-3.5-9.2 1-6.6 5.2l-3.6 3.6h-17.2l-3.6-3.6c2.6-4.3-3.1-8.8-6.6-5.2-3.6 3.5.9 9.2 5.2 6.6l3.4 3.4-8.4 14.5h-5c-.5-1.9-2.1-3.3-4.1-3.3-2.4 0-4.3 2-4.3 4.3s1.9 4.3 4.3 4.3c2 0 3.7-1.4 4.1-3.3h5s2.4 4.1 8.4 14.5l-3.4 3.4c-2.9-1.7-6.5.4-6.5 3.6 0 1.1.4 2.2 1.3 3 3.4 3.4 9.3-.8 6.6-5.2l3.6-3.6h17.2l3.6 3.6c-2.7 4.4 3.1 8.7 6.6 5.2s-.9-9.3-5.2-6.7l-3.4-3.4s0 0 .1-.1c.4-.8 2.2-3.8 8.2-14.2h5c.5 1.9 2.1 3.3 4.1 3.3 2.4 0 4.3-1.9 4.3-4.3s-1.8-4.4-4.2-4.4zm-13.9 9.6c-1.9-2.6-6.5-3-9.7-3.3-.6-.1-1.1.4-1.1 1-.2 1.2.4 3.3-2.8 6.9-2-2.2-2.8-4.2-2.8-6.8 0-.6-.5-1.1-1.1-1-3.4.4-8.4.8-10 3.7l-3.2-5.8 8.4-14.6h16.9l8.5 14.6z"/></g><g><path d="m39.2 26c0 3.3-2.7 7.2-6 7.2s-6-3.9-6-7.2 2.7-6 6-6 6 2.7 6 6z"/></g></g></svg>