<?xml version="1.0"?>
<svg xmlns="http://www.w3.org/2000/svg" viewBox="0 0 64 64" width="512" height="512"><g id="Payment"><path d="M46,29.858V32h5.289a11,11,0,1,0-12.578,0H44V29.858A4,4,0,0,1,41,26h2a2,2,0,1,0,2-2,3.992,3.992,0,0,1-1-7.858V14h2v2.142A4,4,0,0,1,49,20H47a2,2,0,1,0-2,2,3.992,3.992,0,0,1,1,7.858Z"/><path d="M32.062,12H8V32H30.594a16.918,16.918,0,0,1,1.468-20ZM22,19.414V27a1,1,0,0,1-1,1H11a1,1,0,0,1-1-1V17a1,1,0,0,1,1-1H21a1,1,0,0,1,.931.655l1.847-1.847,1.414,1.414Z"/><path d="M12,26h8V21.414l-3.293,3.293a1,1,0,0,1-1.414,0l-2.828-2.829,1.414-1.414L16,22.586l4-4V18H12Z"/><path d="M60,23a15,15,0,1,0-26.986,9h2.633a13,13,0,1,1,18.706,0h2.633A15.022,15.022,0,0,0,60,23Z"/><path d="M37,4H9A1,1,0,0,0,8,5v5H34.068A17,17,0,0,1,38,7.526V5A1,1,0,0,0,37,4Z"/><path d="M11.9,56H52.1A5.013,5.013,0,0,1,56,52.1V41.9A5.013,5.013,0,0,1,52.1,38H11.9A5.013,5.013,0,0,1,8,41.9V52.1A5.013,5.013,0,0,1,11.9,56ZM32,40a7,7,0,1,1-7,7A7.008,7.008,0,0,1,32,40Z"/><circle cx="32" cy="47" r="5"/><path d="M4,60H60V34H4ZM6,41a1,1,0,0,1,1-1,3,3,0,0,0,3-3,1,1,0,0,1,1-1H53a1,1,0,0,1,1,1,3,3,0,0,0,3,3,1,1,0,0,1,1,1V53a1,1,0,0,1-1,1,3,3,0,0,0-3,3,1,1,0,0,1-1,1H11a1,1,0,0,1-1-1,3,3,0,0,0-3-3,1,1,0,0,1-1-1Z"/></g></svg>
