<svg height="512" viewBox="0 0 48 48" width="512" xmlns="http://www.w3.org/2000/svg"><g id="Line"><path d="m43 16s-20.4 0-20.59.06a3 3 0 0 0 -2.41 2.94v1h26v-1a3 3 0 0 0 -3-3z"/><path d="m15 36h5.58s-2-.36-2.48-4h-8.1a1 1 0 0 1 0-2h8v-2h-8a1 1 0 0 1 0-2h8v-4h-1a1 1 0 0 1 -1-1v-3a1 1 0 0 1 -1-1v-1a1 1 0 0 1 .4-.8l4-3a1 1 0 0 1 1.2 0l2.4 1.8h12v-11a1 1 0 0 0 -1-1h-28a1 1 0 0 0 -1 1v38a5 5 0 0 0 10 0z"/><path d="m20 22s.06 9.69.18 10a3 3 0 0 0 2.82 2h20a3 3 0 0 0 3-3v-9zm21 7h-2a1 1 0 0 1 0-2h2a1 1 0 0 1 0 2zm-4-5h4a1 1 0 0 1 0 2h-4a1 1 0 0 1 0-2z"/><path d="m17 38v3a7 7 0 0 1 -2.11 5h23.11a5 5 0 0 0 5-5v-3z"/></g></svg>