<svg id="Layer_1" enable-background="new 0 0 256 256" height="512" viewBox="0 0 256 256" width="512" xmlns="http://www.w3.org/2000/svg"><g><g><g><path d="m232.263 163.332h-208.526c-5.523 0-10-4.477-10-10v-130.027c0-5.523 4.477-10 10-10h208.525c5.523 0 10 4.477 10 10v130.027c.001 5.523-4.477 10-9.999 10z" fill="#ffa91a"/></g><g><path d="m19.737 83.317c-1.104 0-2-.896-2-2v-46c0-1.104.896-2 2-2s2 .896 2 2v46c0 1.105-.895 2-2 2zm0-54c-1.104 0-2-.896-2-2v-.817c0-1.104.896-2 2-2s2 .896 2 2v.817c0 1.105-.895 2-2 2z" fill="#ffc91d"/></g><g><path d="m232.263 13.305v130.027c0 5.523-4.477 10-10 10h-208.526c0 5.523 4.477 10 10 10h208.525c5.523 0 10-4.477 10-10v-130.027c.001-5.523-4.477-10-9.999-10z" fill="#f79219"/></g><g><path d="m236.372 14.195c.567 1.255.891 2.643.891 4.11v130.027c0 5.523-4.477 10-10 10h-208.526c-1.466 0-2.855-.323-4.109-.89 1.568 3.471 5.053 5.89 9.109 5.89h208.525c5.523 0 10-4.477 10-10v-130.027c.001-4.057-2.419-7.541-5.89-9.11z" fill="#ef7816"/></g><g><g><g><path d="m220.631 73.09h-77.666c-1.104 0-2-.896-2-2s.896-2 2-2h77.666c1.104 0 2 .896 2 2s-.896 2-2 2z" fill="#fff"/></g><g><path d="m220.631 53.09h-77.666c-1.104 0-2-.896-2-2s.896-2 2-2h77.666c1.104 0 2 .896 2 2s-.896 2-2 2z" fill="#fff"/></g><g><path d="m220.631 93.09h-77.666c-1.104 0-2-.896-2-2s.896-2 2-2h77.666c1.104 0 2 .896 2 2s-.896 2-2 2z" fill="#fff"/></g><g><path d="m220.631 113.09h-77.666c-1.104 0-2-.896-2-2s.896-2 2-2h77.666c1.104 0 2 .896 2 2s-.896 2-2 2z" fill="#fff"/></g></g><g><g><path d="m125.369 114.09h-90v-7.006c0-2.761 2.239-5 5-5h80c2.761 0 5 2.239 5 5z" fill="#f1f2f2"/></g><g><path d="m122.356 61.317h-83.974c-1.664 0-3.013-1.349-3.013-3.013 0-1.017.513-1.965 1.363-2.521l41.987-27.483c1.002-.656 2.298-.656 3.301 0l41.987 27.482c.851.557 1.363 1.505 1.363 2.521-.001 1.665-1.35 3.014-3.014 3.014z" fill="#f1f2f2"/></g><g><path d="m106.315 55.962h-51.893c-1.26 0-2.281-1.021-2.281-2.281 0-.782.401-1.51 1.062-1.928l25.947-16.408c.744-.471 1.694-.471 2.438 0l25.947 16.409c.661.418 1.062 1.146 1.062 1.928-.001 1.259-1.022 2.28-2.282 2.28z" fill="#d1d3d4"/></g><g><g><path d="m46.414 67.453h11.455v28.494h-11.455z" fill="#f1f2f2"/></g><g><path d="m102.869 67.453h11.455v28.494h-11.455z" fill="#f1f2f2"/></g></g><g><g><path d="m43.96 65.453v-4.136h16.364v4.136c0 1.105-.895 2-2 2h-12.364c-1.105 0-2-.895-2-2z" fill="#d1d3d4"/></g><g><path d="m100.414 65.453v-4.136h16.364v4.136c0 1.105-.895 2-2 2h-12.364c-1.104 0-2-.895-2-2z" fill="#d1d3d4"/></g></g><g><g><path d="m43.96 102.084v-4.136c0-1.105.895-2 2-2h12.364c1.105 0 2 .895 2 2v4.136z" fill="#d1d3d4"/></g><g><path d="m100.414 102.084v-4.136c0-1.105.895-2 2-2h12.364c1.105 0 2 .895 2 2v4.136z" fill="#d1d3d4"/></g></g></g><path d="m82.48 78.653h-.111v-6.557h.111c1.808 0 3.278 1.471 3.278 3.278 0 1.104.896 2 2 2s2-.896 2-2c0-4.014-3.265-7.278-7.278-7.278h-.111v-.111c0-1.104-.896-2-2-2s-2 .896-2 2v.111h-.111c-4.014 0-7.279 3.265-7.279 7.278s3.266 7.278 7.279 7.278h.111v8.669h-.111c-1.809 0-3.279-1.471-3.279-3.278 0-1.104-.896-2-2-2s-2 .896-2 2c0 4.014 3.266 7.278 7.279 7.278h.111v.111c0 1.104.896 2 2 2s2-.896 2-2v-.111h.111c4.014 0 7.278-3.265 7.278-7.278v-2.111c.001-4.013-3.264-7.279-7.278-7.279zm-4.222 0c-1.809 0-3.279-1.471-3.279-3.278s1.471-3.278 3.279-3.278h.111v6.557h-.111zm7.501 9.391c0 1.808-1.471 3.278-3.278 3.278h-.111v-8.669h.111c1.808 0 3.278 1.471 3.278 3.279z" fill="#fff"/></g></g><g><g><g><g><path d="m232.054 139.969c-.09-.09-.181-.181-.271-.271-4.995-4.995-13.09-4.999-18.084-.002-10.622 10.626-27.724 27.729-35.009 35.015-2.228 2.228-5.236 3.466-8.387 3.466h-24.834c8.201-.043 14.838-6.701 14.838-14.912 0-8.238-6.678-14.916-14.916-14.916h-32.256c-8.029 0-15.715 3.25-21.309 9.01l-20.218 20.819h-7.613v49.667h82.959c9.454 0 18.52-3.755 25.206-10.439l59.893-59.883c4.847-4.849 4.848-12.707.001-17.554z" fill="#fcc4ae"/></g><g><path d="m232.758 140.748c.209 3.425-.983 6.919-3.6 9.537l-59.893 59.883c-6.685 6.684-15.752 10.439-25.206 10.439h-80.065v7.236h82.959c9.454 0 18.52-3.755 25.206-10.439l59.893-59.883c4.598-4.596 4.828-11.897.706-16.773z" fill="#f2ad97"/></g><g><path d="m145.39 178.18h-24.422c-1.199 0-2.171-.972-2.171-2.171 0-1.199.972-2.171 2.171-2.171h21.528c8.238 0 14.916-6.678 14.916-14.916 0-2.116-.447-4.125-1.241-5.949 2.556 2.677 4.135 6.296 4.135 10.291 0 8.238-6.678 14.916-14.916 14.916z" fill="#f2ad97"/></g><g><path d="m140.353 172.676h3.025c4.418 0 8-3.582 8-8v-2.825c0-4.418-3.582-8-8-8h-3.025c-1.105 0-2 .895-2 2v14.825c0 1.105.896 2 2 2z" fill="#ffd2c0"/></g><g><path d="m58.994 242.695h-33.683c-2.761 0-5-2.239-5-5v-69.372c0-2.761 2.239-5 5-5h33.683c2.761 0 5 2.239 5 5v69.372c0 2.762-2.238 5-5 5z" fill="#893add"/></g><g><circle cx="47.198" cy="180.067" fill="#ffc91d" r="6.045"/></g><g><path d="m50.349 174.916c.563.919.894 1.995.894 3.151 0 3.339-2.706 6.045-6.045 6.045-1.156 0-2.233-.331-3.151-.894 1.063 1.733 2.969 2.894 5.151 2.894 3.339 0 6.045-2.707 6.045-6.045 0-2.182-1.16-4.089-2.894-5.151z" fill="#ffa91a"/></g><g><path d="m63.994 168.324c0-2.761-2.239-5-5-5h-5v64.372c0 2.761-2.239 5-5 5h-28.683v5c0 2.761 2.239 5 5 5h33.683c2.761 0 5-2.239 5-5z" fill="#6c2bc1"/></g></g></g></g></g></svg>