<svg id="Layer_1" enable-background="new 0 0 53 53" height="512" viewBox="0 0 53 53" width="512" xmlns="http://www.w3.org/2000/svg"><g id="_x35_3"><g><g><g><g><path d="m7.821 34.961h35.834v13.264h-35.834z" fill="#deddff"/></g></g><g><g><path d="m43.6551132 35.7598686v10.129097h-33.1744289v-.0108223c-1.0377321-.0540352-1.9782095-.5080452-2.6592531-1.22155v-8.8967247z" fill="#c6c6f7"/></g></g><g><g><path d="m7.817 9.212h35.84v7.823h-35.84z" fill="#e83d62"/></g></g><g><g><path d="m2.503 9.212h5.315v7.823h-5.315z" fill="#ce2955"/></g></g><g><g><path d="m2.517 17.035h5.3v31.19h-5.3z" fill="#b5b5ea"/></g></g><g><g><path d="m43.6551132 17.0300465v27.7670841h-33.0014305c-.0648575 0-.1405373 0-.2053947-.0108223-1.4701633-.0972519-2.6268568-1.3188057-2.6268568-2.8214302v-24.9348316z" fill="#deddff"/></g></g><g><g><path d="m43.6551132 44.8125343h.0283318c1.4558411 0 2.6360359-1.1801949 2.6360359-2.6360359v-1.0186272c0-.3582153-.2903938-.6486053-.6486092-.6486053h-31.9044857c-.3582163 0-.6486082.29039-.6486082.6486053v1.0186272c0 1.4558411-1.1801929 2.6360359-2.636034 2.6360359h-.0283308z" fill="#c6c6f7"/></g></g><g><g><g><path d="m14.1513929 13.1276016c0 .8539772-.691865 1.5458422-1.5566635 1.5458422-.8539772 0-1.5458422-.691865-1.5458422-1.5458422 0-.8647985.691865-1.5566635 1.5458422-1.5566635.8647986 0 1.5566635.691865 1.5566635 1.5566635z" fill="#ce2955"/></g></g><g><g><path d="m24.6575012 13.1276016c0 .8539772-.6918659 1.5458422-1.5566635 1.5458422-.8539772 0-1.5458431-.691865-1.5458431-1.5458422 0-.8647985.6918659-1.5566635 1.5458431-1.5566635.8647976 0 1.5566635.691865 1.5566635 1.5566635z" fill="#ce2955"/></g></g><g><g><path d="m35.1636086 13.1276016c0 .8539772-.6918678 1.5458422-1.5566635 1.5458422-.8539772 0-1.5458412-.691865-1.5458412-1.5458422 0-.8647985.691864-1.5566635 1.5458412-1.5566635.8647956 0 1.5566635.691865 1.5566635 1.5566635z" fill="#ce2955"/></g></g></g><g><g><g><path d="m17.0460663 9.2215385c0 2.447237-1.9993334 4.4465704-4.4465704 4.4465704-.305872 0-.5462608-.2512589-.5462608-.5462608 0-.305871.2403889-.5462608.5462608-.5462608 1.846364 0 3.3540487-1.5076847 3.3540487-3.3540487 0-1.8573003-1.5076847-3.3540497-3.3540487-3.3540497s-3.3540497 1.4967494-3.3540497 3.3540496h-1.0925217c0-2.4581738 1.9993334-4.4465709 4.4465714-4.4465709s4.4465704 1.9883972 4.4465704 4.4465709z" fill="#312e4b"/></g></g></g><g><g><g><path d="m27.5535259 9.2215385c0 2.447237-1.9993324 4.4465704-4.4465714 4.4465704-.3058701 0-.5462608-.2512589-.5462608-.5462608 0-.305871.2403908-.5462608.5462608-.5462608 1.846365 0 3.3540497-1.5076847 3.3540497-3.3540487 0-1.8573003-1.5076847-3.3540497-3.3540497-3.3540497-1.8463631 0-3.3540478 1.4967494-3.3540478 3.3540497h-1.0925217c0-2.4581738 1.9993324-4.4465709 4.4465694-4.4465709s4.4465715 1.9883971 4.4465715 4.4465708z" fill="#312e4b"/></g></g></g><g><g><g><path d="m38.0609856 9.2215385c0 2.447237-1.9993324 4.4465704-4.4465714 4.4465704-.3058701 0-.5462608-.2512589-.5462608-.5462608 0-.305871.2403908-.5462608.5462608-.5462608 1.8463669 0 3.3540497-1.5076847 3.3540497-3.3540487 0-1.8573003-1.5076828-3.3540497-3.3540497-3.3540497-1.8463631 0-3.3540478 1.4967494-3.3540478 3.3540497h-1.0925217c0-2.4581738 1.9993324-4.4465709 4.4465694-4.4465709s4.4465715 1.9883971 4.4465715 4.4465708z" fill="#312e4b"/></g></g></g></g><g><g><g><g><path d="m17.0975647 21.841753v5.167675c0 .4077168-.3305206.7382393-.7382393.7382393h-5.1676731c-.4077187 0-.7382393-.3305225-.7382393-.7382393v-5.167675c0-.4077187.3305206-.7382393.7382393-.7382393h5.1676731c.4077187 0 .7382393.3305206.7382393.7382393z" fill="#c6c6f7"/></g></g><g><g><path d="m27.8879051 21.841753v5.167675c0 .4077168-.3305206.7382393-.7382393.7382393h-5.1676731c-.4077187 0-.7382393-.3305225-.7382393-.7382393v-5.167675c0-.4077187.3305206-.7382393.7382393-.7382393h5.1676731c.4077187 0 .7382393.3305206.7382393.7382393z" fill="#c6c6f7"/></g></g><g><g><path d="m38.6782455 21.841753v5.167675c0 .4077168-.3305206.7382393-.7382393.7382393h-5.167675c-.4077187 0-.7382393-.3305225-.7382393-.7382393v-5.167675c0-.4077187.3305206-.7382393.7382393-.7382393h5.167675c.4077187 0 .7382393.3305206.7382393.7382393z" fill="#fcb73e"/></g></g><g><g><path d="m34.8749313 27.7488174h-2.1038437c-.4154015 0-.7369957-.3350048-.7369957-.7369957v-5.1724625c0-.4019909.3215942-.7369957.7369957-.7369957h2.1038437c-.401989 0-.7369957.3350048-.7369957.7369957v5.1724625c0 .4019909.3350068.7369957.7369957.7369957z" fill="#fd982e"/></g></g></g><g><g><g><path d="m17.0975647 31.5810356v5.167675c0 .4077187-.3305206.7382393-.7382393.7382393h-5.1676731c-.4077187 0-.7382393-.3305206-.7382393-.7382393v-5.167675c0-.4077168.3305206-.7382374.7382393-.7382374h5.1676731c.4077187 0 .7382393.3305207.7382393.7382374z" fill="#c6c6f7"/></g></g><g><g><path d="m27.8879051 31.5810356v5.167675c0 .4077187-.3305206.7382393-.7382393.7382393h-5.1676731c-.4077187 0-.7382393-.3305206-.7382393-.7382393v-5.167675c0-.4077168.3305206-.7382374.7382393-.7382374h5.1676731c.4077187 0 .7382393.3305207.7382393.7382374z" fill="#fcb73e"/></g></g><g><g><path d="m24.0845909 37.488102h-2.1038418c-.4154034 0-.7369957-.3350067-.7369957-.7369957v-5.1724644c0-.401989.3215923-.7369957.7369957-.7369957h2.1038418c-.401989 0-.7369938.3350067-.7369938.7369957v5.1724644c0 .4019889.3350048.7369957.7369938.7369957z" fill="#fd982e"/></g></g><g><g><path d="m38.6782455 31.5810356v5.167675c0 .4077187-.3305206.7382393-.7382393.7382393h-5.167675c-.4077187 0-.7382393-.3305206-.7382393-.7382393v-5.167675c0-.4077168.3305206-.7382374.7382393-.7382374h5.167675c.4077187 0 .7382393.3305207.7382393.7382374z" fill="#c6c6f7"/></g></g></g></g><g><g fill="#deddff"><path d="m24.72118 35.9122391v.3642578c0 .0866432-.0614433.1538086-.159668.1538086-.088438 0-.1547852-.0563049-.1547852-.1538086v-.3642578c-.371582-.0244141-.71875-.1044922-1.0419922-.2412109-.1432152-.0596733-.1945496-.2427559-.0849609-.3618164.0667248-.0724907.1705837-.0787506.25-.043457.2788086.1230469.5708008.1914063.8769531.2050781v-1.1801759c-.6077194-.1598587-1.1499023-.3740005-1.1499023-1.0053711 0-.5203667.3920212-.9832115 1.1499023-1.046875v-.3588848c0-.0861874.0620079-.1591797.1547852-.1591797.0905285 0 .159668.0711422.159668.1591797v.354002c.3369141.0136719.6362305.0698242.8974609.1694336.0961914.0341797.1445313.1025391.1445313.2050781 0 .1323738-.1183472.2621498-.2890625.1948242-.2338867-.0820313-.4848633-.128418-.7529297-.1386719v1.2211914c.6590862.1546974 1.1914063.3500557 1.1914063 1.03125-.0000001.6163026-.5514909.9574243-1.1914063.9956056zm-.3144532-2.1035157v-1.1289063c-.3515911.0465469-.6806641.2144966-.6806641.5693359.0000001.349518.3390256.4708063.6806641.5595704zm1.0415039 1.0771485c0-.3198814-.3985271-.4294357-.7270508-.5180664v1.1030273c.4848633-.0341797.7270508-.2290039.7270508-.5849609z"/><path d="m24.561512 36.4801102c-.1132107 0-.2045898-.0757294-.2045898-.2036133v-.3178711c-.3588867-.0283203-.6992226-.109375-1.0117188-.2416992-.1737289-.0715332-.2356014-.2984123-.1020508-.4414063.0823727-.0897827.2089367-.0982971.3071289-.0556641.2558594.1132813.5268555.1796875.8066406.1982422v-1.0888672c-.6177521-.1677322-1.1499023-.398365-1.1499023-1.0439453 0-.6261749.5021744-1.0239563 1.1499023-1.0922852v-.3134747c0-.2810917.4140625-.2721634.4140625 0v.3061504c.3227539.0170898.6137695.074707.8652344.1704102.1152344.0410156.1767578.128418.1767578.2519531 0 .1623116-.1476879.3236084-.3574219.2412109-.2114258-.0742188-.4418945-.1186523-.6845703-.1328125v1.1293945c.667017.1614914 1.1914063.3746376 1.1914063 1.0708008 0 .4968491-.3784866.9766083-1.1914063 1.0419922v.3178711c0 .1138689-.0825748.2036135-.2094726.2036135zm-1.2451172-1.1372071c-.0858879.0940704-.043478.2363853.0673828.2817383.315918.1337891.6611328.2138672 1.0263672.237793l.0463867.0029297v.4111328c0 .1458244.2148438.1362534.2148438 0v-.4111328l.046875-.0029297c.6126785-.0364227 1.1445313-.3580551 1.1445313-.9458008 0-.6537437-.5185108-.8333931-1.152832-.9824219l-.0385742-.0092773v-1.3125l.0517578.0019531c.2714844.0102539.5292969.0576172.7675781.1411133.135582.0542336.2226563-.046978.2226563-.1474609 0-.0805664-.0356445-.1308594-.1113281-.1582031-.2553711-.097168-.5517578-.152832-.8828125-.1665039l-.0478516-.0019531v-.4018536c0-.1420479-.2148438-.1487446-.2148438 0v.4047832l-.0454102.0039063c-.7340889.0623169-1.1044922.5046387-1.1044922.9970703 0 .6030693.5298595.8036308 1.112793.9570313l.0371094.0097656v1.2709961l-.0522461-.0024414c-.3105469-.0136719-.6113281-.0839844-.8945313-.2089844-.063591-.0279771-.1427975-.0234566-.1933594.0312499zm1.3549805.1816407v-1.222168l.0629883.0170898c.3540039.0959663.7636719.2114334.7636719.5664063 0 .3852539-.2602539.5986328-.7734375.6347656zm.0996093-1.0908204v.9829102c.421875-.0419922.6274414-.2158203.6274414-.5307617.0000001-.2724114-.3461055-.3718605-.6274414-.4521485zm-.3144531-.5605468-.0625-.0161133c-.3668079-.0950394-.7177734-.2306557-.7177734-.6079102 0-.3826103.3458347-.5682983.7241211-.6191406l.0561523-.0073242zm-.0996094-1.1352539c-.3015137.0518379-.5810547.2026176-.5810547.5112305 0 .3030968.2869453.4107742.5810547.4941406z"/></g></g><g><g><g><path d="m50.4972076 27.2714424v17.9926491c0 1.6334915-1.3242073 2.9576988-2.957695 2.9576988h-14.8303642c-1.6334896 0-2.957695-1.3242073-2.957695-2.9576988v-17.9926491c0-1.6334896 1.3242054-2.957695 2.957695-2.957695h14.8303642c1.6334877 0 2.957695 1.3242054 2.957695 2.957695z" fill="#5b5e8b"/></g></g><g><g><path d="m34.2656593 48.2250328h-1.5523682c-1.6386356 0-2.9609718-1.3319893-2.9609718-2.9610329v-17.9959831c0-1.6290436 1.3223362-2.9514389 2.9609718-2.9514389h1.5523682c-1.6290436 0-2.9609718 1.3223953-2.9609718 2.9514389v17.9959831c0 1.6290436 1.3319283 2.9610329 2.9609718 2.9610329z" fill="#312e4b"/></g></g><g><g><path d="m48.6064835 29.9017792c0 1.5401974-1.2492218 2.7921066-2.7920914 2.7921066h-11.3801231c-.7714348 0-1.4707947-.3123055-1.9752998-.8194809-.5045033-.5045052-.8167915-1.2038631-.8167915-1.9726257 0-1.5428543 1.2492218-2.7920895 2.7920914-2.7920895h11.3801231c1.5428695 0 2.7920913 1.2492352 2.7920913 2.7920895z" fill="#deddff"/></g></g><g><g><path d="m35.5305634 31.8772182c.5079002.5078449 1.2074089.8144932 1.973999.8144932h-3.0664253c-.7761841 0-1.4756889-.3066483-1.983593-.8144932-.498251-.5079041-.8144913-1.2074108-.8144913-1.9740028 0-1.5427742 1.2553101-2.7980862 2.7980843-2.7980862h3.0664253c-1.5427742 0-2.7884941 1.255312-2.7884941 2.7980862 0 .766592.3161812 1.4660988.8144951 1.9740028z" fill="#c6c6f7"/></g></g><g><g><path d="m48.5254097 36.7607155v6.9012909c0 1.1337776-.9193459 2.0531235-2.053154 2.0531235h-.0024681c-1.1337471 0-2.053093-.9193459-2.053093-2.0531235v-6.9012909c0-1.1337929.9193459-2.0531349 2.053093-2.0531349h.0024681c1.1338081 0 2.053154.919342 2.053154 2.0531349z" fill="#fcb73e"/></g></g><g><g><path d="m35.8319626 37.346096c0 1.1337738-.919342 2.0531197-2.0531502 2.0531197h-.0024681c-1.1337471 0-2.053093-.9193459-2.053093-2.0531197 0-1.1337929.9193459-2.0531387 2.053093-2.0531387h.0024681c1.1338081 0 2.0531502.9193459 2.0531502 2.0531387z" fill="#deddff"/></g></g><g><g><path d="m35.8319626 43.0766296c0 1.1337776-.919342 2.0531235-2.0531502 2.0531235h-.0024681c-1.1337471 0-2.053093-.9193459-2.053093-2.0531235 0-1.1337929.9193459-2.0531387 2.053093-2.0531387h.0024681c1.1338081 0 2.0531502.9193459 2.0531502 2.0531387z" fill="#deddff"/></g></g><g><g><path d="m35.6263657 43.9607887c-.3257751.6899757-1.0252838 1.1691017-1.8494263 1.1691017-.5653381 0-1.0732384-.2300301-1.4469719-.6037064-.3736744-.3641396-.6036472-.8816338-.6036472-1.4469719 0-.8240852.4791279-1.5332413 1.1786327-1.8590164-.1341667.26828-.201252.5558052-.201252.8719864 0 1.1403236.9199448 2.0602684 2.0506783 2.0602684h.0095901c.3066483.0000001.6037064-.0670852.8623963-.1916618z" fill="#c6c6f7"/></g></g><g><g><path d="m42.178688 37.346096c0 1.1337738-.9193459 2.0531197-2.053154 2.0531197h-.0024681c-1.1337471 0-2.053093-.9193459-2.053093-2.0531197 0-1.1337929.9193459-2.0531387 2.053093-2.0531387h.0024681c1.1338082 0 2.053154.9193459 2.053154 2.0531387z" fill="#deddff"/></g></g><g><g><path d="m42.178688 43.0766296c0 1.1337776-.9193459 2.0531235-2.053154 2.0531235h-.0024681c-1.1337471 0-2.053093-.9193459-2.053093-2.0531235 0-1.1337929.9193459-2.0531387 2.053093-2.0531387h.0024681c1.1338082 0 2.053154.9193459 2.053154 2.0531387z" fill="#deddff"/></g></g><g><g><g><g><path d="m47.8632889 40.2065582c0 .1916618-.1437035.3353653-.3353653.3353653h-.718689v.7282829c0 .1820717-.1533546.3354225-.3354263.3354225-.1916046 0-.3353653-.1533508-.3353653-.3354225v-.7282829h-.7282829c-.1820717 0-.3353653-.1437035-.3353653-.3353653 0-.1820717.1532936-.3354225.3353653-.3354225h.7282829v-.7186928c0-.1916046.1437607-.3353653.3353653-.3353653.1820717 0 .3354263.1437607.3354263.3353653v.7186928h.718689c.1916618 0 .3353653.1533508.3353653.3354225z" fill="#fff"/></g></g></g></g></g></g><g><g><path d="m41.9700165 43.9607887c-.3257751.6899757-1.02528 1.1691017-1.8494225 1.1691017-.5653381 0-1.0732422-.2300301-1.4469757-.6037064-.3736725-.3641396-.6036453-.8816338-.6036453-1.4469719 0-.8240852.479126-1.5332413 1.1786346-1.8590164-.1341705.26828-.2012558.5558052-.2012558.8719864 0 1.1403236.9199448 2.0602684 2.0506783 2.0602684h.009594c.3066482.0000001.6037025-.0670852.8623924-.1916618z" fill="#c6c6f7"/></g></g><g><g><path d="m41.9700165 38.2301178c-.3257751.6899719-1.02528 1.1690979-1.8494225 1.1690979-.5653381 0-1.0732422-.2300301-1.4469757-.6037025-.3736725-.3641434-.6036453-.8816376-.6036453-1.4469757 0-.8240814.479126-1.5332413 1.1786346-1.8590126-.1341705.26828-.2012558.5558014-.2012558.8719826 0 1.1403275.9199448 2.0602722 2.0506783 2.0602722h.009594c.3066482-.0000001.6037025-.0670853.8623924-.1916619z" fill="#c6c6f7"/></g></g><g><g><path d="m35.6263657 38.2301178c-.3257751.6899719-1.0252838 1.1690979-1.8494263 1.1690979-.5653381 0-1.0732384-.2300301-1.4469719-.6037025-.3736744-.3641434-.6036472-.8816376-.6036472-1.4469757 0-.8240814.4791279-1.5332413 1.1786327-1.8590126-.1341667.26828-.201252.5558014-.201252.8719826 0 1.1403275.9199448 2.0602722 2.0506783 2.0602722h.0095901c.3066483-.0000001.6037064-.0670853.8623963-.1916619z" fill="#c6c6f7"/></g></g></g></svg>