<svg id="Capa_1" enable-background="new 0 0 512 512" height="512" viewBox="0 0 512 512" width="512" xmlns="http://www.w3.org/2000/svg"><path d="m331 61c-57.891 0-105 47.109-105 105s47.109 105 105 105 105-47.109 105-105v-15h-90v-90z"/><path d="m496 106c0-57.891-47.109-106-105-106h-15v121h120z"/><path d="m196 166c0-5.136.954-10.01 1.516-15h-181.516v90h202.853c-14.405-21.471-22.853-47.258-22.853-75z"/><path d="m286 292.707c-14.238-5.078-27.219-12.437-38.806-21.707h-231.194v241h270zm-180 173.293h-30v-30h30zm0-60h-30v-30h30zm0-60h-30v-30h30zm60 120h-30v-30h30zm0-60h-30v-30h30zm0-60h-30v-30h30zm60 120h-30v-90h30zm0-120h-30v-30h30z"/></svg>