<svg id="Capa_1" enable-background="new 0 0 512 512" height="512" viewBox="0 0 512 512" width="512" xmlns="http://www.w3.org/2000/svg"><g><path d="m241 376h180v60h-180z"/><path d="m165.663 418.188c11.338 8.129 28.389 17.812 45.337 17.812v-60c-16.948 0-33.999 9.683-45.337 17.813l-16.992 12.187z"/><path d="m451 376h61v60h-61z"/><path d="m301 91h81.211l-81.211-82.211z"/><path d="m391 466h-180c-19.995 0-41.133-7.881-62.813-23.438l-30.071-21.562h-27.116v-30h27.111l30.062-21.563c21.694-15.556 42.832-23.437 62.827-23.437h180v-225h-120v-121h-271v512h391zm-210-315h150v30h-150zm0 60h150v30h-150zm0 60h150v30h-150zm-120-15h30c0 8.276 6.724 15 15 15s15-6.724 15-15-6.724-15-15-15c-24.814 0-45-20.186-45-45 0-19.53 12.578-36.024 30-42.237v-32.763h30v32.763c17.422 6.213 30 22.707 30 42.237h-30c0-8.276-6.724-15-15-15s-15 6.724-15 15 6.724 15 15 15c24.814 0 45 20.186 45 45 0 19.53-12.578 36.024-30 42.237v32.763h-30v-32.763c-17.422-6.213-30-22.707-30-42.237z"/></g></svg>