<svg height="512" viewBox="0 0 512 512" width="512" xmlns="http://www.w3.org/2000/svg"><g id="Winemaking_process_aging___bottling" data-name="Winemaking_process_aging_&amp;_bottling"><path d="m250.1685 248.3894v-12.8374c0-34.0859-19.816-63.3232-48.125-76.1631v-52.1411h-64.1685v52.0684c-28.3286 12.832-48.125 42.1367-48.125 76.2358h80.21v131.2813h-80.21v51.0048a13.1616 13.1616 0 0 0 13.1616 13.1619h103.5044a130.6542 130.6542 0 0 1 43.7525-182.61z"/><path d="m202.0435 59.0813a13.0814 13.0814 0 0 0 -13.0816-13.0813h-38.0054a13.0813 13.0813 0 0 0 -13.0815 13.0813v21.9165h64.1685z"/><path d="m317.25 256a105 105 0 1 0 105 105 105 105 0 0 0 -105-105zm35.0044 118.123h-35a13.1256 13.1256 0 0 1 -13.125-13.125v-61.25a13.125 13.125 0 0 1 26.25 0v48.125h21.875a13.125 13.125 0 0 1 0 26.25z"/></g></svg>