<svg id="Layer_1" viewBox="0 0 24 24" xmlns="http://www.w3.org/2000/svg" data-name="Layer 1"><path d="m10.5 9c.433 0 .82.186 1.094.479-.518.903-1.48 1.521-2.594 1.521s-2.076-.617-2.594-1.52c.274-.293.661-.48 1.094-.48zm-1.5-1c.828 0 1.5-.672 1.5-1.5s-.672-1.5-1.5-1.5-1.5.672-1.5 1.5.672 1.5 1.5 1.5zm15 10c0 3.314-2.686 6-6 6s-6-2.686-6-6 2.686-6 6-6 6 2.686 6 6zm-1.765-1.201-1.414-1.414-3.615 3.615-2.013-2.013-1.414 1.414 2.012 2.012c.377.378.879.587 1.413.587h.002c.534 0 1.036-.208 1.414-.586zm-9.514 7.201h-12.721v-21c0-1.654 1.346-3 3-3h12c1.654 0 3 1.346 3 3v7c-3.726 0-6.848 2.551-7.738 6h-6.262v2h6c0 2.393 1.056 4.534 2.721 6zm-8.721-16c0 2.761 2.239 5 5 5s5-2.239 5-5-2.239-5-5-5-5 2.239-5 5z"/></svg>