<svg width="73" height="77" viewBox="0 0 73 77" fill="none" xmlns="http://www.w3.org/2000/svg">
<g filter="url(#filter0_d_223_43)">
<path d="M54.2705 46.2534C55.5437 45.4522 55.5376 43.5943 54.2592 42.8013L35.1895 30.9735C33.8674 30.1534 32.1935 30.1588 30.8767 30.9872L11.7852 42.9977C10.5118 43.7988 10.5177 45.6568 11.7962 46.4498L30.8678 58.2796C32.19 59.0998 33.8642 59.0944 35.1812 58.2657L54.2705 46.2534Z" fill="#A7A7A7"/>
<path d="M54.2703 39.8572C55.5436 39.0561 55.5377 37.1982 54.2594 36.4052L35.1896 24.5753C33.8675 23.7551 32.1934 23.7604 30.8765 24.5889L11.7852 36.5993C10.5118 37.4003 10.5177 39.2584 11.7962 40.0514L30.8679 51.8813C32.1901 52.7014 33.8642 52.6961 35.1811 51.8675L54.2703 39.8572Z" fill="#333333"/>
<path d="M54.2707 33.4573C55.5438 32.6562 55.5379 30.7984 54.2596 30.0054L35.1898 18.1755C33.8676 17.3553 32.1934 17.3606 30.8764 18.1893L11.7849 30.2017C10.5116 31.0029 10.5176 32.8608 11.7959 33.6538L30.8678 45.4837C32.19 46.3039 33.8642 46.2985 35.1812 45.4698L54.2707 33.4573Z" fill="#FD9158"/>
<path d="M54.2707 27.0589C55.5438 26.2578 55.5379 24.3999 54.2596 23.607L35.1898 11.7771C33.8676 10.9568 32.1934 10.9622 30.8764 11.7908L11.7849 23.8033C10.5116 24.6044 10.5176 26.4624 11.7959 27.2554L30.8678 39.0853C32.19 39.9055 33.8642 39.9001 35.1812 39.0714L54.2707 27.0589Z" fill="#FF3D00"/>
</g>
<defs>
<filter id="filter0_d_223_43" x="-2.34483" y="-0.344827" width="77.5862" height="77.5862" filterUnits="userSpaceOnUse" color-interpolation-filters="sRGB">
<feFlood flood-opacity="0" result="BackgroundImageFix"/>
<feColorMatrix in="SourceAlpha" type="matrix" values="0 0 0 0 0 0 0 0 0 0 0 0 0 0 0 0 0 0 127 0" result="hardAlpha"/>
<feOffset dx="3.44828" dy="3.44828"/>
<feGaussianBlur stdDeviation="6.89655"/>
<feComposite in2="hardAlpha" operator="out"/>
<feColorMatrix type="matrix" values="0 0 0 0 0 0 0 0 0 0 0 0 0 0 0 0 0 0 0.05 0"/>
<feBlend mode="normal" in2="BackgroundImageFix" result="effect1_dropShadow_223_43"/>
<feBlend mode="normal" in="SourceGraphic" in2="effect1_dropShadow_223_43" result="shape"/>
</filter>
</defs>
</svg>
