<svg id="Capa_1" enable-background="new 0 0 512 512" height="512" viewBox="0 0 512 512" width="512" xmlns="http://www.w3.org/2000/svg"><g><g><path d="m435.246 211.702v-25.295c0-8.925-54.366-2.137-79.143-15.431-35.09-18.828-45.566-57.071-58.205-57.071h-203.627c-21.564 0-46.433 17.481-46.433 39.045l8.782 58.751 127.637 29.064z" fill="#df646e"/></g><g><path d="m396.201 113.906h-98.303c12.167 45.726 53.921 79.516 103.425 79.516 11.852 0 23.259-1.941 33.923-5.514v-34.956c0-21.565-17.481-39.046-39.045-39.046z" fill="#dc4955"/></g><g><path d="m401.503 512h-315.614c-18.636 0-38.051-15.108-38.051-33.744l8.782-266.554h378.626v266.554c0 18.636-15.107 33.744-33.743 33.744z" fill="#f4f4f4"/></g><g><path d="m95.665 113.906h-32.352c-21.564 0-39.045 17.481-39.045 39.045v58.751l16.38 29.064 15.972-29.064v-58.751c0-21.564 17.481-39.045 39.045-39.045z" fill="#dc4955"/></g><g><path d="m56.62 478.257v-266.555h-32.352v266.554c0 18.636 15.108 33.743 33.744 33.743h32.352c-18.636.001-33.744-15.107-33.744-33.742z" fill="#e5e5e5"/></g><g><path d="m130.603 140.422s-4.588-2.21-4.588-12.463v-31.043c0-10.253 2.221-10.676 2.221-10.676 2.929 0 8.685-7.211 11.148-6.003 6.161 3.021 10.402 9.355 10.402 16.679v31.044c0 7.324-4.241 13.658-10.402 16.679-2.464 1.207-5.852-4.217-8.781-4.217z" fill="#5f6c75"/></g><g><path d="m128.963 127.959v-31.043c0-7.324 4.252-13.639 10.412-16.66-2.464-1.208-5.224-1.905-8.154-1.905-10.253 0-18.565 8.312-18.565 18.565v31.044c0 10.254 8.312 18.565 18.565 18.565 2.93 0 5.69-.697 8.154-1.906-6.161-3.021-10.412-9.336-10.412-16.66z" fill="#4e5a61"/></g><g><path d="m487.732 86.409c0 43.663-32.385 79.762-74.446 85.588-3.91.542-9.155-1.458-13.215-1.458-21.906 0-69.57-36.407-69.57-84.13s48.626-82.234 63.126-82.234c3.806 0 15.249-3.929 18.925-3.452 42.418 5.505 75.18 41.77 75.18 85.686z" fill="#f9af38"/></g><g><path d="m338.839 86.409c0-43.663 32.387-79.755 74.446-85.581-3.91-.541-7.902-.828-11.962-.828-47.722 0-86.409 38.687-86.409 86.409s38.687 86.409 86.409 86.409c4.06 0 8.052-.287 11.963-.828-42.06-5.826-74.447-41.918-74.447-85.581z" fill="#f48931"/></g><g><path d="m373.527 79.666c-11.609 0-21.053-9.444-21.053-21.052s9.445-21.053 21.053-21.053 21.053 9.445 21.053 21.053-9.444 21.052-21.053 21.052zm0-26.653c-3.089 0-5.601 2.512-5.601 5.601 0 3.088 2.512 5.6 5.601 5.6s5.601-2.512 5.601-5.6c0-3.089-2.512-5.601-5.601-5.601z" fill="#f48931"/></g><g><path d="m429.119 135.259c-11.609 0-21.053-9.445-21.053-21.053s9.445-21.053 21.053-21.053 21.053 9.445 21.053 21.053-9.445 21.053-21.053 21.053zm0-26.654c-3.089 0-5.601 2.512-5.601 5.601s2.512 5.601 5.601 5.601 5.601-2.512 5.601-5.601-2.513-5.601-5.601-5.601z" fill="#f48931"/></g><g><path d="m371.81 136.746c-1.517 0-3.049-.446-4.391-1.375-3.508-2.43-4.383-7.242-1.954-10.751l59.012-85.22c2.43-3.507 7.241-4.384 10.75-1.954 3.508 2.43 4.383 7.242 1.954 10.75l-59.012 85.22c-1.5 2.167-3.909 3.33-6.359 3.33z" fill="#f48931"/></g><g><path d="m176.53 282.556h-14.204c-4.268 0-7.726-3.459-7.726-7.726s3.459-7.726 7.726-7.726h14.204c4.268 0 7.726 3.459 7.726 7.726s-3.458 7.726-7.726 7.726z" fill="#e5e5e5"/></g><g><path d="m236.859 282.556h-14.203c-4.268 0-7.726-3.459-7.726-7.726s3.459-7.726 7.726-7.726h14.203c4.268 0 7.726 3.459 7.726 7.726s-3.458 7.726-7.726 7.726z" fill="#e5e5e5"/></g><g><path d="m297.188 282.556h-14.203c-4.268 0-7.726-3.459-7.726-7.726s3.459-7.726 7.726-7.726h14.203c4.268 0 7.726 3.459 7.726 7.726s-3.458 7.726-7.726 7.726z" fill="#e5e5e5"/></g><g><path d="m357.517 282.556h-14.203c-4.268 0-7.726-3.459-7.726-7.726s3.459-7.726 7.726-7.726h14.203c4.268 0 7.726 3.459 7.726 7.726s-3.458 7.726-7.726 7.726z" fill="#e5e5e5"/></g><g><path d="m116.2 340.57h-14.203c-4.268 0-7.726-3.459-7.726-7.726s3.459-7.726 7.726-7.726h14.203c4.268 0 7.726 3.459 7.726 7.726s-3.458 7.726-7.726 7.726z" fill="#e5e5e5"/></g><g><path d="m176.53 340.57h-14.204c-4.268 0-7.726-3.459-7.726-7.726s3.459-7.726 7.726-7.726h14.204c4.268 0 7.726 3.459 7.726 7.726s-3.458 7.726-7.726 7.726z" fill="#e5e5e5"/></g><g><path d="m236.859 340.57h-14.203c-4.268 0-7.726-3.459-7.726-7.726s3.459-7.726 7.726-7.726h14.203c4.268 0 7.726 3.459 7.726 7.726s-3.458 7.726-7.726 7.726z" fill="#e5e5e5"/></g><g><path d="m297.188 340.57h-14.203c-4.268 0-7.726-3.459-7.726-7.726s3.459-7.726 7.726-7.726h14.203c4.268 0 7.726 3.459 7.726 7.726s-3.458 7.726-7.726 7.726z" fill="#e5e5e5"/></g><g><path d="m357.517 340.57h-14.203c-4.268 0-7.726-3.459-7.726-7.726s3.459-7.726 7.726-7.726h14.203c4.268 0 7.726 3.459 7.726 7.726s-3.458 7.726-7.726 7.726z" fill="#e5e5e5"/></g><g><path d="m116.2 398.585h-14.203c-4.268 0-7.726-3.459-7.726-7.726s3.459-7.726 7.726-7.726h14.203c4.268 0 7.726 3.459 7.726 7.726s-3.458 7.726-7.726 7.726z" fill="#e5e5e5"/></g><g><path d="m176.53 398.585h-14.204c-4.268 0-7.726-3.459-7.726-7.726s3.459-7.726 7.726-7.726h14.204c4.268 0 7.726 3.459 7.726 7.726s-3.458 7.726-7.726 7.726z" fill="#e5e5e5"/></g><g><path d="m236.859 398.585h-14.203c-4.268 0-7.726-3.459-7.726-7.726s3.459-7.726 7.726-7.726h14.203c4.268 0 7.726 3.459 7.726 7.726s-3.458 7.726-7.726 7.726z" fill="#e5e5e5"/></g><g><path d="m297.188 398.585h-14.203c-4.268 0-7.726-3.459-7.726-7.726s3.459-7.726 7.726-7.726h14.203c4.268 0 7.726 3.459 7.726 7.726s-3.458 7.726-7.726 7.726z" fill="#e5e5e5"/></g><g><path d="m357.517 398.585h-14.203c-4.268 0-7.726-3.459-7.726-7.726s3.459-7.726 7.726-7.726h14.203c4.268 0 7.726 3.459 7.726 7.726s-3.458 7.726-7.726 7.726z" fill="#e5e5e5"/></g><g><path d="m116.2 456.599h-14.203c-4.268 0-7.726-3.459-7.726-7.726s3.459-7.726 7.726-7.726h14.203c4.268 0 7.726 3.459 7.726 7.726s-3.458 7.726-7.726 7.726z" fill="#e5e5e5"/></g><g><path d="m176.53 456.599h-14.204c-4.268 0-7.726-3.459-7.726-7.726s3.459-7.726 7.726-7.726h14.204c4.268 0 7.726 3.459 7.726 7.726s-3.458 7.726-7.726 7.726z" fill="#e5e5e5"/></g><g><path d="m236.859 456.599h-14.203c-4.268 0-7.726-3.459-7.726-7.726s3.459-7.726 7.726-7.726h14.203c4.268 0 7.726 3.459 7.726 7.726s-3.458 7.726-7.726 7.726z" fill="#df646e"/></g><g><path d="m297.188 456.599h-14.203c-4.268 0-7.726-3.459-7.726-7.726s3.459-7.726 7.726-7.726h14.203c4.268 0 7.726 3.459 7.726 7.726s-3.458 7.726-7.726 7.726z" fill="#df646e"/></g></g></svg>