<svg id="Layer_1" enable-background="new 0 0 512 512" height="512" viewBox="0 0 512 512" width="512" xmlns="http://www.w3.org/2000/svg"><path clip-rule="evenodd" d="m399.544 16h-221.299v51.789c0 9.372-7.628 17-17 17h-51.789v166.839 14 85.945l-32.678-85.945h32.678 23.982c2.385 8.22 8.863 14.698 17.083 17.083v113.289h14 40.625 86.539 107.858c5.508 0 10-4.492 10-10v-125.611l-46.236 46.236-2.235 2.234-58.357 20.737c-5.547 1.971-11.713.526-15.805-3.706-4.081-4.22-5.325-10.447-3.179-15.911l22.222-56.579 2.064-2.064 101.525-101.524v-123.812c.002-5.508-4.49-10-9.998-10zm-290.088 235.628h23.982c2.385-8.22 8.864-14.698 17.083-17.083v-20.528c0-3.866 3.134-7 7-7s7 3.134 7 7v20.528c8.22 2.385 14.698 8.864 17.083 17.083h113.938c3.866 0 7 3.134 7 7s-3.134 7-7 7h-36.994l39.045 102.691c.418.897.652 1.898.652 2.953 0 8.999-2.386 17.441-6.56 24.727-8.876 15.497-25.321 25.102-43.269 25.102s-34.395-9.605-43.27-25.102c-4.173-7.287-6.56-15.729-6.56-24.727 0-1.043.288-2.048.66-3.025l39.018-102.62h-56.66c-2.385 8.22-8.864 14.698-17.083 17.083v113.29 56.061l64.733 26.7c.765.315 1.237 1.022 1.237 1.849v13.39c0 1.102-.898 2-2 2h-141.94c-1.102 0-2-.898-2-2v-13.391c0-.827.473-1.533 1.237-1.849l64.733-26.7v-56.06h-31.066c-3.082 0-5.847-1.407-7.683-3.612-8.191 17.481-25.743 28.714-45.146 28.714-27.518 0-49.829-22.311-49.829-49.829 0-1.055.234-2.056.652-2.953l39.045-102.691h-36.994c-3.866 0-7-3.134-7-7s3.134-7 7-7h89.956zm0 99.945 6.34 16.675c.36.946.66 1.945.66 3.025 0 7.548-1.679 14.704-4.683 21.116-1.445-1.734-2.317-3.963-2.317-6.388zm-75.526 12.7 32.707-86.022 32.707 86.022zm422.76-241.81c9.76-9.76 25.73-9.76 35.49 0s9.759 25.731 0 35.491l-9.251 9.251-35.49-35.49zm16.34 54.641-114.38 114.379-35.49-35.49 114.379-114.38zm-126.493 122.063-48.509 17.237c-.81.288-1.579-.508-1.265-1.308l18.529-47.175zm-65.424 65.106h-65.414l32.707-86.022zm34.429-230.236c-2.809-2.643-2.944-7.062-.301-9.871s7.062-2.944 9.871-.301c3.967 3.742 6.555 5.887 12.222 5.887 6.38 0 13.326-4.186 13.326-11.151 0-6.966-6.947-11.151-13.326-11.151-14.1 0-27.327-10.442-27.327-25.152 0-11.968 8.945-21.477 20.23-24.286l-.117-4.891c-.09-3.851 2.958-7.046 6.809-7.137 3.851-.09 7.046 2.958 7.137 6.809l.129 5.38c6.055 1.609 13.513 5.233 16.997 10.533 2.114 3.216 1.22 7.539-1.996 9.653s-7.539 1.22-9.653-1.996c-1.663-2.531-6.695-5.215-12.209-5.215-6.361 0-13.354 4.204-13.354 11.151 0 6.993 7.011 11.151 13.354 11.151 14.1 0 27.327 10.443 27.327 25.152 0 11.963-8.969 21.477-20.215 24.282l.102 4.227c.09 3.851-2.958 7.046-6.809 7.137-3.851.09-7.046-2.958-7.137-6.809l-.107-4.417c-6.095-1.415-10.467-4.753-14.953-8.985zm-154.203 54.987c-3.866 0-7-3.134-7-7s3.134-7 7-7h124.971c3.866 0 7 3.134 7 7s-3.134 7-7 7zm0-69.656c-3.866 0-7-3.134-7-7s3.134-7 7-7h124.971c3.866 0 7 3.134 7 7s-3.134 7-7 7zm0 34.828c-3.866 0-7-3.134-7-7s3.134-7 7-7h124.971c3.866 0 7 3.134 7 7s-3.134 7-7 7zm2.906-131.196v44.789c0 1.643-1.356 2.999-2.999 2.999h-44.789z" fill-rule="evenodd"/></svg>