<svg id="Layer_1" enable-background="new 0 0 66 66" height="512" viewBox="0 0 66 66" width="512" xmlns="http://www.w3.org/2000/svg"><g><path d="m11.5 1.8-9.9 10.1h9.9z"/><path d="m36.6 13.3c.6 0 1.1-.5 1.1-1.1s-.5-1.1-1.1-1.1-1.1.5-1.1 1.1.4 1.1 1.1 1.1z"/><path d="m30.3 22.1c.6 0 1.1-.5 1.1-1.1s-.5-1.1-1.1-1.1-1.1.5-1.1 1.1c-.1.6.4 1.1 1.1 1.1z"/><path d="m14.8 23.5c0-.7-.5-1.1-1.1-1.1s-1.1.5-1.1 1.1.5 1.1 1.1 1.1c.6.1 1.1-.5 1.1-1.1z"/><path d="m13.2 47.6c11.3-19.8 7.6-13.4 8.4-14.7.7-1.1 1.6-1.5 2.6-1.5h10.4c.5-.8 1.2-1.5 2-2v-3.3c0-1.6 1.3-3 3-3 1.6 0 3 1.4 3 3v3.3c.8.5 1.5 1.2 2 2h2.3v-29.1c0-.5-.4-1-1-1h-32.4v11.6c0 .6-.4 1-1 1h-11.5v41.5c0 .5.4 1 1 1h15c-3.5-2.6-4.5-7-3.8-8.8zm-2.7-24.1c0-1.7 1.4-3.1 3.1-3.1.3 0 .7 0 .9.1l3.6-4.7c-.4-.5-.7-1.2-.7-2 0-1.7 1.4-3.1 3.1-3.1 2.2 0 3.7 2.3 2.9 4.3l4.7 3.5c.5-.5 1.2-.7 2-.7.4 0 .7.1 1 .2l2.7-4c-.4-.5-.6-1.1-.6-1.8 0-1.7 1.4-3.1 3.1-3.1s3.1 1.4 3.1 3.1c0 2.1-2 3.7-4.1 3l-2.7 4c.3.5.5 1.1.5 1.7 0 1.7-1.4 3.1-3.1 3.1s-3.1-1.4-3.1-3.1c0-.2 0-.5.1-.7l-4.9-3.7c-.5.3-1 .5-1.6.5-.3 0-.5 0-.8-.1l-3.7 4.8c.4.5.6 1.1.6 1.8 0 1.7-1.4 3.1-3.1 3.1-1.6.1-3-1.4-3-3.1z"/><path d="m20.7 15.1c.6 0 1.1-.5 1.1-1.1s-.5-1.1-1.1-1.1-1.1.5-1.1 1.1c-.1.6.5 1.1 1.1 1.1z"/><path d="m64.9 48.2c-8.1-13.7-7.9-14.8-9-14.8h-12.6c-.3-1.3-1.3-2.4-2.7-2.7v-4.6c0-.6-.5-1-1-1-.6 0-1 .4-1 1v4.6c-1.3.3-2.4 1.4-2.7 2.7h-11.7c-.4 0-.7.2-.9.5-8.7 15.2-8.3 14.4-8.3 14.8 0 4.5 4.1 8.2 9.2 8.2s9.2-3.7 9.2-8.2c0-.1 0-.2-.1-.3 0 0 0 0 0-.1 0 0 0 0 0-.1l-7.3-12.8h10c.4 1.3 1.4 2.3 2.7 2.7v20.4h-3.2c-2.9 0-5.2 2.3-5.2 5.2 0 .5.5 1 1 1h16.7c.5 0 1-.5 1-1 0-2.9-2.3-5.2-5.2-5.2h-3.2v-20.4c1.3-.4 2.3-1.4 2.7-2.7h10.7l-7.3 12.8c-.1.1-.1.3-.1.5 0 4.5 4.1 8.2 9.2 8.2s9.2-3.7 9.2-8.2c0-.2-.1-.4-.1-.5zm-34.2-.5h-13l6.5-11.3zm8.9-11.4c-1 0-1.9-.8-1.9-1.9 0-1 .8-1.9 1.9-1.9 1 0 1.9.8 1.9 1.9 0 1-.8 1.9-1.9 1.9zm9.8 11.4 6.5-11.3 6.5 11.3z"/></g></svg>