<svg id="Layer_1" enable-background="new 0 0 512 512" height="512" viewBox="0 0 512 512" width="512" xmlns="http://www.w3.org/2000/svg"><path clip-rule="evenodd" d="m422.616 107.825-166.093-91.825-166.092 91.825zm-79.348 116.748h-131.599v35.938c0 3.866-3.134 7-7 7h-35.937v178.078h174.537v-221.016zm-93.019 44.665c18.166-1.589 35.264 4.342 48.221 15.215 12.967 10.88 21.782 26.7 23.372 44.877 1.589 18.166-4.342 35.264-15.215 48.222-10.881 12.966-26.7 21.782-44.877 23.372-18.166 1.589-35.264-4.342-48.221-15.215-12.967-10.88-21.782-26.7-23.372-44.877-1.589-18.166 4.342-35.264 15.215-48.221 10.881-12.967 26.7-21.783 44.877-23.373zm39.253 25.934c10.203 8.562 17.141 21.026 18.396 35.361 1.255 14.346-3.419 27.837-11.989 38.05-8.562 10.203-21.026 17.142-35.361 18.396-14.346 1.255-27.837-3.419-38.049-11.989-10.203-8.562-17.142-21.026-18.395-35.361-1.255-14.346 3.419-27.837 11.989-38.049 8.562-10.203 21.026-17.142 35.361-18.395 14.344-1.256 27.835 3.417 38.048 11.987zm-69.42 37.282c-2.204-3.156-1.433-7.502 1.723-9.707s7.502-1.434 9.707 1.723l10.907 15.578 37.832-26.489c3.156-2.204 7.502-1.434 9.707 1.723s1.434 7.502-1.723 9.707l-43.536 30.483c-3.156 2.204-7.502 1.434-9.707-1.723zm-22.413-100.881v21.937h-21.937zm285.648-59.677c6.985 0 12.683-5.697 12.683-12.683v-24.705c0-6.985-5.697-12.683-12.683-12.683h-454.634c-6.985 0-12.683 5.698-12.683 12.683v24.705c0 6.985 5.697 12.683 12.683 12.683zm-452.683 324.104c-8.06 0-14.634-6.574-14.634-14.634v-21.143c0-8.06 6.574-14.634 14.634-14.634h124.098v14h202.536v-14h124.098c8.06 0 14.634 6.574 14.634 14.634v21.143c0 8.06-6.574 14.634-14.634 14.634zm48.491-100.823h75.607v36.412h-90.241v-21.778c0-8.06 6.574-14.634 14.634-14.634zm278.143 0h75.607c8.06 0 14.634 6.574 14.634 14.634v21.778h-90.241zm58.273-116.62c0-32.415.794-63.581 2.258-92.661h-44.975c1.464 29.081 2.258 60.246 2.258 92.661 0 36.147-.987 70.74-2.79 102.621h46.039c-1.803-31.882-2.79-66.475-2.79-102.621zm-275.983 0c0-32.415.794-63.581 2.258-92.661h-44.976c1.464 29.081 2.258 60.246 2.258 92.661 0 36.147-.987 70.74-2.79 102.621h46.039c-1.802-31.882-2.789-66.475-2.789-102.621zm93.191-67.984c.3-8.375.655-16.607 1.061-24.678h-44.975c.546 10.845.999 21.98 1.352 33.362l8.684-8.684zm91.994 0c.3-8.375.655-16.607 1.061-24.678h-44.975c.406 8.071.761 16.303 1.061 24.678z" fill-rule="evenodd"/></svg>