<?xml version="1.0" encoding="utf-8"?>
<!-- Generator: Adobe Illustrator 27.1.1, SVG Export Plug-In . SVG Version: 6.00 Build 0)  -->
<svg version="1.1" id="Layer_1" xmlns="http://www.w3.org/2000/svg" xmlns:xlink="http://www.w3.org/1999/xlink" x="0px" y="0px"
	 viewBox="0 0 512 512" style="enable-background:new 0 0 512 512;" xml:space="preserve">
<style type="text/css">
	.st0{fill-rule:evenodd;clip-rule:evenodd;fill:#565854;}
</style>
<path class="st0" d="M69,349.3h41.6l-7.5-168.5H76.6L69,349.3z M54.4,378.1h70.8l-0.1-15.2H54.5L54.4,378.1z M118.7,150.5H61v15.8
	c0,0.3,0.1,0.7,0.2,1h57.4c0.1-0.3,0.2-0.7,0.2-1L118.7,150.5z M151.5,407.8v-16.3h-120v16.3H151.5z M151.5,447.7v-26.4H15.9v26.4
	L151.5,447.7z M496.1,368.2h-60.6c-11.3,0-20.4,9.2-20.4,20.4v12.6c0,11.3,9.2,20.4,20.4,20.4h60.6L496.1,368.2L496.1,368.2z
	 M313.2,170.4c0-3.7,3-6.7,6.7-6.7s6.7,3,6.7,6.7v3.2c10.8,2.8,18.4,12.5,18.6,23.6c0,3.7-2.9,6.8-6.7,6.8s-6.8-2.9-6.8-6.7
	c0-0.1,0-0.1,0-0.2c0-10-13-14.7-20.3-7.7c-7.2,6.9-2.1,18.8,8.5,18.8c22.4,0,33.9,26.5,17.8,41.9c-3.1,3-6.9,5.1-11,6.2v3.2
	c0,3.7-3,6.7-6.7,6.7s-6.7-3-6.7-6.7v-3.2c-10.8-2.8-18.4-12.5-18.6-23.6c0-3.7,3.1-6.7,6.8-6.7c3.7,0,6.6,3,6.7,6.7
	c0,10,13,14.7,20.3,7.7c7.2-6.9,2.1-18.8-8.5-18.8c-22.4,0-33.9-26.5-17.8-41.9c3.1-3,6.9-5.1,11-6.2V170.4z M382.8,152.1
	c-34.7-34.7-91-34.7-125.7,0c-32.7,32.7-34.9,85.1-4.9,120.4h135.6C417.7,237.2,415.6,184.9,382.8,152.1L382.8,152.1z M229.4,167.3
	H190c-0.1-0.3-0.2-0.7-0.2-1v-15.8h50.7C236.2,155.7,232.5,161.4,229.4,167.3z M218,224.4h-14.5l1.9-43.5h18
	C218.5,194.8,216.7,209.6,218,224.4z M235.3,272.5h-28.8c-3.7,0-6.7,3.1-6.7,6.8c0,3.7,3,6.6,6.7,6.7h289.6v68.7h-60.6
	c-18.7,0-33.9,15.2-33.9,33.9v12.6c0,18.7,15.2,33.9,33.9,33.9h60.6v59.5H187c-10.9,0-21.9-7-21.9-17.5v-207
	c0.1-17.9,14.6-32.4,32.5-32.5h22.7C223,250.2,228.2,262,235.3,272.5L235.3,272.5z M419.8,237.8h7.8v34.7h-22.9
	C411.8,262,416.9,250.2,419.8,237.8z M320,112.6c-24.3,0-47.8,8.6-66.3,24.4H15.9v-27.9l208.6-91.9l208.6,91.9V137h-46.8
	C367.8,121.2,344.3,112.6,320,112.6L320,112.6z"/>
</svg>
