<?xml version="1.0" encoding="UTF-8"?>
<svg xmlns="http://www.w3.org/2000/svg" xmlns:xlink="http://www.w3.org/1999/xlink" version="1.1" id="Capa_1" x="0px" y="0px" viewBox="0 0 512 512" style="enable-background:new 0 0 512 512;" xml:space="preserve" width="512" height="512">
<g>
	<path style="fill:none;stroke:#000000;stroke-width:15;stroke-linecap:round;stroke-linejoin:round;stroke-miterlimit:10;" d="&#10;&#9;&#9;M426.978,504.5h51.962c14.117,0,25.561-11.444,25.561-25.561l0,0c0-14.117-11.444-25.561-25.561-25.561H33.061&#10;&#9;&#9;c-14.117,0-25.561,11.444-25.561,25.561l0,0c0,14.117,11.444,25.561,25.561,25.561h364.075"/>
	<g>
		<g>
			<path style="fill:none;stroke:#000000;stroke-width:15;stroke-linecap:round;stroke-linejoin:round;stroke-miterlimit:10;" d="&#10;&#9;&#9;&#9;&#9;M141.104,218.832H64.896c-10.62,0-19.229-8.609-19.229-19.229v0c0-10.62,8.609-19.229,19.229-19.229h76.208&#10;&#9;&#9;&#9;&#9;c10.62,0,19.229,8.609,19.229,19.229v0C160.333,210.223,151.724,218.832,141.104,218.832z"/>
			<path style="fill:none;stroke:#000000;stroke-width:15;stroke-linecap:round;stroke-linejoin:round;stroke-miterlimit:10;" d="&#10;&#9;&#9;&#9;&#9;M141.104,453.379H64.896c-10.62,0-19.229-8.609-19.229-19.229v0c0-10.62,8.609-19.229,19.229-19.229h76.208&#10;&#9;&#9;&#9;&#9;c10.62,0,19.229,8.609,19.229,19.229v0C160.333,444.77,151.724,453.379,141.104,453.379z"/>
			<path style="fill:none;stroke:#000000;stroke-width:15;stroke-linecap:round;stroke-linejoin:round;stroke-miterlimit:10;" d="&#10;&#9;&#9;&#9;&#9;M447.104,218.832h-76.208c-10.62,0-19.229-8.609-19.229-19.229v0c0-10.62,8.609-19.229,19.229-19.229h76.208&#10;&#9;&#9;&#9;&#9;c10.62,0,19.229,8.609,19.229,19.229v0C466.333,210.223,457.724,218.832,447.104,218.832z"/>
			<path style="fill:none;stroke:#000000;stroke-width:15;stroke-linecap:round;stroke-linejoin:round;stroke-miterlimit:10;" d="&#10;&#9;&#9;&#9;&#9;M447.104,453.379h-76.208c-10.62,0-19.229-8.609-19.229-19.229v0c0-10.62,8.609-19.229,19.229-19.229h76.208&#10;&#9;&#9;&#9;&#9;c10.62,0,19.229,8.609,19.229,19.229v0C466.333,444.77,457.724,453.379,447.104,453.379z"/>
			
				<rect x="70.667" y="218.832" style="fill:none;stroke:#000000;stroke-width:15;stroke-linecap:round;stroke-linejoin:round;stroke-miterlimit:10;" width="64.667" height="196.089"/>
			
				<rect x="376.667" y="218.832" style="fill:none;stroke:#000000;stroke-width:15;stroke-linecap:round;stroke-linejoin:round;stroke-miterlimit:10;" width="64.667" height="196.089"/>
			
				<line style="fill:none;stroke:#000000;stroke-width:15;stroke-linecap:round;stroke-linejoin:round;stroke-miterlimit:10;" x1="103" y1="262.9" x2="103" y2="371.9"/>
			
				<line style="fill:none;stroke:#000000;stroke-width:15;stroke-linecap:round;stroke-linejoin:round;stroke-miterlimit:10;" x1="409" y1="262.9" x2="409" y2="371.9"/>
		</g>
		<path style="fill:none;stroke:#000000;stroke-width:15;stroke-linecap:round;stroke-linejoin:round;stroke-miterlimit:10;" d="&#10;&#9;&#9;&#9;M294.104,218.832h-76.208c-10.62,0-19.229-8.609-19.229-19.229v0c0-10.62,8.609-19.229,19.229-19.229h76.208&#10;&#9;&#9;&#9;c10.62,0,19.229,8.609,19.229,19.229v0C313.333,210.223,304.724,218.832,294.104,218.832z"/>
		<path style="fill:none;stroke:#000000;stroke-width:15;stroke-linecap:round;stroke-linejoin:round;stroke-miterlimit:10;" d="&#10;&#9;&#9;&#9;M294.104,453.379h-76.208c-10.62,0-19.229-8.609-19.229-19.229v0c0-10.62,8.609-19.229,19.229-19.229h76.208&#10;&#9;&#9;&#9;c10.62,0,19.229,8.609,19.229,19.229v0C313.333,444.77,304.724,453.379,294.104,453.379z"/>
		
			<rect x="223.667" y="218.832" style="fill:none;stroke:#000000;stroke-width:15;stroke-linecap:round;stroke-linejoin:round;stroke-miterlimit:10;" width="64.667" height="196.089"/>
		
			<line style="fill:none;stroke:#000000;stroke-width:15;stroke-linecap:round;stroke-linejoin:round;stroke-miterlimit:10;" x1="256" y1="262.9" x2="256" y2="371.9"/>
	</g>
	<g>
		<path style="fill:none;stroke:#000000;stroke-width:15;stroke-linecap:round;stroke-linejoin:round;stroke-miterlimit:10;" d="&#10;&#9;&#9;&#9;M123.791,79.457L17.454,142.648c-17.714,10.526-10.258,37.725,10.342,37.725h456.409c20.599,0,28.055-27.199,10.342-37.725&#10;&#9;&#9;&#9;L276.683,13.183c-12.75-7.577-28.616-7.577-41.366,0l-86.066,51.145"/>
		<path style="fill:none;stroke:#000000;stroke-width:15;stroke-linecap:round;stroke-linejoin:round;stroke-miterlimit:10;" d="&#10;&#9;&#9;&#9;M214.196,67.012l36.633-21.769c3.188-1.894,7.154-1.894,10.342,0l36.234,21.532"/>
		<g>
			<g>
				<path style="fill:none;stroke:#000000;stroke-width:15;stroke-linecap:round;stroke-linejoin:round;stroke-miterlimit:10;" d="&#10;&#9;&#9;&#9;&#9;&#9;M154.22,119.532h14.83c6.499,0,12.001,5.918,12.17,13.464c0.175,7.808-5.222,14.201-11.904,14.201c0,0-15.095,0.051-15.095,0.04&#10;&#9;&#9;&#9;&#9;&#9;V95.868h12.622c5.557,0,10.263,5.06,10.406,11.513c0.148,6.673-4.465,12.137-10.177,12.137"/>
			</g>
			<g>
				<path style="fill:none;stroke:#000000;stroke-width:15;stroke-linecap:round;stroke-linejoin:round;stroke-miterlimit:10;" d="&#10;&#9;&#9;&#9;&#9;&#9;M203.435,146.864l19.04-49.909c0.389-0.95,1.736-0.951,2.127-0.002l18.867,49.911"/>
				
					<line style="fill:none;stroke:#000000;stroke-width:15;stroke-linecap:round;stroke-linejoin:round;stroke-miterlimit:10;" x1="209.373" y1="134.434" x2="237.626" y2="134.434"/>
			</g>
			<g>
				<path style="fill:none;stroke:#000000;stroke-width:15;stroke-linecap:round;stroke-linejoin:round;stroke-miterlimit:10;" d="&#10;&#9;&#9;&#9;&#9;&#9;M266.742,146.864V96.337l34.218,49.468c0.634,0.915,1.314,0.467,1.314-0.646L301.8,96.242"/>
			</g>
			<g>
				
					<line style="fill:none;stroke:#000000;stroke-width:15;stroke-linecap:round;stroke-linejoin:round;stroke-miterlimit:10;" x1="328.703" y1="96.242" x2="328.703" y2="146.864"/>
				
					<polyline style="fill:none;stroke:#000000;stroke-width:15;stroke-linecap:round;stroke-linejoin:round;stroke-miterlimit:10;" points="&#10;&#9;&#9;&#9;&#9;&#9;355.98,96.881 330.326,120.422 357.78,146.864 &#9;&#9;&#9;&#9;"/>
			</g>
		</g>
	</g>
</g>















</svg>
