<svg id="Capa_1" enable-background="new 0 0 512 512" height="512" viewBox="0 0 512 512" width="512" xmlns="http://www.w3.org/2000/svg"><g><g id="Page-1_2_"><g id="finance_and_pointers_filled_2_" transform="translate(-536 -416)"><path id="bank-transfer_x2C_-currency_x2C_-money_x2C_-transaction_x2C_-connection" d="m1017.882 528.941v105.412h15.059c8.317 0 15.059 6.742 15.059 15.059s-6.742 15.059-15.059 15.059h-240.941c-8.317 0-15.059-6.742-15.059-15.059s6.742-15.059 15.059-15.059h15.059v-105.412h-15.059c-8.317 0-15.059-6.742-15.059-15.059v-22.588c0-5.704 3.222-10.918 8.324-13.469l120.471-60.235c4.239-2.12 9.229-2.12 13.469 0l120.471 60.235c5.102 2.551 8.324 7.765 8.324 13.469v22.588c0 8.317-6.742 15.059-15.059 15.059zm-30.117 0h-30.118v105.412h30.118zm-60.236 0h-30.118v105.412h30.118zm-60.235 0h-30.118v105.412h30.118zm-90.353 263.53v105.412h15.059c8.317 0 15.059 6.742 15.059 15.059s-6.742 15.059-15.059 15.059h-240.941c-8.317 0-15.059-6.742-15.059-15.059s6.742-15.059 15.059-15.059h15.059v-105.412h-15.059c-8.317 0-15.059-6.742-15.059-15.059v-22.588c0-5.704 3.222-10.918 8.324-13.469l120.471-60.235c4.239-2.12 9.229-2.12 13.469 0l120.471 60.235c5.102 2.551 8.324 7.765 8.324 13.469v22.588c0 8.317-6.742 15.059-15.059 15.059zm-30.117 0h-30.118v105.412h30.118zm-60.236 0h-30.118v105.412h30.118zm-60.235 0h-30.118v105.412h30.118zm353.882-16.351v8.821c0 45.742-37.081 82.823-82.824 82.823h-30.118c-8.317 0-15.059-6.742-15.059-15.059s6.742-15.059 15.059-15.059h30.118c29.108 0 52.706-23.597 52.706-52.706v-8.821l-11.94 11.94c-5.88 5.881-15.415 5.881-21.296 0s-5.881-15.416 0-21.296l37.647-37.647c5.88-5.881 15.415-5.881 21.296 0l37.647 37.647c5.881 5.881 5.881 15.416 0 21.296-5.88 5.881-15.415 5.881-21.296 0zm-376.47-208.24v-8.821c0-45.742 37.081-82.824 82.824-82.824h30.118c8.317 0 15.059 6.742 15.059 15.059s-6.742 15.059-15.059 15.059h-30.118c-29.108 0-52.706 23.597-52.706 52.706v8.821l11.94-11.94c5.88-5.881 15.415-5.881 21.296 0s5.881 15.416 0 21.296l-37.647 37.647c-5.88 5.881-15.415 5.881-21.296 0l-37.647-37.647c-5.881-5.881-5.881-15.416 0-21.296 5.88-5.881 15.415-5.881 21.296 0z"/></g></g></g></svg>