<?xml version="1.0" encoding="utf-8"?>
<!-- Generator: Adobe Illustrator 27.1.1, SVG Export Plug-In . SVG Version: 6.00 Build 0)  -->
<svg version="1.1" id="Layer_1" xmlns="http://www.w3.org/2000/svg" xmlns:xlink="http://www.w3.org/1999/xlink" x="0px" y="0px"
	 viewBox="0 0 512 512" style="enable-background:new 0 0 512 512;" xml:space="preserve">
<style type="text/css">
	.st0{fill:#565854;}
</style>
<g id="XMLID_102_">
	<path id="XMLID_104_" class="st0" d="M193.1,160.2c1.6-1.3,2.3-3.2,2.3-5.7s-0.8-4.5-2.3-6s-3.7-2.3-6.5-2.4h-0.4h-11.1v16.1h11.3
		C189.4,162.2,191.6,161.5,193.1,160.2L193.1,160.2z"/>
	<path id="XMLID_200_" class="st0" d="M41.6,201h428.8c3.5,0,6.3-2.8,6.3-6.3v-23.3c0-2-0.9-3.9-2.5-5.1L259.7,7.2
		c-2.2-1.7-5.3-1.7-7.5,0L37.9,166.4c-1.6,1.2-2.5,3.1-2.5,5.1v23.3C35.3,198.2,38.1,201,41.6,201L41.6,201z M305.8,118.8h8.3V140
		h3.3l16.2-21.2h9.8l0.1,0.2l-18.8,23.5l20.3,26.3h-10.5l-16.3-21.6h-4.1v21.6h-8.3V118.8z M256.3,118.8h8.3l22.1,36l0.2-0.1v-36
		h8.3v50H287l-22.1-36l-0.2,0.1v36h-8.3L256.3,118.8L256.3,118.8z M224.9,118.8h7.9l17.2,50h-8.6l-3.8-11.7H220l-3.8,11.7h-8.6
		L224.9,118.8z M166.9,118.8h16.4c5.5,0,9.8,1.1,12.9,3.4s4.7,5.7,4.7,10.2c0,2.2-0.6,4.2-1.9,5.9c-1.2,1.8-3,3.1-5.2,4
		c3.2,0.5,5.7,1.9,7.4,4.2c1.7,2.2,2.6,4.9,2.6,7.9c0,4.7-1.5,8.3-4.6,10.7s-7.3,3.7-12.7,3.7h-19.6L166.9,118.8z"/>
	<path id="XMLID_206_" class="st0" d="M190.3,138c1.5-1.2,2.2-3,2.2-5.2c0-2.5-0.8-4.3-2.4-5.5s-3.9-1.8-6.9-1.8h-8v14.4h8.9
		C186.7,139.9,188.8,139.3,190.3,138z"/>
	<path id="XMLID_207_" class="st0" d="M229,130.5h-0.2l-6.5,19.7h13.1L229,130.5z"/>
	<path id="XMLID_208_" class="st0" d="M482.6,477.4H29.4c-3.5,0-6.3,2.8-6.3,6.3v16c0,3.5,2.8,6.3,6.3,6.3h453.2
		c3.5,0,6.3-2.8,6.3-6.3v-16C488.9,480.2,486.1,477.4,482.6,477.4z"/>
	<path id="XMLID_209_" class="st0" d="M45.5,443.1v16c0,3.5,2.8,6.3,6.3,6.3h408.4c3.5,0,6.3-2.8,6.3-6.3v-16c0-3.5-2.8-6.3-6.3-6.3
		H51.8C48.3,436.8,45.5,439.6,45.5,443.1L45.5,443.1z"/>
	<path id="XMLID_210_" class="st0" d="M381.4,404.4c-1.8,0-3.3,1.5-3.3,3.3v9.5c0,1.8,1.5,3.3,3.3,3.3h56.8c1.8,0,3.3-1.5,3.3-3.3
		v-9.5c0-1.8-1.5-3.3-3.3-3.3h-5.6V235.6h5.6c1.8,0,3.3-1.5,3.3-3.3v-9.5c0-1.8-1.5-3.3-3.3-3.3h-56.8c-1.8,0-3.3,1.5-3.3,3.3v9.5
		c0,1.8,1.5,3.3,3.3,3.3h5.6v168.9h-5.6V404.4z"/>
	<path id="XMLID_211_" class="st0" d="M278.9,404.4c-1.8,0-3.3,1.5-3.3,3.3v9.5c0,1.8,1.5,3.3,3.3,3.3h56.8c1.8,0,3.3-1.5,3.3-3.3
		v-9.5c0-1.8-1.5-3.3-3.3-3.3h-5.6V235.6h5.6c1.8,0,3.3-1.5,3.3-3.3v-9.5c0-1.8-1.5-3.3-3.3-3.3h-56.8c-1.8,0-3.3,1.5-3.3,3.3v9.5
		c0,1.8,1.5,3.3,3.3,3.3h5.6v168.9h-5.6V404.4z"/>
	<path id="XMLID_212_" class="st0" d="M176.3,404.4c-1.8,0-3.3,1.5-3.3,3.3v9.5c0,1.8,1.5,3.3,3.3,3.3h56.8c1.8,0,3.3-1.5,3.3-3.3
		v-9.5c0-1.8-1.5-3.3-3.3-3.3h-5.6V235.6h5.6c1.8,0,3.3-1.5,3.3-3.3v-9.5c0-1.8-1.5-3.3-3.3-3.3h-56.8c-1.8,0-3.3,1.5-3.3,3.3v9.5
		c0,1.8,1.5,3.3,3.3,3.3h5.6v168.9h-5.6V404.4z"/>
	<path id="XMLID_213_" class="st0" d="M73.7,404.4c-1.8,0-3.3,1.5-3.3,3.3v9.5c0,1.8,1.5,3.3,3.3,3.3h56.8c1.8,0,3.3-1.5,3.3-3.3
		v-9.5c0-1.8-1.5-3.3-3.3-3.3h-5.6V235.6h5.6c1.8,0,3.3-1.5,3.3-3.3v-9.5c0-1.8-1.5-3.3-3.3-3.3H73.7c-1.8,0-3.3,1.5-3.3,3.3v9.5
		c0,1.8,1.5,3.3,3.3,3.3h5.6v168.9h-5.6V404.4z"/>
</g>
</svg>
