<svg id="Capa_1" enable-background="new 0 0 512 512" height="512" viewBox="0 0 512 512" width="512" xmlns="http://www.w3.org/2000/svg"><g><path d="m497 101.792h-482c-8.284 0-15 6.716-15 15v278.416c0 8.284 6.716 15 15 15h482c8.284 0 15-6.716 15-15v-278.416c0-8.284-6.716-15-15-15zm-411.285 176.146h186.425c8.284 0 15 6.716 15 15s-6.716 15-15 15h-186.425c-8.284 0-15-6.716-15-15s6.716-15 15-15zm-15-58.876c0-8.284 6.716-15 15-15h146.622c8.284 0 15 6.716 15 15s-6.716 15-15 15h-146.622c-8.284 0-15-6.716-15-15zm327.198 49.692c-14.577-5.153-29.504-11.049-39.939-19.234-10.609-8.321-15.471-22.658-12.69-37.416 2.99-15.865 14.016-28.509 28.806-33.086v-4.609c0-8.284 6.716-15 15-15s15 6.716 15 15v3.684c9.318 2.363 15.828 6.636 18.511 8.643 6.635 4.96 7.993 14.36 3.032 20.995-4.96 6.634-14.359 7.993-20.995 3.032-2.76-2.063-10.389-6.496-21.605-3.119-6.276 1.891-7.915 8.145-8.267 10.016-.667 3.541.041 6.936 1.723 8.255 7.049 5.529 19.841 10.46 31.423 14.554 21.953 7.76 34.159 28.104 30.373 50.625-2.797 16.638-15.045 33.498-34.194 39.489v5.681c0 8.284-6.716 15-15 15s-15-6.716-15-15v-4.117c-8.849-1.184-16.417-4.093-26.485-10.679-6.933-4.535-8.876-13.832-4.341-20.764 4.535-6.933 13.832-8.875 20.764-4.341 9.233 6.04 12.734 6.591 24.962 6.51 11.62-.078 18.362-8.738 19.709-16.752.802-4.778.469-13.388-10.787-17.367z"/></g></svg>