<svg id="Icons" enable-background="new 0 0 32 32" height="512" viewBox="0 0 32 32" width="512" xmlns="http://www.w3.org/2000/svg"><path d="m24 16c-4.4 0-8 3.6-8 8s3.6 8 8 8 8-3.6 8-8-3.6-8-8-8zm3 9h-2v2c0 .6-.4 1-1 1s-1-.4-1-1v-2h-2c-.6 0-1-.4-1-1s.4-1 1-1h2v-2c0-.6.4-1 1-1s1 .4 1 1v2h2c.6 0 1 .4 1 1s-.4 1-1 1z"/><g><path d="m27.5 9.1-13-7c-.3-.2-.7-.2-.9 0l-13 7c-.4.2-.6.5-.6.9v3c0 .6.4 1 1 1h26c.6 0 1-.4 1-1v-3c0-.4-.2-.7-.5-.9z"/><path d="m7 24c.6 0 1-.4 1-1v-7c0-.6-.4-1-1-1h-2c-.6 0-1 .4-1 1v7c0 .6.4 1 1 1z"/><path d="m1 25c-.6 0-1 .4-1 1v3c0 .6.4 1 1 1h15c-1.1-1.4-1.8-3.1-2-5z"/><path d="m14 24c0-2.2.8-4.3 2-6v-2c0-.6-.4-1-1-1h-2c-.6 0-1 .4-1 1v7c0 .6.4 1 1 1z"/></g></svg>