<svg clip-rule="evenodd" fill-rule="evenodd" height="512" image-rendering="optimizeQuality" shape-rendering="geometricPrecision" text-rendering="geometricPrecision" viewBox="0 0 1707 1707" width="512" xmlns="http://www.w3.org/2000/svg"><g id="Layer_x0020_1"><g id="_562567368"><path d="m637 978h-78c-11 0-20-9-20-20v-466c0-11 9-20 20-20h78c11 0 20 9 20 20v466c0 11-9 20-20 20z"/><path d="m725 982c-11 0-20-9-20-20v-464c0-11 9-20 20-20s20 9 20 20v464c0 11-9 20-20 20z"/><path d="m969 985h-68c-11 0-20-9-20-20v-466c0-11 9-20 20-20h68c11 0 20 9 20 20v466c0 11-9 20-20 20z"/><path d="m813 984c-11 0-20-9-20-20v-464c0-11 9-20 20-20s20 9 20 20v464c0 11-9 20-20 20z"/><path d="m1057 993c-11 0-20-9-20-20v-464c0-11 9-20 20-20s20 9 20 20v464c0 11-9 20-20 20z"/><path d="m1214 985h-69c-11 0-20-9-20-20v-466c0-11 9-20 20-20h69c11 0 20 9 20 20v466c0 11-9 20-20 20z"/><path d="m1302 984c-11 0-20-9-20-20v-464c0-11 9-20 20-20s20 9 20 20v464c0 11-9 20-20 20z"/><path d="m1390 984c-11 0-20-9-20-20v-464c0-11 9-20 20-20s20 9 20 20v464c0 11-9 20-20 20z"/><path d="m974 1464c-195 0-379-76-517-214-138-139-214-322-214-518 0-195 76-379 214-517s322-214 517-214c196 0 380 76 518 214s214 322 214 517c0 196-76 379-214 518-138 138-322 214-518 214zm0-136c-159 0-308-62-421-174-113-113-175-263-175-422s62-309 175-421c113-113 262-175 421-175 160 0 309 62 422 175 232 232 232 610 0 843-113 112-262 174-422 174z"/><path d="m116 1706c-31 0-60-12-82-34-21-21-33-50-33-81s12-60 33-81l172-172c22-22 51-34 81-34 31 0 60 12 82 34 45 45 45 118 0 162l-172 172c-22 22-51 34-81 34z"/><path d="m355 1392c-11 0-21-4-29-12-15-15-15-41 0-56l117-117c16-15 41-15 57 0 15 16 15 41 0 57l-117 116c-8 8-18 12-28 12z"/></g></g></svg>