<svg id="Layer_1" height="512" viewBox="0 0 512 512" width="512" xmlns="http://www.w3.org/2000/svg"><g><g><g><path d="m327.972 314.517c-.422-5.993-5.659-10.517-11.668-10.517h-12.304v-64c0-8.836-7.163-16-16-16h-64c-8.837 0-16 7.164-16 16v64h-12.304c-6.008 0-11.246 4.524-11.668 10.517-.231 3.283.977 6.488 3.286 8.797l38.722 38.722c2.651 2.651 5.947 4.628 9.602 5.468 1.455.334 2.917.487 4.362.487v.009h32v-.01c5.122 0 10.035-2.025 13.657-5.647l39.029-39.03c2.309-2.308 3.517-5.512 3.286-8.796z" fill="#4182c3"/></g><g><path d="m284.304 304h-12.304v-64c0-8.837-7.163-16-16-16h-32c-8.837 0-16 7.163-16 16v64h-12.304c-6.008 0-11.246 4.524-11.668 10.517-.231 3.283.977 6.488 3.286 8.797l38.722 38.722c2.651 2.651 5.947 4.628 9.602 5.468 6.609 1.518 13.375-.517 18.019-5.16l39.029-39.03c2.309-2.309 3.517-5.513 3.286-8.797-.422-5.993-5.659-10.517-11.668-10.517z" fill="#64afe1"/></g></g><g><g><path d="m280 384h-68.118c-12.73 0-24.939 5.057-33.941 14.059l-17.941 17.941 40 40 19.314-19.314c3.001-3.001 7.07-4.686 11.314-4.686h49.372c13.255 0 24-10.745 24-24s-10.745-24-24-24z" fill="#fab991"/></g><g><path d="m395.313 372.686c-6.248-6.249-16.379-6.249-22.627 0l-59.313 59.314h-82.745c-4.243 0-8.313 1.686-11.314 4.686l-19.314 19.314 24 24 16-16h76.687c6.411 0 12.438-2.497 16.97-7.03l61.657-61.657c6.248-6.248 6.248-16.378-.001-22.627z" fill="#f0915a"/></g><g><path d="m280 421.333h-5.333c-4.418 0-8-3.582-8-8v-10.667c0-4.418 3.582-8 8-8h5.333c7.364 0 13.333 5.97 13.333 13.333 0 7.365-5.969 13.334-13.333 13.334z" fill="#f0915a"/></g><g><path d="m157.657 413.657 42.343 42.343-40 40h-96l82.343-82.343c3.124-3.124 8.19-3.124 11.314 0z" fill="#ffd205"/></g><g><path d="m200 456 26.343 26.343c3.124 3.124 3.124 8.19 0 11.314l-2.343 2.343h-64z" fill="#faa019"/></g></g><g><g><path d="m272 240h-32c-61.856 0-112-50.144-112-112s50.144-112 112-112h32c61.856 0 112 50.144 112 112s-50.144 112-112 112z" fill="#faa019"/></g><g><circle cx="240" cy="128" fill="#ffd205" r="112"/></g><g><circle cx="240" cy="128" fill="#faa019" r="80"/></g><path d="m262.624 150.623c-6.047 6.047-14.082 9.377-22.624 9.377-17.645 0-32-14.355-32-32s14.355-32 32-32c8.542 0 16.577 3.33 22.624 9.377 3.124 3.124 8.189 3.124 11.313 0 3.125-3.124 3.125-8.189 0-11.313-3.009-3.009-6.352-5.559-9.937-7.637v-14.427c0-4.418-3.582-8-8-8s-8 3.582-8 8v8.674c-2.62-.438-5.291-.674-8-.674-2.726 0-5.396.241-8 .679v-8.679c0-4.418-3.582-8-8-8s-8 3.582-8 8v14.458c-14.333 8.313-24 23.815-24 41.542s9.667 33.229 24 41.542v14.458c0 4.418 3.582 8 8 8s8-3.582 8-8v-8.679c2.604.438 5.274.679 8 .679 2.709 0 5.38-.236 8-.674v8.674c0 4.418 3.582 8 8 8s8-3.582 8-8v-14.427c3.585-2.078 6.928-4.628 9.937-7.637 3.125-3.124 3.125-8.189 0-11.313-3.124-3.124-8.189-3.124-11.313 0z" fill="#ffd205"/></g></g></svg>