<svg height="512pt" viewBox="0 0 512 512" width="512pt" xmlns="http://www.w3.org/2000/svg"><path d="m512 482.078125h-16.96875v-327.210937h16.96875v-29.921876h-114.632812v59.507813h47.519531v29.921875h-47.519531v29.925781h47.519531v29.921875h-47.519531v29.921875h47.519531v29.921875h-47.519531v29.925782h47.519531v29.921874h-47.519531v88.167969h-29v-413.621093l-112.367188-68.460938-112.367188 68.460938v413.617187h-29v-88.167969h-47.1875v-29.917968h47.1875v-29.925782h-47.1875v-29.921875h47.1875v-29.925781h-47.1875v-29.917969h47.1875v-29.925781h-47.1875v-29.921875h47.1875v-59.507813h-114.632812v29.921876h17.300781v327.210937h-17.300781v29.921875h512zm-214.105469-361.453125h29.921875v29.921875h-29.921875zm0 62.832031h29.921875v29.921875h-29.921875zm0 62.835938h29.921875v29.921875h-29.921875zm0 62.832031h29.921875v29.921875h-29.921875zm0 62.832031h29.921875v29.921875h-29.921875zm-56.855469-251.332031h29.921876v29.921875h-29.921876zm0 62.832031h29.921876v29.921875h-29.921876zm0 62.835938h29.921876v29.921875h-29.921876zm0 62.832031h29.921876v29.921875h-29.921876zm0 62.832031h29.921876v29.921875h-29.921876zm-57.847656-251.332031h29.925782v29.921875h-29.925782zm0 62.832031h29.925782v29.921875h-29.925782zm0 62.835938h29.925782v29.921875h-29.925782zm0 62.832031h29.925782v29.921875h-29.925782zm0 62.832031h29.925782v29.921875h-29.925782zm57.847656 56.851563h29.921876v53.269531h-29.921876zm0 0"/></svg>