<svg height="512" viewBox="0 0 64 64" width="512" xmlns="http://www.w3.org/2000/svg"><g id="Layer_7" data-name="Layer 7"><path d="m44.76 14.76-8.76-8.76v2.566a17.009 17.009 0 0 1 -3.328 10.106l-7.672-7.672v4.73a5.589 5.589 0 0 1 -4.119 5.393 9.338 9.338 0 0 0 -4.146 15.612l1.265 1.265h24l2.757-2.757a14.485 14.485 0 0 0 0-20.483z" fill="#f3a845"/><g fill="#eecc61"><path d="m38.94 26.38-4.254-4.38v1.283a8.673 8.673 0 0 1 -1.617 5.053l-3.726-3.836v2.365a2.784 2.784 0 0 1 -2 2.7 4.65 4.65 0 0 0 -3.343 4.501 4.74 4.74 0 0 0 1.328 3.3l.615.633h11.657l1.339-1.379a7.393 7.393 0 0 0 0-10.241z"/><path d="m17.707 15.707-1.414-1.414 1.293-1.293a1.415 1.415 0 0 0 0-2l-.586-.586a3.415 3.415 0 0 1 0-4.829l1.293-1.292 1.414 1.414-1.293 1.293a1.415 1.415 0 0 0 0 2l.586.586a3.415 3.415 0 0 1 0 4.829z"/><path d="m47.707 13.707-1.414-1.414 1.293-1.293a1.415 1.415 0 0 0 0-2l-.586-.586a3.415 3.415 0 0 1 0-4.829l1.293-1.292 1.414 1.414-1.293 1.293a1.415 1.415 0 0 0 0 2l.586.586a3.415 3.415 0 0 1 0 4.829z"/><path d="m30.707 12.707-1.414-1.414 1.293-1.293a1.415 1.415 0 0 0 0-2l-.586-.586a3.415 3.415 0 0 1 0-4.829l1.293-1.292 1.414 1.414-1.293 1.293a1.415 1.415 0 0 0 0 2l.586.586a3.415 3.415 0 0 1 0 4.829z"/></g><path d="m8 62v-24h48v24" fill="#559b38"/><path d="m48 42a4 4 0 0 0 4 4v8a4 4 0 0 0 -4 4h-32a4 4 0 0 0 -4-4v-8a4 4 0 0 0 4-4z" fill="#ccc"/><path d="m16 42a4 4 0 0 1 -4 4v8a3.963 3.963 0 0 1 2.62 1h25.38a6 6 0 0 0 6-6v-7z" fill="#f2f2f2"/><circle cx="32" cy="50" fill="#559b38" r="8"/><path d="m32 42a8 8 0 0 0 -6.24 13h7.24a4 4 0 0 0 4-4v-7.24a7.963 7.963 0 0 0 -5-1.76z" fill="#6bc148"/><path d="m32 49a1 1 0 1 1 1-1h2a3 3 0 0 0 -2-2.816v-1.184h-2v1.184a2.993 2.993 0 0 0 1 5.816 1 1 0 1 1 -1 1h-2a3 3 0 0 0 2 2.816v1.184h2v-1.184a2.993 2.993 0 0 0 -1-5.816z" fill="#fff"/><circle cx="46" cy="50" fill="#559b38" r="2"/><path d="m44 50a1.972 1.972 0 0 0 .263.973 1.993 1.993 0 0 0 1.737-1.973v-1a2 2 0 0 0 -2 2z" fill="#6bc148"/><circle cx="18" cy="50" fill="#559b38" r="2"/><path d="m16 50a1.972 1.972 0 0 0 .263.973 1.993 1.993 0 0 0 1.737-1.973v-1a2 2 0 0 0 -2 2z" fill="#6bc148"/></g></svg>