<svg id="Layer_1" enable-background="new 0 0 65 65" height="512" viewBox="0 0 65 65" width="512" xmlns="http://www.w3.org/2000/svg"><g><g><path d="m46.2 34c-.4-.6-1.3-.8-1.9-.4s-.8 1.2-.5 1.9c.9 1.7 1.6 2.9 2.1 3.7 1 1.7 1.4 2.5 1.6 3.8.7 5.1 2.4 5.1 4.3 8.3l7.5-3.9-.3-.8c-.4-.9-.5-1.8-.5-2.8 0-3.1.1-6.4.1-9.9 0-1.6-2.4-4.6-4.6-6.6v8.1c0 1.4-.8 2.5-2.1 2.9-2.7.9-3.7-1.2-5.7-4.3z"/><path d="m60 5.5c0-1.7-1.3-3-3-3s-3.1 1.3-3.1 3v6.5h6.1z"/><path d="m43.1 32c.4-.3.8-.4 1.3-.5 1.1-2.1 1.8-4.3 1.9-6.7h-2.4c-.5 6.8-5.9 12.2-12.7 12.7v2.4c3.9-.2 7.6-1.9 10.4-4.7-.1-1.2.4-2.5 1.5-3.2z"/><path d="m44.3 58.1h-36.8-4.7v1.6c0 1.5 1.2 2.8 2.8 2.8h39.6c-1.1-1.7-.8-3.3-.9-4.4z"/><path d="m41.9 23.8c0-6.5-5.3-11.8-11.8-11.8s-11.8 5.3-11.8 11.8 5.3 11.8 11.8 11.8c6.6 0 11.8-5.3 11.8-11.8zm-17.4 5 1.6-1.9c1.2 1 2.4 1.7 3.7 1.9v-4.1c-2.8-.7-4.6-1.6-4.6-4.3 0-2.6 2-4.2 4.6-4.3v-1.1h1.4v1.1c1.6.1 3 .6 4.4 1.6l-1.4 2c-.9-.7-2-1.1-3-1.2v4h.1c2.7.6 4.7 1.6 4.7 4.4 0 2.7-2.1 4.2-4.8 4.3v1.5h-1.4v-1.6c-2-.2-3.8-1-5.3-2.3z"/><path d="m61.9 49.6-.5-1-10.2 5.3.5 1c.5 1 1.7 1.4 2.7.8l6.7-3.5c1-.4 1.3-1.6.8-2.6z"/><path d="m29.2 39.9v-2.4c-6.8-.5-12.2-5.9-12.7-12.7h-2.4c.5 8.1 7 14.6 15.1 15.1z"/><path d="m50.8 57.6-1.4-2.7c-.4-.9-.2-2 .6-2.5-1.7-2.8-4-3.8-4.5-9.1-.1-.9-.3-1.3-1.3-3-.4-.7-1-1.7-1.7-3-3.3 3-7.7 4.7-12.2 4.8-10.1-.1-18.3-8.3-18.3-18.3s8.1-18.2 18.2-18.2c13.5 0 22.2 14.2 16.3 26.2.5.3 1 .6 1.3 1.1 2.2 3.2 2.5 3.9 3.4 3.6.4-.1.6-.5.6-1 0-3.1 0 11.1 0-30 0-1.1.4-2.2 1-3h-41.3c-1.7 0-3 1.4-3 3v50.5h36.9c.6 0 1 .4 1 1v2.6c0 1.5 1.2 2.8 2.8 2.8 1.5 0 2.8-1.2 2.8-2.8v-1.1c-.5-.1-.9-.4-1.2-.9zm-35.2-6.6h-2c-.6 0-1-.4-1-1s.4-1 1-1h2c.6 0 1 .4 1 1s-.5 1-1 1zm9 0h-2c-.6 0-1-.4-1-1s.4-1 1-1h2c.6 0 1 .4 1 1s-.4 1-1 1zm9.1 0h-2c-.6 0-1-.4-1-1s.4-1 1-1h2c.6 0 1 .4 1 1s-.4 1-1 1zm9.1 0h-2c-.6 0-1-.4-1-1s.4-1 1-1h2c.6 0 1 .4 1 1s-.4 1-1 1z"/><path d="m43.9 22.8h2.4c-.5-8.1-7-14.6-15.1-15.1v2.4c6.8.5 12.2 5.9 12.7 12.7z"/><path d="m29.7 18.3c-1.1.1-2 .7-2 1.8 0 1.2.8 1.5 2 1.9z"/><path d="m33.3 27c0-1.2-.9-1.6-2.2-2v3.8c1.1-.1 2.2-.7 2.2-1.8z"/><path d="m29.2 10.1v-2.4c-8.1.5-14.6 7-15.1 15.1h2.4c.5-6.8 5.9-12.2 12.7-12.7z"/></g></g></svg>