<?xml version="1.0" encoding="iso-8859-1"?>
<!-- Generator: Adobe Illustrator 19.0.0, SVG Export Plug-In . SVG Version: 6.00 Build 0)  -->
<svg version="1.1" id="Capa_1" xmlns="http://www.w3.org/2000/svg" xmlns:xlink="http://www.w3.org/1999/xlink" x="0px" y="0px"
	 viewBox="0 0 512 512" style="enable-background:new 0 0 512 512;" xml:space="preserve">
<polygon style="fill:#DEECF1;" points="512,151 512,512 0,512 0,151 31,121 480.801,121 "/>
<polygon style="fill:#C6E2E7;" points="512,151 512,512 256,512 256,121 480.801,121 "/>
<rect y="30" style="fill:#FF641A;" width="512" height="121"/>
<polygon style="fill:#00ABE9;" points="311.499,386.499 256,442.299 241,457.299 200.501,416.499 221.499,395.499 241,414.699 
	256,399.699 290.501,365.499 "/>
<g>
	<path style="fill:#A8D3D8;" d="M151,301H61v-90h90V301z"/>
	<path style="fill:#A8D3D8;" d="M211,211v90h90v-90H211z"/>
	<path style="fill:#A8D3D8;" d="M151,451H61v-90h90V451z"/>
</g>
<g>
	<path style="fill:#8EBAC5;" d="M452,301h-90v-90h90V301z"/>
	<path style="fill:#8EBAC5;" d="M452,451h-90v-90h90V451z"/>
	<rect x="256" y="211" style="fill:#8EBAC5;" width="45" height="90"/>
</g>
<polygon style="fill:#0095FF;" points="290.501,365.499 311.499,386.499 256,442.299 256,399.699 "/>
<rect x="256" y="30" style="fill:#F03800;" width="256" height="121"/>
<rect x="226" style="fill:#00465F;" width="60" height="90"/>
<rect x="256" style="fill:#002C3C;" width="30" height="90"/>
<rect x="76" style="fill:#00465F;" width="60" height="90"/>
<rect x="106" style="fill:#002C3C;" width="30" height="90"/>
<rect x="377" style="fill:#00465F;" width="60" height="90"/>
<rect x="407" style="fill:#002C3C;" width="30" height="90"/>
<g>
</g>
<g>
</g>
<g>
</g>
<g>
</g>
<g>
</g>
<g>
</g>
<g>
</g>
<g>
</g>
<g>
</g>
<g>
</g>
<g>
</g>
<g>
</g>
<g>
</g>
<g>
</g>
<g>
</g>
</svg>
