<svg id="Glyph" enable-background="new 0 0 32 32" height="512" viewBox="0 0 32 32" width="512" xmlns="http://www.w3.org/2000/svg"><path id="XMLID_365_" d="m30 25.5v3c0 .827-.673 1.5-1.5 1.5h-25c-.827 0-1.5-.673-1.5-1.5v-3c0-.827.673-1.5 1.5-1.5h25c.827 0 1.5.673 1.5 1.5z"/><path id="XMLID_367_" d="m26.265 12.507c-.242-1.452-1.486-2.507-2.959-2.507h-1.306v-2h3.5c.276 0 .5-.224.5-.5v-3c0-.276-.224-.5-.5-.5h-9c-.276 0-.5.224-.5.5v3c0 .276.224.5.5.5h3.5v2h-11.306c-1.474 0-2.718 1.055-2.959 2.507l-1.582 9.493h23.694zm-11.265 5.993c0 .276-.224.5-.5.5h-6c-.276 0-.5-.224-.5-.5v-5c0-.276.224-.5.5-.5h6c.276 0 .5.224.5.5zm5 .5h-2v-2h2zm0-4h-2v-2h2zm4 4h-2v-2h2zm0-4h-2v-2h2z"/></svg>