<?xml version="1.0" encoding="utf-8"?>
<!-- Generator: Adobe Illustrator 27.1.1, SVG Export Plug-In . SVG Version: 6.00 Build 0)  -->
<svg version="1.1" id="Layer_1" xmlns="http://www.w3.org/2000/svg" xmlns:xlink="http://www.w3.org/1999/xlink" x="0px" y="0px"
	 viewBox="0 0 512 512" style="enable-background:new 0 0 512 512;" xml:space="preserve">
<style type="text/css">
	.st0{fill:#565854;}
</style>
<g id="Page-1">
	<g id="_x30_22---Cash">
		<path id="Shape" class="st0" d="M246.9,202.6c-10.2,2.3-17.6,11-18.3,21.4c0.7,10.4,8.1,19.1,18.3,21.4V202.6z"/>
		<path id="Shape_00000052098698288673084230000009485198655526023849_" class="st0" d="M146.3,256c0,65.5,49.2,118.9,109.7,118.9
			S365.7,321.5,365.7,256S316.5,137.1,256,137.1S146.3,190.5,146.3,256z M210.3,224c0.9-20.5,16.3-37.4,36.6-40.3v-0.8
			c0-5,4.1-9.1,9.1-9.1c5,0,9.1,4.1,9.1,9.1v0.8c20.3,2.9,35.7,19.8,36.6,40.3c0,5-4.1,9.1-9.1,9.1s-9.1-4.1-9.1-9.1
			c-0.7-10.4-8.1-19.1-18.3-21.4v45.1c20.3,2.9,35.7,19.8,36.6,40.3c-0.9,20.5-16.3,37.4-36.6,40.3v0.8c0,5-4.1,9.1-9.1,9.1
			c-5,0-9.1-4.1-9.1-9.1v-0.8c-20.3-2.9-35.7-19.8-36.6-40.3c0-5,4.1-9.1,9.1-9.1c5,0,9.1,4.1,9.1,9.1c0.7,10.4,8.1,19.1,18.3,21.4
			v-45.1C226.5,261.4,211.2,244.5,210.3,224z"/>
		<path id="Shape_00000138547497288234136410000005960799231008285852_" class="st0" d="M496,137.1H319.6
			C360.2,163,384.5,207.9,384,256c0.5,48.1-23.8,93-64.4,118.9h187.8c2.5,0,4.6-2,4.6-4.6V141.7c0-2.5-2-4.6-4.6-4.6H496z
			 M493.7,347.4c0,5-4.1,9.1-9.1,9.1H448c-5,0-9.1-4.1-9.1-9.1c0-5,4.1-9.1,9.1-9.1h27.4v-27.4c0-5,4.1-9.1,9.1-9.1
			c5,0,9.1,4.1,9.1,9.1V347.4z M493.7,201.1c0,5-4.1,9.1-9.1,9.1c-5,0-9.1-4.1-9.1-9.1v-27.4H448c-5,0-9.1-4.1-9.1-9.1
			c0-5,4.1-9.1,9.1-9.1h36.6c5,0,9.1,4.1,9.1,9.1V201.1z"/>
		<path id="Shape_00000034810422538119888480000000503148518439732362_" class="st0" d="M451.4,38l-241,80.9h273l-26.1-78
			C456.3,38.5,453.8,37.2,451.4,38z"/>
		<path id="Shape_00000095340605568522949720000003590965697622940549_" class="st0" d="M283.4,288c-0.7-10.4-8.1-19.1-18.3-21.4
			v42.9C275.3,307.1,282.8,298.4,283.4,288L283.4,288z"/>
		<path id="Shape_00000009555967807714171680000006563364601185046923_" class="st0" d="M128,256c-0.5-48.1,23.8-93,64.4-118.9H4.6
			c-2.5,0-4.6,2-4.6,4.6v228.6c0,2.5,2,4.6,4.6,4.6h187.8C151.8,349,127.5,304.1,128,256z M64,356.6H27.4c-5,0-9.1-4.1-9.1-9.1
			v-36.6c0-5,4.1-9.1,9.1-9.1s9.1,4.1,9.1,9.1v27.4H64c5,0,9.1,4.1,9.1,9.1C73.1,352.5,69,356.6,64,356.6z M64,173.7H36.6v27.4
			c0,5-4.1,9.1-9.1,9.1s-9.1-4.1-9.1-9.1v-36.6c0-5,4.1-9.1,9.1-9.1H64c5,0,9.1,4.1,9.1,9.1C73.1,169.6,69,173.7,64,173.7z"/>
		<path id="Shape_00000111169386869349358250000012406667937409182893_" class="st0" d="M60.6,474l241.1-80.9h-273l26.1,78
			C55.7,473.5,58.2,474.8,60.6,474z"/>
	</g>
</g>
</svg>
