<svg height="512pt" viewBox="-50 0 512 512" width="512pt" xmlns="http://www.w3.org/2000/svg"><path d="m386.964844 218.40625h-16.273438v-184.117188c0-18.910156-15.378906-34.289062-34.289062-34.289062-11.472656 0-249.460938 0-260.902344 0-18.910156 0-34.289062 15.378906-34.289062 34.289062v5.78125c0 4.214844 3.410156 7.632813 7.632812 7.632813 4.214844 0 7.632812-3.417969 7.632812-7.632813v-5.78125c0-10.492187 8.53125-19.023437 19.023438-19.023437h155.570312c8.140626 0 15.101563 5.140625 17.808594 12.355469 1.511719 4 1.210938 6.210937 1.210938 15.269531v206.609375h-14.023438v-95.488281c0-2.71875-1.414062-5.097657-3.550781-6.441407-5.03125-3.207031-11.714844.40625-11.714844 6.441407v95.488281h-32.925781c34.296875-20.640625 43.007812-66.902344 18.074219-98.644531-39.609375-50.324219-119.628907-21.476563-119.628907 41.324219 0 24.273437 12.976563 45.578124 32.363282 57.320312h-32.925782v-173.835938c0-.5.296876-.96875.683594-1.089843 14.269532-4.367188 25.066406-16.132813 28.171875-30.71875.121094-.570313.601563-.964844 1.160157-.964844h75.023437c.558594 0 1.035156.394531 1.160156.964844 3.066407 14.464843 13.796875 26.308593 28.160157 30.71875.398437.121093.683593.589843.683593 1.089843v47.8125c0 4.214844 3.417969 7.636719 7.632813 7.636719 4.222656 0 7.632812-3.421875 7.632812-7.636719v-47.8125c0-7.167968-4.710937-13.621093-11.480468-15.6875-8.816407-2.683593-15.726563-10.015624-17.699219-19.296874-1.691407-7.753907-8.546875-13.058594-16.089844-13.058594h-75.023437c-7.714844 0-14.484376 5.488281-16.089844 13.050781-1.957032 9.167969-8.742188 16.558594-17.710938 19.304687-6.757812 2.066407-11.480468 8.519532-11.480468 15.6875v173.835938h-14.015626c0-7.972656 0-171.097656 0-178.894531 0-4.214844-3.417968-7.632813-7.632812-7.632813-4.222656 0-7.632812 3.417969-7.632812 7.632813v147.800781h-4.46875c-20.265626 0-36.742188 16.480469-36.742188 36.734375v218.195313c0 21.320312 17.351562 38.664062 38.675781 38.664062h349.234375c13.222656 0 23.980469-10.757812 23.980469-23.980469 0-12.695312 0-236.5625 0-244.6875 0-13.738281-11.1875-24.925781-24.925781-24.925781zm-50.5625-203.140625c10.492187 0 19.019531 8.53125 19.019531 19.023437v215.210938h-14.015625v-95.488281c0-4.214844-3.417969-7.632813-7.632812-7.632813-4.210938 0-7.632813 3.417969-7.632813 7.632813v95.488281h-32.925781c19.390625-11.742188 32.367187-33.046875 32.367187-57.320312 0-34.65625-26.453125-63.246094-60.222656-66.636719v-82.652344h30.765625c.5625 0 1.039062.394531 1.160156.964844 3.105469 14.585937 13.90625 26.351562 28.175782 30.71875.386718.121093.679687.589843.679687 1.089843v47.8125c0 4.214844 3.421875 7.636719 7.632813 7.636719 4.214843 0 7.632812-3.421875 7.632812-7.636719v-47.8125c0-7.167968-4.722656-13.621093-11.480469-15.6875-8.964843-2.746093-15.753906-10.136718-17.707031-19.304687-1.609375-7.5625-8.378906-13.050781-16.09375-13.050781h-31.429688c-.875-4.496094-2.644531-8.679688-5.117187-12.355469zm-53.773438 199.0625c4.875 0 10.21875-6.097656 12.050782-15.015625h.003906 7.539062c4.214844 0 7.632813-3.417969 7.632813-7.636719 0-4.214843-3.417969-7.632812-7.632813-7.632812h-8.121094c-4.683593-14.808594-21.046874-15.027344-28.742187-12.148438v-30.980469c25.332031 3.308594 44.953125 25.035157 44.953125 51.265626 0 26.226562-19.621094 47.957031-44.953125 51.265624 0-10.636718 0-43.25 0-53.75 2.105469-4.171874 4.546875-6.574218 9.269531-6.574218 5.710938 0 8.601563 3.347656 8.601563 9.953125 0 10.121093-7.277344 10.628906-7.277344 15.378906 0 3.308594 3.59375 5.875 6.675781 5.875zm-181.042968-22.148437c0-51.492188 68.355468-71.746094 95.753906-27.011719 22.550781 36.617187-7.34375 83.886719-50.796875 78.277343-25.335938-3.308593-44.957031-25.039062-44.957031-51.265624zm295.039062 295.839843c0 4.804688-3.910156 8.714844-8.714844 8.714844h-349.234375c-12.90625 0-23.410156-10.496094-23.410156-23.398437v-184.640626c6.046875 4.367188 13.464844 6.941407 21.476563 6.941407h359.882812zm0-207.648437h-359.882812c-11.835938 0-21.476563-9.628906-21.476563-21.464844v-3.765625c0-11.835937 9.640625-21.464844 21.476563-21.464844h4.46875v15.824219h-8.265626c-4.222656 0-7.632812 3.410156-7.632812 7.636719 0 4.210937 3.410156 7.632812 7.632812 7.632812h343.992188c4.214844 0 7.636719-3.421875 7.636719-7.632812 0-4.226563-3.421875-7.636719-7.636719-7.636719h-6.246094v-15.824219h16.273438c5.324218 0 9.660156 4.335938 9.660156 9.65625zm0 0"/><path d="m86.203125 39.671875c0 4.003906-3.246094 7.25-7.25 7.25s-7.25-3.246094-7.25-7.25 3.246094-7.25 7.25-7.25 7.25 3.246094 7.25 7.25zm0 0"/><path d="m234.859375 39.671875c0 4.003906-3.246094 7.25-7.25 7.25s-7.25-3.246094-7.25-7.25 3.246094-7.25 7.25-7.25 7.25 3.246094 7.25 7.25zm0 0"/><path d="m169.289062 183.121094c6.128907 0 8.609376 3.878906 8.609376 9.953125 0 10.066406-7.285157 10.644531-7.285157 15.378906 0 3.300781 3.589844 5.875 6.6875 5.875 5.785157 0 10.488281-7.652344 12.039063-15.015625h7.546875c4.214843 0 7.632812-3.417969 7.632812-7.636719 0-4.214843-3.417969-7.632812-7.632812-7.632812h-8.128907c-2.878906-9.140625-10.472656-13.5625-20.179687-13.5625-25.730469 0-19.679687 29.585937-31.746094 29.585937-4.519531 0-6.808593-3.257812-6.808593-9.6875 0-4.550781 1.28125-7.035156 2.21875-8.855468.621093-1.191407 1.199218-2.320313 1.199218-3.644532 0-5.257812-11.800781-12.335937-14.652344 6.164063h-8.867187c-4.21875 0-7.636719 3.417969-7.636719 7.632812 0 4.21875 3.417969 7.636719 7.636719 7.636719h9.535156c4.066407 14.644531 19.597657 15.28125 27.085938 11.410156 13.222656-6.847656 9.660156-27.601562 22.746093-27.601562zm0 0"/><path d="m144.128906 67.046875v33.46875c0 4.214844 3.417969 7.632813 7.632813 7.632813 4.214843 0 7.632812-3.417969 7.632812-7.632813v-33.46875c0-4.21875-3.417969-7.636719-7.632812-7.636719-4.214844 0-7.632813 3.417969-7.632813 7.636719zm0 0"/><path d="m340.195312 39.671875c0 4.003906-3.246093 7.25-7.25 7.25-4.003906 0-7.25-3.246094-7.25-7.25s3.246094-7.25 7.25-7.25c4.003907 0 7.25 3.246094 7.25 7.25zm0 0"/></svg>