<?xml version="1.0" encoding="utf-8"?>
<!-- Generator: Adobe Illustrator 27.1.1, SVG Export Plug-In . SVG Version: 6.00 Build 0)  -->
<svg version="1.1"
	 id="Layer_1" text-rendering="geometricPrecision" image-rendering="optimizeQuality" shape-rendering="geometricPrecision" xmlns:xodm="http://www.corel.com/coreldraw/odm/2003"
	 xmlns="http://www.w3.org/2000/svg" xmlns:xlink="http://www.w3.org/1999/xlink" x="0px" y="0px" viewBox="0 0 512 512"
	 style="enable-background:new 0 0 512 512;" xml:space="preserve">
<style type="text/css">
	.st0{fill-rule:evenodd;clip-rule:evenodd;fill:#565854;}
</style>
<g id="Layer_x0020_1">
	<path class="st0" d="M448,507.1H24.1C10.8,507.1,0,496.3,0,483V212.1C0,198.8,10.8,188,24.1,188H448c13.3,0,24.1,10.8,24.1,24.1v71
		H368.4c-18.8,0-34.1,15.3-34.1,34.1v60.6c0,18.8,15.3,34.1,34.1,34.1h103.8V483C472.2,496.3,461.3,507.1,448,507.1z M181.5,311.8
		l-0.3,0c-8.4,0.1-15.1,7-15.1,15.4c0,8.5,6.9,15.4,15.4,15.4c14,0,25.4,11.4,25.4,25.4c0,12.3-8.8,22.5-20.4,24.9v3.9
		c0,2.8-2.2,5-5,5s-5-2.2-5-5v-3.9c-11.6-2.3-20.4-12.6-20.4-24.9c0-2.8,2.2-5,5-5s5,2.2,5,5c0,8.5,6.9,15.4,15.4,15.4
		c8.5,0,15.4-6.9,15.4-15.4c0-8.5-6.9-15.4-15.4-15.4c-14,0-25.4-11.4-25.4-25.4c0-12.3,8.8-22.5,20.4-24.9v-3.9c0-2.8,2.2-5,5-5
		s5,2.2,5,5v3.9c11.6,2.3,20.4,12.6,20.4,24.9c0,2.8-2.2,5-5,5s-5-2.2-5-5c0-8.4-6.8-15.2-15.1-15.4L181.5,311.8z M300,447.2H63.1
		c-2.8,0-5-2.2-5-5V252.9c0-2.8,2.2-5,5-5H300c2.8,0,5,2.2,5,5v189.3C305,445,302.7,447.2,300,447.2z M68.1,437.2H295V257.9H68.1
		V437.2z M181.5,421.3c-40.7,0-73.8-33.1-73.8-73.8c0-40.7,33.1-73.8,73.8-73.8s73.8,33.1,73.8,73.8
		C255.3,388.2,222.2,421.3,181.5,421.3z M181.5,283.8c-35.2,0-63.8,28.6-63.8,63.7s28.6,63.8,63.8,63.8s63.8-28.6,63.8-63.8
		S216.7,283.8,181.5,283.8z"/>
	<path class="st0" d="M487.9,402H368.4c-13.3,0-24.1-10.8-24.1-24.1v-60.6c0-13.3,10.8-24.1,24.1-24.1h119.5
		c13.3,0,24.1,10.8,24.1,24.1v60.6C512,391.1,501.2,402,487.9,402z M402.5,385.6c-21,0-38.1-17.1-38.1-38.1s17.1-38.1,38.1-38.1
		s38.1,17.1,38.1,38.1S423.5,385.6,402.5,385.6z M402.5,319.5c-15.5,0-28.1,12.6-28.1,28.1c0,15.5,12.6,28.1,28.1,28.1
		c15.5,0,28.1-12.6,28.1-28.1C430.6,332.1,418,319.5,402.5,319.5z"/>
	<path class="st0" d="M83.7,178L280,138.1c9.5,17.4,24.4,31.5,42.5,39.8H83.7z"/>
	<path class="st0" d="M361.1,176.5c-45.3,0-82.2-36.9-82.2-82.2c0-45.3,36.9-82.2,82.2-82.2c45.4,0,82.2,36.9,82.2,82.2
		C443.4,139.6,406.5,176.5,361.1,176.5z M361.1,53.5c-0.1,0-0.2,0-0.3,0c-9.7,0.2-17.6,8.1-17.6,17.9c0,9.9,8,17.9,17.9,17.9
		c15.4,0,27.9,12.5,27.9,27.9c0,13.7-9.9,25.1-22.9,27.4v4.9c0,2.8-2.2,5-5,5c-2.8,0-5-2.2-5-5v-4.9c-13-2.4-22.9-13.8-22.9-27.4
		c0-2.8,2.2-5,5-5s5,2.2,5,5c0,9.9,8,17.9,17.9,17.9s17.9-8,17.9-17.9s-8-17.9-17.9-17.9c-15.4,0-27.9-12.5-27.9-27.9
		c0-13.7,9.9-25.1,22.9-27.4V39c0-2.8,2.2-5,5-5c2.8,0,5,2.2,5,5v4.9c13,2.4,22.9,13.8,22.9,27.4c0,2.8-2.2,5-5,5c-2.8,0-5-2.2-5-5
		c0-9.8-7.9-17.7-17.6-17.9C361.4,53.5,361.3,53.5,361.1,53.5L361.1,53.5z"/>
	<path class="st0" d="M184.1,108.3c-28.5,0-51.7-23.2-51.7-51.7c0-28.5,23.2-51.7,51.7-51.7c28.5,0,51.7,23.2,51.7,51.7
		C235.8,85.1,212.6,108.3,184.1,108.3L184.1,108.3z M184.1,95c-2.8,0-5-2.2-5-5v-1.4c-8-2.2-13.8-9.5-13.8-18.2c0-2.8,2.2-5,5-5
		s5,2.2,5,5c0,4.9,4,8.8,8.8,8.8c4.9,0,8.8-4,8.8-8.8c0-4.9-4-8.8-8.8-8.8c-10.4,0-18.8-8.5-18.8-18.8c0-8.7,5.9-16,13.8-18.2v-1.4
		c0-2.8,2.2-5,5-5c2.8,0,5,2.2,5,5v1.4c8,2.2,13.8,9.5,13.8,18.2c0,2.8-2.2,5-5,5s-5-2.2-5-5c0-4.8-3.8-8.7-8.6-8.8l-0.2,0l-0.2,0
		c-4.8,0.1-8.6,4-8.6,8.8c0,4.9,4,8.8,8.8,8.8c10.4,0,18.8,8.5,18.8,18.8c0,8.7-5.9,16-13.8,18.2V90C189.1,92.7,186.9,95,184.1,95z"
		/>
</g>
</svg>
