<svg id="Layer_1" enable-background="new 0 0 512 512" height="512" viewBox="0 0 512 512" width="512" xmlns="http://www.w3.org/2000/svg"><g><path d="m160.667 288.134v50.333c36.025 0 65.333-29.309 65.333-65.333h-50.333c-8.285 0-15 6.715-15 15z"/><path d="m497 273.134h-50.333c0 36.024 29.308 65.333 65.333 65.333v-50.333c0-8.285-6.716-15-15-15z"/><path d="m241 145.481-160.666-92.761-65.333 37.72 160.666 92.762z"/><path d="m336.333 90.44-153.166-88.43c-4.641-2.68-10.359-2.68-15 0l-57.834 33.39 160.667 92.761z"/><path d="m160.667 209.182-160.667-92.761v176.862c0 5.359 2.859 10.311 7.5 12.99l123.167 71.11v-89.249c0-19.555 12.542-36.228 30-42.42z"/><path d="m351.333 116.421-65.333 37.72v35.82c-.735 19.875-29.267 19.871-30 0v-18.499l-65.333 37.72v33.952h160.667v-126.713z"/><path d="m160.667 446.667v50.333c0 8.284 6.716 15 15 15h50.333c0-36.024-29.309-65.333-65.333-65.333z"/><path d="m446.667 512h50.333c8.284 0 15-6.716 15-15v-50.333c-36.025 0-65.333 29.309-65.333 65.333z"/><path d="m416.667 273.134h-160.667c0 52.566-42.767 95.333-95.333 95.333v48.2c52.566 0 95.333 42.767 95.333 95.333h160.667c0-52.566 42.767-95.333 95.333-95.333v-48.2c-52.566 0-95.333-42.767-95.333-95.333zm-80.334 174.599c-30.419 0-55.166-24.748-55.166-55.167 2.773-73.085 107.571-73.064 110.333.001 0 30.418-24.748 55.166-55.167 55.166z"/><path d="m336.333 367.4c-13.877 0-25.166 11.289-25.166 25.166 1.265 33.342 49.073 33.332 50.333 0 0-13.877-11.29-25.166-25.167-25.166z"/></g></svg>