<?xml version="1.0" encoding="utf-8"?>
<!-- Generator: Adobe Illustrator 27.5.0, SVG Export Plug-In . SVG Version: 6.00 Build 0)  -->
<svg version="1.1" id="Layer_1" xmlns="http://www.w3.org/2000/svg" xmlns:xlink="http://www.w3.org/1999/xlink" x="0px" y="0px"
	 viewBox="0 0 3872.98 3872.98" style="enable-background:new 0 0 3872.98 3872.98;" xml:space="preserve">
<g>
	<g>
		<path style="fill-rule:evenodd;clip-rule:evenodd;fill:#5B8AE6;" d="M1821.09,1068.3c-9.92,37.86-2.99,82.66,122.33,128.23
			c48.18,17.48,154.45,65.81,190.11,160.51h395.64c7.01-36.92,10.47-74.63,10.47-112.41c0-331.49-269.61-601.18-601.1-601.18
			s-601.18,269.69-601.18,601.18c0,37.79,3.54,75.41,10.55,112.41h683.52c-36.45-44.87-102.1-70.85-118.39-76.75
			c-145-52.74-204.98-131.62-178.14-234.5c26.21-100.45,95.25-152.64,166.25-167.75v-76.59c0-24.64,19.92-44.56,44.56-44.56
			c24.56,0,44.56,19.92,44.56,44.56v76.75c82.66,18.34,164.29,89.66,159.96,211.05c-0.87,24.56-21.65,43.85-46.13,42.9
			c-24.56-0.87-43.85-21.57-42.9-46.13c2.76-79.27-51.25-115.48-98.56-122.41C1911.85,956.28,1844.31,979.19,1821.09,1068.3z"/>
		<polygon style="fill-rule:evenodd;clip-rule:evenodd;fill:#5B8AE6;" points="3187.73,2972.99 689.34,2972.99 319.76,2972.99 
			319.76,3241.18 3557.32,3241.18 3557.32,2972.99 		"/>
		<path style="fill-rule:evenodd;clip-rule:evenodd;fill:#5B8AE6;" d="M2542.63,1974.36h-1208.1
			c-105.09,0-190.66,85.49-190.66,190.66c0,105.09,85.57,190.66,190.66,190.66h1208.18c105.09,0,190.58-85.49,190.58-190.66
			C2733.21,2059.92,2647.72,1974.36,2542.63,1974.36z"/>
		<path style="fill-rule:evenodd;clip-rule:evenodd;fill:#535353;" d="M2542.63,2444.78H1334.45
			c-154.29,0-279.77-125.48-279.77-279.69c0-154.29,125.48-279.77,279.77-279.77h1208.18c154.21,0,279.69,125.48,279.69,279.77
			C2822.32,2319.22,2696.84,2444.78,2542.63,2444.78L2542.63,2444.78z M733.9,1446.15v1437.73h2409.28V1446.15h-577.17
			c-0.31,0-0.63,0-0.87,0s-0.63,0-0.87,0h-464.05c-0.31,0-0.55,0-0.87,0c-0.31,0-0.63,0-0.87,0h-785.3c-0.71,0-1.5,0-2.2,0H733.9z"
			/>
		<path style="fill-rule:evenodd;clip-rule:evenodd;fill:#535353;" d="M3232.21,1446.15v1437.73h325.11V1699.7
			c0-139.81-113.75-253.55-253.55-253.55L3232.21,1446.15L3232.21,1446.15z"/>
		<path style="fill-rule:evenodd;clip-rule:evenodd;fill:#535353;" d="M319.76,1699.7v1184.17h325.03V1446.15h-71.48
			C433.43,1446.15,319.76,1559.9,319.76,1699.7z"/>
	</g>
</g>
<g id="Master_Layer_5">
</g>
</svg>
