<svg clip-rule="evenodd" fill-rule="evenodd" height="512" image-rendering="optimizeQuality" shape-rendering="geometricPrecision" text-rendering="geometricPrecision" viewBox="0 0 512 512" width="512" xmlns="http://www.w3.org/2000/svg"><g id="Layer_x0020_1"><g id="_507637024"><path d="m271 412h-91c-10-39-45-68-87-68-17 0-32 4-45 12v-302c0-9 8-17 17-17h39c-1 3-2 7-2 10v33c0 9 7 16 16 16h154c9 0 16-7 16-16v-33c0-3-1-7-2-10h38c10 0 18 8 18 17v264h-52c-10 0-19 8-19 19zm-138-90h-47c-4 0-6-2-6-6v-46c0-4 2-6 6-6h47c3 0 6 2 6 6v46c0 4-3 6-6 6zm-41-12h35v-34h-35zm41-62h-47c-4 0-6-3-6-6v-47c0-4 2-6 6-6h47c3 0 6 2 6 6v47c0 3-3 6-6 6zm-41-12h35v-35h-35zm212-22h-128c-3 0-6-3-6-6 0-4 3-6 6-6h128c3 0 6 2 6 6 0 3-3 6-6 6zm0 21h-98c-3 0-6-3-6-6 0-4 3-6 6-6h98c3 0 6 2 6 6 0 3-3 6-6 6zm-20 53h-108c-3 0-6-2-6-6 0-3 3-6 6-6h108c3 0 6 3 6 6 0 4-3 6-6 6zm0 22h-78c-3 0-6-3-6-6 0-4 3-6 6-6h78c3 0 6 2 6 6 0 3-3 6-6 6zm-151-137h-47c-4 0-6-3-6-6v-47c0-4 2-6 6-6h47c3 0 6 2 6 6v47c0 3-3 6-6 6zm-41-12h35v-35h-35zm212-22h-128c-3 0-6-3-6-6 0-4 3-6 6-6h128c3 0 6 2 6 6 0 3-3 6-6 6zm0 21h-98c-3 0-6-3-6-6 0-4 3-6 6-6h98c3 0 6 2 6 6 0 3-3 6-6 6z"/><path d="m272 86h-154c-3 0-6-3-6-6v-33c0-12 10-22 23-22h120c13 0 23 10 23 22v33c0 3-3 6-6 6z"/><path d="m236 37h-82c-3 0-6-3-6-6v-25c0-3 3-6 6-6h82c3 0 6 3 6 6v25c0 3-3 6-6 6z"/><path d="m409 387h-38c-5 0-8-3-8-7v-46c0-4 3-6 6-6h42c3 0 6 2 6 6v46c0 4-4 7-8 7z"/><path d="m489 495h-199c-5 0-9-4-9-9v-149c0-5 4-9 9-9h64c-1 2-1 4-1 6v46c0 9 8 17 18 17h38c10 0 18-8 18-17v-46c0-2-1-4-1-6h63c5 0 9 4 9 9v149c0 5-4 9-9 9zm-20-29h-75c-3 0-6-3-6-6 0-4 3-6 6-6h75c3 0 6 2 6 6 0 3-3 6-6 6zm0-20h-58c-3 0-6-3-6-6 0-4 3-6 6-6h58c3 0 6 2 6 6 0 3-3 6-6 6z"/><path d="m93 512c-44 0-79-36-79-79 0-44 35-79 79-79s79 35 79 79c0 43-35 79-79 79zm-10-54c-2 0-3 0-4-2l-19-18c-2-3-2-6 0-9 2-2 6-2 8 0l15 15 34-35c3-2 6-2 9 0 2 2 2 6 0 9l-39 38c-1 2-3 2-4 2z"/></g></g></svg>