<?xml version="1.0"?>
<svg xmlns="http://www.w3.org/2000/svg" viewBox="0 0 64 64" width="512" height="512"><g id="Clipboard-Profit-Target-Money-Business"><path d="M22.051,37A10.015,10.015,0,0,0,31,45.949V45h2v.949A10.015,10.015,0,0,0,41.949,37H40V35h1.949A10.015,10.015,0,0,0,33,26.051V27H31v-.949A10.015,10.015,0,0,0,22.051,35H24v2ZM33,37H31a3,3,0,0,1,0-6V29h2v2a3,3,0,0,1,3,3H34a1,1,0,0,0-1-1H31a1,1,0,0,0,0,2h2a3,3,0,0,1,0,6v2H31V41a3,3,0,0,1-3-3h2a1,1,0,0,0,1,1h2a1,1,0,0,0,0-2Z"/><path d="M43,10a2,2,0,0,0-2-2H36a1,1,0,0,1-1-1V5a1,1,0,0,0-1-1H30a1,1,0,0,0-1,1V7a1,1,0,0,1-1,1H23a2,2,0,0,0-2,2v4H43ZM33,8H31V6h2Z"/><path d="M52,13a3,3,0,0,0-3-3H45v2h4a1,1,0,0,1,1,1V57a1,1,0,0,1-1,1H15a1,1,0,0,1-1-1V13a1,1,0,0,1,1-1h4V10H15a3,3,0,0,0-3,3V57a3,3,0,0,0,3,3H49a3,3,0,0,0,3-3Z"/><path d="M19,15V14H16V56H48V14H45v1a1,1,0,0,1-1,1H20A1,1,0,0,1,19,15Zm12,9.051V22h2v2.051A12.006,12.006,0,0,1,43.949,35H46v2H43.949A12.006,12.006,0,0,1,33,47.949V50H31V47.949A12.006,12.006,0,0,1,20.051,37H18V35h2.051A12.006,12.006,0,0,1,31,24.051Z"/></g></svg>
