<svg id="Solid" height="512" viewBox="0 0 64 64" width="512" xmlns="http://www.w3.org/2000/svg"><g><path d="m32 27a4 4 0 0 0 -4 4v3h8v-3a4 4 0 0 0 -4-4zm22-6h-3v-18a3.009 3.009 0 0 0 -3-3h-32a3.009 3.009 0 0 0 -3 3v18h-3a3.009 3.009 0 0 0 -3 3v27a3.009 3.009 0 0 0 3 3h3v7a3.009 3.009 0 0 0 3 3h32a3.009 3.009 0 0 0 3-3v-7h3a3.009 3.009 0 0 0 3-3v-27a3.009 3.009 0 0 0 -3-3zm-37-16a1 1 0 0 1 1-1h28a1 1 0 0 1 1 1v16h-2v-15h-26v15h-2zm23 32v10a3.009 3.009 0 0 1 -3 3h-10a3.009 3.009 0 0 1 -3-3v-10a3 3 0 0 1 2-2.82v-3.18a6 6 0 0 1 12 0v3.18a3 3 0 0 1 2 2.82zm-1.38-16-5.17-5.32a3.445 3.445 0 0 1 -2.9 0l-5.17 5.32h-2.81l6.47-6.64a3.5 3.5 0 1 1 5.92 0l6.47 6.64zm-27.62 5a1 1 0 0 1 1-1h5a1 1 0 0 1 1 1v5a1 1 0 0 1 -1 1h-5a1 1 0 0 1 -1-1zm0 9a1 1 0 0 1 1-1h5a1 1 0 0 1 1 1v5a1 1 0 0 1 -1 1h-5a1 1 0 0 1 -1-1zm1 15a1 1 0 0 1 -1-1v-5a1 1 0 0 1 1-1h5a1 1 0 0 1 1 1v5a1 1 0 0 1 -1 1zm35 9a1 1 0 0 1 -1 1h-28a1 1 0 0 1 -1-1v-5h2v4h26v-4h2zm6-10a1 1 0 0 1 -1 1h-5a1 1 0 0 1 -1-1v-5a1 1 0 0 1 1-1h5a1 1 0 0 1 1 1zm0-9a1 1 0 0 1 -1 1h-5a1 1 0 0 1 -1-1v-5a1 1 0 0 1 1-1h5a1 1 0 0 1 1 1zm0-9a1 1 0 0 1 -1 1h-5a1 1 0 0 1 -1-1v-5a1 1 0 0 1 1-1h5a1 1 0 0 1 1 1zm-21-4a4 4 0 0 0 -4 4v3h8v-3a4 4 0 0 0 -4-4z"/><path d="m37 36h-10a1 1 0 0 0 -1 1v10a1 1 0 0 0 1 1h10a1 1 0 0 0 1-1v-10a1 1 0 0 0 -1-1zm-4 7.82v1.18a1 1 0 0 1 -2 0v-1.18a3 3 0 1 1 2 0z"/><circle cx="32" cy="41" r="1"/><path d="m31.09 13.69a1.491 1.491 0 0 0 1.82 0 1.478 1.478 0 0 0 .59-1.19 1.5 1.5 0 0 0 -3 0 1.478 1.478 0 0 0 .59 1.19z"/><path d="m13 27h3v3h-3z"/><path d="m13 36h3v3h-3z"/><path d="m13 45h3v3h-3z"/><path d="m48 27h3v3h-3z"/><path d="m48 36h3v3h-3z"/><path d="m48 45h3v3h-3z"/></g></svg>