<?xml version="1.0" encoding="utf-8"?>
<!-- Generator: Adobe Illustrator 27.5.0, SVG Export Plug-In . SVG Version: 6.00 Build 0)  -->
<svg version="1.1" id="Layer_26" xmlns="http://www.w3.org/2000/svg" xmlns:xlink="http://www.w3.org/1999/xlink" x="0px" y="0px"
	 viewBox="0 0 3000 2000" style="enable-background:new 0 0 3000 2000;" xml:space="preserve">
<g>
	<g>
		<g>
			<g>
				<rect style="fill:#FEFEFE;" width="3000" height="2000"/>
			</g>
		</g>
		<g>
			<path style="fill:#3E5670;" d="M2728.87,1778.032H271.13c-4.152,0-7.517-3.366-7.517-7.517l0,0c0-4.152,3.365-7.517,7.517-7.517
				h2457.74c4.151,0,7.517,3.365,7.517,7.517l0,0C2736.387,1774.667,2733.021,1778.032,2728.87,1778.032z"/>
		</g>
	</g>
	<g>
		<g>
			<g>
				<g>
					<path style="fill:#4FAFF7;" d="M1536.753,205.216c-1.279-14.049-13.06-24.805-27.167-24.805h-19.172
						c-14.107,0-25.887,10.756-27.167,24.805l-4.024,44.182h81.553L1536.753,205.216z"/>
				</g>
				<g>
					<path style="fill:#4FAFF7;" d="M1414.765,220.969c-9.293-10.614-25.146-12.392-36.559-4.099l-15.51,11.269
						c-11.413,8.292-14.621,23.918-7.398,36.036l22.714,38.109l65.978-47.935L1414.765,220.969z"/>
				</g>
				<g>
					<path style="fill:#4FAFF7;" d="M1325.333,305.416c-13.757-3.125-27.627,4.755-31.986,18.172l-5.924,18.233
						c-4.359,13.417,2.23,27.944,15.196,33.503l40.776,17.48l25.201-77.561L1325.333,305.416z"/>
				</g>
				<g>
					<path style="fill:#4FAFF7;" d="M1302.619,426.302c-12.966,5.558-19.556,20.086-15.196,33.503l5.924,18.233
						c4.359,13.417,18.229,21.297,31.986,18.172l43.263-9.826l-25.201-77.561L1302.619,426.302z"/>
				</g>
				<g>
					<path style="fill:#4FAFF7;" d="M1355.297,537.451c-7.223,12.118-4.015,27.744,7.398,36.036l15.51,11.269
						c11.413,8.292,27.266,6.514,36.559-4.1l29.225-33.379l-65.978-47.935L1355.297,537.451z"/>
				</g>
				<g>
					<path style="fill:#4FAFF7;" d="M1463.247,596.41c1.279,14.049,13.06,24.805,27.167,24.805h19.172
						c14.107,0,25.887-10.756,27.167-24.805l4.024-44.182h-81.553L1463.247,596.41z"/>
				</g>
				<g>
					<path style="fill:#4FAFF7;" d="M1585.235,580.657c9.293,10.614,25.146,12.392,36.559,4.1l15.51-11.269
						c11.413-8.292,14.621-23.918,7.398-36.036l-22.714-38.109l-65.978,47.935L1585.235,580.657z"/>
				</g>
				<g>
					<path style="fill:#4FAFF7;" d="M1674.667,496.21c13.757,3.125,27.627-4.755,31.986-18.172l5.924-18.233
						c4.359-13.417-2.23-27.944-15.196-33.502l-40.776-17.48l-25.201,77.561L1674.667,496.21z"/>
				</g>
				<g>
					<path style="fill:#4FAFF7;" d="M1697.381,375.324c12.966-5.558,19.556-20.086,15.196-33.503l-5.924-18.233
						c-4.359-13.417-18.229-21.296-31.986-18.172l-43.263,9.826l25.201,77.561L1697.381,375.324z"/>
				</g>
				<g>
					<path style="fill:#4FAFF7;" d="M1644.703,264.174c7.223-12.118,4.015-27.744-7.398-36.036l-15.51-11.269
						c-11.413-8.292-27.266-6.514-36.559,4.1l-29.225,33.379l65.978,47.935L1644.703,264.174z"/>
				</g>
			</g>
			<g>
				<circle style="fill:#4FAFF7;" cx="1500" cy="400.813" r="171.823"/>
			</g>
			<g>
				
					<ellipse transform="matrix(0.7071 -0.7071 0.7071 0.7071 155.9223 1178.0555)" style="fill:#4FAFF7;" cx="1500" cy="400.813" rx="136.894" ry="136.894"/>
			</g>
			<g>
				
					<ellipse transform="matrix(0.7071 -0.7071 0.7071 0.7071 155.9222 1178.0555)" style="fill:#E2EAF5;" cx="1500" cy="400.813" rx="111.05" ry="111.05"/>
			</g>
			<g>
				
					<ellipse transform="matrix(0.7071 -0.7071 0.7071 0.7071 155.9223 1178.0555)" style="fill:#FFFFFF;" cx="1500" cy="400.813" rx="86.821" ry="86.821"/>
			</g>
		</g>
		<g>
			<g>
				<g>
					<path style="fill:#0267C1;" d="M2342.297,400.813H657.703c-16.569,0-30,13.431-30,30v922.906c0,16.569,13.431,30,30,30
						h1684.593c16.569,0,30-13.431,30-30V430.813C2372.297,414.244,2358.865,400.813,2342.297,400.813z"/>
				</g>
				<g>
					<rect x="647.703" y="495.461" style="fill:#FFFFFF;" width="1704.593" height="868.258"/>
				</g>
				<g>
					<g>
						
							<ellipse transform="matrix(0.9239 -0.3827 0.3827 0.9239 -115.1878 313.3759)" style="fill:#FECE00;" cx="730.129" cy="446.232" rx="16.556" ry="16.556"/>
					</g>
					<g>
						
							<ellipse transform="matrix(0.2298 -0.9732 0.9732 0.2298 181.6622 1122.0035)" style="fill:#FECE00;" cx="799.688" cy="446.232" rx="16.556" ry="16.556"/>
					</g>
					<g>
						
							<ellipse transform="matrix(0.9239 -0.3827 0.3827 0.9239 -104.8122 365.5376)" style="fill:#FECE00;" cx="866.434" cy="446.232" rx="16.556" ry="16.556"/>
					</g>
				</g>
			</g>
			<g>
				<g>
					<rect x="916.927" y="749.39" style="fill:#3E5670;" width="1236.259" height="2"/>
				</g>
				<g>
					<polygon style="fill:#3E5670;" points="1476.712,964.049 1162.08,964.049 1162.08,962.049 1474.712,962.049 1474.712,749.556 
						1476.712,749.556 					"/>
				</g>
				<g>
					<rect x="1501.434" y="1097.698" style="fill:#3E5670;" width="602.536" height="2"/>
				</g>
			</g>
			<g>
				<g>
					<g>
						<g>
							<polygon style="fill:#3BB273;" points="919.927,637.449 733.754,637.449 733.754,861.523 919.927,861.523 919.927,637.449 
															"/>
						</g>
						<g>
							<rect x="733.754" y="580.431" style="fill:#3BB273;" width="186.173" height="60.648"/>
						</g>
						<rect x="736.754" y="640.449" style="fill:#FFFFFF;" width="180.173" height="218.073"/>
					</g>
					<g>
						<g>
							<rect x="766.766" y="710.108" style="fill:#4FAFF7;" width="52.838" height="9.22"/>
						</g>
						<g>
							<rect x="766.766" y="741.136" style="fill:#4FAFF7;" width="126.907" height="9.22"/>
						</g>
						<g>
							<rect x="766.766" y="772.165" style="fill:#4FAFF7;" width="127.949" height="9.22"/>
						</g>
						<g>
							<rect x="766.766" y="803.193" style="fill:#4FAFF7;" width="74.892" height="9.22"/>
						</g>
					</g>
				</g>
				<g>
					<g>
						<g>
							<polygon style="fill:#3BB273;" points="1201.626,637.449 1015.453,637.449 1015.453,861.523 1201.626,861.523 
								1201.626,637.449 							"/>
						</g>
						<g>
							<rect x="1015.453" y="580.431" style="fill:#3BB273;" width="186.173" height="60.648"/>
						</g>
						<rect x="1018.453" y="640.449" style="fill:#FFFFFF;" width="180.173" height="218.073"/>
					</g>
					<g>
						<g>
							<rect x="1048.464" y="710.108" style="fill:#4FAFF7;" width="52.838" height="9.22"/>
						</g>
						<g>
							<rect x="1048.464" y="741.136" style="fill:#4FAFF7;" width="126.907" height="9.22"/>
						</g>
						<g>
							<rect x="1048.464" y="772.165" style="fill:#4FAFF7;" width="127.949" height="9.22"/>
						</g>
						<g>
							<rect x="1048.464" y="803.193" style="fill:#4FAFF7;" width="74.892" height="9.22"/>
						</g>
					</g>
				</g>
				<g>
					<g>
						<g>
							<polygon style="fill:#4FAFF7;" points="1933.712,637.449 1747.538,637.449 1747.538,861.523 1933.712,861.523 
								1933.712,637.449 							"/>
						</g>
						<g>
							<rect x="1747.538" y="580.431" style="fill:#4FAFF7;" width="186.173" height="60.648"/>
						</g>
						<rect x="1750.538" y="640.449" style="fill:#FFFFFF;" width="180.173" height="218.073"/>
					</g>
					<g>
						<g>
							<rect x="1780.55" y="710.108" style="fill:#4FAFF7;" width="52.838" height="9.22"/>
						</g>
						<g>
							<rect x="1780.55" y="741.136" style="fill:#4FAFF7;" width="126.907" height="9.22"/>
						</g>
						<g>
							<rect x="1780.55" y="772.165" style="fill:#4FAFF7;" width="127.949" height="9.22"/>
						</g>
						<g>
							<rect x="1780.55" y="803.193" style="fill:#4FAFF7;" width="74.892" height="9.22"/>
						</g>
					</g>
				</g>
				<g>
					<g>
						<g>
							<polygon style="fill:#3BB273;" points="2244.515,637.449 2058.342,637.449 2058.342,861.523 2244.515,861.523 
								2244.515,637.449 							"/>
						</g>
						<g>
							<rect x="2058.342" y="580.431" style="fill:#3BB273;" width="186.173" height="60.648"/>
						</g>
						<rect x="2061.342" y="640.449" style="fill:#FFFFFF;" width="180.173" height="218.073"/>
					</g>
					<g>
						<g>
							<rect x="2091.353" y="710.108" style="fill:#4FAFF7;" width="52.838" height="9.22"/>
						</g>
						<g>
							<rect x="2091.353" y="741.136" style="fill:#4FAFF7;" width="126.907" height="9.22"/>
						</g>
						<g>
							<rect x="2091.353" y="772.165" style="fill:#4FAFF7;" width="127.949" height="9.22"/>
						</g>
						<g>
							<rect x="2091.353" y="803.193" style="fill:#4FAFF7;" width="74.892" height="9.22"/>
						</g>
					</g>
				</g>
				<g>
					<g>
						<g>
							<polygon style="fill:#FECE00;" points="1933.712,988.07 1747.538,988.07 1747.538,1212.144 1933.712,1212.144 
								1933.712,988.07 							"/>
						</g>
						<g>
							<rect x="1747.538" y="931.052" style="fill:#FECE00;" width="186.173" height="60.648"/>
						</g>
						<rect x="1750.538" y="991.07" style="fill:#FFFFFF;" width="180.173" height="218.073"/>
					</g>
					<g>
						<g>
							<rect x="1780.55" y="1060.729" style="fill:#4FAFF7;" width="52.838" height="9.22"/>
						</g>
						<g>
							<rect x="1780.55" y="1091.757" style="fill:#4FAFF7;" width="126.907" height="9.22"/>
						</g>
						<g>
							<rect x="1780.55" y="1122.786" style="fill:#4FAFF7;" width="127.949" height="9.22"/>
						</g>
						<g>
							<rect x="1780.55" y="1153.814" style="fill:#4FAFF7;" width="74.892" height="9.22"/>
						</g>
					</g>
				</g>
				<g>
					<g>
						<g>
							<polygon style="fill:#4FAFF7;" points="2244.515,988.07 2058.342,988.07 2058.342,1212.144 2244.515,1212.144 
								2244.515,988.07 							"/>
						</g>
						<g>
							<rect x="2058.342" y="931.052" style="fill:#4FAFF7;" width="186.173" height="60.648"/>
						</g>
						<rect x="2061.342" y="991.07" style="fill:#FFFFFF;" width="180.173" height="218.073"/>
					</g>
					<g>
						<g>
							<rect x="2091.353" y="1060.729" style="fill:#4FAFF7;" width="52.838" height="9.22"/>
						</g>
						<g>
							<rect x="2091.353" y="1091.757" style="fill:#4FAFF7;" width="126.907" height="9.22"/>
						</g>
						<g>
							<rect x="2091.353" y="1122.786" style="fill:#4FAFF7;" width="127.949" height="9.22"/>
						</g>
						<g>
							<rect x="2091.353" y="1153.814" style="fill:#4FAFF7;" width="74.892" height="9.22"/>
						</g>
					</g>
				</g>
				<g>
					<g>
						<g>
							<polygon style="fill:#3BB273;" points="1579.704,988.07 1393.531,988.07 1393.531,1212.144 1579.704,1212.144 
								1579.704,988.07 							"/>
						</g>
						<g>
							<rect x="1393.531" y="931.052" style="fill:#3BB273;" width="186.173" height="60.648"/>
						</g>
						<rect x="1396.531" y="991.07" style="fill:#FFFFFF;" width="180.173" height="218.073"/>
					</g>
					<g>
						<g>
							<rect x="1426.542" y="1060.729" style="fill:#4FAFF7;" width="52.838" height="9.22"/>
						</g>
						<g>
							<rect x="1426.542" y="1091.757" style="fill:#4FAFF7;" width="126.907" height="9.22"/>
						</g>
						<g>
							<rect x="1426.542" y="1122.786" style="fill:#4FAFF7;" width="127.949" height="9.22"/>
						</g>
						<g>
							<rect x="1426.542" y="1153.814" style="fill:#4FAFF7;" width="74.892" height="9.22"/>
						</g>
					</g>
				</g>
				<g>
					<g>
						<g>
							<rect x="1015.453" y="931.052" style="fill:#3BB273;" width="186.173" height="60.648"/>
						</g>
						<path style="fill:#3BB273;" d="M1015.453,988.07v224.073h186.173V988.07H1015.453z M1198.626,1209.144h-180.173V991.07
							h180.173V1209.144z"/>
					</g>
					<g>
						<g>
							<rect x="1048.464" y="1060.729" style="fill:#4FAFF7;" width="52.838" height="9.22"/>
						</g>
						<g>
							<rect x="1048.464" y="1091.757" style="fill:#4FAFF7;" width="126.907" height="9.22"/>
						</g>
						<g>
							<rect x="1048.464" y="1122.786" style="fill:#4FAFF7;" width="127.949" height="9.22"/>
						</g>
						<g>
							<rect x="1048.464" y="1153.814" style="fill:#4FAFF7;" width="74.892" height="9.22"/>
						</g>
					</g>
				</g>
				<g>
					<g>
						<path style="fill:#0267C1;" d="M1392.558,774.195c2.023,7.218,5.043,14.218,9.008,20.81l-20.472,27.348l26.023,25.195
							l26.712-21.314c6.705,3.743,13.778,6.509,21.078,8.329l4.887,33.8l36.21-0.564l3.797-33.971
							c7.206-2.049,14.217-5.043,20.809-9.009l27.337,20.447l25.207-25.997l-21.314-26.712c3.743-6.706,6.509-13.778,8.329-21.078
							l33.8-4.887l-0.565-36.21l-33.971-3.797c-2.023-7.218-5.043-14.218-9.009-20.81l20.472-27.348l-26.023-25.195l-26.686,21.302
							c-6.731-3.732-13.805-6.498-21.105-8.318l-4.887-33.8l-36.21,0.564l-3.808,33.946c-7.207,2.049-14.206,5.069-20.798,9.035
							l-27.348-20.472l-25.195,26.023l21.302,26.686c-3.732,6.731-6.498,13.804-8.318,21.104l-33.8,4.887l0.565,36.21
							L1392.558,774.195z"/>
					</g>
					<g>
						<path style="fill:#FFFFFF;" d="M1455.751,703.428c25.926-11.186,56.008,0.76,67.195,26.687
							c11.199,25.955-0.748,56.038-26.674,67.224c-25.955,11.199-56.037-0.748-67.236-26.704
							C1417.849,744.709,1429.796,714.627,1455.751,703.428z"/>
					</g>
				</g>
			</g>
		</g>
		<g>
			<g>
				<path style="fill:#27191C;" d="M514.239,1000.229c-0.073,0.156-0.145,0.305-0.224,0.454c-0.105,0.22-0.216,0.44-0.336,0.651
					c-0.104,0.206-0.215,0.403-0.325,0.594c-0.103,0.184-0.206,0.36-0.308,0.537c-0.055,0.099-0.111,0.191-0.165,0.275
					c-0.087,0.148-0.173,0.289-0.267,0.43c-0.142,0.233-0.29,0.458-0.446,0.69c-0.179,0.267-0.366,0.534-0.553,0.801
					c-0.023,0.035-0.047,0.063-0.07,0.098c-0.155,0.21-0.31,0.421-0.465,0.624c-0.155,0.203-0.309,0.399-0.463,0.587
					c-0.154,0.196-0.309,0.392-0.477,0.58c-0.4,0.474-0.82,0.941-1.255,1.392c-0.199,0.216-0.405,0.423-0.617,0.631l-0.023,0.021
					c-0.19,0.187-0.38,0.374-0.577,0.553c-1.57,1.464-3.307,2.76-5.165,3.863c-0.559,0.329-1.133,0.643-1.712,0.935
					c-0.609,0.305-1.225,0.595-1.861,0.863c-0.318,0.13-0.651,0.267-0.976,0.389l0,0.007l1.051,13.128l0.227,2.891
					c2.903-0.038,5.372,0.691,8.499,0.672c0.782-0.899,2.102-2.596,2.822-3.57c5.383-7.254,8.79-16.161,5.901-23.072
					C515.652,1003.327,514.91,1001.675,514.239,1000.229z"/>
			</g>
			<g>
				<g>
					<path style="fill:#FEC5A4;" d="M552.628,1705.593c-8.08-14.346,1.767-89.14,10.106-142.238
						c5.733-36.499,1.845-73.859-11.259-108.404l-22.588-59.551l-71.89,8.609l43.48,123.219l0.464,157.446l2.869,24.546
						l55.337,45.143l28.397,0.728l0.811-14.227C588.356,1740.864,563.757,1725.352,552.628,1705.593z"/>
				</g>
				<g>
					<path style="fill:#FEC5A4;" d="M424.299,1699.413c-14.87-31.828,55.569-295.403,55.569-295.403h-90.659l-7.272,104.003
						l-12.353,176.662l2.869,24.546l55.337,45.143l28.397,0.728l0.811-14.227C456.998,1740.864,433.898,1719.958,424.299,1699.413z"
						/>
				</g>
				<g>
					<path style="fill:#27191C;" d="M361.902,1760.143c-0.009,0.754,0.276,1.47,0.809,2.003c0.524,0.542,1.241,0.836,1.994,0.836
						h7.461c1.525,0,2.784-1.25,2.803-2.775l0.358-35.625c0.009-0.919,0.579-1.7,1.443-2.003c0.809-0.276,1.672-0.055,2.242,0.561
						c0.046,0.037,0.083,0.083,0.12,0.129c0.211,0.257,0.423,0.524,0.652,0.79c4.925,5.945,13.223,13.572,21.649,19.912
						c0.174,0.138,0.358,0.266,0.533,0.395c11.697,8.729,23.027,14.629,31.95,16.641c15.208,3.409,24.314,1.764,29.285-0.211
						c5.817-2.316,12.138-6.515,12.249-10.282c0.055-1.737-1.323-3.28-4.098-4.576c-2.555-1.204-10.439-3.786-14.234-5.026
						l-0.119-0.046c-1.048,3.584-3.547,6.873-6.818,8.941c-3.152,1.994-6.791,2.665-10.237,1.884
						c-3.363-0.753-9.492-3.4-16.806-7.663c-6.965-4.052-15.005-9.584-22.752-16.365c-1.001-0.882-1.893-1.691-2.729-2.463
						c-13.361-12.35-22.402-25.563-26.878-39.282c-0.138-0.441-0.395-0.754-0.68-0.965c-0.165-0.129-0.34-0.211-0.514-0.276
						c-0.211-0.073-0.423-0.11-0.625-0.12h-0.055c-0.652,0-1.461,0.322-1.819,1.24c-1.939,4.907-4.3,13.425-4.604,26.124
						L361.902,1760.143z"/>
				</g>
				<g>
					<path style="fill:#27191C;" d="M493.26,1760.143c-0.009,0.754,0.276,1.47,0.809,2.003c0.524,0.542,1.241,0.836,1.994,0.836
						h7.461c1.525,0,2.784-1.25,2.803-2.775l0.359-35.625c0.009-0.919,0.579-1.7,1.443-2.003c0.809-0.276,1.672-0.055,2.242,0.561
						c0.046,0.037,0.083,0.083,0.12,0.129c0.211,0.257,0.423,0.524,0.652,0.79c4.925,5.945,13.223,13.572,21.649,19.912
						c0.174,0.138,0.358,0.266,0.533,0.395c11.697,8.729,23.027,14.629,31.95,16.641c15.208,3.409,24.314,1.764,29.285-0.211
						c5.817-2.316,12.138-6.515,12.249-10.282c0.055-1.737-1.323-3.28-4.098-4.576c-2.555-1.204-10.439-3.786-14.234-5.026
						l-0.119-0.046c-1.048,3.584-3.547,6.873-6.818,8.941c-3.152,1.994-6.791,2.665-10.237,1.884
						c-3.363-0.753-9.492-3.4-16.807-7.663c-6.965-4.052-15.005-9.584-22.752-16.365c-1.001-0.882-1.893-1.691-2.729-2.463
						c-13.361-12.35-22.402-25.563-26.877-39.282c-0.138-0.441-0.395-0.754-0.68-0.965c-0.165-0.129-0.34-0.211-0.514-0.276
						c-0.212-0.073-0.423-0.11-0.625-0.12h-0.055c-0.652,0-1.461,0.322-1.819,1.24c-1.939,4.907-4.3,13.425-4.604,26.124
						L493.26,1760.143z"/>
				</g>
				<g>
					<path style="fill:#2F4154;" d="M559.744,1271.918c2.122,16.569,3.608,32.726,4.556,48.443c0.02,0.308,0.04,0.616,0.05,0.919
						c0.932,15.657,1.315,30.869,1.255,45.632c0.001,0.708-0.008,1.409-0.01,2.109c-0.239,35.178,4.985,67.752,0.882,97.418
						c-0.056,9.053-7.606,16.249-16.642,15.875l-175.289-6.869c-9.367-0.38-16.399-8.715-15.198-18.017
						c4.263-13.541,7.807-26.121,10.743-37.9c4.654-18.665,7.79-35.323,9.879-50.608c0.197-1.453,0.389-2.897,0.57-4.321
						c2.128-16.848,3.01-32.045,3.302-46.493c0.358-16.911-0.095-32.787-0.269-49.053L559.744,1271.918z"/>
				</g>
			</g>
			<g>
				<polygon style="fill:#FFFFFF;" points="500.359,1029.691 530.151,1081.553 527.27,1277.082 452.993,1265.396 452.396,1042.328 
					467.145,1024.377 				"/>
			</g>
			<g>
				<path style="fill:#3BB273;" d="M500.359,1029.691c0,0,88.282,21.644,60.81,157.82c-5.882,29.158,7.882,99.021,14.626,133.663
					c1.639,8.419-2.989,16.802-10.966,19.952l-32.355,16.798c-5.956,2.352-12.175-2.095-12.29-8.498
					C518.56,1259.045,527.916,1135.798,500.359,1029.691z"/>
			</g>
			<g>
				<path style="fill:#3BB273;" d="M485.32,1226.167c0.005,5.773-0.015,11.551-0.06,17.338
					c-0.214,33.719-10.468,67.244-11.899,102.005c-0.478,11.675-12.288,19.427-23.191,15.234l-76.754-12.381
					c-7.543-2.901-11.8-10.877-10.055-18.764c4.018-18.151,15.901-47.774,16.997-73.637c0.419-9.975,0.718-20.359,0.957-31.027
					c0.703-31.351,0.922-65.12,2.433-98.067l83.391-102.493C483.776,1092.631,485.3,1159.726,485.32,1226.167z"/>
			</g>
			<g>
				<path style="fill:#2C8556;" d="M530.859,1226.167l-0.513,9.521l-54.462,7.363l-95.524,12.911
					c0.419-9.975,0.718-20.359,0.957-31.027l94.627,0.778L530.859,1226.167z"/>
			</g>
			<g>
				<g>
					<path style="fill:#3BB273;" d="M676.023,1196.701l-20.964,20.196c-18.258-6.083-64.58-23.191-75.827-34.044l-58.228-80.567
						l-20.645-72.595c0,0,37.612,4.183,66.356,40.684c24.294,30.85,35.079,56.974,47.419,79.533
						C615.225,1151.902,658.887,1180.077,676.023,1196.701z"/>
				</g>
				<g>
					<g>
						<g>
							<g>
								<path style="fill:#2F4154;" d="M621.61,1215.38l-106.023-9.556c-1.1-0.099-1.912-1.071-1.812-2.172l0.98-10.869
									c0.099-1.1,1.071-1.912,2.172-1.812l106.023,9.556c1.1,0.099,1.912,1.071,1.812,2.171l-0.98,10.87
									C623.683,1214.668,622.711,1215.479,621.61,1215.38z"/>
							</g>
						</g>
						<g>
							<g>
								<path style="fill:#3E5670;" d="M762.323,1098.021l-24.019,96.71l-5.92,23.826c-0.948,3.828-4.549,6.394-8.482,6.044
									l-115.879-10.445c-4.888-0.446-8.229-5.138-7.049-9.899l18.404-74.079l11.536-46.457c0.948-3.828,4.549-6.394,8.482-6.033
									l115.879,10.445C760.161,1088.567,763.503,1093.26,762.323,1098.021z"/>
							</g>
						</g>
						<g style="opacity:0.5;">
							<g>
								<path style="fill:#2F4154;" d="M738.303,1194.731l-5.92,23.826c-0.948,3.828-4.549,6.394-8.482,6.044l-115.879-10.445
									c-4.888-0.446-8.229-5.138-7.049-9.899l18.404-74.079c0.367,0.168,0.723,0.389,1.08,0.641
									c3.533,2.511,2.717,9.517,3.143,13.325c0.676,5.969,1.466,11.939,2.383,17.887c1.208,7.774,2.637,15.59,5.651,22.853
									c3.013,7.262,7.758,14.022,14.404,18.225c9.183,5.821,20.899,6.127,31.591,4.114c10.691-2.013,20.881-6.135,31.478-8.589
									c9.569-2.235,19.399-3.095,29.186-3.903L738.303,1194.731z"/>
							</g>
						</g>
						<g>
							
								<ellipse transform="matrix(0.1743 -0.9847 0.9847 0.1743 -563.5201 1623.189)" style="fill:#FFFFFF;" cx="686.067" cy="1147.594" rx="16.283" ry="13.617"/>
						</g>
					</g>
					<g>
						<g>
							<path style="fill:#FEC5A4;" d="M526.484,1207.301c10.323-3.74,15.532-7.514,22.47-12.013
								c2.025-1.313,5.217-3.505,7.483-1.449c1.665,1.511,1.086,4.13,0.487,6.001c-0.588,1.836-3.423,5.648,0.21,5.999
								c5.95,0.574,11.868,0.864,17.801,1.804c7.155,1.131,13.898,4.721,18.831,10.026c1.967,2.115,3.688,4.571,4.333,7.386
								s0.042,6.038-2.064,8.014c-4.039,3.79-10.502,1.344-15.646-0.71c-15.505-6.194-28.294,1.515-59.267-7.815
								C517.585,1218.534,527.226,1214.235,526.484,1207.301z"/>
						</g>
					</g>
				</g>
				<g>
					<path style="fill:#FEC5A4;" d="M683.157,1210.472c6.091-0.281,12.355,1.371,16.628,5.493c1.242,1.198,2.161,2.7,2.437,4.392
						c0.683,4.19-2.73,6.615-6.014,8.237c-6.349,3.136-13.891,4.72-20.44,2.459c-4.728-1.632-11.931-8.19-9.85-13.882
						C667.825,1211.956,678.363,1210.693,683.157,1210.472z"/>
				</g>
			</g>
			<g>
				<path style="fill:#3BB273;" d="M460.816,1079.365l-36.504,111.467c-1.426,4.353,0.464,9.104,4.491,11.288l95.784-2.702
					c1.42-0.04,2.587,1.114,2.562,2.535l-0.497,28.803c-0.021,1.242-0.954,2.279-2.187,2.431l-111.307,13.73
					c-22.896,2.824-45.195-9.558-54.287-30.761c-2.613-6.093-4.025-12.609-3.867-19.241c0.173-7.282,0.704-13.739,1.495-17.697
					c5.828-29.182,20.199-66.714,25.822-84.646c9.259-29.528,39.961-59.832,84.823-70.196L460.816,1079.365z"/>
			</g>
			<g>
				<path style="fill:#2C8556;" d="M452.386,1087.486c0,0-4.889,53.26-28.82,108.245c0,0-28.438,4.522-41.734,16.443
					c0,0,39.472-13.889,88.886-11.22l-27.091-3.583C443.628,1197.37,458.047,1130.711,452.386,1087.486z"/>
			</g>
			<g>
				<path style="fill:#FEC5A4;" d="M468.115,972.525l-0.97,51.852l22.851,23.999c0.873,1.164,2.625,1.144,3.472-0.039l6.892-18.647
					l0.217-6.001l0.103-2.664l0.82-21.644l0.081-2.162L468.115,972.525z"/>
			</g>
			<g>
				<path style="fill:#DD9169;" d="M477.87,986.338c0,0,2.272,25.115,22.707,37.352l0.103-2.664l0.82-21.644L477.87,986.338z"/>
			</g>
			<g>
				<path style="fill:#FEC5A4;" d="M526.799,954.211c0.811,10.32,3.036,26.957,5.819,36.927c0.159,0.57,0.316,1.203,0.049,1.731
					c-0.399,0.79-1.459,0.881-2.334,1.014c-4.054,0.614-6.997,4.125-9.15,7.614c-2.153,3.489-4.061,7.361-7.48,9.624
					c-3.42,2.264-7.324,4.647-11.589,4.402c-4.564-0.263-9.165-3.736-11.485-7.542c-6.83-9.683-15.004-23.821-23.606-39.381
					l6.557-24.328L526.799,954.211z"/>
			</g>
			<g>
				<path style="fill:#27191C;" d="M538.774,945.337c-0.466-6.3-2.755-11.105-7.148-15.551
					c-9.576-9.701-24.584-15.933-38.283-13.738c-0.902,0.139-8.263,1.279-8.34,2.094c0.434-4.162-0.473-8.168-2.933-11.38
					c-6.226-8.21-19.952-8.265-30.643-0.145c-10.691,8.129-14.296,21.374-8.069,29.575c0.323,0.434,0.694,0.842,1.066,1.232
					c-1.705,1.416-3.325,3.035-4.839,5.051c-5.175,6.834-3.524,20.339-11.679,24.402c-3.44,1.714-7.474,1.737-11.294,1.307
					c-8.589-0.967-17.126-5.199-25.779-2.794c-7.212,2.004-10.371,9.283-17,11.309c-3.82,1.167-7.716-0.337-11.566-0.586
					c-0.128-0.006-0.242-0.01-0.371-0.016c-9.174-0.398-18.18,3.035-25.966,7.638c-4.935,2.917-17.364,9.784-16.018,16.443
					c1.995,9.865,30.228,4.938,33.858,13.84c2.045,5.008,6.301,8.766,10.784,11.599c5.807,3.666,16.315,3.04,22.888,4.908
					c7.634,2.17,16.012,1.016,22.799,5.76c4.774,3.336,10.826,7.267,16.975,5.641c5.46-1.444,7.757-5.91,12.93-8.256
					c6.635-3.008,13.87,0.169,20.733-0.778c15.284-2.112,13.146-34.651,14.487-45.468c0.228-1.842,0.443-3.725,0.41-5.578
					c1.078-1.003,2.403-1.863,3.455-2.74c1.865-1.561,3.796-2.918,5.031-5.08c0.447-0.789,0.635-1.152,0.961-2.003
					c0.108-0.281,0.468-1.655,0.468-1.655c1.036,1.478,2.072,2.946,3.108,4.424c1.955,2.788,3.815,5.591,6.931,7.205
					c0.372,0.189,0.763,0.379,1.191,0.408c2.953,0.225,1.446-5.029,0.979-6.432c-1.135-3.407-2.193-6.849-3.338-10.256
					c-0.535-1.597-0.998-3.286-1.621-4.84c-0.511-1.291-1.399-2.457-1.522-3.892c-0.284-3.281,2.244-2.943,4.492-2.942
					c4.811-0.003,9.58,1.108,14.177,2.429c3.027,0.876,6.052,1.771,9.048,2.693c3.296,1.022,6.55,2.137,9.847,3.14
					c2.001,0.609,4.441-0.02,5.838-1.574C538.287,956.909,539.133,950.27,538.774,945.337z"/>
			</g>
		</g>
		<g>
			<g>
				<g>
					<path style="fill:#FEC5A4;" d="M2266.507,1339.48c0.434,0.999,1.435,1.6,2.521,1.869c0.201-0.066,0.411-0.129,0.623-0.172
						l8.017-1.845c0.143-0.059,0.266-0.089,0.387-0.091c0.242-0.023,0.442,0.041,0.597,0.229c1.765,2.225,0.221,4.52-0.906,6.698
						c-0.324,0.627-0.606,1.241-0.771,1.843c-0.537,1.994,0.469,3.772,2.284,4.719c3.625,1.883,7.975,1.412,11.857,0.77
						c3.913-0.65,7.746-1.768,11.393-3.317c4.106-1.735,10.221-4.923,9.11-10.348c-0.094-0.454-0.191-0.9-0.285-1.354
						c-0.456-2.182-0.932-4.362-1.335-6.561c-0.148-0.791-0.289-1.598-0.414-2.399c-0.681-4.335-1.201-8.703-1.56-13.078
						c-0.182-2.193-0.328-4.382-0.436-6.575c-0.048-1.137-0.094-2.281-0.122-3.42c-0.018-0.66,0.287-2.58-0.071-3.103
						c-0.024-0.037-0.059-0.068-0.094-0.1c-0.874-0.769-4.842-0.018-6.026,0.031c-2.249,0.105-4.508,0.189-6.755,0.267
						c-1.117,0.046-13.219,0.65-13.293,0.623c0.552,4.483,1.105,9.041,0.37,13.498c-0.833,5.13-6.077,13.533-10.665,15.818
						c-1.231,0.61-2.523,1.208-3.479,2.208C2266.507,1336.692,2265.956,1338.215,2266.507,1339.48z"/>
				</g>
			</g>
			<g>
				<path style="fill:#4FAFF7;" d="M2186.774,1077.387l44.035,64.267l42.302,43.233l4.912,118.664
					c0.035,1.145,0.857,2.114,1.981,2.336l30.493,4.77c1.436,0.283,2.799-0.744,2.924-2.202c0,0,11.368-132.884,11.369-132.893
					c2.337-27.321-13.619-49.957-31.565-68.686c-20.732-21.635-45.426-41.813-72.175-55.254c-8.559-4.301-17.383-8.113-26.47-11.158
					c-4.193-1.405-8.442-2.646-12.745-3.67c-1.366-0.325-11.249-1.752-13.693-2.061
					C2167.19,1040.215,2186.774,1077.387,2186.774,1077.387z"/>
			</g>
			<g>
				<g>
					<g>
						<rect x="2071.83" y="1707.098" style="fill:#FFFFFF;" width="35.788" height="26.639"/>
					</g>
					<g>
						<path style="fill:#27191C;" d="M2023.322,1751.174l43.694-21.871c1.094-0.547,2.319-0.767,3.532-0.613
							c4.572,0.579,18.048,0.944,37.356-10.2c3.485-2.011,7.932-0.31,9.117,3.535l10.106,32.793c1.235,4.007-1.758,8.066-5.951,8.07
							l-95.057,0.094C2019.538,1762.988,2017.438,1754.119,2023.322,1751.174z"/>
					</g>
				</g>
				<g>
					<g>
						<rect x="2169.006" y="1707.098" style="fill:#FFFFFF;" width="35.788" height="26.639"/>
					</g>
					<g>
						<path style="fill:#27191C;" d="M2120.498,1751.174l43.693-21.871c1.094-0.547,2.319-0.767,3.532-0.613
							c4.572,0.579,18.048,0.944,37.356-10.2c3.485-2.011,7.932-0.31,9.117,3.535l10.106,32.793c1.235,4.007-1.758,8.066-5.951,8.07
							l-95.057,0.094C2116.714,1762.988,2114.614,1754.119,2120.498,1751.174z"/>
					</g>
				</g>
				<g>
					<polygon style="fill:#FFFFFF;" points="2132.81,1031.85 2100.996,1086.854 2097.666,1265.018 2169.264,1258.358 
						2180.087,1052.998 2168.141,1034.734 					"/>
				</g>
				<g>
					<path style="fill:#2F4154;" d="M2070.378,1713.108h37.879c1.478,0,2.612-1.311,2.399-2.774l-26.543-182.057
						c-0.953-6.534-0.219-13.204,2.133-19.374l36.199-95.682l8.041,102.801c0.144,3.275,0.515,6.536,1.112,9.759l32.811,185.325
						c0.205,1.158,1.211,2.001,2.387,2.001h38.638c1.329,0,2.41-1.069,2.424-2.398l2.226-206.097l14.009-272.064
						c-62.768,12.985-120.271,28.619-167.705,29.415l-49.737,237.803c-2.821,13.489-1.944,27.49,2.539,40.521l58.895,171.185
						C2068.422,1712.451,2069.343,1713.108,2070.378,1713.108z"/>
				</g>
			</g>
			<g>
				<path style="fill:#4FAFF7;" d="M2132.81,1031.85c0,0-53.279,7.056-68.09,54.661c-7.183,23.089-13.2,74.381-15.339,113.723
					c-1.453,26.713-11.343,63.367-16.401,106.946c-1.122,9.666,10.774,15.532,18.724,9.92l44.039-23.024
					c7.692-5.429,12.314-14.236,12.349-23.651C2108.337,1205.369,2119.463,1122.103,2132.81,1031.85z"/>
			</g>
			<g>
				<path style="fill:#4FAFF7;" d="M2239.536,1139.935c-10.984,51.137-15.225,116.286-8.87,172.464
					c0.715,6.319-6.3,10.57-11.564,7.003l-16.526-11.197l-20.547-12.954l-12.123-7.65c-8.202-5.176-13.478-13.901-14.252-23.565
					c-6.359-79.125,12.49-229.306,12.49-229.306L2239.536,1139.935z"/>
			</g>
			<g>
				<g>
					<path style="fill:#FEC5A4;" d="M1908.427,1062.924c-6.625-4.746-10.785-12.759-10.854-20.908
						c-0.022-2.613-0.1-5.973-2.559-6.859c-1.699-0.612-3.566,0.497-4.708,1.896c-1.142,1.399-1.874,3.114-3.13,4.412
						c-2.494,2.578-6.557,2.971-10.057,2.187c-3.5-0.784-6.695-2.543-10.079-3.734c-6.734-2.371-14.263-2.417-21.026-0.128
						c-2.696,0.912-5.34,2.236-7.217,4.375c-1.878,2.139-2.865,5.216-1.964,7.916c1.727,5.178,8.477,6.086,13.9,6.713
						c16.347,1.893,31.957,9.62,43.375,21.471C1899.991,1076.712,1904.535,1068.589,1908.427,1062.924z"/>
				</g>
				<g>
					<path style="fill:#4FAFF7;" d="M1988.69,1102.956l-78.655-47.2c-1.826-1.122-4.222-0.326-5.013,1.667l-14.486,24.701
						c-0.525,1.322-0.184,2.831,0.858,3.8l67.868,63.087c16.68,15.505,41.75,17.725,60.895,5.393l89.638-57.74l23.015-64.812
						c0,0-42.034-0.971-74.569,22.602c-25.014,18.124-51.008,38.248-60.083,47.375
						C1995.645,1104.355,1991.727,1104.822,1988.69,1102.956z"/>
				</g>
			</g>
			<g>
				<g>
					<g>
						<path style="fill:#FEC5A4;" d="M2174.284,980.007l-6.139,54.724l-25.509,20.343c-1.08,1.105-2.922,0.842-3.65-0.521
							l-6.176-22.703l0.232-2.46l0.26-2.819l2.125-22.9l0.214-2.287L2174.284,980.007z"/>
					</g>
					<g>
						<path style="fill:#DD9169;" d="M2162.106,993.202c0,0-5.861,26.128-29.064,36.188l0.26-2.819l2.125-22.9L2162.106,993.202z"/>
					</g>
					<g>
						<path style="fill:#FEC5A4;" d="M2115.031,952.622c-2.279,10.753-6.92,27.961-11.226,38.073
							c-0.246,0.578-0.499,1.223-0.291,1.816c0.312,0.887,1.414,1.129,2.317,1.39c4.183,1.207,6.797,5.309,8.582,9.279
							c1.785,3.971,3.26,8.311,6.546,11.165c3.288,2.856,7.068,5.904,11.593,6.235c4.841,0.354,10.165-2.667,13.133-6.354
							c8.528-9.251,19.086-23.006,30.291-38.2l-3.543-26.518L2115.031,952.622z"/>
					</g>
				</g>
				<g>
					<path style="fill:#27191C;" d="M2199.781,946.141c-2.555-3.911-6.37-6.5-9.98-9.329c-2.753-2.158-5.39-4.706-6.528-8.103
						c-1.452-4.315-0.123-9.014-1.424-13.363c-1.945-6.486-8.678-9.027-14.918-8.63c-7.884,0.493-15.603,2.883-23.555,2.5
						c-1.397-0.068-2.781-0.206-4.157-0.384c-2.322-0.555-4.63-0.959-6.932-1.157c-4.144-0.747-8.302-1.473-12.555-1.418
						c-6.959,0.096-15.281,2.507-15.849,10.507c-0.123,1.719,0.041,3.438,0.315,5.158c0.836,5.247,2.733,10.493,0.884,15.685
						c-1.521,4.267-4.651,8.692-5.849,13.254c-0.712,2.74-0.74,5.527,0.699,8.37c0.432,0.863,1.007,1.603,1.671,2.212
						c0.343,0.843,0.747,1.658,1.219,2.445c1.301,2.171,3.014,4.754,5.582,5.514c2.165,0.637,3.986-0.452,4.987-2.342
						c2.007-3.822,1.644-8.185,3.137-12.185c0.863-2.322,3.644-1.363,5.521-1.117c5.623,0.706,8.384,1.103,14.014,1.726
						c3.069,0.349,6.13,0.719,9.206,1.096c1.795,0.219,6.678-0.171,6.815,2.459c0.062,1.397-0.863,2.664-1.493,3.843
						c-2.918,5.425-5.452,11.103-8.144,16.651c-0.685,1.404-2.993,6.726,0.151,6.904c0.445,0.027,0.89-0.117,1.301-0.281
						c4.185-1.555,7.336-5.233,10.096-8.596c1.377-1.692,2.753-3.411,4.308-4.973c1.39-1.397,3.425-3.486,5.438-3.945
						c3.199-0.712,3.993,2.226,4.377,4.726c0.055,0.329,0.096,0.651,0.137,0.952c0.375,2.628,0.945,5.222,1.564,7.802
						c0.589,2.455,0.805,5.464,2.925,7.139c2.701,2.144,6.559-0.257,9.171-1.239c2.532-0.952,7.295-1.628,8.731-4.291
						c1.795-3.329,1.486-7.219,2.233-10.822c1.527-7.391,9.493-11.425,9.281-19.487
						C2202.083,950.675,2201.172,948.271,2199.781,946.141z"/>
				</g>
			</g>
		</g>
		<g>
			<g>
				<path style="fill:#FEC5A4;" d="M1298.082,1295.464c-1.128,0.558-2.458,0.342-3.616-0.23c-0.129-0.208-0.267-0.42-0.421-0.616
					l-5.698-7.602c-0.082-0.159-0.168-0.276-0.274-0.369c-0.196-0.2-0.42-0.293-0.697-0.243c-3.215,0.648-3.564,3.823-4.192,6.584
					c-0.181,0.794-0.391,1.547-0.693,2.2c-1.012,2.159-3.224,2.978-5.531,2.462c-4.601-1.04-8.089-4.697-11.036-8.157
					c-2.968-3.489-5.517-7.332-7.58-11.417c-2.33-4.591-5.349-11.96-0.327-15.919c0.422-0.331,0.84-0.652,1.261-0.982
					c2.028-1.585,4.073-3.154,6.068-4.794c0.72-0.588,1.446-1.195,2.153-1.809c3.831-3.317,7.545-6.784,11.122-10.376
					c1.795-1.799,3.555-3.622,5.284-5.477c0.89-0.967,1.783-1.943,2.657-2.927c0.508-0.568,1.67-2.49,2.375-2.685
					c0.048-0.015,0.103-0.016,0.157-0.018c1.344-0.027,4.286,3.592,5.293,4.518c1.906,1.769,3.837,3.526,5.762,5.27
					c0.952,0.873,11.178,10.424,11.264,10.455c-3.828,3.544-7.712,7.153-10.386,11.634c-3.088,5.147-4.723,16.469-2.378,21.905
					c0.632,1.456,1.327,2.946,1.424,4.541C1300.16,1293.005,1299.511,1294.758,1298.082,1295.464z"/>
			</g>
			<g>
				<path style="fill:#FEC5A4;" d="M1567.059,1709.092c-7.587-13.471,1.659-83.706,9.49-133.567
					c5.383-34.274,1.732-69.356-10.572-101.795l-21.211-55.92l-67.507,8.084l40.829,115.707l0.436,147.847l2.694,23.049
					l51.964,42.391l26.666,0.684l0.761-13.36C1600.609,1742.213,1577.51,1727.646,1567.059,1709.092z"/>
			</g>
			<g>
				<path style="fill:#FEC5A4;" d="M1446.554,1703.288c-13.964-29.888,52.181-277.394,52.181-277.394h-85.132l-6.829,97.663
					l-11.599,165.892l2.694,23.049l51.964,42.391l26.665,0.684l0.761-13.36C1477.259,1742.213,1455.567,1722.581,1446.554,1703.288z
					"/>
			</g>
			<g>
				<path style="fill:#27191C;" d="M1387.961,1760.316c-0.009,0.708,0.259,1.381,0.759,1.881c0.492,0.509,1.165,0.785,1.873,0.785
					h7.006c1.432,0,2.615-1.173,2.632-2.606l0.337-33.453c0.008-0.863,0.543-1.596,1.354-1.881c0.76-0.259,1.571-0.052,2.105,0.526
					c0.043,0.034,0.078,0.078,0.112,0.121c0.198,0.242,0.397,0.492,0.613,0.742c4.625,5.583,12.417,12.745,20.329,18.698
					c0.164,0.129,0.336,0.25,0.5,0.371c10.984,8.197,21.624,13.737,30.002,15.627c14.281,3.201,22.831,1.656,27.5-0.199
					c5.462-2.174,11.399-6.118,11.502-9.655c0.052-1.631-1.243-3.08-3.848-4.297c-2.399-1.13-9.802-3.555-13.366-4.72l-0.112-0.043
					c-0.984,3.365-3.331,6.454-6.402,8.396c-2.96,1.872-6.377,2.502-9.612,1.769c-3.158-0.708-8.914-3.193-15.782-7.196
					c-6.54-3.805-14.09-9-21.365-15.368c-0.94-0.828-1.777-1.588-2.563-2.313c-12.546-11.597-21.037-24.005-25.239-36.888
					c-0.129-0.414-0.371-0.708-0.639-0.906c-0.155-0.121-0.319-0.198-0.483-0.259c-0.199-0.069-0.397-0.103-0.587-0.112h-0.052
					c-0.613,0-1.372,0.302-1.708,1.165c-1.821,4.608-4.038,12.607-4.323,24.531L1387.961,1760.316z"/>
			</g>
			<g>
				<path style="fill:#27191C;" d="M1511.311,1760.316c-0.009,0.708,0.259,1.381,0.759,1.881c0.492,0.509,1.165,0.785,1.873,0.785
					h7.006c1.432,0,2.615-1.173,2.632-2.606l0.337-33.453c0.008-0.863,0.543-1.596,1.354-1.881c0.759-0.259,1.57-0.052,2.105,0.526
					c0.043,0.034,0.078,0.078,0.112,0.121c0.198,0.242,0.397,0.492,0.613,0.742c4.625,5.583,12.417,12.745,20.329,18.698
					c0.164,0.129,0.336,0.25,0.5,0.371c10.984,8.197,21.624,13.737,30.002,15.627c14.281,3.201,22.831,1.656,27.5-0.199
					c5.462-2.174,11.398-6.118,11.502-9.655c0.052-1.631-1.243-3.08-3.848-4.297c-2.399-1.13-9.802-3.555-13.366-4.72l-0.112-0.043
					c-0.984,3.365-3.331,6.454-6.402,8.396c-2.96,1.872-6.377,2.502-9.613,1.769c-3.158-0.708-8.913-3.193-15.782-7.196
					c-6.54-3.805-14.09-9-21.365-15.368c-0.94-0.828-1.777-1.588-2.563-2.313c-12.546-11.597-21.036-24.005-25.239-36.888
					c-0.129-0.414-0.371-0.708-0.638-0.906c-0.155-0.121-0.319-0.198-0.483-0.259c-0.199-0.069-0.397-0.103-0.587-0.112h-0.052
					c-0.613,0-1.372,0.302-1.708,1.165c-1.82,4.608-4.038,12.607-4.323,24.531L1511.311,1760.316z"/>
			</g>
			<g>
				<g>
					<g>
						<path style="fill:#FEC5A4;" d="M1727.501,1137.327c8.544-7.825,17.152-15.72,23.946-25.105
							c1.787-2.468,3.463-5.077,4.343-7.994c0.735-2.435,0.876-5.138,0.025-7.564c-0.922-2.628-3.373-4.073-4.818-6.396
							c-1.224-1.967-1.298-4.325-0.515-6.468c0.87-2.379,2.911-3.758,4.803-5.379c2.804-2.401,5.704-4.69,8.692-6.858
							c1.77-1.284,3.55-2.55,5.319-3.846c1.533-1.124,2.979-2.54,3.315-4.474c0.216-1.244-0.141-2.563-1.123-3.356
							c-1.555-1.256-3.678-0.545-5.416,0.24c-5.831,2.635-11.543,6.035-16.631,9.871c-2.605,1.964-5.1,4.074-7.47,6.316
							c-2.293,2.17-4.107,4.555-6.203,6.884c-1.856,2.062-4,4.066-6.633,4.998c-0.998,0.353-2.082-0.353-2.145-1.409
							c-0.122-2.037,1.003-4.236,1.918-6.193c1.25-2.674,1.781-6.556-1.032-7.854c-1.245-0.574-2.701-0.314-3.823,0.473
							c-2.009,1.409-2.714,3.762-3.262,6.025c-1.635,6.754-2.408,13.704-4.27,20.399s-4.978,13.305-10.342,17.723
							C1712.488,1124.559,1719.77,1131.681,1727.501,1137.327z"/>
					</g>
				</g>
				<g>
					<path style="fill:#0267C1;" d="M1530.931,1142.508l22.485,24.029l22.983,24.562l39.428,42.143
						c11.534,12.32,31.297,11.597,41.891-1.536l73.475-91.099c1.122-1.389,1.017-3.403-0.245-4.672l-20.759-20.907
						c-1.326-1.34-3.473-1.389-4.855-0.119l-62.187,56.876c-1.782,1.628-4.539,1.501-6.16-0.281l-62.893-70.814L1530.931,1142.508z"
						/>
				</g>
				<g>
					<path style="fill:#E2EAF5;" d="M1553.417,1166.537l22.983,24.562c5.677-26.321,10.203-30.847,11.199-48.409
						c0.839-14.797-16.026-43.089-16.026-43.089L1553.417,1166.537z"/>
				</g>
			</g>
			<g>
				<path style="fill:#0267C1;" d="M1500.208,1071.357l21.737,86.127c-2.794-0.774-5.773-1.378-8.89-1.811
					c-6.124-0.865-12.799-1.099-19.787-0.845c-47.784,1.659-110.186,25.683-110.186,25.683l-0.381,0.422l-4.555,5.113l-49.87,56.015
					l-7.641,8.579l-5.054,5.682c-1.117,1.251-3.022,1.411-4.322,0.361l-2.43-1.961l-7.44-6.007l-17.789-14.374
					c-1.287-1.031-1.542-2.867-0.621-4.213l12.711-18.519l7.559-11.025l39.837-58.063c6.533-9.513,15.66-16.949,26.286-21.428
					L1500.208,1071.357z"/>
			</g>
			<g>
				<polygon style="fill:#FFFFFF;" points="1500.202,1071.358 1463.152,1288.944 1573.553,1312.8 1583.207,1299.283 
					1558.231,1102.94 1534.995,1072.327 				"/>
			</g>
			<g>
				<path style="fill:#2F4154;" d="M1581.231,1283.267c2.073,16.187,3.525,31.97,4.451,47.324c0.02,0.301,0.039,0.602,0.049,0.897
					c0.91,15.295,1.285,30.156,1.226,44.577c0.001,0.691-0.008,1.377-0.01,2.061c-0.234,34.365,4.87,66.186,0.861,95.167
					c-0.054,8.843-7.43,15.873-16.257,15.508l-171.238-6.71c-9.15-0.371-16.02-8.513-14.847-17.6
					c4.164-13.228,7.627-25.517,10.495-37.024c4.546-18.234,7.61-34.506,9.65-49.439c0.193-1.419,0.38-2.83,0.557-4.221
					c2.078-16.459,2.941-31.304,3.226-45.419c0.349-16.52-0.093-32.029-0.263-47.92L1581.231,1283.267z"/>
			</g>
			<g>
				<path style="fill:#0267C1;" d="M1500.208,1071.357c0,0,58.292,152.292-18.65,228.731
					c-61.092,60.692-101.665,27.88-115.789,11.785c-3.289-3.748-3.184-9.39,0.231-13.023c17.474-18.592,68.438-81.133,66.474-176.4
					L1500.208,1071.357z"/>
			</g>
			<g>
				<path style="fill:#0267C1;" d="M1535.022,1072.18c0,0,36.473,92.812,28.065,149.012c-9.015,60.253,16.084,79.308,31.377,88.744
					c3.781,2.333,8.355,1.658,8.519-2.782c1.201-32.473-2.782-145.793-16.422-186.9
					C1577.589,1093.213,1535.022,1072.18,1535.022,1072.18z"/>
			</g>
			<g>
				<g>
					<path style="fill:#FEC5A4;" d="M1499.843,1017.266l0.364,54.091l27.139,22.669c0.941,1.19,2.768,1.123,3.62-0.133l4.057-21.713
						l0.026-2.427l0.036-2.781l0.281-22.59l0.027-2.256L1499.843,1017.266z"/>
				</g>
				<g>
					<path style="fill:#DD9169;" d="M1510.381,1031.409c0,0,3.036,26.127,24.667,38.344l0.036-2.781l0.281-22.59L1510.381,1031.409z
						"/>
				</g>
				<g>
					<path style="fill:#FEC5A4;" d="M1560.546,996.613c1.12,10.739,3.881,28.027,7.047,38.349c0.181,0.59,0.362,1.246,0.097,1.804
						c-0.396,0.834-1.498,0.958-2.407,1.119c-4.21,0.748-7.187,4.486-9.339,8.181c-2.152,3.695-4.04,7.783-7.544,10.234
						c-3.506,2.452-7.513,5.04-11.967,4.897c-4.766-0.153-9.656-3.652-12.175-7.559c-7.379-9.915-16.276-24.439-25.659-40.435
						l6.192-25.541L1560.546,996.613z"/>
				</g>
				<g>
					<path style="fill:#27191C;" d="M1493.273,978.079c3.126-7.686,9.023-13.372,17.91-18.021
						c9.107-4.763,19.685-7.625,30.013-7.069c6.844,0.369,13.689,2.075,18.758,6.848c12.588,11.853,15.71,27.994,16.42,44.583
						c0.163,6.945,0.209,7.664,0.209,7.664c5.582,1.924,8.732,16.605,1.294,22.112c-9.375,6.929-2.2,16.068-1.98,16.344
						c-3.37-1.956-6.092-6.99-5.719-11.822c0.134-1.695,0.636-3.361,1.628-4.867c0.253-0.393,0.548-0.765,0.872-1.134
						c3.49-3.938,6.832-8.092,2.729-12.979c-2.136-2.544-3.894-5.216-5.651-8.021c-1.448-2.311-3.048-4.566-5.16-6.322
						c-2.485-2.066-5.911-2.948-8.862-4.144c-5.413-2.192-11.212-3.132-17.006-3.598c-2.94-0.237-5.887-0.358-8.833-0.483
						c-1.76-0.075-5.287-0.729-6.103,1.465c-0.522,1.404,0.446,3.064,0.959,4.33c2.297,5.603,4.194,11.412,6.242,17.104
						c0.523,1.446,2.234,6.883-0.85,6.731c-0.442-0.02-0.861-0.205-1.259-0.395c-3.295-1.6-5.306-4.474-7.415-7.327
						c-1.687-2.272-3.366-4.551-5.053-6.831c-1.437-1.938-2.681-4.177-5.101-4.996c-3.46-1.159-4.385,2.558-4.995,5.087
						c-0.802,3.294-1.713,6.665-2.944,9.83c-0.697,1.782-2.569,4.998-4.863,4.963c-2.598-0.046-3.594-3.775-4.314-5.746
						c-3.194-8.792-3.751-19.436-3.607-28.713C1490.679,987.102,1491.56,982.291,1493.273,978.079z"/>
				</g>
				<g>
					<path style="fill:#27191C;" d="M1462.152,1053.39c2.316-3.546,2.77-8.038,2.225-12.238c-0.544-4.2-2.001-8.217-3.256-12.262
						c-3.441-11.09-5.419-22.633-5.865-34.236c-0.235-6.109-0.025-12.354,2.026-18.113c2.051-5.759,6.187-11.023,11.9-13.197
						c5.875-2.235,12.988-0.75,17.477,3.649c4.49,4.399,6.119,11.48,4.004,17.399c-1.359,3.803-4.05,6.974-5.838,10.595
						c-3.119,6.316-3.336,13.697-2.436,20.684s2.845,13.803,3.842,20.776c0.997,6.974,0.989,14.33-1.865,20.771
						c-2.854,6.441-9.056,11.746-16.099,11.898c-4.083,0.088-13.912-2.931-15.417-7.454
						C1451.707,1058.226,1460.087,1056.551,1462.152,1053.39z"/>
				</g>
				<g>
					<path style="fill:#27191C;" d="M1488.086,992.458l-1.255-0.384c-1.767-0.541-2.761-2.412-2.22-4.179l3.769-12.307
						c0.541-1.767,2.412-2.761,4.179-2.219l1.255,0.384c1.767,0.541,2.761,2.412,2.219,4.179l-3.769,12.307
						C1491.724,992.006,1489.853,993,1488.086,992.458z"/>
				</g>
			</g>
		</g>
		<g>
			<g>
				<g>
					<path style="fill:#FEC5A4;" d="M867.541,1349.741c-0.424,0.975-1.4,1.561-2.459,1.823c-0.196-0.064-0.401-0.125-0.608-0.168
						l-7.823-1.8c-0.139-0.058-0.259-0.087-0.378-0.089c-0.236-0.022-0.431,0.04-0.582,0.223c-1.722,2.171-0.216,4.41,0.884,6.535
						c0.316,0.612,0.591,1.211,0.752,1.798c0.524,1.945-0.458,3.68-2.229,4.604c-3.537,1.837-7.782,1.378-11.57,0.751
						c-3.818-0.634-7.558-1.725-11.117-3.237c-4.007-1.693-9.973-4.804-8.89-10.097c0.092-0.443,0.187-0.878,0.279-1.322
						c0.445-2.129,0.91-4.256,1.303-6.402c0.144-0.772,0.282-1.56,0.404-2.341c0.665-4.229,1.172-8.492,1.522-12.761
						c0.178-2.14,0.32-4.276,0.425-6.416c0.047-1.109,0.091-2.226,0.119-3.338c0.018-0.644-0.28-2.518,0.069-3.028
						c0.023-0.036,0.058-0.067,0.092-0.097c0.853-0.75,4.725-0.018,5.88,0.031c2.194,0.103,4.398,0.184,6.592,0.26
						c1.09,0.045,12.898,0.635,12.971,0.608c-0.539,4.374-1.078,8.822-0.362,13.171c0.813,5.006,5.929,13.205,10.407,15.435
						c1.202,0.595,2.462,1.178,3.394,2.155C867.541,1347.021,868.078,1348.506,867.541,1349.741z"/>
				</g>
			</g>
			<g>
				<path style="fill:#40566E;" d="M945.342,1093.998l-42.968,62.71l-41.277,42.186l-4.793,115.789
					c-0.034,1.117-0.836,2.063-1.933,2.279l-29.754,4.654c-1.401,0.276-2.731-0.726-2.853-2.148c0,0-11.093-129.665-11.093-129.673
					c-2.28-26.66,13.289-48.746,30.801-67.022c20.229-21.111,44.326-40.8,70.426-53.916c8.352-4.197,16.962-7.917,25.829-10.887
					c4.091-1.371,8.238-2.582,12.436-3.581c1.333-0.317,11.722-1.449,12.027-2.205
					C962.187,1052.185,945.342,1093.998,945.342,1093.998z"/>
			</g>
			<g>
				<path style="fill:#FEC5A4;" d="M1224.809,961.005c7.134-7.65,14.32-15.367,19.767-24.296c1.433-2.348,2.756-4.815,3.341-7.503
					c0.488-2.244,0.424-4.686-0.515-6.809c-1.017-2.299-3.325-3.426-4.791-5.414c-1.241-1.684-1.476-3.8-0.923-5.784
					c0.614-2.203,2.353-3.589,3.94-5.182c2.353-2.361,4.8-4.626,7.335-6.79c1.502-1.282,3.014-2.547,4.513-3.84
					c1.3-1.12,2.5-2.498,2.666-4.263c0.106-1.135-0.309-2.297-1.249-2.941c-1.489-1.02-3.349-0.229-4.858,0.601
					c-5.06,2.786-9.959,6.251-14.267,10.066c-2.205,1.953-4.301,4.029-6.274,6.216c-1.91,2.116-3.372,4.392-5.093,6.636
					c-1.524,1.988-3.311,3.943-5.615,4.969c-0.873,0.389-1.898-0.17-2.03-1.116c-0.254-1.824,0.602-3.883,1.286-5.709
					c0.935-2.495,1.137-6.027-1.487-6.995c-1.161-0.428-2.453-0.091-3.407,0.698c-1.708,1.411-2.175,3.578-2.507,5.654
					c-0.991,6.195-1.193,12.505-2.394,18.662c-1.2,6.158-3.535,12.329-8.048,16.686
					C1210.39,950.582,1217.45,956.473,1224.809,961.005z"/>
			</g>
			<g>
				<path style="fill:#40566E;" d="M997.998,1049.565l122.801-21.052c0.758-0.13,1.453-0.506,1.976-1.071l79.635-86.012
					c1.266-1.367,3.38-1.502,4.81-0.308l20.712,17.31c1.377,1.151,1.66,3.156,0.655,4.643l-68.927,101.941
					c-6.637,9.817-16.23,17.258-27.388,21.247c-27.011,9.656-78.093,27.633-95.704,31.879c-28.998,6.992-68.364-18.804-81.068-38.83
					L997.998,1049.565z"/>
			</g>
			<g>
				<g>
					<g>
						<rect x="1022.58" y="1708.452" style="fill:#FFFFFF;" width="34.921" height="25.994"/>
					</g>
					<g>
						<path style="fill:#27191C;" d="M1104.834,1751.46l-42.635-21.341c-1.067-0.534-2.263-0.748-3.447-0.598
							c-4.461,0.565-17.611,0.921-36.451-9.953c-3.4-1.963-7.74-0.303-8.896,3.449l-9.861,31.999
							c-1.205,3.91,1.716,7.87,5.807,7.874l92.754,0.092C1108.526,1762.988,1110.575,1754.334,1104.834,1751.46z"/>
					</g>
				</g>
				<g>
					<g>
						<rect x="927.758" y="1708.452" style="fill:#FFFFFF;" width="34.921" height="25.994"/>
					</g>
					<g>
						<path style="fill:#27191C;" d="M1010.012,1751.46l-42.635-21.341c-1.067-0.534-2.263-0.748-3.447-0.598
							c-4.461,0.565-17.611,0.921-36.451-9.953c-3.4-1.963-7.74-0.303-8.896,3.449l-9.861,31.999
							c-1.205,3.91,1.716,7.87,5.807,7.874l92.754,0.092C1013.704,1762.988,1015.754,1754.334,1010.012,1751.46z"/>
					</g>
				</g>
				<g>
					<polygon style="fill:#FFFFFF;" points="997.998,1049.565 1029.042,1103.236 1032.291,1277.083 962.427,1270.584 
						951.866,1070.2 962.188,1052.184 					"/>
				</g>
				<g>
					<path style="fill:#2F4154;" d="M1058.918,1714.316h-36.962c-1.442,0-2.549-1.279-2.34-2.706l25.9-177.646
						c0.93-6.376,0.213-12.884-2.081-18.905l-35.322-93.363l-7.846,100.31c-0.14,3.196-0.503,6.378-1.085,9.523l-32.016,180.835
						c-0.2,1.13-1.182,1.953-2.329,1.953h-37.702c-1.296,0-2.351-1.043-2.365-2.34l-2.172-201.103l-13.67-265.472
						c61.247,12.671,117.358,27.925,163.642,28.702l48.531,232.041c2.753,13.162,1.897,26.823-2.478,39.539l-57.468,167.037
						C1060.826,1713.675,1059.928,1714.316,1058.918,1714.316z"/>
				</g>
			</g>
			<g>
				<path style="fill:#40566E;" d="M997.998,1049.564c0,0,51.988,6.885,66.44,53.337c7.009,22.53,12.88,72.579,14.968,110.968
					c1.417,26.066,11.068,61.832,16.003,104.355c1.095,9.432-10.512,15.156-18.27,9.68l-42.972-22.466
					c-7.505-5.298-12.016-13.891-12.05-23.078C1021.879,1218.879,1011.022,1137.63,997.998,1049.564z"/>
			</g>
			<g>
				<path style="fill:#40566E;" d="M893.858,1155.031c10.718,49.898,14.856,113.469,8.655,168.286
					c-0.697,6.165,6.147,10.314,11.284,6.834l16.125-10.926l20.049-12.641l11.829-7.464c8.003-5.051,13.151-13.564,13.907-22.994
					c6.205-77.208-13.522-223.944-13.522-223.944L893.858,1155.031z"/>
			</g>
			<g>
				<g>
					<g>
						<path style="fill:#FEC5A4;" d="M956.432,996.709l5.756,55.475l24.036,21.566c1.084,1.128,2.952,0.877,3.701-0.496
							l8.073-23.688l-0.215-2.493l-0.24-2.857l-1.959-23.21l-0.197-2.318L956.432,996.709z"/>
					</g>
					<g>
						<path style="fill:#DD9169;" d="M968.654,1010.175c0,0,5.715,26.511,29.13,36.896l-0.24-2.857l-1.959-23.21L968.654,1010.175z"
							/>
					</g>
					<g>
						<path style="fill:#FEC5A4;" d="M1016.673,969.474c2.217,10.909,6.772,28.376,11.048,38.655
							c0.244,0.588,0.495,1.243,0.279,1.842c-0.323,0.895-1.442,1.132-2.358,1.388c-4.246,1.187-6.929,5.319-8.77,9.325
							c-1.841,4.006-3.371,8.389-6.724,11.253c-3.354,2.865-7.209,5.92-11.794,6.217c-4.906,0.317-10.273-2.787-13.247-6.546
							c-8.559-9.441-19.135-23.461-30.356-38.943l3.813-26.827L1016.673,969.474z"/>
					</g>
					<g>
						<path style="fill:#27191C;" d="M949.445,963.327c1.764-3.302,4.05-6.305,6.967-8.595c3.241-2.543,7.089-4.196,10.84-5.823
							c0.117-0.055,0.435-0.168,0.817-0.319c0.069-1.151,0.295-2.889,0.355-3.103c0.282-1.082,0.728-2.111,1.304-3.068
							c0.164-0.288,0.345-0.573,0.541-0.847c3.445-4.941,8.115-6.007,13.09-5.727c3.604,0.191,7.369,1.098,10.939,1.739
							c2.014,0.363,3.925,0.452,5.765,0.222c2.49-0.295,4.854-1.176,7.159-2.739c4.203-2.83,7.237-7.101,11.873-9.351
							c7.101-3.43,15.8,1.162,19.039,7.816c0.765,1.573,1.264,3.292,1.453,5.034c1.149,10.603-2.96,22.842-12.534,28.51
							c-4.056,2.401-8.822,2.926-13.423,3.31c-6.103,0.509-12.196,1.14-18.284,1.804c-3.109,0.339-6.217,0.688-9.325,1.036
							c-1.819,0.204-6.766-0.235-6.925,2.435c-0.084,1.421,0.848,2.699,1.478,3.895c2.91,5.524,5.427,11.291,8.106,16.933
							c0.681,1.433,2.976,6.846-0.212,6.992c-0.453,0.021-0.897-0.123-1.32-0.285c-4.23-1.618-7.378-5.363-10.14-8.797
							c-1.392-1.731-2.772-3.48-4.326-5.07c-1.403-1.435-3.445-3.567-5.474-4.037c-3.664-0.85-4.247,3.059-4.621,5.714
							c-0.572,3.974-1.253,7.668-2.478,11.479c-0.438,1.361-1.063,2.733-2.193,3.607c-3.131,2.421-5.735-1.439-6.711-4.068
							c-0.966-2.601-1.827-5.241-2.582-7.911C945.737,983.894,944.21,973.126,949.445,963.327z"/>
					</g>
				</g>
			</g>
		</g>
		<g>
			<path style="fill:#4FAFF7;" d="M1039.225,325.354c0.486,3.916,1.509,7.797,3.057,11.539l-12.803,12.63l11.569,15.158
				l15.578-8.999c3.197,2.475,6.662,4.469,10.319,5.99l-0.108,17.978l18.893,2.548l4.642-17.386
				c3.912-0.501,7.796-1.51,11.539-3.057l12.626,12.789l15.161-11.555l-8.999-15.578c2.474-3.197,4.469-6.661,5.99-10.319
				l17.978,0.108l2.547-18.894l-17.386-4.642c-0.486-3.916-1.509-7.797-3.057-11.539l12.802-12.63l-11.569-15.157l-15.563,8.995
				c-3.211-2.471-6.676-4.466-10.333-5.986l0.108-17.978l-18.893-2.548l-4.646,17.372c-3.912,0.501-7.793,1.524-11.535,3.071
				l-12.63-12.803l-15.157,11.569l8.995,15.563c-2.471,3.211-4.466,6.676-5.986,10.333l-17.978-0.108l-2.547,18.894
				L1039.225,325.354z M1077.856,294.167c13.991-3.688,28.321,4.663,32.009,18.654c3.692,14.007-4.659,28.337-18.65,32.025
				c-14.007,3.692-28.337-4.659-32.029-18.666C1055.498,312.19,1063.849,297.86,1077.856,294.167z"/>
		</g>
		<g>
			<g>
				<g>
					<g>
						<path d="M2540.38,1451.607l-2.952-0.533c6.724-37.219,42.573-90.188,42.934-90.718l2.48,1.688
							C2582.485,1362.57,2546.99,1415.019,2540.38,1451.607z"/>
					</g>
					<g>
						<g>
							<path style="fill:#3BB273;" d="M2729.454,1262.133c-0.356,3.936-3.624,6.908-6.76,9.315
								c-14.267,10.983-30.333,20.41-47.694,25.198c9.384,0.182,18.742,1.747,27.674,4.64c2.25,0.73,4.536,1.581,6.265,3.198
								c3.78,3.519,3.701,9.862,1.008,14.267c-2.693,4.405-7.377,7.203-12.104,9.28c-13.563,5.943-28.586,8.341-43.393,8.619
								c5.118,4.101,10.236,8.211,15.353,12.321c6.386,5.127,13.442,11.834,12.26,19.932c-0.669,4.553-3.98,8.376-7.942,10.705
								c-3.962,2.329-8.541,3.363-13.059,4.197c-15.284,2.798-31.159,3.571-46.295,0.052c-12.451-2.893-24.39-8.88-33.383-17.864
								c-1.451-1.442-2.824-2.954-4.092-4.544c-0.452-0.556-0.886-1.112-1.312-1.686c-4.622-6.239-6.004-14.806-6.047-22.574
								c-0.096-15.71,2.667-31.593,9.445-45.773c6.777-14.172,17.734-26.571,31.697-33.774c8.463-4.371,19.663-6.438,26.901-0.234
								c7.481,6.412,7.994,18.89,6.717,28.665c4.327-3.971,8.646-7.942,12.973-11.912c8.871-8.142,17.925-16.413,28.803-21.566
								c10.887-5.161,24.086-6.821,34.886-1.486C2725.709,1253.253,2729.888,1257.302,2729.454,1262.133z"/>
						</g>
						<g>
							<g>
								<path style="fill:#2C8556;" d="M2701.771,1268.893c-62.977,34.79-104.467,78.583-120.385,97.099
									c-1.451-1.442-2.824-2.954-4.092-4.544c16.631-19.255,58.52-63.073,121.532-97.881c1.468-0.808,3.328-0.278,4.136,1.199
									C2703.769,1266.234,2703.239,1268.085,2701.771,1268.893z"/>
							</g>
						</g>
					</g>
				</g>
				<g>
					<g>
						<path d="M2540.38,1597.681l-2.952-0.533c6.724-37.218,42.573-90.188,42.934-90.718l2.48,1.688
							C2582.485,1508.644,2546.99,1561.093,2540.38,1597.681z"/>
					</g>
					<g>
						<g>
							<path style="fill:#3BB273;" d="M2729.454,1408.207c-0.356,3.936-3.624,6.908-6.76,9.315
								c-14.267,10.983-30.333,20.41-47.694,25.198c9.384,0.182,18.742,1.746,27.674,4.64c2.25,0.73,4.536,1.581,6.265,3.198
								c3.78,3.519,3.701,9.862,1.008,14.267c-2.693,4.405-7.377,7.203-12.104,9.28c-13.563,5.943-28.586,8.341-43.393,8.619
								c5.118,4.101,10.236,8.211,15.353,12.321c6.386,5.126,13.442,11.834,12.26,19.932c-0.669,4.553-3.98,8.376-7.942,10.705
								c-3.962,2.329-8.541,3.363-13.059,4.197c-15.284,2.798-31.159,3.571-46.295,0.052c-12.451-2.893-24.39-8.88-33.383-17.865
								c-1.451-1.442-2.824-2.954-4.092-4.544c-0.452-0.556-0.886-1.112-1.312-1.686c-4.622-6.239-6.004-14.806-6.047-22.574
								c-0.096-15.71,2.667-31.593,9.445-45.773c6.777-14.172,17.734-26.571,31.697-33.774c8.463-4.37,19.663-6.438,26.901-0.234
								c7.481,6.412,7.994,18.89,6.717,28.665c4.327-3.971,8.646-7.942,12.973-11.912c8.871-8.142,17.925-16.413,28.803-21.566
								c10.887-5.161,24.086-6.821,34.886-1.486C2725.709,1399.327,2729.888,1403.375,2729.454,1408.207z"/>
						</g>
						<g>
							<g>
								<path style="fill:#2C8556;" d="M2701.771,1414.967c-62.977,34.79-104.467,78.583-120.385,97.099
									c-1.451-1.442-2.824-2.954-4.092-4.544c16.631-19.255,58.52-63.073,121.532-97.881c1.468-0.808,3.328-0.278,4.136,1.199
									C2703.769,1412.308,2703.239,1414.158,2701.771,1414.967z"/>
							</g>
						</g>
					</g>
				</g>
				<g>
					<g>
						<path d="M2537.428,1451.607c-6.612-36.598-42.104-89.038-42.462-89.563l2.48-1.688c0.361,0.53,36.211,53.499,42.934,90.718
							L2537.428,1451.607z"/>
					</g>
					<g>
						<g>
							<path style="fill:#3BB273;" d="M2348.355,1262.133c0.356,3.936,3.624,6.908,6.76,9.315
								c14.267,10.983,30.333,20.41,47.694,25.198c-9.384,0.182-18.742,1.747-27.674,4.64c-2.251,0.73-4.536,1.581-6.265,3.198
								c-3.78,3.519-3.701,9.862-1.008,14.267s7.377,7.203,12.104,9.28c13.563,5.943,28.587,8.341,43.393,8.619
								c-5.118,4.101-10.236,8.211-15.353,12.321c-6.386,5.127-13.442,11.834-12.26,19.932c0.669,4.553,3.98,8.376,7.942,10.705
								c3.962,2.329,8.541,3.363,13.059,4.197c15.284,2.798,31.158,3.571,46.294,0.052c12.451-2.893,24.39-8.88,33.383-17.864
								c1.451-1.442,2.824-2.954,4.093-4.544c0.452-0.556,0.886-1.112,1.312-1.686c4.623-6.239,6.004-14.806,6.047-22.574
								c0.096-15.71-2.667-31.593-9.445-45.773c-6.778-14.172-17.734-26.571-31.698-33.774c-8.463-4.371-19.663-6.438-26.901-0.234
								c-7.481,6.412-7.994,18.89-6.717,28.665c-4.327-3.971-8.645-7.942-12.972-11.912c-8.871-8.142-17.926-16.413-28.804-21.566
								c-10.887-5.161-24.086-6.821-34.886-1.486C2352.1,1253.253,2347.92,1257.302,2348.355,1262.133z"/>
						</g>
						<g>
							<g>
								<path style="fill:#2C8556;" d="M2376.038,1268.893c62.977,34.79,104.467,78.583,120.385,97.099
									c1.451-1.442,2.824-2.954,4.093-4.544c-16.631-19.255-58.52-63.073-121.532-97.881c-1.469-0.808-3.328-0.278-4.136,1.199
									C2374.039,1266.234,2374.57,1268.085,2376.038,1268.893z"/>
							</g>
						</g>
					</g>
				</g>
				<g>
					<g>
						<path d="M2537.428,1597.681c-6.61-36.588-42.104-89.037-42.462-89.563l2.48-1.688c0.361,0.53,36.211,53.5,42.934,90.718
							L2537.428,1597.681z"/>
					</g>
					<g>
						<g>
							<path style="fill:#3BB273;" d="M2348.355,1408.207c0.356,3.936,3.624,6.908,6.76,9.315
								c14.267,10.983,30.333,20.41,47.694,25.198c-9.384,0.182-18.742,1.746-27.674,4.64c-2.251,0.73-4.536,1.581-6.265,3.198
								c-3.78,3.519-3.701,9.862-1.008,14.267s7.377,7.203,12.104,9.28c13.563,5.943,28.587,8.341,43.393,8.619
								c-5.118,4.101-10.236,8.211-15.353,12.321c-6.386,5.126-13.442,11.834-12.26,19.932c0.669,4.553,3.98,8.376,7.942,10.705
								c3.962,2.329,8.541,3.363,13.059,4.197c15.284,2.798,31.158,3.571,46.294,0.052c12.451-2.893,24.39-8.88,33.383-17.865
								c1.451-1.442,2.824-2.954,4.093-4.544c0.452-0.556,0.886-1.112,1.312-1.686c4.623-6.239,6.004-14.806,6.047-22.574
								c0.096-15.71-2.667-31.593-9.445-45.773c-6.778-14.172-17.734-26.571-31.698-33.774c-8.463-4.37-19.663-6.438-26.901-0.234
								c-7.481,6.412-7.994,18.89-6.717,28.665c-4.327-3.971-8.645-7.942-12.972-11.912c-8.871-8.142-17.926-16.413-28.804-21.566
								c-10.887-5.161-24.086-6.821-34.886-1.486C2352.1,1399.327,2347.92,1403.375,2348.355,1408.207z"/>
						</g>
						<g>
							<g>
								<path style="fill:#2C8556;" d="M2376.038,1414.967c62.977,34.79,104.467,78.583,120.385,97.099
									c1.451-1.442,2.824-2.954,4.093-4.544c-16.631-19.255-58.52-63.073-121.532-97.881c-1.469-0.808-3.328-0.278-4.136,1.199
									C2374.039,1412.308,2374.57,1414.158,2376.038,1414.967z"/>
							</g>
						</g>
					</g>
				</g>
				<g>
					<rect x="2536.404" y="1252.29" width="5" height="451.646"/>
				</g>
				<g>
					<g>
						<path style="fill:#3BB273;" d="M2581.032,1077.909c2.39,3.147,1.98,7.545,1.286,11.437
							c-3.134,17.73-8.645,35.524-18.24,50.763c7.054-6.191,15.021-11.345,23.568-15.229c2.154-0.978,4.416-1.89,6.783-1.861
							c5.164,0.051,9.382,4.789,10.363,9.859c0.98,5.07-0.593,10.293-2.684,15.014c-6.012,13.533-15.491,25.432-26.24,35.619
							c6.545-0.421,13.095-0.835,19.646-1.25c8.173-0.519,17.906-0.32,22.492,6.457c2.575,3.814,2.707,8.87,1.351,13.26
							c-1.357,4.391-4.042,8.241-6.817,11.903c-9.403,12.37-20.607,23.643-34.159,31.247c-11.147,6.257-24.001,9.883-36.7,9.31
							c-2.044-0.087-4.077-0.278-6.086-0.598c-0.709-0.106-1.405-0.224-2.105-0.36c-7.62-1.492-14.416-6.888-19.684-12.597
							c-10.661-11.539-19.327-25.133-23.881-40.176c-4.548-15.036-4.813-31.581,0.644-46.314
							c3.305-8.933,10.183-18.011,19.711-18.308c9.849-0.307,18.638,8.563,24.285,16.644c0.519-5.85,1.032-11.694,1.551-17.544
							c1.064-11.994,2.175-24.207,6.737-35.346c4.562-11.152,13.192-21.275,24.766-24.615
							C2572.28,1073.875,2578.097,1074.048,2581.032,1077.909z"/>
					</g>
					<g>
						<g>
							<path style="fill:#2C8556;" d="M2565.143,1101.564c-23.063,68.151-24.186,128.466-23.461,152.873
								c-2.044-0.087-4.077-0.278-6.086-0.598c-0.697-25.433,0.704-86.036,23.781-154.224c0.54-1.587,2.27-2.449,3.863-1.903
								C2564.826,1098.253,2565.682,1099.978,2565.143,1101.564z"/>
						</g>
					</g>
				</g>
			</g>
			<g>
				<g>
					<path style="fill:#DAAF6C;" d="M2642.989,1616.635v17.343c0,9.167-7.429,16.596-16.596,16.596h-174.977
						c-9.167,0-16.596-7.429-16.596-16.596v-17.343c0-9.167,7.429-16.596,16.596-16.596h174.977
						C2635.56,1600.039,2642.989,1607.468,2642.989,1616.635z"/>
				</g>
				<g>
					<path style="fill:#C56550;" d="M2626.428,1650.573v50.074c0,34.426-27.909,62.334-62.334,62.334h-50.378
						c-34.426,0-62.334-27.909-62.334-62.334v-50.074H2626.428z"/>
				</g>
				<g>
					<path style="fill:#AB855C;" d="M2642.989,1616.635v17.343c0,9.167-7.429,16.596-16.596,16.596h-62.456
						c4.718-15.406,1.816-39.352,0.035-50.535h62.421C2635.56,1600.039,2642.989,1607.468,2642.989,1616.635z"/>
				</g>
				<g>
					<path style="fill:#9B4B37;" d="M2626.428,1650.573v50.074c0,34.426-27.909,62.334-62.334,62.334h-25.432
						c51.517-33.757,32.271-98.819,32.271-98.819h-119.551v-13.589H2626.428z"/>
				</g>
			</g>
		</g>
		<g>
			<g>
				<rect x="1979.607" y="170.683" style="fill:#3BB273;" width="51.268" height="229.304"/>
			</g>
			<g>
				<rect x="1979.607" y="192.099" style="fill:#FFFFFF;" width="51.268" height="17.098"/>
			</g>
		</g>
		<g>
			<g>
				<rect x="2030.648" y="192.099" style="fill:#FECE00;" width="51.268" height="207.888"/>
			</g>
			<g>
				<rect x="2030.648" y="213.515" style="fill:#FFFFFF;" width="51.268" height="17.098"/>
			</g>
		</g>
		<g>
			<g>
				<path style="fill:#4FAFF7;" d="M529.495,299.804c0.774,6.232,2.402,12.408,4.864,18.364l-20.375,20.1l18.412,24.123
					l24.791-14.322c5.087,3.938,10.602,7.113,16.422,9.532l-0.173,28.612l30.069,4.055l7.388-27.669
					c6.226-0.797,12.408-2.403,18.364-4.865l20.094,20.353l24.129-18.389l-14.321-24.791c3.938-5.088,7.113-10.602,9.532-16.422
					l28.612,0.172l4.054-30.069l-27.669-7.387c-0.774-6.232-2.402-12.408-4.865-18.365l20.375-20.1l-18.412-24.123l-24.768,14.315
					c-5.11-3.932-10.625-7.107-16.445-9.526l0.172-28.612l-30.069-4.055l-7.394,27.647c-6.226,0.797-12.402,2.425-18.358,4.887
					l-20.1-20.375l-24.123,18.412l14.315,24.769c-3.932,5.111-7.107,10.624-9.526,16.445l-28.612-0.172l-4.054,30.069
					L529.495,299.804z M589.458,244.409c25.448-6.708,51.512,8.482,58.22,33.93c6.716,25.477-8.474,51.542-33.922,58.25
					c-25.476,6.716-51.541-8.474-58.257-33.951C548.792,277.189,563.982,251.124,589.458,244.409z"/>
			</g>
			<g>
				<path style="fill:#4FAFF7;" d="M330.754,420.185c0.861,6.935,2.673,13.808,5.413,20.436l-22.673,22.367l20.489,26.844
					l27.588-15.937c5.661,4.383,11.798,7.916,18.275,10.608l-0.192,31.84l33.461,4.512l8.222-30.791
					c6.928-0.887,13.807-2.674,20.436-5.414l22.361,22.649l26.851-20.464l-15.937-27.588c4.382-5.662,7.915-11.798,10.608-18.275
					l31.84,0.191l4.511-33.461l-30.79-8.221c-0.862-6.935-2.673-13.808-5.413-20.436l22.673-22.367l-20.489-26.844l-27.563,15.93
					c-5.687-4.376-11.824-7.909-18.301-10.601l0.192-31.84l-33.461-4.512l-8.228,30.766c-6.928,0.887-13.801,2.699-20.429,5.439
					l-22.367-22.674l-26.844,20.489l15.93,27.563c-4.376,5.687-7.909,11.823-10.601,18.3l-31.84-0.191l-4.511,33.461
					L330.754,420.185z M397.481,358.54c28.319-7.465,57.324,9.438,64.789,37.757c7.473,28.351-9.43,57.356-37.749,64.821
					c-28.35,7.473-57.355-9.43-64.829-37.781C352.227,395.018,369.131,366.014,397.481,358.54z"/>
			</g>
		</g>
		<g>
			<g>
				<path style="fill:#4FAFF7;" d="M2295.669,265.156c0.806,6.487,2.5,12.916,5.063,19.116l-21.209,20.922l19.166,25.11
					l25.806-14.908c5.295,4.099,11.036,7.404,17.094,9.922l-0.179,29.783l31.299,4.221l7.69-28.801
					c6.481-0.83,12.915-2.501,19.116-5.064l20.916,21.185l25.116-19.142l-14.907-25.806c4.099-5.296,7.404-11.035,9.923-17.094
					l29.782,0.179l4.22-31.299l-28.801-7.69c-0.806-6.487-2.5-12.916-5.064-19.116l21.209-20.922l-19.166-25.11l-25.782,14.901
					c-5.32-4.093-11.06-7.398-17.118-9.916l0.179-29.783l-31.299-4.221l-7.697,28.778c-6.481,0.83-12.909,2.525-19.11,5.088
					l-20.922-21.209l-25.11,19.165l14.901,25.782c-4.093,5.32-7.398,11.059-9.916,17.118l-29.783-0.179l-4.22,31.299
					L2295.669,265.156z M2358.085,207.495c26.489-6.982,53.62,8.829,60.603,35.318c6.99,26.519-8.821,53.65-35.31,60.633
					c-26.519,6.99-53.65-8.821-60.64-35.34C2315.755,241.616,2331.567,214.485,2358.085,207.495z"/>
			</g>
			<g>
				<path style="fill:#4FAFF7;" d="M2484.661,434.511c0.771,6.206,2.392,12.356,4.844,18.287l-20.289,20.015l18.334,24.021
					l24.687-14.261c5.066,3.922,10.557,7.083,16.353,9.492l-0.172,28.491l29.942,4.038l7.357-27.553
					c6.2-0.794,12.355-2.393,18.287-4.844l20.009,20.267l24.027-18.312l-14.261-24.687c3.921-5.066,7.083-10.557,9.492-16.353
					l28.491,0.171l4.037-29.942l-27.552-7.356c-0.771-6.206-2.392-12.356-4.844-18.287l20.289-20.015l-18.334-24.021l-24.664,14.255
					c-5.089-3.916-10.58-7.077-16.376-9.486l0.172-28.491l-29.942-4.038l-7.363,27.53c-6.2,0.794-12.349,2.415-18.281,4.867
					l-20.015-20.289l-24.021,18.334l14.255,24.664c-3.915,5.089-7.077,10.579-9.486,16.375l-28.491-0.171l-4.037,29.942
					L2484.661,434.511z M2544.371,379.35c25.34-6.68,51.295,8.446,57.975,33.786c6.688,25.37-8.438,51.324-33.779,58.004
					c-25.369,6.687-51.324-8.438-58.011-33.808C2503.876,411.991,2519.002,386.037,2544.371,379.35z"/>
			</g>
		</g>
		<g>
			<path style="fill:#4FAFF7;" d="M1722.797,187.275c0.538,4.335,1.671,8.631,3.383,12.773l-14.172,13.98l12.806,16.778
				l17.243-9.961c3.538,2.739,7.374,4.948,11.422,6.63l-0.12,19.901l20.914,2.82l5.139-19.245c4.33-0.555,8.63-1.671,12.773-3.384
				l13.976,14.156l16.783-12.791l-9.961-17.243c2.739-3.539,4.947-7.374,6.63-11.422l19.901,0.12l2.82-20.914l-19.245-5.138
				c-0.539-4.335-1.671-8.631-3.384-12.773l14.172-13.98l-12.806-16.778l-17.227,9.957c-3.555-2.735-7.39-4.943-11.438-6.626
				l0.12-19.901l-20.914-2.82l-5.143,19.229c-4.331,0.555-8.626,1.687-12.769,3.4l-13.98-14.172l-16.778,12.806l9.957,17.228
				c-2.735,3.555-4.943,7.389-6.626,11.438l-19.901-0.12l-2.82,20.914L1722.797,187.275z M1765.559,152.753
				c15.487-4.082,31.35,5.162,35.432,20.649c4.087,15.505-5.157,31.367-20.645,35.45c-15.505,4.087-31.367-5.157-35.454-20.662
				C1740.81,172.702,1750.054,156.84,1765.559,152.753z"/>
		</g>
	</g>
</g>
</svg>
