<svg id="Шар_1" enable-background="new 0 0 512 512" height="512" viewBox="0 0 512 512" width="512" xmlns="http://www.w3.org/2000/svg"><g><circle cx="152.244" cy="110.264" r="19.809"/><path d="m283.091 247.114-33.615 33.616 50.11 50.11c9.353 9.356 24.503 9.426 33.771.156 9.269-9.268 9.199-24.417-.156-33.771z"/><path d="m96.78 403.431c0-4.376-3.547-7.923-7.923-7.923h-63.388c-4.376 0-7.923 3.547-7.923 7.923v91.12c0 2.188 1.774 3.962 3.962 3.962h75.272z"/><path d="m488.99 494.551v-289.206c0-4.376-3.547-7.923-7.923-7.923h-63.388c-4.376 0-7.923 3.547-7.923 7.923v293.167h75.273c2.187 0 3.961-1.773 3.961-3.961z"/><path d="m152.244 256.847c58.981 0 106.966-47.985 106.966-106.966s-47.985-106.967-106.966-106.967-106.967 47.985-106.967 106.967 47.985 106.966 106.967 106.966zm0-182.239c19.661 0 35.655 15.995 35.655 35.655s-15.995 35.655-35.655 35.655-35.655-15.995-35.655-35.655c-.001-19.66 15.994-35.655 35.655-35.655zm-55.464 118.852c0-19.661 15.995-35.655 35.655-35.655h39.617c19.661 0 35.655 15.995 35.655 35.655v7.923c0 4.376-3.547 7.923-7.923 7.923s-7.923-3.547-7.923-7.923v-7.923c0-10.922-8.886-19.809-19.809-19.809h-39.617c-10.922 0-19.809 8.886-19.809 19.809v7.923c0 4.376-3.547 7.923-7.923 7.923s-7.923-3.547-7.923-7.923z"/><path d="m288.38 342.045-9.362-9.362v165.828h79.234v-174.778h-3.294c-1.658 6.778-5.12 13.192-10.395 18.468-7.696 7.695-17.812 11.539-27.949 11.539-10.209 0-20.439-3.9-28.234-11.695z"/><path d="m148.282 379.661v118.852h79.234v-118.852c0-4.368-3.554-7.923-7.923-7.923h-63.388c-4.369-.001-7.923 3.554-7.923 7.923z"/><path d="m215.86 282.07c6.325 0 12.27-2.454 16.76-6.902.015-.015.028-.032.043-.047.04-.04.085-.074.126-.114l44.591-44.593c.036-.037.067-.078.104-.115.035-.035.074-.065.109-.099 4.496-4.497 6.972-10.475 6.972-16.836 0-6.362-2.477-12.343-6.976-16.841l-8.578-8.578c-12.119 37.086-41.444 66.456-78.502 78.637l8.51 8.51c4.498 4.5 10.479 6.978 16.841 6.978z"/><path d="m199.007 319.509c.979-2.377.975-4.991-.012-7.364s-2.839-4.22-5.214-5.2c-2.377-.982-4.992-.976-7.364.012-54.873 22.825-114.49 35.722-177.196 38.329-5.3.221-9.433 4.713-9.213 10.014.215 5.171 4.435 9.221 9.607 9.221.133 0 .267-.002.406-.008 64.981-2.704 126.816-16.091 183.786-39.791 2.374-.985 4.22-2.838 5.2-5.213z"/><path d="m480.879 17.397c-.06-.084-.119-.168-.175-.237-.121-.155-.25-.301-.44-.514-.055-.065-.112-.129-.164-.183-.16-.168-.328-.324-.521-.5l-.153-.141c-.182-.157-.372-.303-.573-.451l-.17-.128c-.183-.129-.374-.248-.62-.397l-.19-.116c-.151-.085-.31-.162-.468-.239l-.111-.055c-.074-.039-.148-.077-.213-.107l-.139-.057c-.101-.042-.216-.086-.389-.151l-.113-.042c-.115-.044-.23-.087-.296-.107l-.127-.045c-.108-.034-.217-.062-.325-.087l-.14-.036c-.126-.035-.253-.07-.369-.094-.198-.043-.397-.075-.646-.113-.087-.015-.176-.03-.274-.041-.227-.028-.454-.042-.721-.054l-.2-.01c-.245-.004-.49.002-.789.018l-.145.008c-.244.019-.484.05-.775.094l-.165.025c-.234.041-.466.094-.724.16l-.199.05c-.221.062-.44.136-.637.207l-76.804 29.417c-4.953 1.898-7.44 7.474-5.542 12.428 1.897 4.949 7.471 7.436 12.428 5.541l56.858-21.785c-11.84 28.662-51.21 111.013-137.58 185.189-4.025 3.456-4.487 9.543-1.03 13.568 1.829 2.13 4.491 3.353 7.302 3.353 2.296 0 4.521-.825 6.265-2.322 39.494-33.919 74.02-73.326 102.615-117.126 15.552-23.823 29.25-49.207 38.858-71.959l20.115 52.502c1.417 3.696 5.028 6.18 8.986 6.18 1.177 0 2.335-.215 3.441-.639 4.954-1.902 7.441-7.478 5.543-12.432l-29.235-76.306-.039-.088c-.061-.155-.129-.305-.241-.549-.047-.105-.095-.21-.149-.314-.063-.123-.132-.242-.243-.433l-.057-.1c-.05-.086-.098-.171-.163-.272-.085-.133-.177-.261-.27-.388z"/></g></svg>