<svg viewBox="0 0 64 64" xmlns="http://www.w3.org/2000/svg"><g id="Accept_Call" data-name="Accept Call"><path d="m58.89 9.77v18.33a2.009 2.009 0 0 1 -2.15 1.84h-2.64a.47551.47551 0 0 0 -.36.15l-5.46 5.62a.23441.23441 0 0 1 -.39-.17v-5.12a.48233.48233 0 0 0 -.49-.48h-16.37a2.15609 2.15609 0 0 1 -1.97-1.12 1.52616 1.52616 0 0 1 -.16-.6.48611.48611 0 0 1 -.01-.12v-18.33a2.005 2.005 0 0 1 2.14-1.83h25.71a1.7536 1.7536 0 0 1 .4.04 2.15987 2.15987 0 0 1 .68.21 1.78364 1.78364 0 0 1 1.07 1.58z" fill="#d2d2d2"/><path d="m57.15 8.09v18.33a2.01252 2.01252 0 0 1 -2.14 1.84h-2.64a.54855.54855 0 0 0 -.37.15l-4.11 4.24v-2.23a.48233.48233 0 0 0 -.49-.48h-1.25v-1.2a.4717.4717 0 0 0 -.47-.48h-16.38a1.74979 1.74979 0 0 1 -.4-.04.48611.48611 0 0 1 -.01-.12v-18.33a2.005 2.005 0 0 1 2.14-1.83h25.71a1.7536 1.7536 0 0 1 .4.04.40973.40973 0 0 1 .01.11z" fill="#f6f4e6"/><path d="m55.11 46.47c-.31 3.81-1.83 7.48-5.03 9.74-8.2 5.78-18.41.1-25.32-5.09-7.93-5.95-14.66-14.17-17.96-23.58-2.26-6.43-2.96-16.23 2.49-20.57a10.05 10.05 0 0 1 6.09-1.59 2.46918 2.46918 0 0 1 .28.02 4.62487 4.62487 0 0 1 .69.09.65506.65506 0 0 1 .42.33l5.38 12.92a.74.74 0 0 1 -.1.85l-5.3 5.77a.68957.68957 0 0 0 -.17.66 30.29385 30.29385 0 0 0 8.43 14.09 26.74246 26.74246 0 0 0 10.43 5.99.57554.57554 0 0 0 .6-.18l5.07-6.04a.61262.61262 0 0 1 .7-.14c4.12 1.82 8.78 4.18 12.9 6.01a.529.529 0 0 1 .26.23.82092.82092 0 0 1 .07.13.64788.64788 0 0 1 .07.36z" fill="#54b646"/><path d="m54.97 45.98a15.36092 15.36092 0 0 1 -.46 2.14 11.28164 11.28164 0 0 1 -4.23 6.1c-7.89 5.55-17.69.1-24.34-4.89-7.61-5.72-14.08-13.61-17.25-22.66-2.18-6.17-2.85-15.59 2.39-19.76a7.4444 7.4444 0 0 1 2.98-1.28 11.01306 11.01306 0 0 1 1.6-.23 4.62487 4.62487 0 0 1 .69.09.65506.65506 0 0 1 .42.33l5.38 12.92a.74.74 0 0 1 -.1.85l-5.3 5.77a.68957.68957 0 0 0 -.17.66 30.29385 30.29385 0 0 0 8.43 14.09 26.74246 26.74246 0 0 0 10.43 5.99.57554.57554 0 0 0 .6-.18l5.07-6.04a.61262.61262 0 0 1 .7-.14c4.12 1.82 8.78 4.18 12.9 6.01a.529.529 0 0 1 .26.23z" fill="#54e346"/><path d="m55.11 46.47a15.9749 15.9749 0 0 1 -.63 3.39c-3.74-1.74-10.56-4.91-15.64-7.28l2.27-2.7a.61262.61262 0 0 1 .7-.14c4.12 1.82 8.78 4.18 12.9 6.01a.71851.71851 0 0 1 .4.72z" fill="#f6f4e6"/><path d="m22.05 19.59-2.57 2.79-7.08-16.74a10.34905 10.34905 0 0 1 3.95-.15.65506.65506 0 0 1 .42.33l5.38 12.92a.74.74 0 0 1 -.1.85z" fill="#f6f4e6"/><path d="m40.181 25.01353-4.37159-4.3716a2.287 2.287 0 0 1 .00834-3.23426 2.287 2.287 0 0 1 3.23427-.00834l2.5794 2.5794 7.09747-7.09745a2.287 2.287 0 0 1 3.23426-.00834 2.287 2.287 0 0 1 -.00834 3.23426l-8.89891 8.89891a2.0329 2.0329 0 0 1 -2.8749.00742z" fill="#54e346"/><g fill="#363838"><path d="m48.10254 36.76318a1.19614 1.19614 0 0 1 -.498-.10937 1.2284 1.2284 0 0 1 -.71777-1.11328v-4.603h-15.85747a3.00367 3.00367 0 0 1 -3.14258-2.8335v-18.33303a3.00367 3.00367 0 0 1 3.14258-2.8335h25.71386a3.004 3.004 0 0 1 3.14356 2.8335v18.333a3.004 3.004 0 0 1 -3.14356 2.8335h-2.43457l-5.31543 5.46826a1.34928 1.34928 0 0 1 -.89062.35742zm-17.07324-27.82568c-.61914 0-1.14258.38184-1.14258.8335v18.333c0 .45166.52344.8335 1.14258.8335h16.375a1.48372 1.48372 0 0 1 1.48242 1.48193v3.231l4.13476-4.25732a1.51125 1.51125 0 0 1 1.07715-.45557h2.64453c.62012 0 1.14356-.38184 1.14356-.8335v-18.33304c0-.45166-.52344-.8335-1.14356-.8335z"/><path d="m55.11719 44.834c-2.03125-.90039-4.24024-1.95312-6.376-2.9707-2.18359-1.04-4.44141-2.11621-6.53223-3.04053a1.64535 1.64535 0 0 0 -1.86914.41846l-4.87793 5.81885a25.93189 25.93189 0 0 1 -9.77343-5.68115 29.03287 29.03287 0 0 1 -8.09668-13.46l5.1914-5.64844a1.73684 1.73684 0 0 0 .26758-1.95362l-5.36228-12.88035-.05078-.10547a1.62334 1.62334 0 0 0 -1.09082-.82177 11.0568 11.0568 0 0 0 -7.87988 1.67529c-5.59766 4.45943-5.38184 14.36621-2.81153 21.68457 3.1709 9.03076 9.6709 17.57178 18.30176 24.05029 6.85547 5.14551 12.94043 7.72412 18.19238 7.72364a14.09957 14.09957 0 0 0 8.30566-2.61768c3.14551-2.21582 5.08106-5.93652 5.44727-10.44238a1.70565 1.70565 0 0 0 -.98535-1.74901zm-7.23633-1.165c2.07519.98876 4.21777 2.00976 6.21582 2.8999a15.64038 15.64038 0 0 1 -.29993 1.87677l-13.35064-6.22082 1.21989-1.45532c1.99025.88623 4.13673 1.90918 6.21486 2.89947zm-32.98828-37.3106a6.82125 6.82125 0 0 1 1.04394.07324l5.25293 12.61719-1.38781 1.51007-5.97895-14.13617a10.19918 10.19918 0 0 1 1.06989-.06433zm34.61035 49.03223c-5.9502 4.19384-14.07715 2.48632-24.14453-5.07081-8.3184-6.24316-14.57422-14.45166-17.61621-23.11377-2.34278-6.67187-2.66309-15.60644 2.1709-19.45705a5.90352 5.90352 0 0 1 1.90942-.92151l6.49207 15.34943-2.296 2.49835a1.69414 1.69414 0 0 0 -.40039 1.61182 31.07 31.07 0 0 0 8.71289 14.56055 27.91541 27.91541 0 0 0 10.81641 6.208 1.62109 1.62109 0 0 0 1.66016-.49023l2.3089-2.75446 14.1192 6.57886a10.52511 10.52511 0 0 1 -3.73282 5.00082z"/><path d="m41.61133 26.604a3.01531 3.01531 0 0 1 -2.1377-.88281v-.00049l-4.37109-4.37158a3.29544 3.29544 0 0 1 2.33105-5.61572h.00879a3.2517 3.2517 0 0 1 2.31641.959l1.873 1.87207 6.38964-6.39013a3.27675 3.27675 0 0 1 2.32325-.96729h.00879a3.25166 3.25166 0 0 1 2.3164.959 3.29038 3.29038 0 0 1 -.00781 4.64843l-8.89936 8.8989a3.03588 3.03588 0 0 1 -2.15137.89062zm-.72363-2.29785a1.03326 1.03326 0 0 0 1.46093-.00683l8.89942-8.89893a1.28849 1.28849 0 0 0 .00781-1.82031 1.26537 1.26537 0 0 0 -.90234-.37305h-.00293a1.29008 1.29008 0 0 0 -.915.38135l-7.09668 7.09717a.99965.99965 0 0 1 -1.41407 0l-2.58007-2.5791a1.26536 1.26536 0 0 0 -.90235-.373h-.00293a1.29546 1.29546 0 0 0 -.92285 2.20166z"/></g></g></svg>