<?xml version="1.0" encoding="UTF-8"?>
<svg xmlns="http://www.w3.org/2000/svg" id="Layer_3" data-name="Layer 3" viewBox="0 0 27 27" width="512" height="512"><path d="M22,2H5A3.00328,3.00328,0,0,0,2,5V22a3.00328,3.00328,0,0,0,3,3H22a3.00328,3.00328,0,0,0,3-3V5A3.00328,3.00328,0,0,0,22,2ZM11.47461,19.56055a.99989.99989,0,1,1-1.41406,1.41406L9,19.91406,7.93945,20.97461a.99989.99989,0,1,1-1.41406-1.41406L7.58594,18.5,6.52539,17.43945a.99989.99989,0,1,1,1.41406-1.41406L9,17.08594l1.06055-1.06055a.99989.99989,0,0,1,1.41406,1.41406L10.41406,18.5ZM11.5,10.5H10V12a1,1,0,0,1-2,0V10.5H6.5a1,1,0,0,1,0-2H8V7a1,1,0,0,1,2,0V8.5h1.5a1,1,0,0,1,0,2ZM21,21H16a1,1,0,0,1,0-2h5a1,1,0,0,1,0,2Zm0-3H16a1,1,0,0,1,0-2h5a1,1,0,0,1,0,2Zm0-7.5H16a1,1,0,0,1,0-2h5a1,1,0,0,1,0,2Z"/></svg>
