<svg id="Layer_1" height="512" viewBox="0 0 64 64" width="512" xmlns="http://www.w3.org/2000/svg" data-name="Layer 1"><circle cx="18.5" cy="39" fill="#00836d" r="7.5"/><circle cx="45.5" cy="8.771" fill="#fdca59" r="7.5"/><path d="m45.5 11.75364a1.1179 1.1179 0 0 1 -1.1167-1.11621h-1.5a2.6114 2.6114 0 0 0 1.8667 2.49347v1.03973h1.5v-1.03973a2.60928 2.60928 0 0 0 -.75-5.11066 1.1167 1.1167 0 1 1 1.1167-1.11624h1.5a2.61191 2.61191 0 0 0 -1.8667-2.49442v-1.23895h-1.5v1.239a2.60928 2.60928 0 0 0 .75 5.11066 1.1167 1.1167 0 1 1 0 2.2334z" fill="#596580"/><path d="m17.75 38.59863-2.666 1.77737.832 1.248 3-2a.74952.74952 0 0 0 .334-.624v-5h-1.5z" fill="#c2daf2"/><path d="m32 4.75c.65186 0 1.30713.02344 1.94678.06836l.10644-1.49609c-.67529-.04786-1.36622-.07227-2.05322-.07227a28.77509 28.77509 0 0 0 -28.08838 34.91016l1.46582-.32032a27.27335 27.27335 0 0 1 26.62256-33.08984z" fill="#7d8db3"/><path d="m58.62256 37.83984a27.39491 27.39491 0 0 1 -26.62256 21.41016v1.5a28.90419 28.90419 0 0 0 28.08838-22.58984z" fill="#7d8db3"/><path d="m30.96034 50.02739c-.2374-1.46812-1.45113-2.35823-2.60662-1.91161l-10.70507 4.457-1.69645-2.09818a1.28521 1.28521 0 0 0 -.9938-.50906h-9.9584v9.855l3.75944-.80822a1.1608 1.1608 0 0 1 .87139.17383l5.39676 3.58919a3.92945 3.92945 0 0 0 3.661-.56491l11.458-9.63776a2.833 2.833 0 0 0 .81375-2.54528z" fill="#d9b190"/><path d="m1 48.632h4v12h-4z" fill="#3987bf"/><path d="m17.64865 57.45725a1.6779 1.6779 0 0 1 -1.30247-.66622l-2.45946-3.04168.49684-.61445 2.45944 3.04168a1.01368 1.01368 0 0 0 1.61127 0 1.65708 1.65708 0 0 0 0-1.99271l-2.7504-3.40237a.95615.95615 0 0 0 -.74525-.38106h-9.95862v-.86905h9.95862a1.59574 1.59574 0 0 1 1.24208.63566l2.75043 3.40238a2.679 2.679 0 0 1 0 3.2216 1.6779 1.6779 0 0 1 -1.30248.66622z" fill="#bf9172"/><path d="m33.03966 19.02739v-.00005c.2374-1.46812 1.45113-2.35823 2.60662-1.91161l10.70507 4.457 1.69645-2.0981a1.28521 1.28521 0 0 1 .9938-.50906h9.9584v9.855l-3.75944-.80822a1.1608 1.1608 0 0 0 -.87139.17383l-5.39676 3.58919a3.92945 3.92945 0 0 1 -3.66105-.56491l-11.458-9.63776a2.833 2.833 0 0 1 -.8137-2.54531z" fill="#d9b190"/><path d="m59 17.632h4v12h-4z" fill="#3987bf"/><path d="m46.35135 26.45725a1.6779 1.6779 0 0 0 1.30247-.66622l2.45946-3.04168-.49684-.61445-2.45944 3.04168a1.01368 1.01368 0 0 1 -1.61127 0 1.65708 1.65708 0 0 1 0-1.99271l2.75042-3.40237a.95615.95615 0 0 1 .74525-.38106h9.9586v-.86905h-9.95862a1.59574 1.59574 0 0 0 -1.24208.63566l-2.75043 3.40238a2.679 2.679 0 0 0 0 3.2216 1.6779 1.6779 0 0 0 1.30248.66622z" fill="#bf9172"/></svg>