<svg enable-background="new 0 0 32 32" height="512" viewBox="0 0 32 32" width="512" xmlns="http://www.w3.org/2000/svg"><g id="_x30_9"><path d="m7 14c-1.6543 0-3-1.3457-3-3s1.3457-3 3-3 3 1.3457 3 3-1.3457 3-3 3zm0-4c-.5518 0-1 .4487-1 1s.4482 1 1 1 1-.4487 1-1-.4482-1-1-1z"/><circle cx="7" cy="11" r="3"/><circle cx="25" cy="11" r="3"/><path d="m20 6c-.2539 0-.5078-.0962-.7031-.2886-2.3301-2.3027-7.2637-2.3027-9.5938 0-.3935.3872-1.0263.3853-1.414-.0088-.3887-.3925-.3848-1.0258.0078-1.414 3.0723-3.0352 9.334-3.0352 12.4063 0 .3926.3882.3965 1.0215.0078 1.4141-.1954.1982-.4532.2973-.711.2973z"/><path d="m21 7h-3c-.5527 0-1-.4478-1-1s.4473-1 1-1h2v-2c0-.5522.4473-1 1-1s1 .4478 1 1v3c0 .5522-.4473 1-1 1z"/><path d="m11 25h3c.5527 0 1 .4478 1 1s-.4473 1-1 1h-2v2c0 .5522-.4473 1-1 1s-1-.4478-1-1v-3c0-.5522.4473-1 1-1z"/><path d="m17.5 29.9874c-2.333 0-4.667-.7588-6.2031-2.2764-.3926-.3882-.3965-1.0215-.0078-1.4141.3877-.3931 1.0205-.396 1.4141-.0088 2.3301 2.3027 7.2637 2.3027 9.5937 0 .3936-.3872 1.0264-.3843 1.4141.0088.3887.3926.3848 1.0259-.0078 1.4141-1.5362 1.5177-3.8702 2.2764-6.2032 2.2764z"/><path d="m7 15c-2.7568 0-5 2.2432-5 5v3c0 .5522.4473 1 1 1h8c.5527 0 1-.4478 1-1v-3c0-2.7568-2.2432-5-5-5z"/><path d="m25 15c-2.7568 0-5 2.2432-5 5v3c0 .5522.4473 1 1 1h8c.5527 0 1-.4478 1-1v-3c0-2.7568-2.2432-5-5-5z"/></g></svg>