<svg id="Layer_1" enable-background="new 0 0 512 512" height="512" viewBox="0 0 512 512" width="512" xmlns="http://www.w3.org/2000/svg"><path clip-rule="evenodd" d="m113.966 438.664c-7.358-3.944-10.247-13.49-6.316-20.848 0 0 15.019-28.09 15.029-28.099 3.935-7.373 13.504-10.251 20.863-6.307 7.363 3.93 10.241 13.48 6.306 20.839 0 0-15.048 28.129-15.058 28.153-3.926 7.339-13.505 10.173-20.824 6.262zm62.64-232.214h25.851v-59.96c0-3.618 2.931-6.549 6.549-6.549 3.617 0 6.548 2.931 6.548 6.549v59.96h80.428v-59.96c0-3.618 2.931-6.549 6.548-6.549s6.548 2.931 6.548 6.549v59.96h25.852v-77.86c0-17.899-19.64-25.441-31.346-28.345-32.298-8.013-64.455-8.017-95.578-.011-14.324 3.68-31.4 11.589-31.4 28.356zm47.142-172.861c0-29.225 20.062-33.589 32.021-33.589 11.957 0 32.021 4.364 32.021 33.589 0 24.34-14.365 44.143-32.021 44.143-17.658-.001-32.021-19.803-32.021-44.143zm194.36 330.746c-2.464-3.048-5.523-5.698-9.122-7.753l-81.849-46.649c-7.164-4.086-14.541-5.698-22.036-5.698-14.508 0-29.444 6.049-44.049 11.956-27.749 11.24-52.006 21.058-74.671-3.696 21.988-13.339 40.761-27.817 55.902-43.123 6.672-6.74 13.456-12.506 20.142-17.133 31.981-22.105 54.09-13.066 75.479-4.324 15.598 6.375 31.723 12.969 48.607 4.178l33.466-17.916 43.036 111.02zm-11.113 27.578c4.032-7.329 1.256-16.743-6.185-20.984l-81.849-46.649c-14.069-8.021-31.513-.959-51.704 7.227-30.335 12.272-68.086 27.564-100.004-16.412-1.374-1.899-1.88-4.295-1.393-6.584.497-2.293 1.938-4.266 3.974-5.43 24.311-13.928 44.735-29.176 60.718-45.329 4.149-4.193 8.352-8.045 12.569-11.547-18.146-8.244-33.515-4.616-49.639-.803-15.589 3.682-31.714 7.49-48.164-1.612l-46.629-21.51-49.703 105.77c.808.36 1.704.764 2.683 1.207 13.938 6.278 39.855 17.96 44.614 19.811 12.16 4.714 15.082 16.514 16.85 25.918 3.755-3.954 8.493-6.896 13.884-8.527 8.172-2.474 16.801-1.626 24.296 2.377 7.476 3.984 12.969 10.685 15.452 18.856.618 2.046 1.047 4.11 1.251 6.185 7.193-1.603 14.975-.755 21.978 2.995 7.471 3.984 12.964 10.685 15.452 18.856.166.526.307 1.062.443 1.602.507-.185 1.008-.351 1.539-.507 8.172-2.479 16.801-1.641 24.296 2.376 7.475 3.974 12.968 10.67 15.452 18.846.166.536.312 1.072.448 1.597.501-.175 1.018-.346 1.534-.506 8.176-2.474 16.806-1.626 24.301 2.377 3.662 1.953 6.842 4.553 9.433 7.66l35.911 19.86c7.446 4.091 16.836 1.373 20.926-6.068 4.057-7.383 1.301-16.786-6.141-20.965l-50.521-28.441c-3.974-2.24-5.386-7.275-3.146-11.249s7.276-5.382 11.25-3.141l63.908 35.716c7.441 4.091 16.836 1.364 20.921-6.078 4.056-7.373 1.3-16.777-6.141-20.965-.204-.117-50.506-28.562-50.506-28.562-3.974-2.25-5.376-7.29-3.127-11.25 2.236-3.974 7.276-5.381 11.25-3.141l58.673 33.145c7.278 4.111 16.847 1.145 20.846-6.121zm-96.849 108.79c-4.086 7.441-13.48 10.169-20.921 6.083l-11.181-6.156 8.517-15.905c2.104-3.955 3.331-8.216 3.662-12.565l13.719 7.548.112.058c7.446 4.121 10.178 13.515 6.092 20.937zm-61.687 10.621c-3.954 1.198-8.113.794-11.727-1.134-7.49-4.003-10.319-13.358-6.316-20.853l14.41-26.94c3.77-7.466 13.617-10.188 20.863-6.307 7.349 3.935 10.242 13.49 6.307 20.843l-14.41 26.94c-1.934 3.604-5.173 6.253-9.127 7.451zm-43.786-18.477c-3.954 1.198-8.123.794-11.727-1.135-7.495-4.003-10.334-13.358-6.316-20.853l16.46-30.783c.93-2.805 5.668-6.097 8.269-7.139 4.037-1.622 8.786-1.208 12.594.823 3.584 1.909 6.224 5.143 7.422 9.097 1.208 3.974.814 8.143-1.115 11.746l-16.465 30.793c-1.929 3.599-5.172 6.253-9.122 7.451zm-45.636-15.038c3.954-1.198 7.193-3.852 9.121-7.456l20.366-38.069c1.933-3.613 2.323-7.782 1.115-11.756-1.193-3.945-3.837-7.173-7.422-9.082-7.495-4.008-16.816-1.199-20.839 6.253l-20.39 38.122c-4.003 7.495-1.174 16.845 6.321 20.853 3.605 1.929 7.774 2.333 11.728 1.135z" fill-rule="evenodd"/></svg>