<svg id="Layer_1" height="512" viewBox="0 0 66 66" width="512" xmlns="http://www.w3.org/2000/svg"><g><g><g><path d="m47.6 59.7v2.6c0 .5-.5 1-1 1h-27.2c-.5 0-1-.5-1-1v-2.6c0-1.9 1.6-3.5 3.5-3.5h3.2l1-5.8h13.8l1 5.8h3.2c1.9 0 3.5 1.6 3.5 3.5z"/></g></g><g><path d="m61 2.7h-56c-2.2 0-4 1.8-4 4v37.6c0 2.2 1.8 4 4 4h56c2.2 0 4-1.8 4-4v-37.5c0-2.2-1.8-4.1-4-4.1zm-28 42c-1.3 0-2.4-1.1-2.4-2.4s1.1-2.4 2.4-2.4 2.4 1.1 2.4 2.4-1.1 2.4-2.4 2.4zm30-8.5h-60v-29.4c0-1.1.9-2 2-2h56c1.1 0 2 .9 2 2z"/></g><g><g><path d="m32.2 18.8v14.6c0 .5-.5 1-1 1h-5.7c-.6 0-1-.5-1-1v-14.6c0-.6.4-1 1-1h5.7c.5 0 1 .5 1 1z"/></g><g><path d="m41.6 22.1v11.3c0 .5-.4 1-1 1h-5.7c-.6 0-1-.5-1-1v-11.3c0-.6.4-1 1-1h5.7c.5 0 1 .4 1 1z"/></g><g><path d="m51 15.7v17.7c0 .5-.5 1-1 1h-5.7c-.5 0-1-.5-1-1v-17.7c0-.6.5-1 1-1h5.7c.5 0 1 .5 1 1z"/></g><g><path d="m22.7 25.6v7.9c0 .5-.4 1-1 1h-5.7c-.6 0-1-.5-1-1v-7.9c0-.6.4-1 1-1h5.7c.6 0 1 .4 1 1z"/></g></g><g><g><path d="m47.5 11.5c0 .6-.4 1-1 1-.1 0-1 0-1-.9l-.1-1.9-7.8 7c-.3.3-.8.3-1.1.1l-8.9-4.8-9.7 7.6c-.4.4-1.1.3-1.4-.2-.3-.4-.3-1.1.2-1.4l10.2-8c.3-.3.8-.3 1.1-.1l8.8 4.8 6.8-6.1-2.1.1c-.5 0-1-.4-1-1s.4-1 1-1l4.9-.1c.5 0 1 .4 1 1z"/></g></g></g></svg>