<svg id="Capa_1" enable-background="new 0 0 512 512" height="512" viewBox="0 0 512 512" width="512" xmlns="http://www.w3.org/2000/svg"><g><path d="m454.286 143.082h-447.146l-7.14 1v283.307c0 11.379 9.225 20.604 20.604 20.604h242.313c.172-2.366.878-4.708 2.126-6.868l108.03-187.114c2.894-5.012 8.077-8.004 13.863-8.004h.001c5.787 0 10.97 2.992 13.863 8.004l60.736 105.198v-215.127z" fill="#f3eae6"/><g><g><path d="m58.189 427.389v-283.307h-58.189v283.307c0 11.379 9.225 20.604 20.604 20.604h58.189c-11.379 0-20.604-9.225-20.604-20.604z" fill="#e1d3ce"/></g><g><path d="m440.932 73.775h-420.328c-11.379 0-20.604 9.224-20.604 20.603v49.704h461.536v-49.704c0-11.379-9.225-20.603-20.604-20.603z" fill="#fe646f"/></g><g><path d="m78.793 73.774h-58.189c-11.379 0-20.604 9.225-20.604 20.604v49.704h58.189v-49.704c0-11.379 9.225-20.604 20.604-20.604z" fill="#fb2b3a"/></g><g><g><path d="m92.083 239.287h-34.816c-1.879 0-3.402-1.523-3.402-3.402v-34.816c0-1.879 1.523-3.402 3.402-3.402h34.816c1.879 0 3.402 1.523 3.402 3.402v34.816c0 1.879-1.524 3.402-3.402 3.402z" fill="#b9acac"/></g><g><path d="m71.185 235.885v-34.816c0-1.879 1.523-3.402 3.402-3.402h-17.32c-1.879 0-3.402 1.523-3.402 3.402v34.816c0 1.879 1.523 3.402 3.402 3.402h17.32c-1.879 0-3.402-1.523-3.402-3.402z" fill="#9e9797"/></g><g><path d="m164.917 239.287h-34.816c-1.879 0-3.402-1.523-3.402-3.402v-34.816c0-1.879 1.523-3.402 3.402-3.402h34.816c1.879 0 3.402 1.523 3.402 3.402v34.816c0 1.879-1.523 3.402-3.402 3.402z" fill="#b9acac"/></g><g><path d="m144.019 235.885v-34.816c0-1.879 1.523-3.402 3.402-3.402h-17.32c-1.879 0-3.402 1.523-3.402 3.402v34.816c0 1.879 1.523 3.402 3.402 3.402h17.32c-1.878 0-3.402-1.523-3.402-3.402z" fill="#9e9797"/></g><g><path d="m236.451 239.287h-34.816c-1.879 0-3.402-1.523-3.402-3.402v-34.816c0-1.879 1.523-3.402 3.402-3.402h34.816c1.879 0 3.402 1.523 3.402 3.402v34.816c0 1.879-1.523 3.402-3.402 3.402z" fill="#b9acac"/></g><g><path d="m309.286 239.287h-34.816c-1.879 0-3.402-1.523-3.402-3.402v-34.816c0-1.879 1.523-3.402 3.402-3.402h34.816c1.879 0 3.402 1.523 3.402 3.402v34.816c0 1.879-1.523 3.402-3.402 3.402z" fill="#fe99a0"/></g><g><path d="m288.388 235.885v-34.816c0-1.879 1.523-3.402 3.402-3.402h-17.32c-1.879 0-3.402 1.523-3.402 3.402v34.816c0 1.879 1.523 3.402 3.402 3.402h17.32c-1.879 0-3.402-1.523-3.402-3.402z" fill="#fd8087"/></g><g><path d="m92.083 314.723h-34.816c-1.879 0-3.402-1.523-3.402-3.402v-34.816c0-1.879 1.523-3.402 3.402-3.402h34.816c1.879 0 3.402 1.523 3.402 3.402v34.816c0 1.879-1.524 3.402-3.402 3.402z" fill="#b9acac"/></g><g><path d="m164.917 314.723h-34.816c-1.879 0-3.402-1.523-3.402-3.402v-34.816c0-1.879 1.523-3.402 3.402-3.402h34.816c1.879 0 3.402 1.523 3.402 3.402v34.816c0 1.879-1.523 3.402-3.402 3.402z" fill="#b9acac"/></g><g><path d="m236.451 314.723h-34.816c-1.879 0-3.402-1.523-3.402-3.402v-34.816c0-1.879 1.523-3.402 3.402-3.402h34.816c1.879 0 3.402 1.523 3.402 3.402v34.816c0 1.879-1.523 3.402-3.402 3.402z" fill="#b9acac"/></g><g><path d="m309.286 314.723h-34.816c-1.879 0-3.402-1.523-3.402-3.402v-34.816c0-1.879 1.523-3.402 3.402-3.402h34.816c1.879 0 3.402 1.523 3.402 3.402v34.816c0 1.879-1.523 3.402-3.402 3.402z" fill="#fe99a0"/></g><g><path d="m288.388 311.321v-34.816c0-1.879 1.523-3.402 3.402-3.402h-17.32c-1.879 0-3.402 1.523-3.402 3.402v34.816c0 1.879 1.523 3.402 3.402 3.402h17.32c-1.879 0-3.402-1.523-3.402-3.402z" fill="#fd8087"/></g><g><path d="m92.083 390.159h-34.816c-1.879 0-3.402-1.523-3.402-3.402v-34.816c0-1.879 1.523-3.402 3.402-3.402h34.816c1.879 0 3.402 1.523 3.402 3.402v34.816c0 1.879-1.524 3.402-3.402 3.402z" fill="#b9acac"/></g><g><path d="m164.917 390.159h-34.816c-1.879 0-3.402-1.523-3.402-3.402v-34.816c0-1.879 1.523-3.402 3.402-3.402h34.816c1.879 0 3.402 1.523 3.402 3.402v34.816c0 1.879-1.523 3.402-3.402 3.402z" fill="#b9acac"/></g><g><path d="m236.451 390.159h-34.816c-1.879 0-3.402-1.523-3.402-3.402v-34.816c0-1.879 1.523-3.402 3.402-3.402h34.816c1.879 0 3.402 1.523 3.402 3.402v34.816c0 1.879-1.523 3.402-3.402 3.402z" fill="#b9acac"/></g><g><path d="m71.185 386.757v-34.816c0-1.879 1.523-3.402 3.402-3.402h-17.32c-1.879 0-3.402 1.523-3.402 3.402v34.816c0 1.879 1.523 3.402 3.402 3.402h17.32c-1.879 0-3.402-1.523-3.402-3.402z" fill="#9e9797"/></g><g><path d="m144.019 386.757v-34.816c0-1.879 1.523-3.402 3.402-3.402h-17.32c-1.879 0-3.402 1.523-3.402 3.402v34.816c0 1.879 1.523 3.402 3.402 3.402h17.32c-1.878 0-3.402-1.523-3.402-3.402z" fill="#9e9797"/></g><g><path d="m215.553 386.757v-34.816c0-1.879 1.523-3.402 3.402-3.402h-17.32c-1.879 0-3.402 1.523-3.402 3.402v34.816c0 1.879 1.523 3.402 3.402 3.402h17.32c-1.879 0-3.402-1.523-3.402-3.402z" fill="#9e9797"/></g><path d="m274.47 390.159h19.997l18.221-31.56v-6.658c0-1.879-1.523-3.402-3.402-3.402h-34.816c-1.879 0-3.402 1.523-3.402 3.402v34.816c0 1.879 1.523 3.402 3.402 3.402z" fill="#fe99a0"/><path d="m274.47 390.159h17.32c-1.879 0-3.402-1.523-3.402-3.402v-34.816c0-1.879 1.523-3.402 3.402-3.402h-17.32c-1.879 0-3.402 1.523-3.402 3.402v34.816c0 1.879 1.523 3.402 3.402 3.402z" fill="#fd8087"/><g><path d="m407.671 212.668h-56.699c-4.143 0-7.5-3.357-7.5-7.5s3.357-7.5 7.5-7.5h56.699c4.143 0 7.5 3.357 7.5 7.5s-3.358 7.5-7.5 7.5z" fill="#fe99a0"/></g></g><g><g><path d="m372.206 253.51-108.03 187.114c-6.546 11.339 1.637 25.512 14.73 25.512h216.061c13.093 0 21.276-14.174 14.729-25.512l-108.03-187.114c-6.547-11.339-22.913-11.339-29.46 0z" fill="#ffe177"/></g><g><path d="m307.752 440.625 100.972-174.889-7.058-12.226c-6.547-11.339-22.913-11.339-29.459 0l-108.03 187.114c-6.547 11.339 1.637 25.512 14.73 25.512h43.576c-13.094.001-21.277-14.173-14.731-25.511z" fill="#ffc344"/></g><g><g><path d="m386.936 401.266c-4.143 0-7.5-3.357-7.5-7.5v-74.844c0-4.143 3.357-7.5 7.5-7.5s7.5 3.357 7.5 7.5v74.844c0 4.143-3.358 7.5-7.5 7.5z" fill="#fff"/></g><g><path d="m386.936 433.018c-4.143 0-7.5-3.357-7.5-7.5v-5.67c0-4.143 3.357-7.5 7.5-7.5s7.5 3.357 7.5 7.5v5.67c0 4.143-3.358 7.5-7.5 7.5z" fill="#fff"/></g></g></g><g><g><path d="m53.865 103.955c-4.143 0-7.5-3.357-7.5-7.5v-43.092c0-4.143 3.357-7.5 7.5-7.5s7.5 3.357 7.5 7.5v43.092c0 4.142-3.357 7.5-7.5 7.5z" fill="#ffe177"/></g><g><path d="m98.091 103.955c-4.143 0-7.5-3.357-7.5-7.5v-43.092c0-4.143 3.357-7.5 7.5-7.5s7.5 3.357 7.5 7.5v43.092c0 4.142-3.358 7.5-7.5 7.5z" fill="#ffe177"/></g><g><path d="m142.316 103.955c-4.143 0-7.5-3.357-7.5-7.5v-43.092c0-4.143 3.357-7.5 7.5-7.5s7.5 3.357 7.5 7.5v43.092c0 4.142-3.357 7.5-7.5 7.5z" fill="#ffe177"/></g><g><path d="m186.542 103.955c-4.143 0-7.5-3.357-7.5-7.5v-43.092c0-4.143 3.357-7.5 7.5-7.5s7.5 3.357 7.5 7.5v43.092c0 4.142-3.357 7.5-7.5 7.5z" fill="#ffe177"/></g><g><path d="m230.768 103.955c-4.143 0-7.5-3.357-7.5-7.5v-43.092c0-4.143 3.357-7.5 7.5-7.5s7.5 3.357 7.5 7.5v43.092c0 4.142-3.358 7.5-7.5 7.5z" fill="#ffe177"/></g><g><path d="m274.994 103.955c-4.143 0-7.5-3.357-7.5-7.5v-43.092c0-4.143 3.357-7.5 7.5-7.5s7.5 3.357 7.5 7.5v43.092c0 4.142-3.357 7.5-7.5 7.5z" fill="#ffe177"/></g><g><path d="m319.22 103.955c-4.143 0-7.5-3.357-7.5-7.5v-43.092c0-4.143 3.357-7.5 7.5-7.5s7.5 3.357 7.5 7.5v43.092c0 4.142-3.358 7.5-7.5 7.5z" fill="#ffe177"/></g><g><path d="m363.445 103.955c-4.143 0-7.5-3.357-7.5-7.5v-43.092c0-4.143 3.357-7.5 7.5-7.5s7.5 3.357 7.5 7.5v43.092c0 4.142-3.357 7.5-7.5 7.5z" fill="#ffe177"/></g><g><path d="m407.671 103.955c-4.143 0-7.5-3.357-7.5-7.5v-43.092c0-4.143 3.357-7.5 7.5-7.5s7.5 3.357 7.5 7.5v43.092c0 4.142-3.358 7.5-7.5 7.5z" fill="#ffe177"/></g></g><g><path d="m215.553 235.885v-34.816c0-1.879 1.523-3.402 3.402-3.402h-17.32c-1.879 0-3.402 1.523-3.402 3.402v34.816c0 1.879 1.523 3.402 3.402 3.402h17.32c-1.879 0-3.402-1.523-3.402-3.402z" fill="#9e9797"/></g><g><path d="m71.185 311.321v-34.816c0-1.879 1.523-3.402 3.402-3.402h-17.32c-1.879 0-3.402 1.523-3.402 3.402v34.816c0 1.879 1.523 3.402 3.402 3.402h17.32c-1.879 0-3.402-1.523-3.402-3.402z" fill="#9e9797"/></g><g><path d="m144.019 311.321v-34.816c0-1.879 1.523-3.402 3.402-3.402h-17.32c-1.879 0-3.402 1.523-3.402 3.402v34.816c0 1.879 1.523 3.402 3.402 3.402h17.32c-1.878 0-3.402-1.523-3.402-3.402z" fill="#9e9797"/></g><g><path d="m215.553 311.321v-34.816c0-1.879 1.523-3.402 3.402-3.402h-17.32c-1.879 0-3.402 1.523-3.402 3.402v34.816c0 1.879 1.523 3.402 3.402 3.402h17.32c-1.879 0-3.402-1.523-3.402-3.402z" fill="#9e9797"/></g></g></g></svg>