<svg id="Capa_1" enable-background="new 0 0 497 497" height="512" viewBox="0 0 497 497" width="512" xmlns="http://www.w3.org/2000/svg"><g><path d="m454.693 497h-422.386c-13.807 0-25-11.193-25-25v-398.05c0-13.807 11.193-25 25-25h422.385c13.807 0 25 11.193 25 25v398.05c.001 13.807-11.192 25-24.999 25z" fill="#f7f9fa"/><path d="m464.693 48.95h-30c13.807 0 25 11.193 25 25v398.05c0 13.807-11.193 25-25 25h30c13.807 0 25-11.193 25-25v-398.05c0-13.807-11.193-25-25-25z" fill="#dce6eb"/><path d="m454.693 48.95h-13.853l-23.726 10-23.726-10h-101.162l-23.726 10-23.726-10h-101.162l-23.726 10-23.726-10h-63.853c-13.807 0-25 11.193-25 25v82.802h472.385v-82.802c.001-13.807-11.192-25-24.999-25z" fill="#fe646f"/><g fill="#fd4755"><path d="m464.693 48.95h-30c13.807 0 25 11.193 25 25v82.802h30v-82.802c0-13.807-11.193-25-25-25z"/><path d="m417.114 97.9c13.103 0 23.726-10.622 23.726-23.726v-25.224h-47.452v25.224c0 13.104 10.622 23.726 23.726 23.726z"/><path d="m268.5 97.9c13.103 0 23.726-10.622 23.726-23.726v-25.224h-47.452v25.224c0 13.104 10.622 23.726 23.726 23.726z"/><path d="m119.886 97.9c13.104 0 23.726-10.622 23.726-23.726v-25.224h-47.452v25.224c0 13.104 10.623 23.726 23.726 23.726z"/></g><path d="m248.5 97.9c-13.104 0-23.726-10.622-23.726-23.726v-50.448c0-13.103 10.622-23.726 23.726-23.726 13.103 0 22.726 10.623 22.726 23.726v50.449c0 13.103-9.622 23.725-22.726 23.725z" fill="#8ebaff"/><path d="m99.886 97.9c-13.104 0-23.726-10.622-23.726-23.726v-50.448c0-13.103 10.623-23.726 23.726-23.726 13.104 0 22.726 10.623 22.726 23.726v50.449c0 13.103-9.622 23.725-22.726 23.725z" fill="#8ebaff"/><path d="m397.114 97.9c-13.103 0-23.726-10.622-23.726-23.726v-50.448c0-13.103 10.622-23.726 23.726-23.726 13.103 0 23.726 10.623 23.726 23.726v50.449c0 13.103-10.623 23.725-23.726 23.725z" fill="#8ebaff"/><path d="m397.114 0c-2.996 0-5.861.561-8.5 1.575 8.903 3.419 15.226 12.044 15.226 22.151v50.449c0 10.107-6.323 18.732-15.226 22.151 2.639 1.014 5.504 1.575 8.5 1.575 13.103 0 23.726-10.622 23.726-23.726v-50.449c0-13.104-10.623-23.726-23.726-23.726z" fill="#7aa3ff"/><path d="m248.5 0c-2.997 0-5.861.561-8.5 1.575 8.903 3.419 15.226 12.044 15.226 22.151v50.449c0 10.107-6.323 18.732-15.226 22.151 2.639 1.014 5.503 1.575 8.5 1.575 13.103 0 23.726-10.622 23.726-23.726v-50.449c0-13.104-10.623-23.726-23.726-23.726z" fill="#7aa3ff"/><path d="m99.887 0c-2.997 0-5.861.561-8.5 1.575 8.903 3.419 15.226 12.044 15.226 22.151v50.449c0 10.107-6.323 18.732-15.226 22.151 2.639 1.014 5.503 1.575 8.5 1.575 13.103 0 23.726-10.622 23.726-23.726v-50.449c-.001-13.104-10.623-23.726-23.726-23.726z" fill="#7aa3ff"/><path d="m360.468 456.798h-234.104c-4.333 0-7.846-3.513-7.846-7.846v-244.273c0-4.333 3.513-7.846 7.846-7.846h89.938l31.675 5.231 32.722-5.231h79.769c4.333 0 7.846 3.513 7.846 7.846v244.273c0 4.333-3.513 7.846-7.846 7.846z" fill="#eaae8e"/><path d="m370.636 196.833h-25.059c4.333 0 7.846 3.513 7.846 7.846v244.273c0 4.333-3.513 7.846-7.846 7.846h25.059c4.333 0 7.846-3.513 7.846-7.846v-244.273c.001-4.333-3.512-7.846-7.846-7.846z" fill="#e39b74"/><path d="m276.937 255.203-25.692-12.521c-1.733-.845-3.758-.845-5.491 0l-25.692 12.521c-1.737.847-3.761-.418-3.761-2.351v-56.019h51.32l11.507 5.231.523 49.742c.001 1.932-.976 4.244-2.714 3.397z" fill="#fed402"/><g><path d="m267.622 196.833v53.83l9.315 4.54c1.737.847 3.761-.418 3.761-2.351v-56.019z" fill="#fac600"/></g><ellipse cx="378.483" cy="333.538" fill="#fed402" rx="60.563" ry="60.563" transform="matrix(.707 -.707 .707 .707 -124.992 365.319)"/><g><path d="m373.96 359.233c-1.739 0-3.483-.602-4.897-1.82l-25.348-21.862c-3.137-2.706-3.486-7.441-.781-10.578 2.706-3.138 7.441-3.486 10.578-.781l19.981 17.234 30.245-31.296c2.876-2.979 7.624-3.062 10.604-.181 2.978 2.878 3.06 7.626.181 10.605l-35.17 36.392c-1.465 1.517-3.425 2.287-5.393 2.287z" fill="#f7f9fa"/></g></g></svg>