<svg id="Layer_1" enable-background="new 0 0 509.992 509.992" height="512" viewBox="0 0 509.992 509.992" width="512" xmlns="http://www.w3.org/2000/svg"><g><g><path d="m239.611 44.992c0-8.295 6.814-15.199 15.385-14.98l15-15.005-15-15.005c-33.036-.282-54.938 33.979-41.298 63.694l20.372 11.296 20.541-15c-8.27 0-15-6.729-15-15z" fill="#403069"/><path d="m254.996.002v30.01c8.057.205 14.615 6.805 14.615 14.98 0 8.188-6.57 14.775-14.615 14.98v.012.012l20.346 14.996 20.182-11.296c13.542-29.505-7.942-63.419-40.528-63.694z" fill="#31255b"/><path d="m29.611 284.992c0 123.713 100.045 225.232 225.385 224.995l15-224.995-15-224.995c-123.58-.236-225.385 99.519-225.385 224.995z" fill="#543f87"/><path d="m475.589 327.621c2.674-14.02 4.022-28.276 4.022-42.629 0-124.721-100.855-224.789-224.615-224.995v449.99c31.115-.052 61.555-6.387 89.762-18.723z" fill="#403069"/><path d="m89.611 284.992c0 90.812 73.933 165.213 165.385 164.996l15-164.996-15-164.995c-91.009-.216-165.385 73.74-165.385 164.995z" fill="#cde8ff"/><path d="m418.836 300.955c9.365-97.093-67.05-180.735-163.84-180.958v329.991c17.152-.039 34.408-2.721 51.223-8.272z" fill="#a3dbff"/><path d="m119.611 284.992c0 74.217 60.418 135.209 135.385 134.996l15-134.996-15-134.995c-74.382-.212-135.385 60.192-135.385 134.995z" fill="#e9f4ff"/><path d="m388.635 301.199c9.682-80.552-53.298-150.977-133.639-151.202v269.991c15.374-.043 30.492-2.678 44.865-7.807z" fill="#cde8ff"/><path d="m470.85 29.842c-10.492-5.246-19.508-9.754-30-15-5.548 16.642-17.202 51.606-20.47 61.406 9.953 3.318 18.507 6.17 28.461 9.488 3.333-10.001 6.197-18.593 9.53-28.594 10.492 5.246 19.508 9.754 30 15 5.548-16.642 17.202-51.605 20.47-61.406-9.954-3.318-18.508-6.17-28.461-9.488-3.333 10-6.197 18.594-9.53 28.594z" fill="#6b76ff"/><path d="m60.381 85.736c-3.333-10.001-6.197-18.593-9.53-28.594-10.493 5.246-19.509 9.754-30 15-5.548-16.64-17.203-51.605-20.47-61.406 9.954-3.318 18.507-6.17 28.461-9.488 3.334 10 6.197 18.594 9.531 28.594 10.492-5.246 19.507-9.754 30-15 5.547 16.641 17.201 51.606 20.469 61.406-9.954 3.318-18.507 6.17-28.461 9.488z" fill="#7d9df4"/><path d="m239.996 194.992v75c-14.981 0-30.019 0-45 0v30h60.385l11.058-63.558-11.058-41.442c-5.381 0-10.004 0-15.385 0z" fill="#ff4268"/><path d="m269.611 194.992c-5.111 0-9.504 0-14.615 0v105h14.615c0-28.278 0-88.527 0-105z" fill="#e7044f"/><circle cx="404.611" cy="404.992" fill="#fabe2c" r="105"/><g fill="#31255b"><path d="m389.611 404.992h30c0-7.26 0-52.693 0-60-10.492 0-19.508 0-30 0z"/><path d="m389.611 464.992h30v-30h-30z"/></g></g></g></svg>