<svg height="512" viewBox="0 0 64 64" width="512" xmlns="http://www.w3.org/2000/svg"><g id="Flat"><g id="Color"><path d="m3 21h50v32h-50z" fill="#84d2f4"/><path d="m17 25v3a20 20 0 0 0 20 20h16v5h-50v-32h50v4z" fill="#57b7eb"/><path d="m3 7v14h50v-14zm10 10a4 4 0 1 1 4-4 4 4 0 0 1 -4 4zm14 0a4 4 0 1 1 4-4 4 4 0 0 1 -4 4zm14 0a4 4 0 1 1 4-4 4 4 0 0 1 -4 4z" fill="#f8664f"/><path d="m27 7v2a3.981 3.981 0 0 0 -3.95 3.42 1.931 1.931 0 0 1 -.05-.42v-5z" fill="#cc5144"/><path d="m41 7v2a3.981 3.981 0 0 0 -3.95 3.42 1.931 1.931 0 0 1 -.05-.42v-5z" fill="#cc5144"/><path d="m32 18a10.824 10.824 0 0 1 -4.63-1.02c-.12.01-.25.02-.37.02a3.988 3.988 0 0 1 -3.98-3.65 10.935 10.935 0 0 1 -2.02-6.35h-18v14h50v-3zm-19-1a4 4 0 1 1 4-4 4 4 0 0 1 -4 4z" fill="#cc5144"/><rect fill="#e9f1f2" height="10" rx="2" width="4" x="11" y="3"/><rect fill="#e9f1f2" height="10" rx="2" width="4" x="25" y="3"/><rect fill="#e9f1f2" height="10" rx="2" width="4" x="39" y="3"/><path d="m14.74 11.98a2 2 0 0 1 -3.74-.98v-6a2.006 2.006 0 0 1 2-2 2.112 2.112 0 0 1 .26.02 1.914 1.914 0 0 0 -.26.98v6a2.005 2.005 0 0 0 1.74 1.98z" fill="#d0d8da"/><path d="m28.74 11.98a2 2 0 0 1 -3.74-.98v-6a2.006 2.006 0 0 1 2-2 2.112 2.112 0 0 1 .26.02 1.914 1.914 0 0 0 -.26.98v6a2.005 2.005 0 0 0 1.74 1.98z" fill="#d0d8da"/><path d="m42.74 11.98a2 2 0 0 1 -3.74-.98v-6a2.006 2.006 0 0 1 2-2 2.112 2.112 0 0 1 .26.02 1.914 1.914 0 0 0 -.26.98v6a2.005 2.005 0 0 0 1.74 1.98z" fill="#d0d8da"/><path d="m43 21h10v32h-10z" fill="#f9e109"/><path d="m3 21h10v32h-10z" fill="#fcbc04"/><path d="m13 32h10v10h-10z" fill="#f8664f"/><path d="m23 32h10v10h-10z" fill="#f8664f"/><path d="m3 32h10v10h-10z" fill="#f8664f"/><path d="m43 48h10v5h-10z" fill="#fcbc04"/><path d="m43 21h10v4h-10z" fill="#fcbc04"/><path d="m22.73 42h-9.73v-10h4.4a19.867 19.867 0 0 0 5.33 10z" fill="#cc5144"/><path d="m53 32.5v-1h-9.5v-10.5h-1v10.5h-9v-10.5h-1v10.5h-9v-10.5h-1v10.5h-9v-10.5h-1v10.5h-9.5v1h9.5v9h-9.5v1h9.5v10.5h1v-10.5h9v10.5h1v-10.5h9v10.5h1v-10.5h9v10.5h1v-10.5h9.5v-1h-9.5v-9zm-39.5 9v-9h9v9zm10 0v-9h9v9zm19 0h-9v-9h9z" fill="#93999a"/><path d="m42.5 53h1v-5h-1zm0-32v4h1v-4zm-10 32h1v-5.31c-.34-.06-.67-.12-1-.21zm0-28h1v-4h-1zm-19 16.5v-9h4.02c-.09-.33-.15-.66-.21-1h-3.81v-10.5h-1v10.5h-9.5v1h9.5v9h-9.5v1h9.5v10.5h1v-10.5h9v10.5h1v-10.25a14.745 14.745 0 0 1 -1.25-1.25zm9-16.5h1v-4h-1z" fill="#656b76"/><path d="m28 38h-20a1 1 0 0 1 0-2h20a1 1 0 0 1 0 2z" fill="#f9e109"/><path d="m28 40a1 1 0 0 1 -1-1v-4a1 1 0 0 1 2 0v4a1 1 0 0 1 -1 1z" fill="#f9e109"/><path d="m19.69 38h-11.69a1 1 0 0 1 0-2h10.67a17.894 17.894 0 0 0 1.02 2z" fill="#fcbc04"/><path d="m57 25a14.551 14.551 0 0 1 -2.937 8.744 19.986 19.986 0 0 0 -3.063-7.744 12.483 12.483 0 0 1 -2.238 7.123c-.114-.015-.224-.04-.339-.051a23.32 23.32 0 0 1 -.542-9.241l.119-.831a23.309 23.309 0 0 0 -8.038 11.779 14.547 14.547 0 0 1 -2.962-8.779 37.894 37.894 0 0 0 -4 16.944v4.056a14 14 0 0 0 28 0v-5.056a37.894 37.894 0 0 0 -4-16.944z" fill="#f9e109"/><path d="m45.843 58.945a12.233 12.233 0 0 1 -10.843-12.296v-3.7a35.98 35.98 0 0 1 1.472-10.155 16.6 16.6 0 0 0 1.895 3.2l2.388 3.156 1.124-3.794a21.239 21.239 0 0 1 3.786-7.261 25.347 25.347 0 0 0 .824 5.5 8.623 8.623 0 0 0 1.12 2.52l.627.961.705-.861q.769-.94 1.463-1.937a14.771 14.771 0 0 0 1.242-2.155 18.367 18.367 0 0 1 .445 1.969l.779 4.579 2.792-3.712a16.68 16.68 0 0 0 1.866-3.159 36.03 36.03 0 0 1 1.472 10.144v5.056a12.013 12.013 0 0 1 -13.157 11.945z" fill="#fcbc04"/><circle cx="47" cy="47" fill="#f89c8d" r="10"/><path d="m55.95 51.45a10 10 0 1 1 -13.4-13.4 9.991 9.991 0 0 0 13.4 13.4z" fill="#f8664f"/><circle cx="47" cy="47" fill="#f8664f" r="8"/><path d="m47 39a8 8 0 1 0 8 8 8 8 0 0 0 -8-8zm5.57 12.57a8.1 8.1 0 0 1 -2.57.43 8 8 0 0 1 -8-8 8.1 8.1 0 0 1 .43-2.57 8.1 8.1 0 0 1 2.57-.43 8 8 0 0 1 8 8 8.1 8.1 0 0 1 -.43 2.57z" fill="#cc5144"/><g fill="#f9e109"><path d="m48 37.05v1.95a1 1 0 0 1 -2 0v-1.95c.33-.03.66-.05 1-.05s.67.02 1 .05z"/><path d="m48 55v1.95c-.33.03-.66.05-1 .05s-.67-.02-1-.05v-1.95a1 1 0 0 1 2 0z"/><path d="m56.95 48h-1.95a1 1 0 0 1 0-2h1.95z"/><path d="m40 47a1 1 0 0 1 -1 1h-1.95c-.03-.33-.05-.66-.05-1s.02-.67.05-1h1.95a1 1 0 0 1 1 1z"/><path d="m43.5 40.94a1.013 1.013 0 0 1 -1.37-.37l-.97-1.68a8.828 8.828 0 0 1 1.74-1l.97 1.68a1.01 1.01 0 0 1 -.37 1.37z"/><path d="m52.84 55.11a8.828 8.828 0 0 1 -1.74 1l-.97-1.68a1 1 0 0 1 1.74-1z"/><path d="m56.11 42.9-1.68.97a1 1 0 0 1 -1-1.74l1.68-.97a8.828 8.828 0 0 1 1 1.74z"/><path d="m40.57 51.87-1.68.97a8.828 8.828 0 0 1 -1-1.74l1.68-.97a1 1 0 1 1 1 1.74z"/><path d="m40.94 43.5a1.013 1.013 0 0 1 -1.37.37l-1.68-.97a8.828 8.828 0 0 1 1-1.74l1.68.97a1.01 1.01 0 0 1 .37 1.37z"/><path d="m56.11 51.1a8.828 8.828 0 0 1 -1 1.74l-1.68-.97a1 1 0 1 1 1-1.74z"/><path d="m52.84 38.89-.97 1.68a1 1 0 0 1 -1.74-1l.97-1.68a8.828 8.828 0 0 1 1.74 1z"/><path d="m43.87 54.43-.97 1.68a8.828 8.828 0 0 1 -1.74-1l.97-1.68a1 1 0 1 1 1.74 1z"/><path d="m50 48h-3a1 1 0 0 1 -1-1v-4a1 1 0 0 1 2 0v3h2a1 1 0 0 1 0 2z"/></g></g></g></svg>