<?xml version="1.0" encoding="utf-8"?>
<!-- Generator: Adobe Illustrator 27.1.1, SVG Export Plug-In . SVG Version: 6.00 Build 0)  -->
<svg version="1.1" id="Layer_1" xmlns="http://www.w3.org/2000/svg" xmlns:xlink="http://www.w3.org/1999/xlink" x="0px" y="0px"
	 viewBox="0 0 512 512" style="enable-background:new 0 0 512 512;" xml:space="preserve">
<style type="text/css">
	.st0{fill-rule:evenodd;clip-rule:evenodd;fill:#4C4C4C;}
</style>
<path class="st0" d="M510.1,338.6c-3.2-9.1-10.7-14.6-19.1-14.6h-34.5V112.1c0-43.2-30.1-78.4-67.5-78.4h-253c-7.4,0-10.1,9.8-6,15
	l148.3,193.2c2.6,3.4,7.2,4,10.4,1.4c3.2-2.8,4-7.8,2.4-12L226.5,101h162.7c5.2,0,9.6,5.1,9.6,11.1V324h-34.5
	c-18.1,0-27.8,25.3-15.3,40.7l72.9,90.5c3.2,3.7,8.7,3.7,11.6,0l72.9-90.5C512.2,357.6,513.6,347.6,510.1,338.6z"/>
<path class="st0" d="M233.6,266.6c-2.6-3.4-7-4.1-10.4-1.4c-3.2,2.6-4,7.7-2,11.8l64.3,130.4H123c-5.2,0-9.8-5.1-9.8-11.1V184.5
	h34.8c18.1,0,27.6-25.2,15.1-40.7L90,53.3c-3-3.7-8.4-3.6-11.3,0L5.4,143.8c-11.9,15-3.2,40.7,15.3,40.7h34.5v211.9
	c0,43.2,30.4,78.5,67.7,78.5h253.1c6.4,0,10.6-8.9,5.8-15.1L233.6,266.6z"/>
</svg>
