<?xml version="1.0" encoding="utf-8"?>
<!-- Generator: Adobe Illustrator 27.1.1, SVG Export Plug-In . SVG Version: 6.00 Build 0)  -->
<svg version="1.1" id="Layer_1" xmlns="http://www.w3.org/2000/svg" xmlns:xlink="http://www.w3.org/1999/xlink" x="0px" y="0px"
	 viewBox="0 0 500 500" style="enable-background:new 0 0 500 500;" xml:space="preserve">
<style type="text/css">
	.st0{fill-rule:evenodd;clip-rule:evenodd;fill:#5A5A58;}
</style>
<path class="st0" d="M289.3,367.1c0.7-1.5,0.7-3.4,0-4.9l-29.3-50.9l2.6-1.9l76.6,86.2H136.5c-25.1,0-45.7-20.5-45.7-45.6V189.3
	c0-2.7-2.2-4.8-4.8-4.8H50.3c-5.2,0-8.4-6.1-4.5-10.4l58.2-62l57.9,62c3.5,3.9,0.8,10.4-4.5,10.4h-35.6c-2.7,0-4.8,2.2-4.8,4.8
	v160.7c0,10.7,8.7,19.5,19.5,19.5H285C286.7,369.4,288.3,368.6,289.3,367.1L289.3,367.1z"/>
<path class="st0" d="M452.7,324.7L396,385.3l-56.6-60.6c-3-3-0.7-7.4,3.2-7.4h35.6c3.7,0,6.6-2.9,6.6-6.6V150
	c0-11.7-9.5-21.2-21.2-21.2H214.9c-4.7,0-8.3,5.3-5.6,9.8l28.3,49.6l-72.7-82h198.7c24.2,0,43.7,19.7,43.7,43.8v160.7
	c0,3.7,3.2,6.6,6.6,6.6h35.6C453.6,317.2,455.6,321.9,452.7,324.7L452.7,324.7z"/>
<path class="st0" d="M465.6,314.7c-2.7-6.6-9-10.6-16.1-10.6h-29.1V150c0-31.4-25.4-57-56.9-57H150.2c-6.2,0-8.5,7.1-5.1,10.9
	l125,140.5c2.2,2.5,6.1,2.9,8.8,1c2.7-2,3.4-5.7,2-8.7l-54.4-94.8h137.2c4.4,0,8.1,3.7,8.1,8.1v154.1h-29.1
	c-15.3,0-23.4,18.4-12.9,29.6l61.5,65.8c2.7,2.7,7.3,2.7,9.8,0l61.5-65.8C467.3,328.5,468.5,321.2,465.6,314.7z"/>
<path class="st0" d="M136.5,393.8h198.7l-73-82.1l28.6,49.6c1,2,1,4.6,0,6.6c-1.2,2-3.4,3.2-5.9,3.2H136.5
	c-11.7,0-21.2-9.5-21.2-21.2V189.3c0-3.6,2.9-6.6,6.6-6.6h35.6c3.7,0,5.7-4.6,3.2-7.5l-56.6-60.6l-56.9,60.6c-3,3.4-0.4,7.5,3.2,7.5
	H86c3.7,0,6.6,3,6.6,6.6v160.7C92.6,374.1,112.4,393.8,136.5,393.8L136.5,393.8z"/>
<path class="st0" d="M229.8,255.6c-2.2-2.5-5.9-3-8.8-1c-2.7,1.9-3.4,5.6-1.7,8.6l54.2,94.8h-137c-4.4,0-8.3-3.7-8.3-8.1V195.9h29.3
	c15.3,0,23.3-18.3,12.7-29.6l-61.5-65.8c-2.5-2.7-7.1-2.6-9.5,0l-61.8,65.8c-10,10.9-2.7,29.6,12.9,29.6h29.1v154.1
	c0,31.4,25.6,57.1,57.1,57.1h213.4c5.4,0,8.9-6.5,4.9-11L229.8,255.6z"/>
</svg>
