<svg id="Layer_1" enable-background="new 0 0 480 480" height="512" viewBox="0 0 480 480" width="512" xmlns="http://www.w3.org/2000/svg"><g><path d="m277 237.969v4.063c0 3.296-2.672 5.969-5.969 5.969h-37.063c-3.296 0-5.969-2.672-5.969-5.969v-4.063c0-3.296 2.672-5.969 5.969-5.969h37.063c3.297 0 5.969 2.672 5.969 5.969z"/><path d="m277 72.423v5.46c0 1.704-.756 3.296-2.001 4.459-17.779 16.613-12.491 56.585-37.534 75.264-3.903 2.911-9.464.029-9.464-4.84v-5.46c0-1.704.756-3.296 2.001-4.459 17.779-16.613 12.491-56.585 37.534-75.264 3.902-2.911 9.464-.029 9.464 4.84z"/><path d="m277 402.116v5.461c0 4.869-5.561 7.751-9.464 4.84-25.05-18.68-19.757-58.653-37.534-75.265-1.245-1.163-2.001-2.755-2.001-4.459v-5.461c0-4.869 5.561-7.751 9.464-4.84 25.05 18.68 19.757 58.652 37.534 75.264 1.245 1.164 2.001 2.756 2.001 4.46z"/><path d="m188 105h-164c-13.234 0-24 10.766-24 24v222c0 13.234 10.766 24 24 24h164c13.234 0 24-10.766 24-24v-222c0-13.234-10.766-24-24-24zm-65 207h-74c-4.418 0-8-3.582-8-8s3.582-8 8-8h74c4.418 0 8 3.582 8 8s-3.582 8-8 8zm-82-72c0-4.418 3.582-8 8-8h9.291c4.418 0 8 3.582 8 8s-3.582 8-8 8h-9.291c-4.418 0-8-3.582-8-8zm122 8h-65.742c-4.418 0-8-3.582-8-8s3.582-8 8-8h65.742c4.418 0 8 3.582 8 8s-3.582 8-8 8zm0-64h-114c-4.418 0-8-3.582-8-8s3.582-8 8-8h114c4.418 0 8 3.582 8 8s-3.582 8-8 8z"/><path d="m456 174h-139c-13.233 0-24 10.767-24 24v84c0 13.233 10.767 24 24 24h139c13.233 0 24-10.767 24-24v-84c0-13.233-10.767-24-24-24zm-98 78c-6.617 0-12-5.383-12-12s5.383-12 12-12 12 5.383 12 12-5.383 12-12 12zm57 0c-6.617 0-12-5.383-12-12s5.383-12 12-12 12 5.383 12 12-5.383 12-12 12z"/><path d="m456 348h-139c-13.233 0-24 10.767-24 24v84c0 13.233 10.767 24 24 24h139c13.233 0 24-10.767 24-24v-84c0-13.233-10.767-24-24-24zm-98 78c-6.617 0-12-5.383-12-12s5.383-12 12-12 12 5.383 12 12-5.383 12-12 12zm57 0c-6.617 0-12-5.383-12-12s5.383-12 12-12 12 5.383 12 12-5.383 12-12 12z"/><path d="m456 0h-139c-13.233 0-24 10.767-24 24v84c0 13.233 10.767 24 24 24h139c13.233 0 24-10.767 24-24v-84c0-13.233-10.767-24-24-24zm-98 78c-6.617 0-12-5.383-12-12s5.383-12 12-12 12 5.383 12 12-5.383 12-12 12zm57 0c-6.617 0-12-5.383-12-12s5.383-12 12-12 12 5.383 12 12-5.383 12-12 12z"/></g></svg>