<svg height="512" viewBox="0 0 96 96" width="512" xmlns="http://www.w3.org/2000/svg"><g id="Division"><path d="m44.22 61a26.77 26.77 0 0 1 -43-1l.78-2.42a7 7 0 0 1 5.3-4.67l10-2h10.52l10 2a7 7 0 0 1 5.29 4.67z" fill="#4e4b92"/><path d="m40.94 64.49a26.75 26.75 0 0 1 -36-.23l-.48-.79.65-2.37a6.32 6.32 0 0 1 4.49-4.67l8.47-2h9l8.47 2a6.34 6.34 0 0 1 4.46 4.67z" fill="#4e69b5"/><path d="m22.54 56.89-4.81 2.39-2-5.4a1.71 1.71 0 0 1 .38-1.79l1.15-1.09z" fill="#678cd3"/><path d="m22.54 56.89 4.8 2.39 2-5.4a1.75 1.75 0 0 0 -.38-1.79l-1.15-1.09z" fill="#678cd3"/><path d="m24.75 61.7h-4.43l-1.03-3.19 3.25-1.62 3.24 1.62z" fill="#e1346e"/><path d="m26.62 71.09a26.83 26.83 0 0 1 -8.13-.16l1.83-9.23h4.44z" fill="#ff526e"/><path d="m18.75 11h7.58a12.28 12.28 0 0 1 12.28 12.25v9.31a0 0 0 0 1 0 0h-32.15a0 0 0 0 1 0 0v-9.31a12.28 12.28 0 0 1 12.29-12.25z" fill="#92606f"/><rect fill="#f8ad9d" height="6.01" rx="2.65" width="37.77" x="3.66" y="31.36"/><path d="m27.81 50.95v-7.62h-10.54v7.62l5.27 5.94z" fill="#f8ad9d"/><path d="m17.26 43.33h10.55v6.92h-10.55z" fill="#f88a7f"/><path d="m35.65 31.36v4.26a13.1 13.1 0 0 1 -26.2 0v-4.26l2.42-3.09a4.93 4.93 0 0 0 1-2.83l.14-3.84a1.65 1.65 0 0 1 1.68-1.6 61.76 61.76 0 0 0 15.51 0 1.63 1.63 0 0 1 1.8 1.6l.15 3.84a4.85 4.85 0 0 0 1 2.83z" fill="#fbc4ab"/><g fill="#302d3d"><path d="m28.11 32.82a1 1 0 0 1 -1-1v-.63a1 1 0 1 1 2 0v.63a1 1 0 0 1 -1 1z"/><path d="m29.54 29.45h-2.85a1 1 0 0 1 0-2h2.85a1 1 0 0 1 0 2z"/><path d="m17 32.82a1 1 0 0 1 -1-1v-.63a1 1 0 0 1 2 0v.63a1 1 0 0 1 -1 1z"/><path d="m18.38 29.45h-2.84a1 1 0 1 1 0-2h2.84a1 1 0 0 1 0 2z"/><path d="m18.89 42.13a1 1 0 1 1 1.66-1.13 2.4 2.4 0 0 0 4 0 1 1 0 1 1 1.67 1.11 4.41 4.41 0 0 1 -7.33.02z"/></g><path d="m69.33 11h7.58a12.28 12.28 0 0 1 12.29 12.25v19a12.87 12.87 0 0 1 -12.87 12.87h-6.41a12.87 12.87 0 0 1 -12.92-12.87v-19a12.28 12.28 0 0 1 12.33-12.25z" fill="#92606f"/><path d="m94.81 61a26.76 26.76 0 0 1 -43-1l.77-2.37a7 7 0 0 1 5.29-4.67l10-2h10.53l10 2a7 7 0 0 1 5.3 4.67z" fill="#b9cef2"/><path d="m93.05 63a26.76 26.76 0 0 1 -38.31.46l-.74-3 .21-.7a6.57 6.57 0 0 1 4.87-4.66c7.74-1.65 8.68-2 11.17-2 9.11 0 6.31-.31 16.94 2a6.57 6.57 0 0 1 4.87 4.66z" fill="#e6ecf2"/><path d="m62.35 52v16.83a26.94 26.94 0 0 1 -10.57-8.83l.76-2.37a7 7 0 0 1 5.3-4.67z" fill="#4e69b5"/><path d="m94.8 61c-.07.1-.56.71-.84 1a26.61 26.61 0 0 1 -10.06 7.29v-17.29l4.5.88a7 7 0 0 1 5.3 4.67z" fill="#4e69b5"/><path d="m57.84 52.91 4.51-.91v2.35l-3.27.7a6.57 6.57 0 0 0 -4.87 4.66l-.21.7c.26 1.09.47 2 .74 3a27.43 27.43 0 0 1 -3-3.53l.77-2.37a6.94 6.94 0 0 1 5.33-4.6z" fill="#4e4b92"/><path d="m94.81 61c-.4.6-1.67 2-1.75 2.05l-1-3.28a6.57 6.57 0 0 0 -4.87-4.66l-3.29-.7v-2.41l4.5.88a7 7 0 0 1 5.3 4.67z" fill="#4e4b92"/><path d="m73.12 56.89-4.8 2.39-2-5.4a1.75 1.75 0 0 1 .38-1.79l1.15-1.09z" fill="#fff"/><path d="m73.12 56.89 4.81 2.39 1.95-5.4a1.71 1.71 0 0 0 -.38-1.79l-1.1-1.09z" fill="#fff"/><path d="m78.4 50.95v-7.62h-10.55v7.62l5.27 5.94z" fill="#f8ad9d"/><rect fill="#f8ad9d" height="6.01" rx="2.65" width="37.77" x="54.24" y="31.36"/><rect fill="#fbc4ab" height="31.23" rx="12.18" width="26.2" x="60.03" y="17.48"/><path d="m59.1 26.58h2a12 12 0 0 0 10.36-5.95 1.86 1.86 0 0 1 3.24 0 12 12 0 0 0 10.36 5.95h1.63l-.51-6.77-8.54-6.67h-9l-8.64 6.36z" fill="#92606f"/><path d="m78.7 34.19a1 1 0 0 1 -1-1v-.63a1 1 0 0 1 2 0v.63a1 1 0 0 1 -1 1z" fill="#302d3d"/><path d="m80.12 30.82h-2.84a1 1 0 0 1 0-2h2.84a1 1 0 0 1 0 2z" fill="#302d3d"/><path d="m67.55 34.19a1 1 0 0 1 -1-1v-.63a1 1 0 0 1 2 0v.63a1 1 0 0 1 -1 1z" fill="#302d3d"/><path d="m69 30.82h-2.88a1 1 0 0 1 0-2h2.88a1 1 0 0 1 0 2z" fill="#302d3d"/><path d="m69.47 41.37a1 1 0 0 1 1.66-1.12 2.4 2.4 0 0 0 4 0 1 1 0 0 1 1.38-.25 1 1 0 0 1 .28 1.38 4.4 4.4 0 0 1 -7.32-.01z" fill="#302d3d"/><path d="m70 74.68a26.76 26.76 0 0 1 -43-1l.77-2.37a7 7 0 0 1 5.29-4.67l10-2h10.56l10 2a7 7 0 0 1 5.29 4.67z" fill="#4e6492"/><path d="m67.46 77.54a26.74 26.74 0 0 1 -37.95-.82l.66-2.26a6.42 6.42 0 0 1 4.68-4.67l8.84-2h9.31l8.85 2a6.42 6.42 0 0 1 4.68 4.67z" fill="#5d78a1"/><path d="m48.35 70.6-4.81 2.4-2-5.4a1.74 1.74 0 0 1 .46-1.8l1.1-1.14z" fill="#809bc4"/><path d="m48.35 70.6 4.8 2.4 2-5.4a1.74 1.74 0 0 0 -.39-1.79l-1.1-1.14z" fill="#809bc4"/><path d="m50.56 75.41h-4.43l-1.03-3.19 3.24-1.62 3.25 1.62z" fill="#e1346e"/><path d="m52.42 84.8a27.08 27.08 0 0 1 -8.12-.15l1.82-9.24h4.45z" fill="#ff526e"/><path d="m53.62 64.66v-7.61h-10.55v7.61l5.27 5.94z" fill="#f8ad9d"/><path d="m43.07 57.05h10.55v7.05h-10.55z" fill="#f88a7f"/><rect fill="#f8ad9d" height="6.01" rx="2.65" width="37.77" x="29.46" y="45.07"/><path d="m33.46 23.31a6.44 6.44 0 0 0 6.15 4.54h.56a6.71 6.71 0 0 0 -6.71 6.71v10.51h29.79v-10.07a11.71 11.71 0 0 0 -11.71-11.69z" fill="#3f3c6a"/><path d="m46.2 26.48h5.74a2.47 2.47 0 0 1 1.74.72l1 1a1.71 1.71 0 0 1 0 2.44l-.39.4a1.77 1.77 0 0 1 -1.23.5h-5.23a3.21 3.21 0 0 1 -3-2l-.25-.62a1.73 1.73 0 0 1 1.62-2.44z" fill="#6273a1"/><path d="m61.45 45.07v4.26a13.1 13.1 0 1 1 -26.2 0v-4.26l2.43-3.07a4.85 4.85 0 0 0 1-2.82l.15-3.84a1.64 1.64 0 0 1 1.64-1.58 61.76 61.76 0 0 0 15.51 0 1.64 1.64 0 0 1 1.84 1.57l.18 3.83a4.93 4.93 0 0 0 1 2.84z" fill="#fbc4ab"/><path d="m53.92 46.53a1 1 0 0 1 -1-1v-.63a1 1 0 1 1 2 0v.63a1 1 0 0 1 -1 1z" fill="#302d3d"/><path d="m55.34 43.16h-2.84a1 1 0 0 1 0-2h2.84a1 1 0 0 1 0 2z" fill="#302d3d"/><path d="m42.77 46.53a1 1 0 0 1 -1-1v-.63a1 1 0 0 1 2 0v.63a1 1 0 0 1 -1 1z" fill="#302d3d"/><path d="m44.19 43.16h-2.84a1 1 0 1 1 0-2h2.84a1 1 0 0 1 0 2z" fill="#302d3d"/><path d="m44.7 55.84a1 1 0 0 1 .3-1.39 1 1 0 0 1 1.38.27 2.41 2.41 0 0 0 4 0 1 1 0 0 1 1.62 1.09 4.41 4.41 0 0 1 -7.3.03z" fill="#302d3d"/></g></svg>