<?xml version="1.0" encoding="iso-8859-1"?>
<!-- Generator: Adobe Illustrator 19.0.0, SVG Export Plug-In . SVG Version: 6.00 Build 0)  -->
<svg version="1.1" id="Capa_1" xmlns="http://www.w3.org/2000/svg" xmlns:xlink="http://www.w3.org/1999/xlink" x="0px" y="0px"
	 viewBox="0 0 512 512" style="enable-background:new 0 0 512 512;" xml:space="preserve">
<g>
	<g>
		<g>
			<path d="M426,0H142.15c-3.978,0-7.794,1.581-10.606,4.394l-56.15,56.15C72.58,63.357,71,67.171,71,71.15V497
				c0,8.284,6.716,15,15,15h340c8.284,0,15-6.716,15-15V15C441,6.716,434.284,0,426,0z M206.259,129.746
				c0-27.648,20.463-40.927,43.539-44.193v-6.095c0-3.048,3.483-5.878,8.272-5.878c4.136,0,8.272,2.83,8.272,5.878V84.9
				c13.497,0.435,38.968,3.918,38.968,18.939c0,5.878-3.918,17.851-13.497,17.851c-7.184,0-11.321-6.967-25.471-8.055v31.784
				c19.811,7.402,42.887,17.634,42.887,47.023c0,26.994-17.416,43.322-42.887,47.458v6.313c0,3.048-4.135,5.878-8.272,5.878
				c-4.789,0-8.272-2.83-8.272-5.878v-5.442c-26.124-0.871-47.458-14.368-47.458-28.301c0-7.402,6.532-18.287,14.804-18.287
				c9.143,0,16.545,12.844,32.654,15.674V174.59C229.77,166.97,206.259,157.609,206.259,129.746z M366,440H146
				c-8.284,0-15-6.716-15-15s6.716-15,15-15h220c8.284,0,15,6.716,15,15S374.284,440,366,440z M366,380H146c-8.284,0-15-6.716-15-15
				s6.716-15,15-15h220c8.284,0,15,6.716,15,15S374.284,380,366,380z M366,320h-80c-8.284,0-15-6.716-15-15s6.716-15,15-15h80
				c8.284,0,15,6.716,15,15S374.284,320,366,320z"/>
			<path d="M277.445,195.924c0-7.184-5.442-11.755-13.279-15.457v29.171C271.567,207.897,277.445,203.761,277.445,195.924z"/>
			<path d="M251.975,114.287c-9.796,1.959-13.933,6.966-13.933,12.191c0,6.314,5.661,10.232,13.933,13.715V114.287z"/>
		</g>
	</g>
</g>
<g>
</g>
<g>
</g>
<g>
</g>
<g>
</g>
<g>
</g>
<g>
</g>
<g>
</g>
<g>
</g>
<g>
</g>
<g>
</g>
<g>
</g>
<g>
</g>
<g>
</g>
<g>
</g>
<g>
</g>
</svg>
