<svg clip-rule="evenodd" fill-rule="evenodd" height="512" image-rendering="optimizeQuality" shape-rendering="geometricPrecision" text-rendering="geometricPrecision" viewBox="0 0 18062 18062" width="512" xmlns="http://www.w3.org/2000/svg"><g id="Layer_x0020_1"><g id="_497205120"><path d="m13770 15767h-13516c-137 0-246-110-246-247v-11456c0-138 109-247 246-247h14081c137 0 247 109 247 247v4539c0 138-110 247-247 247-138 0-247-109-247-247-117 2449-71 4703-71 6920 0 138-113 244-247 244z" fill="#b8f1ff"/><path d="m13770 15767h-1018c-1426-615-2428-2035-2428-3687 0-2208 1798-4006 4007-4006 84 0 167 3 251 8v521c0 138-110 247-247 247-138 0-247-109-247-247-117 2449-71 4703-71 6920 0 138-113 244-247 244z" fill="#a6d9e6"/><path d="m14071 8971c-90 2189-58 4227-54 6228-1577-158-2811-1496-2811-3114 0-1636 1263-2982 2865-3114z" fill="#a6d9e6"/><path d="m14139 10959c-3 139-5 278-7 416-22 6-42 13-60 21-47 24-153 89-153 219 0 107 57 164 208 215-1 146-1 291-1 435-294-78-617-224-617-645 0-253 147-474 392-592 0 0 3 0 3-3 70-32 151-54 235-66zm-13 1843c1 142 1 283 2 423-67-13-131-32-189-58-265-115-424-356-430-648-3-115 88-209 203-209 115-3 210 88 210 203 3 130 67 230 182 280 7 3 15 6 22 9z" fill="#fab659"/><path d="m14148 10610c-6 221-11 439-14 655-23-33-36-73-36-116v-404c0-52 19-99 50-135zm-21 2322c1 208 2 414 2 619-19-32-31-69-31-110v-403c0-39 11-75 29-106z" fill="#fab659"/><path d="m14071 8971c-7 181-14 361-20 540-1366 334-2383 1568-2383 3036 0 746 262 1432 699 1970-708-574-1161-1452-1161-2432 0-1636 1263-2982 2865-3114z" fill="#a6d9e6"/><path d="m8 7291v-494-2733c0-138 109-247 246-247h14081c137 0 247 109 247 247v2733 494z" fill="#e03a1a"/><path d="m2247 5870c-137 0-247-110-247-247 0-138 110-247 247-247 547 0 995-589 995-1312s-448-1312-995-1312c-486 0-889 459-977 1065h-497c99-879 722-1559 1474-1559 822 0 1489 811 1489 1806 0 994-667 1806-1489 1806z" fill="#ccc"/><path d="m5612 5870c-137 0-247-110-247-247 0-138 110-247 247-247 547 0 995-589 995-1312s-448-1312-995-1312c-486 0-889 459-977 1065h-497c99-879 721-1559 1474-1559 822 0 1489 811 1489 1806 0 994-671 1806-1489 1806z" fill="#ccc"/><path d="m8973 5870c-137 0-246-110-246-247 0-138 109-247 246-247 551 0 999-589 999-1312s-448-1312-999-1312c-486 0-889 459-977 1065h-497c99-879 722-1559 1474-1559 822 0 1492 811 1492 1806 0 994-666 1806-1492 1806z" fill="#ccc"/><path d="m12342 5870c-138 0-247-110-247-247 0-138 109-247 247-247 546 0 994-589 994-1312s-448-1312-994-1312c-486 0-892 459-981 1065h-497c100-879 725-1559 1478-1559 822 0 1488 811 1488 1806 0 994-666 1806-1488 1806z" fill="#ccc"/><path d="m1510 9467h1795v-1135h-1795z" fill="#fff"/><path d="m3552 9961h-2289c-137 0-247-109-247-247v-1629c0-138 110-247 247-247h2289c138 0 247 109 247 247v1629c0 138-109 247-247 247z" fill="#fff"/><path d="m4766 9467h1795v-1135h-1795z" fill="#fff"/><path d="m6808 9961h-2289c-138 0-247-109-247-247v-1629c0-138 109-247 247-247h2289c137 0 247 109 247 247v1629c0 138-110 247-247 247z" fill="#fff"/><path d="m8025 9467h1795v-1135h-1795z" fill="#fff"/><path d="m10067 9961h-2289c-138 0-247-109-247-247v-1629c0-138 109-247 247-247h2289c137 0 247 109 247 247v1629c0 138-110 247-247 247z" fill="#fff"/><path d="m11785 9961h-748c-138 0-247-109-247-247v-1629c0-138 109-247 247-247h2292c138 0 247 109 247 247v666c0 138-109 247-247 247l-597 191-701 525c0 138-112 247-246 247z" fill="#fff"/><path d="m11785 9961h-748c-33 0-65-6-93-18 582-919 1527-1586 2632-1797v605c0 138-109 247-247 247l-597 191-701 525c0 138-112 247-246 247z" fill="#cfcfcf"/><g fill="#fff"><path d="m1510 11852h1795v-1136h-1795z"/><path d="m3552 12345h-2289c-137 0-247-109-247-247v-1629c0-138 110-247 247-247h2289c138 0 247 109 247 247v1629c0 138-109 247-247 247z"/><path d="m4766 11852h1795v-1136h-1795z"/><path d="m6808 12345h-2289c-138 0-247-109-247-247v-1629c0-138 109-247 247-247h2289c137 0 247 109 247 247v1629c0 138-110 247-247 247z"/><path d="m8025 11852h1795v-1136h-1795z"/><path d="m10067 12345h-2289c-138 0-247-109-247-247v-1629c0-138 109-247 247-247h2289c137 0 247 109 247 247v1629c0 138-110 247-247 247z"/><path d="m1510 14232h1795v-1135h-1795z"/><path d="m3552 14726h-2289c-137 0-247-109-247-247v-1629c0-138 110-247 247-247h2289c138 0 247 109 247 247v1629c0 138-109 247-247 247z"/><path d="m4766 14232h1795v-1135h-1795z"/><path d="m6808 14726h-2289c-138 0-247-109-247-247v-1629c0-138 109-247 247-247h2289c137 0 247 109 247 247v1629c0 138-110 247-247 247z"/><path d="m8025 14232h1795v-1135h-1795z"/><path d="m10067 14726h-2289c-138 0-247-109-247-247v-1629c0-138 109-247 247-247h2289c137 0 247 109 247 247v1629c0 138-110 247-247 247z"/></g><path d="m14331 15804c-2051 0-3720-1669-3720-3724 0-2050 1669-3719 3720-3719 2050 0 3724 1669 3724 3719-5 2055-1674 3724-3724 3724z" fill="#fab659"/><path d="m14331 9183c-1601 0-2902 1301-2902 2902 0 1600 1301 2906 2902 2906 1600 0 2906-1302 2906-2906-4-1601-1306-2902-2906-2902z" fill="#f5e277"/><path d="m11858 12514c0-1601 1301-2902 2902-2902 692 0 1327 243 1827 649-533-657-1346-1078-2256-1078-1601 0-2902 1301-2902 2902 0 910 421 1725 1078 2258-405-500-649-1137-649-1829z" fill="#f3cf6b"/><path d="m13804 13446c-20 0-43-5-63-14-79-33-117-128-81-207l1057-2442c34-79 128-117 207-81 79 34 117 128 81 207l-1057 2442c-25 59-84 95-144 95z" fill="#fab659"/><path d="m13601 11804c-299 0-544-245-544-544s245-542 544-542 545 243 545 542-246 544-545 544zm0-774c-126 0-229 101-229 227s103 230 229 230 230-104 230-230c0-123-104-227-230-227z" fill="#fab659"/><path d="m15063 13615c-299 0-544-246-544-545s245-544 544-544 545 245 545 544c0 302-246 545-545 545zm0-774c-126 0-229 103-229 229s103 230 229 230 230-104 230-230-104-229-230-229z" fill="#fab659"/></g></g></svg>