<svg id="Capa_1" enable-background="new 0 0 497 497" height="512" viewBox="0 0 497 497" width="512" xmlns="http://www.w3.org/2000/svg"><g><path d="m385.959 32.76v431.49c0 18.087-14.663 32.75-32.75 32.75h-313.1c-18.087 0-32.75-14.663-32.75-32.75v-431.5c0-18.087 14.663-32.75 32.75-32.75h9.37l151.77 9 142.59-9h9.36c18.093 0 32.76 14.667 32.76 32.76z" fill="#5986cb"/><path d="m385.959 32.76v431.49c0 18.09-14.66 32.75-32.75 32.75h-26.87c18.09 0 32.75-14.66 32.75-32.75v-431.5c0-11.651-6.081-21.879-15.243-27.684l-17.507-3.961 17.5-1.105h9.36c18.09 0 32.76 14.67 32.76 32.76z" fill="#4278c3"/><path d="m343.839 0v441.47h-280.24c-7.798 0-14.12-6.322-14.12-14.12v-427.35h61.97l7.3 2 7.99-2h139.84l7.17 2.25 8.12-2.25z" fill="#eaf6ff"/><path d="m310.839 0h33v441.47h-33z" fill="#c8effe"/><g fill="#678d98"><path d="m163.141 148.882h-56.74c-3.672 0-6.649-2.977-6.649-6.649v-29.341c0-3.672 2.977-6.649 6.649-6.649h56.74c3.672 0 6.649 2.977 6.649 6.649v29.341c0 3.672-2.977 6.649-6.649 6.649z"/><path d="m163.141 258.691h-56.74c-3.672 0-6.649-2.977-6.649-6.649v-29.341c0-3.672 2.977-6.649 6.649-6.649h56.74c3.672 0 6.649 2.977 6.649 6.649v29.341c0 3.672-2.977 6.649-6.649 6.649z"/><path d="m163.141 368.5h-56.74c-3.672 0-6.649-2.977-6.649-6.649v-29.341c0-3.672 2.977-6.649 6.649-6.649h56.74c3.672 0 6.649 2.977 6.649 6.649v29.341c0 3.672-2.977 6.649-6.649 6.649z"/></g><g><path d="m292.069 361.93c0 3.63-2.94 6.57-6.57 6.57h-67.79c-3.62 0-6.57-2.94-6.57-6.57s2.95-6.57 6.57-6.57h67.79c3.63 0 6.57 2.94 6.57 6.57z" fill="#99e6fc"/></g><path d="m385.959 289.172v29.248h-26.79l-38.72-.01v-29.238c0-4.9 3.972-8.872 8.872-8.872h47.767c4.899 0 8.871 3.972 8.871 8.872z" fill="#fd4755"/><path d="m385.959 289.17v29.25h-26.79v-24.56c0-7.49-6.07-13.56-13.56-13.56h31.48c4.9 0 8.87 3.97 8.87 8.87z" fill="#e41f2d"/><path d="m445.489 404.71c0 50.97-41.32 92.29-92.29 92.29-4.41 0-8.75-.31-12.99-.91-44.81-6.31-79.29-44.82-79.29-91.38 0-46.55 34.48-85.06 79.29-91.37 4.24-.6 8.58-.91 12.99-.91 50.97 0 92.29 41.32 92.29 92.28z" fill="#fd4755"/><g><path d="m292.655 134.656h-76.237c-3.918 0-7.094-3.176-7.094-7.094s3.176-7.094 7.094-7.094h76.237c3.918 0 7.094 3.176 7.094 7.094s-3.176 7.094-7.094 7.094z" fill="#99e6fc"/></g><g><path d="m266.831 229.193h-49.121c-3.629 0-6.57-2.941-6.57-6.57s2.942-6.57 6.57-6.57h49.121c3.629 0 6.57 2.941 6.57 6.57s-2.941 6.57-6.57 6.57z" fill="#99e6fc"/></g><g><path d="m266.831 258.691h-49.121c-3.629 0-6.57-2.941-6.57-6.57s2.942-6.57 6.57-6.57h49.121c3.629 0 6.57 2.941 6.57 6.57s-2.941 6.57-6.57 6.57z" fill="#99e6fc"/></g><g><path d="m244.445 339.001h-26.731c-3.628 0-6.57-2.941-6.57-6.57s2.942-6.57 6.57-6.57h26.731c3.628 0 6.57 2.941 6.57 6.57s-2.942 6.57-6.57 6.57z" fill="#99e6fc"/></g><path d="m445.489 404.71c0 50.97-41.32 92.29-92.29 92.29-4.41 0-8.75-.31-12.99-.91 44.81-6.32 79.28-44.82 79.28-91.38 0-46.55-34.47-85.05-79.28-91.37 4.24-.6 8.58-.91 12.99-.91 50.97 0 92.29 41.32 92.29 92.28z" fill="#e41f2d"/><path d="m412.749 404.71c0 32.89-26.66 59.55-59.55 59.55-5.46 0-10.75-.73-15.77-2.11-25.23-6.92-43.77-30.01-43.77-57.44 0-27.42 18.54-50.52 43.77-57.42 2.68-.74 5.45-1.29 8.27-1.64l7.505 2.6 7.495-2.61c29.35 3.68 52.05 28.73 52.05 59.07z" fill="#eaf6ff"/><path d="m412.749 404.71c0 32.89-26.66 59.55-59.55 59.55-5.46 0-10.75-.73-15.77-2.11 25.23-6.91 43.77-30.01 43.77-57.44 0-27.42-18.54-50.52-43.77-57.42 2.68-.74 5.45-1.29 8.27-1.64l7.505 2.6 7.495-2.61c29.35 3.68 52.05 28.73 52.05 59.07z" fill="#c8effe"/><g><path d="m266.579 0c-3.37 13.8-15.85 24.07-30.67 24.07h-78.5c-14.83 0-27.3-10.27-30.67-24.07h-15.29c3.59 22.13 22.83 39.07 45.96 39.07h78.5c23.13 0 42.37-16.94 45.96-39.07z" fill="#678d98"/></g><g><path d="m381.209 395.86-23.99 15.19c-1.23.77-2.62 1.16-4.02 1.16-1.24 0-2.48-.3-3.61-.93-2.4-1.31-3.89-3.83-3.89-6.57v-59.06c2.46-.32 4.96-.48 7.5-.48s5.04.16 7.5.47v45.45l12.49-7.9c3.5-2.22 8.13-1.17 10.34 2.33 2.22 3.5 1.18 8.13-2.32 10.34z" fill="#5986cb"/></g><g><path d="m424.717 300.362c-1.272 0-2.562-.324-3.743-1.006-3.587-2.071-4.816-6.658-2.745-10.245l9.863-17.084c2.07-3.588 6.657-4.816 10.245-2.745 3.587 2.071 4.816 6.658 2.745 10.245l-9.863 17.084c-1.389 2.407-3.91 3.751-6.502 3.751z" fill="#e41f2d"/></g><g><path d="m452.436 312.981c-1.919 0-3.839-.732-5.303-2.196-2.929-2.93-2.929-7.678 0-10.607l14.688-14.688c2.929-2.928 7.678-2.928 10.606 0 2.929 2.93 2.929 7.678 0 10.607l-14.688 14.688c-1.464 1.464-3.384 2.196-5.303 2.196z" fill="#e41f2d"/></g><g><path d="m465.063 340.694c-2.592 0-5.113-1.345-6.502-3.751-2.071-3.587-.842-8.174 2.745-10.245l17.083-9.863c3.587-2.07 8.174-.843 10.245 2.745 2.071 3.587.842 8.174-2.745 10.245l-17.083 9.863c-1.181.682-2.471 1.006-3.743 1.006z" fill="#e41f2d"/></g></g></svg>