<svg id="Layer_1" enable-background="new 0 0 512 512" height="512" viewBox="0 0 512 512" width="512" xmlns="http://www.w3.org/2000/svg"><g clip-rule="evenodd" fill-rule="evenodd"><g><path d="m474.932 61.169c11.604 0 21.068 9.464 21.068 21.068v387.649c0 11.604-9.464 21.068-21.068 21.068h-324.445c-11.604 0-21.068-9.464-21.068-21.068v-387.649c0-11.604 9.464-21.068 21.068-21.068z" fill="#a79ba7"/><path d="m474.932 61.169c11.604 0 21.068 9.464 21.068 21.068v387.649c0 11.604-9.464 21.068-21.068 21.068h-28.64v-429.785z" fill="#837683"/><path d="m456.902 90.477h-288.385c-5.392 0-9.789 4.398-9.789 9.79v351.589c0 5.392 4.397 9.789 9.789 9.789h288.385c5.392 0 9.79-4.398 9.79-9.789v-351.589c0-5.392-4.398-9.79-9.79-9.79z" fill="#eceff1"/><path d="m456.902 90.477h-10.61v371.169h10.61c5.392 0 9.789-4.398 9.789-9.79v-351.589c0-5.392-4.397-9.79-9.789-9.79z" fill="#d1d1d6"/><path d="m241.388 48.435h36.506c3.79-15.713 17.939-27.388 34.816-27.388s31.026 11.675 34.815 27.388h36.506c5.392 0 9.79 4.398 9.79 9.79v35.197c0 5.392-4.398 9.789-9.79 9.789h-142.643c-5.392 0-9.789-4.397-9.789-9.789v-35.198c0-5.392 4.397-9.789 9.789-9.789z" fill="#e3a76f"/><path d="m384.031 48.435c5.393 0 9.79 4.398 9.79 9.79v35.197c0 5.392-4.397 9.79-9.789 9.79h-142.644c-5.392 0-9.789-4.398-9.789-9.79l142.643-.001c5.392 0 9.789-4.398 9.789-9.789z" fill="#c48958"/><ellipse cx="312.709" cy="50.408" fill="#eceff1" rx="9.474" ry="9.474" transform="matrix(.973 -.23 .23 .973 -3.216 73.194)"/><path d="m195.773 414.692c-4.418 0-8-3.582-8-8s3.582-8 8-8h233.873c4.418 0 8 3.582 8 8s-3.582 8-8 8zm0-254.027c-4.418 0-8-3.582-8-8s3.582-8 8-8h233.873c4.418 0 8 3.582 8 8s-3.582 8-8 8zm0 42.337c-4.418 0-8-3.582-8-8s3.582-8 8-8h233.873c4.418 0 8 3.582 8 8s-3.582 8-8 8zm0 42.338c-4.418 0-8-3.582-8-8s3.582-8 8-8h233.873c4.418 0 8 3.582 8 8s-3.582 8-8 8zm0 42.338c-4.418 0-8-3.582-8-8s3.582-8 8-8h233.873c4.418 0 8 3.582 8 8s-3.582 8-8 8zm0 42.338c-4.418 0-8-3.582-8-8s3.582-8 8-8h233.873c4.418 0 8 3.582 8 8s-3.582 8-8 8zm0 42.338c-4.418 0-8-3.582-8-8s3.582-8 8-8h233.873c4.418 0 8 3.582 8 8s-3.582 8-8 8z" fill="#a79ba7"/></g><g><path d="m314.432 220.092h-268.682c-16.363 0-29.75 13.388-29.75 29.75v105.68l310.112-30.245v-93.505c.001-6.433-5.247-11.68-11.68-11.68z" fill="#c48958"/><path d="m38.922 308.854-13.113-12.434 99.19-171.803c2.754-4.77 8.89-6.414 13.66-3.66l139.473 80.525c4.77 2.754 6.414 8.89 3.66 13.66l-54.105 93.712z" fill="#abd641"/><path d="m55.099 308.854 81.827-141.729c2.754-4.77 8.89-6.414 13.66-3.66l139.473 80.524c4.77 2.754 6.414 8.89 3.66 13.66l-29.563 51.205z" fill="#c2ed56"/><path d="m55.099 308.854 81.827-141.729c2.754-4.77 8.89-6.414 13.66-3.66l139.473 80.524c4.592 2.651 6.286 8.437 3.949 13.121l-139.388-80.476c-4.77-2.754-10.906-1.109-13.66 3.66l-74.224 128.56z" fill="#b7e546"/><path d="m248.483 279.591c-10.291-5.941-13.927-18.905-8.124-28.957l-70.677-40.806c-5.804 10.052-18.849 13.385-29.139 7.444l-52.875 91.583h143.92z" fill="#eceff1"/><path d="m342.69 279.592h-296.94c-16.363 0-29.75-13.387-29.75-29.75v211.361c0 16.363 13.387 29.75 29.75 29.75h296.94c6.434 0 11.681-5.247 11.681-11.681v-188c0-6.433-5.248-11.68-11.681-11.68z" fill="#e3a76f"/><path d="m342.69 279.592-.001 187.999c0 6.434-5.247 11.681-11.681 11.681h-296.939c-5.195 0-10.089-1.351-14.351-3.717 5.086 9.162 14.865 15.398 26.033 15.398h296.939c6.434 0 11.681-5.247 11.681-11.681v-188c0-6.433-5.248-11.68-11.681-11.68z" fill="#c48958"/><path d="m354.371 344.049h-78.453c-22.673 0-41.223 18.55-41.223 41.223 0 22.673 18.55 41.223 41.223 41.223h78.453z" fill="#c48958"/><path d="m342.689 344.049h11.682v82.446h-11.682z" fill="#b5733e"/><path d="m277.338 400.017c8.121 0 14.744-6.623 14.744-14.744s-6.623-14.744-14.744-14.744-14.745 6.624-14.745 14.744 6.623 14.744 14.745 14.744z" fill="#eceff1"/></g></g></svg>