<svg id="Layer_1" height="512" viewBox="0 0 64 64" width="512" xmlns="http://www.w3.org/2000/svg" data-name="Layer 1"><circle cx="32" cy="39" fill="#c2daf2" r="24"/><g fill="#3987bf"><path d="m32 1-4 6h3.25v6h1.5v-6h3.25z"/><path d="m59 12.984-7.071 1.415 2.298 2.298-4.243 4.242 1.061 1.061 4.243-4.243 2.298 2.298z"/><path d="m4.984 13 7.071 1.414-2.298 2.298 4.243 4.243-1.061 1.061-4.242-4.243-2.298 2.298z"/></g><path d="m46 31.00361h-22a2.00588 2.00588 0 0 0 -2 2v16a2 2 0 0 0 2 2h22a2.00588 2.00588 0 0 0 2-2v-16a2.00588 2.00588 0 0 0 -2-2z" fill="#626f8c"/><path d="m42 37.51362a2 2 0 0 0 -2 2v2a2 2 0 0 0 2 2h6v-6z" fill="#dae6f2"/><circle cx="22" cy="47.004" fill="#fdca59" r="8"/><path d="m25 21.494h12v9.51h-12z" fill="#4cbf9a"/><path d="m29.61 20.514-.96 10.49h12.046l.869-9.444z" fill="#45ad8c"/><path d="m35.41 20.004-2.95 11h12.42l2.12-7.89z" fill="#4cbf9a"/><path d="m34.63243 22.89778.96593.25882a2 2 0 0 0 2.44949-1.41422l.25882-.96592-2.89778-.77646z" fill="#00836d"/><path d="m43.8434 23.2953a2 2 0 0 0 1.41422 2.44949l.96592.25882.77646-2.89778-2.89778-.77646z" fill="#00836d"/><path d="m39.52 27.83362a2.49518 2.49518 0 0 0 -3.06 1.77 2.46373 2.46373 0 0 0 .03 1.4h4.76a.48506.48506 0 0 0 .04-.11 2.49518 2.49518 0 0 0 -1.77-3.06z" fill="#00836d"/><path d="m22 44.82636c.542 0 1 .33252 1 .72656h1.5a2.26966 2.26966 0 0 0 -1.75-2.11285v-1.43646h-1.5v1.43646a2.26966 2.26966 0 0 0 -1.75 2.11285 2.37808 2.37808 0 0 0 2.5 2.22656c.542 0 1 .33252 1 .72657s-.458.72656-1 .72656-1-.33252-1-.72656h-1.5a2.26966 2.26966 0 0 0 1.75 2.11285v1.38471h1.5v-1.38471a2.26966 2.26966 0 0 0 1.75-2.11285 2.37809 2.37809 0 0 0 -2.5-2.22657c-.542 0-1-.33251-1-.72656s.458-.72656 1-.72656z" fill="#596580"/><rect fill="#5b6a8c" height="3" rx="1.5" width="3" x="41.5" y="39.004"/></svg>