<?xml version="1.0" encoding="utf-8"?>
<!-- Generator: Adobe Illustrator 27.5.0, SVG Export Plug-In . SVG Version: 6.00 Build 0)  -->
<svg version="1.1" id="Ñëîé_1" xmlns="http://www.w3.org/2000/svg" xmlns:xlink="http://www.w3.org/1999/xlink" x="0px" y="0px"
	 viewBox="0 0 2346.924 2074.539" style="enable-background:new 0 0 2346.924 2074.539;" xml:space="preserve">
<g>
	<g>
		<rect style="fill:#FFFFFF;" width="2346.924" height="2074.539"/>
	</g>
	<g>
		<g>
			<g>
				<g>
					<path style="fill:#A1DBFF;" d="M1817.512,815.775c2.426-20.72,4.852-41.439,7.279-62.159c0.251-2.14-1.105-4.124-3.178-4.71
						c-18.079-5.107-32.701-16.321-39.691-30.891c-14.146-29.484-4.422-61.482,19.122-83.552c2.295-2.151,2.071-5.863-0.474-7.712
						c-17.554-12.749-30.811-29.141-46.931-43.896c-1.853-1.696-4.651-1.77-6.604-0.191c-12.33,9.969-33.049,17.296-47.568,14.067
						c-15.871-3.53-29.616-15.466-35.336-30.686c-3.971-10.568-4.182-22.097-6.123-33.234c-0.41-2.353-2.297-4.169-4.661-4.519
						c-10.992-1.628-42.386-6.298-56.047-8.559c-3.477-0.575-7.259-1.104-10.351,0.588c-4.239,2.32-5.427,7.705-6.799,12.338
						c-6.389,21.58-21.806,35.266-44.242,37.044c-21.018,1.666-43.258-9.262-57.388-25.431c-1.593-1.822-4.366-2.007-6.235-0.469
						c-11.286,9.286-22.572,18.572-33.858,27.858c-4.332,3.565-10.642,7.541-8.907,12.876c0.975,2.998,5.905,7.679,7.609,10.331
						c11.618,18.086,11.922,34.07,6.525,53.32c-3.445,12.286-10.366,23.981-21.544,30.135c-12.701,6.993-28.43,3.239-42.639-0.641
						c-2.618-0.715-5.297,0.786-5.645,3.477c-2.645,20.454-8.502,40.491-17.292,59.148c-1.02,2.164-0.047,4.73,2.137,5.706
						c29.332,13.104,56.894,38.128,56.457,69.914c-0.267,19.431-14.479,32.637-30.04,45.698c-1.934,1.624-2.132,4.522-0.452,6.407
						c14.197,15.924,26.921,31.73,38.449,49.344c1.314,2.008,3.969,2.66,6.026,1.424c14.441-8.674,32.987-13.122,50.401-9.362
						c19.7,4.253,40.765,15.992,44.152,35.859c1.563,9.166,0.319,20.506-1.234,29.674c-0.336,1.982-0.604,4.12,0.297,5.917
						c1.033,2.059,3.316,3.122,5.447,4c16.786,6.92,39.339,7.085,58.231,8.828c3.369,0.311,6.475-1.764,7.553-4.971
						c8.01-23.834,19.629-42.559,44.182-50.168c24.874-7.708,47.802,3.481,70.048,23.364c2.474,2.211,6.109,2.506,8.877,0.676
						c15.575-10.297,36.94-22.589,48.237-34.598c1.249-1.328,2.267-2.875,2.818-4.612c1.082-3.407,0.967-7.505-0.997-10.472
						c-15-22.66-25.444-39.825-16.982-60.877c8.462-21.052,31.84-37.378,53.701-31.302c4.437,1.233,9.887,3.102,12.648-1.678
						C1817.072,818.071,1817.377,816.929,1817.512,815.775z M1652.512,856.898c-8.28,6.146-23.323,13.118-33.333,15.595
						c-10.308,2.551-20.735,4.455-31.235,2.987c-24.035-3.361-48.528-9.435-67.807-24.175c-8.668-6.627-16.023-14.822-22.739-23.422
						c-8.774-11.234-16.595-23.333-21.911-36.56c-14.319-35.629-8.642-78.166,13.072-109.835
						c21.714-31.669,48.91-49.34,86.813-55.483c15.495-2.512,47.501-1.67,61.634,5.162c14.133,6.832,23.212,11.973,35.327,21.956
						c10.622,8.753,19.5,20.008,26.246,32.005c5.013,8.915,7.54,18.99,9.627,29.003c3.394,16.276,5.775,33.006,3.749,49.509
						C1707.031,803.747,1684.872,832.877,1652.512,856.898z"/>
				</g>
			</g>
			<g>
				<g>
					<path style="fill:#FF43CA;" d="M1347.917,625.446c2.713-23.586,5.425-47.171,8.138-70.757c0.28-2.436-1.267-4.691-3.628-5.353
						c-20.587-5.769-37.253-18.497-45.243-35.062c-16.167-33.522-5.177-69.959,21.566-95.132c2.607-2.454,2.344-6.677-0.557-8.775
						c-20.007-14.468-35.133-33.091-53.513-49.846c-2.113-1.926-5.297-2.004-7.516-0.202c-14.008,11.375-37.571,19.762-54.102,16.12
						c-18.071-3.98-33.741-17.532-40.286-34.84c-4.544-12.018-4.811-25.138-7.046-37.808c-0.472-2.677-2.624-4.74-5.315-5.132
						c-12.514-1.827-48.252-7.068-63.804-9.609c-3.959-0.647-8.264-1.24-11.778,0.693c-4.819,2.65-6.159,8.781-7.709,14.058
						c-7.221,24.574-24.734,40.186-50.263,42.262c-23.916,1.945-49.251-10.439-65.37-28.808c-1.817-2.07-4.974-2.273-7.097-0.519
						c-12.822,10.595-25.645,21.189-38.467,31.784c-4.922,4.067-12.093,8.607-10.107,14.674c1.116,3.409,6.738,8.725,8.683,11.739
						c13.264,20.556,13.038,39.509,6.034,60.837c-4.531,13.797-10.915,28.317-23.621,35.348
						c-14.438,7.988-31.931,3.804-47.836-1.803c-2.913-1.027-6.026,0.906-6.416,3.97c-2.962,23.284-9.58,46.101-19.541,67.354
						c-1.155,2.465-0.042,5.383,2.446,6.488c33.412,14.845,64.838,43.259,64.415,79.434c-0.258,22.114-16.401,37.177-34.08,52.077
						c-2.198,1.852-2.416,5.152-0.499,7.293c16.194,18.089,30.712,36.047,43.873,56.066c1.5,2.282,4.523,3.018,6.861,1.606
						c16.414-9.905,37.51-15.011,57.337-10.773c22.43,4.794,46.43,18.104,50.332,40.706c1.8,10.428,0.411,23.337-1.335,33.774
						c-0.377,2.256-0.678,4.69,0.352,6.733c1.181,2.341,3.781,3.545,6.208,4.539c19.12,7.836,44.787,7.971,66.29,9.91
						c3.835,0.346,7.365-2.023,8.584-5.675c9.06-27.143,22.24-48.481,50.164-57.197c28.29-8.831,54.409,3.849,79.773,26.425
						c2.821,2.511,6.958,2.838,10.104,0.749c17.701-11.754,41.986-25.794,54.816-39.488c1.418-1.514,2.573-3.277,3.197-5.255
						c1.223-3.879,1.083-8.543-1.16-11.916c-17.124-25.753-29.051-45.264-19.469-69.242c9.581-23.978,36.149-42.613,61.041-35.749
						c5.053,1.393,11.259,3.507,14.391-1.94C1347.421,628.06,1347.766,626.76,1347.917,625.446z M1160.234,672.633
						c-9.408,7.014-26.513,14.984-37.898,17.826c-11.725,2.927-23.587,5.119-35.54,3.473c-27.361-3.768-55.25-10.624-77.225-27.354
						c-9.88-7.522-18.27-16.831-25.933-26.602c-10.012-12.765-18.941-26.515-25.021-41.555
						c-16.379-40.514-10.018-88.937,14.619-125.029c24.637-36.092,55.546-56.266,98.668-63.346
						c17.629-2.895,54.054-2.012,70.155,5.73c16.1,7.742,26.445,13.572,40.255,24.904c12.109,9.937,22.239,22.724,29.944,36.362
						c5.725,10.135,8.625,21.595,11.024,32.984c3.9,18.516,6.65,37.55,4.383,56.335
						C1222.156,612.017,1197.005,645.22,1160.234,672.633z"/>
				</g>
			</g>
			<g>
				<g>
					<path style="fill:#191D26;" d="M1414.458,1003.915c-4.5-15.207-8.628-30.589-13.516-45.675
						c-1.928-5.951-4.975-8.547-11.341-8.177c-6.688,0.389-13.081,0.311-19.556-1.606c-23.467-6.949-33.42-33.415-28.385-55.785
						c0.658-2.924,1.511-5.806,2.543-8.619c0.82-2.234,2.096-4.438,2.216-6.865c0.358-7.217-5.876-9.18-11.537-10.721
						c-13.767-3.749-26.629-10.041-39.971-14.986c-5.195-1.925-10.094-2.552-13.867,2.246c-3.779,4.805-6.481,9.9-11.059,14.148
						c-9.495,8.81-21.032,12.182-33.52,7.823c-12.875-4.494-18.616-15.835-25.284-26.756c-3.033-4.968-6.556-8.423-12.789-7.213
						c-4.405,0.855-8.776,2.305-13.118,3.439c-9.528,2.488-19.058,4.972-28.612,7.359c-4.651,1.162-9.573,2.416-12.433,6.621
						c-3.517,5.17-1.946,11.046-1.596,16.809c0.661,10.871-2.702,21.256-11.138,28.446c-9.269,7.899-22.026,10.324-33.889,8.986
						c-6.458-0.728-12.076-2.995-18.092-5.213c-6.672-2.46-10.472,1.781-13.319,7.277c-3.258,6.287-6.515,12.575-9.773,18.862
						c-2.882,5.562-7.559,12.006-8.587,18.284c-0.866,5.293,1.801,9.22,6.18,11.822c4.995,2.967,9.531,5.258,13.599,9.608
						c7.487,8.005,9.969,18.704,10.587,29.354c0.689,11.863-1.184,24.072-13.436,29.087c-5.808,2.377-11.852,2.552-17.96,3.369
						c-5.902,0.789-9.416,5.277-8.321,11.24c1.251,6.807,3.34,13.387,4.315,20.285c1.074,7.602,1.512,15.316,1.421,22.991
						c-0.061,5.16,0.411,10.586,6.193,12.362c2.531,0.777,5.51,0.445,8.127,0.625c3.274,0.226,6.526,0.61,9.755,1.198
						c19.744,3.596,45.674,16.282,44.402,40.07c-0.395,7.38-3.469,14.536-6.617,21.112c-2.469,5.156-6.049,11-0.983,15.966
						c1.927,1.89,4.745,2.769,7.132,3.922c3.324,1.605,6.63,3.25,9.909,4.944c6.49,3.354,12.88,6.901,19.122,10.697
						c4.659,2.833,10.239,8.367,16.141,7.033c3.056-0.691,4.637-2.892,6.471-5.18c2.219-2.768,4.681-5.351,7.354-7.684
						c8.956-7.815,20.074-11.811,31.891-12.099c10.044-0.245,21.508,1.991,27.514,10.873c3.564,5.271,5.452,11.679,7.061,17.767
						c1.429,5.406,2.881,10.593,9.081,12.048c5.366,1.26,11.946-0.128,17.231-1.189c6.969-1.399,13.748-3.618,20.469-5.901
						c5.396-1.833,12.855-3.039,17.259-6.781c5.142-4.369,3.619-10.727,3.52-16.671c-0.182-10.904,1.532-21.963,8.03-31.006
						c7.055-9.818,18.044-15.812,30.098-16.405c5.741-0.282,11.448,0.356,17.057,1.562c5.746,1.235,12.743,5.119,18.602,3.956
						c5.544-1.1,7.953-5.88,10.865-10.172c3.707-5.464,7.481-10.886,11.029-16.457c5.601-8.796,15.259-21.897,9.321-32.619
						c-2.707-4.888-8.25-7.398-12.669-10.475c-4.554-3.171-9.008-6.534-12.819-10.592c-13.97-14.874-8.144-43.092,11.052-51.052
						c4.246-1.761,9.126-1.249,13.218-3.337C1414.148,1014.26,1415.578,1009.284,1414.458,1003.915
						c-1.441-6.909-12.021-3.985-10.581,2.917c0.187,0.029,0.375,0.058,0.562,0.087c-0.558,0.276-1.146,0.459-1.766,0.549
						c-1.041,0.319-2.313,0.341-3.376,0.509c-2.208,0.348-4.303,0.861-6.398,1.648c-4.984,1.872-9.486,4.835-13.26,8.589
						c-7.06,7.022-11.634,16.594-13.139,26.393c-1.523,9.913-0.034,20.141,5.743,28.514c5.746,8.329,14.078,14.344,22.353,19.953
						c2.19,1.484,5.559,2.822,6.399,5.496c0.776,2.472-0.738,5.013-1.776,7.207c-2.708,5.727-6.108,11.128-9.568,16.422
						c-3.006,4.6-6.139,9.116-9.224,13.663c-0.701,1.033-1.613,3.102-2.597,3.856c-1.715,1.315-0.263,1.211-2.988,0.447
						c-3.297-0.925-6.534-1.993-9.876-2.769c-22.665-5.264-45.802-1.223-60.309,18.36c-6.248,8.435-9.197,18.486-10.1,28.847
						c-0.257,2.946-0.33,5.906-0.278,8.862c0.033,1.859,1.119,6.224,0.39,7.705c-0.865,1.76-5.161,2.432-7.247,3.149
						c-3.651,1.255-7.296,2.53-10.97,3.719c-6.114,1.979-12.352,3.867-18.724,4.805c-1.742,0.256-6.68,1.517-8.116,0.53
						c-1.158-0.796-1.781-6.001-2.182-7.371c-3.162-10.8-7.837-21.434-17.798-27.514c-18.001-10.989-44.403-7-60.837,4.945
						c-4.31,3.133-8.286,6.674-11.729,10.747c-0.362,0.428-2.247,3.412-2.734,3.451c1.728-0.138-2.899-2.977-2.861-2.952
						c-3.091-1.964-6.22-3.866-9.384-5.709c-5.792-3.373-11.7-6.547-17.685-9.565c-2.757-1.39-5.53-2.749-8.316-4.08
						c-0.563-0.268-1.125-0.535-1.688-0.803c-2.069-1.149-2.246-1.091-0.531,0.173c0.478-1.743,1.727-3.491,2.498-5.154
						c5.534-11.924,9.921-25.294,5.48-38.32c-3.259-9.559-9.751-17.595-17.741-23.635c-8.406-6.354-18.505-10.445-28.735-12.778
						c-4.842-1.104-9.779-1.832-14.724-2.273c-1.168-0.104-2.336-0.191-3.507-0.256c-0.274-0.015-6.128-0.356-2.036,1.845
						c-0.488-0.262,0.042-10.134-0.001-11.318c-0.245-6.776-0.951-13.53-2.003-20.228c-0.488-3.107-1.07-6.198-1.74-9.27
						c-0.327-1.499-0.499-4.204-1.31-5.506c0.1-1.997-0.471-2.363-1.711-1.097c1.026-0.075,2.051-0.164,3.075-0.267
						c10.649-1.089,22.012-3.683,29.477-11.982c7.795-8.665,8.969-20.687,8.234-31.84c-0.675-10.243-2.683-20.636-8.321-29.395
						c-2.764-4.295-6.224-8.143-10.183-11.364c-1.789-1.455-3.646-2.934-5.635-4.101c-1.361-0.799-5.796-1.987-6.445-3.426
						c-0.503-1.113,3.224-6.511,3.802-7.619c1.49-2.853,2.962-5.716,4.442-8.574c1.629-3.144,3.258-6.287,4.886-9.431
						c0.74-1.429,1.481-2.858,2.221-4.287c0.77-1.486,2.178-5.996,3.554-6.859c-2.452,1.538-0.833,1.284,0.764,1.951
						c1.212,0.506,2.428,0.995,3.667,1.433c3.068,1.086,6.223,1.926,9.423,2.518c5.813,1.076,11.761,1.525,17.658,1.01
						c11.556-1.008,22.74-5.238,31.306-13.215c7.196-6.701,11.61-15.735,12.929-25.428c0.732-5.379,0.263-10.352-0.196-15.717
						c-0.238-2.784-0.548-4.498,2.058-5.807c2.172-1.09,5.221-1.369,7.583-1.964c9.35-2.357,18.681-4.794,28.01-7.235
						c2.457-0.643,8.328-3.051,10.175-2.059c1.444,0.776,3.462,5.811,4.303,7.24c1.701,2.89,3.42,5.775,5.379,8.5
						c13.639,18.975,40.046,26.415,60.043,12.621c4.69-3.235,8.961-7.106,12.599-11.49c1.748-2.106,3.408-4.306,4.876-6.617
						c0.563-0.887,1.072-2.399,1.811-3.096c-1.9,0.494-1.759,0.901,0.423,1.222c1.157,0.418,2.31,0.846,3.46,1.284
						c12.443,4.723,24.519,10.495,37.366,14.098c1.111,0.312,4.518,0.608,5.326,1.358c-1.903-1.766-1.479-0.437-2.252,1.549
						c-0.911,2.342-1.705,4.729-2.363,7.154c-1.527,5.623-2.399,11.525-2.483,17.352c-0.15,10.43,2.339,20.926,7.466,30.031
						c5.426,9.637,13.784,17.931,23.958,22.401c5.007,2.2,10.189,3.548,15.609,4.218c3.278,0.406,6.572,0.564,9.873,0.413
						c1.112-0.051,2.266-0.233,3.381-0.247c2.005-0.351,2.258-0.311,0.759,0.12c0.375,1.269,0.751,2.538,1.126,3.806
						c4.13,13.956,8.26,27.913,12.39,41.869C1405.876,1013.589,1416.469,1010.712,1414.458,1003.915z"/>
				</g>
				<g>
					<path style="fill:#191D26;" d="M1296.983,1084.037c-4.521,7.481-10.725,14.447-17.581,19.878
						c-8.423,6.673-17.243,10.663-27.651,13.13c-21.633,5.126-42.949,5.478-63.238-4.539c-17.618-8.698-34.011-20.389-44.347-37.425
						c-9.562-15.76-13.934-34.361-12.765-52.734c2.125-33.416,21.652-63.783,51.64-78.825c7.393-3.708,15.203-6.695,23.187-8.857
						c7.922-2.144,15.098-2.191,23.258-1.478c19.832,1.732,40.827,8.97,54.757,23.765c7.852,8.339,14.39,18.626,19.763,28.711
						c5.519,10.358,9.01,21.755,10.025,33.466C1316.039,1042.312,1308.43,1064.19,1296.983,1084.037
						c-3.535,6.128,5.944,11.661,9.475,5.538c11.35-19.678,19.404-41.578,18.864-64.577c-0.56-23.871-10.164-44.653-23.791-63.818
						c-6.748-9.49-14.263-17.372-24.125-23.656c-9.73-6.2-20.465-10.41-31.711-12.901c-9.448-2.092-20.136-3.754-29.824-2.885
						c-8.935,0.802-17.666,3.564-25.975,6.837c-16.839,6.635-32.181,16.494-44.125,30.244
						c-12.278,14.133-19.96,31.497-23.552,49.797c-3.981,20.278-1.709,41.377,6.492,60.343c8.77,20.281,24.165,35.626,42.976,46.853
						c11.053,6.597,23.011,12.418,35.784,14.644c13.576,2.365,27.344,1.255,40.787-1.43c13.198-2.636,24.567-6.655,35.451-14.714
						c8.976-6.645,16.961-15.162,22.75-24.739C1310.12,1083.516,1300.635,1077.994,1296.983,1084.037z"/>
				</g>
			</g>
		</g>
		<g>
			<g>
				<path style="fill:#D88771;" d="M444.297,1799.613c1.223-9.293,3.583-23.559,6.046-33.123l-48.688-6.05
					c-0.908,9.828-2.754,22.438-3.332,32.28c-0.025,0.422-0.043,0.875,0.179,1.235c0.382,0.623,1.252,0.672,1.982,0.653
					C415.167,1794.225,429.793,1797.291,444.297,1799.613z"/>
			</g>
			<g>
				<path style="fill:#D88771;" d="M656.908,1796.012c-0.002-2.694-0.057-5.823-0.062-8.458c-0.016-8.311,0.201-15.4,0.461-23.112
					l-45.949-0.221c0.476,11.267,1.831,22.133,2.364,33.484C628.347,1797.007,642.283,1796.711,656.908,1796.012z"/>
			</g>
			<g>
				<path style="fill:#191D26;" d="M453.468,1162.621c-22.72,103.298-27.471,228.068-36.686,332.961
					c-2.075,23.622-21.498,224.202-22.645,278.9c-0.042,2.025,1.475,3.782,3.493,3.951c19.025,1.593,32.654,2.294,50.307,3.373
					c2.887,0.177,6.094,0.427,8.371-1.298c1.02-0.772,1.677-1.924,2.007-3.16c18.059-77.296,49.921-183.5,57.957-274.75
					c0.91-10.336,16.912-162.819,18.62-197.156c1.258-0.932,2.925-1.036,4.488-1.105c12.006-0.53,7.803,0.313,19.809-0.216
					c1.47,19.808,12.406,155.339,15.77,186.677c7.407,90.035,19.695,185,28.286,281.338c0.19,2.136,0.574,9.261,1.041,12.472
					c0.237,1.63,1.585,2.979,3.232,2.955c27.526-0.401,33.629-0.895,57.751-1.439c1.99-0.045,4.121-0.337,5.632-1.632
					c2.093-1.793,2.33-11.538,2.349-14.294c0.689-100.095,4.872-185.851,1.163-283.252c-0.451-9.489-19.97-262.31-26.53-326.136
					L453.468,1162.621z"/>
			</g>
			<g>
				<path style="fill:#636363;" d="M613.722,1797.706c-0.841,11.462-1.21,21.072-0.47,32.626c0,0.003,0.024,0.339,0.024,0.343
					c0.24,1.585,1.259,2.449,2.8,2.433c0.488-0.005,0.866-0.012,0.933-0.013c31.854-0.502,60.288-0.96,92.142-1.462
					c0.632-0.01,1.329-0.045,1.787-0.48c0.401-0.381,0.51-0.969,0.578-1.518c0.959-7.778-1.346-13.512-6.727-18.976
					c-5.674-5.762-13.101-9.53-21.059-10.963c-9.161-1.65-17.637-4.472-26.851-4.48L613.722,1797.706z"/>
			</g>
			<g>
				<path style="fill:#636363;" d="M397.462,1789.867c-2.56,12.814-3.457,25.522-2.838,38.925c0.032,0.698,0.223,1.434,0.715,1.931
					c0.604,0.61,1.558,0.659,2.417,0.669c26.158,0.318,54.01,0.714,80.168,1.032l16.194,0.197c2.11,0.026,3.885-1.656,3.89-3.767
					c0.011-5.047-0.278-9.696-2.958-13.976c-4.701-7.508-13.963-12.642-22.319-15.585c-8.356-2.943-19.53-4.495-27.99-7.122
					L397.462,1789.867z"/>
			</g>
			<g>
				<g>
					<path style="fill:#FFFFFF;" d="M471.349,1178.849c-2.093,37.636-6.833,75.029-11.261,112.441
						c-4.628,39.1-8.92,78.239-13.038,117.396c-8.305,78.976-15.891,158.026-23.927,237.029
						c-4.475,43.992-9.092,87.97-14.064,131.908c-0.055,0.482,0.701,0.478,0.755,0c8.888-78.542,16.645-157.206,24.475-235.859
						c7.845-78.802,15.738-157.605,24.887-236.268c4.902-42.151,10.57-84.251,12.928-126.647
						C472.131,1178.363,471.376,1178.365,471.349,1178.849L471.349,1178.849z"/>
				</g>
			</g>
			<g>
				<g>
					<path style="fill:#FFFFFF;" d="M522.253,1169.785c-5.379,37.176-7.784,74.658-11.633,112
						c-1.847,17.918-4.73,35.694-6.166,53.658c-1.464,18.315-3.695,36.541-5.701,54.801c-4.599,41.875-9.023,83.718-14.863,125.447
						c-5.892,42.105-12.707,84.081-20.437,125.888c-4.048,21.893-9.618,43.791-12.13,65.92c-2.688,23.684-3.732,47.752-7.602,71.275
						c-0.078,0.475,0.649,0.68,0.728,0.201c3.249-19.747,4.654-40.058,6.487-59.985c1.922-20.889,6.429-41.204,10.349-61.781
						c7.896-41.443,14.888-83.058,20.974-124.805c5.997-41.133,11.115-82.395,15.346-123.747
						c3.736-36.509,6.984-73.16,11.713-109.547c5.579-42.928,7.459-86.253,13.663-129.124
						C523.049,1169.511,522.322,1169.306,522.253,1169.785L522.253,1169.785z"/>
				</g>
			</g>
			<g>
				<g>
					<path style="fill:#FFFFFF;" d="M581.369,1163.813c0.055,79.253,8.851,157.971,13.415,237.006
						c1.102,19.078,3.193,38.03,4.619,57.072c0.777,10.38,0.979,20.792,1.529,31.184c0.535,10.089,1.694,20.117,2.578,30.178
						c3.657,41.588,5.574,83.341,8.562,124.982c3.322,46.283,6.981,92.54,10.602,138.799c0.038,0.481,0.793,0.485,0.755,0
						c-3.213-41.042-6.456-82.082-9.466-123.14c-3.053-41.644-5.289-83.349-8.424-124.984c-1.544-20.504-3.673-40.882-4.533-61.435
						c-0.812-19.4-3.275-38.662-4.566-58.033c-1.299-19.5-2.145-39.027-3.393-58.53c-1.249-19.526-3.242-38.99-4.85-58.488
						c-3.694-44.791-6.043-89.66-6.075-134.612C582.124,1163.327,581.369,1163.326,581.369,1163.813L581.369,1163.813z"/>
				</g>
			</g>
			<g>
				<g>
					<path style="fill:#FFFFFF;" d="M623.873,1163.813c8.484,83.536,13.748,167.356,17.535,251.225
						c3.762,83.321,6.102,166.696,8.975,250.049c0.797,23.123,1.635,46.244,2.558,69.361c0.411,10.312,1.131,20.653,1.241,30.972
						c0.068,6.451-0.232,12.904-0.006,19.354c0.017,0.484,0.772,0.487,0.755,0c-0.495-14.17-0.341-28.331-0.92-42.516
						c-0.849-20.834-1.626-41.672-2.362-62.51c-1.451-41.097-2.742-82.199-4.112-123.299c-2.788-83.666-5.911-167.334-11.29-250.88
						c-3.046-47.316-6.828-94.585-11.619-141.757C624.579,1163.334,623.824,1163.329,623.873,1163.813L623.873,1163.813z"/>
				</g>
			</g>
			<g>
				<g>
					<path style="fill:#191D26;" d="M444.561,1801.618c2.244-1.205,4.675-2.136,6.995-3.185c3.766-1.703,4.909-3.293,7.867-6.503
						c2.343-2.543,4.898-4.944,7.961-6.6c1.858-1.004,4.348-2.092,6.476-2.085c0.518-0.017,1.035-0.034,1.553-0.051
						c1.907,0.442,2.221,1.344,0.942,2.707c-1.25,5.715-15.192,7.576-20.022,8.398c-2.089,0.356-1.613,3.836,0.502,3.707
						c3.568-0.218,7.173-0.458,10.744-0.148c2.142,0.187,4.367,0.579,6.404,1.313c2.427,0.23,3.4,1.55,2.918,3.96
						c1.248,2.285,0.675,3.504-1.72,3.656c-3.477,1.117-10.58,2.367-13.668-0.379c-2.401-2.135-3.865-7.012-5.267-9.755
						c-1.106-2.163-4.363-0.256-3.259,1.905c2.652,5.189,4.534,11.963,11.074,12.943c4.991,0.748,13.443,0.218,17.075-3.814
						c3.315-3.68,1.046-8.362-2.72-10.641c-6.292-3.807-14.58-3.241-21.58-2.814c0.167,1.235,0.334,2.471,0.502,3.707
						c6.658-1.134,17.946-2.909,22.059-9.125c1.407-2.126,2.104-5.113,0.669-7.375c-1.622-2.557-5.06-2.18-7.746-1.76
						c-3.441,0.538-6.68,2.074-9.504,4.08c-3.692,2.623-6.001,6.36-9.297,9.294c-2.867,2.551-7.445,3.473-10.861,5.307
						C440.516,1799.509,442.42,1802.768,444.561,1801.618L444.561,1801.618z"/>
				</g>
			</g>
			<g>
				<g>
					<path style="fill:#191D26;" d="M658.641,1807.496c4.31-4.493,11.156-6.377,15.414-10.955c2.831-3.044,4.77-6.625,7.965-9.46
						c1.486-1.319,3.06-2.542,4.707-3.652c2.232-1.505,7.518-4.803,4.537,1.343c-3.626,7.477-14.134,8.94-20.682,12.832
						c-2.108,1.253-0.257,4.325,1.905,3.259c4.758-2.347,9.704-4.153,14.896-5.265c2.235-0.479,6.368-1.921,8.478-1.182
						c2.416-0.727,3.115,0.494,2.098,3.664c-0.656,0.7-1.382,1.316-2.178,1.849c-8.565,6.427-17.614,3.232-26.801,0.397
						c-2.326-0.718-3.321,2.924-1.003,3.639c6.957,2.147,13.715,4.796,21.075,3.163c5.027-1.115,12.12-4.584,13.869-9.839
						c4.687-14.08-28.255-1.7-32.338,0.314c0.635,1.086,1.27,2.172,1.905,3.259c7.724-4.591,19.606-6.241,22.817-16.03
						c0.72-2.195,1.444-6.17-0.972-7.574c-3.108-1.805-7.852,1.762-10.172,3.37c-3.894,2.7-7.366,5.942-10.303,9.663
						c-1.95,2.471-3.1,4.264-5.661,6.026c-3.895,2.681-8.934,5.08-12.223,8.509C654.291,1806.58,656.956,1809.253,658.641,1807.496
						L658.641,1807.496z"/>
				</g>
			</g>
			<g>
				<path style="fill:#191D26;" d="M616.928,795.349c4.205-4.334,5.871-10.462,7.383-16.307c2.272-8.782,2.97-20.368-1.146-28.452
					c-4.233-8.312-13.936-12.293-23.138-13.822c-3.968-0.659-8.116-0.979-11.949,0.241c-3.833,1.22-7.298,4.275-7.989,8.237
					c-3.775-7.844-5.464-12.438-12.182-17.973s-16.152-8.206-24.413-5.461c-8.261,2.745-17.629,15.858-14.752,24.074
					c-3.926-3.505-9.189-4.97-14.233-4.732c-6.34,0.299-10.565,3.701-12.582,8.831c-2.017,5.131-1.644,10.856-1.062,16.338
					c-8.574-1.72-13.504,0.196-19.693,6.375s-8.687,15.979-5.665,24.185c3.022,8.207,7.813,11.257,15.875,14.054
					c-6.561,4.518-10.337,8.64-10.239,16.606c0.053,4.243,0.725,8.655,3.153,12.134c2.428,3.48,4.98,6.737,12.453,9.02
					c-0.388,9.371,3.801,18.825,11.002,24.833c7.202,6.008,17.254,8.434,26.403,6.372L616.928,795.349z"/>
			</g>
			<g>
				<path style="fill:#D88771;" d="M613.27,799.642c1.336,6.223,2.1,12.574,3.183,18.846c1.713,9.915,3.611,20.638,1.373,30.401
					c-2.089,9.111-6.416,14.428-8.459,16.711c-9.883,11.044-28.688,13.595-44.177,10.918c-15.489-2.677-29.779-13.757-35.553-28.968
					c-0.203-0.535-0.409-1.094-0.812-1.489c-0.444-0.436-1.063-0.608-1.654-0.759c-4.045-1.035-7.075-1.024-10.399-3.654
					c-3.475-2.75-5.719-5.272-6.593-9.703c-0.771-3.913,0.434-7.187,2.894-10.416c2.83-3.714,8.576-4.144,12.626-1.863
					c3.409,1.92,4.753,3.776,5.993,6.656c3.373-2.673,5.857-8.496,10.037-15.765c4.023,1.121,15.753-0.107,18.216-1.349
					c4.993-2.519,7.691-7.826,10.255-15.787c20.105,3.643,32.956,2.786,39.163-5.31C611.254,793.24,611.696,792.309,613.27,799.642z
					"/>
			</g>
			<g>
				<path style="fill:#D88771;" d="M578.447,859.054c0.476,16.068,2.172,30.164,4.347,47.054c0.211,1.636,0.507,2.885,0.409,4.537
					c-0.88,1.486-3.818,4.524-5.265,6.411c-3.386,4.413-4.689,5.836-8.332,9.951c-1.387,0.876-20.542-8.871-28.954-13.887
					c-4.183-2.494-14.483-10.48-16.263-12.217c4.096-15.801,5.655-43.648,4.927-61.543c-0.686-16.871,6.542,12.902,7.084,12.522
					c0.384-0.269,0.87-0.285,1.329-0.292C546.611,851.456,569.567,858.801,578.447,859.054z"/>
			</g>
			<g>
				<path style="fill:#191D26;" d="M600.393,817.061c0.318,2.6,1.806,4.557,3.322,4.372c1.516-0.186,2.487-2.444,2.169-5.044
					c-0.318-2.6-1.806-4.557-3.322-4.372C601.045,812.202,600.074,814.461,600.393,817.061z"/>
			</g>
			<g>
				<path style="fill:#191D26;" d="M564.523,821.454c0.318,2.6,1.806,4.557,3.322,4.372c1.516-0.186,2.487-2.444,2.169-5.044
					c-0.318-2.6-1.806-4.557-3.322-4.372C565.176,816.595,564.205,818.854,564.523,821.454z"/>
			</g>
			<g>
				<g>
					<path style="fill:#191D26;" d="M583.916,821.227c1.915,3.404,3.9,6.747,6.071,9.994c1.029,1.539,2.915,3.73,2.577,5.726
						c-0.457,2.701-3.576,2.405-5.544,2.466c-1.78,0.055-1.788,2.829,0,2.773c4.081-0.127,8.583-0.788,8.263-5.824
						c-0.158-2.494-1.557-4.53-2.902-6.542c-2.171-3.246-4.155-6.59-6.071-9.994C585.435,818.272,583.039,819.668,583.916,821.227
						L583.916,821.227z"/>
				</g>
			</g>
			<g>
				<g>
					<path style="fill:#191D26;" d="M586.182,852.384c-2.969,1.64-7.921,1.162-9.231-2.4c-0.611-1.661-3.292-0.943-2.674,0.737
						c1.947,5.293,8.637,6.637,13.306,4.058C589.145,853.915,587.747,851.519,586.182,852.384L586.182,852.384z"/>
				</g>
			</g>
			<g>
				<path style="fill:#63C3E0;" d="M603.066,912.736c13.871,5.206,27.328,11.92,39.266,20.431
					c33.37,23.793,46.917,50.685,86.92,73.13c2.091,1.173,5.374,1.735,7.128-0.356c16.917-20.171,23.748-32.924,33.304-47.573
					c12.419-19.037,21.217-34.883,30.308-49.698c1.037-1.69,3.113-2.431,4.99-1.793c9.553,3.25,18.767,8.242,28.21,11.393
					c1.503,0.501,9.959,4.206,10.812,5.541c0.814,1.272,0.723,2.903,0.56,4.404c-1.114,10.305-8.326,24.221-12.182,33.841
					c-13.414,33.463-27.498,60.407-43.258,85.298c-6.461,10.204-11.703,20.158-20.946,30.641
					c-7.376,8.366-18.351,11.694-27.845,11.128c-12.859-0.766-19.926-4.039-31.685-8.461c-23.141-8.703-34.61-12.549-57.414-22.939
					c-0.542,27.148-2.439,79.736-3.351,103.086c-25.253,0-117.299,1.093-117.299,1.093c-25.546-0.376-51.188,2.224-77.117,0.718
					c-0.477-24.378,1.39-44.867,2.355-74.177c0.151-4.595,0.832-10.281,1.344-15.103c-1.267-1.734-2.525-3.476-3.775-5.226
					c-30.316-42.463-38.368-87.738-10.426-124.678c15.922-21.049,38.112-31.913,54.537-36.805c3.681-1.096,11.941-3.699,18.19-5.523
					c3.994-1.166,6.5-3.79,7.83-7.768c1.501-4.49,1.882-7.612,2.079-9.222c7.026,0.99,48.903,4.252,56.1,4.342
					c0.385,3.983,0.943,6.732,1.52,11.595c0.526,4.432,2.741,7.424,7.008,8.735C593.979,909.942,600.387,911.731,603.066,912.736z"
					/>
			</g>
			<g>
				<g>
					<path style="fill:#3D8899;" d="M650.252,1006.215c-0.001,16.943,0.044,33.893-0.264,50.834c-0.036,1.979,3.039,1.98,3.075,0
						c0.308-16.941,0.263-33.891,0.264-50.834C653.327,1004.237,650.252,1004.233,650.252,1006.215L650.252,1006.215z"/>
				</g>
			</g>
			<g>
				<g>
					<path style="fill:#3670D6;" d="M943.973,1083.135c2.353-16.219,4.705-32.439,7.058-48.658c0.243-1.675-0.779-3.263-2.394-3.767
						c-14.088-4.401-25.328-13.523-30.504-25.116c-10.473-23.46-2.146-48.379,16.821-65.204c1.849-1.64,1.753-4.56-0.206-6.067
						c-13.51-10.391-23.568-23.55-35.909-35.486c-1.418-1.372-3.614-1.491-5.182-0.292c-9.898,7.563-26.328,12.87-37.661,10.02
						c-12.388-3.115-22.925-12.786-27.088-24.862c-2.891-8.385-2.807-17.444-4.091-26.232c-0.271-1.857-1.714-3.324-3.563-3.65
						c-8.598-1.516-33.151-5.861-43.831-7.931c-2.718-0.527-5.677-1.024-8.141,0.238c-3.379,1.73-4.429,5.934-5.606,9.543
						c-5.484,16.809-17.886,27.225-35.544,28.137c-16.542,0.855-33.772-8.207-44.519-21.211c-1.211-1.466-3.386-1.67-4.887-0.503
						c-9.064,7.049-18.128,14.098-27.191,21.147c-3.479,2.706-8.52,5.692-7.273,9.92c0.701,2.375,4.471,6.158,5.752,8.278
						c8.733,14.454,8.191,27.528,2.923,42.102c-3.408,9.428-8.109,19.317-17.02,23.909c-10.126,5.218-22.111,1.974-32.972-2.219
						c-1.989-0.768-4.177,0.503-4.508,2.608c-2.519,16.006-7.551,31.615-14.857,46.078c-0.847,1.677-0.139,3.714,1.555,4.527
						c22.752,10.924,43.857,31.171,42.828,56.125c-0.629,15.254-12.075,25.319-24.578,35.24c-1.554,1.233-1.772,3.505-0.493,5.022
						c10.806,12.812,20.457,25.5,29.13,39.582c0.989,1.605,3.059,2.174,4.702,1.248c11.528-6.5,26.189-9.593,39.784-6.265
						c15.379,3.766,31.669,13.439,33.9,29.114c1.029,7.232-0.192,16.111-1.61,23.277c-0.306,1.549-0.563,3.223,0.106,4.653
						c0.767,1.64,2.537,2.523,4.191,3.259c13.033,5.797,30.741,6.413,45.54,8.19c2.639,0.317,5.123-1.246,6.039-3.741
						c6.805-18.544,16.334-32.999,35.78-38.445c19.701-5.517,37.465,3.766,54.506,19.861c1.895,1.79,4.743,2.1,6.957,0.723
						c12.454-7.75,29.497-16.942,38.629-26.13c1.01-1.016,1.842-2.208,2.313-3.561c0.923-2.652,0.922-5.873-0.557-8.246
						c-11.291-18.119-19.123-31.825-12.023-48.175c7.1-16.35,25.812-28.667,42.849-23.423c3.458,1.065,7.698,2.65,9.97-1.045
						C943.577,1084.929,943.842,1084.039,943.973,1083.135z M813.505,1111.869c-6.635,4.648-18.6,9.799-26.514,11.528
						c-8.15,1.781-16.38,3.051-24.594,1.672c-18.803-3.158-37.907-8.457-52.729-20.449c-6.664-5.392-12.263-11.986-17.352-18.885
						c-6.648-9.012-12.529-18.682-16.418-29.184c-10.476-28.29-5.1-61.573,12.636-85.975c17.736-24.402,39.476-37.692,69.375-41.699
						c12.223-1.638,37.34-0.286,48.292,5.384c10.952,5.67,17.971,9.904,27.269,18.005c8.153,7.103,14.882,16.134,19.921,25.701
						c3.744,7.11,5.511,15.077,6.934,22.985c2.314,12.856,3.823,26.046,1.875,38.962
						C857.468,1071.305,839.437,1093.703,813.505,1111.869z"/>
				</g>
			</g>
			<g>
				<path style="fill:#63C3E0;" d="M462.857,924.18c-39.657,25.719-57.978,76.945-62.588,123.682
					c-4.281,43.395-8.898,90.527,25.52,117.3c14.646,11.393,30.065,15.517,59.21,12.954c8.739-0.769,27.078-5.307,35.532-7.646
					c14.303-3.958,26.363-8.211,39.65-13.753c23.403-9.76,47.004-19.628,67.85-34.064c2.52-1.745,8.168-2.573,9.262-5.437
					c1.241-3.251-2.787-8.027-3.819-11.35c-4.443-14.302-9.692-28.354-15.715-42.066c-32.46,17.433-50.811,15.454-86.253,29.488
					c-7.077,2.802-31.332,5.864-38.943,5.968c-4.164,0.057-10.781,2.965-14.665,1.462c-3.615-1.398-7.742-31.368,1.074-50.968
					L462.857,924.18z"/>
			</g>
			<g>
				<path style="fill:#D88771;" d="M642.277,1101.008c14.6-2.829,29.448-5.818,44.038-8.701c1.925-0.38,3.933-0.952,5.193-2.457
					c1.265-1.511,0.748-3.249,0.027-4.448c-1.28-2.127-4.787-1.794-7.27-1.776c-5.543,0.04-5.937,0.232-11.502,0.476
					c7.593-2.011,12.787-2.272,20.227-5.409c2.586-1.09,5.026-2.027,4.058-6.036c-0.637-2.639-3.773-2.614-5.326-2.613
					c-3.004,0.002-17.57,3.026-19.763,2.623c4.193-0.653,16.673-2.657,22.138-6.055c1.964-1.221,2.758-2.971,2.305-4.413
					c-0.409-1.306-1.612-2.324-3.559-2.615c-7.156-1.07-22.137,3.69-24.424,3.718c5.827-1.828,14.8-4.805,17.31-6.404
					c2.266-1.444,4.062-3.017,2.804-5.826c-0.89-1.988-3.365-2.701-5.523-2.41c-8.675,1.172-17.824,5.547-26.427,7.162
					c3.85-3.707,10.357-14.518,10.05-15.387c-0.771-2.182-3.872-2.804-6.053-2.032c-1.333,0.472-2.637,1.069-3.921,1.77
					c-4.221,2.302-8.237,5.715-12.404,9.416c-2.81,2.496-5.059,4.587-8.425,7.541c-2.57,2.256-12.743,9.459-16.075,10.23
					c5.305,15.221,10.489,20.699,11.63,36.545C634.879,1102.958,639.122,1101.619,642.277,1101.008z"/>
			</g>
			<g>
				<g>
					<path style="fill:#377D93;" d="M547.963,1163.439c27.002-10.18,54.671-21.611,78.711-37.742
						c3.201-2.148,9.33-3.712,11.352-7.165c2.104-3.593-1.23-9.631-2.367-13.162c-4.659-14.472-10.286-28.534-16.383-42.456
						c-0.29-0.662-1.317-1.04-1.983-0.807c-34.12,11.964-67.363,25.179-103.089,31.754c-7.244,1.333-14.507,2.586-21.795,3.656
						c-3.11,0.456-6.227,0.889-9.357,1.186c-1.349,0.128-4.431,0.865-5.729,0.201c0.914,0.467,0.068-1.195-0.064-2.309
						c-0.285-2.398-0.283-4.854-0.289-7.265c-0.016-6.606,0.359-13.217,0.883-19.8c1.26-15.841,2.486-33.637,8.932-48.386
						c0.896-2.05-2.128-3.84-3.032-1.772c-5.825,13.328-7.341,28.821-8.78,43.151c-0.793,7.892-1.36,15.824-1.49,23.756
						c-0.069,4.197-0.562,9.309,0.742,13.387c1.063,3.326,3.964,2.915,6.981,2.709c6.63-0.454,13.25-1.595,19.801-2.666
						c16.365-2.675,32.516-5.964,48.497-10.438c23.372-6.543,45.846-15.756,68.724-23.778c-0.661-0.269-1.322-0.538-1.983-0.807
						c5.59,12.765,10.901,25.668,15.179,38.939c0.882,2.737,1.828,5.463,2.656,8.217c0.974,3.239,1.266,5.109-1.936,6.805
						c-4.874,2.581-9.377,5.517-14.092,8.41c-22.149,13.589-46.757,23.848-71.023,32.996
						C544.935,1160.842,545.842,1164.238,547.963,1163.439L547.963,1163.439z"/>
				</g>
			</g>
			<g>
				<path style="fill:#D88771;" d="M854.379,882.198c9.153,11.744,4.417,20.99-3.731,33.452c-1.075,1.644-2.359,3.294-4.228,3.899
					c-1.877,0.607-3.297-0.524-4.139-1.643c-1.495-1.986,0.13-5.117,1.078-7.415c2.116-5.131,2.442-5.424,4.756-10.499
					c-4.715,6.294-6.906,11.018-12.608,16.747c-1.982,1.992-3.767,3.905-7.125,1.503c-2.211-1.582-1.012-4.483-0.428-5.923
					c1.129-2.788,9.399-15.176,9.847-17.363c-2.179,3.647-8.72,14.481-13.924,18.279c-1.87,1.365-3.792,1.446-4.961,0.485
					c-1.059-0.87-1.552-2.368-1.092-4.285c1.691-7.044,11.728-19.165,12.612-21.278c-3.882,4.724-10.011,11.936-12.437,13.666
					c-2.19,1.561-4.324,2.639-6.46,0.418c-1.512-1.572-1.245-4.137-0.165-6.031c4.342-7.613,9.893-24.256,19.216-27.234
					C835.686,867.35,848.932,875.209,854.379,882.198z"/>
			</g>
			<g>
				<path style="fill:#C45F51;" d="M565.622,831.262c2.269-0.014,3.364,0.041,5.566,0.773c0.914,0.304,1.845,0.68,2.58,1.481
					c0.735,0.801,1.237,2.125,1.021,3.38c-0.261,1.52-1.409,2.391-2.462,2.994c-6.134,3.51-13.084,4.265-19.53,2.122
					c-0.522-0.174-1.073-0.391-1.429-0.942c-0.391-0.605-0.46-1.495-0.359-2.292c0.215-1.693,1.101-3.123,2.163-4.043
					c1.062-0.92,2.294-1.395,3.516-1.791C559.618,831.993,562.612,831.28,565.622,831.262z"/>
			</g>
			<g>
				<path style="fill:#C45F51;" d="M609.885,824.783c2.168-1.578,4.697-2.405,7.223-2.381c0.547,3.389,1.134,6.8,1.419,10.245
					c-1.935,0.242-3.985,0.266-5.914-0.039c-1.2-0.19-2.43-0.505-3.408-1.368c-0.977-0.862-1.639-2.397-1.317-3.812
					C608.157,826.248,609.018,825.414,609.885,824.783z"/>
			</g>
		</g>
		<g>
			<g>
				<g>
					<path style="fill:#A1DBFF;" d="M1010.527,1482.566c-28.372,0.749-57.048,1.497-84.935,2.245
						c-0.668,0.018-1.404,0.013-1.908-0.426c-0.584-0.507-0.624-1.384-0.62-2.157c0.183-36.116,1.292-72.239,0.55-108.347
						c-0.239-11.641,0.902-23.308,1.165-34.949c0.029-1.263,0.117-2.661,1.016-3.549c0.783-0.775,1.965-0.94,3.06-1.062
						c44.68-4.976,79.058-4.793,123.807-0.484c1.975,0.19,4.186,0.517,5.371,2.108c1.025,1.375,0.94,3.253,0.807,4.963
						c-2.385,30.642,0.077,67.252-0.965,97.692L1010.527,1482.566z"/>
				</g>
				<g>
					<g>
						<path style="fill:#FFFFFF;" d="M1055.244,1434.416c-16.024-0.751-32.064-0.138-48.053,1.021
							c-1.661,0.12-3.354,1.388-3.238,3.238c0.87,13.898,1.311,27.766,0.945,41.691c-0.11,4.169,6.367,4.167,6.477,0
							c0.367-13.925-0.075-27.792-0.945-41.691c-1.08,1.08-2.159,2.159-3.238,3.238c15.989-1.158,32.03-1.771,48.053-1.021
							C1059.411,1441.088,1059.401,1434.611,1055.244,1434.416L1055.244,1434.416z"/>
					</g>
				</g>
				<g>
					<g>
						<path style="fill:#191D26;" d="M949.111,1366.241c28.902,0.453,57.807,0.058,86.686-1.182c2.768-0.119,2.783-4.437,0-4.318
							c-28.879,1.24-57.784,1.635-86.686,1.182C946.331,1361.88,946.33,1366.198,949.111,1366.241L949.111,1366.241z"/>
					</g>
				</g>
				<g>
					<g>
						<path style="fill:#191D26;" d="M949.111,1397.198c28.898,1.686,57.79-1.383,86.686-1.588c2.777-0.02,2.784-4.338,0-4.318
							c-28.896,0.205-57.788,3.274-86.686,1.588C946.335,1392.718,946.344,1397.036,949.111,1397.198L949.111,1397.198z"/>
					</g>
				</g>
			</g>
			<g>
				<g>
					<path style="fill:#191D26;" d="M1461.402,1331.764c-5.391-5.427-1.665-9.069,3.747-7.632c7.279,1.933,5.84,5.055,3.114,7.439
						C1466.011,1333.541,1462.318,1332.686,1461.402,1331.764z"/>
				</g>
				<g>
					<path style="fill:#191D26;" d="M1436.552,1306.588c-4.134-4.723,0.945-7.696,2.802-7.019c5.247,1.914,3.719,5.601,1.977,7.33
						C1439.892,1308.328,1437.255,1307.391,1436.552,1306.588z"/>
				</g>
				<g>
					<path style="fill:#191D26;" d="M1409.953,1382.767c-8.052-8.104,0.888-12.537,4.768-11.605
						c10.963,2.632,9.549,7.757,5.477,11.318C1416.835,1385.421,1411.321,1384.144,1409.953,1382.767z"/>
				</g>
			</g>
			<g>
				<g>
					<g>
						<path style="fill:#A1DBFF;" d="M1455.496,1836.143c-0.607,0-1.214-0.005-1.821-0.016c-17.184-0.297-31.386-0.819-44.695-1.646
							c-4.596-0.285-8.806-3.926-11.015-6.956c-3.147-4.321-6.158-8.794-9.07-13.119c-4.256-6.32-8.655-12.856-13.415-18.794
							c-11.853-14.787-24.792-32.517-28.296-55.852c-1.311-8.732,0.788-16.437,5.91-21.695c5.487-5.635,13.958-8.067,23.857-6.846
							c6.034,0.744,13.249,2.18,20.731,6.211c-0.373-1.921-0.677-3.739-0.884-5.344c-0.384-2.964-0.813-5.727-1.229-8.397
							c-1.821-11.7-3.394-21.805,1.121-36.36c4.356-14.044,9.295-29.961,26.042-38.689c9.476-4.94,25.771-3.086,33.523,3.815
							c10.741,9.56,17.902,25.471,19.646,43.652c0.745,7.778,1.003,14.109,0.716,21.424c11.806-14.118,26.864-20.833,45.605-20.395
							c9.349,0.208,25.887,5.507,30.47,18.836c5.803,16.879,2.041,31.31-2.404,43.199c-7.637,20.424-20.568,36.899-35.439,54.794
							c-7.944,9.561-16.374,18.915-24.526,27.962c-3.014,3.344-6.026,6.688-9.021,10.047c-1.283,1.438-3.629,3.033-6.371,3.203
							c-1.491,0.092-2.978,0.192-4.466,0.293C1465.584,1835.801,1460.553,1836.143,1455.496,1836.143z M1409.732,1823.712
							c13.121,0.813,27.146,1.329,44.128,1.622c5.218,0.089,10.392-0.262,15.876-0.634c1.271-0.086,2.543-0.173,3.813-0.253
							c2.906-3.257,5.83-6.502,8.754-9.746c8.081-8.969,16.438-18.241,24.243-27.635c14.232-17.126,26.587-32.836,33.631-51.676
							c5.422-14.502,6.091-24.905,2.307-35.909c-2.508-7.296-13.518-11.398-20.501-11.555c-19.843-0.448-33.56,8.014-44.518,27.416
							l0,0c-0.924,1.635-2.099,2.956-2.957,3.921c-0.257,0.289-0.499,0.557-0.7,0.808c-1.503,1.873-4.064,2.527-6.282,1.604
							s-3.56-3.2-3.29-5.588c1.95-17.313,2.157-26.049,0.92-38.951c-1.486-15.502-7.347-28.849-16.076-36.618
							c-4.45-3.96-15.825-5.19-21.359-2.308c-12.759,6.65-16.626,19.116-20.72,32.315c-3.774,12.168-2.513,20.277-0.766,31.502
							c0.427,2.738,0.867,5.57,1.269,8.673c0.667,5.15,2.537,13.144,4.35,18.594c0.793,2.383-0.162,4.996-2.303,6.308
							c-2.141,1.31-4.904,0.972-6.664-0.817c-7.456-7.572-15.607-11.417-27.256-12.854c-6.467-0.794-11.726,0.504-14.805,3.665
							c-3.475,3.568-3.531,8.8-2.967,12.561c2.793,18.6,12.431,33.721,26.042,50.702c5.041,6.289,9.568,13.014,13.947,19.517
							c2.857,4.244,5.812,8.633,8.841,12.792C1407.639,1822.47,1409.124,1823.541,1409.732,1823.712z M1409.649,1823.707
							c0,0,0.002,0,0.003,0C1409.651,1823.707,1409.65,1823.707,1409.649,1823.707z"/>
					</g>
				</g>
			</g>
			<g>
				<g>
					<g>
						<path style="fill:#FF43CA;" d="M1079.357,1630.782c14.249,10.363,30.16,17.968,43.626,29.467
							c0.219-1.695,0.437-3.391,0.655-5.086c-14.865,7.751-26.654,19.933-40.696,28.928c-3.499,2.241-0.255,7.849,3.269,5.592
							c14.043-8.995,25.835-21.179,40.697-28.928c1.752-0.914,2.205-3.763,0.655-5.086c-13.895-11.866-30.237-19.79-44.937-30.48
							C1079.251,1622.735,1076.015,1628.352,1079.357,1630.782L1079.357,1630.782z"/>
					</g>
				</g>
				<g>
					<g>
						<path style="fill:#FF43CA;" d="M1014.991,1628.114c8.304,10.169,20.756,16.737,30.482,25.429
							c0.973,0.87,1.884,2.052,2.941,2.8c0.435,0.308,0.706,1.052,1.171,1.288c-0.997-0.506,2.079-2.277-0.97-0.594
							c-4.087,2.255-7.84,5.921-11.561,8.746c-8.526,6.474-17.019,13.086-26.391,18.309c-3.641,2.029-0.379,7.625,3.269,5.592
							c10.43-5.813,19.816-13.313,29.299-20.519c2.397-1.821,4.793-3.643,7.201-5.449c1.542-1.156,3.655-2.18,4.855-3.73
							c1.959-2.531,0.417-5.169-1.401-7.251c-9.893-11.333-24.778-17.523-34.314-29.2
							C1016.933,1620.304,1012.375,1624.91,1014.991,1628.114L1014.991,1628.114z"/>
					</g>
				</g>
				<g>
					<g>
						<path style="fill:#FF43CA;" d="M945.419,1633.202c5.836,5.161,12.104,9.612,18.772,13.629c3.2,1.928,6.435,3.798,9.602,5.782
							c3.548,2.223,7.187,5.874,10.964,7.528c1.62,1.701,1.969,1.592,1.048-0.325c-1.116,0.653-2.224,1.318-3.327,1.994
							c-2.039,1.251-4.053,2.541-6.04,3.873c-3.525,2.362-6.955,4.861-10.324,7.441c-6.44,4.931-12.678,10.116-19.209,14.931
							c-3.319,2.447-0.092,8.071,3.269,5.592c7.554-5.569,14.717-11.639,22.254-17.228c4.059-3.01,8.233-5.86,12.527-8.525
							c2.965-1.84,8.2-3.923,7.581-8.301c-0.469-3.317-5.013-5.461-7.439-7.199c-3.798-2.721-7.735-5.23-11.738-7.638
							c-8.189-4.927-16.17-9.774-23.361-16.134C946.887,1625.87,942.289,1630.434,945.419,1633.202L945.419,1633.202z"/>
					</g>
				</g>
			</g>
			<g>
				<g>
					<g>
						<path style="fill:#63C3E0;" d="M1450.659,342.904c-4.25,2.539-2.739,8.695-2.685,12.947c0.083,6.52,0.258,13.038,0.418,19.556
							c0.146,5.966,0.276,11.932,0.313,17.9c0.038,6.184-0.953,12.938-0.076,19.03c0.685,4.758,3.873,5.247,8.061,5.248
							c7.502,0.002,15.004,0.032,22.506,0.021c14.683-0.021,29.366-0.091,44.049-0.115c13.932-0.023,27.864-0.008,41.795,0.138
							c4.6,0.048,11.074,1.454,13.863-3.339c1.411-2.424,1.498-5.676,1.89-8.378c0.558-3.839,1.037-7.69,1.408-11.551
							c1.367-14.224,1.422-28.646-0.036-42.866c-0.48-4.684-1.55-8.32-6.722-8.987c-7.441-0.959-15.489-0.336-22.994-0.475
							c-33.361-0.619-66.741-1.094-100.087,0.41c-4.323,0.195-4.347,6.941,0,6.745c24.823-1.12,49.672-1.156,74.514-0.832
							c12.464,0.163,24.927,0.411,37.389,0.642c1.748,0.032,8.467-0.783,9.854,0.178c2.114,1.465,1.636,5.922,1.795,8.152
							c0.463,6.489,0.636,12.997,0.53,19.502c-0.096,5.853-0.427,11.704-0.988,17.531c-0.345,3.585-0.776,7.161-1.307,10.724
							c-0.492,3.303,0.052,5.593-3.529,5.865c-11.775,0.892-24.051-0.206-35.872-0.211c-24.162-0.01-48.323,0.174-72.485,0.119
							c-1.24-0.003-2.48-0.006-3.72-0.01c-1.234-0.004-2.468-0.009-3.702-0.015c0.149-0.024,0.297-0.048,0.446-0.072
							c-0.501-0.656,0.072-3.096,0.088-3.995c0.038-2.157,0.064-4.315,0.077-6.472c0.033-5.634-0.025-11.267-0.134-16.9
							c-0.113-5.86-0.282-11.719-0.415-17.579c-0.062-2.754-0.118-5.507-0.159-8.261c-0.015-0.999-0.098-9.173-0.679-8.826
							C1457.785,346.504,1454.397,340.671,1450.659,342.904z"/>
					</g>
				</g>
				<g>
					<g>
						<path style="fill:#63C3E0;" d="M1454.023,352.906c10.441,6.699,21.208,12.847,32.365,18.276
							c5.372,2.614,10.82,5.065,16.32,7.399c5.329,2.261,11.041,5.332,16.719,6.54c4.966,1.057,8.219-2.082,12.151-4.49
							c5.04-3.087,10.109-6.121,15.123-9.252c10.726-6.696,21.405-13.49,32.521-19.531c3.815-2.073,0.414-7.899-3.404-5.824
							c-9.828,5.341-19.314,11.274-28.796,17.202c-4.633,2.897-9.262,5.8-13.933,8.636c-2.27,1.378-4.609,2.669-6.817,4.143
							c-3.016,2.014-4.136,2.915-7.775,1.737c-21.409-6.934-42.209-18.559-61.071-30.66
							C1453.763,344.732,1450.377,350.568,1454.023,352.906L1454.023,352.906z"/>
					</g>
				</g>
			</g>
			<g>
				<g>
					<path style="fill:#3670D6;" d="M581.922,573.468c5.082-9.595,11.257-6.743,11.409,0.838c0.204,10.196-4.426,9.973-8.576,7.742
						C581.327,580.207,581.058,575.098,581.922,573.468z"/>
				</g>
				<g>
					<path style="fill:#3670D6;" d="M643.43,459.149c4.634-7.644,10.439-2.739,10.25-0.044c-0.535,7.616-5.94,7.568-8.861,6.248
						C642.407,464.263,642.643,460.448,643.43,459.149z"/>
				</g>
				<g>
					<path style="fill:#3670D6;" d="M534.58,528.521c4.443-8.387,11.961-1.823,12.1,1.329c0.395,8.906-5.997,8.121-9.624,6.172
						C534.06,534.411,533.825,529.946,534.58,528.521z"/>
				</g>
				<g>
					<path style="fill:#3670D6;" d="M589.623,471.706c7.59-14.328,16.761-5.286,17,0.099c0.674,15.215-6.572,16.045-12.77,12.715
						C588.734,481.769,588.333,474.141,589.623,471.706z"/>
				</g>
			</g>
		</g>
		<g>
			<g>
				<path style="fill:#FF43CA;" d="M1687.298,1167.477l2.069-44.414c0,0,59.236,22.325,91.22,21.816
					c31.983-0.509,103.605-10.481,103.605-10.481l2.096,33.079H1687.298z"/>
			</g>
			<g>
				<path style="fill:#FF43CA;" d="M1815.365,914.331c45.552,9.543,62.073,16.2,83.153,54.521
					c13.879,25.231,14.978,76.822,9.715,108.508c-4.901,29.507-14.798,42.347-18.936,49.093c-3.022,4.927-5.625,6.984-11.01,14.969
					c-5.188,7.693-11.09,22.65-19.265,26.056c-71.29-0.002-161.8,0.149-165.256-0.002c1.076-29.512-0.119-72.426,0.098-101.625
					c-15.83,14.935-30.265,30.377-44.636,46.573c-0.881,0.993-5.027-4.474-8.123-0.965c0,0-33.291-77.504-32.655-78.466
					c13.71-20.761,36.715-46.259,54.205-63.602c29.155-28.911,52.217-42.223,92.969-52.422c0,0,16.855,0.568,29.721-2.217
					c12.866-2.786,28.651-0.697,28.651-0.697L1815.365,914.331z"/>
			</g>
			<g>
				<g>
					<path style="fill:#BF1998;" d="M1693.521,1050.186c0.428-16.182,0.626-32.37,1.054-48.553c0.064-2.428-3.708-2.427-3.772,0
						c-0.428,16.183-0.626,32.37-1.054,48.553C1689.684,1052.615,1693.456,1052.613,1693.521,1050.186L1693.521,1050.186z"/>
				</g>
			</g>
			<g>
				<path style="fill:#FEAE8B;" d="M1720.056,1029.346c-3.59-1.883-7.368-2.557-8.65-1.073s2.484,7.953,2.484,7.953
					L1720.056,1029.346z"/>
			</g>
			<g>
				<g>
					<path style="fill:#FFFFFF;" d="M1823.405,1155.791c-7.515,3.521-15.262,9.406-14.38,18.701
						c0.846,8.919,9.625,10.862,17.002,8.645c4.189-1.259,9.554-3.187,12.449-6.62c2.468-2.927,2.073-6.97,1.364-10.508
						c-1.477-7.368-7.462-18.339-16.463-14.229c-0.631,0.288-0.083,1.219,0.545,0.932c2.24,0.027,4.48,0.055,6.719,0.082
						c1.348,0.727,2.455,1.706,3.323,2.936c1.075,1.266,1.904,2.563,2.642,4.056c1.445,2.922,3.011,7.417,2.659,10.68
						c-0.499,4.619-3.06,7.019-6.931,8.951c-3.345,1.669-7.476,3.464-11.309,3.643c-8.095,0.378-12.496-6.378-10.398-13.816
						c1.779-6.305,7.766-9.919,13.323-12.522C1824.578,1156.429,1824.031,1155.498,1823.405,1155.791L1823.405,1155.791z"/>
				</g>
			</g>
			<g>
				<g>
					<path style="fill:#FFFFFF;" d="M1683.651,964.902c7.54,1.218,14.554,12.248,13.455,19.866
						c-0.679,4.706-4.35,10.499-9.269,11.37c-3.934,0.696-8.982-0.445-12.4-2.334c-6.07-3.354-10.725-11.484-8.886-18.511
						c1.854-7.086,8.944-9.232,15.51-8.633c0.692,0.063,0.687-1.017,0-1.079c-7.425-0.677-15.412,2.272-16.763,10.468
						c-1.408,8.538,4.726,17.333,12.659,20.031c3.617,1.23,9.292,2.312,12.85,0.414c3.24-1.728,6.444-6.588,7.167-10.106
						c1.748-8.502-5.198-21.099-14.037-22.527C1683.258,963.752,1682.966,964.792,1683.651,964.902L1683.651,964.902z"/>
				</g>
			</g>
			<g>
				<g>
					<path style="fill:#FFFFFF;" d="M1816.186,1014.917c-8.3,1.224-20.24,4.029-20.593,14.545
						c-0.271,8.063,4.825,18.305,13.476,19.216c8.337,0.877,18.594-3.473,19.679-12.752c0.508-4.347-1.723-9.955-3.593-13.812
						c-1.249-2.576-3.314-3.926-6.107-3.068c-0.662,0.203-0.38,1.246,0.287,1.041c4.36-1.339,6.475,6.971,7.312,9.608
						c1.255,3.959,1.511,7.461-0.82,11.115c-3.799,5.957-15.579,9.768-21.756,5.186c-5.416-4.017-9.105-14.389-6.321-20.599
						c3.172-7.075,11.921-8.435,18.724-9.438C1817.158,1015.857,1816.866,1014.817,1816.186,1014.917L1816.186,1014.917z"/>
				</g>
			</g>
			<g>
				<g>
					<path style="fill:#FFFFFF;" d="M1612.875,1022.974c6.35,5.632,19.25,11.471,25.653,2.729c5.594-7.637,0.93-19.019-6.41-23.598
						c-0.591-0.369-1.134,0.565-0.545,0.932c6.824,4.256,11.278,14.861,6.042,21.96c-6,8.135-18.043,2.477-23.977-2.787
						C1613.12,1021.751,1612.354,1022.512,1612.875,1022.974L1612.875,1022.974z"/>
				</g>
			</g>
			<g>
				<g>
					<path style="fill:#FFFFFF;" d="M1749.425,974.386c-3.741,1.232-6.416,5.801-7.007,9.544
						c-0.788,4.995,2.572,10.406,5.198,14.382c2.451,3.71,5.11,7.109,9.856,7.056c4.421-0.049,10.321-1.481,13.644-4.524
						c7.187-6.583,8.352-20.585,2.238-28.227c-4.303-5.378-18.722-9.935-23.728-3.668c-0.429,0.538,0.33,1.306,0.763,0.763
						c4.626-5.792,19.157-0.911,22.745,4.438c4.417,6.584,3.765,16.223-0.275,22.8c-2.395,3.9-5.842,5.335-10.023,6.415
						c-2.374,0.613-5.295,1.456-7.719,0.737c-2.342-0.695-4.386-3.253-5.723-5.093c-2.288-3.149-4.769-7.194-5.636-10.961
						c-1.02-4.432,1.21-11.061,5.952-12.623C1750.369,975.211,1750.087,974.168,1749.425,974.386L1749.425,974.386z"/>
				</g>
			</g>
			<g>
				<g>
					<path style="fill:#FFFFFF;" d="M1717.062,930.875c-0.353,11.271,11.941,20.092,22.662,15.716
						c5.012-2.046,5.105-7.049,4.974-11.782c-0.152-5.495,1.052-11.386-4.928-13.649c-0.65-0.246-0.932,0.797-0.287,1.041
						c4.935,1.868,4.333,10.942,4.196,15.086c-0.201,6.056-3.664,9.159-9.593,9.135c-8.784-0.036-16.228-6.5-15.945-15.546
						C1718.163,930.18,1717.084,930.181,1717.062,930.875L1717.062,930.875z"/>
				</g>
			</g>
			<g>
				<g>
					<path style="fill:#FFFFFF;" d="M1716.769,1150.641c-0.368,6.515,3.609,21.018,11.912,21.702
						c9.451,0.779,18.719-11.332,19.928-19.654c1.55-10.674-12.079-13.337-19.785-15.865c-4.281-1.404-8.367-2.199-11.922,1.16
						c-3.952,3.734-4.238,9.306-3.699,14.384c0.073,0.684,1.153,0.691,1.079,0c-0.48-4.513-0.434-9.585,2.87-13.134
						c3.998-4.294,9.232-2.144,13.847-0.532c3.62,1.264,7.334,2.548,10.794,4.206c5.121,2.453,6.878,6.801,5.099,12.319
						c-2.299,7.132-9.267,15.308-17.196,15.729c-8.146,0.432-12.21-13.913-11.848-20.315
						C1717.887,1149.947,1716.808,1149.949,1716.769,1150.641L1716.769,1150.641z"/>
				</g>
			</g>
			<g>
				<path style="fill:#FEAE8B;" d="M1876.888,1793.094c-0.737-9.185-2.341-23.308-4.282-32.821l48.102-3.508
					c0.401,9.694,1.583,22.166,1.659,31.857c0.003,0.416-0.002,0.861-0.237,1.204c-0.406,0.592-1.263,0.597-1.979,0.542
					C1905.755,1789.259,1891.242,1791.539,1876.888,1793.094z"/>
			</g>
			<g>
				<path style="fill:#FEAE8B;" d="M1694.888,1794.668c-0.078-2.647-0.118-5.723-0.192-8.312
					c-0.233-8.167-0.659-15.126-1.144-22.695l45.141-1.592c-0.13,11.085-1.136,21.802-1.32,32.971
					C1722.981,1794.791,1709.279,1794.917,1694.888,1794.668z"/>
			</g>
			<g>
				<path style="fill:#3670D6;" d="M1882.584,1167.477c23.456,102.103,29.849,201.458,39.132,305.889
					c2.041,22.959,5.889,60.48,8.481,83.384c3.869,34.184,16.061,160.931,17.475,207.137c0.118,3.864-2.773,7.162-6.62,7.536
					c-33.943,3.305-64.345,6.507-98.368,9.307c-2.946,0.242-6.245,0.375-8.476-1.564c-2.052-1.783-2.515-4.739-2.842-7.438
					c-11.802-97.294-10.365-184.448-17.467-284.075c-1.158-16.245-5.472-58.228-6.477-74.483
					c-0.872-14.107-5.551-68.343-6.544-89.393c-0.126-2.673-0.745-12.464-2.013-14.354c-1.245-0.905-3.533-0.615-5.071-0.585
					c-7.638,0.149-11.396,0.415-17.619,0.276c-1.032-0.023-1.904,0.775-1.954,1.806c-1.323,26.992-4.325,198.936-4.939,210.196
					c-3.431,62.899-1.799,130.615-4.999,244.687c-0.059,2.107,0.106,7.473-0.257,10.641c-0.184,1.609-1.47,2.916-3.088,3.001
					c-31.757,1.656-58.294,1.862-91.009,0.628c-1.955-0.074-4.059-0.208-5.583-1.435c-2.11-1.699-2.313-4.784-2.341-7.493
					c-1.175-111.919,6.744-205.387,10.354-317.254c0.776-24.045,3.231-80.766,5.577-104.708
					c5.923-60.45,9.907-122.708,15.832-181.706H1882.584z"/>
			</g>
			<g>
				<path style="fill:#191D26;" d="M1737.365,1795.04c1.169,11.237,1.852,22.524,2.047,33.82c0.005,0.31-0.012,0.67-0.261,0.856
					c-0.165,0.124-0.388,0.132-0.594,0.135c-7.015,0.103-14.03,0.206-21.044,0.309c-2.698,0.04-4.532-8.004-7.23-7.964
					c-2.34,0.034-5.545,8.152-7.885,8.186c-19.261,0.283-38.522,0.566-57.783,0.848c-0.621,0.009-1.307-0.004-1.77-0.419
					c-0.405-0.362-0.53-0.937-0.613-1.474c-1.224-7.931,2.147-16.144,7.747-21.893c5.6-5.749,13.083-5.544,20.889-7.407
					c7.806-1.863,16.552-4.273,24.019-6.154L1737.365,1795.04z"/>
			</g>
			<g>
				<path style="fill:#191D26;" d="M1922.645,1787.527c2.967,12.498,3.981,23.864,3.845,37.053
					c-0.007,0.687-0.169,1.417-0.635,1.922c-0.572,0.621-1.507,0.702-2.351,0.743c-7.464,0.359-9.77,0.125-17.432,0.5
					c-2.74,0.134-4.807-7.843-7.558-7.708c-2.206,0.108-5.093,8.328-7.301,8.437c-13.848,0.681-32.698,3.053-46.113,3.698
					l-19.442,0.935c-1.134-6.113-0.018-12.618,3.091-18.002c4.354-7.542,12.007-11.071,20.112-14.257
					c8.105-3.186,19.88-4.498,27.418-9.389L1922.645,1787.527z"/>
			</g>
			<g>
				<path style="fill:#191D26;" d="M1790.778,858.58c2.471,6.741,5.848,11.03,3.015,17.635c-4.947,11.532,0.038,25.441-2.642,28.933
					c8.782,0.831,36.673-2.138,45.228-4.242c8.555-2.104,16.738-7.74,19.277-15.977c1.002-3.251,1.081-6.696,1.135-10.09
					c0.18-11.346,0.156-24.203-2.186-35.318c-6.093-28.918-9.686-62.045-37.143-74.503c-13.447-6.101-33.623-11.794-48.386-10.396
					s-36.472,7.455-45.766,18.723c-8.814,10.686-18.481,30.388-19.19,44.083c-0.709,13.694,1.199,27.37,2.154,41.05
					c1.028,14.736,0.491,30.812-7.77,42.869c-1.173,1.712-0.22,4.05,1.825,4.401c21.91,3.767,44.53,3.588,66.372-0.543
					L1790.778,858.58z"/>
			</g>
			<g>
				<path style="fill:#FEAE8B;" d="M1723.96,810.62c-0.749,6.212-1.713,16.48-2.461,22.692c-1.183,9.82-2.508,20.443,0.18,29.915
					c2.508,8.84,7.024,13.842,9.145,15.981c10.258,10.346,28.847,11.905,43.919,8.498c15.072-3.406,28.544-15.002,33.448-30.225
					c0.172-0.535,0.346-1.094,0.722-1.503c0.414-0.45,0.286,2.165,0.858,1.987c1.351-2.833,7.621-4.176,10.752-6.925
					c3.274-2.875,5.35-5.463,5.985-9.857c0.561-3.88-0.787-7.034-3.365-10.08c-2.965-3.504-8.628-3.638-12.489-1.195
					c-3.25,2.056-4.477,3.946-5.549,6.836c-7.746-0.178-23.398-7.024-29.736-11.618c-0.334-0.242-14.437-7.82-26.928-29.168
					C1736.554,797.756,1724.855,807.23,1723.96,810.62z"/>
			</g>
			<g>
				<path style="fill:#FEAE8B;" d="M1761.31,870.131c-3.878,16.6-2.209,30.128-6.087,46.728c-1.533,1.033-0.718,8.536,3.32,12.016
					c1.221,1.053,2.78,1.69,4.336,2.051c1.497,0.347,8.036,0.866,9.584,0.87c6.005,0.018,11.885-0.721,22.129-3.036
					c4.669-1.055,12.396-3.851,15.751-8.092c1.295-1.637,3.008-3.61,3.234-5.756c0.041-0.389-0.022-0.789-0.116-1.169
					c-0.841-3.431-1.83-6.096-2.088-9.38c-5.046,0.321-12.409-0.035-16.326-0.91c-1.614-0.361-2.41-2.188-1.536-3.592
					c4.588-7.372,18.654-22.554,15.914-49.538c0.52-16.591-6.312,12.743-6.849,12.374c-0.38-0.261-0.858-0.272-1.309-0.275
					C1792.535,862.371,1770.036,869.801,1761.31,870.131z"/>
			</g>
			<g>
				<path style="fill:#191D26;" d="M1737.195,831.103c-0.182,2.569-1.544,4.565-3.042,4.459c-1.498-0.106-2.565-2.274-2.383-4.843
					c0.182-2.569,1.544-4.565,3.042-4.459C1736.31,826.366,1737.377,828.534,1737.195,831.103z"/>
			</g>
			<g>
				<path style="fill:#191D26;" d="M1772.63,833.613c-0.182,2.569-1.544,4.565-3.042,4.459c-1.498-0.106-2.565-2.274-2.383-4.843
					c0.182-2.569,1.544-4.565,3.042-4.459C1771.745,828.876,1772.812,831.044,1772.63,833.613z"/>
			</g>
			<g>
				<g>
					<path style="fill:#191D26;" d="M1751.172,833.038c-1.709,3.438-3.49,6.82-5.458,10.116c-1.22,2.044-2.505,4.116-2.559,6.572
						c-0.11,5,4.327,5.478,8.361,5.397c1.782-0.036,1.788-2.809,0-2.773c-1.781,0.036-4.592,0.454-5.529-1.561
						c-0.89-1.913,1.197-4.685,2.122-6.234c1.968-3.296,3.748-6.679,5.458-10.116
						C1754.359,832.845,1751.968,831.438,1751.172,833.038L1751.172,833.038z"/>
				</g>
			</g>
			<g>
				<g>
					<path style="fill:#191D26;" d="M1751.594,867.475c4.681,2.282,11.279,0.771,12.937-4.565c0.531-1.708-2.145-2.439-2.674-0.737
						c-1.097,3.528-5.832,4.386-8.863,2.908C1751.396,864.301,1749.988,866.692,1751.594,867.475L1751.594,867.475z"/>
				</g>
			</g>
			<g>
				<path style="fill:#F77E5E;" d="M1773.19,842.74c-2.266,0.121-3.355,0.241-5.511,1.103c-0.894,0.358-1.801,0.788-2.487,1.631
					c-0.686,0.843-1.109,2.194-0.819,3.435c0.351,1.502,1.548,2.304,2.636,2.843c6.332,3.139,13.314,3.48,19.622,0.958
					c0.511-0.204,1.048-0.454,1.37-1.025c0.355-0.627,0.371-1.519,0.222-2.31c-0.315-1.677-1.284-3.052-2.399-3.908
					c-1.115-0.855-2.372-1.256-3.616-1.579C1779.227,843.113,1776.195,842.579,1773.19,842.74z"/>
			</g>
			<g>
				<path style="fill:#F77E5E;" d="M1728.62,838.901c-2.257-1.446-4.832-2.122-7.351-1.948c-0.344,3.415-0.728,6.855-0.809,10.311
					c1.946,0.127,3.994,0.029,5.901-0.39c1.187-0.26,2.396-0.649,3.32-1.568c0.925-0.919,1.493-2.49,1.088-3.883
					C1730.432,840.26,1729.523,839.479,1728.62,838.901z"/>
			</g>
			<g>
				<path style="fill:#FEAE8B;" d="M1731.86,1091.331c-14.424-3.622-29.087-7.418-43.497-11.094
					c-1.901-0.485-3.875-1.166-5.051-2.737c-1.18-1.578-0.57-3.285,0.216-4.443c1.395-2.054,4.878-1.53,7.356-1.376
					c5.533,0.343,5.915,0.556,11.459,1.104c-7.472-2.423-12.644-2.968-19.901-6.506c-2.523-1.23-4.908-2.298-3.722-6.248
					c0.781-2.6,3.91-2.404,5.46-2.318c2.999,0.166,17.379,3.982,19.591,3.698c-4.151-0.881-16.503-3.564-21.774-7.255
					c-1.894-1.327-2.591-3.117-2.061-4.532c0.48-1.282,1.737-2.232,3.697-2.417c7.204-0.678,21.902,4.894,24.184,5.047
					c-5.719-2.143-14.515-5.606-16.934-7.34c-2.183-1.566-3.891-3.234-2.482-5.971c0.997-1.936,3.508-2.513,5.647-2.104
					c8.598,1.644,17.494,6.512,25.996,8.595c-3.641-3.912-9.549-15.062-9.195-15.913c0.889-2.136,4.019-2.588,6.155-1.699
					c1.305,0.544,2.574,1.212,3.819,1.981c4.089,2.529,7.912,6.156,11.871,10.079c2.669,2.645,4.94,5.81,8,7.99
					c2.785,1.984,12.417,7.243,15.702,8.194c-6.531,15.541-2.807,24.136-8.327,40.473
					C1744.632,1095.401,1734.977,1092.113,1731.86,1091.331z"/>
			</g>
			<g>
				<path style="fill:#FF43CA;" d="M1865.055,1031.471c9.114,14.925,13.669,30.198,11.96,37.976
					c-0.576,2.619-0.162,6.89-5.087,9.859c-1.935,1.166-6.988,2.576-9.261,2.738c-7.556,0.54-22.197-1.687-37.729-5.805
					c-28.338-7.513-42.053-9.361-67.878-22.916c-4.861,15.336-14.48,34.165-19.341,49.5c16.867,12.819,32.319,15.811,50.284,23.592
					c9.131,3.954,19.908,7.038,29.451,9.856c21.122,6.236,39.916,12.101,61.631,15.778c11.681,1.978,25.29,1.732,36.447-2.255
					c18.066-6.455,29.266-25.616,31.327-44.689c2.061-19.073,0.918-44.921-5.75-65.914c-9.822-30.925-17.872-51.954-35.397-79.262
					c-7.994-12.456-27.121-30.225-50.231-37.037c-9.858-2.906-24.18-6.832-40.25-8.354L1865.055,1031.471z"/>
			</g>
			<g>
				
					<rect x="1694.782" y="1001.641" transform="matrix(0.7945 0.6073 -0.6073 0.7945 982.6045 -817.9829)" style="fill:#FFFFFF;" width="10.255" height="82.423"/>
			</g>
			<g>
				<g>
					<path style="fill:#FFFFFF;" d="M1823.563,940.856c-9.02-1.951-11.546,8.447-9.197,15.203
						c2.916,8.385,11.552,12.637,20.207,11.222c7.968-1.303,10.213-10.088,7.439-16.801c-2.231-5.398-9.332-15.735-16.31-12.31
						c-0.624,0.306-0.077,1.237,0.545,0.932c2.114-1.038,5.825,0.446,7.431,1.924c0.708,0.652,1.375,1.377,2.021,2.089
						c1.755,1.936,3.445,4.016,4.649,6.349c3.189,6.18,2.235,15.291-5.936,16.672c-5.818,0.983-12.447-0.778-16.221-5.407
						c-1.875-2.299-3-5.003-3.48-7.919c-0.86-5.233,1.734-12.391,8.567-10.913C1823.953,942.044,1824.243,941.003,1823.563,940.856
						L1823.563,940.856z"/>
				</g>
			</g>
			<g>
				<g>
					<path style="fill:#FFFFFF;" d="M1847.422,1075.797c-23.021-3.478-23.972,35.848-2.049,34.781
						c9.601-0.467,16.276-13.446,16.092-22.019c-0.213-9.891-10.408-20.406-19.337-23.366c-0.661-0.219-0.944,0.823-0.287,1.041
						c7.492,2.483,13.813,9.35,17.051,16.448c3.46,7.583-0.829,20.374-7.989,25.056c-8.623,5.639-18.248-2.309-20.197-10.838
						c-2.377-10.407,4.954-21.794,16.428-20.061C1847.815,1076.941,1848.108,1075.901,1847.422,1075.797L1847.422,1075.797z"/>
				</g>
			</g>
			<g>
				<g>
					<path style="fill:#FFFFFF;" d="M1922.066,1102.058c-9.337-1.713-19.076,2.068-23.879,10.491
						c-4.03,7.067-5.111,19.657,3.384,23.984c4.39,2.236,9.471,1.478,14.048,0.346c4.346-1.075,9.926-2.278,12.774-6.109
						c5.858-7.877-1.63-22.246-6.27-28.96c-0.392-0.568-1.328-0.029-0.932,0.545c4.363,6.311,8.135,14.464,7.96,22.325
						c-0.218,9.778-16.716,13.787-24.534,11.819c-10.49-2.64-9.726-16.631-5.133-24.043c4.705-7.593,13.692-10.936,22.296-9.357
						C1922.459,1103.224,1922.75,1102.183,1922.066,1102.058L1922.066,1102.058z"/>
				</g>
			</g>
			<g>
				<g>
					<path style="fill:#FFFFFF;" d="M1907.036,1042.871c-6.841,0.191-14.228,5.934-11.25,13.52
						c3.065,7.807,15.789,13.593,23.676,11.028c8.194-2.664,8.876-12.657,5.787-19.4c-1.68-3.666-4.468-7.128-8.316-8.625
						c-4.887-1.901-9.354,0.518-13.358,3.251c-0.57,0.389-0.031,1.325,0.545,0.932c3.189-2.177,6.539-4.159,10.517-3.627
						c3.715,0.496,6.797,3.457,8.644,6.596c3.604,6.122,4.39,16.412-3.562,19.55c-6.395,2.522-14.513-1.149-19.327-5.455
						c-7.477-6.689-2.889-16.423,6.644-16.689C1907.73,1043.931,1907.732,1042.852,1907.036,1042.871L1907.036,1042.871z"/>
				</g>
			</g>
			<g>
				<g>
					<path style="fill:#FFFFFF;" d="M1755.653,1104.366c-0.138,6.408,2.553,12.763,5.818,18.198
						c2.131,3.546,5.088,5.659,9.261,6.107c5.607,0.603,11.706-1.903,16.676-4.244c4.446-2.095,7.863-5.263,9.077-10.168
						c2.446-9.883-4.46-22.117-12.976-27.025c-8.312-4.79-20.276-2.237-21.927,8.329c-0.106,0.68,0.934,0.972,1.041,0.287
						c1.991-12.748,17.133-11.593,24.499-4.516c6.115,5.876,11.062,16.239,7.646,24.58c-2.995,7.313-15.038,11.916-22.625,11.759
						c-10.217-0.211-15.595-14.679-15.41-23.308C1756.747,1103.671,1755.668,1103.671,1755.653,1104.366L1755.653,1104.366z"/>
				</g>
			</g>
			<g>
				<g>
					<path style="fill:#FFFFFF;" d="M1909.669,966.346c-5.367-3.663-12.314-4.997-17.862-0.929
						c-0.554,0.407-0.016,1.344,0.545,0.932c5.273-3.867,11.693-2.538,16.772,0.929
						C1909.699,967.67,1910.24,966.735,1909.669,966.346L1909.669,966.346z"/>
				</g>
			</g>
			<g>
				<g>
					<path style="fill:#FFFFFF;" d="M1885.499,964.084c-7.485,9.44-10.333,28.06,0.839,36.262c5.672,4.164,13.196,2.738,19.05-0.208
						c6.106-3.073,13.115-7.596,15.271-14.433c0.209-0.664-0.832-0.948-1.041-0.287c-1.924,6.102-7.93,10.036-13.281,12.988
						c-5.98,3.298-14.103,5.516-19.892,0.58c-9.772-8.332-7.339-25.113-0.183-34.139
						C1886.689,964.309,1885.93,963.54,1885.499,964.084L1885.499,964.084z"/>
				</g>
			</g>
			<g>
				<g>
					<path style="fill:#BF1998;" d="M1855.64,1017.148c5.948,10.891,10.717,22.617,14.566,34.41
						c2.601,7.971,8.26,25.385-3.391,27.968c-9.09,2.015-19.511,0.006-28.479-1.766c-11.147-2.202-21.925-6.116-32.761-9.467
						c-16.41-5.074-32.721-10.409-48.677-16.79c-0.977-0.391-2.035,0.436-2.321,1.318c-5.644,17.408-14.518,33.576-20.162,50.984
						c-0.262,0.807,0.179,1.703,0.867,2.131c10.14,6.312,20.467,12.199,31.494,16.83c11.398,4.787,23.193,8.674,34.913,12.584
						c26.311,8.779,53.315,16.006,80.948,18.979c2.412,0.259,2.393-3.516,0-3.774c-27.28-2.935-53.971-10.181-79.944-18.844
						c-11.258-3.755-22.59-7.485-33.562-12.021c-11.201-4.63-21.671-10.619-31.944-17.014c0.289,0.71,0.578,1.421,0.867,2.131
						c5.644-17.408,14.518-33.576,20.162-50.984c-0.774,0.439-1.547,0.879-2.321,1.318c15.955,6.381,32.267,11.716,48.677,16.79
						c11.961,3.699,23.811,7.942,36.172,10.102c9.111,1.592,20.429,3.743,29.404,0.473c11.05-4.026,7.01-19.774,4.806-28.273
						c-3.467-13.368-9.455-26.907-16.054-38.991C1857.734,1013.112,1854.474,1015.014,1855.64,1017.148L1855.64,1017.148z"/>
				</g>
			</g>
			<g>
				<path style="fill:#191D26;" d="M1563.805,1025.196c-0.621-2.079,0.476-4.235,2.644-4.307
					c34.285-1.134,72.752-1.114,106.649-2.354c0.836-0.031,1.725-0.048,2.444,0.379c0.796,0.473,1.204,1.381,1.566,2.233
					c16.026,37.797,29.821,76.29,40.345,116.034c0.474,1.789-0.773,3.572-2.612,3.779c-7.605,0.855-16.659,1.089-23.391,1.19
					c-25.525,0.383-51.051,0.765-76.576,1.148c-1.125,0.017-2.308,0.02-3.293-0.524c-1.231-0.68-1.878-2.053-2.448-3.339
					c-14.542-32.838-25.684-61.553-38.944-96.456C1568.345,1038.123,1565.692,1031.51,1563.805,1025.196z"/>
			</g>
			<g>
				<path style="fill:#FEAE8B;" d="M1596.07,1090.827c1.956-0.157,4.016-0.495,5.44-1.846c1.43-1.356,1.116-3.142,0.536-4.415
					c-1.028-2.26-4.55-2.331-7.018-2.597c-5.511-0.596-5.924-0.45-11.481-0.845c7.773-1.128,12.963-0.792,20.713-3.056
					c2.694-0.787,5.225-1.438,4.723-5.531c-0.331-2.695-3.448-3.029-4.991-3.206c-2.984-0.342-17.802,0.993-19.934,0.341
					c4.24-0.169,16.868-0.729,22.686-3.478c2.091-0.988,3.08-2.635,2.796-4.12c-0.257-1.345-1.336-2.493-3.236-3.005
					c-6.987-1.883-22.414,1.129-24.689,0.895c6.027-3.426,14.091-5.888,16.767-7.19c2.416-1.175,4.381-2.532,3.453-5.466
					c-0.656-2.077-3.033-3.069-5.211-3.027c-8.752,0.17-18.071,0.673-30.173,4.657c-5.076,1.671-3.409,22.684,5.901,35.545
					C1579.542,1094.414,1589.611,1091.347,1596.07,1090.827z"/>
			</g>
			<g>
				<path style="fill:#FEAE8B;" d="M1707.637,1041.186l-10.195-3.548c0,0-2.956,1.073-3.878,2.158
					c-0.923,1.085-1.929,5.595-1.929,5.595s6.845,3.58,9.515,4.283c2.67,0.703,7.825-5.32,7.825-5.32L1707.637,1041.186z"/>
			</g>
		</g>
	</g>
</g>
</svg>
