<svg id="Flat" enable-background="new 0 0 512 512" height="512" viewBox="0 0 512 512" width="512" xmlns="http://www.w3.org/2000/svg"><path d="m496 56v48c0 4.4-3.6 8-8 8s-8-3.6-8-8v-28.7l-114.3 114.4c-1.5 1.5-3.5 2.3-5.7 2.3h-68.7l-117.6 117.7c-1.5 1.5-3.5 2.3-5.7 2.3h-60.7l-77.6 77.7c-3.1 3.1-8.2 3.1-11.3 0s-3.1-8.2 0-11.3l80-80c1.5-1.5 3.5-2.3 5.7-2.3h60.7l117.6-117.7c1.5-1.5 3.5-2.3 5.7-2.3h68.7l112-112h-28.8c-4.4 0-8-3.6-8-8s3.6-8 8-8h48c4.3-.2 8.1 3.6 8 7.9z" fill="#3dc285"/><g fill="#2d85cc"><path d="m440 152h48v304h-48z"/><path d="m360 216h48v240h-48z"/><path d="m280 272h48v184h-48z"/><path d="m200 336h48v120h-48z"/><path d="m120 368h48v88h-48z"/><path d="m40 408h48v48h-48z"/></g><circle cx="216" cy="168" fill="#ffd33a" r="80"/><path d="m216 80c-48.6 0-88 39.4-88 88s39.4 88 88 88 88-39.4 88-88c-.1-48.6-39.4-87.9-88-88zm0 160c-39.8 0-72-32.2-72-72s32.2-72 72-72 72 32.2 72 72c0 39.7-32.3 72-72 72z" fill="#ffb632"/><path d="m240 184c0 10.2-6.4 19.2-16 22.6v9.4c0 4.4-3.6 8-8 8s-8-3.6-8-8v-8h-8c-4.4 0-8-3.6-8-8s3.6-8 8-8h16c4.4 0 8-3.6 8-8s-3.6-8-8-8c-13.3 0-24-10.8-24-24 0-10.2 6.4-19.2 16-22.6v-9.4c0-4.4 3.6-8 8-8s8 3.6 8 8v8h8c4.4 0 8 3.6 8 8s-3.6 8-8 8h-16c-4.4 0-8 3.6-8 8s3.6 8 8 8c13.2 0 24 10.8 24 24z" fill="#ffb632"/></svg>