<svg enable-background="new 0 0 512 512" height="512" viewBox="0 0 512 512" width="512" xmlns="http://www.w3.org/2000/svg"><g id="_x31_2_Management"><g><path d="m256 123.256c-73.224 0-132.744 59.519-132.744 132.744s59.52 132.744 132.744 132.744 132.744-59.52 132.744-132.744-59.52-132.744-132.744-132.744zm0 249.552c-64.38 0-116.808-52.428-116.808-116.808s52.428-116.808 116.808-116.808 116.808 52.428 116.808 116.808-52.428 116.808-116.808 116.808z"/><path d="m479.099 206.042h-31.552c-4.542-17.529-11.553-34.341-20.796-50.117l22.39-22.39c12.43-12.43 12.43-32.588 0-45.098l-25.498-25.497c-12.43-12.43-32.668-12.43-45.098 0l-22.31 22.469c-15.776-9.323-32.588-16.334-50.277-20.955v-31.553c0-17.609-14.262-31.871-31.871-31.871h-36.015c-17.609 0-31.871 14.263-31.871 31.871v31.553c-17.768 4.621-34.58 11.633-50.277 20.876l-22.31-22.39c-12.43-12.35-32.668-12.35-45.177 0l-25.337 25.497c-12.669 12.51-12.51 32.748-.08 45.098l22.39 22.31c-9.322 15.777-16.334 32.589-20.876 50.197h-31.633c-17.609 0-31.871 14.263-31.871 31.871v36.015c0 17.609 14.263 31.871 31.871 31.871h31.632c4.542 17.689 11.553 34.581 20.876 50.277l-22.31 22.39c-12.589 12.43-12.51 32.668-.08 45.098l25.497 25.497c12.43 12.351 32.668 12.351 45.098 0l22.31-22.39c15.856 9.243 32.668 16.255 50.277 20.796v31.632c0 17.609 14.263 31.871 31.871 31.871h36.015c17.609 0 31.871-14.262 31.871-31.871v-31.632c17.609-4.542 34.501-11.553 50.277-20.876l22.31 22.469c12.43 12.43 32.668 12.351 45.178-.079l25.417-25.417c12.43-12.51 12.35-32.668-.08-45.098l-22.39-22.39c9.242-15.617 16.254-32.429 20.876-50.197h31.552c17.609 0 31.871-14.262 31.871-31.871v-36.094c.001-17.61-14.261-31.872-31.87-31.872zm15.935 67.965c0 8.764-7.171 15.936-15.936 15.936h-37.847c-3.745 0-6.932 2.55-7.808 6.215-4.621 20.398-12.51 39.52-23.505 56.81-1.992 3.187-1.594 7.251 1.036 9.96l26.851 26.852c6.215 6.215 6.215 16.254 0 22.469l-25.417 25.417c-6.215 6.295-16.414 6.295-22.549.08l-26.772-26.852c-2.629-2.63-6.772-3.108-9.88-1.036-17.688 11.075-36.811 19.043-56.97 23.505-3.586.876-6.215 4.064-6.215 7.808v37.927c0 8.765-7.171 15.936-15.936 15.936h-36.015c-8.764 0-15.936-7.171-15.936-15.936v-37.847c0-3.745-2.549-6.932-6.215-7.808-20.159-4.542-39.281-12.43-56.97-23.585-1.275-.797-2.789-1.195-4.223-1.195-2.072 0-4.143.797-5.657 2.311l-26.77 26.772c-6.215 6.215-16.334 6.215-22.549 0l-25.497-25.497c-6.215-6.215-6.294-16.254.08-22.469l26.772-26.852c2.63-2.709 3.028-6.772 1.036-9.96-11.075-17.45-19.043-36.572-23.505-56.89-.877-3.665-4.064-6.215-7.809-6.215h-37.927c-8.764 0-15.936-7.171-15.936-15.936v-36.015c0-8.764 7.171-15.936 15.936-15.936h37.927c3.745 0 6.932-2.629 7.809-6.215 4.462-20.159 12.43-39.281 23.505-56.811 1.992-3.187 1.594-7.33-1.036-9.96l-26.852-26.772c-6.215-6.135-6.294-16.175.08-22.469l25.338-25.497c6.295-6.215 16.414-6.215 22.629 0l26.772 26.772c2.63 2.63 6.773 3.108 9.88 1.116 17.45-11.075 36.652-19.043 56.97-23.585 3.665-.876 6.215-4.063 6.215-7.808v-37.846c0-8.764 7.171-15.936 15.936-15.936h36.015c8.764 0 15.936 7.171 15.936 15.936v37.847c0 3.745 2.55 6.932 6.215 7.808 20.238 4.542 39.361 12.51 56.89 23.585 3.187 2.072 7.331 1.594 9.96-1.036l26.772-26.852c6.215-6.215 16.254-6.215 22.469 0l25.497 25.497c6.215 6.215 6.215 16.254 0 22.469l-26.772 26.851c-2.63 2.63-3.108 6.772-1.116 9.88 11.155 17.609 19.043 36.732 23.505 56.811.876 3.586 4.064 6.215 7.808 6.215h37.847c8.765 0 15.936 7.171 15.936 15.936v36.095z"/><path d="m299.345 196.481v118.959c0 6.374-7.091 10.119-12.35 6.693l-30.995-20.238-30.994 20.238c-5.339 3.426-12.351-.319-12.351-6.693v-118.959c0-4.383 3.586-7.968 7.968-7.968h70.754c4.383 0 7.968 3.585 7.968 7.968z"/></g></g></svg>