<?xml version="1.0"?>
<svg xmlns="http://www.w3.org/2000/svg" viewBox="0 0 64 64"><g id="_30_proceedings_protection_merchandising_lock_business_security" data-name="30 proceedings protection, merchandising lock, business, security"><path d="M46,50v5a1,1,0,0,1-1,1H19a1,1,0,0,1-1-1V50a1,1,0,0,1,1-1H45A1,1,0,0,1,46,50ZM19,36H35a1,1,0,0,0,0-2H19a1,1,0,0,0,0,2Zm0-5H35a1,1,0,0,0,0-2H19a1,1,0,0,0,0,2Zm0,10H37a1,1,0,0,0,0-2H19a1,1,0,0,0,0,2Zm0,5H39a1,1,0,0,0,0-2H19a1,1,0,0,0,0,2ZM44,31v4.18a3,3,0,0,0,1.08,2.3L49,40.7l3.92-3.27A3,3,0,0,0,54,35.13V31a10.88,10.88,0,0,1-5-1.75A10.88,10.88,0,0,1,44,31ZM60,26V37.08A5,5,0,0,1,58.12,41L50,47.48V57a3,3,0,0,1-3,3H17a3,3,0,0,1-3-3V10a3,3,0,0,1,3-3h1V5a1,1,0,0,1,2,0V7h2V5a1,1,0,0,1,2,0V7h5V5a1,1,0,0,1,2,0V7h2V5a1,1,0,0,1,2,0V7h5V5a1,1,0,0,1,2,0V7h2V5a1,1,0,0,1,2,0V7h1a3,3,0,0,1,3,3V22.48A14.13,14.13,0,0,0,58,25h1A1,1,0,0,1,60,26ZM48,57V47.48L39.88,41A5,5,0,0,1,38,37.08V26a1,1,0,0,1,1-1h1a14.13,14.13,0,0,0,8-2.52V10a1,1,0,0,0-1-1H46v2a1,1,0,0,1-2,0V9H42v2a1,1,0,0,1-2,0V9H35v2a1,1,0,0,1-2,0V9H31v2a1,1,0,0,1-2,0V9H24v2a1,1,0,0,1-2,0V9H20v2a1,1,0,0,1-2,0V9H17a1,1,0,0,0-1,1V57a1,1,0,0,0,1,1H47A1,1,0,0,0,48,57Zm8-27a1,1,0,0,0-1-1,8.89,8.89,0,0,1-4.94-1.5l-.51-.33a1,1,0,0,0-1.1,0l-.51.33A8.89,8.89,0,0,1,43,29a1,1,0,0,0-1,1v5.13A5,5,0,0,0,43.8,39l4.56,3.8a1,1,0,0,0,1.28,0L54.2,39A5,5,0,0,0,56,35.13ZM32,21a1,1,0,1,0-1-1A1,1,0,0,0,32,21Zm-6-1a6,6,0,1,1,6,6A6,6,0,0,1,26,20Zm3,0a3,3,0,1,0,3-3A3,3,0,0,0,29,20Z"/></g></svg>
