<svg id="Layer_1" enable-background="new 0 0 66 66" height="512" viewBox="0 0 66 66" width="512" xmlns="http://www.w3.org/2000/svg"><g><path d="m32.5 29.15h6.6c.55 0 .99-.44.99-.99v-5.24c0-.55-.44-.99-.99-.99h-6.6c-.55 0-.99.44-.99.99v5.24c-.01.55.44.99.99.99zm.99-5.24h4.62v3.26h-4.62z"/><path d="m44.06 29.15h6.6c.55 0 .99-.44.99-.99v-5.24c0-.55-.44-.99-.99-.99h-6.6c-.55 0-.99.44-.99.99v5.24c0 .55.44.99.99.99zm.99-5.24h4.62v3.26h-4.62z"/><path d="m15.97 32.76h-6.6c-.55 0-.99.44-.99.99v5.25c0 .55.44.99.99.99h6.6c.55 0 .99-.44.99-.99v-5.24c0-.56-.45-1-.99-1zm-1 5.24h-4.62v-3.26h4.62z"/><path d="m27.53 32.76h-6.6c-.55 0-.99.44-.99.99v5.25c0 .55.44.99.99.99h6.6c.55 0 .99-.44.99-.99v-5.24c0-.56-.44-1-.99-1zm-.99 5.24h-4.62v-3.26h4.62z"/><path d="m32.5 39.99h6.6c.55 0 .99-.44.99-.99v-5.24c0-.55-.44-.99-.99-.99h-6.6c-.55 0-.99.44-.99.99v5.24c-.01.55.44.99.99.99zm.99-5.24h4.62v3.25h-4.62z"/><path d="m15.97 43.6h-6.6c-.55 0-.99.44-.99.99v5.24c0 .55.44.99.99.99h6.6c.55 0 .99-.44.99-.99v-5.24c0-.55-.45-.99-.99-.99zm-1 5.24h-4.62v-3.26h4.62z"/><path d="m27.53 43.6h-6.6c-.55 0-.99.44-.99.99v5.24c0 .55.44.99.99.99h6.6c.55 0 .99-.44.99-.99v-5.24c0-.55-.44-.99-.99-.99zm-.99 5.24h-4.62v-3.26h4.62z"/><path d="m58.35 40.26v-22.93-7.46c0-2.95-2.39-5.34-5.33-5.34h-5.08v-2.52c0-.55-.44-.99-.99-.99s-.99.44-.99.99v2.52h-9.31v-2.52c0-.55-.44-.99-.99-.99s-.99.44-.99.99v2.52h-9.31v-2.52c0-.55-.44-.99-.99-.99s-.99.44-.99.99v2.52h-9.31v-2.52c0-.55-.44-.99-.99-.99s-.99.44-.99.99v2.52h-5.09c-2.94 0-5.33 2.4-5.33 5.34v7.42c0 .01-.01.02-.01.03s.01.02.01.03v34.67c0 2.94 2.39 5.33 5.33 5.33h31.68c2.19 4.51 6.8 7.63 12.14 7.63 7.45 0 13.51-6.06 13.51-13.51 0-4.66-2.37-8.78-5.98-11.21zm3.05 12.31h.9c-.23 2.42-1.21 4.61-2.71 6.36l-.59-.57c-.39-.39-1.02-.39-1.4 0-.39.39-.39 1.02 0 1.4l.58.58c-1.76 1.46-3.95 2.4-6.36 2.61v-.79c0-.55-.44-.99-.99-.99s-.99.44-.99.99v.79c-2.4-.21-4.6-1.15-6.36-2.61l.58-.58c.39-.39.39-1.02 0-1.4-.39-.39-1.02-.39-1.4 0l-.58.58c-1.49-1.75-2.48-3.95-2.71-6.36h.89c.55 0 .99-.44.99-.99s-.44-.99-.99-.99h-.91c.19-2.45 1.13-4.69 2.61-6.47l.69.69c.19.19.45.29.7.29s.51-.1.7-.29c.39-.39.39-1.02 0-1.4l-.69-.69c1.78-1.52 4.02-2.5 6.48-2.71v1.01c0 .55.44.99.99.99s.99-.44.99-.99v-1.01c2.46.21 4.7 1.2 6.48 2.71l-.7.67c-.39.39-.39 1.02 0 1.4.19.19.45.29.7.29s.51-.1.7-.29l.69-.69c1.48 1.78 2.43 4.02 2.61 6.47h-.9c-.55 0-.99.44-.99.99s.44 1 .99 1zm-23.3-5.6c-.22.61-.4 1.23-.53 1.87h-4.08v-3.26h4.61zm6.95-8.97v-3.26h4.62v3.26zm-38.05-31.48h5.08v3.05c0 .55.44.99.99.99s.99-.44.99-.99v-3.05h9.31v3.05c0 .55.44.99.99.99s.99-.44.99-.99v-3.05h9.31v3.05c0 .55.44.99.99.99s.99-.44.99-.99v-3.05h9.31v3.05c0 .55.44.99.99.99s.99-.44.99-.99v-3.05h5.08c1.85 0 3.35 1.51 3.35 3.36v6.46h-52.7v-6.47c0-1.85 1.5-3.35 3.34-3.35zm-3.34 45.5v-33.7h52.71v20.85c-1.45-.66-3.04-1.06-4.72-1.16v-4.25c0-.55-.44-.99-.99-.99h-6.6c-.55 0-.99.44-.99.99v5.24c0 .46.32.83.75.94-1.63.99-3.04 2.32-4.12 3.89-.17-.13-.37-.22-.6-.22h-6.6c-.55 0-.99.44-.99.99v5.24c0 .55.44.99.99.99h4.85c-.01.21-.03.42-.03.64 0 1.36.21 2.66.58 3.9h-30.9c-1.84 0-3.34-1.5-3.34-3.35z"/><path d="m51.82 51.12v-7.02c0-.55-.44-.99-.99-.99s-.99.44-.99.99v7.42c0 .26.1.51.29.7l3.27 3.33c.19.2.45.3.71.3.25 0 .5-.1.7-.29.39-.38.4-1.01.01-1.4z"/></g></svg>