<svg id="HR_Compliance" viewBox="0 0 64 64" xmlns="http://www.w3.org/2000/svg" data-name="HR Compliance"><path d="m25.03 53.03-6.03-2.68v-2.61c1.58-1.11 2.69-2.86 2.94-4.86 1.75-.43 3.06-2 3.06-3.88v-3c0-5.51-4.49-10-10-10s-10 4.49-10 10v3c0 1.88 1.31 3.45 3.06 3.88.25 2 1.36 3.75 2.94 4.86v2.61l-6.03 2.68c-1.8.81-2.97 2.6-2.97 4.57v3.4c0 .55.45 1 1 1h24c.55 0 1-.45 1-1v-3.4c0-1.97-1.17-3.76-2.97-4.57zm-8.03-2.57-2 1.34-2-1.34v-1.75c.63.18 1.3.29 2 .29s1.37-.11 2-.29zm-2-3.46c-2.76 0-5-2.24-5-5v-4h4c.27 0 .52-.11.71-.29l1.29-1.3 1.29 1.3c.19.18.44.29.71.29h2v4c0 2.76-2.24 5-5 5z"/><path d="m58 2h-38c-2.21 0-4 1.79-4 4v17.15c0 .55.45 1 1 1s1-.45 1-1v-17.15c0-1.1.9-2 2-2h38c1.1 0 2 .9 2 2v52c0 1.1-.9 2-2 2h-27c-.55 0-1 .45-1 1s.45 1 1 1h27c2.21 0 4-1.79 4-4v-52c0-2.21-1.79-4-4-4z"/><path d="m38.47 30.85c.16.1.35.15.53.15s.37-.05.53-.15l3.51-2.19c3.06-1.91 4.96-5.4 4.96-9.11v-6.21c0-.4-.24-.77-.62-.92l-8-3.33c-.25-.1-.52-.1-.77 0l-8 3.33c-.37.16-.62.52-.62.92v6.21c0 3.71 1.9 7.2 4.96 9.11l3.51 2.19zm-4.18-12.55c.39-.39 1.02-.39 1.41 0l2.23 2.23 4.3-5.16c.35-.42.98-.48 1.41-.13.42.35.48.98.13 1.41l-5 6c-.18.22-.44.35-.72.36-.01 0-.03 0-.04 0-.26 0-.52-.1-.71-.29l-3-3c-.39-.39-.39-1.02 0-1.41z"/><path d="m27 36c0 .55.45 1 1 1h22c.55 0 1-.45 1-1s-.45-1-1-1h-22c-.55 0-1 .45-1 1z"/><path d="m28 43h22c.55 0 1-.45 1-1s-.45-1-1-1h-22c-.55 0-1 .45-1 1s.45 1 1 1z"/><path d="m51 48c0-.55-.45-1-1-1h-22c-.55 0-1 .45-1 1s.45 1 1 1h22c.55 0 1-.45 1-1z"/><path d="m35 53c-.55 0-1 .45-1 1s.45 1 1 1h8c.55 0 1-.45 1-1s-.45-1-1-1z"/></svg>