<svg id="Layer_1" enable-background="new 0 0 48 48" viewBox="0 0 48 48" xmlns="http://www.w3.org/2000/svg" width="300" height="300" version="1.1" xmlns:xlink="http://www.w3.org/1999/xlink" xmlns:svgjs="http://svgjs.dev/svgjs"><g transform="matrix(1,0,0,1,0,0)"><g><path d="m24 21.5c4 0 7.3-3.3 7.3-7.4s-3.3-7.3-7.3-7.3-7.3 3.3-7.3 7.4 3.3 7.3 7.3 7.3zm0-12.7c2.9 0 5.3 2.4 5.3 5.4s-2.4 5.4-5.3 5.4-5.3-2.4-5.3-5.4 2.4-5.4 5.3-5.4z" fill="#000000" fill-opacity="1" data-original-color="#000000ff" stroke="none" stroke-opacity="1"/><path d="m47.3 19.3c0-6-4.8-10.9-10.8-10.9-.1 0-.2 0-.2 0-2.2-4.8-7-7.9-12.3-7.9s-10.1 3.1-12.3 7.9c-.1 0-.2 0-.2 0-5.9 0-10.8 4.9-10.8 10.9 0 2.1 1.2 5.3 3.7 9.4l-3.9 18.8h47l-3.9-18.8c2.4-4.2 3.7-7.3 3.7-9.4zm-2 0c0 1.2-.6 3.7-3.6 8.7-1.9 3.2-4.1 6.3-5.2 7.8-.1-.2-.3-.4-.5-.6 0-.1-.1-.1-.2-.2-.1-.2-.3-.4-.4-.5s-.1-.2-.2-.3c-.1-.2-.3-.4-.4-.6-.1-.1-.2-.2-.3-.4s-.3-.4-.4-.6c-.1-.1-.2-.3-.3-.4-.1-.2-.3-.4-.4-.6s-.2-.3-.3-.5-.3-.4-.4-.6-.2-.3-.3-.5-.3-.4-.4-.7c-.1-.2-.2-.3-.3-.5-.1-.1-.2-.3-.2-.4.2-.3.4-.6.5-.9.2-.3.3-.6.5-.9l.2-.3c.3-.4.5-.9.8-1.3.1-.1.1-.3.2-.4.8.5 1.8.7 2.8.7 3.3 0 5.9-2.7 5.9-6 0-2.9-2.1-5.4-4.9-5.9 0-.1 0-.3 0-.4s0-.2 0-.3c0-.3-.1-.6-.1-.9 0-.1 0-.2-.1-.3-.1-.4-.2-.7-.2-1 4.5.2 8.2 4.1 8.2 8.8zm-10.6 3.5c.1-.1.1-.3.2-.4.2-.3.3-.6.5-.9l.1-.2.1-.2c0-.1.1-.1.1-.2s0-.1.1-.2c.1-.2.2-.4.3-.6v-.1c.2-.4.3-.7.4-1v-.1c.2-.4.3-.8.4-1.2 0-.1.1-.3.1-.4v-.1c0-.1.1-.2.1-.3s.1-.2.1-.4c0-.1 0-.1 0-.2s.1-.3.1-.4 0-.2 0-.3c1.7.4 3 2 3 3.9 0 2.2-1.8 4-3.9 4-.6-.2-1.2-.4-1.7-.7zm-10.7-20.3c4.7 0 8.9 2.9 10.7 7.3.5 1.3.8 2.7.8 4.2v.3c0 .8-.2 1.8-.6 2.9-.1.2-.2.5-.3.8-.1.2-.2.5-.3.7 0 .1-.1.2-.1.3-.1.3-.3.6-.4.9 0 .1-.1.2-.1.2-.4.8-.8 1.7-1.3 2.6l-.1.3c-.2.3-.4.7-.5 1-.2.4-.5.9-.7 1.3s-.5.8-.7 1.1c-.3.5-.6.9-.9 1.4l-.1.1c-2.1 3.4-4.3 6.4-5.4 7.9-.1-.2-.3-.4-.5-.6-1.2-1.7-3.1-4.4-5-7.4-.3-.5-.6-.9-.9-1.4l-.8-1.4c-.4-.8-.9-1.6-1.3-2.3-.3-.5-.5-1-.8-1.5-.1-.1-.1-.2-.2-.4-.2-.4-.4-.7-.5-1.1 0-.1-.1-.2-.1-.3-.2-.4-.3-.8-.5-1.2v-.1c-.2-.4-.3-.9-.4-1.3 0-.1-.1-.2-.1-.3 0-.2-.1-.3-.1-.5s-.1-.3-.1-.5v-.1c0-.1-.1-.3-.1-.4 0 0 0 0 0-.1 0-.3-.1-.5-.1-.7v-.2c0-1.5.3-2.9.8-4.3 1.7-4.3 5.9-7.2 10.7-7.2zm-10.7 20.3c-.6.3-1.2.4-1.8.4-2.2 0-3.9-1.8-3.9-4 0-1.9 1.3-3.4 3-3.9v.1.1.1c.2 1.3.7 2.8 1.5 4.6v.1c.2.5.4 1 .7 1.5 0 .1.1.1.1.2.2.3.3.5.4.8zm-2.3-12.4c-.1.3-.2.7-.2 1v.3c-.1.3-.1.6-.1.9v.3.4c-2.8.5-4.9 2.9-4.9 5.9 0 3.3 2.7 6 5.9 6 1 0 1.9-.3 2.8-.7.3.5.5 1 .8 1.5l.8 1.4c.2.3.4.6.6.9-.1.1-.1.2-.2.4s-.2.4-.4.6c-.1.2-.3.4-.4.6s-.2.4-.3.5c-.1.2-.3.4-.4.6s-.2.3-.3.5-.3.4-.4.6-.2.3-.3.5-.3.4-.4.6c-.1.1-.2.3-.3.4-.1.2-.2.4-.4.5-.1.1-.2.2-.2.4-.1.2-.2.3-.3.5-.3 0-.4.1-.4.2-.2.2-.3.4-.5.6-1.1-1.6-3.3-4.6-5.2-7.8l-.1-.1c-2.9-4.9-3.5-7.4-3.5-8.6 0-4.7 3.7-8.6 8.3-8.9zm-8.1 35.1 3-14.3c.1.1.1.2.2.2.1.1.1.2.2.3.1.2.2.4.4.6 0 .1.1.1.1.2.3.5.7 1 1 1.5 0 0 .1.1.1.1.1.2.2.4.4.5 0 .1.1.1.1.2.1.2.2.3.3.5 0 .1.1.1.1.2.1.2.2.3.3.4 0 0 .1.1.1.1.5.7 1 1.3 1.2 1.7.2.3.3.4.3.4l.8 1 .8-1s0 0 0-.1 0-.1.1-.1c0 0 0 0 0-.1 0 0 .1-.1.1-.2 0 0 0-.1.1-.1 0-.1.1-.1.2-.2 0 0 .1-.1.1-.1.1-.1.1-.2.2-.3 0 0 .1-.1.1-.1.1-.1.1-.2.2-.3 0-.1.1-.1.1-.2.1-.1.1-.2.2-.3s.1-.2.2-.2c.1-.1.2-.2.3-.4.1-.1.1-.2.2-.2.1-.1.2-.3.3-.4s.1-.2.2-.2c.1-.2.3-.4.5-.7.1-.1.1-.2.2-.3s.2-.3.3-.4.2-.2.2-.4c.1-.1.2-.3.3-.4s.2-.3.3-.4.2-.3.2-.4c.1-.1.2-.3.3-.4s.2-.3.2-.4c.1-.1.2-.3.3-.4 0-.1.1-.1.1-.2.1.1.2.2.2.4 0 .1.1.1.1.2.1.2.3.4.4.6 0 .1.1.1.1.2.1.2.3.4.4.6 0 .1.1.1.1.2.1.2.3.4.4.6 0 .1.1.1.1.2.3.5.7 1 1 1.4.1.1.1.2.2.3s.2.2.2.3c.1.1.2.2.2.3.1.1.1.2.2.3s.2.2.2.3.1.1.1.2l.3.3s0 .1.1.1c.1.1.2.2.3.4.4.6.7.9.7 1l.8 1 .8-1s0 0 .1-.1c0 0 0-.1.1-.1 0-.1.1-.1.1-.2 0 0 0 0 .1-.1l.2-.2s0-.1.1-.1c.1-.1.1-.2.2-.3 0-.1.1-.1.1-.2.1-.1.1-.2.2-.3 0-.1.1-.1.1-.2.1-.1.2-.2.3-.3 0-.1.1-.1.1-.2.1-.1.2-.2.3-.4.1-.1.1-.2.2-.2.1-.1.2-.3.3-.4s.1-.1.2-.2c.1-.2.3-.4.4-.6.1-.1.2-.2.2-.3.1-.2.2-.3.3-.5.1-.1.2-.3.3-.4s.2-.2.2-.4c.1-.2.2-.3.3-.5.1-.1.1-.2.2-.3.1-.2.2-.3.3-.5.1-.1.1-.2.2-.3.1-.2.2-.3.3-.5 0-.1.1-.1.1-.2 0 .1.1.1.1.2.1.1.2.3.3.4s.2.3.2.4c.1.1.2.3.3.4s.2.2.2.4c.1.1.2.3.3.4s.2.2.2.4c.1.1.2.3.3.4s.1.2.2.3.2.3.3.4v.1c.2.3.5.7.7 1 0 .1.1.1.1.2.1.1.2.3.3.4 0 .1.1.1.1.2.1.1.2.2.3.4 0 .1.1.1.1.2.1.1.2.2.2.3 0 0 .1.1.1.1.1.1.1.2.2.3 0 0 .1.1.1.1.1.1.1.2.2.3 0 0 0 .1.1.1l.2.2c.2.2.3.3.3.3l.8 1 .8-1s.9-1.1 2-2.8c.7-1 1.6-2.3 2.5-3.7 0 0 0 0 0-.1.1-.1.2-.3.3-.4l3 14.3h-42.1z" fill="#000000" fill-opacity="1" data-original-color="#000000ff" stroke="none" stroke-opacity="1"/></g></g></svg>