<svg id="Layer_1" enable-background="new 0 0 68 68" height="512" viewBox="0 0 68 68" width="512" xmlns="http://www.w3.org/2000/svg"><g><path d="m40.7 55.3h-11.7c-.6 0-1 .5-1 1 0 .6.4 1 1 1h11.7c.6 0 1-.4 1-1 0-.5-.4-1-1-1z"/><path d="m25.2 38.8h17.9c.9 0 1.6-.7 1.6-1.6v-3.7c0-3.4-2.8-6.1-6.1-6.1h-1.2-.1c-.2-.2-.2-.7-.1-1.1 1.9-.9 3.3-2.7 3.8-4.9 1-.4 1.7-1.5 1.7-2.7 0-.9-.4-1.7-1-2.2v-3.5c0-3-3.8-4.3-7.6-4.3s-7.6 1.3-7.6 4.3v3.4c-.1 0-.1.1-.2.1-.5.5-.8 1.3-.8 2 0 1.2.7 2.2 1.7 2.7.4 2.1 1.8 3.9 3.8 4.9.1.4.1.9-.1 1.1h-1.2c-3.4 0-6.1 2.8-6.1 6.1v3.7c0 1 .7 1.8 1.6 1.8zm8.9-8.5-1.6-1.7c.3-.3.6-.9.6-1.7h1 1c0 .9.3 1.4.6 1.7zm-5-15.1 1.6-1.3c.5.6 1.4 1.5 2.7 1.9 1.2.5 3.7.8 5.7 1v3.1c0 2.7-2.2 5-5 5-2.7 0-5-2.2-5-5z"/><path d="m55.2 41.6v-10.6h2.8c1.5 0 2.7-1.2 2.7-2.7v-6c0-1.5-1.2-2.7-2.7-2.7h-2.8v-2.2h2.8c1.5 0 2.7-1.2 2.7-2.7v-6c0-1.5-1.2-2.7-2.7-2.7h-2.8v-.7c0-2.1-1.7-3.8-3.8-3.8h-38.3c-4.3 0-7.8 3.5-7.8 7.8v.8h-.9c-1.7 0-3 1.4-3 3 0 1.7 1.4 3 3 3h.9v3.8h-.9c-1.7 0-3 1.4-3 3 0 1.7 1.4 3 3 3h.9v3.9h-.9c-1.7 0-3 1.4-3 3 0 1.7 1.4 3 3 3h.9v3.9h-.9c-1.7 0-3 1.4-3 3 0 1.7 1.4 3 3 3h.9v3.9h-.9c-1.7 0-3 1.4-3 3 0 1.7 1.4 3 3 3h.9v.8c0 4.3 3.5 7.8 7.8 7.8h34.2c2 1.3 4.3 2.1 6.9 2.1 6.9 0 12.4-5.6 12.4-12.5 0-6.4-5-11.7-11.4-12.2zm-39.2 20.7v-58.7h35.4c1 0 1.8.8 1.8 1.8v36.2c-3.2.3-6 1.7-8 3.9h-22.5c-.6 0-1 .4-1 1 0 .5.4 1 1 1h20.9c-.6.9-1 1.9-1.3 2.9h-17c-.6 0-1 .4-1 1 0 .5.4 1 1 1h16.6c-.1.5-.1 1-.1 1.6 0 3.2 1.2 6.2 3.2 8.4h-29zm-12.6-9.6c0-.6.5-1 1-1 .3 0 5.6 0 5.3 0 .6 0 1 .5 1 1s-.4 1-1 1c-1.6 0-3.7 0-5.3 0-.6 0-1-.4-1-1zm0-9.9c0-.6.5-1 1-1 .3 0 5.6 0 5.3 0 .6 0 1 .5 1 1s-.4 1-1 1c-1.6 0-3.7 0-5.3 0-.6.1-1-.4-1-1zm0-9.8c0-.6.5-1 1-1 .2 0 5.5 0 5.3 0 .6 0 1 .5 1 1s-.4 1-1 1c-1.6 0-3.7 0-5.3 0-.6 0-1-.5-1-1zm0-9.9c0-.6.5-1 1-1 .8 0 5.4 0 5.3 0 .6 0 1 .5 1 1 0 .6-.4 1-1 1-.2 0-5.5 0-5.3 0-.6 0-1-.5-1-1zm0-9.9c0-.6.5-1 1-1h5.3c.6 0 1 .5 1 1s-.4 1-1 1c-.3 0-5.4 0-5.3 0-.6 0-1-.4-1-1zm56.5 46.5c-.1.1-1 .8-.9.8-.6.5-1.2.6-1.9.6-2.3-.2-4.8-2.5-6.2-4.2-2.5-3-4.3-6.9-2.2-8.6.1-.1.9-.8.8-.7.1 0 .7-.6 1.6-.3.2.1.4.2.5.4.1.1 1.2 1.4 1.6 1.9.5.6.5 1.6-.1 2.1-.2.1-.8.7-.7.6.7 1.6 1.9 3 3.3 3.9.1-.1.7-.6.6-.5.7-.6 1.6-.5 2.2.2.1.1 1.7 2.1 1.6 2 .6.3.5 1.2-.2 1.8z"/></g></svg>