<svg id="Layer_1" enable-background="new 0 0 512 512" height="512" viewBox="0 0 512 512" width="512" xmlns="http://www.w3.org/2000/svg"><g id="_x32_1_Wishlist"><g><path d="m164.28 144.931c0 2.945 2.389 5.333 5.333 5.333h162.049c2.945 0 5.333-2.389 5.333-5.333s-2.388-5.333-5.333-5.333h-162.049c-2.945-.001-5.333 2.387-5.333 5.333z"/><path d="m169.613 185.204h75.732c2.945 0 5.333-2.389 5.333-5.333s-2.389-5.333-5.333-5.333h-75.732c-2.945 0-5.333 2.389-5.333 5.333s2.388 5.333 5.333 5.333z"/><path d="m331.662 249.138h-162.049c-2.945 0-5.333 2.389-5.333 5.333 0 2.945 2.389 5.333 5.333 5.333h162.049c2.945 0 5.333-2.388 5.333-5.333.001-2.944-2.387-5.333-5.333-5.333z"/><path d="m245.345 284.079h-75.732c-2.945 0-5.333 2.388-5.333 5.333s2.389 5.333 5.333 5.333h75.732c2.945 0 5.333-2.389 5.333-5.333s-2.388-5.333-5.333-5.333z"/><path d="m245.345 393.618h-75.732c-2.945 0-5.333 2.388-5.333 5.333s2.389 5.333 5.333 5.333h75.732c2.945 0 5.333-2.389 5.333-5.333s-2.388-5.333-5.333-5.333z"/><path d="m74.171 53.907h133.307c2.945 0 5.333-2.389 5.333-5.333 0-2.945-2.389-5.333-5.333-5.333h-133.307c-2.945 0-5.333 2.389-5.333 5.333-.001 2.944 2.387 5.333 5.333 5.333z"/><path d="m143.647 78.8h-69.476c-2.945 0-5.333 2.389-5.333 5.333 0 2.945 2.389 5.333 5.333 5.333h69.476c2.945 0 5.333-2.389 5.333-5.333 0-2.945-2.387-5.333-5.333-5.333z"/><path d="m381.36 304.48c-.853 0-1.654.107-2.453.107v-196.8c0-1.227-.586-2.827-1.547-3.787l-102.453-102.454c-.96-.959-2.667-1.546-3.787-1.546h-217.547c-14.72 0-26.667 11.947-26.667 26.667v421.333c0 14.72 11.947 26.667 26.667 26.667h248.161c19.04 22.773 47.626 37.333 79.626 37.333 57.173 0 103.733-46.56 103.733-103.787.001-57.173-46.559-103.733-103.733-103.733zm-327.787 159.52c-8.8 0-16-7.199-16-16v-421.334c0-8.853 7.2-16 16-16h212.214v75.788c0 14.72 11.947 26.667 26.667 26.667h75.787v192.266c-33.706 4.267-62.4 24.693-78.026 53.28h-120.535c-2.987 0-5.333 2.4-5.333 5.333 0 2.934 2.346 5.333 5.333 5.333h115.52c-4.854 12.053-7.627 25.12-7.627 38.88 0 20.533 6.08 39.68 16.427 55.787zm327.787 37.334c-51.36 0-93.12-41.759-93.12-93.12 0-51.306 41.76-93.067 93.12-93.067 51.306 0 93.067 41.76 93.067 93.067 0 51.359-41.76 93.12-93.067 93.12z"/><path d="m108.933 341.387c-22.133 0-40.107 17.973-40.107 40.107 0 22.08 17.973 40.053 40.107 40.053 22.08 0 40.053-17.973 40.053-40.053 0-22.134-17.973-40.107-40.053-40.107zm15.414 35.733-16.747 16.374c-2.186 2.134-5.759 1.973-7.787-.32l-6.667-7.733c-1.92-2.24-1.707-5.6.533-7.52s5.6-1.707 7.521.533l2.987 3.467 12.746-12.427c2.081-2.081 5.493-2.027 7.521.107 2.079 2.079 2.026 5.44-.107 7.519z"/><path d="m108.933 231.893c-22.133 0-40.107 17.973-40.107 40.053s17.973 40.053 40.107 40.053c22.08 0 40.053-17.973 40.053-40.053 0-22.079-17.973-40.053-40.053-40.053zm15.414 35.681-16.747 16.374c-2.186 2.133-5.759 1.973-7.787-.32l-6.667-7.733c-1.92-2.24-1.707-5.6.533-7.521 2.24-1.919 5.6-1.707 7.521.534l2.987 3.466 12.746-12.426c2.081-2.081 5.493-2.027 7.521.107 2.079 2.079 2.026 5.492-.107 7.519z"/><path d="m108.933 122.346c-22.133 0-40.107 17.974-40.107 40.053s17.973 40.053 40.107 40.053c22.08 0 40.053-17.973 40.053-40.053 0-22.079-17.973-40.053-40.053-40.053zm15.414 35.681-16.747 16.374c-2.186 2.134-5.759 1.973-7.787-.32l-6.667-7.733c-1.92-2.24-1.707-5.6.533-7.52 2.24-1.919 5.6-1.707 7.521.533l2.987 3.467 12.746-12.427c2.081-2.08 5.493-2.027 7.521.107 2.079 2.079 2.026 5.492-.107 7.519z"/><path d="m443.547 398.88c-1.974 24.427-26.613 49.173-46.934 65.707-8.853 7.146-21.654 7.146-30.453 0-24.854-20.107-63.094-58.507-40.32-89.387 14.346-19.521 39.413-21.654 55.52-6.667 25.707-23.946 64.747-.586 62.187 30.347z"/></g></g></svg>