<?xml version="1.0" encoding="utf-8"?>
<!-- Generator: Adobe Illustrator 27.5.0, SVG Export Plug-In . SVG Version: 6.00 Build 0)  -->
<svg version="1.1" id="Layer_1" xmlns="http://www.w3.org/2000/svg" xmlns:xlink="http://www.w3.org/1999/xlink" x="0px" y="0px"
	 viewBox="0 0 5000 5000" style="enable-background:new 0 0 5000 5000;" xml:space="preserve">
<g>
	<path style="fill:#FEFEFE;" d="M375.001,375.001h4249.998v4249.998H375.001V375.001z"/>
	<path style="fill:#FB8C99;" d="M934.199,3181.934c5.79-9.67,14.643-29.567,25.728-33.585c0.569-0.208,1.183-0.258,1.776-0.386
		c1.378,6.014-1.747,12.389-4.922,17.552c-4.561,7.425-9.77,14.738-15.269,21.503L934.199,3181.934z"/>
	<path style="fill:#FB8C99;" d="M935.403,3197.211c-10.986,13.667-22.537,45.658-38.391,52.05l-1.565-3.615
		c0.722-12.683,21.13-39.603,29.306-50.406C929.31,3197.02,930.526,3198.461,935.403,3197.211z"/>
	<path style="fill:#5888D3;" d="M4111.28,3625.378c6.309,11.231,13.215,20.893,26.218,24.591c10.509,2.988,20.59-0.149,30.132-4.694
		l-0.232,10.878c-11.937,4.13-23.466,5.076-35.61,1.141c-12.534-4.055-21.109-12.596-27.181-24.006
		C4107.221,3630.861,4109.13,3628.213,4111.28,3625.378z"/>
	<path style="fill:#4896C2;" d="M4103.274,3599.4c0.768-1.291,1.564-2.561,2.32-3.855c5.628-9.691,11.696-17.975,21.952-23.255
		c11.044-5.69,23.661-4.636,35.17-1.1c-1.951,2.42-3.574,4.873-6.139,6.666c-13.207-0.697-24.757,0.228-34.789,9.832
		c-5.042,4.827-8.471,11.721-10.932,18.183c-0.087,6.516-0.374,13.024,0.423,19.507c-2.15,2.835-4.059,5.483-6.673,7.911
		C4100.012,3620.929,4101.125,3612.043,4103.274,3599.4z"/>
	<path style="fill:#4896C2;" d="M4162.716,3571.19c11.119,3.959,19.793,11.517,24.74,22.362c5.62,12.318,4.897,28.551-0.344,40.877
		c-4.101,9.646-10.766,16.473-19.714,21.723l0.232-10.878c4.154-3.54,8.151-7.633,10.969-12.351
		c4.781-8.006,5.918-18.507,3.35-27.413c-3.976-13.771-13.265-21.146-25.372-27.654
		C4159.143,3576.063,4160.766,3573.61,4162.716,3571.19z"/>
	<path style="fill:#216F71;" d="M3439.984,3355.159l1.531,0.303c-2.76,15.597,16.826,93.209,21.275,115.21l-9.326,0.93
		c-5.333-37.835-13.352-77.637-22.873-114.658l1.565-0.469L3439.984,3355.159z"/>
	<path style="fill:#EF6263;" d="M924.753,3195.24c-7.873-11.742-25.301-12.659-32.294-23.865c-2.44-3.914-2.934-6.944-1.843-11.372
		c11.725,1.021,26.832,17.249,39.864,20.964c1.233,0.353,2.478,0.643,3.719,0.967l7.313,5.084c0.664,0.705,1.312,1.432,1.992,2.121
		c11.945,12.156,34.199,14.559,44.953,27.583l0.099,4.524c-2.918,2.033-2.474,2.673-5.445,2.274
		c-11.065-1.498-36.913-20.067-47.709-26.309C930.526,3198.461,929.31,3197.02,924.753,3195.24z"/>
	<path style="fill:#253564;" d="M3578.562,3582.193c3.905,0.813,6.532,1.316,10.559,1.046
		c-8.301,51.677-16.718,103.208-22.728,155.216l-12.704-0.594c2.158-51.137,12.256-105.304,24.155-155.067L3578.562,3582.193z"/>
	<path style="fill:#216F71;" d="M3453.465,3471.602l9.326-0.93c5.645,29.435,13.385,59.728,17.029,89.391
		c11.559,60.106,25.479,118.967,38.677,178.649l-8.114-1.735c-17.589-55.292-29.26-113.604-38.275-170.838
		C3462.873,3539.091,3458.939,3500.463,3453.465,3471.602z"/>
	<path style="fill:#FEFEFE;" d="M4156.578,3577.856c12.107,6.508,21.396,13.883,25.372,27.654c2.569,8.906,1.432,19.407-3.35,27.413
		c-2.818,4.719-6.815,8.811-10.969,12.351c-9.542,4.545-19.623,7.682-30.132,4.694c-13.003-3.698-19.91-13.36-26.218-24.591
		c-0.797-6.483-0.51-12.991-0.423-19.507c2.461-6.462,5.889-13.356,10.932-18.183
		C4131.821,3578.084,4143.371,3577.159,4156.578,3577.856z"/>
	<path style="fill:#4896C2;" d="M4030.518,1886.05c-3.889-3.544-7.271-6.782-10.085-11.268c-5.396-8.604-10.393-19.615-7.404-29.895
		c2.909-10.011,11.854-17.909,20.993-22.267c11.65-5.561,24.475-5.599,36.353-0.66c7.952,3.308,15.531,9.309,18.241,17.801
		c4.096,12.821-0.967,27.945-6.977,39.188c-8.155,8.318-15.75,14.468-27.998,14.095
		C4045.24,1892.786,4037.993,1889.565,4030.518,1886.05z"/>
	<path style="fill:#FEFEFE;" d="M4031.46,1875.914c-0.315-0.577-0.647-1.141-0.946-1.722c-5.57-10.754-8.583-19.536-4.283-31.489
		c0.285-0.8,0.61-1.583,0.975-2.349c0.363-0.766,0.764-1.514,1.204-2.241c0.44-0.725,0.916-1.426,1.428-2.104
		c0.512-0.678,1.057-1.328,1.635-1.951c0.575-0.623,1.181-1.215,1.818-1.776c0.639-0.562,1.303-1.089,1.992-1.581
		c0.692-0.495,1.406-0.953,2.142-1.374c0.739-0.421,1.495-0.804,2.27-1.15c7.288-3.271,16.353-2.959,23.607,0.208
		c0.907,0.393,1.793,0.833,2.656,1.32c0.86,0.487,1.693,1.018,2.499,1.594c0.802,0.576,1.573,1.193,2.312,1.851
		c0.739,0.658,1.44,1.354,2.104,2.088c0.665,0.736,1.288,1.504,1.872,2.303c0.581,0.8,1.118,1.628,1.61,2.486
		c0.495,0.858,0.942,1.739,1.341,2.644c0.398,0.905,0.748,1.829,1.05,2.772c3.287,10.359,0.527,18.909-3.926,28.355
		c-7.097,6.068-13.26,10.928-23.06,10.38C4044.144,1883.75,4037.698,1879.944,4031.46,1875.914z"/>
	<path style="fill:#47B1BE;" d="M2044.839,763.784c10.181-8.261,20.312-13.976,33.871-12.528c1.436,0.159,2.86,0.391,4.271,0.694
		c1.414,0.303,2.807,0.677,4.179,1.122c1.375,0.445,2.724,0.958,4.047,1.539c1.323,0.581,2.612,1.228,3.868,1.94
		c1.256,0.712,2.474,1.486,3.652,2.321c1.179,0.835,2.312,1.728,3.399,2.678c1.087,0.95,2.124,1.953,3.109,3.008
		c0.988,1.055,1.919,2.158,2.793,3.307c6.802,8.811,10.588,19.894,9.168,31.062c-1.282,10.119-7.056,20.935-15.124,27.272
		c-2.917,2.44-6.059,4.918-9.508,6.578c-9.662,4.657-22.537,4.686-32.498,1.004c-11.281-4.167-17.643-11.422-22.653-22.063
		c-1.378-3.794-2.573-7.794-3.283-11.771C2031.645,786.003,2037.149,774.935,2044.839,763.784z"/>
	<path style="fill:#FEFEFE;" d="M2057.237,765.638c11.463-4.377,21.047-6.952,32.784-1.736c7.599,3.376,13.115,8.893,15.763,16.82
		c3.038,9.084,1.818,19.992-2.482,28.48c-2.627,5.188-6.006,8.815-10.21,12.742c-6.948,3.104-14.75,5.097-22.371,4.092
		c-12.538-1.652-19.822-9.488-26.969-19.183c-0.635-4.545-1.374-9.218-1.424-13.813
		C2042.196,780.908,2049.073,773.602,2057.237,765.638z"/>
	<path style="fill:#FA8C81;" d="M825.472,1948.484c8.463-0.166,17.266-0.1,25.238,3.134c10.214,4.146,18.839,12.808,23.155,22.914
		c0.622,1.453,1.169,2.933,1.639,4.441c0.468,1.508,0.856,3.035,1.166,4.582c0.31,1.55,0.537,3.112,0.681,4.686
		c0.147,1.572,0.212,3.147,0.195,4.727c-0.017,1.577-0.116,3.15-0.299,4.719c-0.183,1.569-0.445,3.124-0.789,4.665
		c-0.346,1.544-0.769,3.064-1.27,4.561c-0.504,1.497-1.083,2.964-1.739,4.399c-6.857,14.713-18.424,20.947-33.112,26.098
		c-8.496-0.527-17.374-1.602-25.176-5.213c-10.322-4.781-18.735-14.074-22.628-24.736c-0.526-1.422-0.978-2.868-1.357-4.337
		c-0.379-1.469-0.682-2.954-0.909-4.453c-0.226-1.5-0.375-3.006-0.446-4.52c-0.072-1.516-0.066-3.031,0.018-4.545
		c0.084-1.514,0.244-3.02,0.482-4.52c0.241-1.497,0.556-2.979,0.946-4.445c0.39-1.464,0.854-2.905,1.39-4.325
		c0.54-1.417,1.15-2.803,1.83-4.159C801.047,1959.387,812.074,1952.448,825.472,1948.484z"/>
	<path style="fill:#FEFEFE;" d="M827.609,1960.732c5.499-0.129,11.177,0.046,16.427,1.889c8.865,3.117,16.191,10.525,19.693,19.179
		c0.396,0.968,0.742,1.953,1.038,2.955c0.299,1.004,0.545,2.02,0.739,3.046c0.194,1.029,0.336,2.064,0.428,3.105
		c0.091,1.043,0.13,2.087,0.116,3.133c-0.014,1.046-0.082,2.088-0.203,3.125c-0.119,1.04-0.289,2.071-0.51,3.092
		c-0.224,1.021-0.498,2.029-0.822,3.026c-0.324,0.993-0.697,1.969-1.121,2.926c-4.267,9.724-11.663,14.589-21.101,18.61
		c-5.557,0.199-11.318,0.552-16.738-0.938c-8.637-2.37-15.992-8.956-20.113-16.826c-0.534-0.996-1.011-2.018-1.432-3.067
		c-0.423-1.049-0.787-2.117-1.092-3.204c-0.307-1.087-0.553-2.189-0.739-3.304c-0.188-1.112-0.314-2.233-0.378-3.362
		c-0.066-1.129-0.071-2.256-0.012-3.383c0.058-1.129,0.177-2.251,0.357-3.366c0.18-1.118,0.419-2.22,0.718-3.308
		c0.299-1.09,0.656-2.161,1.071-3.212C808.414,1969.381,816.797,1965.168,827.609,1960.732z"/>
	<path style="fill:#253564;" d="M3186.462,1178.62c6.068-3.69,8.927-4.773,16.016-5.084c-4.777,33.618-12.331,76.483-41.375,98.622
		c-3.515,2.681-7.367,4.943-11.185,7.151c-0.567,44.083-0.69,88.165-0.369,132.248l-16.842-1.54l0.415-130.791
		c-0.427-0.324-0.864-0.643-1.287-0.975c-0.714-0.548-1.411-1.112-2.121-1.656c-29.816-22.798-38.366-61.563-43.766-96.833
		l2.694-3.117c5.731,1.199,10.629,3.03,15.979,5.3c14.68-6.068,32.033,12.244,48.68,8.023
		C3164.452,1186.639,3175.463,1182.455,3186.462,1178.62z"/>
	<path style="fill:#FEFEFE;" d="M3153.3,1189.967c11.152-3.329,22.163-7.512,33.162-11.347
		c-5.98,21.466-14.729,66.572-34.706,78.351c-4.549,2.681-9.002,4.042-14.207,2.283c-11.542-3.906-18.013-19.403-21.84-29.787
		c-5.711-15.502-8.633-31.236-11.09-47.522C3119.3,1175.877,3136.653,1194.188,3153.3,1189.967z"/>
	<path style="fill:#FA8C81;" d="M1212.715,2277.726c11.675-17.963,26.749-34.353,39.894-51.344
		c17.328,24.641,32.601,34.357,57.969,48.647c-18.83,35.531-19.108,64.459-45.551,104.461
		c-36.121-23.998-76.421-42.164-111.828-66.688C1170.045,2294.29,1189.033,2284.537,1212.715,2277.726z"/>
	<path style="fill:#F8BB3B;" d="M907.654,1619.532c1.569-2.565,0.461-1.299,3.748-3.378c7.782,7.06,17.465,34.535,27.181,46.663
		c23.831,29.729,56.462,46.754,94.301,50.867c37.117,4.042,76.322-5.649,105.52-29.376c30.68-24.931,50.921-64.177,55.071-103.299
		c1.581-14.925,0.506-29.908,2.108-44.808l0.208-1.801c18.195,44.754,20.839,92.786,1.822,137.83
		c-1.06,2.465-2.18,4.901-3.362,7.309c-1.179,2.41-2.415,4.79-3.71,7.139c-1.295,2.352-2.645,4.669-4.051,6.952
		c-1.408,2.283-2.871,4.531-4.387,6.744c-1.519,2.214-3.089,4.388-4.711,6.524c-1.621,2.136-3.295,4.232-5.022,6.288
		c-1.724,2.053-3.498,4.064-5.321,6.035c-1.821,1.967-3.69,3.89-5.607,5.769c-1.915,1.879-3.874,3.709-5.877,5.491
		c-2.006,1.782-4.054,3.515-6.143,5.2c-2.089,1.682-4.218,3.313-6.387,4.893c-2.167,1.58-4.372,3.106-6.616,4.578
		c-2.241,1.472-4.518,2.889-6.832,4.25c-2.31,1.361-4.653,2.666-7.027,3.914c-2.377,1.248-4.781,2.438-7.213,3.569
		c-2.432,1.129-4.891,2.2-7.375,3.212c-35.162,14.145-73.52,12.75-108.151-2.262c-37.553-16.278-66.377-44.409-81.099-82.867
		C911.92,1657.205,908.625,1638.483,907.654,1619.532z"/>
	<path style="fill:#4FA5EA;" d="M3113.913,761.823c8.703-8.446,19.656-16.519,32.385-16.557c9.55-0.028,17.469,6.56,23.495,13.299
		c30.472,34.077,10.995,45.528,64.551,64.263c19.586-5.86,42.367-14.14,62.077-3.914c7.438,3.86,12.688,10.247,14.842,18.361
		c4.416,16.631-2.772,32.747-8.562,48.037c7.301,16.709,14.667,35.639,28.007,48.489c17.66,17.004,35.552,16.622,51.063,39.823
		c0.647,14.892,2.175,27.26-8.729,39.088c-18.573,20.154-64.198,23.01-63.277,69.282c0.444,22.396,19.473,45.542,0.531,65.597
		c-7.533,7.977-16.465,11.675-26.579,15.182c-15.294-3.466-30.576-6.848-45.667-11.127l-34.403,18.984l-1.171,2.905
		c-7.089,0.311-9.948,1.395-16.016,5.084c-10.998,3.835-22.009,8.019-33.162,11.347l0.208-6.798
		c8.081-12.605,29.418-14.248,43.305-17.71c21.026-7.848,43.318-22.429,59.483-38.009c35.349-34.075,51.701-94.704,51.847-142.499
		c0.05-16.585-2.598-31.705-10.899-46.285c-24.471-42.961-138.743-131.588-181.617-175.081L3113.913,761.823z"/>
	<path style="fill:#FA8C81;" d="M1824.918,1384.143l16.905-2.386c0,28.546-1.37,69.009,19.972,91.13
		c6.151,6.375,13.368,11.766,19.988,17.631c2.291,2.03,1.552,1.407,3.598,4.487c-6.213,25.965-8.446,52.839-12.273,79.235
		c0.461,18.976,4.096,30.215,17.158,44.168c-16.203,12.725-39.271,17.403-59.517,18.432c-44.866,2.274-80.758-11.364-113.961-41.201
		c-13.842-14.132-21.2-29.273-28.912-47.215c3.727-1.366,6.587-2.926,9.529-5.562c27.255-24.421,45.389-66.639,46.758-102.851
		c23.79,0.639,44.405,0.93,62.658-16.568c9.683-9.28,21.64-22.3,21.835-36.474L1824.918,1384.143z"/>
	<path style="fill:#F6AC8C;" d="M1716.788,1595.639c5.848-16.535,14.887-33.054,26.479-46.302
		c11.883-13.58,27.218-23.993,45.775-24.413c33.224-0.743,62.119,27.6,84.066,49.315c0.461,18.976,4.096,30.215,17.158,44.168
		c-16.203,12.725-39.271,17.403-59.517,18.432C1785.884,1639.114,1749.991,1625.476,1716.788,1595.639z"/>
	<path style="fill:#0D9074;" d="M3825.119,3545.832c12.514,2.005,26.583-1.146,39.333-1.681
		c34.415-1.444,120.108-5.856,149.941,7.467l-4.449,4.213c-49.759,62.472-101.954,126.222-158.503,182.738
		c-50.784,0-102.237,1.772-152.942-0.154c35.012-65.236,74.084-126.595,120.581-184.344l4.391-7.911L3825.119,3545.832z"/>
	<path style="fill:#115358;" d="M3825.119,3545.832c12.514,2.005,26.583-1.146,39.333-1.681
		c34.415-1.444,120.108-5.856,149.941,7.467l-4.449,4.213c-63.571,0.747-127.276-1.141-190.864-1.76l4.391-7.911L3825.119,3545.832z
		"/>
	<path style="fill:#EF6263;" d="M2965.524,1535.408c0.822-3.835,1.789-7.631,2.901-11.389c1.115-3.76,2.371-7.471,3.769-11.131
		c1.4-3.663,2.938-7.267,4.615-10.812c1.677-3.542,3.488-7.016,5.433-10.422c1.942-3.403,4.015-6.728,6.217-9.973
		c2.199-3.246,4.521-6.401,6.964-9.467c2.443-3.066,5.001-6.033,7.674-8.903c2.67-2.869,5.448-5.631,8.334-8.284
		c2.034-1.873,4.112-3.697,6.234-5.47c2.122-1.771,4.286-3.489,6.491-5.155c2.205-1.668,4.451-3.281,6.736-4.839
		c2.283-1.558,4.603-3.059,6.96-4.503c2.357-1.444,4.748-2.831,7.172-4.159c2.424-1.331,4.88-2.601,7.367-3.81
		c2.485-1.209,4.999-2.356,7.541-3.441c2.543-1.087,5.111-2.112,7.703-3.075c2.59-0.963,5.203-1.861,7.84-2.694
		c2.637-0.836,5.292-1.606,7.965-2.312c2.673-0.706,5.361-1.346,8.064-1.922c2.706-0.576,5.423-1.085,8.151-1.527
		s5.466-0.819,8.214-1.129c2.748-0.31,5.5-0.552,8.259-0.726c2.759-0.177,5.52-0.286,8.284-0.328
		c2.764-0.042,5.528-0.015,8.292,0.079l16.842,1.54c46.991,5.338,86.669,21.964,116.552,59.965
		c21.292,27.077,29.451,57.595,34.182,91.118c-21.553,1.058-44.359-3.021-65.9-4.727l-144.657-11.999l-80.833-6.674
		C2994.436,1538.156,2979.706,1538.542,2965.524,1535.408z"/>
	<path style="fill:#0D9074;" d="M3417.979,2988.982c9.62-17.93,18.867-35.706,26.334-54.681
		c41.579,76.218,88.557,235.385,64.236,318.783c-10.127,34.726-32.477,81.85-64.854,101.237c-0.701,0.423-1.452,0.759-2.179,1.141
		l-1.531-0.303l-7.828,1.315c-9.557-40.447-19.916-80.686-31.078-120.718c-5.839-35.656-23.939-82.497-37.258-116.609l7.649-4.81
		l-0.025-1.768c7.193-9.878,12.555-25.143,16.12-36.802C3393.848,3051.807,3415.982,3009.776,3417.979,2988.982z"/>
	<path style="fill:#216F71;" d="M3432.31,2994.83c-6.234,39.2-34.735,104.785-52.133,141.873l-8.708-22.367l-0.025-1.768
		c7.193-9.878,12.555-25.143,16.12-36.802C3409.047,3053.828,3419.041,3022.281,3432.31,2994.83z"/>
	<path style="fill:#071860;" d="M3363.82,3119.146l7.649-4.81l8.708,22.367c10.505,30.725,20.91,62.082,28.812,93.579
		c13.746,41.263,19.461,83.406,30.995,124.877l-7.828,1.315c-9.557-40.447-19.916-80.686-31.078-120.718
		C3395.239,3200.1,3377.139,3153.259,3363.82,3119.146z"/>
	<path style="fill:#F6AC8C;" d="M1906.914,1189.257c34.71,35.631,60.272,54.337,110.612,59.965
		c3.851,64.447,52.76,155.171,3.441,212.944c-18.536,21.715-56.267,34.905-84.527,36.378c-16.506,0.863-34.652-1.316-51.058-3.54
		c-2.046-3.08-1.307-2.457-3.598-4.487c-6.62-5.864-13.837-11.256-19.988-17.631c-21.341-22.121-19.972-62.584-19.972-91.13
		c-2.378-14.032-4.939-28.659-4.391-42.94c0.415-10.783,1.947-17.361,9.986-24.819c4.47,5.35,8.579,9.616,14.165,13.8
		c4.819-0.473,5.059-0.701,8.33-4.034C1892.167,1301.086,1906.129,1221.411,1906.914,1189.257z"/>
	<path style="fill:#EF6263;" d="M1958.051,1387.36c3.279,4.026,6.981,6.715,6.089,12.426c-0.22,1.386-1.237,3.291-1.859,4.578
		c-5.848-1.365-11.721-1.847-15.734-6.719C1949.409,1391.635,1952.456,1390.771,1958.051,1387.36z"/>
	<path style="fill:#FEFEFE;" d="M1957.652,1339.713l3.507,1.722c-0.095,0.643-0.203,1.291-0.295,1.938
		c-0.867,6.118-0.788,10.061,0.722,16.041c3.375,3.52,4.64,5.151,9.903,5.574c3.515,0.282,8.01-0.847,11.526-1.407l0.112,9.035
		c-5.744,0.602-13.36,0.552-18.581,2.797c-2.27-1.038-4.557-2.088-6.715-3.354c-4.212-2.474-6.952-6.425-7.703-11.31
		C1948.907,1352.853,1953.311,1345.81,1957.652,1339.713z"/>
	<path style="fill:#F7BF98;" d="M1964.546,1375.415c5.221-2.245,12.837-2.196,18.581-2.797c-1.768,8.33-4.574,14.115-9.118,21.287
		c-2.146,4.889-4.848,9.936-6.35,15.045c-3.15-3.013-4.275-2.573-8.429-3.333l3.051-1.253c0.623-1.287,1.639-3.192,1.859-4.578
		c0.892-5.711-2.81-8.4-6.089-12.426l-0.519-2.324C1960.968,1381.835,1962.89,1379.847,1964.546,1375.415z"/>
	<path style="fill:#253564;" d="M1969.738,1276.221c14.14-0.851,22.292-0.386,33.618,8.375l-0.465,3.491
		c-3.275,1.253-5.674,2.366-9.268,1.834c-5.08-0.751-10.194-1.789-15.274-2.615c-10.969,0.926-21.254,4.736-32.269,5.288
		l-0.689-2.98C1952.63,1280.051,1958.287,1278.586,1969.738,1276.221z"/>
	<path style="fill:#EF6263;" d="M1971.51,1424.518c-0.988,0.714-1.963,1.453-2.967,2.15c-6.338,4.404-13.904,6.055-21.499,4.404
		c-9.168-1.992-17.124-8.654-21.897-16.593c-3.241-5.396-4.03-10.314-2.32-16.431c10.106,2.64,15.514,19.988,27.148,24.695
		c4.457,0.087,6.682,0.174,10.699-2.104c0.926-0.527,1.785-1.166,2.673-1.751l4.312-9.936c1.502-5.109,4.204-10.156,6.35-15.045
		c3.49,6.134,4.433,11.385,2.557,18.233C1975.359,1416.459,1973.674,1420.586,1971.51,1424.518z"/>
	<path style="fill:#071860;" d="M1957.652,1339.713c3.972-5.682,7.085-9.073,12.63-13.223c5.283-0.83,5.636-0.681,10.459,1.677
		c5.541,7.815,8.027,13.601,6.296,23.255c-0.755,4.225-2.382,8.218-4.022,12.161c-3.516,0.56-8.01,1.689-11.526,1.407
		c-5.263-0.423-6.528-2.055-9.903-5.574c-1.51-5.981-1.589-9.924-0.722-16.041c0.091-0.647,0.199-1.295,0.295-1.938
		L1957.652,1339.713z"/>
	<path style="fill:#D4324E;" d="M4104.42,946.194c67.332,59.073,107.329,145.513,113.293,234.534
		c0.177,2.847,0.32,5.696,0.428,8.546s0.181,5.701,0.22,8.554c0.039,2.853,0.043,5.704,0.012,8.554
		c-0.03,2.853-0.097,5.704-0.199,8.554c-0.1,2.853-0.234,5.703-0.403,8.55c-0.171,2.847-0.377,5.692-0.618,8.533
		c-0.238,2.842-0.512,5.68-0.822,8.517c-0.31,2.836-0.653,5.667-1.029,8.492c-0.379,2.828-0.791,5.65-1.237,8.467
		c-0.448,2.817-0.93,5.628-1.444,8.434c-0.515,2.806-1.064,5.604-1.648,8.396c-0.583,2.792-1.202,5.577-1.855,8.355
		c-0.65,2.775-1.335,5.543-2.055,8.305c-0.719,2.759-1.473,5.509-2.262,8.251c-0.786,2.742-1.605,5.474-2.457,8.197
		c-0.855,2.723-1.742,5.433-2.661,8.131c-0.918,2.701-1.871,5.39-2.855,8.068c-0.985,2.676-2.003,5.34-3.055,7.994
		c-1.048,2.651-2.13,5.289-3.246,7.915c-1.115,2.626-2.262,5.238-3.44,7.836c-1.176,2.595-2.385,5.177-3.627,7.745
		c-1.242,2.57-2.515,5.124-3.818,7.661c-1.303,2.535-2.637,5.055-4.001,7.562c-1.367,2.504-2.763,4.991-4.188,7.462
		c-1.425,2.468-2.88,4.919-4.366,7.354c-1.486,2.435-3,4.852-4.544,7.251c-1.547,2.399-3.121,4.777-4.723,7.135
		c-1.602,2.36-3.233,4.7-4.894,7.018c-1.66,2.322-3.348,4.621-5.063,6.898c-1.716,2.28-3.459,4.538-5.229,6.773
		c-1.771,2.236-3.57,4.449-5.396,6.641c-1.824,2.191-3.675,4.361-5.554,6.508c-63.75,72.648-145.886,111.903-242.208,117.821
		c-83.568,5.142-177.143-19.992-240.859-76.197c-1.004-0.884-1.988-1.793-2.984-2.689c18.224,2.179,34.643,10.911,52.203,15.821
		c42.865,11.982,94.01,13.929,138.188,10.276c96.002-7.927,189.934-50.9,252.09-125.657
		c81.879-98.468,105.893-240.37,51.602-357.361c-5.616-12.102-35.324-58.259-35.419-66.344
		C4104.283,948.099,4104.378,947.149,4104.42,946.194z"/>
	<path style="fill:#0EB497;" d="M4146.065,3195.145c39.62-13.983,88.569-27.513,130.505-30.016
		c-31.734,43.064-57.578,93.467-85.149,139.494c-19.827,3.104-38.013,6.549-56.819,13.759c17.423-1.025,34.531-3.204,51.813-5.607
		c-14.933,22.607-34.61,45.92-47.041,69.569l-5.354,7.205c-20.89,31.352-42.96,61.849-66.211,91.491
		c-14.203,18.341-44.193,51.191-53.416,70.577c-29.833-13.323-115.526-8.911-149.941-7.467c-12.75,0.536-26.82,3.686-39.333,1.681
		l-1.647,0.328l-2.358-3.881l4.728-3.785l-1.237-2.333c-6.308,5.516-10.978,17.299-18.021,20.308
		c0.22-2.453,0.241-4.628,1.146-6.935c40.632-48.389,87.162-94.035,133.464-136.901c17.639-16.332,35.191-33.954,54.511-48.277
		l78.343-64.617c15.597-12.136,32.012-23.873,45.995-37.872l2.133-1.768C4126.865,3237.487,4139.798,3217.395,4146.065,3195.145z"/>
	<path style="fill:#042030;" d="M4001.013,3402.054c19.411-2.27,124.707-25.612,132.87-22.848c1.997,0.677,3.661,2.092,5.491,3.138
		l-5.354,7.205c-60.836,6.516-119.39,24.18-180.608,28.422C3968.437,3409.956,3984.777,3406.748,4001.013,3402.054z"/>
	<path style="fill:#042030;" d="M4264.612,3169.408c-24.483,30.29-66.892,50.116-98.601,73.043
		c-29.642,21.428-58.052,44.758-87.876,65.862c-23.461,20.37-47.24,40.362-71.337,59.977c-3.553,3.204-10.567,8.168-12.871,12.099
		c-46.6,35.992-136.107,118.224-168.809,165.443l-1.647,0.328l-2.358-3.881l4.728-3.785l-1.237-2.333
		c-6.308,5.516-10.978,17.299-18.021,20.308c0.22-2.453,0.241-4.628,1.146-6.935c40.632-48.389,87.162-94.035,133.464-136.901
		c17.639-16.332,35.191-33.954,54.511-48.277l78.343-64.617c15.597-12.136,32.012-23.873,45.995-37.872l2.133-1.768
		c16.647-9.301,32.153-21.424,47.929-32.161C4200.759,3207.085,4231.667,3186.495,4264.612,3169.408z"/>
	<path style="fill:#5888D3;" d="M984.303,1075.433c98.32-10.287,196.533-21.498,294.64-33.631
		c55.96-6.798,112.426-12.738,168.033-21.98c-47.215,82.692-85.083,170.859-133.124,253.327
		c-28.579-20.652-56.881-41.994-86.191-61.583l-47.568,35.615c-9.114-18.872-17.905-37.951-28.771-55.897
		c-32.221-22.025-64.249-44.325-96.086-66.9C1032.028,1107.885,1008.857,1089.872,984.303,1075.433z"/>
	<path style="fill:#253564;" d="M1151.323,1191.283c6.292-6.786,13.298-12.086,21.092-16.996
		c24.529-15.456,217.609-123.432,230.882-126.545l0.809,1.793c-13.269,10.335-28.741,18.648-42.653,28.327
		c-54.652,37.37-109.929,73.792-165.829,109.267c11.447,7.579,21.968,15.07,32.037,24.438l-47.568,35.615
		C1170.979,1228.308,1162.189,1209.229,1151.323,1191.283z"/>
	
		<linearGradient id="SVGID_1_" gradientUnits="userSpaceOnUse" x1="1975.2473" y1="2738.5842" x2="2063.7795" y2="2726.9189" gradientTransform="matrix(4.8828 0 0 -4.8828 -5983.4678 16809.6836)">
		<stop  offset="0" style="stop-color:#078869"/>
		<stop  offset="1" style="stop-color:#10BFA4"/>
	</linearGradient>
	<path style="fill:url(#SVGID_1_);" d="M4142.234,3194.567c-7.089,21.425-17.992,41.438-24.637,62.945l2.445,4.354
		c-13.983,13.999-30.398,25.736-45.995,37.872l-78.343,64.617c-19.32,14.323-36.872,31.946-54.511,48.277
		c-46.302,42.865-92.832,88.511-133.464,136.901c-0.905,2.308-0.926,4.482-1.146,6.935c7.043-3.009,11.713-14.792,18.021-20.308
		l1.237,2.333l-4.728,3.785l2.358,3.881l-4.391,7.911c-46.497,57.749-85.569,119.108-120.581,184.344l-7.193,0.577
		c-23.985-1.627-48.979-0.348-73.072-0.406c0.461-2.134,0.896-4.275,1.444-6.392c39.832-154.361,137.938-273.722,254.506-377.602
		c34.415-30.671,70.104-62.422,109.918-85.975c-11.55,33.074-20.071,67.27-28.351,101.282
		c18.058-27.65,28.966-75.371,38.806-107.383C4037.063,3233.187,4093.604,3211.675,4142.234,3194.567z"/>
	<path style="fill:#071860;" d="M3691.307,3738.99c4.761-47.343,77.928-128.691,101.967-171.158
		c10.442-18.448,17.465-43.421,23.719-63.895c-0.971,15-6.18,30.792-9.264,45.596c-0.905,2.308-0.926,4.482-1.146,6.935
		c7.043-3.009,11.713-14.792,18.021-20.308l1.237,2.333l-4.728,3.785l2.358,3.881l-4.391,7.911
		c-46.497,57.749-85.569,119.108-120.581,184.344L3691.307,3738.99z"/>
	<path style="fill:#FAD562;" d="M907.654,1619.532c-1.602-4.885-1.17-10.886-0.739-15.996
		c3.993-47.273,17.693-92.334,55.872-123.117c1.895-1.527,3.828-3.006,5.798-4.437c1.967-1.433,3.969-2.817,6.006-4.15
		c2.036-1.334,4.103-2.618,6.201-3.852c2.1-1.231,4.228-2.413,6.383-3.544c2.155-1.129,4.339-2.204,6.549-3.225
		c2.208-1.024,4.44-1.994,6.695-2.909c2.258-0.913,4.535-1.771,6.832-2.573c2.299-0.802,4.615-1.55,6.948-2.241
		c2.335-0.689,4.686-1.321,7.052-1.897c2.366-0.575,4.744-1.093,7.135-1.552c2.391-0.459,4.791-0.86,7.201-1.204
		c2.41-0.34,4.827-0.622,7.251-0.847c2.424-0.224,4.852-0.39,7.284-0.498c2.432-0.105,4.864-0.151,7.296-0.137
		c2.435,0.014,4.867,0.086,7.296,0.216c2.432,0.133,4.859,0.324,7.28,0.573c44.393,4.835,78.667,25.542,106.125,60.085
		c38.902-15.568,88.943-34.963,131.397-29.044c-11.646,7.018-52.17,9.538-68.838,13.945c-19.233,5.08-37.308,12.128-55.594,19.897
		c3.806,7.039,7.35,14.115,10.708,21.375l-0.208,1.801c-1.602,14.9-0.527,29.883-2.108,44.808
		c-4.15,39.121-24.392,78.368-55.071,103.299c-29.198,23.728-68.403,33.419-105.52,29.376c-37.839-4.113-70.47-21.138-94.301-50.867
		c-9.716-12.127-19.399-39.603-27.181-46.663C908.114,1618.233,909.222,1616.968,907.654,1619.532z"/>
	<path style="fill:#FB8C99;" d="M2367.159,861.232c40.018,3.507,110.595,25.645,152.17,36.403
		c26.401,6.832,53.735,11.492,79.804,19.2c12.476,3.685,22.661,9.26,28.596,21.462c3.171,6.52,3.03,13.572,1.98,20.594
		c-4.134,27.629-16.045,55.706-23.147,82.875c-6.466,24.724-10.135,50.456-18.025,74.786c-5.686,17.535-9.678,25.267-26.151,33.581
		c-27.874,4.383-138.677-16.817-167.56-26.558c-27.393-9.239-36.461-23.508-48.875-48.074c-8.591-4.217-17.174-8.483-25.313-13.53
		c-8.674-5.383-18.374-13.07-20.084-23.807c-2.391-15.041,37.113-155.021,46.281-166.758
		C2352.553,864.083,2358.592,863.054,2367.159,861.232z"/>
	<path style="fill:#FEFEFE;" d="M2387.085,949.647c8.512,0.905,47.933,52.116,58.118,62.741
		c38.719-18.237,77.716-36.893,117.908-51.689l2.693,1.565c1.125,5.645,1.698,10.654,1.855,16.406
		c-3.238,5.84-11.621,8.122-17.589,10.658c-37.766,17.863-75.631,35.509-113.596,52.938c-22.7-27.572-45.113-55.374-67.24-83.406
		L2387.085,949.647z"/>
	<path style="fill:#EF6263;" d="M1022.557,3548.04l30.912,36.009c17.884,18.378,34.353,37.901,51.996,56.445
		c-13.215,11.185-34.357,24.823-43.957,38.885c9.857,9.396,28.737,22.229,29.298,36.623c0.095,2.457-0.461,5.271-0.805,7.662
		c-4.204,10.878-5.914,24.545-7.388,36.117c-8.745,68.68,33.705,88.52,48.336,144.886c5.657,21.806,1.448,41.865,1.386,63.816
		c-8.67,12.385-17.349,24.388-27.268,35.81c-30.327-21.719-62.355-59.255-89.312-86.025
		c-73.2-72.694-144.745-147.272-219.186-218.667c9.485-11.361,20.082-21.567,31.792-30.617
		c44.123-28.306,88.25-53.573,135.647-76.023l9.5,4.653c3.719-1.971,2.984-1.336,5.699-3.47
		C991.799,3584.239,1020.893,3564.608,1022.557,3548.04z"/>
	<path style="fill:#BC2243;" d="M1048.086,3688.625c4.611-2.777,8.998-6.163,13.422-9.247c9.857,9.396,28.737,22.229,29.298,36.623
		c0.095,2.457-0.461,5.271-0.805,7.662C1068.153,3717.824,1059.346,3707.215,1048.086,3688.625z"/>
	<path style="fill:#F7BF98;" d="M1022.557,3548.04l30.912,36.009c17.884,18.378,34.353,37.901,51.996,56.445
		c-13.215,11.185-34.357,24.823-43.957,38.885c-4.424,3.084-8.811,6.47-13.422,9.247c-10.924,0.988-21.955-0.896-31.294-6.898
		c-16.307-10.48-20.793-29.572-24.915-47.119c-4.59-12.879-14.003-23.703-18.37-36.997c3.719-1.971,2.984-1.336,5.699-3.47
		C991.799,3584.239,1020.893,3564.608,1022.557,3548.04z"/>
	<path style="fill:#F6AC8C;" d="M1022.557,3548.04l30.912,36.009c-15.606,12.501-50.095,36.685-61.592,50.56
		c-4.59-12.879-14.003-23.703-18.37-36.997c3.719-1.971,2.984-1.336,5.699-3.47
		C991.799,3584.239,1020.893,3564.608,1022.557,3548.04z"/>
	<path style="fill:#BC2243;" d="M828.36,3668.982c44.123-28.306,88.25-53.573,135.647-76.023
		c0.847,38.159-1.897,164.036-15.024,197.75c-24.722-25.279-49.312-50.683-73.769-76.213
		c-13.559-14.074-27.023-30.393-42.612-42.143L828.36,3668.982z"/>
	<path style="fill:#FEFEFE;" d="M832.602,3672.352c15.589,11.75,29.053,28.069,42.612,42.143
		c24.46,25.531,49.049,50.935,73.769,76.213c53.071,55.943,118.909,125.931,178.28,174.204
		c-7.205,10.359-15.108,19.66-23.425,29.123c-67.464-63.862-132.123-131.106-197.998-196.633
		c-32.464-32.294-71.225-63.24-99.103-99.348L832.602,3672.352z"/>
	<path style="fill:#071860;" d="M1821.81,1105.768c11.874-10.982,25.284-21.545,40.371-27.621
		c13.601-5.474,29.152-7.006,42.857-0.988c18.876,8.293,26.479,24.247,33.452,42.313c19.561-13.846,39.736-28.152,63.634-33.236
		c15.593-3.316,33.05-2.415,46.563,6.827c17.295,11.833,20.233,30.061,23.753,49.099c4.719,1.328,9.733,2.594,14.149,4.752
		c9.197,4.495,17.216,16.058,20.084,25.691c3.241,10.87-0.042,21.748-5.902,31.074c-18.299,29.115-51.635,39.088-83.244,45.542
		c-50.34-5.628-75.902-24.334-110.612-59.965c-0.785,32.153-14.746,111.828-37.001,134.506c-3.27,3.333-3.511,3.561-8.33,4.034
		c-5.586-4.184-9.695-8.45-14.165-13.8c-8.039,7.458-9.571,14.037-9.986,24.819c-0.548,14.281,2.013,28.907,4.391,42.94
		l-16.905,2.386l3.74,2.826c-0.195,14.174-12.152,27.193-21.835,36.474c-18.253,17.498-38.868,17.208-62.658,16.568
		c-22.964-6.537-42.305-20.291-58.462-37.569c-31.111-33.261-56.13-86.179-53.893-132.476c1.004-20.793,8.355-35.722,23.35-49.821
		c-0.095-20.943,0.515-43.807,16.589-59.571c12.227-11.995,26.749-13.46,43.077-13.049c2.523-7.242,5.105-14.589,8.62-21.42
		c7.521-14.589,20.723-27.027,36.573-31.858C1782.365,1087.432,1802.465,1094.898,1821.81,1105.768z"/>
	<path style="fill:#F6AC8C;" d="M1788.769,1319.63c2.615-4.391,5.13-8.388,8.724-12.057c5.756-5.885,13.211-10.102,21.636-9.986
		c12.435,0.174,20.005,8.193,28.289,16.411c-8.039,7.458-9.571,14.037-9.986,24.819c-0.548,14.281,2.013,28.907,4.391,42.94
		l-16.905,2.386c-10.974-2.017-20.685-7.529-27.579-16.452C1786.224,1353.293,1786.644,1336.609,1788.769,1319.63z"/>
	<path style="fill:#CF8425;" d="M1592.692,1605.608c0.631,1.751,1.648,3.403,1.893,5.246c0.083,0.627-31.688,98.377-35.37,114.331
		c-19.167,82.995-22.263,168.78-24.741,253.618c-0.515,17.627,0.826,95.766-3.299,104.474c-0.253,0.54-0.701,0.967-1.054,1.448
		c-36.54,40.844-75.139,79.845-113.106,119.353c-20.856,21.702-41.881,47.202-65.261,66.029c-5.18,4.175-10.351,8.471-17.353,8.732
		c-7.67,0.29-16.535-1.357-23.823-3.81c-25.367-14.29-40.641-24.006-57.969-48.647c-8.06-18.42-9.695-36.673-8.342-56.5
		c3.524-51.651,30.231-99.41,52.673-145.048C1369.347,1877.587,1467.392,1714.087,1592.692,1605.608z"/>
	<path style="fill:#F6AC8C;" d="M4048.327,2546.978c-30.402-9.703-58.143-32.647-78.044-57.08c-1.851-2.26-3.644-4.565-5.379-6.915
		c-1.738-2.352-3.415-4.745-5.03-7.18c-1.616-2.432-3.17-4.905-4.661-7.417c-1.491-2.512-2.919-5.061-4.283-7.645
		c-1.364-2.584-2.663-5.2-3.897-7.848s-2.401-5.326-3.499-8.035c-1.099-2.706-2.129-5.438-3.092-8.197
		c-0.96-2.759-1.852-5.539-2.677-8.342c-0.822-2.803-1.574-5.625-2.258-8.467c-0.681-2.842-1.289-5.698-1.826-8.571
		c-0.54-2.872-1.006-5.755-1.399-8.649c-0.396-2.894-0.718-5.797-0.967-8.708c-0.246-2.914-0.42-5.83-0.523-8.749
		c-0.102-2.919-0.133-5.84-0.091-8.761c0.044-2.922,0.161-5.84,0.353-8.753c0.191-2.917,0.454-5.826,0.789-8.729
		c5.873-53.806,31.406-97.75,73.532-131.393c2.26-1.804,4.564-3.553,6.91-5.246c2.346-1.691,4.732-3.323,7.159-4.897
		c2.427-1.572,4.892-3.082,7.396-4.532c2.501-1.452,5.037-2.84,7.608-4.163c2.57-1.325,5.173-2.585,7.807-3.781
		c2.634-1.198,5.296-2.328,7.985-3.391c2.69-1.065,5.404-2.063,8.143-2.992c2.739-0.927,5.499-1.788,8.28-2.582
		c2.784-0.791,5.584-1.515,8.4-2.171c2.817-0.653,5.648-1.235,8.496-1.747c2.847-0.515,5.704-0.957,8.571-1.328
		c2.869-0.371,5.745-0.671,8.629-0.901c2.883-0.229,5.771-0.387,8.662-0.473c2.892-0.086,5.783-0.1,8.675-0.042
		c2.891,0.058,5.78,0.187,8.666,0.386c2.886,0.202,5.765,0.475,8.637,0.818c39.611,0.544,82.535,26.907,109.379,54.827
		c35.291,36.706,52.689,85.647,51.623,136.224c-1.038,49.302-20.76,93.156-56.512,126.923
		c-36.038,34.033-83.751,51.295-133.14,49.751C4086.557,2557.591,4067.332,2553.719,4048.327,2546.978z"/>
	<path style="fill:#071860;" d="M4155.565,2242.805l6.479-0.071c8.803-0.323,22.06-2.411,29.451,3.15
		c2.055,1.544,2.64,2.548,4.08,4.449c-1.22,4.441-0.045,3.561-3.611,5.624c-8.172,4.723-16.884,2.905-25.844,2.013l-1.494-0.843
		c-23.496-1.78-110.525,3.914-125.74-5.196l-0.353-3.507C4051.922,2237.641,4133.987,2242.738,4155.565,2242.805z"/>
	<path style="fill:#071860;" d="M4168.556,2479.103c10.131-0.154,34.278-3.237,41.957,2.42l0.257,6.097
		c-13.223,11.181-67.651,3.681-87.017,4.487c-30.036-1.864-60.455,1.386-90.499-1.212c-3.075-4.482-2.42-3.241-1.723-7.977
		C4042.417,2475.845,4147.783,2479.219,4168.556,2479.103z"/>
	<path style="fill:#071860;" d="M4193.84,2362.734c18.834-0.564,44.708-4.229,62.451,1.582c2.54,4.084,2.594,4.258,2.2,9.048
		c-8.816,7.716-75.517,1.747-91.139,2.411c-51.888-0.764-103.773-0.653-155.656,0.332c-10.94,0.303-23.666,2.088-32.037-5.885
		l0.299-4.719C3990.463,2359.576,4165.468,2362.792,4193.84,2362.734z"/>
	<path style="fill:#071860;" d="M4187.623,2300.922c18.834-0.527,41.886-3.619,59.023,5.188l1.17,3.155
		c-13.833,9.683-40.869,6.487-57.271,6.192c-25.596-0.067-190.424,2.585-203.647-2.868l-1.469-4.113l2.025-4.246
		C3995.875,2299.324,4162.874,2301.097,4187.623,2300.922z"/>
	<path style="fill:#071860;" d="M4189.739,2422.894c15.747-0.523,50.349-5.134,63.302,3.885c0.614,0.427,1.009,1.112,1.515,1.668
		c-2.37,4.578-4.661,5.524-9.459,6.973c-26.894,8.106-84.282,0.237-115.576,1.009c-30.327-0.175-123.271,4.665-143.799-6.5
		l0.336-4.271l-2.071,2.054l0.834,1.324l3.511-4.142c22.615-4.292,48.887-1.905,71.906-1.88L4189.739,2422.894z"/>
	<path style="fill:#EF6263;" d="M4135.398,2190.497c39.611,0.544,82.535,26.907,109.379,54.827
		c35.291,36.706,52.689,85.647,51.623,136.224c-1.038,49.302-20.76,93.156-56.512,126.923
		c-36.038,34.033-83.751,51.295-133.14,49.751c-20.192-0.631-39.417-4.503-58.421-11.244c46.671-14.858,67.02-14.725,102.51-52.801
		c-9.181-0.145-17.984-0.826-27.085-2.071c19.366-0.805,73.794,6.695,87.017-4.487l-0.257-6.097
		c-7.678-5.657-31.825-2.573-41.957-2.42c2.735-13.622,10.688-27.741,15.875-40.807c-13.028,0.054-44.256,3.86-54.91-1.867
		c31.294-0.772,88.682,7.097,115.576-1.009c4.798-1.448,7.089-2.395,9.459-6.973c-0.506-0.556-0.901-1.241-1.515-1.668
		c-12.953-9.019-47.555-4.408-63.302-3.885c2.196-15.033,3.196-29.459,3.312-44.65c-8.691-0.27-17.095-1.307-25.699-2.469
		c15.622-0.664,82.323,5.304,91.139-2.411c0.394-4.789,0.34-4.964-2.2-9.048c-17.743-5.811-43.617-2.146-62.451-1.582
		c-0.104-15.39,0.813-32.406-3.295-47.277c16.402,0.294,43.438,3.49,57.271-6.192l-1.17-3.155
		c-17.137-8.807-40.188-5.715-59.023-5.188c-3.283-19.029-9.334-28.214-21.503-42.952c8.96,0.892,17.672,2.71,25.844-2.013
		c3.565-2.063,2.391-1.183,3.611-5.624c-1.44-1.901-2.025-2.906-4.08-4.449c-7.392-5.562-20.648-3.474-29.451-3.15l-6.479,0.071
		c-12.592-17.93-25.018-35.054-40.678-50.477C4121.158,2190.493,4128.824,2190.825,4135.398,2190.497z"/>
	<path style="fill:#FAD562;" d="M3510.383,3736.978l8.114,1.735l35.191-0.851l12.704,0.594c17.266,0.174,34.581,0.639,51.843,0.129
		c24.093,0.058,49.086-1.22,73.072,0.406l7.193-0.577c50.705,1.926,102.158,0.154,152.942,0.154
		c18.129,0.042,87.258-3.279,97.812,7.338c12.219,12.285,11.393,123.034,6.724,142.603c-1.199,5.035-1.864,8.836-6.387,11.962
		c-7.84,5.408-23.512,2.382-32.614,2.345c-3.848-0.017-2.573-0.008-6.628,1.996l-13.36,52.702
		c-91.01,1.162-182.021,1.403-273.033,0.722c-52.735-0.129-105.765,1.121-158.453-0.336c-3.366-12.032-5.342-23.74-7.019-36.108
		c-0.398-3.731-0.469-8.429-1.619-11.966c-1.61-4.951-3.939-5.271-8.288-7.325c-4.86,0.639-12.219,2.337-16.925,1.453
		c-5.923-1.112-7.766-4.321-11.21-8.691c3.764-31.833,3.37-121.627-0.295-151.751c16.822-9.081,52.93-4.956,71.955-5.412
		l10.177,0.353L3510.383,3736.978z"/>
	<path style="fill:#CF8425;" d="M3458.482,3921.79c-0.191-6.284-0.473-11.949,1.112-18.108
		c22.973-4.603,117.402-1.727,146.712-1.868l193.184-0.324c33.51-0.054,68.125-2.025,101.498,0.324
		c3.98,0.282,6.026,0.838,9.359,2.997l-13.36,52.702c-91.01,1.162-182.021,1.403-273.033,0.722
		c-52.735-0.129-105.765,1.121-158.453-0.336C3462.135,3945.867,3460.159,3934.158,3458.482,3921.79z"/>
	<path style="fill:#89D9F4;" d="M3048.702,825.688c45.405-13.638,40.412-28.281,63.92-62.053c0.423-0.609,0.863-1.208,1.291-1.812
		l1.714,1.762c42.873,43.493,157.146,132.12,181.617,175.081c8.301,14.58,10.949,29.7,10.899,46.285
		c-0.146,47.796-16.498,108.425-51.847,142.499c-16.166,15.581-38.458,30.161-59.483,38.009
		c-13.887,3.461-35.225,5.105-43.305,17.71l-0.208,6.798c-16.647,4.221-34-14.091-48.68-8.023c-5.35-2.27-10.247-4.101-15.979-5.3
		l-2.694,3.117c-0.722-1.706-1.229-6.533-1.556-8.438c-9.766-9.915-26.658-15.593-39.263-21.2c-6.633,2.772-13.29,5.665-20.067,8.06
		c-14.667,5.18-32.198,7.068-46.484-0.361c-7.728-4.018-13.476-10.675-16.058-19.017c-5.98-19.333,4.507-36.258,13.422-52.531
		c-3.644-15.581-7.612-30.153-14.501-44.646c-19.299-9.907-43.567-20.959-53.399-41.724c-18.677-39.441,46.824-53.694,59.882-78.218
		c12.8-24.043-19.424-63.974-7.4-95.828c2.499-6.62,6.852-11.165,13.53-13.721C2998.752,802.674,3026.253,815.905,3048.702,825.688z
		"/>
	<path style="fill:#FEFEFE;" d="M3133.997,869.711c27.04-1.328,54.35,3.806,76.566,20.117
		c27.003,19.831,44.916,52.926,49.651,85.813c0.285,1.92,0.52,3.846,0.706,5.777c0.188,1.934,0.328,3.871,0.419,5.811
		c0.088,1.937,0.13,3.876,0.125,5.819c-0.009,1.942-0.064,3.882-0.166,5.819c-0.105,1.94-0.258,3.875-0.46,5.806
		c-0.199,1.929-0.448,3.853-0.747,5.773c-0.296,1.917-0.641,3.827-1.033,5.728c-0.393,1.901-0.834,3.791-1.324,5.669
		c-0.487,1.879-1.021,3.745-1.602,5.599c-0.581,1.851-1.209,3.687-1.884,5.508c-0.672,1.821-1.39,3.623-2.154,5.408
		c-0.763,1.785-1.572,3.55-2.424,5.296c-0.852,1.743-1.747,3.464-2.685,5.163c-0.938,1.699-1.917,3.374-2.939,5.026
		c-1.024,1.649-2.087,3.272-3.191,4.868c-1.104,1.599-2.247,3.168-3.428,4.707c-21.931,28.986-48.996,42.961-84.709,48.19
		c-31.086,0.656-59.687-4.968-85.108-24.06c-1.633-1.234-3.233-2.507-4.802-3.818c-1.572-1.312-3.109-2.662-4.611-4.051
		c-1.503-1.389-2.97-2.814-4.404-4.275c-1.43-1.458-2.825-2.952-4.184-4.482c-1.358-1.53-2.678-3.093-3.959-4.69
		c-1.284-1.594-2.525-3.219-3.723-4.877c-1.201-1.657-2.36-3.343-3.478-5.055s-2.193-3.453-3.225-5.221
		c-1.032-1.765-2.02-3.557-2.963-5.375c-0.941-1.815-1.837-3.652-2.69-5.512c-0.852-1.862-1.659-3.742-2.419-5.64
		c-0.758-1.901-1.47-3.818-2.134-5.752c-0.664-1.937-1.28-3.888-1.847-5.852c-0.567-1.965-1.086-3.943-1.556-5.935
		c-0.47-1.992-0.891-3.994-1.261-6.006c-0.371-2.012-0.692-4.031-0.963-6.06c-3.98-31.103,3.818-63.372,23.255-88.175
		C3065.839,887.171,3097.307,873.558,3133.997,869.711z"/>
	<path style="fill:#235AA9;" d="M3129.054,912.825c17.531-0.901,32.448-0.407,48.659,7.566c1.198,0.603,2.381,1.235,3.548,1.897
		c1.168,0.664,2.317,1.356,3.449,2.075c1.135,0.719,2.248,1.468,3.341,2.245c1.096,0.775,2.171,1.577,3.225,2.407
		c1.054,0.83,2.088,1.686,3.1,2.569c1.01,0.883,1.998,1.79,2.963,2.723c0.968,0.933,1.91,1.889,2.826,2.868
		c0.919,0.979,1.811,1.981,2.677,3.005c0.869,1.024,1.71,2.068,2.523,3.134c0.816,1.068,1.603,2.155,2.362,3.262
		c0.761,1.104,1.493,2.229,2.195,3.374c0.706,1.143,1.381,2.302,2.026,3.478c0.645,1.176,1.259,2.368,1.843,3.578
		c0.586,1.206,1.142,2.428,1.664,3.665c0.523,1.237,1.016,2.485,1.478,3.744c0.462,1.262,0.891,2.533,1.287,3.814
		c0.41,1.3,0.784,2.611,1.125,3.93c0.343,1.32,0.651,2.648,0.926,3.984c0.274,1.334,0.514,2.676,0.722,4.026
		c0.208,1.348,0.381,2.699,0.519,4.055c0.136,1.356,0.238,2.714,0.307,4.076c0.069,1.361,0.105,2.724,0.108,4.088
		c0,1.364-0.035,2.727-0.104,4.088c-0.069,1.361-0.173,2.72-0.311,4.076c-0.138,1.356-0.31,2.709-0.514,4.059
		c-0.208,1.347-0.448,2.688-0.722,4.022c-0.274,1.336-0.583,2.664-0.926,3.984c-0.34,1.32-0.715,2.63-1.125,3.93
		c-0.407,1.3-0.846,2.591-1.32,3.872c-0.473,1.278-0.979,2.543-1.519,3.794c-0.537,1.253-1.105,2.493-1.706,3.719
		c-0.601,1.223-1.231,2.431-1.893,3.623c-12.007,21.495-31.472,33.199-54.669,39.308c-19.768,2.137-38.682,0.701-56.292-9.318
		c-18.814-10.704-33.012-29.937-38.271-50.871c-0.326-1.298-0.62-2.604-0.88-3.918c-0.26-1.311-0.487-2.63-0.681-3.955
		c-0.196-1.323-0.358-2.651-0.486-3.984c-0.127-1.331-0.221-2.664-0.282-4.001c-0.061-1.336-0.088-2.674-0.083-4.013
		c0.006-1.339,0.044-2.677,0.116-4.013c0.072-1.337,0.178-2.67,0.32-4.001c0.138-1.331,0.311-2.658,0.519-3.98
		c0.205-1.323,0.443-2.638,0.714-3.947c0.274-1.312,0.578-2.615,0.913-3.91c0.338-1.295,0.707-2.58,1.108-3.856
		c0.401-1.278,0.834-2.544,1.299-3.798c0.465-1.256,0.962-2.5,1.49-3.731c0.526-1.229,1.083-2.445,1.673-3.648
		c0.586-1.201,1.204-2.388,1.851-3.561c0.647-1.17,1.324-2.324,2.03-3.461C3085.703,927.459,3105.197,918.063,3129.054,912.825z"/>
	<path style="fill:#0D9074;" d="M4002.52,2835.194c-18.648,67.51-43.737,134.531-67.519,200.401
		c-11.505-0.577-22.769-0.058-34.257,0.535c10.073,2.847,20.271,5.321,30.406,7.936c-18.793,45.086-36.719,92.417-59.305,135.659
		c-28.961,10.916-60.454,19.067-88.308,32.245c-3.574,1.689-6.67,3.25-8.048,7.055c30.97-10.882,62.492-19.577,92.965-31.937
		c-31.589,81.584-74.686,160.097-114.073,238.108c-16.344,32.373-29.634,69.905-52.461,98.331
		c-28.513,35.506-68.274,52.353-112.28,58.122l-0.519,1.59c-4.026,0.27-6.653-0.232-10.559-1.046l-0.718,0.602
		c-3.416-5.454-8.683-6.815-14.107-9.749c-25.434-13.759-36.303-37.038-44.127-63.787c-21.736-74.325,4.221-170.349,40.068-236.269
		c4.125,43.642,10.907,103.544,24.292,144.944c-4.553-46.75-18.718-95.376-18.892-142.047
		c-0.158-41.441,102.884-183.389,132.667-211.948c-0.909,24.425-2.528,47.921,2.316,72.097c3.026-25.388,2.059-52.328,3.076-77.978
		c18.706-26.674,47.738-50.834,71.603-73.101c-4.628,16.436-8.919,32.751-12.323,49.489c8.027-16.934,13.725-34.457,16.597-52.98
		C3842.439,2918.849,3921.23,2870.788,4002.52,2835.194z"/>
	<path style="fill:#071860;" d="M3738.086,3168.304c27.886-57.093,166.625-241.469,213.18-279.694l3.47,0.365l-2.561-1.067
		l1.756-1.436l1.855,1.287c-15.912,29.314-42.222,54.922-63.546,80.505c-25.363,30.423-49.962,62.667-73.528,94.542
		c-18.198,25.043-35.569,50.647-52.112,76.811c-9.338,14.913-17.722,31.473-28.476,45.347c-21.134,44.807-44.7,88.299-65.17,133.489
		c-28.422,62.758-50.216,127.085-68.332,193.5c-5.806,21.279-15.244,47.846-14.983,69.698l-0.519,1.59
		c-4.026,0.27-6.653-0.232-10.559-1.046c1.452-25.11,9.189-50.531,15.825-74.699c25.052-91.255,59.11-176.931,101.643-261.433
		C3709.191,3219.918,3722.277,3192.974,3738.086,3168.304z"/>
	<path style="fill:#253564;" d="M933.768,2252.367c44.397,22.084,86.714,50.037,129.924,74.524
		c6.699-12.177,15.796-33.796,30.53-37.831c18.029-4.939,43.754,14.929,58.977,23.74c35.407,24.525,75.707,42.691,111.828,66.688
		c15.12,7.595,36.009,15.103,45.579,29.426c4.159,16.025-12.974,41.724-20.42,55.744c22.138,13.049,92.421,51.108,108.831,67.556
		l0.685,4.528c-11.148,32.377-45.837,88.324-63.128,120.772c-28.997,54.636-58.4,109.053-88.208,163.251
		c-16.631,30.543-32.402,62.044-50.83,91.533c-26.247-12.427-50.938-29.165-75.624-44.459
		c-38.585-24.1-77.322-47.951-116.211-71.553L814.598,2679.82c-36.777-22.317-80.068-43.372-112.143-71.727
		c52.101-82.941,105.023-165.356,158.768-247.243C884.781,2324.87,905.765,2284.977,933.768,2252.367z"/>
	<path style="fill:#89D9F4;" d="M871.67,2355.048c15.659-29.472,42.326-71.64,63.505-97.156
		c19.183,9.567,37.287,21.923,55.702,32.896c23.587,14.053,48.149,27.056,70.918,42.367c-38.719-2.665-42.537-42.471-113.841-35.477
		c-13.094,1.286-26.957,2.747-39.341,7.313C899.482,2319.354,886.271,2346.929,871.67,2355.048z"/>
	<path style="fill:#FEFEFE;" d="M1086.216,2341.978c5.748-10.235,11.198-30.883,21.761-36.104
		c24.089,10.077,47.157,25.666,69.685,38.935c36.972,22.21,74.383,43.651,112.235,64.323c-6.184,10.364-16.203,34.631-25.243,41.072
		c-16.626-13.887-39.163-24.894-57.939-36.034C1166.451,2390.276,1125.823,2366.951,1086.216,2341.978z"/>
	
		<linearGradient id="SVGID_00000163766656967602167350000015143042081043269793_" gradientUnits="userSpaceOnUse" x1="1440.7096" y1="2972.7441" x2="1441.063" y2="2848.5229" gradientTransform="matrix(4.8828 0 0 -4.8828 -5983.4678 16809.6836)">
		<stop  offset="0" style="stop-color:#84D6EF"/>
		<stop  offset="1" style="stop-color:#C3ECFA"/>
	</linearGradient>
	<path style="fill:url(#SVGID_00000163766656967602167350000015143042081043269793_);" d="M908.612,2304.99
		c12.385-4.566,26.247-6.027,39.341-7.313c71.304-6.994,75.122,32.813,113.841,35.477c50.552,26.201,99.173,59.301,148.21,88.474
		c17.394,10.351,35.478,22.632,53.922,30.937c30.85,21.416,114.505,62.414,133.642,83.394
		c-20.839,42.894-45.148,84.66-67.523,126.811c-43.592,82.124-87.254,164.642-133.365,245.383
		c-21.482-10.106-41.965-24.404-62.102-36.98c-35.448-22.138-70.743-44.583-106.478-66.249
		c-68.457-40.895-136.625-82.265-204.506-124.109c-39.197-23.948-79.103-47.202-117.128-72.956
		c44.334-58.52,81.843-123.91,121.216-185.946c14.207-22.383,28.015-45.7,43.986-66.867
		C886.271,2346.929,899.482,2319.354,908.612,2304.99z"/>
	
		<linearGradient id="SVGID_00000002384660827439691500000001187030438497935265_" gradientUnits="userSpaceOnUse" x1="1453.9574" y1="2867.9836" x2="1548.151" y2="2767.5093" gradientTransform="matrix(4.8828 0 0 -4.8828 -5983.4678 16809.6836)">
		<stop  offset="0" style="stop-color:#081738"/>
		<stop  offset="1" style="stop-color:#20315C"/>
	</linearGradient>
	<path style="fill:url(#SVGID_00000002384660827439691500000001187030438497935265_);" d="M1496.859,2439.317
		c38.781,24.927,75.064,42.496,119.722,54.852c4.773,33.203,27.368,71.897,41.595,102.278
		c13.937,29.759,121.913,247.089,120.627,258.86c-33.112,117.601-76.255,306.415-152.996,399.687
		c-25.749,31.298-61.87,55.985-93.114,81.684c-54.773,45.052-109.143,90.416-166.198,132.58
		c-54.81,41.045-110.129,81.391-165.957,121.038c-23.811,16.913-47.958,36.665-73.537,50.651c-6.051,3.308-8.571,4.86-15.385,2.403
		c-1.764-0.635-4.399-1.988-6.151-2.855c-17.643-18.544-34.112-38.067-51.996-56.445l-30.912-36.009
		c38.773-50.12,80.426-98.373,120.959-147.09l176.412-213.002c22.773-27.442,78.251-83.149,91.869-109.301
		c10.974-21.088,24.628-161.147,28.733-192.914L1496.859,2439.317z"/>
	<path style="fill:#EF6263;" d="M3645.632,1472.318c-9.712-6.325-18.698-16.228-26.836-24.458c-1.931-1.97-3.838-3.965-5.719-5.985
		c-1.884-2.017-3.742-4.058-5.574-6.122s-3.637-4.15-5.416-6.259c-1.779-2.111-3.532-4.243-5.259-6.396
		c-1.727-2.153-3.427-4.326-5.101-6.52c-1.671-2.194-3.316-4.409-4.935-6.645c-1.618-2.236-3.208-4.492-4.769-6.769
		c-1.563-2.275-3.097-4.568-4.603-6.881c-1.505-2.313-2.981-4.644-4.428-6.993c-1.447-2.349-2.864-4.716-4.25-7.101
		c-1.389-2.385-2.748-4.788-4.076-7.209c-1.328-2.418-2.627-4.853-3.897-7.305c-1.267-2.452-2.504-4.917-3.71-7.396
		c-1.206-2.482-2.382-4.979-3.528-7.491c-1.146-2.51-2.259-5.034-3.341-7.574c-1.082-2.537-2.133-5.088-3.154-7.653
		c-1.019-2.565-2.005-5.142-2.959-7.732c-0.954-2.59-1.877-5.191-2.768-7.803c-0.891-2.612-1.749-5.235-2.573-7.869
		c-0.824-2.631-1.617-5.274-2.378-7.927c-0.758-2.654-1.485-5.315-2.179-7.985c-0.695-2.673-1.355-5.353-1.98-8.039
		c-0.628-2.687-1.222-5.382-1.781-8.085c-0.562-2.703-1.089-5.412-1.581-8.126c-0.493-2.714-0.952-5.436-1.378-8.164
		c-0.423-2.725-0.815-5.456-1.175-8.193c-0.357-2.737-0.679-5.477-0.967-8.222c-0.291-2.745-0.546-5.492-0.768-8.243
		c-0.221-2.75-0.408-5.503-0.56-8.259c-0.152-2.756-0.271-5.513-0.357-8.272c-0.083-2.759-0.133-5.517-0.149-8.276
		c-0.017-2.761,0.001-5.521,0.054-8.28c0.061-2.897,0.156-5.793,0.286-8.687c0.13-2.897,0.295-5.791,0.494-8.682
		c0.199-2.892,0.434-5.779,0.706-8.662c0.268-2.886,0.573-5.768,0.913-8.645c0.34-2.878,0.715-5.751,1.125-8.62
		c0.407-2.869,0.85-5.733,1.328-8.591c0.479-2.858,0.992-5.711,1.54-8.558c0.548-2.844,1.129-5.683,1.743-8.517
		c0.617-2.831,1.267-5.654,1.951-8.471c0.684-2.817,1.401-5.624,2.154-8.421c0.753-2.8,1.539-5.589,2.358-8.367
		c0.821-2.781,1.675-5.55,2.56-8.309c0.885-2.759,1.805-5.506,2.76-8.243c0.952-2.739,1.937-5.465,2.955-8.176
		c1.021-2.714,2.073-5.415,3.158-8.102c1.082-2.687,2.198-5.361,3.349-8.023c1.149-2.659,2.329-5.304,3.541-7.935
		c1.215-2.634,2.46-5.252,3.735-7.853c1.276-2.601,2.583-5.187,3.922-7.757c1.339-2.571,2.709-5.124,4.109-7.662
		s2.831-5.058,4.292-7.562c1.461-2.501,2.952-4.985,4.474-7.45c1.522-2.468,3.073-4.917,4.653-7.346
		c1.583-2.426,3.193-4.835,4.831-7.226c1.638-2.391,3.307-4.76,5.005-7.11c1.696-2.349,3.42-4.679,5.171-6.989
		c1.754-2.308,3.535-4.593,5.342-6.856c1.807-2.266,3.641-4.509,5.503-6.728c1.862-2.222,3.752-4.42,5.669-6.595
		c1.915-2.175,3.856-4.326,5.823-6.454c1.968-2.128,3.959-4.232,5.977-6.313c2.02-2.078,4.063-4.132,6.13-6.163
		c65.589-63.443,157.296-102.182,248.907-100.639c75.08,1.266,171.261,32.962,224.42,87.822c-0.042,0.955-0.137,1.905-0.125,2.86
		c0.096,8.085,29.804,54.241,35.419,66.344c54.291,116.991,30.277,258.893-51.602,357.361
		c-62.156,74.757-156.088,117.73-252.09,125.657c-44.177,3.652-95.322,1.706-138.188-10.276
		C3680.275,1483.229,3663.856,1474.497,3645.632,1472.318z"/>
	<path style="fill:#FEFEFE;" d="M4085.494,1082.19c2.644,0.249,5.288,1.141,7.857,1.801c4.428,4.204,5.491,4.528,6.562,10.43
		c-2.586,6.744-9.608,11.289-15.216,15.56c-56.316,42.869-117.257,81.256-175.657,121.361
		c-37.416,25.691-74.184,55.478-113.094,78.434c-28.027-20.354-73.848-81.991-101.336-110.923
		c-3.723-4.047-9.168-9.699-11.509-14.634c-2.59-5.458-1.395-7.404,0.382-12.717c2.598-1.805,3.3-3.154,6.686-2.806
		c20.877,2.142,90.429,89.412,109.45,111.035c49.946-43.123,108.283-77.762,162.853-114.8
		C4003.096,1137.361,4042.865,1106.47,4085.494,1082.19z"/>
	<path style="fill:#253564;" d="M1616.582,2494.169c21.361,6.159,42.966,11.281,64.817,15.365
		c118.672,21.935,263.981,11.712,365.678-57.981c2.719,13.115,5.254,26.297,8.185,39.362
		c10.247,46.098,23.035,91.636,34.183,137.527l57.956,247.774c15.892,69.017,33.979,138.802,41.122,209.379
		c7.462,73.765,2.885,148.53-0.448,222.403c-5.592,115.48-12.8,230.86-21.624,346.138c-2.084,29.862-9.575,203.456-16.701,217.186
		c-35.403-0.785-70.909-1.071-106.242-3.507l-28.227-0.411c-13.862-66.356-24.197-133.651-34.805-200.596
		c-12.955-78.5-24.642-157.188-35.063-236.062c-9.579-73.57-22.093-149.061-24.409-223.233c-0.618-19.789,0.295-38.188,4.121-57.624
		c-50.315-95.334-95.065-194.002-141.852-291.137l-4.005-0.315l2.897-1.519l-3.362-1.61c1.287-11.771-106.69-229.101-120.627-258.86
		C1643.949,2566.066,1621.354,2527.372,1616.582,2494.169z"/>
	<path style="fill:#235AA9;" d="M3776.788,1675.496c4.69,4.972,7.164,4.532,13.846,4.827c15.697,0.693,36.312,1.602,51.548-2.241
		c-7.077,58.491-10.127,117.734-15.639,176.437l-51.004,598.486l-15.564,183.937c-2.407,28.874-2.229,60.55-7.998,88.843
		c-2.275,11.148-7.363,19.777-16.261,26.924c-8.894,7.151-20.403,13.526-32.028,14.007c-32.784,1.357-92.849-7.989-128.23-11.061
		c-82.439-7.151-166.771-11.194-248.699-22.192c-3.071-0.411-5.749-0.95-8.791-1.677c1.004-4.362,1.017-2.444,0.05-7.213
		c-0.241-1.175-0.535-2.337-0.805-3.507l4.071-4.125l124.014,11.264c1.756-34.141,5.719-68.154,7.653-102.291l4.453-2.847
		c9.712-41.014,3.072-92.122,12.767-134.045l4.744-2.494l0.108-1.801l-3.615-2.955c-4.113-15.249,9.251-149.306,11.779-174.98
		l-3.943-2.004c0.137-19.719,2.507-39.906,3.993-59.6c-64.223-4.499-128.608-10.7-192.665-17.083l-3.827-4.391
		c-15.854-2.05-31.618-3.457-47.568-4.516c6.898-77.41,13.052-154.88,18.461-232.409c35.805,1.602,71.86,6.064,107.632,8.894
		l-3.86-4.391c-33.967-4.399-68.548-6.375-102.697-9.222c3.104-32.659,16.265-140.636,12.202-166.522
		c1.586-4.329,2.544-11.65,7.388-13.016c12.252-3.453,209.13,15.589,238.755,17.992c-1.042,7.869-2.607,15.917-1.917,23.861
		l4.669,1.374c0.965-8.198,1.808-16.409,2.528-24.632c54.142,2.366,108.309,7.666,162.363,11.667
		c23.786,1.764,54.37-0.311,76.488,6.745l1.374,3.988c2.473-5.3,10.741-117.634,12.708-136.681
		C3776.51,1696.589,3776.348,1685.839,3776.788,1675.496z"/>
	<path style="fill:#FEFEFE;" d="M3270.914,1815.547c1.586-4.329,2.544-11.65,7.388-13.016
		c12.252-3.453,209.13,15.589,238.755,17.992c-1.042,7.869-2.607,15.917-1.917,23.861c-3.304,53.183-9.044,106.391-11.434,159.603
		c-46.875-4.922-95.227-11.306-142.296-12.696c-33.967-4.399-68.548-6.375-102.697-9.222
		C3261.816,1949.409,3274.977,1841.433,3270.914,1815.547z"/>
	<path style="fill:#FEFEFE;" d="M3522.336,1821.125c54.142,2.366,108.309,7.666,162.363,11.667
		c23.786,1.764,54.37-0.311,76.488,6.745l1.374,3.988c-5.566,59.969-8.786,120.191-15.232,180.081
		c-79.923-4.928-159.733-11.271-239.432-19.03c5.611-52.623,7.649-106.013,11.912-158.819
		C3520.774,1837.559,3521.617,1829.349,3522.336,1821.125z"/>
	<path style="fill:#FEFEFE;" d="M3507.158,2009.383c80.061,5.35,160.325,12.646,240.283,19.565
		c-10.09,77.338-12.568,155.901-21.408,233.455c-79.106-6.981-158.379-14.306-237.568-20.125
		C3495.335,2164.698,3501.566,2087.067,3507.158,2009.383z"/>
	<path style="fill:#FEFEFE;" d="M3488.062,2246.465c77.637,6.628,161.234,10.451,237.921,21.57
		c-8.483,77.637-8.899,157.262-20.275,234.368c-36.723-3.283-207.578-22.881-230.687-17.677l-3.615-2.955
		c-4.113-15.249,9.251-149.306,11.779-174.98C3484.559,2286.815,3485,2266.242,3488.062,2246.465z"/>
	<path style="fill:#FEFEFE;" d="M3457.403,2623.067c9.712-41.014,3.072-92.122,12.767-134.045l4.744-2.494
		c76.546,6.749,154.278,16.336,230.953,20.129c-6.018,42.16-9.218,85.05-12.754,127.492c-2.075,24.923-0.996,57.939-9.23,81.186
		c-2.71,7.649-9.4,14.875-15.958,19.469c-6.782,4.748-14.854,8.38-22.362,11.858c-65.149-6.11-130.812-10.497-195.778-18.108
		C3452.636,2693.414,3455.176,2658.252,3457.403,2623.067z"/>
	<path style="fill:#FEFEFE;" d="M3257.637,1986.788c35.805,1.602,71.86,6.064,107.632,8.894
		c45.642,4.221,91.977,10.504,137.714,12.721l-12.356,156.856c-2.03,25.094-2.972,50.984-6.612,75.869
		c-65.563-5.62-131.638-13.63-197.272-17.415c-15.854-2.05-31.618-3.457-47.568-4.516
		C3246.074,2141.787,3252.228,2064.317,3257.637,1986.788z"/>
	<path style="fill:#FB8C99;" d="M3396.961,2051.206l4.607,0.295c4.96,3.823,7.832,9.903,10.247,15.568
		c5.101,11.949,4.835,25.118-0.269,37.038c-14.423,33.68-64.115,51.162-95.634,64.717c-8.438-16.27-23.956-42.566-18.245-61.305
		c1.901-6.238,6.504-11.26,11.762-14.941c12.982-9.085,31.173-14.319,45.691-20.681
		C3369.344,2065.662,3383.157,2058.316,3396.961,2051.206z"/>
	<path style="fill:#4FA5EA;" d="M2424.118,1989.158c8.234-94.114,15.662-188.292,22.283-282.534
		c3.59-49.124,4.586-103.415,12.663-151.784c3.163-18.922,8.06-33.112,24.255-44.073c7.794-5.275,16.693-9.322,26.114-10.389
		c27.583-3.129,85.095,5.105,114.48,7.338c40.524,3.08,85.444,2.764,125.246,10.198c72.164,5.31,144.285,11.141,216.364,17.494
		c14.182,3.134,28.912,2.748,43.367,3.831l80.833,6.674l144.657,11.999c21.541,1.706,44.347,5.786,65.9,4.727
		c112.72,9.94,225.69,16.938,338.469,26.185c47.032,3.856,103.926,4.2,148.995,15.402c14.543,3.615,26.604,9.836,36.519,21.267
		c1.552,1.796,3.015,3.663,4.387,5.603c1.375,1.937,2.652,3.935,3.831,5.993c1.182,2.061,2.262,4.174,3.241,6.338
		c0.977,2.164,1.849,4.37,2.615,6.62c0.767,2.247,1.422,4.525,1.967,6.836c0.548,2.31,0.982,4.643,1.303,6.997
		c0.323,2.352,0.533,4.715,0.627,7.089c0.097,2.371,0.079,4.743-0.054,7.114c-15.236,3.843-35.851,2.934-51.548,2.241
		c-6.682-0.295-9.156,0.145-13.846-4.827c-0.44,10.343-0.278,21.092-1.519,31.348c-1.967,19.046-10.235,131.381-12.708,136.681
		l-1.374-3.988c-22.117-7.056-52.702-4.981-76.488-6.745c-54.054-4.001-108.221-9.301-162.363-11.667
		c-0.719,8.223-1.562,16.434-2.528,24.632l-4.669-1.374c-0.689-7.944,0.876-15.991,1.917-23.861
		c-29.625-2.403-226.503-21.445-238.755-17.992c-4.844,1.366-5.802,8.687-7.388,13.016l-2.93,1.685l-2.279,10.463
		c-0.087-8.761,0.992-17.548,1.785-26.268c-44.185-8.139-91.802-8.986-136.635-12.742c-39.802-3.333-80.289-9.434-120.158-10.459
		c-3.063,4.009-3.15,13.684-3.86,18.938l-2.216-19.536c-17.191-4.416-37.511-3.764-55.329-6.794
		c-18.395,19.054-158.773,158.063-161.45,168.278l-7.405,4.192c-17.191,16.141-66.352,55.478-72.341,75.628l-2.926-0.643
		l-1.411,2.386c-22.138,7.143-65.78,58.346-92.604,74.715c-33.697-0.361-69.909-4.715-94.919-29.895
		c-5.396-5.433-10.044-11.617-13.256-18.581l-19.963,6.143c-4.985-14.377-9.675-30.497-17.178-43.737
		c-7.599-13.41-17.054-20.067-31.663-24.35l-2.362,0.776L2424.118,1989.158z"/>
	<path style="fill:#FEFEFE;" d="M3162.452,1709.866c2.743,0.768,4.441,1.76,6.861,3.204c3.134,10.015,1.216,20.594,0.328,30.896
		l-2.934-1.133C3161.464,1735.806,3162.892,1719.071,3162.452,1709.866z"/>
	<path style="fill:#FEFEFE;" d="M2511.932,1504.376c19.083-0.444,39.317,2.918,58.417,4.511
		c44.866,3.735,89.943,8.176,134.925,10.048c-2.634,34.974-4.764,69.978-6.391,105.013l-40.657-2.98
		c-65.219-6.819-132.127-9.073-197.646-12.306c1.092-24.554-0.818-57.595,12.58-79.073
		C2482.211,1515.079,2495.866,1508.505,2511.932,1504.376z"/>
	<path style="fill:#FEFEFE;" d="M2450.424,1737.789c62.405,1.104,126.604,11.563,188.88,17.448c15.813,1.494,43.4,0.419,57.794,4.69
		c3.237,0.963,3.619,1.436,6.051,3.084c-0.896,0.739-1.777,1.494-2.681,2.216c-13.46,10.737-35.802,17.859-51.523,25.388
		c-36.287,17.378-115.97,59.243-141.956,86.864c-8.973,9.533-16.07,21.823-18.22,34.872c-1.677,10.168-1.316,21.607-0.552,31.85
		c-8.612,17.307-37.839,30.219-54.042,40.769l-2.362,0.776c0.436-29.439,4.072-59.135,6.446-88.49
		C2442.736,1844.134,2446.791,1790.978,2450.424,1737.789z"/>
	<path style="fill:#89D9F4;" d="M2703.149,1763.011c44.695-18.519,91.109-34.228,136.527-51.017
		c35.569-13.148,72.64-29.596,109.662-37.731c14.182-3.117,33.789-5.653,47.443-0.365c5.151,1.992,9.542,5.632,11.347,11.011
		c3.366,10.032-2.444,21.308-7.944,29.41c-14.344,21.151-35.075,36.806-50.892,56.516
		c-18.395,19.054-158.773,158.063-161.45,168.278l-7.405,4.192c-17.191,16.141-66.352,55.478-72.341,75.628l-2.926-0.643
		l-1.411,2.386c-22.138,7.143-65.78,58.346-92.604,74.715c-33.697-0.361-69.909-4.715-94.919-29.895
		c-5.396-5.433-10.044-11.617-13.256-18.581l-19.963,6.143c-4.985-14.377-9.675-30.497-17.178-43.737
		c-7.599-13.41-17.054-20.067-31.663-24.35c16.203-10.55,45.43-23.462,54.042-40.769c-0.764-10.243-1.125-21.682,0.552-31.85
		c2.15-13.049,9.247-25.338,18.22-34.872c25.986-27.621,105.669-69.486,141.956-86.864c15.721-7.529,38.063-14.651,51.523-25.388
		C2701.373,1764.505,2702.253,1763.75,2703.149,1763.011z"/>
	<path style="fill:#F7BF98;" d="M2574.408,1985.373c5.918-0.809,10.6-2.1,16.004,1.187c1.469,5.985,0.108,7.803-1.934,13.493
		c-4.997-0.573-8.807-1.361-13.451-3.312C2572.769,1991.885,2573.47,1990.739,2574.408,1985.373z"/>
	<path style="fill:#F7BF98;" d="M2561.949,1967.049c10.085-5.769,18.332-11.667,30.356-10.048l3.333,2.44
		c-0.71,5.167-2.171,7.633-6.408,10.911c-3.839,2.968-8.62,5.624-12.995,7.749c-3.686-0.299-7.288-0.216-10.629-1.975
		C2562.899,1974.706,2562.704,1969.846,2561.949,1967.049z"/>
	<path style="fill:#F6AC8C;" d="M2529.289,1963.981c14.995-9.654,31.215-19.503,49.078-22.408l4.042,1.698l-0.199,5.391
		c-9.342,7.305-19.154-0.506-23.499,13.912c2.25,4.113,0.838,2.926,3.237,4.474c0.755,2.797,0.951,7.657,3.656,9.077
		c3.341,1.76,6.943,1.677,10.629,1.975l-6.084,3.001l-0.594,2.889l4.852,1.382c-0.938,5.366-1.639,6.512,0.618,11.368
		c4.644,1.951,8.454,2.739,13.451,3.312c-28.181,18.054-54.81,33.357-85.498,46.862l-19.963,6.143
		c-4.985-14.377-9.675-30.497-17.178-43.737c-7.599-13.41-17.054-20.067-31.663-24.35c16.203-10.55,45.43-23.462,54.042-40.769
		c10.09-0.789,19.499-2.212,27.866,4.877C2521.018,1953.261,2525.201,1958.98,2529.289,1963.981z"/>
	<path style="fill:#FEFEFE;" d="M2749.16,1517.914c72.164,5.31,144.285,11.141,216.364,17.494
		c14.182,3.134,28.912,2.748,43.367,3.831l80.833,6.674l144.657,11.999c21.541,1.706,44.347,5.786,65.9,4.727
		c112.72,9.94,225.69,16.938,338.469,26.185c47.032,3.856,103.926,4.2,148.995,15.402c14.543,3.615,26.604,9.836,36.519,21.267
		c1.552,1.796,3.015,3.663,4.387,5.603c1.375,1.937,2.652,3.935,3.831,5.993c1.182,2.061,2.262,4.174,3.241,6.338
		c0.977,2.164,1.849,4.37,2.615,6.62c0.767,2.247,1.422,4.525,1.967,6.836c0.548,2.31,0.982,4.643,1.303,6.997
		c0.323,2.352,0.533,4.715,0.627,7.089c0.097,2.371,0.079,4.743-0.054,7.114c-15.236,3.843-35.851,2.934-51.548,2.241
		c-6.682-0.295-9.156,0.145-13.846-4.827c-0.44,10.343-0.278,21.092-1.519,31.348c-125.026-11.845-250.779-19.328-376.046-28.223
		c-231.484-15.616-462.775-33.709-693.875-54.279c0.05-34.66,3.677-69.436,4.624-104.133c14.358,1.101,28.732,1.886,43.123,2.353
		L2749.16,1517.914z"/>
	<path style="fill:#253564;" d="M2749.16,1517.914c72.164,5.31,144.285,11.141,216.364,17.494
		c14.182,3.134,28.912,2.748,43.367,3.831l80.833,6.674l144.657,11.999c21.541,1.706,44.347,5.786,65.9,4.727
		c112.72,9.94,225.69,16.938,338.469,26.185c47.032,3.856,103.926,4.2,148.995,15.402c14.543,3.615,26.604,9.836,36.519,21.267
		c1.552,1.796,3.015,3.663,4.387,5.603c1.375,1.937,2.652,3.935,3.831,5.993c1.182,2.061,2.262,4.174,3.241,6.338
		c0.977,2.164,1.849,4.37,2.615,6.62c0.767,2.247,1.422,4.525,1.967,6.836c0.548,2.31,0.982,4.643,1.303,6.997
		c0.323,2.352,0.533,4.715,0.627,7.089c0.097,2.371,0.079,4.743-0.054,7.114c-15.236,3.843-35.851,2.934-51.548,2.241
		c-6.682-0.295-9.156,0.145-13.846-4.827c-0.913-4.491-2.104-8.908-3.573-13.252c-1.467-4.341-3.199-8.575-5.197-12.7
		c-1.995-4.126-4.24-8.11-6.736-11.953c-2.496-3.846-5.221-7.521-8.177-11.023c-11.144-13.26-24.562-22.308-41.525-26.073
		c-29.932-6.636-64.298-6.715-95.027-9.21l-210.192-15.863c-217.717-17.423-435.376-37.868-653.267-52.859L2749.16,1517.914z"/>
	<path style="fill:#F8BB3B;" d="M1680.352,1549.843l7.525-1.419c7.711,17.942,15.07,33.083,28.912,47.215
		c33.203,29.837,69.096,43.475,113.961,41.201c20.246-1.029,43.314-5.707,59.517-18.432l4.873,1.556
		c24.114,20.793,48.464,42.205,69.83,65.838c85.934,95.065,169.647,238.593,226.574,353.659
		c62.243,1.793,123.026-8.737,181.704-29.625c17.162-6.109,33.809-15.112,50.871-20.677l7.695-3.412l2.362-0.776
		c14.609,4.283,24.064,10.941,31.663,24.35c7.504,13.24,12.194,29.36,17.178,43.737c0.05,17.585-7.67,27.326-19.851,39.599
		c-11.683,11.766-25.11,22.288-37.773,33l-5.74,6.28c-63.323,58.927-189.457,157.943-279.703,154.096
		c-40.798-1.739-92.716-23.479-120.432-53.847c-0.515-0.564-0.971-1.17-1.457-1.76l-9.538-6.387
		c-0.286,13.372,5.08,27.795,8.99,40.516c11.318,33.05,19.847,66.622,28.285,100.481c4.736,18.992,8.479,41.512,16.278,59.442
		c0.291,6.566,0.602,12.065-3.569,17.677c-2.752,3.698-7.649,6.898-11.43,9.401c-101.697,69.693-247.006,79.916-365.678,57.981
		c-21.85-4.084-43.456-9.206-64.817-15.365c-44.658-12.356-80.941-29.924-119.722-54.852c-14.248-12.85-30.534-27.314-33.664-47.24
		c-2.689-17.145,50.444-212.981,58.479-250.546c3.731-17.457,10.546-39.051,8.446-56.806c0.353-0.481,0.801-0.909,1.054-1.448
		c4.125-8.708,2.785-86.847,3.299-104.474c2.478-84.838,5.574-170.622,24.741-253.618c3.681-15.954,35.453-113.704,35.37-114.331
		c-0.245-1.843-1.262-3.495-1.893-5.246c17.685-18.423,39.67-34.452,62.725-45.43
		C1663.141,1555.782,1672.051,1553.006,1680.352,1549.843z"/>
	<path style="fill:#A05E00;" d="M1680.352,1549.843l7.525-1.419c7.711,17.942,15.07,33.083,28.912,47.215
		c33.203,29.837,69.096,43.475,113.961,41.201c20.246-1.029,43.314-5.707,59.517-18.432l4.873,1.556
		c-5.491,7.022-10.438,10.807-18.635,14.393c-33.614,14.713-85.988,12.219-119.544-1.955
		C1720.121,1616.843,1695.003,1586.267,1680.352,1549.843z"/>
	<path style="fill:#A05E00;" d="M1854.457,1956.909c-0.501-1.76-0.988-3.522-1.461-5.288c-8.633-32.236-27.567-131.393-8.57-160.383
		c2.117-3.229,0.984-2.291,4.682-3.121c3.947,8.181-5.557,38.528-5.263,49.967c1.042,40.578,7.649,77.367,18.635,116.269
		c22.707,66.655,62.845,157.91,107.719,213.334c9.845,12.161,48.381,50.124,47.862,62.737l-9.538-6.387
		c-17.71-18.918-36.138-37.877-51.332-58.911c-32.576-45.102-54.785-96.451-82.36-144.438
		C1870.457,1999.77,1860.952,1977.479,1854.457,1956.909z"/>
	<path style="fill:#E49A2B;" d="M1874.831,2020.688c27.575,47.987,49.784,99.335,82.36,144.438
		c15.195,21.034,33.622,39.993,51.332,58.911c-0.286,13.372,5.08,27.795,8.99,40.516c-6.059-0.199-9.168-1.029-13.816-4.777
		c-57.159-46.131-92.824-120.888-115.534-189.1C1882.783,2054.531,1876.549,2037.647,1874.831,2020.688z"/>
	<path style="fill:#E49A2B;" d="M1592.692,1605.608c17.685-18.423,39.67-34.452,62.725-45.43c-0.112,1.083-0.208,2.17-0.332,3.254
		c-1.967,17.149-10.11,36.146-14.879,52.884c-7.446,26.143-12.302,54.212-14.568,81.294c-4.682,55.897-3.681,113.032-3.246,169.137
		c0.585,75.977,1.806,151.846,0.934,227.831c-0.473,41.351-1.295,82.481-3.507,123.777c-1.98,37.009-6.645,76.097-3.366,112.978
		c1.938,21.802,9.6,41.965,23.026,59.292c35.403,45.696,103.332,65.8,158.204,72.433c88.619,10.708,180.833-9.467,264.392-38.582
		c0.291,6.566,0.602,12.065-3.569,17.677c-2.752,3.698-7.649,6.898-11.43,9.401c-101.697,69.693-247.006,79.916-365.678,57.981
		c-21.85-4.084-43.456-9.206-64.817-15.365c-44.658-12.356-80.941-29.924-119.722-54.852c-14.248-12.85-30.534-27.314-33.664-47.24
		c-2.689-17.145,50.444-212.981,58.479-250.546c3.731-17.457,10.546-39.051,8.446-56.806c0.353-0.481,0.801-0.909,1.054-1.448
		c4.125-8.708,2.785-86.847,3.299-104.474c2.478-84.838,5.574-170.622,24.741-253.618c3.681-15.954,35.453-113.704,35.37-114.331
		C1594.34,1609.011,1593.323,1607.359,1592.692,1605.608z"/>
	<path style="fill:#235AA9;" d="M2949.292,1770.835c17.818,3.03,38.138,2.378,55.329,6.794l2.216,19.536
		c0.71-5.254,0.797-14.929,3.86-18.938c39.869,1.025,80.356,7.126,120.158,10.459c44.833,3.756,92.45,4.603,136.635,12.742
		c-0.792,8.72-1.872,17.506-1.785,26.268l2.279-10.463l2.93-1.685c4.063,25.886-9.098,133.862-12.202,166.522
		c34.149,2.847,68.73,4.823,102.697,9.222l3.86,4.391c-35.772-2.831-71.827-7.292-107.632-8.894
		c-5.409,77.529-11.563,154.999-18.461,232.409c15.95,1.059,31.713,2.466,47.568,4.516l3.827,4.391
		c64.057,6.383,128.442,12.584,192.665,17.083c-1.486,19.694-3.856,39.881-3.993,59.6l3.943,2.004
		c-2.528,25.674-15.892,159.732-11.779,174.98l3.615,2.955l-0.108,1.801l-4.744,2.494c-9.695,41.923-3.055,93.031-12.767,134.045
		l-4.453,2.847c-1.934,34.137-5.897,68.149-7.653,102.291l-124.014-11.264c-22.259-3.092-38.578-28.323-52.502-44.633
		c-7.413,18.656-11.642,40.632-23.438,57.068c-1.17-10.38,14.336-49.804,19.108-60.915c-15.572-19.395-47.821-44.554-58.147-63.202
		l-2.694-1.208c-10.563-8.093-20.303-17.51-30.181-26.434l-21.229-19.237c-31.688-33.875-66.278-60.762-103.411-88.229
		c1.195,8.446,2.793,16.859,4.233,25.263c6.981,62.206,19.179,123.91,29.082,185.684c2.876,12.642,4.208,25.641,7.081,38.171
		c-42.027-2.395-84.074-7.861-126.035-11.521l-224.316-18.382c-88.146-7.52-177.105-11.202-264.977-21.15
		c-10.38-1.175-24.321-2.453-33.44-7.799c-11.152-6.537-13.402-19.15-15.971-30.771c-10.824-5.325-21.125-10.945-29.132-20.266
		c-7.267-8.458-9.915-17.191-10.542-28.131c-1.162-20.3,1.967-41.467,3.573-61.741l8.284-103.229
		c7.84-94.675,13.414-189.851,23.022-284.343l5.74-6.28c12.663-10.712,26.089-21.233,37.773-33
		c12.181-12.273,19.901-22.014,19.851-39.599l19.963-6.143c3.212,6.964,7.861,13.148,13.256,18.581
		c25.01,25.18,61.222,29.534,94.919,29.895c26.824-16.369,70.466-67.573,92.604-74.715l1.411-2.386l2.926,0.643
		c5.989-20.15,55.15-59.488,72.341-75.628l7.405-4.192C2790.519,1928.898,2930.897,1789.889,2949.292,1770.835z"/>
	<path style="fill:#FEFEFE;" d="M2611.156,2095.391c26.824-16.369,70.466-67.573,92.604-74.715
		c-2.793,49.24-5.383,98.813-10.588,147.858c-31.759-2.648-257.025-18.506-267.617-23.383c-1.847-6.583-0.818-12.808-0.162-19.494
		c12.663-10.712,26.089-21.233,37.773-33c12.181-12.273,19.901-22.014,19.851-39.599l19.963-6.143
		c3.212,6.964,7.861,13.148,13.256,18.581C2541.247,2090.676,2577.459,2095.03,2611.156,2095.391z"/>
	<path style="fill:#FEFEFE;" d="M2949.292,1770.835c17.818,3.03,38.138,2.378,55.329,6.794c-4.528,19.976-4.528,42.093-6.097,62.513
		l-9.098,115.057c-67.095-4.466-134.448-13.717-201.584-16.087C2790.519,1928.898,2930.897,1789.889,2949.292,1770.835z"/>
	<path style="fill:#FEFEFE;" d="M2954.978,2439.413c84.581,12.638,173.092,15.058,258.412,23.719
		c-3.271,46.659-9.72,94.21-9.779,140.918c-10.563-8.093-20.303-17.51-30.181-26.434l-21.229-19.237
		c-31.688-33.875-66.278-60.762-103.411-88.229c1.195,8.446,2.793,16.859,4.233,25.263c6.981,62.206,19.179,123.91,29.082,185.684
		c-48.032-3.569-96.912-7.877-144.778-13.289c3.926-32.054,5.304-64.68,7.724-96.907
		C2948.672,2527.095,2951.981,2483.266,2954.978,2439.413z"/>
	<path style="fill:#FEFEFE;" d="M3006.837,1797.165c0.71-5.254,0.797-14.929,3.86-18.938c39.869,1.025,80.356,7.126,120.158,10.459
		c44.833,3.756,92.45,4.603,136.635,12.742c-0.792,8.72-1.872,17.506-1.785,26.268c0.278,50.083-7.417,103.718-12.551,153.651
		c-86.029-10.584-173.167-16.66-259.495-24.84C3001.952,1904.843,3002.761,1849.468,3006.837,1797.165z"/>
	<path style="fill:#FEFEFE;" d="M3218.241,2464.024c82.132,4.727,164.53,13.738,246.4,21.814
		c-4.175,46.638-6.894,93.521-11.692,140.076c-1.934,34.137-5.897,68.149-7.653,102.291l-124.014-11.264
		c-22.259-3.092-38.578-28.323-52.502-44.633c-7.413,18.656-11.642,40.632-23.438,57.068c-1.17-10.38,14.336-49.804,19.108-60.915
		c-15.572-19.395-47.821-44.554-58.147-63.202C3216.872,2560.384,3212.759,2509.99,3218.241,2464.024z"/>
	<path style="fill:#FEFEFE;" d="M3238.483,2223.559l52.087,4.545c64.057,6.383,128.442,12.584,192.665,17.083
		c-1.486,19.694-3.856,39.881-3.993,59.6c-2.918,17.104-3.345,35.427-4.773,52.772c-3.041,41.396-6.334,82.773-9.882,124.13
		c-28.318-4.088-57.333-5.761-85.838-8.434l-159.4-14.925C3223.5,2379.946,3233.693,2301.927,3238.483,2223.559z"/>
	<path style="fill:#FB8C99;" d="M3382.061,2296.353l3.814,1.05c3.632,3.59,7.778,7.354,10.027,12.011
		c5.333,11.053,3.092,24.479-1.245,35.411c-14.759,37.229-59.309,49.659-92.894,64.443c-9.496-18.419-15.83-38.2-22.059-57.898
		C3307.105,2326.219,3348.435,2311.792,3382.061,2296.353z"/>
	<path style="fill:#FEFEFE;" d="M2993.041,1961.869c83.228,2.938,176.524,16.174,260.62,24.018
		c-4.014,25.749-4.52,52.536-6.537,78.53c-3.926,51.243-8.166,102.461-12.721,153.652c-29.829-0.959-60.118-5.043-89.848-7.823
		l-169.564-16.656c4.657-27.675,5.425-56.744,7.462-84.755L2993.041,1961.869z"/>
	<path style="fill:#FB8C99;" d="M3143.447,2018.078c0.606,0.245,1.27,0.39,1.822,0.743c9.019,5.786,12.85,26.206,15.547,36.196
		c-1.361,4.727-2.785,9.563-4.648,14.12c-14.414,35.245-60.517,49.954-92.604,64.028c-3.511-5.026-6.852-10.077-9.799-15.46
		c-6.79-12.43-12.463-27.418-7.533-41.537C3055.11,2050.72,3118.611,2029.89,3143.447,2018.078z"/>
	<path style="fill:#FEFEFE;" d="M2975.477,2198.798c31.149,1.133,62.7,5.615,93.753,8.708c54.71,5.589,109.464,10.716,164.26,15.381
		c-3.437,78.343-12.671,156.914-19.698,235.037l-257.839-22.703C2963.81,2356.583,2966.653,2277.302,2975.477,2198.798z"/>
	<path style="fill:#FB8C99;" d="M3121.969,2265.3l4.379,0.959c5.151,5.01,9.562,9.745,12.389,16.456
		c5.171,12.289,3.719,28.795-1.972,40.695c-12.812,26.787-62.857,47.489-88.739,57.421c-12.866-15.892-18.133-40.865-24.155-60.28
		C3050.105,2295.411,3089.808,2281.781,3121.969,2265.3z"/>
	<path style="fill:#FEFEFE;" d="M2780.438,1943.304c69.229,5.026,138.781,10.189,207.802,17.506
		c-3.408,77.55-12.879,154.826-17.262,232.314c-53.905-5.777-108.08-9.65-162.106-14.165c-36.951-3.088-74.155-7.288-111.152-9.334
		c4.192-50.181,7.651-100.412,10.376-150.692C2714.085,1998.782,2763.247,1959.445,2780.438,1943.304z"/>
	<path style="fill:#FEFEFE;" d="M2403.607,2393.609c88.453,2.216,182.09,16.303,271.22,21.752
		c-5.176,76.06-14.705,153.585-15,229.687c-54.121-8.874-111.293-10.799-166.053-15.78c-21.586-1.963-44.924-2.391-65.842-8.035
		c-10.862-2.934-23.42-8.458-30.547-17.564c-5.57-7.114-6.458-15.825-7.056-24.612c-1.519-22.246,1.963-46.139,3.756-68.353
		L2403.607,2393.609z"/>
	<path style="fill:#FEFEFE;" d="M2679.268,2416.735c90.263,7.562,181.414,12.592,271.394,22.773
		c-3.507,76.263-14.688,152.323-17.12,228.62c-90.313-8.678-180.99-13.908-271.244-23.234
		C2669.016,2568.921,2673.262,2492.766,2679.268,2416.735z"/>
	<path style="fill:#FEFEFE;" d="M2423.683,2150.732c89.545,4.665,180.679,13.427,269.829,23.271
		c-9.675,77.782-13.792,158.802-17.506,237.141c-90.674-4.316-181.314-16.207-271.971-21.939
		c3.441-19.112,3.968-39.271,5.454-58.653C2414.045,2271.231,2414.606,2209.39,2423.683,2150.732z"/>
	<path style="fill:#FEFEFE;" d="M2697.446,2173.941c90.694,10.38,182.563,16.162,273.561,23.607
		c-4.001,25.446-4.354,52.403-6.437,78.139l-12.713,157.362c-15.182,3.918-233.99-17.56-271.543-20.594
		C2683.601,2333.009,2690.677,2253.189,2697.446,2173.941z"/>
	<path style="fill:#0D9074;" d="M3034.719,3730.499l150.497,0.211c26.696-0.265,54.719-2.175,81.273,0.747
		c34.958,2.096,112.841-7.433,139.366,2.171c5.387,1.946,9.936,6.3,14.29,9.882c3.665,30.124,4.059,119.917,0.295,151.751
		c3.445,4.37,5.288,7.579,11.21,8.691c4.706,0.884,12.065-0.813,16.925-1.453c4.349,2.054,6.678,2.374,8.288,7.325
		c1.15,3.536,1.22,8.234,1.619,11.966c1.677,12.368,3.652,24.076,7.019,36.108c52.689,1.457,105.719,0.208,158.453,0.336
		c91.012,0.681,182.023,0.44,273.033-0.722c-10.671,41.695-21.262,83.975-29.186,126.296
		c55.794,4.254,285.505,24.284,314.376,52.594c4.083,4.005,4.274,6.487,4.337,11.978c-2.142,3.881-4.205,6.512-7.803,9.06
		c-122.997,87.117-1555.885,88.727-1810.462,87.561c-201.737-1.544-403.433-5.296-605.089-11.256
		c-182.753-5.337-365.332-14.212-547.739-26.625c-90.64-7.026-183.057-13.24-272.556-29.501
		c-22.412-4.071-69.104-9.757-82.676-29.364c-0.124-5.06-0.54-5.981,3.366-9.725c58.106-55.673,801.037-89.25,926.479-95.475
		c67.996-3.374,136.228-8.683,204.282-9.89c3.785-22.574,8.189-45.04,15.091-66.888l29.352,10.567
		c-8.766-36.316-14.568-73.304-23.479-109.442l28.227,0.411c35.332,2.437,70.839,2.723,106.242,3.507
		c-7.545,18.444-6.026,51.149-5.063,71.287l12.426,6.707c36.133,22.553,90.757,55.437,129.181,71.25
		c153.772,0.182,307.53,1.717,461.274,4.603c72.931,1.411,146.127,6.197,218.983,6.645c-3.972-23.674-12.136-47.576-18.598-70.744
		l-15.967-57.794c-16.199,0.784-37.192,4.752-50.104-7.608c-8.811-8.438-8.064-25.118-8.193-36.532
		c-0.303-26.625-5.594-107.765,10.816-124.59C2913.918,3725.232,2999.703,3730.764,3034.719,3730.499z"/>
	<path style="fill:#FEFEFE;" d="M3380.754,3917.059l1.253-7.96c5.051-5.387,28.82-8.4,38.432-13.837
		c3.445,4.37,5.288,7.579,11.21,8.691c4.706,0.884,12.065-0.813,16.925-1.453c4.349,2.054,6.678,2.374,8.288,7.325
		c1.15,3.536,1.22,8.234,1.619,11.966c1.677,12.368,3.652,24.076,7.019,36.108c8.907,28.526,22.885,61.442,26.6,90.831
		c-45.33-3.789-90.698-5.686-136.025-9.172c6.076-26.399,11.899-52.855,17.469-79.368
		C3376.658,3945.983,3378.538,3931.432,3380.754,3917.059z"/>
	<path style="fill:#FEFEFE;" d="M2446.85,4117.174l-0.282,46.767c-155.997,1.262-312.3-0.361-468.309-1.353l1.092-45.642
		l88.706,0.166c84.972-0.575,169.945-0.671,254.917-0.287C2363.996,4116.933,2405.973,4119.291,2446.85,4117.174z"/>
	<path style="fill:#D4324E;" d="M2015.28,3867.404l28.227,0.411c35.332,2.437,70.839,2.723,106.242,3.507
		c-7.545,18.444-6.026,51.149-5.063,71.287l12.426,6.707c36.133,22.553,90.757,55.437,129.181,71.25
		c46.256,34.756,118.502,58.404,160.558,96.608c-40.877,2.117-82.854-0.241-123.877-0.349
		c-84.972-0.384-169.945-0.289-254.917,0.287l-88.706-0.166c4.759-27.968,9.748-55.895,14.966-83.78
		c3.785-22.574,8.189-45.04,15.091-66.888l29.352,10.567C2029.993,3940.529,2024.191,3903.541,2015.28,3867.404z"/>
	<path style="fill:#BC2243;" d="M2009.407,3966.278l29.352,10.567c12.335,6.5,24.944,10.015,38.74,11.754
		c5.13,1.382,9.994,1.299,12.995,5.844c0.863,31.178-19.212,85.722-22.437,122.669l-88.706-0.166
		c4.759-27.968,9.748-55.895,14.966-83.78C1998.102,4010.592,2002.505,3988.126,2009.407,3966.278z"/>
	<path style="fill:#F6AC8C;" d="M2015.28,3867.404l28.227,0.411c35.332,2.437,70.839,2.723,106.242,3.507
		c-7.545,18.444-6.026,51.149-5.063,71.287l12.426,6.707c-3.354,13.663-10.202,22.329-22.254,29.63
		c-5.275,3.196-10.281,5.785-16.27,7.268c-12.874,3.258-27.857,2.947-41.089,2.386c-13.796-1.739-26.405-5.254-38.74-11.754
		C2029.993,3940.529,2024.191,3903.541,2015.28,3867.404z"/>
	<path style="fill:#BC2243;" d="M2118.587,3986.213c-1.618-4.794-4.723-11.688-3.955-16.764
		c1.565-10.364,21.852-20.951,30.053-26.841l12.426,6.707c-3.354,13.663-10.202,22.329-22.254,29.63
		C2129.582,3982.141,2124.577,3984.731,2118.587,3986.213z"/>
	<path style="fill:#F8BB3B;" d="M3896.988,3957.513c-10.671,41.695-21.262,83.975-29.186,126.296
		c-5.615,18.834-9.571,66.252-29.323,75.948c-10.227,5.022-282.201,4.084-308.353-2.158
		c-16.141-16.107-30.186-83.987-38.026-108.869c-3.715-29.389-17.693-62.306-26.6-90.831c52.689,1.457,105.719,0.208,158.453,0.336
		C3714.967,3958.916,3805.978,3958.675,3896.988,3957.513z"/>
	<path style="fill:#5888D3;" d="M2947.951,3961.07c141.773-0.237,283.858,1.764,425.594-0.88
		c-5.57,26.513-11.393,52.969-17.469,79.368c-11.185,43.575-22.532,87.515-36.121,130.405c-47.933,1.54-96.173,0.49-144.139,0.544
		l-172.017,1.083c-15.136-41.699-28.526-96.339-37.25-139.777C2962.577,4008.139,2954.414,3984.237,2947.951,3961.07z"/>
	<path style="fill:#5888D3;" d="M3034.719,3730.499l150.497,0.211c26.696-0.265,54.719-2.175,81.273,0.747
		c34.958,2.096,112.841-7.433,139.366,2.171c5.387,1.946,9.936,6.3,14.29,9.882c3.665,30.124,4.059,119.917,0.295,151.751
		c-9.612,5.437-33.382,8.45-38.432,13.837l-1.253,7.96c-2.216,14.373-4.096,28.924-7.209,43.131
		c-141.736,2.644-283.82,0.643-425.594,0.88l-15.967-57.794c-16.199,0.784-37.192,4.752-50.104-7.608
		c-8.811-8.438-8.064-25.118-8.193-36.532c-0.303-26.625-5.594-107.765,10.816-124.59
		C2913.918,3725.232,2999.703,3730.764,3034.719,3730.499z"/>
	<path style="fill:#235AA9;" d="M2931.985,3903.275l301.75,1.116l99.261,0.336c11.459,0.033,23.645-1.399,34.95-0.818
		c5.125,0.261,7.985,1.444,11.583,4.927l1.225,8.222c-2.216,14.373-4.096,28.924-7.209,43.131
		c-141.736,2.644-283.82,0.643-425.594,0.88L2931.985,3903.275z"/>
	<path style="fill:#FEFEFE;" d="M2419.653,2131.935c-9.608,94.492-15.182,189.668-23.022,284.343l-8.284,103.229
		c-1.606,20.275-4.736,41.442-3.573,61.741c0.627,10.94,3.275,19.673,10.542,28.131c8.006,9.322,18.307,14.941,29.132,20.266
		c2.569,11.621,4.819,24.234,15.971,30.771c9.118,5.346,23.06,6.624,33.44,7.799c87.872,9.948,176.832,13.63,264.977,21.15
		l224.316,18.382c41.96,3.661,84.008,9.127,126.035,11.521c-2.872-12.53-4.204-25.529-7.081-38.171
		c-9.903-61.774-22.101-123.478-29.082-185.684c-1.44-8.405-3.038-16.817-4.233-25.263c37.133,27.467,71.723,54.354,103.411,88.229
		l21.229,19.237c9.878,8.923,19.619,18.341,30.181,26.434l2.694,1.208c10.326,18.648,42.575,43.807,58.147,63.202
		c-4.773,11.111-20.279,50.535-19.108,60.915c11.796-16.435,16.025-38.412,23.438-57.068c13.924,16.311,30.244,41.541,52.502,44.633
		l-4.071,4.125c0.27,1.171,0.564,2.333,0.805,3.507c0.967,4.769,0.955,2.851-0.05,7.213c-4.964,5.109-4.852,7.915-4.918,15.091
		c-0.05,5.574,0.245,11.393,3.428,16.108c3.935-4.096,3.694-22.927,4.121-29.293c46.227,61.031,87.565,121.764,119.735,191.528
		c-6.861,18.336-21.196,44.608-22.354,63.762c-1.997,20.793-24.131,62.824-30.414,86.785c-3.565,11.658-8.927,26.924-16.12,36.802
		l0.025,1.768l-7.649,4.81c13.319,34.112,31.419,80.953,37.258,116.609c11.162,40.032,21.521,80.271,31.078,120.718l-1.565,0.469
		c9.521,37.021,17.539,76.823,22.873,114.658c5.474,28.862,9.409,67.49,18.644,94.538c9.015,57.234,20.686,115.547,38.275,170.838
		l-8.106,1.473l-10.177-0.353c-19.025,0.456-55.134-3.669-71.955,5.412c-4.354-3.582-8.902-7.936-14.29-9.882
		c-26.525-9.604-104.407-0.075-139.366-2.171c-26.554-2.922-54.578-1.012-81.273-0.747l-150.497-0.211
		c-35.017,0.265-120.801-5.267-150.215,4.047c-16.41,16.826-11.119,97.966-10.816,124.59c0.129,11.414-0.618,28.094,8.193,36.532
		c12.912,12.36,33.905,8.392,50.104,7.608l15.967,57.794c6.462,23.167,14.626,47.07,18.598,70.744
		c-72.856-0.448-146.052-5.234-218.983-6.645c-153.744-2.886-307.502-4.42-461.274-4.603
		c-38.424-15.813-93.048-48.697-129.181-71.25l-12.426-6.707c-0.963-20.138-2.482-52.843,5.063-71.287
		c7.126-13.73,14.618-187.324,16.701-217.186c8.824-115.278,16.031-230.658,21.624-346.138c3.333-73.873,7.91-148.638,0.448-222.403
		c-7.143-70.577-25.23-140.362-41.122-209.379l-57.956-247.774c-11.148-45.891-23.935-91.429-34.183-137.527
		c-2.93-13.065-5.466-26.247-8.185-39.362c3.781-2.503,8.678-5.703,11.43-9.401c4.171-5.611,3.86-11.111,3.569-17.677
		c-7.799-17.93-11.542-40.45-16.278-59.442c-8.438-33.859-16.967-67.431-28.285-100.481c-3.91-12.721-9.276-27.144-8.99-40.516
		l9.538,6.387c0.485,0.589,0.942,1.195,1.457,1.76c27.716,30.368,79.634,52.108,120.432,53.847
		C2230.196,2289.878,2356.33,2190.862,2419.653,2131.935z"/>
	<path style="fill:#D4324E;" d="M2554.698,3052.363c10.969,1.781,70.191,38.287,76.035,47.48c1.116,1.76,0.905,1.469,0.618,3.155
		l-1.698,1.764c-12.194,10.978-23.084,23.728-34.224,35.785C2582.301,3110.945,2568.724,3081.551,2554.698,3052.363z"/>
	<path style="fill:#FB8C99;" d="M2631.352,3102.998c20.279-3.818,108.906-89.765,137.726-107.146
		c-24.778,47.979-58.462,93.745-86.905,139.881c-16.448-9.662-34.979-24.475-52.519-30.97L2631.352,3102.998z"/>
	<path style="fill:#89D9F4;" d="M2602.523,3699.637c7.562-0.486,15.41-1.183,22.777,1.042c11.501,3.465,21.225,12.592,26.16,23.446
		c0.658,1.43,1.241,2.89,1.747,4.379c0.506,1.489,0.934,3,1.282,4.536c0.349,1.532,0.617,3.081,0.805,4.644
		c0.188,1.563,0.293,3.131,0.315,4.702c0.025,1.575-0.031,3.145-0.17,4.711c-0.138,1.569-0.358,3.125-0.66,4.669
		c-0.302,1.544-0.683,3.069-1.146,4.574c-0.459,1.502-0.996,2.979-1.61,4.428c-5.952,13.813-16.988,21.686-30.626,26.932
		c-20.034,0.361-30.431-1.233-46.156-14.166c-2.079-4.096-4.101-8.23-5.558-12.596c-4.104-12.327-4.241-27.671,2.254-39.267
		C2578.833,3709.361,2589.54,3703.75,2602.523,3699.637z"/>
	<path style="fill:#FEFEFE;" d="M2601.021,3714.109c4.308-0.369,8.865-0.83,13.173-0.394c7.699,0.776,16.178,6.794,20.661,12.891
		c0.586,0.794,1.132,1.615,1.635,2.461c0.504,0.85,0.963,1.723,1.378,2.619c0.415,0.896,0.781,1.811,1.1,2.743
		c0.321,0.933,0.594,1.88,0.818,2.843c0.221,0.96,0.394,1.93,0.519,2.909c0.121,0.979,0.193,1.963,0.216,2.951
		c0.022,0.985-0.006,1.97-0.083,2.955c-0.077,0.982-0.206,1.959-0.386,2.93c-2.188,11.638-9.587,17.452-19.05,23.495
		c-4.242,0.51-8.691,0.996-12.966,0.673c-7.774-0.585-15.983-5.553-20.657-11.679c-4.918-6.446-6.499-14.522-5.242-22.466
		C2584.074,3726.822,2591.404,3720.883,2601.021,3714.109z"/>
	<path style="fill:#EF6263;" d="M2533.639,3028.465c28.634-7.587,58.803-11.862,87.922-17.398l158.756-30.294l-11.239,15.078
		c-28.82,17.382-117.448,103.328-137.726,107.146c0.286-1.685,0.498-1.395-0.618-3.155c-5.844-9.193-65.066-45.7-76.035-47.48
		L2533.639,3028.465z"/>
	<path style="fill:#6FB35F;" d="M3142.181,2919.617c4.972,16.286,13.368,59.902,26.849,69.855
		c14.555,10.745,52.66,2.44,61.816,14.149c-8.413,6.321-52.739-2.154-64.746-3.798l21.254,82.032
		c-1.365,32.377,5.146,65.75,9.546,97.758c7.156,52.096,15.157,104.336,19.441,156.76c-52.291-33.257-106.155-62.323-167.049-76.102
		c15.427-79.941,39.752-158.574,63.04-236.539C3122.33,2990.265,3138.031,2954.318,3142.181,2919.617z"/>
	<path style="fill:#5FC179;" d="M2475.052,3427.114c30.68-25.392,66.767-48.858,100.913-69.407
		c141.748-85.307,307.768-138.519,473.327-97.434c60.894,13.779,114.758,42.844,167.049,76.102
		c6.263,11.372,30.368,23.889,41.993,32.012c47.231,33.004,103.98,80.497,122.158,137.166c-3.092,11.924-5.856,24.047-9.699,35.751
		c40.558,52.013,108.715,135.402,131.484,197.147l-10.177-0.353c-19.025,0.456-55.134-3.669-71.955,5.412
		c-4.354-3.582-8.902-7.936-14.29-9.882c-26.525-9.604-104.407-0.075-139.366-2.171c-26.554-2.922-54.578-1.012-81.273-0.747
		l-150.497-0.211c-23.255-109.811-17.569-218.381-9.455-329.317c-136.212-38.669-281.226-33.706-419.11-5.79
		C2562.152,3404.303,2518.781,3416.871,2475.052,3427.114z"/>
	<path style="fill:#FEFEFE;" d="M3363.924,3551.779c46.206,49.489,100.427,124.823,128.176,186.319
		c-19.025,0.456-55.134-3.669-71.955,5.412c-4.354-3.582-8.902-7.936-14.29-9.882c-26.525-9.604-104.407-0.075-139.366-2.171
		c15.257-52.033,17.357-105.793,19.05-159.566c27.476,3.478,49.182,2.374,72.113-14.95
		C3359.832,3555.299,3361.865,3553.568,3363.924,3551.779z"/>
	<path style="fill:#509650;" d="M3025.265,3401.182c44.704,22.923,92.309,47.443,130.293,80.874
		c31.975,16.456,55.308,47.435,84.713,67.589c12.385,8.488,35.644,11.858,45.268,22.246c-1.693,53.772-3.793,107.532-19.05,159.566
		c-26.554-2.922-54.578-1.012-81.273-0.747l-150.497-0.211C3011.465,3620.688,3017.151,3512.118,3025.265,3401.182z"/>
	<path style="fill:#6FB35F;" d="M3155.558,3482.057c31.975,16.456,55.308,47.435,84.713,67.589
		c12.385,8.488,35.644,11.858,45.268,22.246c-1.693,53.772-3.793,107.532-19.05,159.566c-26.554-2.922-54.578-1.012-81.273-0.747
		C3164.847,3649.317,3165.394,3564.89,3155.558,3482.057z"/>
	<path style="fill:#0D9074;" d="M3048.789,2470.15c37.133,27.467,71.723,54.354,103.411,88.229l21.229,19.237
		c9.878,8.923,19.619,18.341,30.181,26.434l2.694,1.208c10.326,18.648,42.575,43.807,58.147,63.202
		c-4.773,11.111-20.279,50.535-19.108,60.915c11.796-16.435,16.025-38.412,23.438-57.068c13.924,16.311,30.244,41.541,52.502,44.633
		l-4.071,4.125c0.27,1.171,0.564,2.333,0.805,3.507c0.967,4.769,0.955,2.851-0.05,7.213c-4.964,5.109-4.852,7.915-4.918,15.091
		c-0.05,5.574,0.245,11.393,3.428,16.108c3.935-4.096,3.694-22.927,4.121-29.293c46.227,61.031,87.565,121.764,119.735,191.528
		c-6.861,18.336-21.196,44.608-22.354,63.762c-1.997,20.793-24.131,62.824-30.414,86.785c-3.565,11.658-8.927,26.924-16.12,36.802
		l0.025,1.768l-7.649,4.81c13.319,34.112,31.419,80.953,37.258,116.609c11.162,40.032,21.521,80.271,31.078,120.718l-1.565,0.469
		c9.521,37.021,17.539,76.823,22.873,114.658c5.474,28.862,9.409,67.49,18.644,94.538c9.015,57.234,20.686,115.547,38.275,170.838
		l-8.106,1.473c-22.769-61.745-90.927-145.135-131.484-197.147c3.844-11.704,6.607-23.827,9.699-35.751
		c-18.178-56.669-74.927-104.162-122.158-137.166c-11.625-8.122-35.731-20.64-41.993-32.012
		c-4.283-52.424-12.285-104.665-19.441-156.76c-4.399-32.008-10.911-65.381-9.546-97.758l-21.254-82.032
		c12.007,1.643,56.333,10.119,64.746,3.798c-9.156-11.708-47.261-3.403-61.816-14.149c-13.481-9.953-21.877-53.569-26.849-69.855
		c-10.965-31.556-21.499-64.348-29.223-96.837c35.013,6.562,67.709,21.113,103.37,26.924
		c-34.017-15.398-70.806-26.309-106.283-37.938c-4.005-14.792-6.715-29.858-9.608-44.895l30.423,9.318
		c-10.886-6.441-21.673-12.737-33.062-18.258c-2.573-12.952-5.444-25.839-8.612-38.661c-2.872-12.53-4.204-25.529-7.081-38.171
		c-9.903-61.774-22.101-123.478-29.082-185.684C3051.583,2487.009,3049.985,2478.596,3048.789,2470.15z"/>
	<path style="fill:#042030;" d="M3061.456,2493.886c25.467,30.833,45.123,67.689,65.564,102.062
		c24.128,41.144,47.335,82.802,69.623,124.973c22.285,42.171,43.626,84.813,64.024,127.927
		c20.398,43.114,39.833,86.659,58.305,130.634c18.472,43.975,35.963,88.337,52.473,133.086l0.025,1.768l-7.649,4.81
		c-7.699-30.576-22.98-63.845-34.581-93.226c-55.155-139.677-125.234-271.477-197.069-403.007
		C3120.736,2601.979,3059.589,2509.861,3061.456,2493.886z"/>
	<path style="fill:#FEFEFE;" d="M3216.341,3336.374c-4.283-52.424-12.285-104.665-19.441-156.76
		c-4.399-32.008-10.911-65.381-9.546-97.758c48.514,22.649,106.175,24.238,153.602,50.22
		c-48.817-12.098-97.941-27.015-147.305-36.291c6.367,27.044,17.071,53.847,28.596,79.09c26.82,4.968,57.097,8.284,81.991,19.847
		c-26.359-2.972-53.499-6.089-79.488-11.393c30.36,76.052,69.378,126.915,145.815,159.939c19.013,8.214,39.109,15.02,60.027,13.676
		c9.521,37.021,17.539,76.823,22.873,114.658c5.474,28.862,9.409,67.49,18.644,94.538c9.015,57.234,20.686,115.547,38.275,170.838
		l-8.106,1.473c-22.769-61.745-90.927-145.135-131.484-197.147c3.844-11.704,6.607-23.827,9.699-35.751
		c-18.178-56.669-74.927-104.162-122.158-137.166C3246.709,3360.263,3222.603,3347.746,3216.341,3336.374z"/>
	<path style="fill:#0EB497;" d="M3048.789,2470.15c37.133,27.467,71.723,54.354,103.411,88.229l21.229,19.237
		c9.878,8.923,19.619,18.341,30.181,26.434l2.694,1.208c10.326,18.648,42.575,43.807,58.147,63.202
		c-4.773,11.111-20.279,50.535-19.108,60.915c11.796-16.435,16.025-38.412,23.438-57.068c13.924,16.311,30.244,41.541,52.502,44.633
		l-4.071,4.125c0.27,1.171,0.564,2.333,0.805,3.507c0.967,4.769,0.955,2.851-0.05,7.213c-4.964,5.109-4.852,7.915-4.918,15.091
		c-0.05,5.574,0.245,11.393,3.428,16.108c3.935-4.096,3.694-22.927,4.121-29.293c46.227,61.031,87.565,121.764,119.735,191.528
		c-6.861,18.336-21.196,44.608-22.354,63.762c-1.997,20.793-24.131,62.824-30.414,86.785c-3.565,11.658-8.927,26.924-16.12,36.802
		c-16.51-44.75-34.001-89.112-52.473-133.086c-18.472-43.975-37.907-87.519-58.305-130.634
		c-20.398-43.114-41.739-85.757-64.024-127.927c-22.288-42.171-45.495-83.828-69.623-124.973
		c-20.441-34.373-40.097-71.229-65.564-102.062c-0.465-4.653,0.452-4.628-3.25-7.952c-3.955,3.001-3.993,3.802-5.134,8.803
		c-0.05,0.22-0.033,0.452-0.05,0.677C3051.583,2487.009,3049.985,2478.596,3048.789,2470.15z"/>
	<path style="fill:#0D9074;" d="M3152.2,2558.379l21.229,19.237c-0.423,13.729-1.046,27.65-0.473,41.371
		c0.523,12.526,5.204,28.833,2.955,40.728l-2.142,1.092c-2.316-4.25-2.702-7.496-3.075-12.231c-0.058-0.76-0.332-5.478-0.585-6.367
		C3161.879,2613.339,3155.126,2588.557,3152.2,2558.379z"/>
</g>
</svg>
