<?xml version="1.0" encoding="utf-8"?>
<!-- Generator: Adobe Illustrator 27.5.0, SVG Export Plug-In . SVG Version: 6.00 Build 0)  -->
<svg version="1.1" xmlns="http://www.w3.org/2000/svg" xmlns:xlink="http://www.w3.org/1999/xlink" x="0px" y="0px"
	 viewBox="0 0 500 500" style="enable-background:new 0 0 500 500;" xml:space="preserve">
<g id="BACKGROUND">
	<rect style="fill:#FFFFFF;" width="500" height="500"/>
</g>
<g id="OBJECTS">
	<g>
		<path style="fill:#DEEDFB;" d="M220.793,407.743c173.258,20.8,361.242-126.461,157.277-288.389
			c-265.776-211-479.525,268.808-284.896,285.353C199.844,413.775,220.793,407.743,220.793,407.743z"/>
		<path style="fill:#BEDBF2;" d="M428.917,357.491c0,1.557-58.208,2.82-130.011,2.82s-130.011-1.263-130.011-2.82
			s58.208-2.82,130.011-2.82S428.917,355.933,428.917,357.491z"/>
		<path style="fill:#BEDBF2;" d="M250.749,411.015c0,2.145-50.857,3.884-113.593,3.884c-62.736,0-116.791-1.739-116.791-3.884
			s54.055-3.884,116.791-3.884C199.892,407.131,250.749,408.87,250.749,411.015z"/>
		<path style="fill:#EDF1F6;" d="M43.956,220.509l-18.24,185.395c-0.198,2.009,1.41,3.736,3.427,3.683l23.215-0.604L43.956,220.509z
			"/>
		<g>
			<g>
				<g>
					<circle style="fill:#F0DC84;" cx="358.533" cy="162.728" r="45.665"/>
				</g>
			</g>
			<g>
				<g>
					<circle style="fill:#F0DC84;" cx="229.159" cy="162.728" r="45.665"/>
				</g>
			</g>
			<g style="opacity:0.04;">
				<g>
					<g>
						<path style="fill:#272425;" d="M393.095,167.466c0-25.22-20.445-45.665-45.665-45.665c-4.233,0-8.326,0.588-12.215,1.666
							c6.826-4.063,14.797-6.404,23.318-6.404c25.22,0,45.665,20.445,45.665,45.665c0,20.987-14.163,38.656-33.449,43.999
							C384.126,198.764,393.095,184.165,393.095,167.466z"/>
					</g>
				</g>
			</g>
			<g style="opacity:0.04;">
				<g>
					<g>
						<path style="fill:#272425;" d="M220.043,126.68c-10.66,0-20.459,3.663-28.23,9.786c8.265-11.731,21.905-19.402,37.346-19.402
							c25.22,0,45.665,20.445,45.665,45.665c0,14.559-6.822,27.517-17.434,35.879c5.234-7.43,8.318-16.483,8.318-26.263
							C265.708,147.125,245.263,126.68,220.043,126.68z"/>
					</g>
				</g>
			</g>
			<g>
				<g>
					<g>
						<polygon style="fill:#17273B;" points="338.607,308.205 373.099,308.205 400.772,356.766 366.28,356.766 						"/>
					</g>
				</g>
				<g>
					<g>
						<polygon style="fill:#17273B;" points="252.045,308.205 217.553,308.205 189.88,356.766 224.372,356.766 						"/>
					</g>
				</g>
			</g>
			<g>
				<g>
					<circle style="fill:#17273B;" cx="294.573" cy="243.166" r="114.325"/>
				</g>
			</g>
			<g>
				<g>
					<circle style="fill:#FFFFFF;" cx="294.573" cy="243.166" r="97.775"/>
				</g>
			</g>
			<g style="opacity:0.03;">
				<g>
					<g>
						<path style="fill:#272425;" d="M352.429,185.311c-36.282-36.282-93.97-38.062-132.386-5.393
							c1.712-2.013,3.492-3.988,5.393-5.889c38.184-38.184,100.091-38.184,138.275,0c38.184,38.184,38.184,100.092,0,138.275
							c-1.901,1.901-3.876,3.681-5.889,5.393C390.491,279.281,388.711,221.593,352.429,185.311z"/>
					</g>
				</g>
			</g>
			<g>
				<g>
					<g>
						<g>
							<g>
								<path style="fill:none;" d="M379.045,248.799v-11.267h13.131c-0.809-14.236-4.672-27.647-10.931-39.612l-11.682,6.33
									l-1.44-2.658l11.68-6.329c-7.593-13.48-18.277-24.979-31.108-33.525l-7.184,11.18l-2.544-1.634l7.182-11.177
									c-13.478-8.387-29.138-13.588-45.942-14.543v13.131H288.94v-13.131c-14.236,0.809-27.647,4.673-39.612,10.931l6.33,11.682
									l-2.658,1.44l-6.329-11.68c-13.479,7.593-24.979,18.277-33.525,31.108l11.18,7.184l-1.634,2.544l-11.177-7.182
									c-8.387,13.478-13.588,29.138-14.543,45.941h13.131v11.267h-13.131c0.809,14.236,4.672,27.647,10.931,39.612l11.682-6.33
									l1.44,2.658l-11.68,6.329c7.593,13.479,18.277,24.979,31.108,33.525l7.184-11.18l2.543,1.634l-7.182,11.177
									c13.478,8.387,29.138,13.588,45.942,14.543v-13.131h11.267v13.131c14.236-0.809,27.647-4.672,39.612-10.931l-6.33-11.682
									l2.658-1.44l6.329,11.68c13.479-7.593,24.979-18.277,33.525-31.108l-11.18-7.184l1.635-2.544l11.177,7.182
									c8.387-13.478,13.588-29.138,14.543-45.942H379.045z"/>
							</g>
						</g>
					</g>
				</g>
				<g>
					<g>
						<path style="fill:#DCEBED;" d="M300.207,158.695v-13.131c-1.866-0.106-3.741-0.173-5.633-0.173
							c-1.892,0-3.768,0.067-5.633,0.173v13.131H300.207z"/>
					</g>
				</g>
				<g>
					<g>
						<path style="fill:#DCEBED;" d="M288.94,327.637v13.131c1.865,0.106,3.741,0.173,5.633,0.173c1.892,0,3.768-0.067,5.633-0.173
							v-13.131H288.94z"/>
					</g>
				</g>
				<g>
					<g>
						<path style="fill:#DCEBED;" d="M224.326,196.23l-11.18-7.184c-0.558,0.839-1.099,1.689-1.632,2.545l11.177,7.182
							L224.326,196.23z"/>
					</g>
				</g>
				<g>
					<g>
						<path style="fill:#DCEBED;" d="M364.821,290.102l11.18,7.184c0.558-0.838,1.099-1.689,1.632-2.545l-11.177-7.182
							L364.821,290.102z"/>
					</g>
				</g>
				<g>
					<g>
						<path style="fill:#DCEBED;" d="M247.637,313.413l-7.184,11.18c0.838,0.558,1.689,1.099,2.545,1.632l7.182-11.177
							L247.637,313.413z"/>
					</g>
				</g>
				<g>
					<g>
						<path style="fill:#DCEBED;" d="M341.51,172.919l7.184-11.18c-0.838-0.558-1.689-1.099-2.545-1.632l-7.182,11.177
							L341.51,172.919z"/>
					</g>
				</g>
				<g>
					<g>
						<path style="fill:#DCEBED;" d="M255.658,168.177l-6.33-11.682c-0.894,0.468-1.78,0.948-2.657,1.442l6.329,11.68
							L255.658,168.177z"/>
					</g>
				</g>
				<g>
					<g>
						<path style="fill:#DCEBED;" d="M333.488,318.155l6.33,11.682c0.894-0.468,1.78-0.948,2.657-1.442l-6.329-11.68
							L333.488,318.155z"/>
					</g>
				</g>
				<g>
					<g>
						<path style="fill:#DCEBED;" d="M219.585,282.081l-11.682,6.33c0.468,0.894,0.948,1.78,1.442,2.657l11.68-6.329
							L219.585,282.081z"/>
					</g>
				</g>
				<g>
					<g>
						<path style="fill:#DCEBED;" d="M369.562,204.251l11.682-6.33c-0.468-0.894-0.948-1.78-1.442-2.657l-11.68,6.329
							L369.562,204.251z"/>
					</g>
				</g>
				<g>
					<g>
						<path style="fill:#DCEBED;" d="M210.102,237.532h-13.131c-0.106,1.866-0.173,3.742-0.173,5.633
							c0,1.892,0.067,3.768,0.173,5.633h13.131V237.532z"/>
					</g>
				</g>
				<g>
					<g>
						<path style="fill:#DCEBED;" d="M379.045,248.799h13.131c0.106-1.866,0.173-3.742,0.173-5.633c0-1.892-0.067-3.768-0.173-5.633
							h-13.131V248.799z"/>
					</g>
				</g>
			</g>
			<g>
				<g>
					<g>
						<g>
							
								<rect x="283.536" y="205.065" transform="matrix(0.7071 -0.7071 0.7071 0.7071 -53.1353 287.1442)" style="fill:#17273B;" width="73.007" height="5.292"/>
						</g>
					</g>
					<g>
						<g>
							
								<rect x="276.296" y="197.775" transform="matrix(0.7071 -0.7071 0.7071 0.7071 -72.6169 261.1617)" style="fill:#17273B;" width="5.292" height="40.926"/>
						</g>
					</g>
					<g>
						<g>
							<rect x="292.905" y="233.523" style="fill:#C03131;" width="2.646" height="89.407"/>
						</g>
					</g>
				</g>
				<g>
					<g>
						<g>
							<circle style="fill:#17273B;" cx="294.228" cy="233.523" r="9.378"/>
						</g>
					</g>
					<g>
						<g>
							<path style="fill:#FFFFFF;" d="M291.884,231.178c-1.295,1.295-1.295,3.394,0,4.688c1.295,1.295,3.394,1.295,4.688,0
								c1.295-1.295,1.295-3.394,0-4.688C295.277,229.884,293.178,229.884,291.884,231.178z"/>
						</g>
					</g>
				</g>
			</g>
		</g>
		<path style="opacity:0.1;fill:#272425;" d="M238.81,214.696h-39.605v-1.486c0-2.151-1.744-3.896-3.896-3.896
			c-2.151,0-3.896,1.744-3.896,3.896v1.486l-7.609,0.065c-2.553,9.492-3.556,19.404-3.556,29.703
			c0,44.456,25.375,81.687,62.431,100.597V218.566C242.68,216.429,240.947,214.696,238.81,214.696z"/>
		<path style="fill:#BEDBF2;" d="M190.05,460.483c0,2.054-30.379,3.718-67.854,3.718c-37.475,0-67.854-1.665-67.854-3.718
			c0-2.054,30.379-3.719,67.854-3.719C159.671,456.764,190.05,458.429,190.05,460.483z"/>
		<path style="fill:#BEDBF2;" d="M456.721,424.784c0,1.626-30.386,2.944-67.87,2.944c-37.483,0-67.87-1.318-67.87-2.944
			c0-1.626,30.387-2.944,67.87-2.944C426.335,421.84,456.721,423.158,456.721,424.784z"/>
		<g>
			<path style="fill:#FFFFFF;" d="M307.343,98.045V92.66l-4.558-1.367c-0.189-0.563-0.416-1.108-0.677-1.633l2.257-4.191
				l-3.808-3.808l-4.191,2.257c-0.525-0.262-1.07-0.489-1.633-0.678l-1.367-4.558h-5.385l-1.367,4.558
				c-0.563,0.188-1.108,0.416-1.633,0.678l-4.191-2.257l-3.808,3.808l2.257,4.191c-0.262,0.525-0.489,1.07-0.678,1.633l-4.558,1.367
				v5.385l4.558,1.367c0.189,0.563,0.416,1.108,0.678,1.633l-2.257,4.191l3.808,3.808l4.191-2.257
				c0.525,0.262,1.07,0.489,1.633,0.678l1.367,4.558h5.385l1.367-4.558c0.563-0.189,1.108-0.416,1.633-0.678l4.191,2.257
				l3.808-3.808l-2.257-4.191c0.262-0.525,0.489-1.07,0.677-1.633L307.343,98.045z M290.673,102.137
				c-3.798,0-6.877-3.079-6.877-6.877c0-3.798,3.079-6.878,6.877-6.878c3.798,0,6.878,3.079,6.878,6.878
				C297.55,99.058,294.471,102.137,290.673,102.137z"/>
		</g>
		<g>
			<path style="fill:#FFFFFF;" d="M436.59,196.427v-2.864l-2.424-0.727c-0.1-0.299-0.221-0.589-0.36-0.868l1.2-2.229l-2.025-2.025
				l-2.229,1.2c-0.279-0.139-0.569-0.26-0.868-0.36l-0.727-2.424h-2.864l-0.727,2.424c-0.299,0.1-0.589,0.221-0.868,0.36l-2.229-1.2
				l-2.026,2.025l1.2,2.229c-0.139,0.279-0.26,0.569-0.36,0.868l-2.424,0.727v2.864l2.424,0.727c0.1,0.299,0.221,0.589,0.36,0.868
				l-1.2,2.229l2.026,2.025l2.229-1.2c0.279,0.139,0.569,0.26,0.868,0.36l0.727,2.424h2.864l0.727-2.424
				c0.299-0.1,0.589-0.221,0.868-0.36l2.229,1.2l2.025-2.025l-1.2-2.229c0.139-0.279,0.26-0.569,0.36-0.868L436.59,196.427z
				 M427.723,198.604c-2.021,0-3.658-1.638-3.658-3.658c0-2.02,1.638-3.658,3.658-3.658c2.02,0,3.658,1.638,3.658,3.658
				C431.382,196.966,429.744,198.604,427.723,198.604z"/>
		</g>
		<g>
			<path style="fill:#DEEDFB;" d="M456.039,139.927v-2.012l-1.703-0.511c-0.07-0.21-0.155-0.414-0.253-0.61l0.843-1.566
				l-1.423-1.423l-1.566,0.843c-0.196-0.098-0.4-0.183-0.61-0.253l-0.511-1.703h-2.012l-0.511,1.703
				c-0.21,0.07-0.414,0.155-0.61,0.253l-1.566-0.843l-1.423,1.423l0.843,1.566c-0.098,0.196-0.183,0.4-0.253,0.61l-1.703,0.511
				v2.012l1.703,0.511c0.07,0.21,0.155,0.414,0.253,0.61l-0.843,1.566l1.423,1.423l1.566-0.843c0.196,0.098,0.4,0.183,0.61,0.253
				l0.511,1.703h2.012l0.511-1.703c0.21-0.071,0.414-0.155,0.61-0.253l1.566,0.843l1.423-1.423l-0.843-1.566
				c0.098-0.196,0.183-0.4,0.253-0.61L456.039,139.927z M449.809,141.457c-1.419,0-2.57-1.151-2.57-2.57
				c0-1.419,1.151-2.57,2.57-2.57s2.57,1.151,2.57,2.57C452.379,140.306,451.229,141.457,449.809,141.457z"/>
		</g>
		<g>
			<path style="fill:#DEEDFB;" d="M112.711,82.632v-7.638l-6.464-1.939c-0.268-0.798-0.59-1.571-0.961-2.316l3.201-5.944l-5.4-5.4
				l-5.944,3.201c-0.744-0.371-1.518-0.694-2.316-0.961l-1.939-6.465h-7.638l-1.939,6.465c-0.798,0.267-1.572,0.59-2.316,0.961
				l-5.944-3.201l-5.401,5.4l3.201,5.944c-0.371,0.744-0.694,1.517-0.961,2.316l-6.464,1.939v7.638l6.464,1.939
				c0.267,0.798,0.59,1.571,0.961,2.316l-3.201,5.944l5.401,5.401l5.944-3.201c0.744,0.371,1.518,0.693,2.316,0.961l1.939,6.464
				h7.638l1.939-6.464c0.798-0.268,1.572-0.59,2.316-0.961l5.944,3.201l5.4-5.401l-3.201-5.944c0.371-0.744,0.693-1.518,0.961-2.316
				L112.711,82.632z M89.067,88.437c-5.387,0-9.754-4.367-9.754-9.754c0-5.388,4.367-9.755,9.754-9.755
				c5.387,0,9.755,4.367,9.755,9.755C98.822,84.07,94.455,88.437,89.067,88.437z"/>
		</g>
		<g>
			<path style="fill:#FFFFFF;" d="M165.503,200.081v-2.616l-2.214-0.664c-0.092-0.273-0.202-0.538-0.329-0.793l1.096-2.036
				l-1.85-1.85l-2.036,1.096c-0.255-0.127-0.52-0.238-0.793-0.329l-0.664-2.214h-2.616l-0.664,2.214
				c-0.273,0.092-0.538,0.202-0.793,0.329l-2.036-1.096l-1.85,1.85l1.096,2.036c-0.127,0.255-0.238,0.52-0.329,0.793l-2.214,0.664
				v2.616l2.214,0.664c0.092,0.273,0.202,0.538,0.329,0.793l-1.096,2.036l1.85,1.85l2.036-1.096c0.255,0.127,0.52,0.238,0.793,0.329
				l0.664,2.214h2.616l0.664-2.214c0.273-0.092,0.538-0.202,0.793-0.329l2.036,1.096l1.85-1.85l-1.096-2.036
				c0.127-0.255,0.237-0.52,0.329-0.793L165.503,200.081z M157.405,202.069c-1.845,0-3.341-1.496-3.341-3.341
				c0-1.845,1.496-3.341,3.341-3.341s3.341,1.496,3.341,3.341C160.746,200.574,159.25,202.069,157.405,202.069z"/>
		</g>
		<g>
			<polygon style="fill:#9C685B;" points="399.32,232.857 399.32,240.295 409.806,240.295 409.806,231.329 			"/>
			<g>
				<g>
					<path style="fill:#7E483F;" d="M410.478,232.66l-11.173,1.049l0.015,2.817c0.673,0.594,2.437,1.168,3.357,1.111
						C408.765,237.263,410.478,232.66,410.478,232.66z"/>
				</g>
			</g>
			<g>
				<path style="fill:#9C685B;" d="M416.461,218.768c0.012-0.048,0.025-0.096,0.036-0.145l0.003-0.011l-0.001,0
					c0.083-0.367,0.15-0.741,0.199-1.122c0.811-6.256-3.327-11.95-9.243-12.716c-5.916-0.767-10.805,2.98-11.615,9.236
					c-0.049,0.381-0.09,1.031-0.104,1.407l0.008-0.115l0.077-0.077c-0.002,0.049-0.076,0.028-0.077,0.077l-0.719,10.599
					c-0.001,0.02,0,0.041-0.001,0.061l-0.004,0.238l0.001,0c-0.031,5.05,2.941,10.041,7.063,10.041
					c4.615,0,9.984-2.312,11.892-7.423l0.001,0l0.029-0.118c0.032-0.122,0.063-0.244,0.091-0.368L416.461,218.768z"/>
			</g>
			<g>
				<path style="fill:#182837;" d="M395.347,214.643c9.362,1.029,14.429,1.169,14.429,1.169c0.346,5.015,4.948,10.203,4.948,10.203
					l2.2-4.943c0,0,5.846-14.984-9.081-16.919c-10.001-1.296-11.785,3.824-12.453,9.204L395.347,214.643z"/>
			</g>
			<g>
				<path style="fill:#182837;" d="M400.623,225.98c-0.738-0.15-1.19-0.48-1.345-0.981c-0.384-1.24,1.339-3.037,1.412-3.112
					l0.329,0.318c-0.448,0.463-1.556,1.844-1.303,2.659c0.102,0.329,0.438,0.553,0.999,0.667L400.623,225.98z"/>
			</g>
			<g>
				
					<rect x="406.186" y="218.032" transform="matrix(0.3474 -0.9377 0.9377 0.3474 59.0674 525.091)" style="fill:#182837;" width="1.22" height="4.15"/>
			</g>
			<g>
				
					<rect x="395.771" y="218.776" transform="matrix(0.9875 -0.1577 0.1577 0.9875 -29.6304 65.4335)" style="fill:#182837;" width="3.282" height="1.22"/>
			</g>
			<g>
				<path style="fill:#182837;" d="M398.5,221.796c-0.087,0.387-0.472,0.63-0.858,0.542c-0.387-0.087-0.629-0.472-0.542-0.858
					c0.087-0.387,0.472-0.629,0.858-0.542C398.344,221.025,398.587,221.41,398.5,221.796z"/>
			</g>
			<g>
				<path style="fill:#182837;" d="M406.425,222.537c-0.087,0.387-0.472,0.629-0.858,0.542c-0.387-0.087-0.629-0.472-0.542-0.858
					c0.087-0.387,0.472-0.63,0.858-0.542C406.27,221.766,406.512,222.15,406.425,222.537z"/>
			</g>
			<g>
				<path style="fill:#9C685B;" d="M415.078,225.577c-0.845,1.658-2.61,2.405-3.942,1.668c-1.333-0.737-1.728-2.678-0.884-4.336
					c0.844-1.658,2.61-2.405,3.942-1.668C415.527,221.978,415.923,223.919,415.078,225.577z"/>
			</g>
			<g>
				<path style="fill:#182837;" d="M414.1,225.72l-0.419-0.184c0.008-0.017,0.74-1.736-0.344-2.843l0.327-0.32
					C414.967,223.703,414.136,225.638,414.1,225.72z"/>
			</g>
			<g>
				<path style="fill:#182837;" d="M395.792,214.488c0,0,4.364,2.455,15.847,4.639l-0.949-5.004L395.792,214.488z"/>
			</g>
			<g>
				<polygon style="fill:#9C685B;" points="386.892,403.736 386.345,413.95 372.698,413.95 372.32,400.479 				"/>
			</g>
			<g>
				<g>
					<polygon style="fill:#182837;" points="371.68,411.878 357.943,416.541 355.894,422.754 390.244,422.754 388.112,411.878 					
						"/>
				</g>
				<g>
					<path style="fill:#182837;" d="M390.244,420.463l-25.876,0.053c0,0-0.597-4.974-6.16-4.974c-5.563,0-6.495,8.412-6.495,8.412
						h38.725L390.244,420.463z"/>
				</g>
			</g>
			<g>
				<polygon style="fill:#182837;" points="371.427,413.142 370.93,409.311 377.907,409.311 377.209,413.775 371.627,413.775 				
					"/>
			</g>
			<g>
				<polygon style="fill:#7E483F;" points="386.727,406.467 372.785,409.311 372.705,406.467 				"/>
			</g>
			<g>
				<polygon style="fill:#9C685B;" points="436.202,403.551 436.403,413.779 422.791,414.776 421.431,401.368 				"/>
			</g>
			<g>
				<g>
					<polygon style="fill:#182837;" points="421.625,412.783 408.266,418.438 406.676,424.784 440.934,422.274 438.013,411.583 
											"/>
				</g>
				<g>
					<path style="fill:#182837;" d="M440.767,419.989l-25.802,1.944c0,0-0.959-4.917-6.507-4.511
						c-5.548,0.406-5.863,8.864-5.863,8.864l38.621-2.83L440.767,419.989z"/>
				</g>
			</g>
			<g>
				<polygon style="fill:#182837;" points="420.544,414.065 419.768,410.28 426.726,409.771 426.356,414.274 420.79,414.681 				"/>
			</g>
			<g>
				<polygon style="fill:#7E483F;" points="435.318,406.442 421.618,410.145 421.331,407.314 				"/>
			</g>
			<g>
				<path style="fill:#182837;" d="M415.345,224.92c4.21-8.028,2.554-19.396-3.752-19.626c0,0-2.51-3.993-10.662-3.647
					c-8.152,0.346-5.8,4.966-5.8,4.966s-7.512,0.551,0.524,9.164l10.746-6.88l8.498,3.153L415.345,224.92z"/>
			</g>
			<g>
				<polygon style="fill:#4B6CA4;" points="395.267,406.173 367.489,406.173 372.48,356.026 386.241,288.112 403.891,288.112 
					403.222,323.668 394.665,357.897 				"/>
			</g>
			<g>
				<polygon style="fill:#4B6CA4;" points="416.493,408.072 441.215,405.665 426.454,357.329 426.755,288.112 403.891,288.112 
					403.222,323.668 405.629,359.502 				"/>
			</g>
			<g>
				<path style="fill:#F0DC84;" d="M404.837,238.971c8.755,0,18.508,2.667,26.188,7.202l-3.468,47.887h-43.121l-3.276-52.89
					C381.16,241.17,389.664,238.971,404.837,238.971z"/>
			</g>
			<g>
				<path style="fill:#F0DC84;" d="M428.335,244.934c0,0,10.381,2.653,10.718,17.746l-1.97,9.779l-15.243-12.936L428.335,244.934z"
					/>
			</g>
			<g>
				<path style="fill:#F0DC84;" d="M390.621,239.673c0,0-10.129,1.263-15.472-2.587l1.164,9.7c0,0,14.921,1.855,15.057,1.605
					C391.506,248.14,390.621,239.673,390.621,239.673z"/>
			</g>
			<g>
				<g>
					<path style="fill:#9C685B;" d="M342.006,205.73c0,0-0.729-18.427-14.889-13.819c0,0-2.298,0.697-0.773,2.321
						c0,0-1.951,0.983-0.243,2.736c0,0-1.016,1.59,0.987,2.091c0,0-0.571,2.046,2.397,1.395c3.128-0.686,5.559,0.283,4.761,2.194
						c-0.798,1.911-3.107-2.739-4.698-2.459c-1.59,0.28-2.008,4.396,1.06,7.618c2.651,2.784,1.326,3.756,2.769,4.934L342.006,205.73
						z"/>
				</g>
				<g>
					<path style="fill:#182837;" d="M333.622,203.203c-0.709,0-1.502-0.912-2.1-1.6c-0.134-0.154-0.255-0.293-0.357-0.4
						c-1.093-1.148-1.508-1.072-1.794-0.817l-0.192-0.215c0.666-0.593,1.448,0.049,2.195,0.833c0.105,0.11,0.229,0.252,0.366,0.41
						c0.584,0.672,1.465,1.688,2.049,1.471c0.361-0.132,0.797-0.82,0.827-3.346c0.017-1.444-0.449-2.611-1.387-3.468
						c-2.329-2.13-6.827-1.7-6.871-1.696l-0.029-0.287c0.189-0.02,4.672-0.446,7.095,1.77c1.001,0.915,1.499,2.155,1.481,3.684
						c-0.026,2.19-0.359,3.372-1.016,3.614C333.801,203.188,333.712,203.203,333.622,203.203z"/>
				</g>
				<g>
					<path style="fill:#182837;" d="M334.639,198.754c-6.06-2.97-8.443-1.676-8.467-1.662l-0.145-0.249
						c0.099-0.059,2.513-1.398,8.739,1.652L334.639,198.754z"/>
				</g>
				<g>
					<path style="fill:#182837;" d="M334.714,199.677c-4.582-1.539-7.548-0.494-7.578-0.483l-0.099-0.271
						c0.123-0.045,3.083-1.094,7.769,0.481L334.714,199.677z"/>
				</g>
			</g>
			<g>
				<g>
					<path style="fill:#9C685B;" d="M445.309,315.282c0,0,6,20.093-8.879,20.689c0,0-2.397,0.144-1.531-1.908
						c0,0-2.171-0.244-1.178-2.481c0,0-1.505-1.139,0.199-2.304c0,0-1.246-1.721,1.763-2.141c3.172-0.442,5.115-2.195,3.702-3.711
						c-1.412-1.515-1.963,3.648-3.552,3.938c-1.589,0.29-2.73-1.866-0.971-5.954c1.52-3.531,0.535-6.76,0.204-7.147L445.309,315.282
						z"/>
				</g>
				<g>
					<path style="fill:#182837;" d="M441.176,328.092c-0.006,0.649-0.156,1.27-0.458,1.855c-1.443,2.804-5.811,3.965-5.855,3.977
						l0.072,0.279c0.185-0.048,4.536-1.204,6.039-4.123c0.301-0.584,0.461-1.199,0.488-1.839
						C441.364,328.194,441.268,328.146,441.176,328.092z"/>
				</g>
				<g>
					<path style="fill:#182837;" d="M439.132,328.814c-3.423,2.896-5.362,2.631-5.386,2.627l-0.05,0.284
						c0.018,0.003,0.102,0.016,0.249,0.016c0.637,0,2.463-0.25,5.295-2.631C439.204,329.012,439.168,328.913,439.132,328.814z"/>
				</g>
				<g>
					<path style="fill:#182837;" d="M438.689,327.536c-2.728,1.562-4.744,1.598-4.769,1.598l0.001,0.288
						c0.105,0,2.111-0.034,4.859-1.603C438.75,327.727,438.72,327.632,438.689,327.536z"/>
				</g>
			</g>
			<g>
				<path style="fill:#F0DC84;" d="M438.176,256.252l6.834,22.054c0.66,2.129,1.115,4.315,1.361,6.53l3.973,31.748l-18.256-0.259
					l-3.545-34.315l-4.194-21.986L438.176,256.252z"/>
			</g>
			<g>
				<path style="fill:#9C685B;" d="M397.254,239.279c0.485,2.439,4.71,4.084,6.981,3.91c2.614-0.2,4.44-2.302,6.073-4.29
					l-5.056-1.258l-8.076,1.328C397.203,239.071,397.232,239.171,397.254,239.279z"/>
			</g>
			<g>
				<path style="fill:#F0DC84;" d="M329.583,213.129l16.647-12.034l3.429,5.875c7.904,13.544,18.652,25.212,31.502,34.2l0,0
					l10.224,22.69c0,0-14.87-4.64-24.598-10.356c-9.997-5.874-18.167-16.025-18.167-16.025L329.583,213.129z"/>
			</g>
			<g>
				<path style="fill:#182837;" d="M421.891,302.219c-1.563,0-2.828-0.493-3.759-1.467c-1.841-1.924-1.728-5.014-1.722-5.144
					l0.432,0.019c-0.001,0.03-0.109,3.04,1.604,4.828c0.846,0.883,2.006,1.331,3.445,1.331V302.219z"/>
			</g>
			<g>
				<path style="fill:#182837;" d="M383.481,302.219v-0.433c1.441,0,2.6-0.449,3.447-1.333c1.715-1.792,1.604-4.796,1.603-4.826
					l0.432-0.019c0.006,0.131,0.119,3.22-1.722,5.144C386.308,301.726,385.044,302.219,383.481,302.219z"/>
			</g>
			<g>
				
					<rect x="416.015" y="404.491" transform="matrix(0.9952 -0.0978 0.0978 0.9952 -37.5429 43.7572)" style="fill:#182837;" width="22.82" height="0.432"/>
			</g>
			<g>
				<rect x="369.302" y="403.375" style="fill:#182837;" width="23.925" height="0.433"/>
			</g>
			<g>
				<path style="fill:#182837;" d="M401.137,230.592c-1.057,0-1.751-0.378-1.8-0.406l0.224-0.399l-0.112,0.199l0.112-0.2
					c0.077,0.043,1.911,1.028,4.192-0.521l0.257,0.379C402.928,230.378,401.93,230.592,401.137,230.592z"/>
			</g>
			<g>
				<path style="fill:#182837;" d="M397.786,214.121c0,0-0.153,1.223-2.321,4.327l0.399-5.608L397.786,214.121z"/>
			</g>
			<g>
				<circle style="fill:#182837;" cx="397.772" cy="255.273" r="0.736"/>
			</g>
			<g>
				<circle style="fill:#182837;" cx="397.772" cy="266.405" r="0.736"/>
			</g>
			<g>
				<circle style="fill:#182837;" cx="397.772" cy="277.537" r="0.736"/>
			</g>
			<g>
				
					<rect x="400.152" y="306.105" transform="matrix(0.2059 -0.9786 0.9786 0.2059 15.3805 637.3156)" style="fill:#182837;" width="0.433" height="6.152"/>
			</g>
			<polygon style="fill:#F0DC84;" points="399.305,237.872 401.616,241.73 409.806,237.872 413.156,239.713 403.344,247.687 
				401.261,244.539 399.044,246.327 395.878,239.383 			"/>
			<g>
				<polygon style="fill:#182837;" points="403.289,248.046 401.206,244.896 398.953,246.714 395.656,239.484 396.099,239.282 
					399.135,245.94 401.316,244.181 403.399,247.329 413.003,239.524 413.309,239.902 				"/>
			</g>
			<g>
				<polygon style="fill:#182837;" points="403.387,329.759 401.375,309.69 401.86,309.641 403.872,329.709 				"/>
			</g>
			<g>
				
					<rect x="426.202" y="260.691" transform="matrix(0.9808 -0.1949 0.1949 0.9808 -44.7209 88.3006)" style="fill:#182837;" width="0.487" height="21.525"/>
			</g>
			<g>
				<rect x="400.183" y="253.026" style="fill:#182837;" width="0.487" height="30.835"/>
			</g>
			<g>
				<rect x="409.805" y="256.487" style="fill:#182837;" width="7.413" height="0.487"/>
			</g>
		</g>
		<g>
			<g>
				<g>
					<g>
						<circle style="fill:#FFFFFF;" cx="391.306" cy="77.411" r="24.258"/>
					</g>
				</g>
				<g>
					<g>
						<g>
							<path style="fill:#DEEDFB;" d="M412.263,78.809v-2.795h3.258c-0.201-3.532-1.159-6.859-2.712-9.828l-2.898,1.571l-0.357-0.66
								l2.898-1.57c-1.884-3.344-4.534-6.197-7.718-8.317l-1.782,2.774l-0.631-0.405l1.782-2.773
								c-3.344-2.081-7.229-3.371-11.398-3.608v3.258h-2.795v-3.258c-3.532,0.201-6.859,1.159-9.828,2.712l1.57,2.898l-0.66,0.357
								l-1.57-2.898c-3.344,1.884-6.197,4.535-8.318,7.718l2.774,1.782l-0.406,0.631l-2.773-1.782
								c-2.081,3.344-3.371,7.229-3.608,11.398h3.258v2.795h-3.258c0.201,3.532,1.159,6.859,2.712,9.828l2.898-1.571l0.357,0.66
								l-2.898,1.57c1.884,3.344,4.534,6.197,7.718,8.317l1.782-2.774l0.631,0.405l-1.782,2.773
								c3.344,2.081,7.229,3.371,11.398,3.608v-3.258h2.795v3.258c3.532-0.201,6.859-1.159,9.828-2.712l-1.571-2.898l0.66-0.357
								l1.57,2.898c3.344-1.884,6.197-4.535,8.317-7.718l-2.774-1.782l0.406-0.631l2.773,1.782
								c2.081-3.344,3.371-7.229,3.608-11.398H412.263z"/>
						</g>
					</g>
					<g>
						<g>
							<path style="fill:#FFFFFF;" d="M392.704,56.454v-3.258c-0.463-0.026-0.928-0.043-1.398-0.043
								c-0.469,0-0.935,0.017-1.398,0.043v3.258H392.704z"/>
						</g>
					</g>
					<g>
						<g>
							<path style="fill:#FFFFFF;" d="M389.908,98.368v3.258c0.463,0.026,0.928,0.043,1.398,0.043c0.469,0,0.935-0.017,1.398-0.043
								v-3.258H389.908z"/>
						</g>
					</g>
					<g>
						<g>
							<path style="fill:#FFFFFF;" d="M373.878,65.766l-2.774-1.782c-0.138,0.208-0.273,0.419-0.405,0.631l2.773,1.782
								L373.878,65.766z"/>
						</g>
					</g>
					<g>
						<g>
							<path style="fill:#FFFFFF;" d="M408.734,89.056l2.774,1.782c0.139-0.208,0.273-0.419,0.405-0.632l-2.773-1.782
								L408.734,89.056z"/>
						</g>
					</g>
					<g>
						<g>
							<path style="fill:#FFFFFF;" d="M379.661,94.839l-1.782,2.774c0.208,0.139,0.419,0.273,0.632,0.405l1.782-2.773
								L379.661,94.839z"/>
						</g>
					</g>
					<g>
						<g>
							<path style="fill:#FFFFFF;" d="M402.951,59.983l1.782-2.774c-0.208-0.139-0.419-0.273-0.632-0.405l-1.782,2.773
								L402.951,59.983z"/>
						</g>
					</g>
					<g>
						<g>
							<path style="fill:#FFFFFF;" d="M381.651,58.806l-1.57-2.898c-0.222,0.116-0.441,0.235-0.659,0.358l1.57,2.898L381.651,58.806
								z"/>
						</g>
					</g>
					<g>
						<g>
							<path style="fill:#FFFFFF;" d="M400.961,96.016l1.571,2.898c0.222-0.116,0.441-0.235,0.659-0.358l-1.57-2.898L400.961,96.016
								z"/>
						</g>
					</g>
					<g>
						<g>
							<path style="fill:#FFFFFF;" d="M372.702,87.066l-2.898,1.571c0.116,0.222,0.235,0.442,0.358,0.659l2.898-1.57L372.702,87.066
								z"/>
						</g>
					</g>
					<g>
						<g>
							<path style="fill:#FFFFFF;" d="M409.911,67.756l2.898-1.571c-0.116-0.222-0.235-0.441-0.358-0.659l-2.898,1.57
								L409.911,67.756z"/>
						</g>
					</g>
					<g>
						<g>
							<path style="fill:#FFFFFF;" d="M370.349,76.013h-3.258c-0.026,0.463-0.043,0.928-0.043,1.398
								c0,0.469,0.017,0.935,0.043,1.398h3.258V76.013z"/>
						</g>
					</g>
					<g>
						<g>
							<path style="fill:#FFFFFF;" d="M412.263,78.809h3.258c0.026-0.463,0.043-0.928,0.043-1.398c0-0.469-0.017-0.935-0.043-1.398
								h-3.258V78.809z"/>
						</g>
					</g>
				</g>
				<g>
					<g>
						<g>
							<g>
								
									<rect x="388.568" y="67.958" transform="matrix(0.7071 -0.7071 0.7071 0.7071 67.9311 301.2418)" style="fill:#FFFFFF;" width="18.113" height="1.313"/>
							</g>
						</g>
						<g>
							<g>
								
									<rect x="386.772" y="66.149" transform="matrix(0.7071 -0.7071 0.7071 0.7071 63.1106 294.8147)" style="fill:#FFFFFF;" width="1.313" height="10.154"/>
							</g>
						</g>
						<g>
							<g>
								<rect x="390.892" y="75.018" style="fill:#FFFFFF;" width="0.656" height="22.182"/>
							</g>
						</g>
					</g>
					<g>
						<g>
							<g>
								<path style="fill:#FFFFFF;" d="M388.521,72.319c-1.491,1.491-1.491,3.908,0,5.399c1.491,1.491,3.908,1.491,5.399,0
									c1.491-1.491,1.491-3.908,0-5.399C392.429,70.828,390.012,70.828,388.521,72.319z"/>
							</g>
						</g>
						<g>
							<g>
								<path style="fill:#FFFFFF;" d="M389.575,73.373c-0.909,0.909-0.909,2.382,0,3.29s2.382,0.909,3.29,0s0.909-2.382,0-3.29
									S390.484,72.465,389.575,73.373z"/>
							</g>
						</g>
						<g>
							<g>
								<path style="fill:#FFFFFF;" d="M390.639,74.437c-0.321,0.321-0.321,0.842,0,1.163c0.321,0.321,0.842,0.321,1.163,0
									c0.321-0.321,0.321-0.842,0-1.163C391.481,74.116,390.96,74.116,390.639,74.437z"/>
							</g>
						</g>
					</g>
				</g>
			</g>
			<g>
				<path style="fill:#D8E7ED;" d="M391.04,102.04c-13.727,0-24.896-11.168-24.896-24.895c0-13.728,11.169-24.896,24.896-24.896
					c13.727,0,24.895,11.168,24.895,24.896C415.935,90.872,404.767,102.04,391.04,102.04z M391.04,52.979
					c-13.325,0-24.165,10.84-24.165,24.165c0,13.324,10.84,24.165,24.165,24.165c13.325,0,24.165-10.84,24.165-24.165
					C415.205,63.82,404.364,52.979,391.04,52.979z"/>
			</g>
		</g>
		<g>
			<g>
				<g>
					<g>
						<g>
							<circle style="fill:#FFFFFF;" cx="458.488" cy="245.038" r="9.52"/>
						</g>
					</g>
				</g>
				<g>
					<g>
						<g>
							<g>
								<path style="fill:#FFFFFF;" d="M466.712,245.587v-1.097h1.278c-0.079-1.386-0.455-2.692-1.064-3.857l-1.137,0.616
									l-0.14-0.259l1.137-0.616c-0.739-1.312-1.78-2.432-3.029-3.264l-0.699,1.089l-0.248-0.159l0.699-1.088
									c-1.312-0.817-2.837-1.323-4.473-1.416v1.279h-1.097v-1.279c-1.386,0.079-2.692,0.455-3.857,1.064l0.616,1.137l-0.259,0.14
									l-0.616-1.137c-1.312,0.739-2.432,1.779-3.264,3.029l1.089,0.699l-0.159,0.248l-1.088-0.699
									c-0.817,1.312-1.323,2.837-1.416,4.473h1.279v1.097h-1.279c0.079,1.386,0.455,2.692,1.064,3.857l1.137-0.616l0.14,0.259
									l-1.137,0.616c0.739,1.312,1.779,2.432,3.029,3.264l0.7-1.089l0.248,0.159l-0.699,1.088
									c1.312,0.817,2.837,1.323,4.473,1.416v-1.279h1.097v1.279c1.386-0.079,2.692-0.455,3.857-1.064l-0.616-1.137l0.259-0.14
									l0.616,1.137c1.312-0.739,2.432-1.78,3.264-3.029l-1.089-0.699l0.159-0.248l1.088,0.699
									c0.817-1.312,1.323-2.837,1.416-4.473H466.712z"/>
							</g>
						</g>
					</g>
					<g>
						<g>
							<g>
								<path style="fill:#DEEDFB;" d="M459.036,236.814v-1.279c-0.182-0.01-0.364-0.017-0.548-0.017s-0.367,0.007-0.548,0.017
									v1.279H459.036z"/>
							</g>
						</g>
					</g>
					<g>
						<g>
							<g>
								<path style="fill:#DEEDFB;" d="M457.939,253.263v1.279c0.182,0.01,0.364,0.017,0.548,0.017s0.367-0.007,0.548-0.017v-1.279
									H457.939z"/>
							</g>
						</g>
					</g>
					<g>
						<g>
							<g>
								<path style="fill:#DEEDFB;" d="M451.648,240.468l-1.089-0.699c-0.054,0.082-0.107,0.164-0.159,0.248l1.088,0.699
									L451.648,240.468z"/>
							</g>
						</g>
					</g>
					<g>
						<g>
							<g>
								<path style="fill:#DEEDFB;" d="M465.327,249.608l1.089,0.699c0.054-0.082,0.107-0.164,0.159-0.248l-1.088-0.699
									L465.327,249.608z"/>
							</g>
						</g>
					</g>
					<g>
						<g>
							<g>
								<path style="fill:#DEEDFB;" d="M453.918,251.878l-0.7,1.089c0.082,0.054,0.165,0.107,0.248,0.159l0.699-1.088
									L453.918,251.878z"/>
							</g>
						</g>
					</g>
					<g>
						<g>
							<g>
								<path style="fill:#DEEDFB;" d="M463.058,238.199l0.699-1.089c-0.082-0.054-0.165-0.107-0.248-0.159l-0.699,1.088
									L463.058,238.199z"/>
							</g>
						</g>
					</g>
					<g>
						<g>
							<g>
								<path style="fill:#DEEDFB;" d="M454.699,237.737l-0.616-1.137c-0.087,0.046-0.173,0.092-0.259,0.141l0.616,1.137
									L454.699,237.737z"/>
							</g>
						</g>
					</g>
					<g>
						<g>
							<g>
								<path style="fill:#DEEDFB;" d="M462.277,252.339l0.616,1.137c0.087-0.046,0.173-0.092,0.259-0.14l-0.616-1.137
									L462.277,252.339z"/>
							</g>
						</g>
					</g>
					<g>
						<g>
							<g>
								<path style="fill:#DEEDFB;" d="M451.187,248.827l-1.137,0.616c0.046,0.087,0.092,0.173,0.141,0.259l1.137-0.616
									L451.187,248.827z"/>
							</g>
						</g>
					</g>
					<g>
						<g>
							<g>
								<path style="fill:#DEEDFB;" d="M465.789,241.249l1.137-0.616c-0.045-0.087-0.092-0.173-0.14-0.259l-1.137,0.616
									L465.789,241.249z"/>
							</g>
						</g>
					</g>
					<g>
						<g>
							<g>
								<path style="fill:#DEEDFB;" d="M450.263,244.49h-1.279c-0.01,0.182-0.017,0.364-0.017,0.549s0.007,0.367,0.017,0.548h1.279
									V244.49z"/>
							</g>
						</g>
					</g>
					<g>
						<g>
							<g>
								<path style="fill:#DEEDFB;" d="M466.712,245.587h1.278c0.01-0.182,0.017-0.364,0.017-0.548s-0.007-0.367-0.017-0.549h-1.278
									V245.587z"/>
							</g>
						</g>
					</g>
				</g>
				<g>
					<g>
						<g>
							<g>
								<g>
									
										<rect x="457.413" y="241.328" transform="matrix(0.7071 -0.7071 0.7071 0.7071 -35.8154 396.7042)" style="fill:#DEEDFB;" width="7.108" height="0.515"/>
								</g>
							</g>
						</g>
						<g>
							<g>
								<g>
									
										<rect x="456.708" y="240.619" transform="matrix(0.7071 -0.7071 0.7071 0.7071 -37.7099 394.1819)" style="fill:#DEEDFB;" width="0.515" height="3.985"/>
								</g>
							</g>
						</g>
						<g>
							<g>
								<g>
									<rect x="458.325" y="244.099" style="fill:#DEEDFB;" width="0.258" height="8.705"/>
								</g>
							</g>
						</g>
					</g>
					<g>
						<g>
							<g>
								<g>
									<path style="fill:#DEEDFB;" d="M457.395,243.04c-0.585,0.585-0.585,1.534,0,2.119c0.585,0.585,1.534,0.585,2.119,0
										c0.585-0.585,0.585-1.534,0-2.119C458.928,242.455,457.98,242.455,457.395,243.04z"/>
								</g>
							</g>
						</g>
						<g>
							<g>
								<g>
									<path style="fill:#DEEDFB;" d="M457.809,243.454c-0.357,0.357-0.357,0.935,0,1.291c0.357,0.357,0.935,0.357,1.291,0
										c0.357-0.357,0.357-0.935,0-1.291C458.743,243.097,458.165,243.097,457.809,243.454z"/>
								</g>
							</g>
						</g>
						<g>
							<g>
								<g>
									<path style="fill:#FFFFFF;" d="M458.226,243.871c-0.126,0.126-0.126,0.331,0,0.456c0.126,0.126,0.33,0.126,0.456,0
										c0.126-0.126,0.126-0.33,0-0.456C458.556,243.745,458.352,243.745,458.226,243.871z"/>
								</g>
							</g>
						</g>
					</g>
				</g>
			</g>
			<g>
				<path style="fill:#D8E7ED;" d="M458.383,254.745c-5.41,0-9.812-4.401-9.812-9.812c0-5.41,4.402-9.812,9.812-9.812
					s9.812,4.401,9.812,9.812C468.195,250.344,463.793,254.745,458.383,254.745z M458.383,235.492c-5.206,0-9.442,4.236-9.442,9.442
					s4.235,9.442,9.442,9.442s9.442-4.235,9.442-9.442S463.59,235.492,458.383,235.492z"/>
			</g>
		</g>
		<g>
			<g>
				<g>
					<g>
						<g>
							
								<ellipse transform="matrix(0.7197 -0.6943 0.6943 0.7197 -91.1523 123.8021)" style="fill:#FFFFFF;" cx="107.753" cy="174.794" rx="11.583" ry="11.583"/>
						</g>
					</g>
				</g>
				<g>
					<g>
						<g>
							<g>
								<path style="fill:#FFFFFF;" d="M117.76,175.461v-1.335h1.556c-0.096-1.686-0.554-3.275-1.295-4.693l-1.384,0.75
									l-0.171-0.315l1.384-0.75c-0.899-1.597-2.165-2.959-3.685-3.972l-0.851,1.324l-0.301-0.194l0.851-1.324
									c-1.597-0.994-3.452-1.61-5.443-1.723v1.556h-1.335v-1.556c-1.687,0.096-3.275,0.553-4.693,1.295l0.75,1.384l-0.315,0.171
									l-0.75-1.384c-1.597,0.899-2.959,2.165-3.972,3.685l1.325,0.851l-0.194,0.301l-1.324-0.851
									c-0.994,1.597-1.61,3.452-1.723,5.443h1.556v1.335H96.19c0.096,1.686,0.554,3.275,1.295,4.693l1.384-0.75l0.171,0.315
									l-1.384,0.75c0.899,1.597,2.165,2.959,3.685,3.972l0.851-1.324l0.301,0.194l-0.851,1.324
									c1.597,0.994,3.452,1.61,5.443,1.723v-1.556h1.335v1.556c1.686-0.096,3.275-0.553,4.693-1.295l-0.75-1.384l0.315-0.171
									l0.75,1.384c1.597-0.899,2.959-2.165,3.972-3.685l-1.325-0.851l0.194-0.301l1.324,0.851c0.994-1.597,1.61-3.452,1.723-5.443
									H117.76z"/>
							</g>
						</g>
					</g>
					<g>
						<g>
							<g>
								<path style="fill:#DEEDFB;" d="M108.421,164.786v-1.556c-0.221-0.013-0.443-0.021-0.667-0.021
									c-0.224,0-0.446,0.008-0.667,0.021v1.556H108.421z"/>
							</g>
						</g>
					</g>
					<g>
						<g>
							<g>
								<path style="fill:#DEEDFB;" d="M107.086,184.801v1.556c0.221,0.013,0.443,0.021,0.667,0.021
									c0.224,0,0.446-0.008,0.667-0.021v-1.556H107.086z"/>
							</g>
						</g>
					</g>
					<g>
						<g>
							<g>
								<path style="fill:#DEEDFB;" d="M99.431,169.233l-1.325-0.851c-0.066,0.099-0.13,0.2-0.193,0.301l1.324,0.851L99.431,169.233
									z"/>
							</g>
						</g>
					</g>
					<g>
						<g>
							<g>
								<path style="fill:#DEEDFB;" d="M116.075,180.354l1.325,0.851c0.066-0.099,0.13-0.2,0.193-0.302l-1.324-0.851
									L116.075,180.354z"/>
							</g>
						</g>
					</g>
					<g>
						<g>
							<g>
								<path style="fill:#DEEDFB;" d="M102.193,183.116l-0.851,1.324c0.099,0.066,0.2,0.13,0.301,0.193l0.851-1.324
									L102.193,183.116z"/>
							</g>
						</g>
					</g>
					<g>
						<g>
							<g>
								<path style="fill:#DEEDFB;" d="M113.314,166.471l0.851-1.324c-0.099-0.066-0.2-0.13-0.302-0.193l-0.851,1.324
									L113.314,166.471z"/>
							</g>
						</g>
					</g>
					<g>
						<g>
							<g>
								<path style="fill:#DEEDFB;" d="M103.143,165.91l-0.75-1.384c-0.106,0.055-0.211,0.112-0.315,0.171l0.75,1.384
									L103.143,165.91z"/>
							</g>
						</g>
					</g>
					<g>
						<g>
							<g>
								<path style="fill:#DEEDFB;" d="M112.363,183.677l0.75,1.384c0.106-0.055,0.211-0.112,0.315-0.171l-0.75-1.384
									L112.363,183.677z"/>
							</g>
						</g>
					</g>
					<g>
						<g>
							<g>
								<path style="fill:#DEEDFB;" d="M98.869,179.404l-1.384,0.75c0.055,0.106,0.112,0.211,0.171,0.315l1.384-0.75L98.869,179.404
									z"/>
							</g>
						</g>
					</g>
					<g>
						<g>
							<g>
								<path style="fill:#DEEDFB;" d="M116.637,170.183l1.384-0.75c-0.055-0.106-0.112-0.211-0.171-0.315l-1.384,0.75
									L116.637,170.183z"/>
							</g>
						</g>
					</g>
					<g>
						<g>
							<g>
								<path style="fill:#DEEDFB;" d="M97.746,174.126H96.19c-0.013,0.221-0.021,0.443-0.021,0.667
									c0,0.224,0.008,0.446,0.021,0.667h1.556V174.126z"/>
							</g>
						</g>
					</g>
					<g>
						<g>
							<g>
								<path style="fill:#DEEDFB;" d="M117.76,175.461h1.556c0.013-0.221,0.02-0.443,0.02-0.667c0-0.224-0.008-0.446-0.02-0.667
									h-1.556V175.461z"/>
							</g>
						</g>
					</g>
				</g>
				<g>
					<g>
						<g>
							<g>
								<g>
									
										<rect x="106.446" y="170.28" transform="matrix(0.7071 -0.7071 0.7071 0.7071 -88.1838 128.2919)" style="fill:#DEEDFB;" width="8.649" height="0.627"/>
								</g>
							</g>
						</g>
						<g>
							<g>
								<g>
									
										<rect x="105.588" y="169.416" transform="matrix(0.7071 -0.7071 0.7071 0.7071 -90.4916 125.2145)" style="fill:#DEEDFB;" width="0.627" height="4.848"/>
								</g>
							</g>
						</g>
						<g>
							<g>
								<g>
									<rect x="107.556" y="173.651" style="fill:#DEEDFB;" width="0.314" height="10.592"/>
								</g>
							</g>
						</g>
					</g>
					<g>
						<g>
							<g>
								<g>
									<path style="fill:#DEEDFB;" d="M106.423,172.362c-0.712,0.712-0.712,1.866,0,2.578c0.712,0.712,1.866,0.712,2.578,0
										c0.712-0.712,0.712-1.866,0-2.578C108.289,171.65,107.135,171.65,106.423,172.362z"/>
								</g>
							</g>
						</g>
						<g>
							<g>
								<g>
									<path style="fill:#DEEDFB;" d="M106.927,172.865c-0.434,0.434-0.434,1.137,0,1.571c0.434,0.434,1.137,0.434,1.571,0
										c0.434-0.434,0.434-1.137,0-1.571C108.064,172.432,107.361,172.432,106.927,172.865z"/>
								</g>
							</g>
						</g>
						<g>
							<g>
								<g>
									<path style="fill:#FFFFFF;" d="M107.435,173.373c-0.153,0.153-0.153,0.402,0,0.555c0.153,0.153,0.402,0.153,0.555,0
										c0.153-0.153,0.153-0.402,0-0.555C107.837,173.22,107.588,173.22,107.435,173.373z"/>
								</g>
							</g>
						</g>
					</g>
				</g>
			</g>
			<g>
				<path style="fill:#D8E7ED;" d="M107.626,186.605c-6.583,0-11.938-5.355-11.938-11.938c0-6.583,5.356-11.938,11.938-11.938
					c6.583,0,11.938,5.355,11.938,11.938C119.564,181.249,114.209,186.605,107.626,186.605z M107.626,163.178
					c-6.335,0-11.488,5.154-11.488,11.488c0,6.335,5.153,11.488,11.488,11.488c6.335,0,11.488-5.153,11.488-11.488
					C119.114,168.331,113.961,163.178,107.626,163.178z"/>
			</g>
		</g>
		<g>
			<g>
				<g>
					<g>
						<g>
							
								<ellipse transform="matrix(0.3861 -0.9224 0.9224 0.3861 50.554 214.0686)" style="fill:#FFFFFF;" cx="186.117" cy="69.051" rx="14.73" ry="14.73"/>
						</g>
					</g>
				</g>
				<g>
					<g>
						<g>
							<g>
								<path style="fill:#DEEDFB;" d="M198.842,69.899v-1.697h1.978c-0.122-2.145-0.704-4.165-1.647-5.967l-1.76,0.954
									l-0.217-0.401l1.76-0.953c-1.144-2.031-2.753-3.763-4.686-5.051l-1.082,1.684l-0.383-0.246l1.082-1.684
									c-2.03-1.263-4.39-2.047-6.921-2.191v1.978h-1.697v-1.978c-2.145,0.122-4.165,0.704-5.967,1.647l0.954,1.76l-0.4,0.217
									l-0.954-1.76c-2.031,1.144-3.763,2.753-5.05,4.686l1.684,1.082l-0.246,0.383l-1.684-1.082
									c-1.264,2.03-2.047,4.39-2.191,6.921h1.978v1.697h-1.978c0.122,2.145,0.704,4.165,1.647,5.967l1.76-0.954l0.217,0.4
									l-1.76,0.953c1.144,2.031,2.753,3.763,4.686,5.05l1.082-1.684l0.383,0.246l-1.082,1.684c2.03,1.263,4.39,2.047,6.921,2.191
									v-1.978h1.697v1.978c2.145-0.122,4.165-0.704,5.967-1.647l-0.954-1.76l0.4-0.217l0.954,1.76
									c2.031-1.144,3.763-2.753,5.05-4.686l-1.684-1.082l0.246-0.383l1.684,1.082c1.264-2.03,2.047-4.39,2.191-6.921H198.842z"/>
							</g>
						</g>
					</g>
					<g>
						<g>
							<g>
								<path style="fill:#FFFFFF;" d="M186.965,56.325v-1.978c-0.281-0.016-0.564-0.026-0.849-0.026s-0.568,0.01-0.849,0.026v1.978
									H186.965z"/>
							</g>
						</g>
					</g>
					<g>
						<g>
							<g>
								<path style="fill:#FFFFFF;" d="M185.268,81.776v1.978c0.281,0.016,0.564,0.026,0.849,0.026s0.568-0.01,0.849-0.026v-1.978
									H185.268z"/>
							</g>
						</g>
					</g>
					<g>
						<g>
							<g>
								<path style="fill:#FFFFFF;" d="M175.534,61.98l-1.684-1.082c-0.084,0.126-0.166,0.254-0.246,0.383l1.684,1.082
									L175.534,61.98z"/>
							</g>
						</g>
					</g>
					<g>
						<g>
							<g>
								<path style="fill:#FFFFFF;" d="M196.699,76.121l1.684,1.082c0.084-0.126,0.165-0.254,0.246-0.383l-1.684-1.082
									L196.699,76.121z"/>
							</g>
						</g>
					</g>
					<g>
						<g>
							<g>
								<path style="fill:#FFFFFF;" d="M179.046,79.633l-1.082,1.684c0.126,0.084,0.255,0.166,0.383,0.246l1.082-1.684
									L179.046,79.633z"/>
							</g>
						</g>
					</g>
					<g>
						<g>
							<g>
								<path style="fill:#FFFFFF;" d="M193.188,58.468l1.082-1.684c-0.126-0.084-0.255-0.165-0.384-0.246l-1.082,1.684
									L193.188,58.468z"/>
							</g>
						</g>
					</g>
					<g>
						<g>
							<g>
								<path style="fill:#FFFFFF;" d="M180.255,57.754l-0.954-1.76c-0.135,0.07-0.268,0.143-0.4,0.217l0.954,1.76L180.255,57.754z"
									/>
							</g>
						</g>
					</g>
					<g>
						<g>
							<g>
								<path style="fill:#FFFFFF;" d="M191.979,80.348l0.954,1.76c0.135-0.07,0.268-0.143,0.4-0.217l-0.954-1.76L191.979,80.348z"
									/>
							</g>
						</g>
					</g>
					<g>
						<g>
							<g>
								<path style="fill:#FFFFFF;" d="M174.82,74.913l-1.76,0.954c0.07,0.135,0.143,0.268,0.217,0.4l1.76-0.953L174.82,74.913z"/>
							</g>
						</g>
					</g>
					<g>
						<g>
							<g>
								<path style="fill:#FFFFFF;" d="M197.414,63.188l1.76-0.954c-0.07-0.135-0.143-0.268-0.217-0.4l-1.76,0.953L197.414,63.188z"
									/>
							</g>
						</g>
					</g>
					<g>
						<g>
							<g>
								<path style="fill:#FFFFFF;" d="M173.391,68.202h-1.978c-0.016,0.281-0.026,0.564-0.026,0.849
									c0,0.285,0.01,0.568,0.026,0.849h1.978V68.202z"/>
							</g>
						</g>
					</g>
					<g>
						<g>
							<g>
								<path style="fill:#FFFFFF;" d="M198.842,69.899h1.978c0.016-0.281,0.026-0.564,0.026-0.849c0-0.285-0.01-0.568-0.026-0.849
									h-1.978V69.899z"/>
							</g>
						</g>
					</g>
				</g>
				<g>
					<g>
						<g>
							<g>
								<g>
									
										<rect x="184.454" y="63.311" transform="matrix(0.7071 -0.7071 0.7071 0.7071 10.5867 152.9773)" style="fill:#FFFFFF;" width="10.998" height="0.797"/>
								</g>
							</g>
						</g>
						<g>
							<g>
								<g>
									
										<rect x="183.363" y="62.213" transform="matrix(0.7071 -0.7071 0.7071 0.7071 7.6511 149.062)" style="fill:#FFFFFF;" width="0.797" height="6.165"/>
								</g>
							</g>
						</g>
						<g>
							<g>
								<g>
									<rect x="185.866" y="67.598" style="fill:#FFFFFF;" width="0.399" height="13.469"/>
								</g>
							</g>
						</g>
					</g>
					<g>
						<g>
							<g>
								<g>
									<path style="fill:#FFFFFF;" d="M184.426,65.959c-0.905,0.905-0.905,2.373,0,3.278s2.373,0.905,3.278,0
										c0.905-0.905,0.905-2.373,0-3.278C186.799,65.054,185.331,65.054,184.426,65.959z"/>
								</g>
							</g>
						</g>
						<g>
							<g>
								<g>
									<path style="fill:#FFFFFF;" d="M185.066,66.599c-0.552,0.552-0.552,1.446,0,1.998c0.552,0.552,1.446,0.552,1.998,0
										c0.552-0.552,0.552-1.446,0-1.998S185.618,66.047,185.066,66.599z"/>
								</g>
							</g>
						</g>
						<g>
							<g>
								<g>
									<path style="fill:#FFFFFF;" d="M185.712,67.245c-0.195,0.195-0.195,0.511,0,0.706c0.195,0.195,0.511,0.195,0.706,0
										c0.195-0.195,0.195-0.511,0-0.706C186.223,67.05,185.907,67.05,185.712,67.245z"/>
								</g>
							</g>
						</g>
					</g>
				</g>
			</g>
			<g>
				<path style="fill:#D8E7ED;" d="M185.955,84.07c-8.371,0-15.181-6.81-15.181-15.181s6.81-15.181,15.181-15.181
					s15.181,6.81,15.181,15.181S194.326,84.07,185.955,84.07z M185.955,54.28c-8.055,0-14.609,6.553-14.609,14.609
					c0,8.055,6.553,14.609,14.609,14.609s14.609-6.553,14.609-14.609C200.564,60.833,194.011,54.28,185.955,54.28z"/>
			</g>
		</g>
		<polygon style="fill:#DEEDFB;" points="51.149,135.815 53.021,139.238 56.444,141.11 53.021,142.982 51.149,146.404 
			49.277,142.982 45.854,141.11 49.277,139.238 		"/>
		<polygon style="fill:#DEEDFB;" points="142.811,105.155 143.964,107.264 146.072,108.417 143.964,109.57 142.811,111.678 
			141.658,109.57 139.55,108.417 141.658,107.264 		"/>
		<polygon style="fill:#DEEDFB;" points="256.729,64.258 258.6,67.681 262.023,69.553 258.6,71.425 256.729,74.847 254.857,71.425 
			251.434,69.553 254.857,67.681 		"/>
		<polygon style="fill:#DEEDFB;" points="346.913,90.631 347.654,91.986 349.009,92.727 347.654,93.469 346.913,94.824 
			346.171,93.469 344.816,92.727 346.171,91.986 		"/>
		<polygon style="fill:#DEEDFB;" points="318.423,35.799 319.576,37.907 321.685,39.06 319.576,40.213 318.423,42.321 
			317.27,40.213 315.162,39.06 317.27,37.907 		"/>
		<polygon style="fill:#FFFFFF;" points="395.144,134 396.884,137.181 400.065,138.921 396.884,140.661 395.144,143.842 
			393.404,140.661 390.223,138.921 393.404,137.181 		"/>
		<polygon style="fill:#DEEDFB;" points="415.966,224.73 416.907,226.451 418.627,227.391 416.907,228.332 415.966,230.053 
			415.025,228.332 413.305,227.391 415.025,226.451 		"/>
		<polygon style="fill:#DEEDFB;" points="422.148,39.291 422.889,40.647 424.244,41.388 422.889,42.129 422.148,43.484 
			421.407,42.129 420.051,41.388 421.407,40.647 		"/>
		<polygon style="fill:#DEEDFB;" points="479.909,198.264 480.711,199.73 482.177,200.531 480.711,201.333 479.909,202.799 
			479.108,201.333 477.642,200.531 479.108,199.73 		"/>
		<polygon style="fill:#DEEDFB;" points="457.24,91.184 458.392,93.292 460.501,94.445 458.392,95.598 457.24,97.706 
			456.086,95.598 453.978,94.445 456.086,93.292 		"/>
		<polygon style="fill:#FFFFFF;" points="31.339,256.102 32.357,257.962 34.217,258.98 32.357,259.998 31.339,261.859 
			30.321,259.998 28.46,258.98 30.321,257.962 		"/>
		<polygon style="fill:#DEEDFB;" points="63.819,39.291 64.56,40.647 65.915,41.388 64.56,42.129 63.819,43.484 63.078,42.129 
			61.722,41.388 63.078,40.647 		"/>
		<polygon style="fill:#FFFFFF;" points="157.34,144.025 158.85,146.786 161.612,148.297 158.85,149.807 157.34,152.569 
			155.83,149.807 153.068,148.297 155.83,146.786 		"/>
		<polygon style="fill:#DEEDFB;" points="140.996,48.632 141.637,49.805 142.811,50.447 141.637,51.088 140.996,52.262 
			140.354,51.088 139.181,50.447 140.354,49.805 		"/>
		<g>
			<path style="fill:#FFFFFF;" d="M46.086,411.586h187.388c2.195,0,3.974-1.779,3.974-3.974V224.483
				c0-2.195-1.779-3.974-3.974-3.974H46.086c-2.195,0-3.974,1.779-3.974,3.974v183.129
				C42.112,409.807,43.891,411.586,46.086,411.586z"/>
		</g>
		<g>
			
				<rect x="51.286" y="226.536" transform="matrix(-1 -1.224647e-16 1.224647e-16 -1 279.5591 488.5128)" style="fill:#4B6CA4;" width="176.987" height="35.442"/>
		</g>
		<g>
			<g>
				
					<rect x="197.482" y="271.126" transform="matrix(-1 -1.224647e-16 1.224647e-16 -1 421.1414 568.4303)" style="fill:#DEEDFB;" width="26.178" height="26.178"/>
			</g>
			<g>
				
					<rect x="161.305" y="271.126" transform="matrix(-1 -1.224647e-16 1.224647e-16 -1 348.788 568.4303)" style="fill:#DEEDFB;" width="26.178" height="26.178"/>
			</g>
			<g>
				
					<rect x="125.128" y="271.126" transform="matrix(-1 -1.224647e-16 1.224647e-16 -1 276.4345 568.4303)" style="fill:#DEEDFB;" width="26.178" height="26.178"/>
			</g>
			<g>
				
					<rect x="88.951" y="271.126" transform="matrix(-1 -1.224647e-16 1.224647e-16 -1 204.081 568.4303)" style="fill:#DEEDFB;" width="26.178" height="26.178"/>
			</g>
			<g>
				
					<rect x="52.775" y="271.126" transform="matrix(-1 -1.224647e-16 1.224647e-16 -1 131.7275 568.4303)" style="fill:#DEEDFB;" width="26.178" height="26.178"/>
			</g>
		</g>
		<g>
			<g>
				
					<rect x="197.482" y="305.938" transform="matrix(-1 -1.224647e-16 1.224647e-16 -1 421.1414 638.0539)" style="fill:#DEEDFB;" width="26.178" height="26.178"/>
			</g>
			<g>
				
					<rect x="161.305" y="305.938" transform="matrix(-1 -1.224647e-16 1.224647e-16 -1 348.788 638.0539)" style="fill:#DEEDFB;" width="26.178" height="26.178"/>
			</g>
			<g>
				
					<rect x="125.128" y="305.938" transform="matrix(-1 -1.224647e-16 1.224647e-16 -1 276.4345 638.0539)" style="fill:#DEEDFB;" width="26.178" height="26.178"/>
			</g>
			<g>
				
					<rect x="88.951" y="305.938" transform="matrix(-1 -1.224647e-16 1.224647e-16 -1 204.081 638.0539)" style="fill:#DEEDFB;" width="26.178" height="26.178"/>
			</g>
			<g>
				
					<rect x="52.775" y="305.938" transform="matrix(-1 -1.224647e-16 1.224647e-16 -1 131.7275 638.0539)" style="fill:#DEEDFB;" width="26.178" height="26.178"/>
			</g>
		</g>
		<g>
			<g>
				
					<rect x="197.482" y="340.75" transform="matrix(-1 -1.224647e-16 1.224647e-16 -1 421.1414 707.6775)" style="fill:#DEEDFB;" width="26.178" height="26.178"/>
			</g>
			<g>
				
					<rect x="161.305" y="340.75" transform="matrix(-1 -1.224647e-16 1.224647e-16 -1 348.788 707.6775)" style="fill:#DEEDFB;" width="26.178" height="26.178"/>
			</g>
			<g>
				
					<rect x="125.128" y="340.75" transform="matrix(-1 -1.224647e-16 1.224647e-16 -1 276.4345 707.6775)" style="fill:#DEEDFB;" width="26.178" height="26.178"/>
			</g>
			<g>
				
					<rect x="88.951" y="340.75" transform="matrix(-1 -1.224647e-16 1.224647e-16 -1 204.081 707.6775)" style="fill:#FFFFFF;" width="26.178" height="26.178"/>
			</g>
			<g>
				
					<rect x="52.775" y="340.75" transform="matrix(-1 -1.224647e-16 1.224647e-16 -1 131.7275 707.6775)" style="fill:#DEEDFB;" width="26.178" height="26.178"/>
			</g>
		</g>
		<g>
			<g>
				
					<rect x="197.482" y="375.561" transform="matrix(-1 -1.224647e-16 1.224647e-16 -1 421.1414 777.301)" style="fill:#DEEDFB;" width="26.178" height="26.178"/>
			</g>
			<g>
				
					<rect x="161.305" y="375.561" transform="matrix(-1 -1.224647e-16 1.224647e-16 -1 348.788 777.301)" style="fill:#DEEDFB;" width="26.178" height="26.178"/>
			</g>
			<g>
				
					<rect x="125.128" y="375.561" transform="matrix(-1 -1.224647e-16 1.224647e-16 -1 276.4345 777.301)" style="fill:#DEEDFB;" width="26.178" height="26.178"/>
			</g>
			<g>
				
					<rect x="88.951" y="375.561" transform="matrix(-1 -1.224647e-16 1.224647e-16 -1 204.081 777.301)" style="fill:#DEEDFB;" width="26.178" height="26.178"/>
			</g>
			<g>
				
					<rect x="52.775" y="375.561" transform="matrix(-1 -1.224647e-16 1.224647e-16 -1 131.7275 777.301)" style="fill:#DEEDFB;" width="26.178" height="26.178"/>
			</g>
		</g>
		<g>
			
				<ellipse transform="matrix(0.7071 -0.7071 0.7071 0.7071 -146.9941 132.2508)" style="fill:#43638F;" cx="86.144" cy="243.563" rx="9.228" ry="9.228"/>
		</g>
		<g>
			
				<ellipse transform="matrix(0.7071 -0.7071 0.7071 0.7071 -115.5749 208.1033)" style="fill:#43638F;" cx="193.415" cy="243.563" rx="9.228" ry="9.228"/>
		</g>
		<g>
			<g>
				<g>
					<g>
						<path style="fill:#EBAEA3;" d="M151.138,271.365c0,0,4.887-7.57,3.039-11.324c0,0-0.27-0.98-1.765-0.956
							c0,0,0.221-1.544-1.667-1.887c0,0,0.098-1.201-1.544-1.348c0,0-1.144-1.324-3.08-0.221c-1.936,1.103-2.876,3.432-3.023,4.853
							c-0.147,1.422-0.245,8.069,0.882,12.368L151.138,271.365z"/>
					</g>
					<g id="XMLID_35_">
						<g id="XMLID_60_">
							<g id="XMLID_66_">
								<g id="XMLID_68_">
									<path style="fill:#DF8080;" d="M140.224,260.647c-0.348,0.406-0.847,0.655-1.384,0.681l-1.755,0.085
										c-0.454,0.022-0.902-0.116-1.266-0.389l-0.274-0.206l-0.274-0.206c-0.364-0.274-0.62-0.666-0.725-1.108l-0.405-1.71
										c-0.124-0.524-0.023-1.072,0.271-1.519c0.523,0.628,1.362,1.439,2.707,2.451
										C138.464,259.737,139.476,260.318,140.224,260.647z"/>
								</g>
								<g id="XMLID_67_">
									<path style="fill:#CC5E5E;" d="M135.29,255.095l2.912,2.191l2.912,2.191l-0.81,1.076c-0.025,0.033-0.053,0.063-0.08,0.094
										c-0.748-0.329-1.76-0.91-3.105-1.922c-1.345-1.012-2.184-1.823-2.707-2.451c0.022-0.034,0.044-0.069,0.069-0.103
										L135.29,255.095z"/>
								</g>
							</g>
							<g id="XMLID_61_">
								<g id="XMLID_65_">
									<path style="fill:#CC5E5E;" d="M138.201,257.285l-2.912-2.191l-0.81,1.076c-0.025,0.033-0.046,0.068-0.069,0.103
										c0.523,0.628,1.362,1.439,2.707,2.451c1.345,1.012,2.357,1.593,3.105,1.922c0.027-0.031,0.055-0.061,0.08-0.094l0.81-1.076
										L138.201,257.285z"/>
								</g>
								<g id="XMLID_64_">
									<path style="fill:#CC5E5E;" d="M135.566,259.908l-0.438,0.583c0.046,0.042,0.093,0.082,0.143,0.119l0.035,0.026l0.444-0.59
										L135.566,259.908z"/>
								</g>
								<g id="XMLID_63_">
									<path style="fill:#CC5E5E;" d="M136.228,260.406l-0.444,0.59l0.035,0.026c0.05,0.037,0.101,0.072,0.154,0.104l0.438-0.583
										L136.228,260.406z"/>
								</g>
								<g id="XMLID_62_">
									<polygon style="fill:#CC5E5E;" points="135.897,260.157 135.453,260.747 135.545,260.816 135.637,260.885 136.081,260.295 
																			"/>
								</g>
							</g>
						</g>
						<g id="XMLID_59_">
							<path style="fill:#CC5E5E;" d="M139.858,246.201c-0.376,0.499,1.231,2.341,3.587,4.114c2.357,1.773,4.572,2.806,4.947,2.307
								c0.376-0.499-1.231-2.341-3.587-4.114C142.448,246.735,140.233,245.702,139.858,246.201z"/>
						</g>
						<g id="XMLID_58_">
							<path style="fill:#F6F6F6;" d="M140.396,246.264c0.044-0.076,0.087-0.151,0.13-0.228c0.066-0.118,0.129-0.238,0.192-0.359
								c0.007-0.014,0.014-0.027,0.022-0.041c0.058-0.114,0.114-0.229,0.17-0.344c0.01-0.022,0.021-0.043,0.031-0.065
								c0.053-0.112,0.104-0.226,0.155-0.339c0.011-0.025,0.022-0.05,0.033-0.075c0.049-0.112,0.096-0.226,0.143-0.34
								c0.011-0.027,0.022-0.054,0.033-0.082c0.046-0.114,0.09-0.228,0.133-0.343c0.011-0.028,0.021-0.056,0.031-0.084
								c0.043-0.116,0.084-0.232,0.125-0.349c0.009-0.027,0.018-0.054,0.027-0.081c0.041-0.12,0.08-0.24,0.118-0.361
								c0.008-0.024,0.015-0.048,0.023-0.072c0.039-0.124,0.076-0.249,0.112-0.374c0.006-0.02,0.011-0.039,0.017-0.059
								c0.037-0.131,0.074-0.262,0.108-0.394c0.003-0.011,0.006-0.022,0.008-0.033c0.385-1.473,0.61-3.017,0.722-4.559
								c0-0.004,0.001-0.007,0.001-0.011c0.011-0.148,0.02-0.297,0.029-0.445c0.001-0.009,0.001-0.018,0.002-0.027
								c0.008-0.145,0.016-0.291,0.022-0.436c0.001-0.011,0.001-0.023,0.002-0.034c0.006-0.143,0.011-0.286,0.016-0.429
								c0.001-0.013,0.001-0.026,0.001-0.039c0.004-0.142,0.008-0.284,0.01-0.426c0-0.012,0-0.025,0.001-0.038
								c0.003-0.144,0.004-0.287,0.005-0.43c0-0.008,0-0.016,0-0.024c0.001-0.147,0.001-0.294,0-0.441c0-0.002,0-0.005,0-0.007
								c-0.011-1.669-0.128-3.281-0.29-4.735c0-0.004-0.001-0.007-0.001-0.011c-0.014-0.126-0.029-0.252-0.044-0.376
								c-0.001-0.008-0.002-0.015-0.003-0.023c-0.014-0.119-0.029-0.237-0.044-0.354c-0.002-0.013-0.003-0.026-0.005-0.04
								c-0.014-0.114-0.029-0.226-0.044-0.338c-0.002-0.014-0.004-0.028-0.006-0.043c-0.015-0.11-0.03-0.219-0.045-0.327
								c-0.002-0.014-0.004-0.028-0.006-0.042c-0.015-0.108-0.031-0.215-0.046-0.32c-0.002-0.012-0.004-0.024-0.005-0.036
								c-0.016-0.107-0.032-0.213-0.048-0.317c-0.001-0.008-0.002-0.016-0.004-0.024c-0.017-0.108-0.034-0.214-0.051-0.319
								c0-0.001,0-0.002,0-0.002c-0.141-0.87-0.285-1.626-0.41-2.231c-0.002-0.011-0.005-0.022-0.007-0.033
								c-0.013-0.063-0.026-0.123-0.038-0.182c-0.003-0.015-0.006-0.03-0.01-0.045c-0.012-0.055-0.023-0.109-0.035-0.161
								c-0.003-0.017-0.007-0.033-0.011-0.05c-0.011-0.048-0.021-0.095-0.031-0.141c-0.004-0.019-0.008-0.038-0.013-0.057
								c-0.009-0.042-0.018-0.082-0.027-0.121c-0.004-0.018-0.008-0.037-0.012-0.055c-0.009-0.039-0.018-0.078-0.026-0.114
								c-0.003-0.014-0.006-0.027-0.01-0.041c-0.008-0.035-0.016-0.07-0.024-0.102c-0.004-0.015-0.007-0.03-0.011-0.044
								c-0.007-0.028-0.013-0.056-0.019-0.082c-0.004-0.015-0.007-0.03-0.011-0.044c-0.006-0.023-0.011-0.046-0.016-0.067
								c-0.003-0.013-0.006-0.025-0.009-0.037c-0.005-0.019-0.009-0.037-0.013-0.053c-0.004-0.014-0.007-0.027-0.01-0.04
								c-0.003-0.01-0.006-0.022-0.008-0.031c-0.003-0.01-0.004-0.017-0.006-0.025c-0.012-0.045-0.018-0.071-0.018-0.071
								l14.063,10.581l14.063,10.581c0,0-0.027,0.001-0.073,0.002c-0.009,0-0.016,0-0.026,0.001c-0.01,0-0.021,0.001-0.032,0.001
								c-0.013,0-0.026,0.001-0.041,0.001c-0.017,0.001-0.036,0.001-0.055,0.002c-0.012,0.001-0.025,0.001-0.038,0.002
								c-0.021,0.001-0.045,0.002-0.069,0.003c-0.015,0.001-0.03,0.001-0.046,0.002c-0.026,0.001-0.055,0.003-0.084,0.004
								c-0.015,0.001-0.03,0.001-0.046,0.002c-0.032,0.002-0.066,0.003-0.1,0.005c-0.016,0.001-0.033,0.002-0.05,0.003
								c-0.036,0.002-0.074,0.004-0.112,0.006c-0.018,0.001-0.037,0.002-0.057,0.003c-0.04,0.002-0.081,0.005-0.124,0.007
								c-0.019,0.001-0.038,0.002-0.058,0.004c-0.047,0.003-0.094,0.006-0.144,0.009c-0.017,0.001-0.034,0.002-0.051,0.003
								c-0.053,0.003-0.107,0.007-0.164,0.011c-0.015,0.001-0.031,0.002-0.046,0.003c-0.06,0.004-0.122,0.009-0.185,0.014
								c-0.011,0.001-0.023,0.002-0.034,0.003c-0.615,0.047-1.379,0.118-2.252,0.224c-0.003,0-0.006,0.001-0.009,0.001
								c-0.105,0.013-0.211,0.026-0.319,0.04c-0.008,0.001-0.017,0.002-0.025,0.003c-0.105,0.013-0.211,0.027-0.318,0.042
								c-0.012,0.002-0.024,0.003-0.036,0.005c-0.105,0.014-0.212,0.029-0.32,0.044c-0.014,0.002-0.028,0.004-0.042,0.006
								c-0.108,0.015-0.217,0.031-0.327,0.047c-0.014,0.002-0.028,0.004-0.043,0.006c-0.111,0.017-0.224,0.034-0.338,0.051
								c-0.012,0.002-0.025,0.004-0.037,0.006c-0.117,0.018-0.234,0.037-0.353,0.056c-0.008,0.001-0.017,0.003-0.025,0.004
								c-0.123,0.02-0.247,0.041-0.372,0.062c-0.004,0.001-0.007,0.001-0.011,0.002c-1.442,0.247-3.022,0.581-4.629,1.033
								c-0.003,0.001-0.006,0.002-0.009,0.002c-0.141,0.04-0.282,0.08-0.423,0.122c-0.008,0.002-0.016,0.005-0.023,0.007
								c-0.138,0.041-0.276,0.082-0.414,0.125c-0.011,0.003-0.021,0.007-0.032,0.01c-0.136,0.042-0.272,0.085-0.408,0.128
								c-0.013,0.004-0.026,0.008-0.039,0.013c-0.135,0.044-0.27,0.088-0.406,0.133c-0.012,0.004-0.024,0.008-0.036,0.012
								c-0.137,0.046-0.274,0.093-0.411,0.141c-0.008,0.003-0.016,0.006-0.024,0.009c-0.141,0.05-0.281,0.1-0.421,0.152
								c-0.002,0.001-0.005,0.002-0.007,0.003c-1.451,0.535-2.873,1.18-4.182,1.958c-0.01,0.006-0.02,0.011-0.029,0.017
								c-0.117,0.07-0.233,0.141-0.349,0.213c-0.017,0.011-0.035,0.022-0.052,0.033c-0.11,0.07-0.22,0.14-0.328,0.212
								c-0.021,0.014-0.042,0.028-0.063,0.042c-0.106,0.07-0.21,0.141-0.314,0.214c-0.023,0.016-0.047,0.032-0.07,0.049
								c-0.101,0.071-0.202,0.143-0.301,0.217c-0.024,0.018-0.048,0.036-0.072,0.053c-0.098,0.073-0.196,0.148-0.293,0.223
								c-0.023,0.018-0.046,0.036-0.069,0.055c-0.097,0.076-0.193,0.153-0.287,0.231c-0.021,0.018-0.042,0.035-0.063,0.053
								c-0.095,0.08-0.19,0.16-0.283,0.242c-0.018,0.016-0.036,0.032-0.054,0.048c-0.096,0.085-0.191,0.171-0.284,0.258
								c-0.011,0.01-0.022,0.021-0.033,0.032c-0.099,0.093-0.197,0.188-0.292,0.284c-0.062,0.062-0.122,0.125-0.183,0.188
								c-0.134,0.14-0.266,0.282-0.393,0.428c-0.209,0.24-0.409,0.486-0.598,0.741l-3.823-2.876l-3.823-2.876
								c0.192-0.252,0.374-0.512,0.547-0.78C140.198,246.598,140.298,246.432,140.396,246.264z"/>
						</g>
						<g id="XMLID_53_">
							<g id="XMLID_55_">
								<g id="XMLID_57_">
									
										<rect x="152.678" y="263.477" transform="matrix(0.6012 -0.7991 0.7991 0.6012 -150.0553 230.1917)" style="fill:#CC5E5E;" width="5.843" height="3.916"/>
								</g>
								<g id="XMLID_56_">
									
										<rect x="146.754" y="255.522" transform="matrix(0.6012 -0.7991 0.7991 0.6012 -148.8566 223.683)" style="fill:#DF8080;" width="5.843" height="10.911"/>
								</g>
							</g>
							<g id="XMLID_54_">
								
									<rect x="141.822" y="256.552" transform="matrix(0.6012 -0.7991 0.7991 0.6012 -147.8581 218.2606)" style="fill:#CC5E5E;" width="5.843" height="1.432"/>
							</g>
						</g>
						<g id="XMLID_51_">
							<g id="XMLID_52_">
								<path style="fill:#DF8080;" d="M143.445,250.316c2.357,1.773,4.572,2.806,4.947,2.307l-6.113,8.125
									c0,0-1.132,0.616-4.972-2.273c-3.84-2.89-3.562-4.148-3.562-4.148l6.113-8.125
									C139.482,246.701,141.089,248.542,143.445,250.316z"/>
							</g>
						</g>
						<g id="XMLID_50_">
							<path style="fill:#DF8080;" d="M153.966,268.124l0.471,0.355c0.771,0.58,1.866,0.425,2.446-0.346l2.98-3.961
								c0.58-0.771,0.425-1.866-0.345-2.446l-0.471-0.355c-0.771-0.581-1.867-0.426-2.447,0.345l-2.98,3.961
								C153.041,266.449,153.195,267.544,153.966,268.124z"/>
						</g>
						<g id="XMLID_49_">
							<g>
								<g>
									<path style="fill:none;" d="M148.214,252.489c-0.058,0.077-0.206,0.096-0.425,0.063c0.127-0.146,0.259-0.288,0.394-0.428
										C148.253,252.293,148.266,252.419,148.214,252.489z"/>
								</g>
							</g>
						</g>
						<g id="XMLID_48_">
							<g>
								<g>
									<path style="fill:none;" d="M140.036,246.335c0.052-0.069,0.177-0.092,0.36-0.072c-0.098,0.168-0.198,0.334-0.303,0.497
										C140,246.56,139.978,246.412,140.036,246.335z"/>
								</g>
							</g>
						</g>
						<g id="XMLID_45_">
							<g id="XMLID_47_">
								<path style="fill:#CC5E5E;" d="M168.773,245.058c0.645-0.031,1.122-0.22,1.394-0.582c1.492-1.982-3.683-8.392-11.557-14.316
									c-7.874-5.924-15.467-9.12-16.958-7.137c-0.273,0.362-0.322,0.873-0.173,1.501c2.883-0.14,9.129,2.878,15.564,7.72
									C163.478,237.084,168.109,242.249,168.773,245.058z"/>
							</g>
							<g id="XMLID_46_">
								<path style="fill:#CC5E5E;" d="M168.773,245.058c-0.664-2.809-5.295-7.974-11.73-12.815
									c-6.435-4.842-12.681-7.86-15.564-7.72c0.664,2.809,5.295,7.974,11.73,12.815
									C159.644,242.18,165.891,245.198,168.773,245.058z"/>
							</g>
						</g>
						<g id="XMLID_40_">
							<g id="XMLID_42_">
								<g id="XMLID_44_">
									<path style="fill:#E9D54A;" d="M155.96,239.209l-0.288,0.565c-0.921-0.624-1.855-1.29-2.793-1.997
										c-0.939-0.706-1.837-1.419-2.693-2.131l0.463-0.434c0.83,0.688,1.7,1.378,2.608,2.061
										C154.165,237.957,155.069,238.602,155.96,239.209z"/>
								</g>
								<g id="XMLID_43_">
									<path style="fill:#F6F6F6;" d="M155.379,234.429l1.961,1.475l-2.297,4.5c-0.892-0.607-1.795-1.252-2.703-1.935
										c-0.908-0.683-1.778-1.373-2.608-2.061l3.687-3.454L155.379,234.429z"/>
								</g>
							</g>
							<g id="XMLID_41_">
								<path style="fill:#DF8080;" d="M153.439,232.951c-0.229,0.305,0.463,1.213,1.546,2.028c1.348,1.014,2.346,0.963,2.377,0.923
									c0.229-0.305-0.462-1.213-1.546-2.028C154.732,233.059,153.668,232.646,153.439,232.951z"/>
							</g>
						</g>
						<g id="XMLID_37_">
							<path style="fill:#DF8080;" d="M142.14,223.318c0,0-0.038,0.064-0.111,0.189c-0.011,0.043-0.005,0.052-0.023,0.098
								c-0.005,0.068-0.029,0.138-0.023,0.242c-0.002,0.197,0.034,0.476,0.154,0.815c0.115,0.339,0.295,0.732,0.538,1.161
								c0.484,0.862,1.224,1.86,2.158,2.937c0.47,0.537,0.99,1.095,1.555,1.668c0.564,0.574,1.171,1.166,1.825,1.764
								c1.305,1.197,2.772,2.442,4.372,3.698c0.398,0.315,0.813,0.628,1.224,0.94c0.211,0.158,0.423,0.317,0.636,0.477
								c0.212,0.155,0.425,0.311,0.64,0.468c0.866,0.625,1.765,1.244,2.695,1.848c1.855,1.214,3.837,2.372,5.925,3.356
								c1.045,0.484,2.122,0.923,3.217,1.22c0.545,0.146,1.1,0.253,1.62,0.265c0.262,0.012,0.507-0.016,0.715-0.071
								c0.107-0.025,0.191-0.068,0.272-0.108c0.032-0.026,0.068-0.048,0.102-0.071c0.012-0.015,0.025-0.029,0.038-0.043l0.021-0.02
								l0.011-0.01c-0.01,0.018,0.039-0.053-0.021,0.037l0.119-0.19c0.009-0.035,0.008-0.052,0.022-0.075
								c0.018-0.079,0.042-0.18,0.04-0.29c0.003-0.218-0.031-0.468-0.108-0.721c-0.143-0.507-0.387-1.023-0.667-1.518
								c-0.566-0.994-1.266-1.933-2.001-2.829c-1.48-1.791-3.133-3.404-4.793-4.89c-1.671-1.476-3.356-2.826-5.018-4.024
								c-1.653-1.202-3.283-2.25-4.827-3.139c-1.54-0.896-3.001-1.625-4.321-2.193c-1.321-0.559-2.505-0.963-3.48-1.166
								c-0.487-0.101-0.921-0.154-1.282-0.161c-0.364-0.011-0.645,0.042-0.834,0.106c-0.386,0.13-0.4,0.287-0.422,0.275
								L142.14,223.318z M141.196,222.678c0,0,0.072-0.086,0.223-0.239c0.08-0.066,0.186-0.145,0.314-0.225
								c0.13-0.064,0.284-0.148,0.455-0.191c0.697-0.222,1.623-0.16,2.689,0.09c1.07,0.251,2.292,0.71,3.636,1.331
								c0.671,0.313,1.372,0.668,2.098,1.063c0.727,0.392,1.481,0.822,2.253,1.293c1.544,0.942,3.173,2.024,4.853,3.234
								c1.673,1.21,3.404,2.542,5.109,4.023c1.712,1.474,3.407,3.087,4.985,4.884c0.782,0.904,1.536,1.855,2.179,2.917
								c0.318,0.534,0.612,1.095,0.812,1.735c0.103,0.316,0.172,0.664,0.176,1.042c0.004,0.19-0.022,0.386-0.074,0.597
								c-0.038,0.116-0.087,0.242-0.135,0.344l-0.114,0.193c-0.072,0.104-0.036,0.047-0.059,0.079l-0.027,0.032l-0.056,0.062
								l-0.114,0.122c-0.083,0.07-0.17,0.133-0.258,0.197c-0.179,0.107-0.366,0.195-0.549,0.247
								c-0.366,0.11-0.722,0.148-1.058,0.145c-0.676,0.001-1.305-0.111-1.915-0.254c-1.216-0.296-2.357-0.729-3.462-1.204
								c-2.206-0.96-4.252-2.125-6.175-3.331c-0.959-0.608-1.884-1.23-2.777-1.86c-0.223-0.16-0.445-0.318-0.666-0.476
								c-0.216-0.158-0.43-0.315-0.643-0.471c-0.432-0.322-0.848-0.639-1.258-0.961c-1.641-1.277-3.124-2.574-4.433-3.836
								c-1.314-1.257-2.45-2.488-3.395-3.639c-0.939-1.158-1.694-2.23-2.214-3.209c-0.516-0.975-0.814-1.863-0.779-2.601
								c-0.002-0.178,0.039-0.35,0.068-0.493c0.045-0.158,0.116-0.318,0.161-0.408c0.077-0.123,0.116-0.186,0.116-0.186
								L141.196,222.678z"/>
						</g>
						<g id="XMLID_36_">
							<path style="fill:#E4AF56;" d="M140.525,246.036c-0.042,0.076-0.086,0.152-0.13,0.227c-0.183-0.02-0.308,0.003-0.36,0.072
								c-0.058,0.077-0.036,0.225,0.058,0.426c0.314,0.677,1.473,1.985,3.427,3.455c1.954,1.47,3.532,2.221,4.27,2.335
								c0.219,0.034,0.367,0.014,0.425-0.063c0.052-0.069,0.039-0.196-0.031-0.366c0.06-0.063,0.121-0.126,0.183-0.188
								c0.141,0.299,0.168,0.543,0.047,0.703c-0.135,0.179-0.42,0.209-0.804,0.127c-1.016-0.216-2.731-1.216-4.239-2.351
								c-1.508-1.134-2.944-2.505-3.433-3.421c-0.185-0.347-0.235-0.629-0.1-0.808C139.958,246.025,140.199,245.984,140.525,246.036
								z"/>
						</g>
					</g>
					<g>
						<path style="fill:#EBAEA3;" d="M154.376,260.535c0,0-1.737,3.902-3.704,1.29c0,0-1.056,0.441-1.696-0.389
							c0,0,2.317-0.601,0.83-2.462l-1.941-1.837c0,0-1.203-0.956-3.21-0.258c0,0,2.464-2.824,4.546-1.03c0,0,1.423-0.01,1.544,1.348
							c0,0,1.732,0.213,1.699,1.879C152.445,259.076,154.007,258.844,154.376,260.535z"/>
					</g>
					<g>
						<path style="fill:#EBAEA3;" d="M145.096,256.759c0,0,1.738-0.585,3.402,0.977c1.665,1.562,2.05,2.491,1.123,3.418
							c-0.927,0.927-2.695-1.108-2.695-1.108s-1.17,0.929-0.977,2.371c0.192,1.442-2.934,0.032-2.934,0.032
							s-0.238-3.408,1.584-5.501l0.056-0.068L145.096,256.759z"/>
					</g>
					<g>
						<path style="fill:#182837;" d="M150.167,262.143c-0.428,0-0.872-0.18-1.325-0.537l0.268-0.34
							c0.51,0.403,0.988,0.531,1.417,0.383c1.222-0.421,1.822-2.832,1.828-2.857l0.42,0.102c-0.026,0.109-0.662,2.665-2.106,3.163
							C150.504,262.115,150.337,262.143,150.167,262.143z"/>
					</g>
					<g>
						<path style="fill:#182837;" d="M149.172,261.652c-1.033,0-2.244-1.374-2.39-1.544l0.328-0.282
							c0.382,0.445,1.525,1.563,2.221,1.373c0.297-0.079,0.503-0.417,0.614-1.003c0.12-0.637-0.665-1.766-1.787-2.571
							c-1.243-0.892-2.513-1.127-3.397-0.629l-0.212-0.377c1.034-0.583,2.478-0.339,3.861,0.654c1.106,0.793,2.134,2.079,1.96,3.002
							c-0.144,0.763-0.456,1.215-0.927,1.341C149.355,261.641,149.264,261.652,149.172,261.652z"/>
					</g>
					<g>
						<path style="fill:#182837;" d="M149.963,258.805l-0.395-0.176c0.421-0.942,1.242-1.734,1.277-1.767l0.299,0.313
							C151.136,257.181,150.349,257.942,149.963,258.805z"/>
					</g>
					<g>
						<path style="fill:#182837;" d="M152.27,263.009c-0.03,0-0.061-0.001-0.091-0.004c-0.818-0.067-1.552-1.055-1.583-1.097
							l0.349-0.256c0.178,0.242,0.754,0.88,1.27,0.922c0.187,0.015,0.348-0.049,0.498-0.195c0.908-0.887,1.306-2.267,1.31-2.281
							l0.416,0.117c-0.017,0.061-0.432,1.504-1.424,2.473C152.797,262.901,152.547,263.009,152.27,263.009z"/>
					</g>
					<g>
						<path style="fill:#182837;" d="M149.595,267.646l-0.381-0.206c0.631-1.168-0.958-2.389-0.974-2.402l0.261-0.345
							C148.579,264.753,150.401,266.155,149.595,267.646z"/>
					</g>
					<g>
						<path style="fill:#182837;" d="M105.792,239.546c-14.907-1.738-19.297,14.209-16.635,24.829
							c2.661,10.62-11.157,6.552-4.551,25.218h20.756L105.792,239.546z"/>
					</g>
					<g>
						<path style="fill:#182837;" d="M103.897,239.648c10.165,0,13.113,13.892,11.246,24.511c-1.868,10.62,7.955,7.259,3.32,25.925
							h-14.565V239.648z"/>
					</g>
					<g>
						<path style="fill:#EBAEA3;" d="M127.852,292.068c-7.821,0.44-18.597,6.56-26.403,7.207c-0.27,0.009-0.54,0.019-0.811,0.027
							c-0.533,0.016-1.066,0.035-1.599,0.053c-0.228,0.005-0.456,0.01-0.684,0.014c-4.379,0.097-8.759,0.173-13.139,0.201
							l-0.804-3.601c-2.741-11.042,3.57-21.793,15.856-22.945h0c3.134-0.235,6.284-0.235,9.418,0l0.3,0.027
							c12.519,1.127,21.356,6.628,18.276,17.811L127.852,292.068z"/>
					</g>
					<g>
						<path style="fill:#DB4651;" d="M116.969,273.93c0,0-3.519,7.115-11.8,7.115c-7.776,0-11.271-6.688-11.271-6.688
							s-16.507,4.41-16.507,21.274l11.404,3.907l2.591,19.753h27.637l5.955-22.681l14.508-10.4
							C139.487,286.211,132.264,277.002,116.969,273.93z"/>
					</g>
					<g>
						<polygon style="fill:#EBAEA3;" points="122.568,449.169 122.196,438.595 131.636,437.949 131.729,448.542 						"/>
					</g>
					<g>
						<g>
							<g>
								<polygon style="fill:#DB4651;" points="131.348,448.347 147.359,452.691 149.061,458.458 120.542,458.458 121.516,448.401 
																	"/>
							</g>
							<g>
								<path style="fill:#DB4651;" d="M120.884,454.648l21.141,0.043c0,0,1.26-2,5.334-2c4.619,0,5.173,6.763,5.173,6.763h-32.097
									L120.884,454.648z"/>
							</g>
						</g>
					</g>
					<g>
						<polygon style="fill:#EBAEA3;" points="76.922,447.702 79.557,437.455 88.794,439.507 85.885,449.694 						"/>
					</g>
					<g>
						<g>
							<g>
								<polygon style="fill:#DB4651;" points="85.124,447.924 100.711,453.603 101.92,459.494 73.503,457.087 75.322,447.148 
																	"/>
							</g>
							<g>
								<path style="fill:#DB4651;" d="M74.192,453.321l21.035,1.825c0,0,1.424-1.887,5.484-1.543
									c4.602,0.39,4.584,7.176,4.584,7.176l-31.996-2.745L74.192,453.321z"/>
							</g>
						</g>
					</g>
					<g>
						<polygon style="fill:#EBAEA3;" points="99.91,267.646 104.109,267.68 108.728,267.646 110.02,274.29 104.717,274.746 
							99.414,275.203 						"/>
					</g>
					<g>
						<g>
							<path style="fill:#D9817C;" d="M99.891,267.933l8.87-0.119l0.544,2.796c-0.673,0.594-1.708,0.713-2.624,0.814
								C102.014,271.943,99.891,267.933,99.891,267.933z"/>
						</g>
					</g>
					<g>
						<path style="fill:#EBAEA3;" d="M93.494,253.487c-0.011-0.046-0.023-0.091-0.034-0.137l-0.002-0.01h0
							c-0.078-0.347-0.142-0.7-0.188-1.06c-0.766-5.912,3.144-11.292,8.735-12.017c5.59-0.725,10.21,2.816,10.977,8.728
							c0.047,0.36,0.085,0.974,0.098,1.329l-0.007-0.109l-0.073-0.073c0.002,0.046,0.072,0.027,0.073,0.073l0.679,10.016
							c0.001,0.019,0,0.038,0.001,0.057l0.003,0.224l-0.001,0c0.03,4.773-2.78,9.489-6.674,9.489c-4.361,0-9.435-2.185-11.237-7.014
							l-0.001,0l-0.028-0.112c-0.03-0.115-0.06-0.231-0.086-0.348L93.494,253.487z"/>
					</g>
					<g>
						<path style="fill:#182837;" d="M113.447,249.589c-8.847,0.972-13.635,1.105-13.635,1.105
							c-0.327,4.739-4.675,9.641-4.675,9.641l-2.079-4.671c0,0-5.524-14.16,8.581-15.988c9.451-1.225,11.137,3.613,11.769,8.698
							L113.447,249.589z"/>
					</g>
					<g>
						<path style="fill:#182837;" d="M108.461,260.302l-0.086-0.424c0.53-0.108,0.848-0.32,0.944-0.63
							c0.239-0.77-0.808-2.075-1.232-2.513l0.311-0.301c0.069,0.072,1.697,1.769,1.334,2.941
							C109.586,259.848,109.159,260.16,108.461,260.302z"/>
					</g>
					<g>
						
							<rect x="100.667" y="254.175" transform="matrix(0.9376 -0.3477 0.3477 0.9376 -82.1699 51.575)" style="fill:#182837;" width="3.922" height="1.153"/>
					</g>
					<g>
						
							<rect x="110.918" y="252.52" transform="matrix(0.1576 -0.9875 0.9875 0.1576 -156.9739 324.1243)" style="fill:#182837;" width="1.153" height="3.102"/>
					</g>
					<g>
						<path style="fill:#182837;" d="M110.468,256.348c0.082,0.365,0.446,0.595,0.811,0.512c0.365-0.083,0.595-0.446,0.512-0.811
							c-0.083-0.365-0.446-0.595-0.811-0.512C110.614,255.62,110.385,255.983,110.468,256.348z"/>
					</g>
					<g>
						<path style="fill:#182837;" d="M102.978,257.048c0.083,0.365,0.446,0.595,0.811,0.512c0.366-0.082,0.595-0.446,0.512-0.811
							c-0.082-0.365-0.446-0.595-0.811-0.512C103.125,256.319,102.896,256.682,102.978,257.048z"/>
					</g>
					<g>
						<path style="fill:#4B6CA4;" d="M119.036,319.279c0,0,18.032,28.021,14.91,71.463l0.092,48.238H120.22l-7.074-48.434
							l-5.687-33.335v-37.932H119.036z"/>
					</g>
					<g>
						<path style="fill:#4B6CA4;" d="M90.726,440.418l-13.334-2.963l9.893-47.162c0.278-1.325,0.326-2.686,0.144-4.027
							c-1.236-9.101-10.036-40.731,3.958-66.987h16.073v38.218v30.149c0,3.606-0.614,7.186-1.817,10.586L90.726,440.418z"/>
					</g>
					<g>
						<path style="fill:#EBAEA3;" d="M94.801,259.921c0.798,1.567,2.466,2.272,3.725,1.576c1.259-0.696,1.633-2.531,0.835-4.098
							c-0.798-1.567-2.466-2.272-3.726-1.576C94.377,256.52,94.003,258.354,94.801,259.921z"/>
					</g>
					<g>
						<path style="fill:#182837;" d="M95.725,260.056c-0.034-0.078-0.819-1.906,0.412-3.163l0.309,0.303
							c-1.025,1.046-0.332,2.67-0.326,2.686L95.725,260.056z"/>
					</g>
					<g>
						<path style="fill:#DB4651;" d="M119.036,319.279c0,0-10.584,4.529-27.65,0l18.634-7.863L119.036,319.279z"/>
					</g>
					<g>
						<g>
							<path style="fill:#182837;" d="M107.899,263.771c-0.155-0.089-0.316-0.147-0.478-0.187c0.059-0.666,0.489-1.185,1.018-1.185
								c0.568,0,1.029,0.598,1.029,1.337c0,0.6-0.307,1.102-0.726,1.271C108.698,264.533,108.396,264.058,107.899,263.771z"/>
						</g>
						<g>
							<path style="fill:#E58D8D;" d="M107.41,263.736c0-0.052,0.007-0.102,0.012-0.152c0.162,0.04,0.323,0.097,0.478,0.187
								c0.496,0.286,0.799,0.762,0.843,1.237c-0.096,0.039-0.197,0.066-0.303,0.066C107.871,265.073,107.41,264.475,107.41,263.736z
								"/>
						</g>
					</g>
					<g>
						<path style="fill:#182837;" d="M148.228,257.301l-0.408-0.143c0.294-0.839,1.2-1.647,1.238-1.68l0.287,0.324
							C149.337,255.809,148.485,256.57,148.228,257.301z"/>
					</g>
					<g>
						<path style="fill:#182837;" d="M112.294,249.095c0,0,0.256,2.724,2.305,5.657l-0.844-7.032L112.294,249.095z"/>
					</g>
					<g>
						<path style="fill:#182837;" d="M113.026,249.442c0,0-4.124,2.32-14.975,4.384l0.897-4.729L113.026,249.442z"/>
					</g>
					<g>
						<path style="fill:#DB4651;" d="M124.979,296.611c0,0,19.737,12.583,29.673,12.321c9.935-0.262-0.43-39.588-0.43-39.588
							l-14.042,2.187l4.537,17.608l-10.184-7.498L124.979,296.611z"/>
					</g>
					<g>
						<g>
							<path style="fill:#EBAEA3;" d="M55.75,345.417c0,0-12.886,9.848-2.407,17.703c0,0,1.664,1.3,2.061-0.618
								c0,0,1.694,0.906,2.091-1.209c0,0,1.658-0.074,1.005-1.768c0,0,1.76-0.625-0.209-2.43c-2.076-1.903-2.609-4.142-0.83-4.535
								c1.779-0.393-0.398,3.621,0.608,4.624c1.006,1.003,4.178-0.78,4.943-4.617c0.661-3.315,2.031-2.854,2.148-4.488
								L55.75,345.417z"/>
						</g>
						<g>
							<path style="fill:#182837;" d="M55.295,362.595c-0.11-0.127-2.69-3.141-2.321-6.012c0.153-1.188,0.795-2.178,1.908-2.941
								c1.617-1.109,2.612-1.459,3.133-1.098c0.603,0.418,0.305,1.625,0.087,2.506c-0.043,0.174-0.082,0.331-0.107,0.458
								c-0.269,1.353-0.011,1.609,0.307,1.683l-0.065,0.281c-0.778-0.182-0.712-1.078-0.525-2.02
								c0.026-0.131,0.066-0.293,0.11-0.471c0.175-0.709,0.468-1.896,0.029-2.201c-0.273-0.189-0.982-0.152-2.806,1.099
								c-1.043,0.715-1.644,1.637-1.785,2.74c-0.353,2.745,2.227,5.757,2.253,5.787L55.295,362.595z"/>
						</g>
						<g>
							<path style="fill:#182837;" d="M57.435,361.423c-0.093-0.042-2.286-1.104-3.244-7.135l0.285-0.045
								c0.928,5.849,3.058,6.908,3.079,6.918L57.435,361.423z"/>
						</g>
						<g>
							<path style="fill:#182837;" d="M58.417,359.642c-0.095-0.066-2.352-1.669-3.592-5.841l0.277-0.082
								c1.211,4.076,3.457,5.67,3.48,5.686L58.417,359.642z"/>
						</g>
					</g>
					<g>
						<polygon style="fill:#DB4651;" points="78.718,287.917 67.457,316.645 52.358,344.359 66.159,352.083 81.183,322.658 
							90.203,298.082 						"/>
					</g>
					<g>
						<path style="fill:#182837;" d="M94.563,254.067c1.189-2.563,0.305-5.499-1.974-6.556c-2.279-1.057-5.091,0.164-6.28,2.727
							c-1.189,2.564-0.305,5.499,1.974,6.556C90.562,257.852,93.374,256.631,94.563,254.067z"/>
					</g>
				</g>
				<g>
					<path style="fill:#DB4651;" d="M99.702,270.812c0,0,1.972,3.118,5.015,4.391v7.934l-11.543-4.913l0.724-3.867
						c0,0,2.456-0.833,5.653-1.252L99.702,270.812z"/>
				</g>
				<g>
					<path style="fill:#DB4651;" d="M104.717,275.203c0,0,3.457-1.905,4.746-3.778l0.313,1.612c0,0,3.114,0.13,7.534,0.963
						l-6.468,9.436h-6.245L104.717,275.203z"/>
				</g>
				<g>
					<path style="fill:#182837;" d="M107.449,279.776l-2.418-2.15l-2.209,2.138l-0.099-0.128c-0.025-0.033-2.523-3.307-3.45-6.85
						l0.279-0.073c0.808,3.091,2.836,5.98,3.303,6.618l2.167-2.098l2.347,2.087c1.849-3.428,2.38-6.464,2.385-6.495l0.284,0.048
						c-0.005,0.032-0.56,3.207-2.503,6.744L107.449,279.776z"/>
				</g>
				<g>
					<path style="fill:#182837;" d="M123.342,301.219l-0.345-0.26l0.13-0.173c3.32-4.405,0.411-10.578,0.381-10.64l-0.094-0.195
						l0.389-0.188l0.094,0.195c0.031,0.064,3.054,6.471-0.425,11.088L123.342,301.219z"/>
				</g>
				<g>
					<polygon style="fill:#D32626;" points="144.167,288.735 144.716,289.139 144.538,288.45 147.74,291.91 145.881,293.021 					
						"/>
				</g>
			</g>
			<g>
				
					<rect x="86.477" y="297.306" transform="matrix(0.3402 -0.9404 0.9404 0.3402 -220.1679 281.3217)" style="fill:#182837;" width="7.809" height="0.486"/>
			</g>
			<g>
				<path style="fill:#182837;" d="M108.374,319.773l-0.483-0.059c0.017-0.135,1.67-13.546,2.284-19.686
					c0.98-9.826-3.76-16.063-3.808-16.125l0.384-0.299c0.049,0.063,4.909,6.444,3.908,16.471
					C110.045,306.222,108.39,319.639,108.374,319.773z"/>
			</g>
		</g>
		<g>
			<path style="fill:#FFFFFF;" d="M86.144,246.219c-2.151,0-3.896-1.744-3.896-3.896v-27.625c0-2.151,1.744-3.896,3.896-3.896
				c2.151,0,3.896,1.744,3.896,3.896v27.625C90.039,244.475,88.295,246.219,86.144,246.219z"/>
		</g>
		<g>
			<path style="fill:#FFFFFF;" d="M193.416,246.219c-2.151,0-3.896-1.744-3.896-3.896v-27.625c0-2.151,1.744-3.896,3.896-3.896
				c2.151,0,3.896,1.744,3.896,3.896v27.625C197.311,244.475,195.567,246.219,193.416,246.219z"/>
		</g>
		<g>
			<polygon style="fill:#182837;" points="107.744,360.319 107.021,339.016 107.508,338.999 108.231,360.302 			"/>
		</g>
		<g>
			
				<rect x="104.032" y="338.684" transform="matrix(0.9499 -0.3125 0.3125 0.9499 -100.551 50.5004)" style="fill:#182837;" width="6.466" height="0.487"/>
		</g>
	</g>
</g>
</svg>
