<?xml version="1.0" encoding="utf-8"?>
<!-- Generator: Adobe Illustrator 27.5.0, SVG Export Plug-In . SVG Version: 6.00 Build 0)  -->
<svg version="1.1" id="Layer_1" xmlns="http://www.w3.org/2000/svg" xmlns:xlink="http://www.w3.org/1999/xlink" x="0px" y="0px"
	 viewBox="0 0 1364 960" style="enable-background:new 0 0 1364 960;" xml:space="preserve">
<g>
	<g>
		<path style="fill:#C5E8EF;" d="M486.921,640.685c-13.715-7.502-13.109-27.502-30.336-27.959c-4.403-0.117-9.138,1.323-13.023-0.17
			c-4.757-1.828-5.004-6.763-8.699-9.587c-6.2-4.738-18.182-0.524-21.285,5.585c-3.104,6.109-0.83,12.848-0.475,19.346
			c0.355,6.498-2.507,14.17-11.006,16.407c-9.474,2.493-18.974-3.236-25.933-8.485c-3.711-2.799-7.423-5.599-11.134-8.398
			c-2.167-1.635-4.435-3.408-4.968-5.633c-0.655-2.736,1.467-5.376,3.505-7.735c6.177-7.146,12.354-14.292,18.531-21.438
			c1.672-1.935,3.364-3.9,4.244-6.088c2.885-7.168-3.435-14.412-9.446-20.497c-3.324-3.366-9.846-7.02-13.898-4.095
			c-1.857,1.34-1.932,3.438-2.54,5.278c-2.583,7.81-15.403,11.381-26.568,11.703c-19.313,0.557-37.891-4.705-56.174-9.21
			c-13.266-3.269-26.702-6.179-40.272-8.723c-7.61-1.427-8.253-0.787-13.894,2.825c-4.647,2.976-9.743,5.585-15.171,7.774
			c-2.069,0.833-4.339,1.627-6.699,1.456c-3.032-0.22-5.351-1.94-7.801-3.241c-6.579-3.495-15.136-4.249-23.27-4.889
			c-19.263-1.515-38.526-3.03-57.788-4.544c-3.886,7.05-8.908,13.777-14.933,20.004c6.536,0.697,4,7.945-0.171,11.626
			c-11.087,9.784-22.174,19.569-33.262,29.354c4.245,0.14,8.491,0.28,12.736,0.42c3.156,4.531-5.334,9.946-2.589,14.613
			c2.705,4.6,12.308,3.212,18.275,0.651c13.534-5.808,25.36-13.72,39.816-18.238c14.456-4.519,33.38-4.692,43.957,3.706
			c9.822,7.798,8.926,19.648,13.503,29.637c4.144,9.044,13.188,18.064,9.273,27.161c-2.389,5.552-9.353,9.834-10.546,15.582
			c-1.845,8.889,10.432,15.76,14.888,24.158c2.975,5.607,2.4,11.971,5.696,17.484c5.134,8.589,18.329,13.107,30.944,15.394
			c12.615,2.287,26.021,3.182,37.322,7.813c11.91,4.881,20.02,13.309,30.019,20.049c9.999,6.74,24.319,12.044,37.124,8.521
			c-6.986-5.863,3.66-14.687,14.215-16.126c10.555-1.439,22.487,0.125,31.277-4.311c9.478-4.784,10.965-14.55,8.827-22.728
			c-2.138-8.178-6.981-16.081-6.848-24.402c0.04-2.512,0.62-5.157,2.815-7.113c2.453-2.185,6.411-3.099,9.887-4.381
			c9.569-3.529,16.354-10.689,17.412-18.379c8.74,5.129,22.078,0.107,28.992-6.301c6.914-6.408,11.915-14.577,22.146-17.998
			c6.686-2.236,14.444-1.978,21.535-3.433c7.091-1.455,14.234-5.982,12.69-11.163C505.932,645.638,494.092,644.607,486.921,640.685z
			"/>
		<path style="fill:#C5E8EF;" d="M638.316,485.883c-3.912-1.363-6.425-4.169-9.914-6.033c-8.835-4.722-21.176-2.468-31.889-0.638
			c-17.03,2.908-34.266,3.957-51.734,3.843c-12.715-0.083-21.444,5.113-31.841,9.878c-7.969,3.652-15.542,7.75-22.62,12.251
			c-2.4,1.526-4.92,3.366-4.977,5.668c-0.057,2.353,2.47,4.277,3.677,6.465c2.593,4.702-1.119,9.873-4.715,14.221
			c11.072-3.879,25.001,0.789,31.976,8.083c6.975,7.294,8.699,16.456,10.116,25.247c1.417,8.791,2.882,17.938,9.473,25.415
			c6.712,7.615,17.872,12.513,28.639,17.14c3.54,1.522,7.32,3.092,11.445,3.053c7.626-0.072,13.035-5.586,14.817-10.913
			c1.782-5.327,1.332-11.015,3.984-16.151c8.277-16.027,42.008-19.716,48.576-36.146c4.003-10.013-3.555-22.345,5.659-30.39
			c3.542-3.093,9.03-4.863,12.21-8.152c3.179-3.29,1.696-9.335-3.879-9.357c8.598-1.969,15.001-8.107,15.218-14.588
			C662.191,480.81,648.867,489.56,638.316,485.883z"/>
		<path style="fill:#C5E8EF;" d="M724.792,506.717c9.815,1.266,20.599,6.029,20.366,13.19c4.969,0.389,8.314-3.518,9.937-6.915
			c1.623-3.397,3.656-7.458,8.534-8.245c2.719-0.438,5.69,0.333,8.29-0.387c5.746-1.591,3.167-8.555-2.633-10.043
			c-5.8-1.489-12.098,0.269-18.112,1.223c-10.677,1.693-22.131,0.739-31.986-2.662l-5.846,4.355
			c-3.226,1.464-2.305,5.299,0.672,7.013C716.992,505.959,721.037,506.233,724.792,506.717z"/>
		<path style="fill:#C5E8EF;" d="M628.125,575.319c-9.632-0.22-17.909,7.423-15.245,14.076c4.428,1.952,10.538,1.69,14.611-0.628
			c4.073-2.318,5.827-6.53,4.196-10.074L628.125,575.319z"/>
		<path style="fill:#C5E8EF;" d="M723.668,601.99c0.746,1.23,0.956,2.595,1.613,3.851c1.757,3.357,6.981,5.583,11.925,5.08
			c4.944-0.503,9.102-3.683,9.492-7.259c0.513-4.704-4.732-8.91-4.681-13.628c0.055-5.197,6.453-9.217,12.976-11.462
			c2.884-0.993,6.928-1.596,8.793,0.271c0.874,0.874,0.927,2.026,0.948,3.103c0.069,3.658,0.138,7.316,0.208,10.975
			c12.308,0.508,20.553-8.807,24.95-17.081c0.82-1.543,1.633-3.13,3.107-4.398c5.212-4.48,16.805-3.61,20.419-8.84
			c2.134-3.088,0.093-6.99-3.468-9.301c-5.21-3.383-12.919-4.439-19.428-5.9c-5.162-1.159-10.771-2.911-16.263-2.963
			c-10.529-0.1-21.232,7.17-24.171,14.032c-0.74,1.793-1.113,3.69-2.348,5.337c-3.751,5-13.136,5.547-20.671,7.266
			c-14.835,3.384-26.007,14.832-23.036,25.808C711.457,596.608,720.698,597.093,723.668,601.99z"/>
		<path style="fill:#C5E8EF;" d="M1299.414,599.244c-1.454-7.238-11.777-11.852-21.692-13.507
			c-9.915-1.655-20.442-1.416-29.964-3.999c-11.951-3.242-22.286-10.851-35.032-10.235c-8.714,0.421-16.069,4.681-24.379,6.612
			c-27.271,6.337-15.238-16.993-43.746-14.862c-9.011,0.674-17.728,3.529-26.759,3.014c-9.031-0.515-18.459-6.854-14.857-12.827
			c-17.02,2.867-34.87,3.167-52.058,0.874c1.315-6.925,2.631-13.85,3.946-20.775c-15.976-0.58-31.97-0.887-47.966-0.919
			c-3.557-0.007-7.247,0.019-10.467,1.105c-4.165,1.404-6.844,4.32-9.753,6.881c-11.274,9.922-29.063,15.848-46.889,15.619
			c-0.446,3.498,2.48,7.089,6.945,8.521c-13.803,1.865-23.012,13.798-17.901,23.196c-16.717,1.751-19.266-21.208-36.033-22.695
			c-5.631-0.499-11.111,1.786-16.781,1.649s-11.212-5.589-6.623-7.985c-14.108,0.802-20.649,16.43-9.496,22.688
			c-18.181-1.622-30.719,11.971-42.057,22.31c-22.476,20.495-55.244,33.118-86.473,45.483c-14.08,5.575-27.035,10.543-42.53,13.609
			c-13.444,2.66-17.718,8.637-24.802,16.715c-2.502,2.854-5.549,5.383-9.653,7.084c-4.004,1.66-8.631,2.355-11.693,5.025
			c-4.815,4.199-4.745,11.189,0.784,15.042c6.456,4.5,18.586,3.492,23.441-1.948c2.465-2.762,3.108-6.198,5.516-8.986
			c7.215-8.352,24.54-6.606,37.66-3.817c14.446,3.07,29.869,6.607,39.055,15.185c1.637,1.528,3.144,3.257,5.549,4.113
			c6.677,2.376,13.516-3.727,14.038-9.066c0.522-5.34-1.733-11.095,1.731-15.834c5.239-7.166,19.279-7.173,30.462-6.181
			c4.615,1.67,3.56,6.889-0.036,9.554c-3.596,2.665-8.755,4.058-12.193,6.829c-9.066,7.307-1.955,19.731-9.022,28.099
			c-7.637,9.043-25.804,8.058-40.518,7.693c-14.714-0.365-34.065,4.852-32.24,15.347c2.069,11.897,26.759,11.781,39.318,19.678
			c8.049,5.062,10.958,13.658,19.876,17.902c8.358,3.978,19.351,2.937,29.132,4.519c9.297,1.504,17.527,5.416,26.714,7.235
			c23.464,4.647,50.633-7.414,55.346-24.568c1.17-4.26,1.166-8.777,3.804-12.683c4.536-6.717,15.704-9.791,26.078-10.24
			c30.792-1.333,62.264,14.583,90.792,6.152c4.274-1.263,8.328-3.058,12.893-3.577c16.11-1.831,26.227,11.698,39.489,18.518
			c20.646,10.618,49.161,4.354,72.822-2.263c10.302-2.881,22.131-7.065,23.776-14.919c0.666-3.18-0.447-6.763,2.134-9.39
			c1.849-1.882,5.14-2.732,7.406-4.362c7.244-5.213,0.565-13.886-5.971-19.561c-6.536-5.675-12.653-14.731-4.848-19.507
			c3.032-1.855,7.302-2.248,11.281-2.136c6.698,0.188,13.333,1.57,20.011,1.15c6.678-0.42,13.84-3.453,14.576-8.239
			c0.877-5.703-7.458-10.179-8.247-15.888c-0.723-5.23,4.902-9.626,9.152-13.904s7.09-10.748,1.758-14.346
			c-4.573-3.086-13.539-2.677-15.479-6.964c-1.946-4.302,5.603-7.234,11.559-8.819c8.075-2.148,16.489-9.223,26.785-10.87
			c2.77,6.686-4.861,12.966-9.854,18.948c-4.992,5.983-5.196,16.188,4.343,17.489c11.559,1.577,14.261-11.086,21.234-17.894
			c6.352-6.202,18.076-7.737,27.72-11.097c9.644-3.36,18.375-11.964,12.2-18.258
			C1282.831,616.006,1301.292,608.591,1299.414,599.244z"/>
		<path style="fill:#C5E8EF;" d="M400.427,513.483c0.287,2.207,2.896,3.708,5.622,4.367c5.519,1.334,14.548,1.411,19.722-0.634
			c8.001-3.145,8.664-11.112,13.486-16.673c5.752-6.634,16.981-9.374,26.875-12.624c8.291-2.724,21.671-8.688,20.542-16.496
			c-7.051-0.211-14.427,0.537-21.488,0.823c-5.523,0.224-11.06,0.387-16.559,0.836c-7.046,0.575-14.361,1.565-20.316,4.499
			c-5.845,2.88-9.643,7.319-12.738,11.798c-2.12,3.068-4.436,6.313-5.359,9.69c-0.952,3.483-0.83,7.32-4.951,9.776
			C402.981,510.206,400.098,510.954,400.427,513.483z"/>
		<path style="fill:#C5E8EF;" d="M276.261,547.411c5.309,1.033,9.584-2.922,13.975-5.302c4.948-2.683,11.704-3.552,17.641-2.271
			c1.422-1.417-0.925-3.389-3.33-3.649c-2.405-0.26-4.86,0.379-7.272,0.154c-3.65-0.34-6.358-2.527-9.626-3.744
			c-3.268-1.217-8.592-0.687-8.931,1.946l2.986-0.456c-4.143,0.932-8.195,2.776-9.824,5.667
			C270.251,542.646,272.071,546.596,276.261,547.411z"/>
		<path style="fill:#C5E8EF;" d="M322.917,549.541c-3.98-0.74-8.435-1.179-12.017,0.27c-3.582,1.449-5.187,5.506-2.023,7.392
			l-6.402,0.256c4.007,3.23,10.316,4.386,16.299,4.878c5.161,0.425,10.509,0.465,15.413-0.765c4.904-1.23,9.324-3.914,10.774-7.497
			c0.28-0.692,0.444-1.444,0.121-2.126c-1.203-2.54-6.37-1.502-10.063-1.101C330.954,551.291,326.897,550.281,322.917,549.541z"/>
		<path style="fill:#C5E8EF;" d="M471.939,565.414c1.077-0.45,2.314-0.714,3.267-1.291c1.06-0.641,1.655-1.611,1.891-2.592
			c0.979-4.076-3.697-7.762-8.697-9.814c-5-2.051-10.783-3.283-14.897-6.178c-2.074-1.459-3.638-3.291-5.945-4.556
			c-5.012-2.75-12.05-2.16-18.246-1.314c-2.077,0.284-4.252,0.579-6.274,0.135c-3.322-0.729-5.225-3.183-7.993-4.691
			c-1.821-0.992-5.563-1.471-7.345-0.145c-2.001,1.489-0.182,4.184-4.612,2.709c-1.68-0.56-9.685-6.32-10.781-3.745
			c-0.9,2.117,4.445,6.601,6.001,8.075c3.842,3.639,8.248,6.46,14.001,8.448c8.41,2.906,18.595,2.328,26.589,5.636
			c4.869,2,8.259,6.725,5.237,10.119c-2.035,2.285-6.044,3.086-9.444,4.267c-3.4,1.18-6.81,3.627-5.721,6.225
			c0.779,1.859,3.646,2.899,6.342,3.03c2.697,0.131,5.354-0.422,8.032-0.684c4.36-0.428,9.003-0.039,12.731,1.641
			c3.768,1.698,6.625,4.676,11.002,5.242c3.329,0.431,6.949-0.855,8.494-3.017c1.545-2.162,0.888-5.024-1.54-6.716
			c-1.118-0.779-2.535-1.31-3.641-2.097C467.057,571.726,467.88,567.107,471.939,565.414z"/>
		<path style="fill:#C5E8EF;" d="M368.669,532.12c1.586-0.298,3.227-0.723,4.269-1.633c1.042-0.91,1.196-2.434-0.079-3.176
			c-0.477-0.277-1.079-0.412-1.665-0.541c-4.827-1.06-9.654-2.12-14.481-3.18l0.746,0.938c-3.275,1.331-2.671,5.219,0.354,6.826
			C360.838,532.962,365.029,532.804,368.669,532.12z"/>
		<path style="fill:#C5E8EF;" d="M339.419,527.289c0.445-2.007,0.89-4.013,1.335-6.02c-2.935,0.448-6.148-0.172-8.375-1.617
			l-1.621-2.193c-1.165,1.581-3.088,2.868-5.366,3.591c-2.566,0.814-5.542,0.933-7.898,2.028c-2.356,1.094-3.535,3.903-1.203,5.023
			C324,527.831,331.709,527.56,339.419,527.289z"/>
		<path style="fill:#C5E8EF;" d="M368.922,502.54c1.906,0.896,3.813,1.792,5.719,2.689c0.843,0.396,1.788,0.81,2.785,0.705
			c0.944-0.1,1.671-0.643,2.225-1.201c3.2-3.22,2.808-8.032-0.894-10.961c-3.025-2.394-7.994-3.298-12.317-2.48
			c-3.208-0.263-6.118,2.767-5.253,5.221C362.145,499.228,365.659,501.007,368.922,502.54z"/>
		<path style="fill:#C5E8EF;" d="M398.012,587.109c5.376,0.935,11.388-0.344,15.188-3.231c4.887-3.713,5.719-9.231,6.298-14.324
			c-4.981-2.312-11.612-2.664-17.012-0.904l1.329,0.675c0.487,4.254,0.974,8.509,1.46,12.763
			C401.576,582.123,398.203,584.455,398.012,587.109z"/>
		<path style="fill:#C5E8EF;" d="M982.367,524.37c3.294-1.335,5.484-3.782,6.687-6.359c-4.2-1.781-8.935-2.907-13.784-3.278
			c-0.004-0.058-0.007-0.116-0.011-0.174c-5.165,0.929-7.589,6.649-3.492,9.305C974.575,525.685,979.073,525.705,982.367,524.37z"/>
		<path style="fill:#C5E8EF;" d="M1000.202,503.355c0.064,1.017,0.128,2.034,0.192,3.051c0.335-0.06,0.681-0.102,1.039-0.12
			L1000.202,503.355z"/>
		<path style="fill:#C5E8EF;" d="M659.605,626.745c4.897,0.699,7.868,5.215,5.51,8.377c-1.292,1.733-3.907,3.353-3.122,5.237
			c0.697,1.671,3.588,2.179,5.997,2.4c4.717,0.432,9.721,0.808,14.045-0.614c4.323-1.422,7.415-5.344,5.158-8.351
			c-2.096-2.791-7.497-3.475-9.988-6.094c-1.556-1.636-1.704-3.741-2.683-5.593c-0.978-1.852-3.604-3.636-6.201-2.969
			c-0.458-1.516,0.443-3.186,2.171-4.111c-6.876-0.062-13.546,3.773-14.747,8.669c-0.185,0.754-0.216,1.613,0.48,2.192
			C657.022,626.552,658.407,626.574,659.605,626.745z"/>
		<path style="fill:#C5E8EF;" d="M686.847,614.914c-0.069,0.034-0.128,0.076-0.195,0.112c0.394,0.004,0.789,0.014,1.183,0.044
			L686.847,614.914z"/>
		<path style="fill:#C5E8EF;" d="M1192.428,547.659c1.142-0.041,2.398-0.117,3.202-0.701c1.851-1.344-0.471-3.54-2.806-4.413
			c-3.727-1.394-7.975-2.061-12.171-1.912l-1.578,0.519c-2.905-1.305-7.002-1.035-9.53,0.627c-2.528,1.661-3.264,4.57-1.712,6.764
			C1176.031,548.248,1184.229,547.953,1192.428,547.659z"/>
	</g>
	<g>
		<path style="fill:#08758A;" d="M1050.093,659.833c-0.368,0-0.725-0.193-0.917-0.538c-2.048-3.663-4.162-7.322-6.284-10.875
			c-0.297-0.498-0.134-1.142,0.363-1.439c0.497-0.299,1.142-0.136,1.439,0.363c2.132,3.57,4.256,7.247,6.314,10.927
			c0.283,0.506,0.102,1.145-0.404,1.429C1050.442,659.789,1050.266,659.833,1050.093,659.833z M1037.185,638.219
			c-0.346,0-0.686-0.171-0.885-0.485c-2.262-3.546-4.586-7.073-6.91-10.483c-0.327-0.479-0.203-1.131,0.276-1.458
			c0.48-0.328,1.133-0.203,1.458,0.276c2.336,3.427,4.672,6.972,6.945,10.536c0.312,0.489,0.168,1.138-0.32,1.449
			C1037.573,638.165,1037.378,638.219,1037.185,638.219z M1023.008,617.42c-0.324,0-0.644-0.15-0.849-0.432
			c-2.475-3.395-5.018-6.766-7.558-10.021c-0.357-0.457-0.276-1.117,0.182-1.473c0.456-0.358,1.116-0.275,1.473,0.182
			c2.554,3.273,5.111,6.663,7.6,10.076c0.341,0.468,0.238,1.125-0.231,1.466C1023.438,617.354,1023.222,617.42,1023.008,617.42z
			 M1007.517,597.581c-0.3,0-0.599-0.128-0.806-0.376c-2.68-3.203-5.445-6.393-8.22-9.483c-0.387-0.431-0.352-1.095,0.08-1.482
			c0.428-0.387,1.094-0.353,1.482,0.08c2.791,3.107,5.572,6.316,8.267,9.538c0.372,0.445,0.314,1.106-0.131,1.478
			C1007.993,597.501,1007.754,597.581,1007.517,597.581z M990.696,578.86c-0.275,0-0.549-0.107-0.755-0.32
			c-2.905-3.009-5.892-5.99-8.881-8.864c-0.417-0.402-0.431-1.066-0.029-1.484c0.402-0.418,1.065-0.432,1.484-0.029
			c3.006,2.891,6.013,5.891,8.936,8.918c0.402,0.417,0.39,1.082-0.027,1.484C991.222,578.762,990.958,578.86,990.696,578.86z
			 M972.551,561.417c-0.249,0-0.498-0.088-0.698-0.266c-3.119-2.779-6.323-5.526-9.525-8.164c-0.448-0.369-0.511-1.03-0.143-1.477
			c0.367-0.447,1.028-0.512,1.477-0.143c3.222,2.655,6.449,5.42,9.587,8.218c0.432,0.386,0.471,1.049,0.085,1.482
			C973.127,561.299,972.84,561.417,972.551,561.417z M953.124,545.413c-0.221,0-0.445-0.07-0.634-0.214
			c-3.321-2.525-6.73-5.012-10.135-7.393c-0.475-0.332-0.59-0.986-0.258-1.461c0.332-0.475,0.986-0.59,1.462-0.258
			c3.427,2.397,6.86,4.9,10.203,7.442c0.461,0.351,0.55,1.009,0.2,1.471C953.755,545.27,953.441,545.413,953.124,545.413z
			 M932.498,530.99c-0.194,0-0.391-0.054-0.566-0.166c-3.508-2.25-7.107-4.457-10.695-6.559c-0.5-0.293-0.667-0.936-0.375-1.436
			c0.293-0.5,0.935-0.669,1.437-0.375c3.612,2.116,7.234,4.338,10.766,6.603c0.488,0.313,0.629,0.962,0.317,1.45
			C933.182,530.819,932.844,530.99,932.498,530.99z M910.78,518.264c-0.166,0-0.335-0.039-0.493-0.123
			c-3.671-1.958-7.436-3.869-11.188-5.68c-0.522-0.252-0.741-0.879-0.489-1.401c0.251-0.521,0.882-0.742,1.401-0.489
			c3.778,1.823,7.567,3.748,11.264,5.718c0.511,0.273,0.705,0.908,0.432,1.42C911.518,518.063,911.155,518.264,910.78,518.264z
			 M888.11,507.318c-0.139,0-0.281-0.028-0.417-0.088c-3.808-1.656-7.713-3.262-11.605-4.776c-0.54-0.21-0.808-0.818-0.597-1.358
			c0.209-0.541,0.817-0.809,1.358-0.598c3.917,1.523,7.848,3.14,11.681,4.807c0.532,0.231,0.776,0.849,0.544,1.381
			C888.901,507.081,888.516,507.318,888.11,507.318z M864.647,498.193c-0.114,0-0.229-0.019-0.342-0.058
			c-3.92-1.352-7.938-2.652-11.942-3.865c-0.555-0.168-0.868-0.754-0.7-1.309c0.168-0.553,0.755-0.867,1.309-0.7
			c4.029,1.22,8.072,2.529,12.018,3.889c0.547,0.189,0.838,0.786,0.65,1.334C865.49,497.919,865.083,498.193,864.647,498.193z
			 M628.947,495.505c-0.438,0-0.846-0.276-0.994-0.714c-0.185-0.549,0.11-1.145,0.659-1.33c0.043-0.015,4.428-1.488,12.19-3.516
			c0.558-0.149,1.133,0.189,1.281,0.75c0.146,0.561-0.19,1.135-0.75,1.281c-7.683,2.008-12.008,3.46-12.051,3.474
			C629.172,495.487,629.058,495.505,628.947,495.505z M840.549,490.891c-0.088,0-0.178-0.011-0.268-0.034
			c-4.026-1.057-8.13-2.054-12.201-2.965c-0.566-0.127-0.921-0.688-0.794-1.254c0.126-0.565,0.683-0.92,1.253-0.795
			c4.095,0.916,8.225,1.92,12.275,2.983c0.561,0.147,0.896,0.721,0.748,1.282C841.44,490.579,841.014,490.891,840.549,490.891z
			 M653.317,489.052c-0.481,0-0.914-0.332-1.023-0.821c-0.127-0.566,0.23-1.127,0.795-1.253c4.035-0.899,8.198-1.758,12.375-2.55
			c0.576-0.11,1.12,0.266,1.227,0.835c0.108,0.569-0.266,1.119-0.835,1.227c-4.155,0.789-8.297,1.642-12.309,2.537
			C653.47,489.044,653.393,489.052,653.317,489.052z M815.974,485.386c-0.064,0-0.128-0.006-0.194-0.018
			c-4.076-0.762-8.243-1.465-12.384-2.09c-0.573-0.087-0.968-0.622-0.88-1.195c0.086-0.573,0.618-0.967,1.194-0.881
			c4.165,0.629,8.356,1.336,12.456,2.103c0.57,0.107,0.945,0.654,0.839,1.224C816.911,485.034,816.47,485.386,815.974,485.386z
			 M678.071,484.347c-0.507,0-0.953-0.368-1.035-0.885c-0.091-0.572,0.299-1.11,0.871-1.201c4.131-0.656,8.336-1.261,12.5-1.799
			c0.568-0.077,1.102,0.332,1.176,0.907c0.074,0.575-0.332,1.101-0.907,1.175c-4.143,0.535-8.328,1.137-12.438,1.79
			C678.18,484.343,678.125,484.347,678.071,484.347z M791.069,481.62c-0.04,0-0.081-0.002-0.123-0.007
			c-4.117-0.481-8.322-0.9-12.499-1.248c-0.578-0.048-1.006-0.556-0.958-1.133c0.048-0.577,0.543-1.012,1.133-0.959
			c4.2,0.349,8.428,0.772,12.568,1.255c0.575,0.067,0.988,0.588,0.92,1.164C792.048,481.226,791.595,481.62,791.069,481.62z
			 M703.055,481.12c-0.533,0-0.989-0.404-1.043-0.945c-0.057-0.577,0.364-1.091,0.94-1.148c4.178-0.417,8.412-0.776,12.584-1.07
			c0.591-0.041,1.079,0.395,1.12,0.973c0.041,0.579-0.394,1.08-0.973,1.121c-4.152,0.292-8.365,0.65-12.522,1.065
			C703.125,481.119,703.09,481.12,703.055,481.12z M765.966,479.525c-0.018,0-0.036,0-0.054-0.002
			c-4.143-0.211-8.367-0.36-12.558-0.443c-0.58-0.012-1.04-0.49-1.029-1.07c0.011-0.58,0.517-1.029,1.07-1.029
			c4.213,0.083,8.461,0.233,12.624,0.446c0.579,0.029,1.025,0.523,0.995,1.101C766.985,479.09,766.521,479.525,765.966,479.525z
			 M728.185,479.353c-0.56,0-1.025-0.442-1.047-1.006c-0.024-0.58,0.426-1.068,1.005-1.092c4.2-0.172,8.447-0.282,12.625-0.327
			c0.004,0,0.008,0,0.011,0c0.575,0,1.043,0.462,1.049,1.038c0.006,0.58-0.458,1.055-1.038,1.061
			c-4.156,0.045-8.383,0.155-12.561,0.325C728.214,479.352,728.199,479.353,728.185,479.353z"/>
	</g>
	<g>
		<path style="fill:#08758A;" d="M292.724,635.369c-0.112,0-0.224-0.018-0.336-0.056c-0.549-0.185-0.843-0.781-0.658-1.33
			c0.377-1.117,0.759-2.226,1.146-3.326c0.191-0.546,0.789-0.833,1.337-0.644c0.546,0.192,0.834,0.791,0.643,1.338
			c-0.382,1.094-0.763,2.195-1.138,3.305C293.571,635.093,293.162,635.369,292.724,635.369z M298.267,620.259
			c-0.129,0-0.259-0.024-0.386-0.074c-0.539-0.214-0.802-0.823-0.589-1.362c1.564-3.947,3.212-7.863,4.9-11.639
			c0.237-0.528,0.855-0.767,1.387-0.53c0.529,0.237,0.767,0.857,0.53,1.387c-1.676,3.749-3.313,7.637-4.865,11.555
			C299.079,620.007,298.684,620.259,298.267,620.259z M308.546,597.295c-0.159,0-0.32-0.036-0.471-0.112
			c-0.518-0.261-0.726-0.892-0.464-1.41c1.909-3.787,3.917-7.533,5.967-11.137c0.286-0.504,0.929-0.68,1.431-0.393
			c0.504,0.286,0.681,0.928,0.393,1.431c-2.033,3.573-4.024,7.289-5.918,11.044C309.3,597.084,308.931,597.295,308.546,597.295z
			 M321,575.439c-0.195,0-0.39-0.054-0.567-0.167c-0.487-0.314-0.628-0.963-0.315-1.45c2.294-3.571,4.695-7.081,7.135-10.435
			c0.339-0.469,0.997-0.574,1.466-0.231c0.469,0.341,0.573,0.997,0.232,1.466c-2.417,3.321-4.794,6.799-7.068,10.335
			C321.683,575.269,321.345,575.439,321,575.439z M335.807,555.11c-0.235,0-0.471-0.079-0.667-0.24
			c-0.447-0.369-0.51-1.031-0.141-1.477c2.694-3.263,5.508-6.456,8.362-9.491c0.399-0.423,1.062-0.442,1.484-0.046
			c0.422,0.397,0.442,1.061,0.045,1.484c-2.824,3.001-5.607,6.161-8.272,9.389C336.41,554.98,336.11,555.11,335.807,555.11z
			 M353.047,536.801c-0.281,0-0.562-0.113-0.769-0.335c-0.395-0.425-0.37-1.088,0.054-1.483c3.087-2.868,6.305-5.656,9.565-8.286
			c0.451-0.365,1.113-0.292,1.476,0.158c0.364,0.451,0.293,1.112-0.158,1.476c-3.222,2.599-6.404,5.355-9.455,8.189
			C353.56,536.708,353.303,536.801,353.047,536.801z M372.627,521.015c-0.332,0-0.659-0.157-0.863-0.45
			c-0.331-0.476-0.213-1.129,0.262-1.461c3.451-2.4,7.032-4.705,10.646-6.851c0.497-0.296,1.143-0.132,1.438,0.366
			c0.296,0.499,0.132,1.142-0.366,1.438c-3.571,2.121-7.11,4.398-10.518,6.769C373.043,520.954,372.834,521.015,372.627,521.015z
			 M394.252,508.168c-0.384,0-0.755-0.212-0.939-0.579c-0.26-0.518-0.051-1.149,0.467-1.409c3.741-1.876,7.613-3.65,11.51-5.273
			c0.534-0.22,1.149,0.03,1.372,0.566c0.223,0.535-0.03,1.149-0.565,1.372c-3.852,1.604-7.679,3.358-11.376,5.212
			C394.571,508.132,394.41,508.168,394.252,508.168z M417.475,498.486c-0.438,0-0.846-0.276-0.994-0.713
			c-0.185-0.549,0.109-1.145,0.658-1.331c3.952-1.339,8.029-2.571,12.117-3.663c0.551-0.146,1.134,0.183,1.284,0.743
			c0.15,0.56-0.182,1.135-0.743,1.285c-4.044,1.08-8.076,2.299-11.986,3.623C417.701,498.467,417.587,498.486,417.475,498.486z
			 M554.028,497.184c-0.109,0-0.219-0.017-0.328-0.052c-0.044-0.014-4.483-1.464-12.094-3.201c-0.565-0.129-0.918-0.692-0.789-1.257
			c0.129-0.566,0.693-0.919,1.257-0.79c7.716,1.761,12.099,3.193,12.282,3.253c0.55,0.181,0.85,0.774,0.669,1.325
			C554.879,496.904,554.468,497.184,554.028,497.184z M441.791,491.98c-0.49,0-0.927-0.344-1.028-0.843
			c-0.114-0.568,0.254-1.121,0.822-1.235c4.082-0.82,8.281-1.533,12.479-2.117c0.578-0.087,1.104,0.32,1.184,0.895
			c0.08,0.574-0.321,1.104-0.895,1.184c-4.157,0.579-8.313,1.284-12.354,2.096C441.929,491.973,441.859,491.98,441.791,491.98z
			 M529.486,491.487c-0.059,0-0.12-0.005-0.18-0.015c-4.08-0.707-8.255-1.325-12.41-1.836c-0.575-0.071-0.984-0.595-0.913-1.17
			c0.071-0.574,0.59-0.986,1.169-0.914c4.189,0.516,8.399,1.138,12.513,1.851c0.571,0.099,0.954,0.642,0.855,1.214
			C530.431,491.127,529.987,491.487,529.486,491.487z M466.727,488.494c-0.541,0-1-0.415-1.045-0.964
			c-0.047-0.577,0.383-1.084,0.96-1.132c4.152-0.34,8.403-0.571,12.637-0.687c0.009-0.001,0.02-0.001,0.03-0.001
			c0.566,0,1.032,0.451,1.048,1.021c0.015,0.579-0.442,1.062-1.021,1.078c-4.196,0.115-8.409,0.344-12.522,0.681
			C466.785,488.493,466.756,488.494,466.727,488.494z M504.487,488.409c-0.026,0-0.052-0.001-0.078-0.003
			c-4.171-0.308-8.387-0.515-12.53-0.615c-0.579-0.014-1.037-0.495-1.024-1.074c0.014-0.571,0.482-1.024,1.049-1.024
			c0.008,0,0.016,0,0.026,0.001c4.177,0.1,8.428,0.309,12.634,0.62c0.577,0.043,1.012,0.546,0.969,1.124
			C505.492,487.989,505.032,488.409,504.487,488.409z"/>
	</g>
	<ellipse style="fill:#DCE6EA;" cx="250.804" cy="661.103" rx="55.274" ry="11.596"/>
	<ellipse style="fill:#DCE6EA;" cx="592.28" cy="498.704" rx="55.274" ry="11.596"/>
	<ellipse style="fill:#DCE6EA;" cx="1099.97" cy="685.499" rx="55.274" ry="11.596"/>
	<g>
		<polygon style="fill:#E04343;" points="1041.195,469.889 1041.195,469.899 1041.184,469.889 		"/>
		<g>
			<path style="fill:#E04343;" d="M1100.993,368.148c-57.625-0.547-105.491,45.94-106.545,103.557
				c-0.407,22.246,6.064,42.959,17.448,60.149h0.01v0.011l0.021,0.021c31.446,37.371,60.821,80.293,82.544,121.044
				c2.24,4.201,8.312,4.135,10.431-0.128c19.748-39.736,57.216-84.477,84.949-123.777c9.929-16.095,15.659-35.049,15.659-55.343
				C1205.51,415.737,1158.809,368.696,1100.993,368.148z M1099.97,540.517c-12.576,0-24.344-3.476-34.39-9.514
				c-19.443-11.693-32.444-32.986-32.444-57.32c0-36.909,29.925-66.823,66.834-66.823c36.909,0,66.834,29.914,66.834,66.823
				c0,23.579-12.204,44.298-30.648,56.193C1125.728,536.605,1113.301,540.517,1099.97,540.517z"/>
			<path style="fill:#E04343;" d="M1069.916,655.445c0-16.598,13.456-30.053,30.054-30.053c16.599,0,30.054,13.455,30.054,30.053
				c0,16.599-13.455,30.054-30.054,30.054C1083.372,685.499,1069.916,672.044,1069.916,655.445z"/>
		</g>
	</g>
	<g>
		<polygon style="fill:#E04343;" points="533.505,283.093 533.505,283.104 533.494,283.093 		"/>
		<g>
			<path style="fill:#E04343;" d="M593.303,181.352c-57.625-0.547-105.491,45.94-106.545,103.557
				c-0.407,22.246,6.064,42.959,17.448,60.149h0.01v0.011l0.021,0.021c31.446,37.371,60.821,80.293,82.544,121.044
				c2.24,4.201,8.312,4.135,10.431-0.128c19.748-39.736,57.216-84.477,84.949-123.777c9.929-16.095,15.659-35.049,15.659-55.343
				C697.821,228.942,651.119,181.901,593.303,181.352z M592.281,353.722c-12.576,0-24.344-3.476-34.39-9.514
				c-19.443-11.693-32.444-32.986-32.444-57.32c0-36.909,29.925-66.823,66.834-66.823c36.909,0,66.834,29.914,66.834,66.823
				c0,23.579-12.204,44.298-30.648,56.193C618.038,349.81,605.611,353.722,592.281,353.722z"/>
			<path style="fill:#E04343;" d="M562.226,468.65c0-16.598,13.456-30.053,30.054-30.053c16.599,0,30.054,13.455,30.054,30.053
				c0,16.599-13.455,30.054-30.054,30.054C575.683,498.704,562.226,485.249,562.226,468.65z"/>
		</g>
	</g>
	<g>
		<polygon style="fill:#E04343;" points="192.029,445.492 192.029,445.503 192.018,445.492 		"/>
		<g>
			<path style="fill:#E04343;" d="M251.827,343.751c-57.625-0.547-105.491,45.94-106.545,103.557
				c-0.407,22.246,6.064,42.959,17.448,60.149h0.01v0.011l0.021,0.021c31.446,37.371,60.821,80.293,82.544,121.044
				c2.24,4.201,8.312,4.135,10.431-0.128c19.748-39.736,57.216-84.477,84.949-123.777c9.929-16.095,15.659-35.049,15.659-55.343
				C356.344,391.341,309.643,344.3,251.827,343.751z M250.804,516.121c-12.576,0-24.344-3.476-34.39-9.514
				c-19.443-11.693-32.444-32.986-32.444-57.32c0-36.909,29.925-66.823,66.834-66.823c36.909,0,66.834,29.914,66.834,66.823
				c0,23.579-12.204,44.298-30.648,56.193C276.562,512.209,264.135,516.121,250.804,516.121z"/>
			<path style="fill:#E04343;" d="M220.75,631.049c0-16.598,13.456-30.053,30.054-30.053c16.599,0,30.054,13.455,30.054,30.053
				c0,16.599-13.455,30.054-30.054,30.054C234.206,661.103,220.75,647.648,220.75,631.049z"/>
		</g>
	</g>
	<g>
		<path style="fill:#08758A;" d="M1068.357,686.375c-0.169,0-0.34-0.04-0.499-0.127c-3.708-2.011-7.405-3.994-11.089-5.948
			c-0.511-0.272-0.707-0.906-0.435-1.418c0.272-0.513,0.907-0.709,1.419-0.436c3.691,1.957,7.392,3.943,11.106,5.957
			c0.509,0.276,0.699,0.913,0.422,1.423C1069.091,686.176,1068.73,686.375,1068.357,686.375z M271.288,675.665
			c-0.286,0-0.572-0.117-0.779-0.346c-0.388-0.43-0.355-1.094,0.076-1.482c0.034-0.03,3.408-3.064,9.876-8.026
			c0.462-0.353,1.12-0.264,1.471,0.194c0.354,0.46,0.266,1.119-0.194,1.472c-6.392,4.905-9.714,7.89-9.747,7.92
			C271.791,675.576,271.539,675.665,271.288,675.665z M1046.107,674.577c-0.162,0-0.327-0.037-0.482-0.117
			c-3.747-1.94-7.481-3.85-11.202-5.732c-0.518-0.262-0.725-0.893-0.463-1.41c0.261-0.517,0.893-0.725,1.41-0.463
			c3.728,1.884,7.467,3.798,11.221,5.741c0.514,0.266,0.715,0.9,0.449,1.415C1046.853,674.371,1046.487,674.577,1046.107,674.577z
			 M1023.628,663.218c-0.156,0-0.314-0.035-0.463-0.109c-3.784-1.865-7.555-3.7-11.313-5.504c-0.523-0.251-0.743-0.878-0.492-1.4
			c0.25-0.522,0.874-0.745,1.4-0.492c3.764,1.807,7.543,3.645,11.333,5.513c0.52,0.256,0.733,0.885,0.477,1.406
			C1024.387,663.003,1024.015,663.218,1023.628,663.218z M291.257,660.216c-0.329,0-0.653-0.154-0.858-0.443
			c-0.335-0.473-0.222-1.128,0.25-1.463c3.352-2.374,6.864-4.775,10.436-7.137c0.483-0.321,1.134-0.187,1.454,0.297
			c0.32,0.483,0.186,1.134-0.296,1.454c-3.554,2.35-7.046,4.738-10.38,7.099C291.679,660.153,291.467,660.216,291.257,660.216z
			 M1000.923,652.319c-0.149,0-0.299-0.032-0.444-0.099c-3.821-1.786-7.63-3.541-11.426-5.265c-0.527-0.24-0.76-0.862-0.521-1.39
			c0.238-0.527,0.862-0.762,1.389-0.522c3.803,1.728,7.619,3.486,11.448,5.276c0.525,0.245,0.751,0.87,0.506,1.395
			C1001.697,652.095,1001.319,652.319,1000.923,652.319z M312.281,646.299c-0.35,0-0.694-0.176-0.893-0.496
			c-0.305-0.492-0.155-1.14,0.338-1.445c3.53-2.191,7.17-4.384,10.821-6.516c0.504-0.293,1.145-0.124,1.436,0.377
			c0.292,0.5,0.124,1.143-0.376,1.435c-3.635,2.124-7.259,4.307-10.774,6.488C312.661,646.249,312.47,646.299,312.281,646.299z
			 M977.994,641.902c-0.141,0-0.285-0.029-0.422-0.089c-3.862-1.703-7.707-3.375-11.539-5.015c-0.533-0.228-0.78-0.845-0.551-1.378
			c0.228-0.533,0.849-0.778,1.377-0.552c3.838,1.643,7.692,3.318,11.56,5.025c0.531,0.234,0.771,0.854,0.537,1.384
			C978.782,641.669,978.398,641.902,977.994,641.902z M334.04,633.581c-0.37,0-0.73-0.196-0.92-0.543
			c-0.28-0.508-0.094-1.146,0.413-1.426c3.639-2.004,7.386-4.007,11.134-5.953c0.514-0.265,1.148-0.066,1.415,0.448
			c0.266,0.515,0.067,1.148-0.448,1.415c-3.734,1.938-7.464,3.933-11.089,5.928C334.385,633.539,334.212,633.581,334.04,633.581z
			 M954.841,631.993c-0.134,0-0.271-0.026-0.402-0.08c-3.868-1.604-7.786-3.203-11.648-4.753c-0.538-0.216-0.799-0.827-0.583-1.365
			c0.215-0.538,0.825-0.799,1.364-0.583c3.87,1.553,7.796,3.155,11.67,4.762c0.536,0.222,0.789,0.836,0.568,1.372
			C955.642,631.749,955.252,631.993,954.841,631.993z M931.469,622.615c-0.126,0-0.254-0.023-0.379-0.071
			c-3.907-1.515-7.863-3.021-11.758-4.477c-0.542-0.203-0.818-0.808-0.615-1.35c0.203-0.542,0.807-0.82,1.351-0.615
			c3.902,1.459,7.865,2.969,11.78,4.485c0.54,0.21,0.809,0.818,0.6,1.358C932.287,622.36,931.89,622.615,931.469,622.615z
			 M356.404,621.97c-0.388,0-0.761-0.216-0.944-0.588c-0.254-0.521-0.039-1.149,0.482-1.404c3.742-1.83,7.578-3.652,11.402-5.415
			c0.53-0.244,1.151-0.012,1.393,0.514c0.243,0.526,0.012,1.15-0.513,1.392c-3.811,1.756-7.631,3.571-11.359,5.394
			C356.715,621.936,356.559,621.97,356.404,621.97z M907.877,613.796c-0.118,0-0.238-0.02-0.356-0.063
			c-3.927-1.414-7.918-2.824-11.862-4.188c-0.547-0.189-0.838-0.787-0.649-1.334c0.189-0.549,0.788-0.838,1.336-0.649
			c3.951,1.367,7.95,2.779,11.887,4.197c0.545,0.196,0.828,0.798,0.631,1.343C908.711,613.529,908.308,613.796,907.877,613.796z
			 M379.286,611.427c-0.406,0-0.792-0.237-0.964-0.633c-0.23-0.531,0.014-1.149,0.546-1.38c3.849-1.668,7.764-3.312,11.635-4.888
			c0.532-0.217,1.15,0.039,1.367,0.576c0.219,0.537-0.039,1.149-0.576,1.368c-3.857,1.57-7.756,3.208-11.591,4.87
			C379.567,611.399,379.425,611.427,379.286,611.427z M884.076,605.562c-0.11,0-0.22-0.017-0.33-0.054
			c-3.971-1.318-7.997-2.625-11.965-3.885c-0.552-0.175-0.858-0.766-0.682-1.318c0.175-0.551,0.765-0.858,1.318-0.683
			c3.976,1.263,8.01,2.573,11.99,3.893c0.549,0.183,0.848,0.776,0.665,1.327C884.926,605.283,884.516,605.562,884.076,605.562z
			 M402.617,601.927c-0.422,0-0.821-0.257-0.981-0.676c-0.206-0.542,0.066-1.148,0.607-1.355c3.907-1.49,7.89-2.96,11.839-4.37
			c0.545-0.195,1.147,0.09,1.341,0.636c0.195,0.546-0.089,1.146-0.635,1.341c-3.935,1.404-7.903,2.869-11.796,4.354
			C402.868,601.904,402.742,601.927,402.617,601.927z M860.074,597.941c-0.101,0-0.203-0.015-0.304-0.046
			c-4.035-1.222-8.094-2.422-12.063-3.567c-0.556-0.161-0.878-0.742-0.717-1.3c0.161-0.557,0.742-0.878,1.299-0.717
			c3.978,1.147,8.046,2.35,12.09,3.575c0.554,0.168,0.868,0.754,0.7,1.309C860.941,597.649,860.525,597.941,860.074,597.941z
			 M426.34,593.46c-0.44,0-0.85-0.279-0.996-0.718c-0.182-0.55,0.115-1.144,0.665-1.327c3.962-1.319,8.004-2.616,12.013-3.856
			c0.557-0.174,1.142,0.139,1.313,0.692c0.171,0.553-0.138,1.141-0.692,1.313c-3.995,1.236-8.023,2.528-11.972,3.842
			C426.562,593.443,426.45,593.46,426.34,593.46z M835.875,590.963c-0.092,0-0.186-0.012-0.278-0.038
			c-4.035-1.104-8.124-2.193-12.154-3.236c-0.562-0.146-0.899-0.718-0.753-1.279c0.145-0.562,0.71-0.897,1.279-0.753
			c4.039,1.045,8.138,2.137,12.182,3.244c0.56,0.153,0.889,0.73,0.736,1.289C836.759,590.656,836.337,590.963,835.875,590.963z
			 M450.404,586.016c-0.457,0-0.877-0.3-1.009-0.761c-0.16-0.557,0.162-1.138,0.72-1.298c4.027-1.153,8.119-2.279,12.165-3.346
			c0.55-0.146,1.135,0.186,1.282,0.747c0.148,0.56-0.187,1.135-0.747,1.282c-4.032,1.064-8.11,2.186-12.122,3.335
			C450.596,586.003,450.499,586.016,450.404,586.016z M811.493,584.654c-0.082,0-0.166-0.01-0.249-0.03
			c-4.072-0.992-8.19-1.964-12.241-2.889c-0.565-0.129-0.918-0.692-0.789-1.257c0.129-0.566,0.692-0.919,1.257-0.79
			c4.061,0.928,8.189,1.902,12.27,2.896c0.564,0.137,0.909,0.705,0.772,1.268C812.395,584.333,811.966,584.654,811.493,584.654z
			 M474.755,579.587c-0.474,0-0.903-0.322-1.019-0.802c-0.136-0.564,0.21-1.131,0.773-1.267c4.041-0.978,8.177-1.934,12.29-2.841
			c0.567-0.128,1.126,0.233,1.251,0.799c0.125,0.566-0.233,1.126-0.798,1.251c-4.1,0.904-8.222,1.857-12.25,2.832
			C474.92,579.578,474.837,579.587,474.755,579.587z M786.942,579.048c-0.073,0-0.146-0.007-0.219-0.023
			c-4.1-0.873-8.244-1.723-12.32-2.528c-0.569-0.112-0.939-0.664-0.827-1.233c0.114-0.568,0.666-0.94,1.233-0.826
			c4.086,0.807,8.242,1.659,12.351,2.534c0.567,0.121,0.929,0.678,0.809,1.245C787.862,578.711,787.427,579.048,786.942,579.048z
			 M762.234,574.173c-0.063,0-0.125-0.005-0.189-0.017c-4.135-0.75-8.304-1.474-12.39-2.151c-0.572-0.094-0.959-0.635-0.864-1.207
			c0.094-0.571,0.634-0.955,1.206-0.864c4.097,0.679,8.277,1.405,12.423,2.157c0.57,0.104,0.949,0.65,0.846,1.22
			C763.174,573.818,762.732,574.173,762.234,574.173z M499.351,574.166c-0.491,0-0.929-0.345-1.028-0.844
			c-0.114-0.568,0.255-1.121,0.824-1.234c4.099-0.817,8.269-1.604,12.395-2.34c0.574-0.102,1.116,0.278,1.218,0.849
			c0.101,0.571-0.278,1.116-0.849,1.217c-4.113,0.734-8.269,1.518-12.354,2.332C499.488,574.159,499.418,574.166,499.351,574.166z
			 M737.388,570.059c-0.051,0-0.104-0.004-0.156-0.012c-4.15-0.62-8.339-1.212-12.452-1.76c-0.575-0.076-0.979-0.604-0.902-1.179
			c0.076-0.575,0.607-0.978,1.179-0.902c4.124,0.549,8.324,1.143,12.485,1.765c0.574,0.086,0.969,0.62,0.883,1.193
			C738.348,569.685,737.9,570.059,737.388,570.059z M524.143,569.743c-0.507,0-0.954-0.369-1.035-0.886
			c-0.091-0.572,0.3-1.11,0.872-1.2c4.125-0.651,8.323-1.272,12.478-1.844c0.584-0.083,1.104,0.323,1.183,0.896
			c0.08,0.574-0.322,1.104-0.896,1.183c-4.141,0.57-8.326,1.189-12.437,1.838C524.253,569.739,524.197,569.743,524.143,569.743z
			 M712.424,566.736c-0.04,0-0.081-0.002-0.123-0.007c-4.143-0.484-8.349-0.939-12.502-1.354c-0.576-0.057-0.997-0.572-0.94-1.149
			c0.058-0.576,0.564-0.993,1.149-0.94c4.164,0.416,8.383,0.873,12.536,1.358c0.576,0.067,0.988,0.588,0.92,1.164
			C713.403,566.343,712.95,566.736,712.424,566.736z M549.091,566.305c-0.525,0-0.978-0.393-1.041-0.927
			c-0.068-0.575,0.343-1.097,0.919-1.165c4.158-0.49,8.378-0.947,12.54-1.355c0.589-0.058,1.09,0.365,1.147,0.942
			c0.056,0.576-0.365,1.091-0.942,1.147c-4.149,0.408-8.354,0.862-12.499,1.351C549.173,566.303,549.132,566.305,549.091,566.305z
			 M687.365,564.233c-0.029,0-0.058-0.001-0.088-0.004c-4.192-0.347-8.411-0.661-12.54-0.934c-0.579-0.038-1.017-0.538-0.979-1.116
			c0.039-0.579,0.542-1.013,1.116-0.978c4.141,0.273,8.372,0.588,12.577,0.936c0.577,0.048,1.006,0.555,0.958,1.133
			C688.365,563.818,687.905,564.233,687.365,564.233z M574.153,563.837c-0.542,0-1.001-0.417-1.045-0.966
			c-0.045-0.578,0.385-1.083,0.963-1.129c4.153-0.328,8.386-0.624,12.581-0.876c0.58-0.031,1.076,0.405,1.111,0.984
			c0.035,0.579-0.406,1.076-0.984,1.11c-4.183,0.252-8.402,0.546-12.542,0.874C574.208,563.836,574.18,563.837,574.153,563.837z
			 M662.234,562.578c-0.017,0-0.035,0-0.052-0.001c-4.181-0.203-8.409-0.371-12.564-0.5c-0.579-0.018-1.034-0.502-1.017-1.082
			c0.018-0.579,0.515-1.046,1.082-1.016c4.167,0.129,8.406,0.298,12.601,0.501c0.579,0.028,1.025,0.52,0.997,1.099
			C663.254,562.141,662.79,562.578,662.234,562.578z M599.289,562.324c-0.56,0-1.024-0.442-1.048-1.006
			c-0.024-0.579,0.426-1.068,1.005-1.092c4.182-0.173,8.423-0.31,12.604-0.406c0.008,0,0.017,0,0.025,0
			c0.569,0,1.036,0.454,1.049,1.025c0.013,0.58-0.446,1.06-1.025,1.073c-4.169,0.096-8.397,0.232-12.567,0.405
			C599.319,562.324,599.303,562.324,599.289,562.324z M637.06,561.798c-0.004,0-0.009,0-0.013,0
			c-4.223-0.055-8.41-0.072-12.573-0.054c-0.002,0-0.004,0-0.005,0c-0.577,0-1.046-0.467-1.049-1.044
			c-0.003-0.58,0.465-1.052,1.044-1.055c4.175-0.021,8.374-0.002,12.61,0.054c0.58,0.008,1.043,0.484,1.036,1.063
			C638.103,561.338,637.634,561.798,637.06,561.798z"/>
	</g>
	<g>
		<g>
			<path style="fill:#F7AA46;" d="M999.196,679.558c0,0-32.106,4.749-31.558,4.431c0.548-0.318,58.76,29.537,58.76,29.537
				l57.359-25.699l-28.439-8.268H999.196z"/>
		</g>
		<g>
			<g>
				<path style="fill:#FFD4C2;" d="M1011.528,723.365c-0.162,0.002-0.325,0.003-0.481,0.006c-0.099,0-0.198,0.001-0.297,0.001
					c-8.168,0.094-13.502-0.109-13.502-0.109s-0.392,0.087-1.107,0.235c-6.984,1.448-44.638,8.622-41.429-5.566
					c2.812-12.458,25.404-10.909,34.463-9.766c0.035,0,0.062,0.006,0.089,0.012c2.261,0.289,3.654,0.544,3.654,0.544
					s4.495-1.933,11.589-4.685c0.292-0.116,0.593-0.236,0.891-0.35c23.369-9.069,72.518-26.26,85.24-15.929
					c-0.001,0.007-0.001,0.007-0.001,0.007c0.14,0.107,0.277,0.227,0.408,0.346c0.008-0.006,0.02,0.004,0.024,0.019
					c0.135,0.127,0.263,0.26,0.391,0.393c0.112,0.108,0.221,0.229,0.32,0.363c0.041,0.037,0.08,0.087,0.12,0.138
					c0.139,0.177,0.277,0.362,0.4,0.549c-0.001,0.007,0.005,0.008,0.005,0.008c0.133,0.204,0.259,0.414,0.377,0.629
					c0.112,0.207,0.209,0.417,0.298,0.633c0.206,0.466,0.364,0.965,0.479,1.49c0.115,0.532,0.21,1.053,0.273,1.567
					c0.118,0.921,0.164,1.812,0.123,2.686C1092.832,719.497,1038.156,723.012,1011.528,723.365z"/>
			</g>
			<g>
				<path style="fill:#F7AA46;" d="M1011.951,726.036l-0.904-2.665l-0.392-1.162c-0.005-0.008-0.004-0.015-0.004-0.015
					l-6.143-18.158l-0.882-2.604c23.391-9.079,74.063-24.47,87.004-13.698l0.005,0.008c0.145,0.115,0.282,0.235,0.41,0.368
					c0.008-0.006,0.02,0.004,0.024,0.019c0.135,0.127,0.263,0.26,0.391,0.393c0.112,0.108,0.221,0.229,0.32,0.363
					c0.041,0.037,0.08,0.087,0.12,0.138c0.139,0.177,0.277,0.362,0.4,0.549c-0.001,0.007,0.005,0.008,0.005,0.008
					c0.133,0.204,0.259,0.414,0.377,0.629c0.112,0.207,0.209,0.417,0.298,0.633c0.206,0.466,0.364,0.965,0.479,1.49
					c0.115,0.532,0.21,1.053,0.273,1.567c0.118,0.921,0.164,1.812,0.123,2.686C1092.913,719.783,1038.593,725.685,1011.951,726.036z
					"/>
			</g>
			<g>
				<path style="fill:#3F4749;" d="M992.904,708.784c0,0-42.596-8.322-44.452,9.683c-1.994,19.344,48.781,4.862,48.781,4.862
					s-19.583,4.284-18.653-6.698C979.481,706.004,992.904,708.784,992.904,708.784z"/>
			</g>
		</g>
		<g>
			<path style="fill:#FFD4C2;" d="M1056.196,635.687c-8.359,11.739-0.882,43.871-0.882,43.871h-56.118
				c1.55-2.199,5.92-29.894-3.922-45.161c-15.882-24.628,1.229-43.777,1.229-43.777l23.339-4.243l1.49-7.43l1.023-5.118l0.24-1.189
				h10.497l0.381,2.232l0.822,4.864l1.216,7.176l21.454,4.657C1056.964,591.568,1075.338,608.793,1056.196,635.687z"/>
		</g>
		<g>
			<path style="fill:#97AD4D;" d="M1056.192,635.695c-8.362,11.737-0.875,43.864-0.875,43.864h-56.122
				c1.32-1.872,4.68-22.246-0.43-37.665c-0.89-2.7-2.041-5.232-3.498-7.502c-15.879-24.624,1.227-43.771,1.227-43.771l23.351-4.25
				c0.895,5.222,13.628,4.915,15.664,0.537l21.449,4.664C1056.959,591.57,1075.339,608.784,1056.192,635.695z"/>
		</g>
		<g>
			<path style="fill:#C4626E;" d="M999.196,679.558c1.32-1.872,4.68-22.246-0.43-37.665c11.066-3.216,9.198,27.501,27.632,37.665
				H999.196z"/>
		</g>
		<g>
			<path style="fill:#FFD4C2;" d="M1086.715,660.11c-0.583,3.636-3.145,7.579-6.935,11.476c-9.696,9.957-29.444,9.512-42.991,13.133
				l-1.414-7.218c0,0,24.184-6.82,29.385-15.305c0.552-0.905,0.936-1.749,1.09-2.5c1.764-8.453-8.025-19.024-8.025-19.024
				l-1.041-49.08C1056.784,591.592,1089.66,641.622,1086.715,660.11z"/>
		</g>
		<g>
			<path style="fill:#97AD4D;" d="M1087.037,660.107c-0.628,3.421-2.679,7.717-6.093,11.465c-0.361,0.395-0.956,0.462-1.403,0.174
				l-4.156-2.7l-10.897-7.062c0.554-0.902,0.835-1.811,0.989-2.566c1.764-8.452-13.918-21.528-13.918-21.528l3.769-46.604
				c5.051-0.227,13.349,11.298,20.238,25.43c0,0,0.006,0.019,0.02,0.053C1083.042,632.058,1088.828,650.372,1087.037,660.107z"/>
		</g>
		<g>
			<path style="fill:#FFD4C2;" d="M1018.919,677.622l0.245,4.799c0.434-0.151,0.398-0.78-0.051-0.873
				c-12.073-2.494-31.916,0.957-41.576-7.248c-5.953-5.063-9.204-11.296-9.971-16.097c-2.945-18.488,29.122-67.546,29.122-67.546
				l-1.185,49.016c0,0-9.788,10.571-8.024,19.024c0.307,1.504,1.504,3.36,3.237,5.385
				C997.958,672.582,1018.919,677.622,1018.919,677.622z"/>
		</g>
		<g>
			<path style="fill:#97AD4D;" d="M987.475,658.697c0.307,1.504,2.359,2.82,4.089,4.844l-10.122,8.419l-4.069,3.381
				c-5.953-5.065-9.448-11.546-10.757-16.23c-2.024-7.21,0.856-19.53,5.713-31.764c0.02-0.067,0.033-0.101,0.033-0.101
				c7.33-18.461,19.122-36.688,25.283-36.836l3.555,49.738C1001.199,640.15,985.711,650.245,987.475,658.697z"/>
		</g>
		<g>
			<g>
				<path style="fill:#FFD4C2;" d="M1098.305,716.347c3.38,14.425-35.023,7.432-42.148,6.015c-0.729-0.144-1.13-0.229-1.13-0.229
					s-5.565,0.259-14.052,0.225c-0.166,0-0.331,0-0.497,0c-12.323-0.064-30.551-0.738-46.884-3.652
					c-20.038-3.57-37.235-10.493-37.205-23.766c0.001-0.029,0.003-0.051-0.001-0.071c0.005-0.541,0.037-1.088,0.102-1.649
					c0.004-0.015,0.003-0.022,0.001-0.029c0.069-0.577,0.166-1.159,0.288-1.754c0.114-0.536,0.27-1.045,0.476-1.522
					c0.089-0.221,0.186-0.436,0.298-0.648c0.117-0.22,0.244-0.434,0.378-0.644c0,0,0.007-0.001,0.005-0.008
					c0.124-0.193,0.263-0.381,0.403-0.563c0.039-0.051,0.078-0.103,0.12-0.141c0.1-0.137,0.21-0.261,0.323-0.372
					c0.128-0.136,0.257-0.272,0.395-0.402c0.004-0.015,0.016-0.025,0.024-0.02c1.55-1.445,3.721-2.421,6.385-3.015
					c18.319-4.075,59.899,10.181,80.975,18.161c0.305,0.114,0.612,0.234,0.911,0.349c7.248,2.744,11.842,4.675,11.842,4.675
					s1.417-0.272,3.717-0.585c0.027-0.006,0.056-0.005,0.091-0.013C1072.34,705.449,1095.329,703.685,1098.305,716.347z"/>
			</g>
			<g>
				<path style="fill:#FFBA57;" d="M1048.349,699.952l-0.876,2.66l-6.498,19.746l-0.899,2.722
					c-11.183-0.052-27.159-1.029-42.152-3.809c0,0,0,0-0.009-0.006c-21.833-4.043-41.603-11.911-41.526-26.325
					c0.001-0.029,0.003-0.051-0.001-0.071c0.005-0.541,0.043-1.096,0.102-1.649c0.004-0.015,0.003-0.022,0.001-0.029
					c0.069-0.577,0.166-1.159,0.288-1.754c0.114-0.536,0.27-1.045,0.476-1.522c0.089-0.221,0.186-0.436,0.298-0.648
					c0.117-0.22,0.244-0.434,0.378-0.644c0,0,0.007-0.001,0.005-0.008c0.124-0.193,0.263-0.381,0.403-0.563
					c0.039-0.051,0.078-0.103,0.12-0.141c0.1-0.137,0.21-0.261,0.323-0.372c0.128-0.136,0.257-0.272,0.395-0.402
					c0.004-0.015,0.016-0.025,0.024-0.02c1.601-1.543,3.887-2.615,6.699-3.292C984.74,679.227,1027.313,691.993,1048.349,699.952z"
					/>
			</g>
			<g>
				<path style="fill:#3F4749;" d="M1059.327,707.351c0,0,43.314-8.833,45.355,9.491c2.193,19.685-49.642,5.36-49.642,5.36
					s18.936,3.586,17.897-7.592C1071.93,703.794,1059.327,707.351,1059.327,707.351z"/>
			</g>
		</g>
		<g>
			<path style="fill:#FFFFFF;" d="M1066.491,636.255v46.062c0,2.479-2.011,4.49-4.49,4.49h-70.577c-2.479,0-4.49-2.011-4.49-4.49
				v-46.062c0-2.479,2.011-4.491,4.49-4.491h70.577C1064.48,631.764,1066.491,633.776,1066.491,636.255z"/>
		</g>
		<g>
			<path style="fill:#E2EDF0;" d="M1019.685,659.286c0-3.882,3.147-7.028,7.029-7.028c3.881,0,7.028,3.147,7.028,7.028
				c0,3.882-3.147,7.028-7.028,7.028C1022.832,666.314,1019.685,663.168,1019.685,659.286z"/>
		</g>
		<g>
			<path style="fill:#FFFFFF;" d="M1066.491,636.255v46.062c0,2.479-2.011,4.49-4.49,4.49h-70.577c-2.479,0-4.49-2.011-4.49-4.49
				c71.38,3.277,79.557-7.192,75.067-50.553C1064.48,631.764,1066.491,633.776,1066.491,636.255z"/>
		</g>
		<g>
			<path style="fill:#FFD4C2;" d="M1007.691,531.387c0,0-10.399,18.591-5.817,34.738c2.337,8.236,9.836,16.837,20.162,16.304
				c16.382-0.845,20.682-12.012,21.856-18.677c1.868-10.615,1.952-21.603-0.079-27.934L1007.691,531.387z"/>
		</g>
		<g>
			<path style="fill:#222731;" d="M1027.696,557.386c-0.04,1.696,0.89,3.094,2.077,3.122c1.188,0.028,2.182-1.324,2.223-3.021
				c0.04-1.696-0.89-3.094-2.077-3.122C1028.731,554.338,1027.736,555.69,1027.696,557.386z"/>
			<path style="fill:#222731;" d="M1007.183,556.753c0.057,1.51,0.961,2.701,2.017,2.661c1.057-0.04,1.867-1.297,1.81-2.806
				c-0.057-1.51-0.961-2.701-2.017-2.661C1007.936,553.987,1007.126,555.243,1007.183,556.753z"/>
			<path style="fill:#F2E0D5;" d="M1016.383,559.322c1.014-1.727,2.854-3.134,2.947-5.325c0.035-0.353,0.571-0.391,0.631-0.03
				c1.191,2.747-2.232,4.378-2.353,6.448c-0.152,2.578,3.22,3.27,1.935,3.351C1017.991,563.864,1015.121,562.418,1016.383,559.322z"
				/>
			<path style="fill:#A35826;" d="M1026.852,552.303c0.117-0.128,0.247-0.24,0.38-0.352c0.294-0.245,0.61-0.428,0.961-0.583
				c0.649-0.288,1.37-0.376,2.072-0.291c1.365,0.163,2.402,1.137,2.96,2.35c0.198,0.431-0.531,0.775-0.756,0.356
				c-0.243-0.455-0.556-0.776-1.015-1.013c-0.408-0.212-0.881-0.38-1.311-0.388c-0.242-0.004-0.448,0.015-0.643,0.064
				c-0.135,0.034-0.268,0.076-0.397,0.127c-0.133,0.052-0.133,0.053-0.243,0.114c-0.232,0.129-0.411,0.257-0.553,0.39
				c-0.266,0.248-0.431,0.558-0.796,0.677c-0.433,0.142-1.003-0.192-0.981-0.686
				C1026.542,552.758,1026.642,552.531,1026.852,552.303z"/>
			<path style="fill:#A35826;" d="M1011.333,551.464c-0.114-0.104-0.238-0.193-0.365-0.281c-0.281-0.194-0.576-0.33-0.899-0.44
				c-0.599-0.203-1.245-0.223-1.861-0.091c-1.197,0.254-2.038,1.201-2.436,2.322c-0.141,0.398,0.534,0.644,0.699,0.255
				c0.179-0.423,0.431-0.733,0.819-0.98c0.345-0.22,0.751-0.408,1.131-0.449c0.214-0.023,0.399-0.023,0.575,0.005
				c0.122,0.019,0.243,0.046,0.362,0.081c0.122,0.035,0.122,0.036,0.225,0.082c0.216,0.096,0.386,0.195,0.521,0.301
				c0.256,0.198,0.427,0.46,0.761,0.536c0.396,0.091,0.874-0.251,0.815-0.687C1011.645,551.842,1011.538,551.649,1011.333,551.464z"
				/>
			<g>
				<g>
					<path style="fill:#FFFFFF;" d="M1015.684,568.354c-0.035,1.152,0.423,2.215,1.203,3.014c0.836,0.865,2.044,1.424,3.4,1.465
						c1.456,0.044,2.776-0.519,3.669-1.44c0.715-0.732,1.161-1.694,1.193-2.754c0.072-2.397-3.02-0.684-4.788-0.737
						C1018.884,567.859,1015.756,565.957,1015.684,568.354z"/>
				</g>
				<g>
					<path style="fill:#FFFFFF;" d="M1016.886,571.369c0.836,0.865,2.044,1.424,3.4,1.465c1.456,0.044,2.776-0.519,3.669-1.44
						c-0.69-0.737-1.954-1.249-3.411-1.293C1018.963,570.053,1017.575,570.571,1016.886,571.369z"/>
				</g>
			</g>
			<path style="fill:#FFBA9E;" d="M1025.136,563.676c0.045,1.186,2.423,2.059,5.311,1.949s5.193-1.161,5.148-2.347
				c-0.045-1.186-2.423-2.059-5.311-1.949S1025.091,562.489,1025.136,563.676z"/>
			<path style="fill:#FFBA9E;" d="M1004.4,563.05c0.036,0.94,1.92,1.631,4.209,1.544c2.289-0.087,4.115-0.92,4.079-1.86
				c-0.036-0.94-1.92-1.631-4.209-1.544C1006.191,561.277,1004.364,562.11,1004.4,563.05z"/>
			<path style="fill:#FFFFFF;" d="M1029.869,556.542c-0.014-0.329-0.291-0.585-0.62-0.572c-0.329,0.013-0.585,0.291-0.572,0.62
				c0.013,0.329,0.291,0.585,0.62,0.572C1029.626,557.149,1029.882,556.871,1029.869,556.542z"/>
			<path style="fill:#FFFFFF;" d="M1009.164,555.692c-0.011-0.293-0.258-0.522-0.551-0.511c-0.293,0.011-0.522,0.258-0.511,0.551
				c0.011,0.293,0.258,0.522,0.551,0.511C1008.947,556.232,1009.175,555.985,1009.164,555.692z"/>
		</g>
		<path style="fill:#414647;" d="M998.945,532.589c-1.713,3.297-2.485,13.508,7.414,15.029c9.874,1.517,17.351-4.338,20.847-4.898
			c12.54-2.007,3.132,16.142,15.696,18.473c0.219-3.616,0.957-5.386,2.294-8.742c2.645-0.479,4.533,2.463,5.097,3.673
			c0,0,9.773-22.163-4.903-27.604c0,0-3.019-5.688-8.012-7.183C1028.894,518.795,1006.391,518.259,998.945,532.589z"/>
		<path style="fill:#FFD4C2;" d="M1049.816,551.499c-0.822-1.571-2.312-1.192-3.552-0.465c-1.15,0.673-1.821,1.964-1.654,3.286
			c0.403,3.182-1.383,6.483-1.912,9.762C1051.108,563.9,1051.397,554.521,1049.816,551.499z"/>
		<path style="fill:#F2E0D5;" d="M1048.443,553.962c-0.592-0.321-1.479-0.226-1.825,0.408c-0.152,0.279,0.22,0.552,0.413,0.285
			c0.148-0.206,0.412-0.298,0.654-0.21c0.214,0.078,0.393,0.334,0.483,0.537c0.276,0.619-0.051,1.346-0.312,1.912
			c-0.261,0.565-0.599,1.101-0.987,1.587c-0.413,0.517-0.967,0.893-1.381,1.4c-0.394,0.483,0.259,1.226,0.792,0.92
			c0.412-0.236,0.728-0.621,1.031-0.98c0.281-0.332,0.537-0.687,0.768-1.056c0.474-0.756,0.881-1.602,1.071-2.478
			C1049.319,555.51,1049.238,554.393,1048.443,553.962z"/>
	</g>
	<g>
		<g>
			<path style="fill:#414647;" d="M567.549,220.378l-1.12-7.088c-4.712-1.007-11.254,3.024-13.637,6.594
				c-2.383,3.569-2.251,7.837-0.889,11.584c1.098,3.023,2.964,6.094,1.974,9.229c-0.732,2.317-2.899,4.189-4.84,6.049
				c-3.291,3.155-6.146,6.595-8.49,10.231c-1.569,2.435-2.932,5.03-3.079,7.713c-0.369,6.707,6.678,11.849,8.723,18.258
				c1.783,5.587-0.664,12.071-6.11,16.194c5.985-1.48,11.343-4.79,14.699-9.08c3.356-4.29,4.676-9.517,3.621-14.339
				c-0.773-3.536-2.746-6.777-3.974-10.211c-1.228-3.434-1.64-7.344,0.575-10.598c0.79-1.16,1.866-2.168,3.038-3.124
				c-1.864,3.227-3.701,6.479-3.253,9.794c0.794,5.886,8.598,9.969,8.449,15.928c1.521-6.688-5.964-13.036-3.416-19.564
				c1.109-2.842,3.94-5.077,5.753-7.703c3.291-4.763,1.922-10.441-1.086-15.018c-0.024-0.037-3.756-4.986-3.523-8.432
				C561.195,223.348,563.245,220.5,567.549,220.378z"/>
			<g>
				<path style="fill:#FFD4C2;" d="M668.445,438.502c-1.722,2.861-8.661,2.247-10.92,0.867c-2.256-1.374-6.34-4.535-8.4-4.483
					c-2.054,0.05-6.405,0.208-7.367-1.884c-0.882-1.913-0.027-5.481,0.355-8.25l0.005-0.003c0.315-2.232-1.76-11.273-1.76-11.273
					l12.106,0.855c0,0-1.467,8.415,0.005,11.21c0.914,1.736,3.303,3.579,5.54,4.461
					C658.893,430.351,669.494,436.765,668.445,438.502z"/>
				<path style="fill:#3F4749;" d="M670.468,438.713c-1.722,2.861-10.684,2.036-12.943,0.656c-2.256-1.374-6.34-4.535-8.4-4.483
					c-2.054,0.05-6.405,0.208-7.367-1.884c-0.882-1.913-0.027-5.481,0.355-8.25l0.005-0.003c0,0,1.016,2.413,2.477,4.204
					c1.464,1.796,14.11,7.505,15.869,2.065C663.535,431.154,671.517,436.976,670.468,438.713z"/>
			</g>
			<g>
				<path style="fill:#FFD4C2;" d="M588.074,436.983c-3.238,0.816-7.727-4.511-8.358-7.082c-0.632-2.565-1.301-7.686-2.799-9.101
					c-1.492-1.413-4.691-4.367-3.898-6.529c0.723-1.979,3.844-3.907,6.066-5.603l0.006,0.002c1.797-1.361,6.697-9.237,6.697-9.237
					l7.985,9.139c0,0-6.972,4.935-7.897,7.956c-0.575,1.876-0.179,4.867,0.786,7.07
					C587.044,424.469,590.042,436.491,588.074,436.983z"/>
				<path style="fill:#3F4749;" d="M589.361,438.559c-3.238,0.816-9.014-6.086-9.644-8.657c-0.632-2.565-1.301-7.686-2.799-9.101
					c-1.492-1.413-4.691-4.367-3.898-6.529c0.723-1.979,3.844-3.907,6.066-5.603l0.006,0.002c0,0-0.98,2.428-1.206,4.728
					c-0.227,2.306,4.72,15.269,9.802,12.65C589.77,428.31,591.329,438.066,589.361,438.559z"/>
			</g>
			<path style="fill:#8A9E36;" d="M653.288,422.271c-5.218,0.679-7.049,0.866-12.711-0.709c-2.157-11.528-8.047-52.981-3.151-74.878
				c0.188-0.839,15.34-13.108,15.34-13.108C662.294,343.952,653.435,414.202,653.288,422.271z"/>
			<path style="fill:#8A9E36;" d="M652.766,333.576c0.483,0.172-9.363,20.091-10.271,19.716c-8.816-3.647-53.971-2.581-70.51-16.901
				c-0.279-0.241-4.343-25.975,7.841-24.743C579.826,311.647,641.524,323.024,652.766,333.576z"/>
			<path style="fill:#F5B79D;" d="M594.299,248.38c0.093,18.476-13.677,12.419-20.307,0.155c1.107-1.008,1.679-2.285,1.998-3.819
				c0.411-1.939,0.429-4.275,0.664-6.975c0.037-0.457,0.083-0.929,0.138-1.41l1.151-0.093l2.726-0.225l8.694-0.718
				c-0.06,0.855-0.144,1.762-0.232,2.689c-0.28,3.121-0.565,6.471-0.032,8.733C589.343,247.776,593.604,247.932,594.299,248.38z"/>
			<path style="fill:#F5B79D;" d="M619.034,285.576l21.057,23.397l-5.072,6.351c-13.085-9.731-30.596-18.073-32.776-28.955
				L619.034,285.576z"/>
			<path style="fill:#F7AA46;" d="M620.691,284.074c-4.829,5.087-13.26,10.185-20.529,12.818l-9.76-19.462l11.502-25.37
				C610.477,257.274,615.175,270.894,620.691,284.074z"/>
			<g>
				<path style="fill:#97AD4D;" d="M592.398,413.52c-5.231-2.49-7.666-4.113-11.96-8.954c8.151-10.926,22.5-43.773,40.113-61.093
					c0.675-0.664,16.28-1.273,16.28-1.273C643.143,360.54,598.31,407.519,592.398,413.52z"/>
				<path style="fill:#97AD4D;" d="M627.462,356.283c0,0,9.842-13.775,9.369-14.083c-6.382-11.015-34.739-16.861-43.802-25.491
					c-8.752-3.054-25.502-8.47-28.825,3.304c-1.8,6.378-5.005,23.008,2.244,28.562C577.297,356.889,627.462,356.283,627.462,356.283
					z"/>
			</g>
			<path style="fill:#FFBA57;" d="M558.741,281.118c0.745,1.383,1.648,2.715,2.611,4.036c4.292,5.918,8.187,12.406,5.576,21.69
				c-2.034,7.251-6.961,17.93-4.511,21.191c1.961,2.607,5.495,4.217,9.777,5.106c13.413,2.785,35.383-12.207,37.776-15.436
				c-1.654-3.748-5.6-11.7-5.81-15.298c-0.469-7.986,0.805-12.455,4.61-23.302c3.636-10.365,1.158-28.99-18.604-31.638
				c6.051,9.634-13.195,9.634-16.174,1.066c-3.581,0.652-9.976,4.775-12.328,7.535C555.391,263.43,554.984,270.182,558.741,281.118z
				"/>
			<path style="fill:#FFFFFF;" d="M588.213,256.72c-8.746,1.87-15.964-3.544-17.941-7.009c0.739-0.091,3.009-1.066,3.72-1.175
				c5.24,7.618,19.105,7.601,16.173-1.066c0.867-0.204,2.534,0.254,3.696,0.757C594.107,252.261,593.744,255.537,588.213,256.72z"/>
			
				<ellipse transform="matrix(0.989 -0.1482 0.1482 0.989 -25.7472 88.8061)" style="fill:#414647;" cx="583.07" cy="217.183" rx="21.383" ry="21.383"/>
			<g>
				<path style="fill:#FFD4C2;" d="M603.906,202.805c0,0,6.875,17.179,1.119,30.575c-2.936,6.833-9.735,12.089-18.569,10.474
					c-14.017-2.563-15.544-10.507-15.807-16.38c-0.42-9.353,2.271-18.868,4.73-24.094L603.906,202.805z"/>
			</g>
			<path style="fill:#FFD4C2;" d="M567.7,219.985c1.538-2.193,4.268,1.484,4.268,1.484l0.001,9.035
				C565.437,229.511,566.162,222.178,567.7,219.985z"/>
			<path style="fill:#414647;" d="M607.111,216.776c-2.207-2.723-7.301-12.461-17.261-13.367
				c-1.478,15.82-18.314,11.273-20.082,21.436c0,0-3.565-9.792,1.579-21.224c4.455-9.9,25.043-15.374,34.101,0.252
				C608.951,209.916,608.207,216.599,607.111,216.776z"/>
		</g>
		<g>
			<path style="fill:#FFD4C2;" d="M593.252,312.437l31.026,10.392l2.044,9.085c-16.417-0.972-37.491-3.505-45.85-9.947
				L593.252,312.437z"/>
			<path style="fill:#FFD4C2;" d="M593.252,312.437c0,0-12.169,10.225-12.78,9.53c-9.365-10.642-16.919-38.794-17.49-43.323
				c-1.671-13.251,14.1-8.606,16.72-2.159C583.587,286.042,593.252,312.437,593.252,312.437z"/>
			<path style="fill:#F7AA46;" d="M589.669,294.04c-7.629,5.381-15.538,6.04-22.897,6.836c0,0-17.488-30.295-0.119-37.1
				C584.557,256.762,589.669,294.04,589.669,294.04z"/>
		</g>
		<g>
			<polygon style="fill:#08758A;" points="583.578,333.576 609.567,333.576 653.663,333.576 664.432,299.895 620.338,299.895 
				610.339,330.994 583.578,330.994 			"/>
			<path style="fill:#E6E6E6;" d="M610.339,333.576h43.323l10.77-33.681h-5.141C650.895,332.153,622.648,327.37,610.339,333.576z"/>
		</g>
		<g>
			<path style="fill:#222731;" d="M584.688,224.632c0.042,1.457-0.75,2.661-1.769,2.691c-1.02,0.03-1.881-1.127-1.923-2.584
				c-0.042-1.457,0.75-2.661,1.77-2.691C583.784,222.018,584.645,223.175,584.688,224.632z"/>
			<path style="fill:#222731;" d="M602.301,223.992c-0.042,1.297-0.812,2.324-1.72,2.294c-0.908-0.03-1.609-1.105-1.567-2.402
				c0.042-1.297,0.812-2.324,1.72-2.294C601.641,221.62,602.343,222.695,602.301,223.992z"/>
			<path style="fill:#F2E0D5;" d="M594.412,226.241c-0.879-1.479-2.466-2.678-2.556-4.559c-0.032-0.303-0.492-0.333-0.542-0.023
				c-1.01,2.364,1.937,3.75,2.051,5.527c0.142,2.213-2.75,2.823-1.647,2.886C593.052,230.149,595.51,228.894,594.412,226.241z"/>
			<path style="fill:#A35826;" d="M585.388,220.262c-0.101-0.109-0.213-0.205-0.328-0.3c-0.254-0.209-0.526-0.365-0.828-0.496
				c-0.559-0.244-1.178-0.316-1.781-0.24c-1.171,0.146-2.057,0.988-2.531,2.032c-0.168,0.371,0.46,0.663,0.651,0.302
				c0.206-0.392,0.474-0.669,0.867-0.875c0.35-0.184,0.755-0.331,1.124-0.339c0.208-0.005,0.385,0.011,0.553,0.052
				c0.116,0.029,0.23,0.064,0.341,0.107c0.114,0.044,0.115,0.045,0.21,0.097c0.2,0.11,0.355,0.219,0.476,0.332
				c0.23,0.212,0.373,0.477,0.687,0.578c0.373,0.12,0.86-0.17,0.839-0.594C585.657,220.651,585.57,220.457,585.388,220.262z"/>
			<path style="fill:#A35826;" d="M598.712,219.47c0.097-0.09,0.204-0.167,0.312-0.243c0.24-0.168,0.493-0.286,0.77-0.382
				c0.513-0.177,1.068-0.197,1.597-0.087c1.029,0.213,1.756,1.022,2.103,1.983c0.123,0.341-0.455,0.556-0.599,0.222
				c-0.156-0.362-0.374-0.628-0.708-0.838c-0.297-0.188-0.647-0.347-0.974-0.381c-0.184-0.019-0.343-0.017-0.494,0.007
				c-0.105,0.017-0.209,0.041-0.311,0.071c-0.104,0.031-0.105,0.032-0.193,0.071c-0.185,0.083-0.33,0.169-0.446,0.261
				c-0.219,0.172-0.365,0.397-0.651,0.464c-0.339,0.08-0.752-0.211-0.703-0.586C598.446,219.796,598.537,219.629,598.712,219.47z"/>
			<g>
				<g>
					<path style="fill:#942525;" d="M595.055,233.995c0.035,0.989-0.353,1.905-1.019,2.594c-0.714,0.747-1.749,1.233-2.913,1.274
						c-1.251,0.045-2.386-0.433-3.157-1.22c-0.617-0.626-1.005-1.449-1.038-2.359c-0.073-2.058,2.591-0.601,4.109-0.655
						C592.304,233.584,594.981,231.937,595.055,233.995z"/>
				</g>
				<g>
					<path style="fill:#FF7878;" d="M594.036,236.589c-0.714,0.747-1.749,1.233-2.913,1.274c-1.251,0.045-2.386-0.433-3.157-1.22
						c0.589-0.636,1.673-1.082,2.923-1.127C592.247,235.469,593.44,235.908,594.036,236.589z"/>
				</g>
			</g>
			<path style="fill:#FFB394;" d="M586.613,230.011c-0.031,0.951-1.932,1.66-4.247,1.585c-2.314-0.075-4.165-0.907-4.135-1.858
				c0.031-0.951,1.932-1.66,4.247-1.585C584.793,228.229,586.644,229.061,586.613,230.011z"/>
			<path style="fill:#FFB394;" d="M604.72,228.565c0.003,0.808-1.589,1.469-3.556,1.476c-1.967,0.007-3.564-0.642-3.567-1.45
				c-0.003-0.808,1.589-1.469,3.556-1.476C603.12,227.109,604.717,227.758,604.72,228.565z"/>
			<path style="fill:#FFFFFF;" d="M582.817,223.916c0.01-0.283,0.247-0.504,0.53-0.494c0.283,0.01,0.504,0.247,0.494,0.53
				c-0.01,0.283-0.247,0.504-0.53,0.494C583.028,224.436,582.807,224.199,582.817,223.916z"/>
			<path style="fill:#FFFFFF;" d="M600.595,223.09c0.008-0.252,0.219-0.449,0.471-0.441c0.252,0.008,0.449,0.219,0.441,0.471
				c-0.008,0.252-0.219,0.449-0.471,0.441C600.784,223.553,600.586,223.342,600.595,223.09z"/>
		</g>
	</g>
	<g>
		<path style="fill:#97AD4D;" d="M705.755,227.293c-0.034-0.327-0.056-29.656-0.056-29.656c0-4.552,3.123-8.242,6.975-8.242h139.144
			c3.852,0,6.975,3.69,6.975,8.242v28.66c0,4.552-3.123,8.243-6.975,8.243H715.1c-8.058,3.591-16.451,1.964-16.451,1.964
			C705.223,235.87,705.792,229.733,705.755,227.293z"/>
		<rect x="714.952" y="197.211" style="fill:#FFFFFF;" width="134.689" height="1.289"/>
		<rect x="714.952" y="206.689" style="fill:#FFFFFF;" width="134.689" height="1.29"/>
		<rect x="714.952" y="216.167" style="fill:#FFFFFF;" width="93.714" height="1.29"/>
		<rect x="714.952" y="225.645" style="fill:#FFFFFF;" width="120.927" height="1.289"/>
	</g>
	<g>
		<path style="fill:#FFBA57;" d="M256.935,474.384c0.034-0.327,0.056-29.656,0.056-29.656c0-4.552-3.123-8.243-6.975-8.243H110.872
			c-3.852,0-6.975,3.69-6.975,8.243v28.66c0,4.552,3.123,8.243,6.975,8.243h136.719c8.058,3.591,16.451,1.964,16.451,1.964
			C257.467,482.96,256.899,476.823,256.935,474.384z"/>
		
			<rect x="113.049" y="444.301" transform="matrix(-1 -1.224647e-16 1.224647e-16 -1 360.7876 889.8924)" style="fill:#FFFFFF;" width="134.689" height="1.29"/>
		
			<rect x="113.049" y="453.78" transform="matrix(-1 -1.224647e-16 1.224647e-16 -1 360.7876 908.8486)" style="fill:#FFFFFF;" width="134.689" height="1.29"/>
		
			<rect x="154.024" y="463.258" transform="matrix(-1 -1.224647e-16 1.224647e-16 -1 401.7625 927.8047)" style="fill:#FFFFFF;" width="93.714" height="1.289"/>
		
			<rect x="126.811" y="472.736" transform="matrix(-1 -1.224647e-16 1.224647e-16 -1 374.549 946.7609)" style="fill:#FFFFFF;" width="120.927" height="1.289"/>
	</g>
	<g>
		<path style="fill:#1E8EA3;" d="M1007.459,470.589c0.034-0.327,0.056-29.656,0.056-29.656c0-4.552-3.123-8.243-6.975-8.243H861.396
			c-3.852,0-6.975,3.69-6.975,8.243v28.66c0,4.552,3.123,8.242,6.975,8.242h136.719c8.057,3.591,16.451,1.964,16.451,1.964
			C1007.991,479.165,1007.423,473.028,1007.459,470.589z"/>
		
			<rect x="863.574" y="440.507" transform="matrix(-1 -1.224647e-16 1.224647e-16 -1 1861.8359 882.3025)" style="fill:#FFFFFF;" width="134.689" height="1.289"/>
		
			<rect x="863.574" y="449.985" transform="matrix(-1 -1.224647e-16 1.224647e-16 -1 1861.8359 901.2587)" style="fill:#FFFFFF;" width="134.689" height="1.289"/>
		
			<rect x="904.548" y="459.463" transform="matrix(-1 -1.224647e-16 1.224647e-16 -1 1902.8107 920.2149)" style="fill:#FFFFFF;" width="93.714" height="1.289"/>
		
			<rect x="877.335" y="468.941" transform="matrix(-1 -1.224647e-16 1.224647e-16 -1 1875.5973 939.171)" style="fill:#FFFFFF;" width="120.927" height="1.29"/>
	</g>
	<g>
		<path style="fill:#414647;" d="M284.323,518.64c3.933-4.291,17.65-8.379,27.999,2.004c10.137,10.17,4.746,23.941,6.385,28.891
			c1.638,4.95,8.68,12.442,2.321,22.336c-6.359,9.894-50.904,10.83-55.246-2.743c-4.342-13.573,6.11-17.342,6.395-25.869
			C272.46,534.731,271.772,520.538,284.323,518.64z"/>
		<path style="fill:#414647;" d="M272.751,539.563c0-14.637,9.725-27.564,25.067-27.564c13.844,0,25.067,12.926,25.067,27.564
			c0,14.638-11.223,26.503-25.067,26.503S272.751,554.201,272.751,539.563z"/>
		<g>
			<path style="fill:#09616D;" d="M326.448,657.341c0,0,30.854,4.564,30.328,4.258c-0.527-0.306-56.47,28.386-56.47,28.386
				l-55.124-24.698l27.331-7.946H326.448z"/>
		</g>
		<g>
			<g>
				<path style="fill:#FFD4C2;" d="M314.597,699.441c0.156,0.001,0.313,0.003,0.462,0.006c0.095,0,0.19,0.001,0.285,0.001
					c7.85,0.09,12.975-0.105,12.975-0.105s0.377,0.084,1.064,0.226c6.712,1.392,42.899,8.286,39.815-5.349
					c-2.703-11.972-24.414-10.484-33.12-9.386c-0.034,0-0.06,0.006-0.086,0.011c-2.173,0.277-3.511,0.523-3.511,0.523
					s-4.32-1.857-11.137-4.502c-0.281-0.111-0.57-0.227-0.857-0.337c-22.458-8.716-69.692-25.237-81.918-15.308
					c0.001,0.006,0.001,0.006,0.001,0.006c-0.135,0.103-0.267,0.219-0.392,0.333c-0.008-0.005-0.019,0.004-0.023,0.018
					c-0.13,0.122-0.253,0.25-0.376,0.377c-0.107,0.104-0.212,0.22-0.307,0.349c-0.04,0.036-0.077,0.084-0.115,0.132
					c-0.134,0.171-0.266,0.347-0.385,0.528c0.001,0.006-0.005,0.008-0.005,0.008c-0.128,0.196-0.249,0.398-0.362,0.605
					c-0.108,0.198-0.201,0.401-0.286,0.608c-0.198,0.448-0.35,0.927-0.461,1.432c-0.11,0.511-0.202,1.012-0.262,1.506
					c-0.113,0.885-0.158,1.742-0.118,2.581C236.461,695.723,289.006,699.102,314.597,699.441z"/>
			</g>
			<g>
				<path style="fill:#09616D;" d="M317.163,699.069l-2.104,0.377l0.377-1.117c0.005-0.008,0.004-0.014,0.004-0.014l5.904-17.45
					l0.847-2.503c-22.48-8.725-71.177-23.517-83.613-13.164l-0.005,0.008c-0.139,0.111-0.271,0.226-0.394,0.354
					c-0.008-0.005-0.019,0.004-0.023,0.018c-0.13,0.122-0.253,0.25-0.376,0.377c-0.107,0.104-0.212,0.22-0.307,0.349
					c-0.04,0.036-0.077,0.084-0.115,0.132c-0.134,0.171-0.266,0.347-0.385,0.528c0.001,0.006-0.005,0.008-0.005,0.008
					c-0.128,0.196-0.249,0.398-0.362,0.605c-0.108,0.198-0.201,0.401-0.286,0.608c-0.198,0.448-0.35,0.927-0.461,1.432
					c-0.11,0.511-0.202,1.012-0.262,1.506c-0.113,0.885-0.158,1.742-0.118,2.581C236.383,695.998,291.56,698.732,317.163,699.069z"
					/>
			</g>
			<g>
				<path style="fill:#3F4749;" d="M332.495,685.428c0,0,40.936-7.998,42.719,9.306c1.916,18.591-46.881,4.672-46.881,4.672
					s18.82,4.117,17.926-6.436C345.395,682.756,332.495,685.428,332.495,685.428z"/>
			</g>
		</g>
		<g>
			<path style="fill:#FFD4C2;" d="M271.67,615.179c8.033,11.282,0.848,42.162,0.848,42.162h53.932
				c-1.49-2.113-5.689-28.729,3.769-43.401c15.263-23.669-1.181-42.071-1.181-42.071l-22.429-4.078l-1.432-7.14l-0.983-4.918
				l-0.231-1.143h-10.088l-0.366,2.145l-0.79,4.674l-1.169,6.896l-20.618,4.476C270.931,572.779,253.273,589.333,271.67,615.179z"/>
		</g>
		<g>
			<path style="fill:#FFBA57;" d="M330.225,613.933c-1.4,2.179-2.505,4.615-3.362,7.209c-4.915,14.815-1.681,34.399-0.415,36.195
				H272.51c0,0,7.197-30.871-0.837-42.151c-18.401-25.86-0.735-42.407-0.735-42.407l13.844-3.01l6.768-1.47
				c1.956,4.206,14.189,4.506,15.052-0.518l8.686,1.579l13.755,2.506C329.043,571.865,345.481,590.266,330.225,613.933z"/>
		</g>
		<g>
			<path style="fill:#C4626E;" d="M326.448,657.341c-1.268-1.799-4.497-21.379,0.413-36.198c-10.635-3.09-8.84,26.429-26.555,36.198
				H326.448z"/>
		</g>
		<g>
			<path style="fill:#FFD4C2;" d="M242.34,638.65c0.561,3.494,3.022,7.284,6.665,11.029c9.318,9.569,28.297,9.142,41.316,12.621
				l1.359-6.936c0,0-23.241-6.555-28.24-14.708c-0.531-0.87-0.899-1.681-1.047-2.403c-1.695-8.124,7.712-18.283,7.712-18.283
				l1.001-47.167C271.104,572.802,239.509,620.883,242.34,638.65z"/>
		</g>
		<g>
			<path style="fill:#FFBA57;" d="M242.03,638.648c0.604,3.288,2.575,7.417,5.856,11.018c0.347,0.38,0.918,0.444,1.349,0.167
				l3.994-2.594l10.473-6.787c-0.533-0.867-0.803-1.74-0.951-2.466c-1.695-8.123,13.375-20.689,13.375-20.689l-3.622-44.788
				c-4.854-0.218-12.829,10.858-19.45,24.439c0,0-0.006,0.019-0.019,0.051C245.87,611.692,240.309,629.292,242.03,638.648z"/>
		</g>
		<g>
			<path style="fill:#FFD4C2;" d="M307.494,655.48l-0.236,4.612c-0.417-0.145-0.382-0.75,0.049-0.839
				c11.603-2.397,30.672,0.919,39.956-6.966c5.721-4.866,8.845-10.856,9.583-15.47c2.831-17.767-27.987-64.914-27.987-64.914
				l1.139,47.106c0,0,9.407,10.159,7.712,18.283c-0.295,1.445-1.445,3.229-3.111,5.175
				C327.638,650.637,307.494,655.48,307.494,655.48z"/>
		</g>
		<g>
			<path style="fill:#FFBA57;" d="M337.712,637.293c-0.295,1.445-2.267,2.71-3.93,4.656l9.728,8.091l3.91,3.249
				c5.721-4.867,9.08-11.096,10.338-15.597c1.945-6.929-0.822-18.769-5.49-30.526c-0.019-0.064-0.032-0.097-0.032-0.097
				c-7.044-17.741-16.331-31.973-24.297-35.4l-3.416,47.8C324.523,619.468,339.407,629.17,337.712,637.293z"/>
		</g>
		<g>
			<g>
				<path style="fill:#FFD4C2;" d="M231.201,692.696c-3.248,13.863,33.659,7.143,40.506,5.78c0.701-0.138,1.085-0.22,1.085-0.22
					s5.349,0.249,13.505,0.216c0.159,0,0.319,0,0.477,0c11.843-0.062,29.361-0.709,45.057-3.51
					c19.258-3.431,35.784-10.084,35.755-22.84c-0.001-0.028-0.003-0.049,0.001-0.069c-0.005-0.52-0.036-1.045-0.098-1.585
					c-0.004-0.015-0.002-0.021-0.001-0.028c-0.067-0.554-0.159-1.114-0.277-1.686c-0.109-0.515-0.259-1.004-0.457-1.462
					c-0.085-0.212-0.178-0.419-0.286-0.622c-0.113-0.211-0.234-0.417-0.364-0.619c0,0-0.007-0.001-0.005-0.008
					c-0.119-0.185-0.253-0.366-0.388-0.541c-0.037-0.049-0.075-0.099-0.116-0.136c-0.096-0.131-0.202-0.251-0.31-0.358
					c-0.124-0.13-0.247-0.261-0.379-0.387c-0.004-0.015-0.016-0.024-0.024-0.019c-1.49-1.389-3.576-2.327-6.136-2.897
					c-17.605-3.916-57.565,9.784-77.82,17.453c-0.293,0.109-0.588,0.225-0.875,0.336c-6.965,2.637-11.381,4.492-11.381,4.492
					s-1.362-0.262-3.572-0.562c-0.026-0.005-0.054-0.005-0.087-0.012C256.154,682.223,234.061,680.527,231.201,692.696z"/>
			</g>
			<g>
				<path style="fill:#08758A;" d="M279.21,676.94l0.842,2.556l6.245,18.977l0.864,2.616c10.747-0.05,26.101-0.989,40.51-3.66
					c0,0,0,0,0.008-0.006c20.982-3.886,39.982-11.447,39.908-25.299c-0.001-0.028-0.003-0.049,0.001-0.069
					c-0.005-0.52-0.041-1.053-0.098-1.585c-0.004-0.015-0.002-0.021-0.001-0.028c-0.067-0.554-0.159-1.114-0.277-1.686
					c-0.109-0.515-0.259-1.004-0.457-1.462c-0.085-0.212-0.178-0.419-0.286-0.622c-0.113-0.211-0.234-0.417-0.364-0.619
					c0,0-0.007-0.001-0.005-0.008c-0.119-0.185-0.253-0.366-0.388-0.541c-0.037-0.049-0.075-0.099-0.116-0.136
					c-0.096-0.131-0.202-0.251-0.31-0.358c-0.124-0.13-0.247-0.261-0.379-0.387c-0.004-0.015-0.016-0.024-0.024-0.019
					c-1.539-1.483-3.735-2.513-6.438-3.163C340.341,657.022,299.426,669.291,279.21,676.94z"/>
			</g>
			<g>
				<path style="fill:#3F4749;" d="M268.661,684.05c0,0-41.626-8.489-43.587,9.121c-2.107,18.918,47.708,5.151,47.708,5.151
					s-18.198,3.446-17.199-7.296C256.548,680.632,268.661,684.05,268.661,684.05z"/>
			</g>
		</g>
		<g>
			<path style="fill:#FFFFFF;" d="M261.775,615.724v44.267c0,2.382,1.933,4.315,4.315,4.315h67.827c2.383,0,4.315-1.933,4.315-4.315
				v-44.267c0-2.382-1.932-4.315-4.315-4.315H266.09C263.708,611.409,261.775,613.342,261.775,615.724z"/>
		</g>
		<g>
			<path style="fill:#E2EDF0;" d="M306.758,637.858c0-3.73-3.024-6.754-6.755-6.754c-3.73,0-6.754,3.024-6.754,6.754
				c0,3.731,3.024,6.755,6.754,6.755C303.733,644.613,306.758,641.589,306.758,637.858z"/>
		</g>
		<g>
			<path style="fill:#FFFFFF;" d="M261.775,615.724v44.267c0,2.382,1.933,4.315,4.315,4.315h67.827c2.383,0,4.315-1.933,4.315-4.315
				c-68.598,3.149-76.457-6.912-72.142-48.583C263.708,611.409,261.775,613.342,261.775,615.724z"/>
		</g>
		<path style="fill:#FFD4C2;" d="M275.405,536.86c1.667-2.791,5.298,1.418,5.298,1.418l0.802,10.937
			C273.512,548.593,273.739,539.652,275.405,536.86z"/>
		<path style="fill:#F2E0D5;" d="M276.58,539.278c0.581-0.274,1.419-0.136,1.714,0.486c0.13,0.273-0.239,0.514-0.408,0.249
			c-0.13-0.204-0.376-0.305-0.611-0.235c-0.208,0.062-0.392,0.297-0.489,0.486c-0.296,0.574-0.024,1.283,0.194,1.837
			c0.218,0.552,0.511,1.08,0.855,1.563c0.366,0.514,0.872,0.901,1.239,1.406c0.349,0.48-0.312,1.153-0.803,0.833
			c-0.379-0.247-0.659-0.63-0.929-0.988c-0.25-0.331-0.474-0.683-0.675-1.046c-0.41-0.745-0.753-1.572-0.886-2.415
			C275.664,540.704,275.801,539.646,276.58,539.278z"/>
		<g>
			<path style="fill:#FFD4C2;" d="M282.68,521.484c-10.01,28.593,3.038,42.917,18.611,42.615
				c14.05-0.272,26.363-12.409,16.741-43.285L282.68,521.484z"/>
		</g>
		<path style="fill:#414647;" d="M286.313,517.453c-3.545,2.789-7.145,5.939-8.074,11.365c-0.384,2.059-0.27,4.869-0.011,7.447
			c0.351,3.545,0.989,6.626,0.989,6.626c0.022-0.038,0.049-0.076,0.07-0.113c0.362-0.546,0.897-1.286,1.589-2.162
			c2.767-3.513,7.928-9.171,13.089-12.857c0,0-1.475,5.583-2.448,7.599c1.475-0.113,3.313-0.465,5.264-1.021
			c0.254,0.006,0.513,0.006,0.757-0.005c0.708-0.022,1.422-0.119,2.119-0.254c1.335-0.259,2.659-0.611,3.913-1.135
			c2.335-0.973,4.48-2.502,5.793-4.707c0.638-1.07,1.038-2.264,1.156-3.502c0.103-0.276,0.195-0.551,0.259-0.832
			c0.157,0.373,0.324,0.767,0.503,1.167c0.276,4.059,2.151,7.955,5.112,10.744c0.767,0.724,1.632,1.427,2.556,1.956
			c0.432,0.416,0.832,0.708,1.178,0.838c0.573,0.205,1.011-0.022,1.243-0.832c0.032-0.103,0.059-0.216,0.081-0.341
			C325.71,514.88,299.845,506.79,286.313,517.453z M306.952,530.38c-1.919,1.61-4.367,2.508-6.793,3.037
			c-0.421,0.092-0.848,0.173-1.275,0.243c4.534-1.611,9.203-4.286,11.149-7.847C309.508,527.597,308.373,529.191,306.952,530.38z
			 M316.977,535.73c-0.757-0.681-1.454-1.432-2.075-2.237c-1.238-1.621-2.183-3.475-2.751-5.437
			c-0.195-0.681-0.351-1.378-0.459-2.081c1.632,3.518,3.983,7.75,5.983,10.333C317.436,536.125,317.204,535.936,316.977,535.73z"/>
		<g>
			<path style="fill:#222731;" d="M295.179,542.947c0.036,1.542-0.809,2.813-1.889,2.839c-1.08,0.026-1.984-1.204-2.021-2.746
				c-0.036-1.542,0.809-2.813,1.889-2.839C294.237,540.175,295.142,541.404,295.179,542.947z"/>
			<path style="fill:#222731;" d="M313.828,542.37c-0.052,1.372-0.873,2.456-1.834,2.419c-0.961-0.037-1.697-1.179-1.645-2.551
				c0.052-1.373,0.873-2.456,1.834-2.419C313.143,539.856,313.88,540.998,313.828,542.37z"/>
			<path style="fill:#F2E0D5;" d="M305.464,544.706c-0.922-1.57-2.595-2.849-2.679-4.841c-0.031-0.321-0.519-0.355-0.574-0.027
				c-1.082,2.497,2.029,3.981,2.14,5.863c0.138,2.343-2.928,2.973-1.76,3.046C304.002,548.835,306.611,547.521,305.464,544.706z"/>
			<path style="fill:#A35826;" d="M295.946,538.325c-0.106-0.116-0.224-0.219-0.345-0.32c-0.267-0.223-0.555-0.389-0.873-0.53
				c-0.59-0.262-1.245-0.341-1.884-0.265c-1.241,0.148-2.184,1.034-2.691,2.137c-0.18,0.392,0.483,0.705,0.687,0.323
				c0.221-0.413,0.506-0.706,0.923-0.921c0.371-0.192,0.801-0.346,1.192-0.353c0.22-0.004,0.408,0.014,0.585,0.058
				c0.123,0.031,0.243,0.069,0.361,0.115c0.121,0.047,0.121,0.048,0.221,0.104c0.211,0.117,0.374,0.234,0.502,0.354
				c0.242,0.226,0.392,0.507,0.724,0.616c0.394,0.129,0.912-0.175,0.892-0.624C296.228,538.738,296.137,538.532,295.946,538.325z"/>
			<path style="fill:#A35826;" d="M310.055,537.562c0.104-0.094,0.217-0.176,0.332-0.256c0.255-0.176,0.523-0.3,0.817-0.4
				c0.545-0.185,1.132-0.203,1.692-0.083c1.088,0.231,1.853,1.092,2.214,2.111c0.128,0.362-0.485,0.586-0.636,0.232
				c-0.163-0.384-0.392-0.666-0.744-0.891c-0.314-0.2-0.683-0.371-1.029-0.408c-0.195-0.021-0.363-0.021-0.523,0.004
				c-0.111,0.018-0.221,0.042-0.329,0.073c-0.111,0.032-0.111,0.033-0.205,0.074c-0.197,0.087-0.351,0.177-0.474,0.274
				c-0.233,0.18-0.389,0.418-0.692,0.487c-0.36,0.083-0.794-0.228-0.741-0.625C309.771,537.906,309.868,537.73,310.055,537.562z"/>
			<g>
				<g>
					<path style="fill:#751E1E;" d="M306.099,552.918c0.032,1.047-0.384,2.014-1.093,2.741c-0.76,0.787-1.858,1.295-3.091,1.332
						c-1.324,0.04-2.523-0.472-3.336-1.309c-0.65-0.666-1.056-1.54-1.085-2.504c-0.066-2.179,2.746-0.621,4.353-0.67
						C303.19,552.468,306.034,550.739,306.099,552.918z"/>
				</g>
				<g>
					<path style="fill:#ED7272;" d="M305.006,555.659c-0.76,0.787-1.858,1.295-3.091,1.332c-1.324,0.04-2.523-0.472-3.336-1.309
						c0.627-0.67,1.777-1.136,3.101-1.176C303.118,554.463,304.38,554.934,305.006,555.659z"/>
				</g>
			</g>
			<path style="fill:#FFBA9E;" d="M297.506,548.665c-0.041,1.078-2.203,1.872-4.829,1.772c-2.626-0.1-4.721-1.055-4.681-2.134
				c0.041-1.078,2.203-1.872,4.829-1.772C295.451,546.631,297.547,547.586,297.506,548.665z"/>
			<path style="fill:#FFBA9E;" d="M316.358,548.095c-0.033,0.855-1.746,1.483-3.827,1.404c-2.081-0.079-3.741-0.836-3.709-1.691
				c0.032-0.855,1.746-1.483,3.827-1.404C314.73,546.484,316.391,547.241,316.358,548.095z"/>
			<path style="fill:#FFFFFF;" d="M293.203,542.179c0.012-0.299,0.265-0.532,0.564-0.52c0.299,0.012,0.532,0.265,0.52,0.564
				c-0.012,0.299-0.265,0.532-0.564,0.52C293.423,542.73,293.191,542.478,293.203,542.179z"/>
			<path style="fill:#FFFFFF;" d="M312.027,541.406c0.01-0.267,0.234-0.474,0.501-0.464c0.266,0.01,0.474,0.234,0.464,0.501
				c-0.01,0.266-0.234,0.474-0.501,0.464C312.225,541.897,312.017,541.673,312.027,541.406z"/>
		</g>
		<path style="fill:#FFD4C2;" d="M315.288,569.359c-1.169,4.519-5.036,15.071-15.646,15.071c-10.405,0-13.831-9.939-14.86-14.662
			l6.768-1.47c1.956,4.206,14.189,4.506,15.052-0.518L315.288,569.359z"/>
	</g>
	<g>
		<g>
			<path style="fill:#CEE9F4;" d="M921.141,344.574l-2.184-0.843c0.47-3.072,0.465-6.152,0.02-9.137l2.51-1.112
				c3.75-1.662,5.442-6.049,3.78-9.799c-1.662-3.75-6.049-5.442-9.799-3.78l-2.143,0.95c-1.792-2.447-3.952-4.632-6.441-6.474
				c-0.001-0.001-0.002-0.001-0.003-0.002l0.988-2.561c1.476-3.827-0.429-8.126-4.256-9.602c-3.827-1.476-8.126,0.429-9.602,4.256
				l-0.843,2.185c-3.072-0.47-6.152-0.465-9.137-0.02l-1.112-2.51c-1.662-3.75-6.049-5.442-9.799-3.78
				c-3.75,1.662-5.442,6.049-3.78,9.799l0.95,2.143c-2.447,1.793-4.633,3.952-6.475,6.442c0,0.001-0.001,0.001-0.001,0.002
				l-2.56-0.988c-3.827-1.476-8.126,0.429-9.602,4.256c-1.476,3.827,0.429,8.126,4.256,9.602l2.183,0.842
				c-0.471,3.072-0.465,6.153-0.02,9.138l-2.508,1.112c-3.75,1.662-5.442,6.049-3.78,9.799c1.662,3.75,6.049,5.442,9.799,3.78
				l2.136-0.947c0,0.001,0.001,0.001,0.001,0.002c1.795,2.441,3.961,4.629,6.447,6.478l-0.985,2.554
				c-1.476,3.827,0.429,8.126,4.256,9.602c3.827,1.476,8.126-0.429,9.602-4.256l0.842-2.183c3.072,0.47,6.154,0.465,9.138,0.02
				l1.112,2.508c1.662,3.75,6.049,5.442,9.799,3.78c3.75-1.662,5.442-6.049,3.78-9.799l-0.947-2.137c0,0,0,0,0,0
				c2.441-1.795,4.629-3.961,6.478-6.448l2.555,0.986c3.827,1.476,8.126-0.429,9.602-4.256
				C926.873,350.349,924.968,346.05,921.141,344.574z M909.154,347.047c-4.394,11.391-17.198,17.067-28.59,12.673
				c-11.391-4.394-17.067-17.198-12.673-28.59c4.397-11.398,17.198-17.067,28.59-12.673
				C907.872,322.851,913.551,335.649,909.154,347.047z"/>
		</g>
		<path style="fill:#CEE9F4;" d="M879.236,335.505c-1.979,5.129,0.576,10.892,5.705,12.87c5.129,1.979,10.896-0.574,12.875-5.703
			c1.979-5.129-0.579-10.898-5.708-12.877C886.979,327.817,881.215,330.376,879.236,335.505z"/>
	</g>
	<g>
		<g>
			<path style="fill:#CEE9F4;" d="M369.441,275.636l-2.184-0.843c0.47-3.072,0.465-6.152,0.02-9.137l2.51-1.112
				c3.75-1.662,5.442-6.049,3.78-9.799c-1.662-3.75-6.049-5.442-9.799-3.78l-2.143,0.95c-1.793-2.447-3.952-4.632-6.441-6.474
				c-0.001-0.001-0.002-0.001-0.002-0.002l0.988-2.561c1.476-3.827-0.429-8.126-4.256-9.602c-3.827-1.476-8.126,0.429-9.602,4.256
				l-0.843,2.185c-3.072-0.47-6.152-0.465-9.137-0.02l-1.112-2.51c-1.662-3.75-6.049-5.442-9.799-3.78
				c-3.75,1.662-5.442,6.049-3.78,9.799l0.95,2.143c-2.447,1.793-4.633,3.952-6.476,6.442c0,0.001-0.001,0.001-0.001,0.002
				l-2.56-0.988c-3.827-1.476-8.126,0.429-9.602,4.256c-1.476,3.827,0.429,8.126,4.256,9.602l2.183,0.842
				c-0.471,3.072-0.465,6.153-0.02,9.138l-2.508,1.112c-3.75,1.662-5.442,6.049-3.78,9.799c1.662,3.75,6.049,5.442,9.799,3.78
				l2.136-0.947c0,0.001,0.001,0.001,0.001,0.002c1.795,2.441,3.961,4.629,6.447,6.478l-0.985,2.554
				c-1.476,3.827,0.429,8.126,4.256,9.602c3.827,1.476,8.126-0.429,9.602-4.256l0.842-2.183c3.072,0.47,6.154,0.465,9.138,0.02
				l1.112,2.508c1.662,3.75,6.049,5.442,9.799,3.78c3.75-1.662,5.442-6.049,3.78-9.799l-0.947-2.137c0,0,0,0,0.001,0
				c2.441-1.795,4.629-3.961,6.478-6.448l2.555,0.986c3.827,1.476,8.126-0.429,9.602-4.256
				C375.173,281.411,373.267,277.112,369.441,275.636z M357.454,278.109c-4.394,11.391-17.198,17.067-28.59,12.673
				c-11.391-4.394-17.067-17.198-12.673-28.59c4.397-11.398,17.198-17.067,28.59-12.673
				C356.172,253.913,361.85,266.711,357.454,278.109z"/>
		</g>
		<path style="fill:#CEE9F4;" d="M327.536,266.567c-1.979,5.129,0.576,10.892,5.705,12.87c5.129,1.979,10.896-0.574,12.875-5.703
			c1.979-5.129-0.578-10.898-5.708-12.877C335.279,258.879,329.515,261.438,327.536,266.567z"/>
	</g>
	<g>
		<g>
			<path style="fill:#CEE9F4;" d="M973.734,312.23l-1.213-0.468c0.261-1.705,0.258-3.415,0.011-5.072l1.393-0.618
				c2.082-0.923,3.021-3.358,2.098-5.44c-0.923-2.082-3.358-3.021-5.44-2.098l-1.19,0.527c-0.995-1.358-2.194-2.572-3.576-3.594
				c0,0-0.001-0.001-0.001-0.001l0.548-1.422c0.819-2.124-0.238-4.511-2.363-5.33s-4.511,0.238-5.33,2.363l-0.468,1.213
				c-1.705-0.261-3.415-0.258-5.072-0.011l-0.618-1.393c-0.923-2.082-3.358-3.021-5.44-2.098c-2.082,0.923-3.021,3.358-2.098,5.44
				l0.527,1.189c-1.359,0.995-2.572,2.194-3.595,3.576c0,0,0,0.001-0.001,0.001l-1.421-0.548c-2.124-0.819-4.511,0.238-5.33,2.363
				c-0.819,2.124,0.238,4.511,2.363,5.33l1.212,0.467c-0.261,1.706-0.258,3.416-0.011,5.073l-1.392,0.617
				c-2.082,0.923-3.021,3.358-2.098,5.44c0.923,2.082,3.358,3.021,5.44,2.098l1.186-0.525c0,0,0,0.001,0.001,0.001
				c0.996,1.355,2.199,2.57,3.579,3.596l-0.547,1.418c-0.82,2.124,0.238,4.511,2.363,5.33c2.124,0.819,4.511-0.238,5.33-2.363
				l0.467-1.212c1.706,0.261,3.416,0.258,5.073,0.011l0.617,1.392c0.923,2.082,3.358,3.021,5.44,2.098s3.021-3.358,2.098-5.44
				l-0.526-1.186c0,0,0,0,0,0c1.355-0.996,2.57-2.199,3.596-3.579l1.419,0.547c2.124,0.819,4.511-0.238,5.33-2.363
				C976.916,315.436,975.858,313.049,973.734,312.23z M967.079,313.603c-2.439,6.324-9.547,9.474-15.871,7.035
				c-6.324-2.439-9.475-9.547-7.035-15.871c2.441-6.327,9.548-9.474,15.871-7.035C966.368,300.171,969.52,307.276,967.079,313.603z"
				/>
		</g>
		<path style="fill:#CEE9F4;" d="M950.471,307.196c-1.098,2.848,0.32,6.046,3.167,7.145c2.848,1.098,6.049-0.319,7.147-3.166
			c1.098-2.847-0.321-6.05-3.169-7.148C954.769,302.928,951.569,304.348,950.471,307.196z"/>
	</g>
	<g>
		<path style="fill:#CEE9F4;" d="M1188.125,335.039c1.266-3.834-0.249-6.714-4.052-9.868l3.001-9.087
			c2.15,0.802,3.521,2.05,4.184,2.761l1.858-2.468c-0.919-1.015-2.577-2.232-5.109-3.117l1.216-3.683l-2.783-0.919l-1.302,3.943
			c-3.982-0.404-7.199,1.502-8.322,4.904c-1.138,3.445,0.431,6.367,3.69,9.122l-3.331,10.086c-2.184-0.807-4.013-2.242-5.165-3.609
			l-1.804,2.574c1.079,1.377,3.541,3.003,6.037,3.857l-1.216,3.681l2.783,0.919l1.294-3.919
			C1183.822,340.823,1186.987,338.485,1188.125,335.039z M1180.389,318.249c0.44-1.332,1.695-2.605,3.775-2.697l-2.457,7.44
			C1180.258,321.394,1179.809,320.005,1180.389,318.249z M1180.074,337.281l2.828-8.564c1.821,1.868,2.303,3.466,1.649,5.445
			C1183.901,336.132,1182.283,337.281,1180.074,337.281z"/>
	</g>
	<g>
		<path style="fill:#CEE9F4;" d="M1000.085,194.234c-0.672-3.981-3.357-5.82-8.192-6.832l-1.592-9.436
			c2.276-0.295,4.071,0.168,4.99,0.487l0.489-3.05c-1.286-0.468-3.322-0.77-5.974-0.369l-0.645-3.825l-2.89,0.488l0.691,4.094
			c-3.709,1.503-5.663,4.691-5.067,8.224c0.603,3.577,3.356,5.428,7.524,6.342l1.767,10.474c-2.308,0.307-4.596-0.107-6.252-0.778
			l-0.393,3.119c1.597,0.713,4.534,1.001,7.139,0.59l0.645,3.823l2.89-0.488l-0.687-4.07
			C998.982,201.358,1000.688,197.812,1000.085,194.234z M985.401,183.003c-0.233-1.383,0.282-3.095,2.078-4.148l1.303,7.726
			C986.754,185.845,985.708,184.826,985.401,183.003z M994.014,199.978l-1.5-8.893c2.483,0.801,3.655,1.989,4.002,4.044
			C996.861,197.174,995.967,198.946,994.014,199.978z"/>
	</g>
	<g>
		<path style="fill:#CEE9F4;" d="M769.964,339.81c0-4.037-2.342-6.297-6.942-8.1v-9.57c2.293,0.087,3.986,0.843,4.839,1.31
			l0.99-2.926c-1.191-0.675-3.147-1.311-5.829-1.358v-3.879h-2.931v4.152c-3.908,0.865-6.365,3.683-6.365,7.266
			c0,3.628,2.406,5.91,6.365,7.505v10.622c-2.327-0.082-4.514-0.87-6.036-1.807l-0.906,3.01c1.456,0.969,4.304,1.742,6.942,1.769
			v3.877h2.931v-4.127C767.692,346.651,769.964,343.439,769.964,339.81z M757.352,326.293c0-1.402,0.793-3.005,2.739-3.745v7.835
			C758.215,329.321,757.352,328.142,757.352,326.293z M763.022,344.464v-9.019c2.315,1.202,3.274,2.569,3.274,4.653
			C766.296,342.173,765.119,343.772,763.022,344.464z"/>
	</g>
	<g>
		<path style="fill:#CEE9F4;" d="M453.015,403.357c1.411-3.783,0.006-6.719-3.674-10.015l3.344-8.967
			c2.118,0.883,3.441,2.182,4.076,2.918l1.95-2.396c-0.879-1.049-2.491-2.328-4.987-3.309l1.355-3.634l-2.746-1.024l-1.451,3.89
			c-3.964-0.554-7.25,1.227-8.502,4.584c-1.268,3.399,0.189,6.379,3.341,9.256l-3.711,9.952c-2.152-0.89-3.925-2.393-5.024-3.803
			l-1.901,2.504c1.026,1.417,3.424,3.136,5.886,4.083l-1.355,3.633l2.746,1.024l1.442-3.867
			C448.496,408.973,451.747,406.757,453.015,403.357z M445.922,386.285c0.49-1.314,1.793-2.538,3.875-2.552l-2.738,7.341
			C445.672,389.423,445.276,388.018,445.922,386.285z M444.885,405.292l3.151-8.45c1.749,1.936,2.17,3.551,1.441,5.504
			C448.753,404.289,447.092,405.376,444.885,405.292z"/>
	</g>
	<g>
		<path style="fill:#CEE9F4;" d="M448.917,186.331c0-4.037-2.342-6.297-6.942-8.1v-9.57c2.293,0.087,3.986,0.843,4.839,1.31
			l0.99-2.926c-1.191-0.675-3.147-1.311-5.829-1.358v-3.879h-2.931v4.152c-3.908,0.865-6.365,3.683-6.365,7.266
			c0,3.628,2.406,5.91,6.365,7.505v10.622c-2.327-0.082-4.514-0.87-6.036-1.807l-0.906,3.01c1.457,0.969,4.304,1.742,6.942,1.769
			v3.877h2.931v-4.127C446.644,193.172,448.917,189.96,448.917,186.331z M436.305,172.814c0-1.403,0.793-3.005,2.739-3.745v7.835
			C437.167,175.842,436.305,174.663,436.305,172.814z M441.975,190.985v-9.019c2.315,1.203,3.274,2.569,3.274,4.653
			C445.249,188.694,444.072,190.293,441.975,190.985z"/>
	</g>
	<g>
		<path style="fill:#CEE9F4;" d="M191.733,288.966c-1.069-3.893-3.926-5.452-8.839-5.972l-2.534-9.228
			c2.234-0.523,4.067-0.243,5.013-0.018l0.18-3.084c-1.327-0.336-3.382-0.431-5.981,0.234l-1.027-3.74l-2.826,0.776l1.1,4.004
			c-3.539,1.87-5.162,5.237-4.213,8.692c0.961,3.498,3.885,5.062,8.125,5.551l2.813,10.243c-2.266,0.538-4.583,0.356-6.299-0.144
			l-0.076,3.143c1.661,0.548,4.611,0.54,7.162-0.132l1.027,3.738l2.826-0.776l-1.093-3.98
			C191.354,296.165,192.694,292.465,191.733,288.966z M175.992,279.271c-0.371-1.352-0.031-3.107,1.649-4.336l2.075,7.555
			C177.626,281.962,176.482,281.054,175.992,279.271z M186.272,295.292l-2.388-8.697c2.551,0.547,3.837,1.61,4.389,3.62
			C188.822,292.216,188.111,294.069,186.272,295.292z"/>
	</g>
</g>
</svg>
