<svg clip-rule="evenodd" fill-rule="evenodd" height="512" image-rendering="optimizeQuality" shape-rendering="geometricPrecision" text-rendering="geometricPrecision" viewBox="0 0 512 512" width="512" xmlns="http://www.w3.org/2000/svg"><g id="Layer_x0020_1"><g id="_520856232"><g fill="#c63d4f"><path d="m256 486c-15 0-26-12-26-27v-180l-9 8c-5 5-11 8-18 8s-14-3-19-8c-10-10-10-27 0-37l53-53c5-5 12-8 19-8s14 3 19 8l53 53c10 11 10 27 0 37-5 5-12 8-19 8s-13-3-18-8l-9-8v180c0 15-11 27-26 27z"/><path d="m80 486c-15 0-27-12-27-27v-126l-8 9c-5 5-12 7-19 7s-13-2-18-7c-11-11-11-27 0-38l53-53c5-5 12-8 19-8s13 3 18 8l54 53c10 11 10 27 0 38-5 5-12 7-19 7s-14-2-19-7l-8-9v126c0 15-12 27-26 27z"/><path d="m432 486c-14 0-26-12-26-27v-126l-8 9c-5 5-12 7-19 7-7 0-14-2-19-7-10-11-10-27 0-38l54-53c5-5 11-8 18-8s14 3 19 8l53 53c11 11 11 27 0 38-5 5-11 7-18 7s-14-2-19-7l-8-9v126c0 15-12 27-27 27z"/></g><g><path d="m256 184c-43 0-79-36-79-79s36-79 79-79 79 36 79 79-36 79-79 79z" fill="#fff248"/><path d="m256 166c-34 0-61-27-61-61s27-61 61-61 61 27 61 61-27 61-61 61z" fill="#e4c10c"/><g fill="#ff8331"><path d="m256 132c-8 0-14-5-16-12-1-3 1-7 4-8s7 1 8 5c0 1 2 3 4 3s4-2 4-5c0-2-2-4-4-4-9 0-17-7-17-16 0-10 8-17 17-17 8 0 14 5 16 12 1 3-1 7-4 8s-7-1-8-5c0-1-2-2-4-2s-4 1-4 4c0 2 2 4 4 4 9 0 17 7 17 16 0 10-8 17-17 17z"/><path d="m256 140c-4 0-6-3-6-7v-7c0-4 2-6 6-6s6 2 6 6v7c0 4-2 7-6 7zm0-49c-4 0-6-3-6-7v-7c0-4 2-7 6-7s6 3 6 7v7c0 4-2 7-6 7z"/></g></g><path d="m453 264 53 53c3 2 5 5 6 8 0-7-2-15-8-21l-53-53c-5-5-12-8-19-8s-13 3-18 8l-54 53c-7 8-9 20-5 29 0-6 3-12 8-16l53-53c5-5 11-8 18-8s14 3 19 8z" fill="#b23747"/><path d="m256 197c7 0 14 3 19 8l53 53c4 4 7 9 7 15 2-8-1-17-7-23l-53-53c-5-5-12-8-19-8s-14 3-19 8l-53 53c-6 6-9 15-7 23 0-6 3-11 7-15l53-53c5-5 12-8 19-8z" fill="#b23747"/><path d="m152 304-54-53c-5-5-11-8-18-8s-14 3-19 8l-53 53c-6 6-9 15-8 22 1-5 3-11 8-15l53-53c5-5 12-8 19-8s13 3 18 8l54 53c4 4 6 10 7 15 1-7-1-16-7-22z" fill="#b23747"/></g></g></svg>