<svg id="Layer_1" height="512" viewBox="0 0 24 24" width="512" xmlns="http://www.w3.org/2000/svg" data-name="Layer 1"><path d="m5 1.25a3.613 3.613 0 0 0 -1.106.172 3.705 3.705 0 0 0 -2.644 3.578v5a2.752 2.752 0 0 0 2.75 2.75h4a.75.75 0 0 0 .75-.75v-7a3.755 3.755 0 0 0 -3.75-3.75z" fill="#145638"/><path d="m22.75 6v14a2.748 2.748 0 0 1 -2.75 2.75h-10a2.748 2.748 0 0 1 -2.75-2.75v-15.75a3 3 0 0 0 -2.49-2.95.494.494 0 0 1 .24-.05h13a4.754 4.754 0 0 1 4.75 4.75z" fill="#00aa5b"/><g fill="#fff"><path d="m15 8.75h-3a.75.75 0 0 1 0-1.5h3a.75.75 0 0 1 0 1.5z"/><path d="m18 11.75h-6a.75.75 0 0 1 0-1.5h6a.75.75 0 0 1 0 1.5z"/><path d="m18 14.75h-6a.75.75 0 0 1 0-1.5h6a.75.75 0 0 1 0 1.5z"/><path d="m18 17.75h-6a.75.75 0 0 1 0-1.5h6a.75.75 0 0 1 0 1.5z"/></g></svg>