<?xml version="1.0" encoding="iso-8859-1"?>
<!-- Generator: Adobe Illustrator 19.0.0, SVG Export Plug-In . SVG Version: 6.00 Build 0)  -->
<svg version="1.1" id="Capa_1" xmlns="http://www.w3.org/2000/svg" xmlns:xlink="http://www.w3.org/1999/xlink" x="0px" y="0px"
	 viewBox="0 0 512.102 512.102" style="enable-background:new 0 0 512.102 512.102;" xml:space="preserve">
<g>
	<g transform="translate(1 1)">
		<path style="fill:#F57C00;" d="M494.788,333.131c-15.883,34.73-52.868,54.72-90.624,48.981
			c-7.751-1.223-15.301-3.491-22.443-6.741c-31.408-14.323-51.095-46.156-49.881-80.654c1.214-34.498,23.089-64.869,55.426-76.949
			s68.767-3.492,92.303,21.76S509.111,301.723,494.788,333.131z"/>
		<path style="fill:#FF9801;" d="M469.188,333.131c-11.963,26.3-36.444,44.741-65.024,48.981
			c-7.751-1.223-15.301-3.491-22.443-6.741c-34.404-15.68-54.386-52.13-49.103-89.568c5.283-37.437,34.573-66.934,71.972-72.48
			c26.385,4.146,49.318,20.383,61.994,43.893S480.223,308.808,469.188,333.131z"/>
		<polygon style="fill:#1566C0;" points="314.734,161.185 314.734,178.251 296.814,203.851 272.921,237.985 260.974,255.051 
			249.028,272.118 237.081,289.185 213.188,323.318 195.268,348.918 195.268,468.385 144.068,502.518 144.068,348.918 
			24.601,178.251 24.601,161.185 		"/>
		<path style="fill:#4CAF50;" d="M127.001,92.918v68.267H41.668V92.918c-0.003-9.054,3.593-17.737,9.995-24.139
			s15.085-9.997,24.139-9.995h17.067c9.054-0.003,17.737,3.593,24.139,9.995C123.408,75.181,127.004,83.864,127.001,92.918z"/>
		<circle style="fill:#CFD8DC;" cx="84.334" cy="33.185" r="25.6"/>
		<path style="fill:#8BC34A;" d="M212.334,92.918v68.267h-85.333V92.918c-0.003-9.054,3.593-17.737,9.995-24.139
			s15.085-9.997,24.139-9.995h17.067c9.053-0.003,17.737,3.593,24.139,9.995S212.337,83.864,212.334,92.918z"/>
		<circle style="fill:#CFD8DC;" cx="169.668" cy="33.185" r="25.6"/>
		<path style="fill:#2E7D32;" d="M297.668,92.918v68.267h-85.333V92.918c0.021-17.196,12.809-31.701,29.867-33.877
			c1.416-0.173,2.841-0.258,4.267-0.256h17.067c9.053-0.003,17.737,3.593,24.139,9.995S297.67,83.864,297.668,92.918z"/>
		<path style="fill:#4CAF50;" d="M272.068,92.918v68.267h-59.733V92.918c0.021-17.196,12.809-31.701,29.867-33.877
			C259.259,61.217,272.047,75.722,272.068,92.918z"/>
		<circle style="fill:#CFD8DC;" cx="255.001" cy="33.185" r="25.6"/>
		<path style="fill:#1566C0;" d="M331.801,161.185c-0.068,9.397-7.669,16.998-17.067,17.067H24.601
			c-9.414-0.028-17.039-7.652-17.067-17.067c-0.024-4.528,1.793-8.871,5.035-12.032c3.161-3.241,7.504-5.059,12.032-5.035h290.133
			C324.149,144.145,331.774,151.77,331.801,161.185z"/>
		<g>
			<polygon style="fill:#2296F3;" points="289.134,161.185 289.134,178.251 271.214,203.851 247.321,237.985 235.374,255.051 
				223.428,272.118 211.481,289.185 187.588,323.318 169.668,348.918 169.668,468.385 144.068,485.451 144.068,348.918 
				24.601,178.251 24.601,161.185 			"/>
			<path style="fill:#2296F3;" d="M306.201,161.185c-0.068,9.397-7.669,16.998-17.067,17.067H24.601
				c-9.414-0.028-17.039-7.652-17.067-17.067c-0.024-4.528,1.793-8.871,5.035-12.032c3.161-3.241,7.504-5.059,12.032-5.035h264.533
				C298.549,144.145,306.174,151.77,306.201,161.185z"/>
		</g>
	</g>
	<g>
		<path d="M34.134,93.918v42.667h-8.533c-13.205-0.009-24.248,10.034-25.487,23.181c-1.239,13.147,7.732,25.077,20.706,27.535
			L136.534,352.61v150.908c0,3.147,1.732,6.038,4.507,7.523c2.775,1.485,6.141,1.322,8.76-0.423l51.2-34.133
			c2.374-1.583,3.799-4.247,3.8-7.1V352.61l115.714-165.308c12.974-2.459,21.945-14.388,20.706-27.535
			c-1.239-13.147-12.282-23.19-25.487-23.181h-8.533V93.918c-0.045-16.542-9.656-31.564-24.657-38.537
			c4.878-5.99,7.557-13.471,7.59-21.196c0-18.851-15.282-34.133-34.133-34.133s-34.133,15.282-34.133,34.133
			c0.033,7.725,2.712,15.206,7.59,21.196c-6.381,3.004-11.92,7.539-16.123,13.201c-4.204-5.662-9.743-10.197-16.123-13.201
			c4.878-5.99,7.557-13.471,7.59-21.196c0-18.851-15.282-34.133-34.133-34.133s-34.133,15.282-34.133,34.133
			c0.033,7.725,2.712,15.206,7.59,21.196c-6.381,3.004-11.92,7.539-16.123,13.201c-4.204-5.662-9.743-10.197-16.123-13.201
			c4.878-5.99,7.557-13.471,7.59-21.196c0-18.851-15.282-34.133-34.133-34.133S51.201,15.333,51.201,34.185
			c0.033,7.725,2.712,15.206,7.59,21.196C43.791,62.354,34.179,77.376,34.134,93.918z M287.4,204.851h-74.066
			c-4.713,0-8.533,3.821-8.533,8.533c0,4.713,3.821,8.533,8.533,8.533h62.119l-11.947,17.067h-67.239
			c-4.713,0-8.533,3.821-8.533,8.533s3.821,8.533,8.533,8.533h55.292l-11.947,17.067h-60.412c-4.713,0-8.533,3.82-8.533,8.533
			s3.821,8.533,8.533,8.533h48.465l-11.947,17.067h-53.585c-4.713,0-8.533,3.82-8.533,8.533s3.821,8.533,8.533,8.533h41.637
			l-14.496,20.708c-1.004,1.434-1.542,3.142-1.542,4.892v114.9l-34.133,22.758V349.918c0-1.75-0.538-3.458-1.542-4.892
			L41.989,187.785h257.358L287.4,204.851z M256.001,17.118c9.426,0,17.067,7.641,17.067,17.067s-7.641,17.067-17.067,17.067
			c-9.426,0-17.067-7.641-17.067-17.067C238.945,24.763,246.58,17.129,256.001,17.118z M221.868,93.918
			c0.015-14.132,11.468-25.585,25.6-25.6h17.067c14.132,0.015,25.585,11.468,25.6,25.6v42.667h-34.133v-34.133
			c0-4.713-3.821-8.533-8.533-8.533s-8.533,3.821-8.533,8.533v34.133h-17.067V93.918z M170.668,17.118
			c9.426,0,17.067,7.641,17.067,17.067s-7.641,17.067-17.067,17.067s-17.067-7.641-17.067-17.067
			C153.612,24.763,161.247,17.129,170.668,17.118z M136.534,93.918c0.015-14.132,11.468-25.585,25.6-25.6h17.067
			c14.132,0.015,25.585,11.468,25.6,25.6v42.667h-34.133v-34.133c0-4.713-3.821-8.533-8.533-8.533c-4.713,0-8.533,3.821-8.533,8.533
			v34.133h-17.067V93.918z M128.001,153.651h187.733c4.713,0,8.533,3.821,8.533,8.533c0,4.713-3.82,8.533-8.533,8.533H25.601
			c-4.713,0-8.533-3.821-8.533-8.533c0-4.713,3.821-8.533,8.533-8.533H128.001z M85.334,17.118c9.426,0,17.067,7.641,17.067,17.067
			S94.76,51.251,85.334,51.251S68.268,43.61,68.268,34.185C68.278,24.763,75.913,17.129,85.334,17.118z M51.201,93.918
			c0.015-14.132,11.468-25.585,25.6-25.6h17.067c14.132,0.015,25.585,11.468,25.6,25.6v42.667H85.334v-34.133
			c0-4.713-3.821-8.533-8.533-8.533c-4.713,0-8.533,3.821-8.533,8.533v34.133H51.201V93.918z"/>
		<path d="M385.28,210.801c-41.06,15.299-66.066,56.976-60.243,100.405c5.823,43.429,40.925,77.047,84.564,80.989v68.656
			c-0.012,9.421-7.646,17.054-17.067,17.067H221.868c-4.713,0-8.533,3.82-8.533,8.533s3.821,8.533,8.533,8.533h170.667
			c18.844-0.019,34.115-15.29,34.133-34.133V392.24c8.302-0.772,16.465-2.643,24.275-5.564
			c41.091-15.253,66.14-56.931,60.325-100.374c-5.815-43.443-40.943-77.067-84.6-80.975V46.251l28.1,28.1
			c2.151,2.178,5.304,3.037,8.262,2.251c2.958-0.786,5.269-3.097,6.055-6.055c0.786-2.958-0.073-6.111-2.251-8.262l-42.667-42.667
			c-0.076-0.076-0.179-0.098-0.257-0.171c-0.728-0.707-1.579-1.276-2.51-1.68l-0.03-0.007c-0.072-0.029-0.149-0.028-0.221-0.056
			c-0.869-0.325-1.785-0.503-2.713-0.528c-0.279-0.01-0.542,0.025-0.821,0.042c-0.737,0.044-1.465,0.186-2.165,0.421
			c-0.274,0.082-0.544,0.178-0.808,0.289c-0.943,0.404-1.805,0.976-2.543,1.689l-42.667,42.667c-3.332,3.332-3.332,8.735,0,12.067
			c3.332,3.332,8.735,3.332,12.067,0l28.1-28.1v159.061C401.286,206.055,393.108,207.901,385.28,210.801z M418.068,221.904
			l0.066,0.014l0.067-0.014c42.162,0.037,76.317,34.236,76.299,76.399c-0.018,42.162-34.203,76.332-76.365,76.332
			s-76.347-34.17-76.365-76.332C341.751,256.141,375.906,221.941,418.068,221.904z"/>
		<path d="M389.863,298.976c-4.288-1.949-9.345-0.059-11.304,4.225c-3.308,7.627-2.956,16.347,0.954,23.683
			c2.573,4.904,6.239,9.149,10.716,12.408l-1.133,2.483c-1.956,4.288-0.065,9.35,4.223,11.307c4.288,1.956,9.35,0.065,11.307-4.223
			l1.096-2.401c2.6,0.564,5.252,0.852,7.913,0.859c11.329,0.525,21.911-5.652,27.025-15.775c3.315-7.626,2.966-16.348-0.95-23.683
			c-2.571-4.903-6.237-9.148-10.714-12.406l9.634-21.114c3.633,3.198,5.014,8.251,3.514,12.853
			c-1.956,4.289-0.064,9.352,4.225,11.308c4.289,1.956,9.352,0.064,11.308-4.225c5.037-13.279,0.183-28.275-11.679-36.083
			l1.137-2.492c1.945-4.287,0.051-9.34-4.232-11.293c-4.283-1.953-9.34-0.07-11.301,4.21l-1.136,2.491
			c-13.67-3.838-28.173,2.323-34.901,14.826c-5.043,13.278-0.192,28.277,11.671,36.087l-9.626,21.098
			c-1.13-1.174-2.093-2.498-2.862-3.935c-1.536-2.72-1.779-5.983-0.663-8.9C396.04,305.996,394.151,300.934,389.863,298.976z
			 M425.134,324.46c-2.495,4.143-7.212,6.407-12.005,5.764l8.487-18.6c1.13,1.174,2.092,2.499,2.859,3.936
			C426.015,318.279,426.257,321.544,425.134,324.46L425.134,324.46z M411.093,273.018c2.494-4.144,7.212-6.41,12.006-5.764
			l-8.495,18.619C410.973,282.672,409.593,277.62,411.093,273.018z"/>
	</g>
</g>
<g>
</g>
<g>
</g>
<g>
</g>
<g>
</g>
<g>
</g>
<g>
</g>
<g>
</g>
<g>
</g>
<g>
</g>
<g>
</g>
<g>
</g>
<g>
</g>
<g>
</g>
<g>
</g>
<g>
</g>
</svg>
