<svg id="Layer_1" height="512" viewBox="0 0 64 64" width="512" xmlns="http://www.w3.org/2000/svg" data-name="Layer 1"><path d="m40 4-.88.29a5.36 5.36 0 0 1 -4.12-.29 5.36 5.36 0 0 0 -4.12-.29l-.88.29v6l.88-.29a5.36 5.36 0 0 1 4.12.29 5.36 5.36 0 0 0 4.12.29l.88-.29z" fill="#e65c62"/><path d="m39 2h2v25h-2z" fill="#8e9fb3"/><path d="m34.82 31.31a1.87 1.87 0 0 0 1.91-.15l4.19-2.95a1.49 1.49 0 0 0 -1.56-2.54l-3.65 1.94-2-1.72a9.34 9.34 0 0 0 -4.14-2l-1.72-.36a11.29 11.29 0 0 0 -6.12.44l-2.4.87a1.87 1.87 0 0 0 -1.17 1.16l-2.16 6.23a1.53 1.53 0 0 0 2.87 1.08l2.13-5.31 3-.5-.13 7.23a2.78 2.78 0 0 0 .77 2l-.51 15.27h3.36l1.66-13.92 5.18.89 1.81 6h3.55l-1.44-7.82a1.88 1.88 0 0 0 -1.46-1.5l-5.93-1.23.14-5.04z" fill="#2970cc"/><circle cx="27.94" cy="20.2" fill="#e6a85c" r="3.28"/><path d="m29.15 38.08-1.66 13.92h-3.36l.48-15.29a2.8 2.8 0 0 0 1.56.85z" fill="#2462b3"/><g fill="#596c80"><path d="m15.65 56.65-.41-.23a.66.66 0 0 1 -.35-.65 5 5 0 0 0 0-1.54.66.66 0 0 1 .35-.65l.41-.23a.67.67 0 0 0 .26-.92l-1.13-1.86a.72.72 0 0 0 -1-.25l-.41.23a.77.77 0 0 1 -.81-.07 6.2 6.2 0 0 0 -1.31-.73.7.7 0 0 1 -.46-.63v-.45a.68.68 0 0 0 -.7-.67h-2.22a.68.68 0 0 0 -.7.67v.45a.7.7 0 0 1 -.46.63 6.2 6.2 0 0 0 -1.31.73.77.77 0 0 1 -.81.07l-.41-.23a.72.72 0 0 0 -1 .25l-1.09 1.86a.67.67 0 0 0 .26.92l.41.23a.66.66 0 0 1 .35.65 5 5 0 0 0 0 1.54.66.66 0 0 1 -.35.65l-.41.23a.67.67 0 0 0 -.26.92l1.13 1.86a.72.72 0 0 0 1 .25l.41-.23a.77.77 0 0 1 .81.07 6.2 6.2 0 0 0 1.31.73.7.7 0 0 1 .46.63v.45a.68.68 0 0 0 .7.67h2.26a.68.68 0 0 0 .7-.67v-.45a.7.7 0 0 1 .46-.63 6.2 6.2 0 0 0 1.31-.73.77.77 0 0 1 .81-.07l.41.23a.72.72 0 0 0 1-.25l1.13-1.86a.67.67 0 0 0 -.34-.92zm-6.65.85a2.5 2.5 0 1 1 2.5-2.5 2.5 2.5 0 0 1 -2.5 2.5z"/><path d="m62.53 26.06v-7.78l-7.33 2.72 2.86 2-16.58 24h-6.48a1 1 0 0 0 -.81.42l-4.7 6.58h-9.49v2h10a1 1 0 0 0 .81-.42l4.7-6.58h6.49a1 1 0 0 0 .82-.43l16.88-24.47z"/></g></svg>