<svg height="512pt" viewBox="0 0 512 512.02377" width="512pt" xmlns="http://www.w3.org/2000/svg"><path d="m409.441406 156.011719-18.6875-24.574219c-1.585937-2.132812-4.085937-3.390625-6.742187-3.390625s-5.15625 1.257813-6.742188 3.390625l-4.351562 5.800781c-11.40625-53.40625-57.5625-92.289062-112.132813-94.464843-54.570312-2.171876-103.671875 32.917968-119.289062 85.25h29.097656c3.40625.175781 6.433594 2.234374 7.851562 5.335937 1.414063 3.101563.988282 6.738281-1.109374 9.425781l-37.121094 48.8125-13.996094 18.347656c-1.582031 2.132813-4.082031 3.390626-6.738281 3.390626-2.660157 0-5.160157-1.257813-6.742188-3.390626l-4.4375-5.804687-46.679687-61.355469c-2.097656-2.6875-2.523438-6.324218-1.109375-9.425781 1.417969-3.101563 4.445312-5.160156 7.851562-5.335937h37.972657c17.078124-75.085938 87.140624-125.90625 163.816406-118.824219 76.679687 7.078125 136.25 69.867187 139.289062 146.8125zm0 0" fill="#e91e63"/><path d="m435.125 213.355469h-34.300781c-22.3125 63.015625-82.816407 104.363281-149.628907 102.257812s-124.59375-47.179687-142.894531-111.472656l4.4375 5.804687c1.582031 2.132813 4.082031 3.390626 6.742188 3.390626 2.65625 0 5.15625-1.257813 6.738281-3.390626l13.996094-18.347656c12.398437 48.820313 54.089844 84.621094 104.226562 89.496094 50.136719 4.875 97.941406-22.21875 119.515625-67.738281h-31.058593c-3.40625-.175781-6.433594-2.230469-7.851563-5.335938-1.417969-3.101562-.988281-6.734375 1.109375-9.425781l46.761719-61.355469 4.351562-5.800781c1.585938-2.132812 4.085938-3.390625 6.742188-3.390625s5.15625 1.257813 6.742187 3.390625l18.6875 24.574219 32.425782 42.582031c2.097656 2.691406 2.527343 6.324219 1.109374 9.425781-1.417968 3.105469-4.441406 5.160157-7.851562 5.335938zm0 0" fill="#4caf50"/><path d="m25.613281 290.15625h42.664063c9.425781 0 17.066406 7.640625 17.066406 17.066406v179.199219c0 9.425781-7.640625 17.070313-17.066406 17.070313h-42.664063c-9.425781 0-17.066406-7.644532-17.066406-17.070313v-179.199219c0-9.425781 7.640625-17.066406 17.066406-17.066406zm0 0" fill="#283593"/><path d="m25.613281 290.15625h17.066407c9.425781 0 17.066406 7.640625 17.066406 17.066406v179.199219c0 9.425781-7.640625 17.070313-17.066406 17.070313h-17.066407c-9.425781 0-17.066406-7.644532-17.066406-17.070313v-179.199219c0-9.425781 7.640625-17.066406 17.066406-17.066406zm0 0" fill="#3f51b5"/><path d="m492.214844 388.886719-159.914063 97.367187c-9.359375 5.695313-20.105469 8.707032-31.0625 8.703125h-215.894531v-187.734375h23.894531c.429688-.011718.859375.015625 1.28125.085938 17.238281.21875 33.910157 6.195312 47.359375 16.980468 4.074219 3.308594 8.511719 6.140626 13.226563 8.449219 10.949219 5.65625 23.089843 8.613281 35.414062 8.617188h44.628907c15.003906-.019531 28.910156 7.859375 36.609374 20.738281l.765626 1.28125c4.273437 7.097656 5.476562 15.632812 3.328124 23.636719-1.371093 5.324219-4.140624 10.183593-8.019531 14.078125h20.050781c3.6875.003906 7.347657-.601563 10.839844-1.792969l151.464844-50.515625 6.484375-2.132812c9.5625-3.140626 20.058594.152343 26.113281 8.191406v.085937c3.96875 5.265625 5.515625 11.96875 4.265625 18.441407-1.253906 6.472656-5.191406 12.113281-10.835937 15.519531zm0 0" fill="#bfa885"/><path d="m458.082031 380.355469-159.914062 97.363281c-9.359375 5.695312-20.105469 8.707031-31.0625 8.703125h-181.761719v-179.199219h23.894531c.429688-.011718.859375.015625 1.28125.085938 4.710938 2.308594 9.148438 5.140625 13.226563 8.449218 13.449218 10.785157 30.121094 16.761719 47.359375 16.980469 10.949219 5.65625 23.089843 8.613281 35.414062 8.617188h36.09375c4.417969 3.328125 8.15625 7.46875 11.007813 12.203125l.769531 1.28125c7.277344 12.160156 5.339844 27.710937-4.695313 37.71875h20.054688c3.6875 0 7.347656-.605469 10.835938-1.792969l11.265624-3.753906c-1.371093 5.324219-4.140624 10.183593-8.019531 14.078125h20.050781c3.6875.003906 7.347657-.601563 10.839844-1.792969l151.464844-50.515625c6.382812 10.972656 2.769531 25.035156-8.105469 31.574219zm0 0" fill="#ffe0b2"/><path d="m290.144531 119.492188c0 18.847656-15.28125 34.132812-34.132812 34.132812-18.851563 0-34.132813-15.285156-34.132813-34.132812 0-18.851563 15.28125-34.136719 34.132813-34.136719 18.851562 0 34.132812 15.285156 34.132812 34.136719zm0 0" fill="#bfa885"/><path d="m264.546875 119.492188c0-18.851563-9.554687-34.136719-21.335937-34.136719s-21.332032 15.285156-21.332032 34.136719c0 18.847656 9.550782 34.132812 21.332032 34.132812s21.335937-15.285156 21.335937-34.132812zm0 0" fill="#ffe0b2"/><path d="m238.945312 153.625h34.132813c18.851563 0 34.132813 15.28125 34.132813 34.132812v34.132813c0 4.710937-3.820313 8.53125-8.53125 8.53125h-85.335938c-4.710938 0-8.53125-3.820313-8.53125-8.53125v-34.132813c0-18.851562 15.28125-34.132812 34.132812-34.132812zm0 0" fill="#6a1b9a"/><path d="m238.945312 153.625h8.535157c18.847656 0 34.132812 15.28125 34.132812 34.132812v34.132813c0 4.710937-3.820312 8.53125-8.535156 8.53125h-59.734375c-4.710938 0-8.53125-3.820313-8.53125-8.53125v-34.132813c0-18.851562 15.28125-34.132812 34.132812-34.132812zm0 0" fill="#9d27b0"/><path d="m99.671875 119.492188h-31.308594c-6.507812.027343-12.429687 3.753906-15.273437 9.605468-3.085938 6.09375-2.421875 13.414063 1.707031 18.851563l45.816406 60.195312c19.566407 66.328125 79.070313 112.929688 148.152344 116.03125 69.085937 3.105469 132.527344-37.976562 157.960937-102.285156h28.398438c6.511719-.03125 12.433594-3.761719 15.277344-9.617187 3.082031-6.09375 2.417968-13.410157-1.707032-18.851563l-30.984374-40.652344c-4.523438-79.296875-65.875-143.617187-144.867188-151.882812-78.996094-8.265625-152.328125 41.960937-173.171875 118.605469zm335.453125 93.863281v-8.53125zm-.109375-8.53125h-34.191406c-3.617188-.003907-6.839844 2.273437-8.046875 5.683593-19.792969 55.921876-71.636719 94.15625-130.910156 96.546876-59.273438 2.390624-114.027344-31.546876-138.257813-85.691407.144531 0 .253906-.136719.390625-.179687 1.453125-.421875 2.84375-1.035156 4.132812-1.828125.375-.230469.742188-.460938 1.097657-.714844 1.421875-.984375 2.691406-2.167969 3.773437-3.515625l4.128906-5.421875c.335938.855469.734376 1.605469 1.078126 2.425781.570312 1.347656 1.160156 2.671875 1.773437 3.992188.851563 1.785156 1.707031 3.535156 2.558594 5.273437.667969 1.273438 1.332031 2.5625 2.039062 3.796875.972657 1.707032 2.007813 3.414063 3.054688 5.070313.734375 1.175781 1.460937 2.363281 2.238281 3.515625 1.152344 1.707031 2.371094 3.355468 3.601562 5 .765626 1.023437 1.5 2.074218 2.304688 3.082031 1.457031 1.832031 3.011719 3.601563 4.570312 5.347656.640626.726563 1.246094 1.496094 1.914063 2.203125 2.273437 2.421875 4.617187 4.753906 7.023437 6.988282.511719.46875 1.074219.898437 1.59375 1.367187 1.945313 1.707031 3.925782 3.414063 5.972657 5.050781.957031.742188 1.945312 1.425782 2.917969 2.140625 1.707031 1.253907 3.414062 2.5 5.121093 3.660157 1.117188.753906 2.277344 1.445312 3.414063 2.160156 1.707031 1.042968 3.351562 2.066406 5.078125 3.03125 1.21875.691406 2.464843 1.328125 3.710937 1.96875 1.707032.855468 3.414063 1.75 5.195313 2.5625 1.296875.566406 2.605469 1.136718 3.917969 1.707031 1.773437.742187 3.570312 1.449219 5.386718 2.113281 1.339844.496094 2.675782.984375 4.042969 1.433594 1.859375.617188 3.746094 1.171875 5.640625 1.707031 1.355469.386719 2.703125.777344 4.085938 1.109375 1.980468.488282 3.988281.855469 5.976562 1.28125 1.320312.253906 2.625.546875 3.964844.765625 2.246094.359375 4.523437.617188 6.828125.855469 1.136719.121094 2.253906.296875 3.414062.390625 3.414063.273437 6.902344.4375 10.402344.4375 49.386719-.171875 94.324219-28.585937 115.652344-73.132813 1.257812-2.636718 1.074219-5.738281-.484375-8.214843-1.554688-2.472657-4.273438-3.976563-7.195313-3.984375h-30.910156l-.058594-.113282c-.046875-.070312-.078125-.148437-.101562-.230468-.097657-.238282-.066407-.507813.085937-.714844l46.804688-61.332031 4.214844-5.757813 18.6875 24.574219.070312.0625 32.347656 42.511719c.207032.3125.1875.726562-.050781 1.015625zm-249.171875-75.726563c-2.839844-5.84375-8.753906-9.570312-15.25-9.605468h-16.980469c17.390625-41.203126 57.679688-68.058594 102.398438-68.269532 3.21875 0 6.398437.144532 9.558593.417969 1.046876.09375 2.082032.28125 3.121094.410156 2.089844.238281 4.191406.46875 6.257813.855469 1.234375.210938 2.445312.535156 3.667969.792969 1.835937.390625 3.675781.742187 5.46875 1.21875 1.289062.34375 2.5625.777343 3.804687 1.160156 1.707031.523437 3.414063 1.007813 5.121094 1.605469 1.261719.453125 2.484375.988281 3.730469 1.484375 1.621093.648437 3.25 1.261719 4.835937 1.988281 1.246094.5625 2.460937 1.210938 3.679687 1.828125 1.527344.757813 3.0625 1.5 4.546876 2.328125 1.214843.675781 2.382812 1.425781 3.566406 2.148438 1.433594.855468 2.878906 1.707031 4.269531 2.65625 1.167969.777343 2.285156 1.628906 3.414063 2.457031 1.339843.972656 2.6875 1.929687 3.984374 2.960937 1.109376.851563 2.15625 1.828125 3.234376 2.738282 1.246093 1.078124 2.507812 2.144531 3.710937 3.269531 1.039063.972656 2.023437 2.003906 3.019531 3.011719 1.152344 1.167968 2.3125 2.328124 3.414063 3.550781.964843 1.058593 1.867187 2.167969 2.789062 3.269531 1.050781 1.253906 2.101563 2.5 3.097657 3.804688.855468 1.144531 1.707031 2.328124 2.5625 3.515624.945312 1.332032 1.886718 2.671876 2.773437 4.050782.777344 1.222656 1.507813 2.476562 2.242187 3.722656.855469 1.417969 1.65625 2.839844 2.425782 4.265625.679687 1.296875 1.3125 2.628906 1.953125 3.960937.699219 1.476563 1.40625 2.960938 2.046875 4.480469.582031 1.363281 1.101562 2.753907 1.628906 4.144531.582031 1.554688 1.152344 3.109376 1.707031 4.695313.472657 1.417969.855469 2.867187 1.28125 4.265625.28125.980469.53125 1.980469.777344 2.96875l-44.261719 58.15625c-4.121094 5.433594-4.785156 12.738281-1.707031 18.824219 2.808594 5.835937 8.683594 9.578125 15.164063 9.660156h16.570312c-20.46875 31.792969-55.644531 51.066406-93.457031 51.199219-3.132813 0-6.246094-.136719-9.316407-.390625-1.035156-.085938-2.042968-.265625-3.058593-.375-2.039063-.230469-4.078125-.4375-6.089844-.777344-1.195313-.195313-2.355469-.496094-3.535156-.734375-1.800781-.359375-3.609375-.691406-5.375-1.144531-1.253907-.316407-2.472657-.726563-3.710938-1.089844-1.65625-.480469-3.320312-.933594-4.941406-1.488281-1.273437-.433594-2.5-.953125-3.753906-1.441406-1.535157-.585938-3.089844-1.152344-4.601563-1.808594-1.253906-.554688-2.472656-1.175782-3.703125-1.773438-1.449219-.691406-2.917969-1.375-4.335937-2.132812-1.21875-.648438-2.386719-1.375-3.574219-2.066406-1.375-.800782-2.753906-1.585938-4.09375-2.449219-1.171875-.757813-2.296875-1.578125-3.414063-2.371094-1.289062-.898437-2.5625-1.785156-3.832031-2.742187-1.273437-.953126-2.183593-1.765626-3.269531-2.652344-1.082031-.886719-2.40625-1.980469-3.566406-3.019532-1.160156-1.042968-2.046875-1.9375-3.0625-2.917968-1.015625-.984375-2.238282-2.160156-3.3125-3.296875-1.074219-1.132813-1.902344-2.105469-2.832032-3.171875-.929687-1.066406-2.046874-2.332032-3.03125-3.542969-.980468-1.210937-1.703124-2.277344-2.558593-3.414063-.851563-1.132812-1.84375-2.480468-2.714844-3.761718-.867187-1.28125-1.578125-2.441406-2.355469-3.667969-.773437-1.230469-1.628906-2.636719-2.394531-3.988281-.769531-1.347656-1.390625-2.558594-2.058594-3.882813-.664062-1.320312-1.425781-2.78125-2.082031-4.203125-.65625-1.425781-1.195312-2.707031-1.757812-4.074218-.5625-1.363282-1.1875-2.917969-1.707032-4.402344-.519531-1.484375-.980468-2.832032-1.441406-4.265625-.28125-.851563-.546875-1.792969-.8125-2.695313l34.519531-45.390625c4.105469-5.457031 4.742188-12.777343 1.628907-18.859375zm210.320312-4.394531c-.214843-.21875-.503906-.339844-.734374-.546875-.660157-.59375-1.375-1.128906-2.132813-1.59375-4.746094-3.203125-10.777344-3.816406-16.070313-1.628906-.449218-1.304688-.996093-2.5625-1.484374-3.832032-.484376-1.273437-1.023438-2.75-1.585938-4.097656-.855469-1.96875-1.707031-3.882812-2.652344-5.800781-.597656-1.238281-1.152344-2.492187-1.785156-3.703125-1.066406-2.050781-2.234375-4.039062-3.414062-5.972656-.597657-1.007813-1.144532-2.042969-1.765626-3.03125-1.648437-2.628906-3.414062-5.179688-5.25-7.679688-.203124-.289062-.382812-.589844-.59375-.851562-2.074218-2.773438-4.253906-5.449219-6.546874-8.03125-.675782-.777344-1.417969-1.484375-2.117188-2.234375-1.628906-1.777344-3.277344-3.535157-5.007812-5.214844-.949219-.90625-1.945313-1.757813-2.910157-2.636719-1.570312-1.433594-3.140625-2.859375-4.777343-4.207031-1.101563-.90625-2.238282-1.75-3.363282-2.621094-1.597656-1.226562-3.199218-2.449219-4.855468-3.601562-1.203126-.851563-2.441407-1.636719-3.667969-2.441407-1.65625-1.074218-3.328125-2.121093-5.027344-3.121093-1.289063-.757813-2.558594-1.484375-3.917969-2.191407-1.707031-.929687-3.449218-1.824218-5.230468-2.679687-1.355469-.660156-2.714844-1.289063-4.085938-1.894531-1.808594-.796875-3.636719-1.539063-5.488281-2.253906-1.390625-.539063-2.78125-1.074219-4.199219-1.5625-1.902344-.664063-3.839844-1.246094-5.785156-1.816407-1.398438-.417969-2.789063-.855469-4.214844-1.210937-2.039062-.53125-4.113281-.957032-6.195312-1.375-1.367188-.28125-2.703126-.597656-4.085938-.855469-2.3125-.390625-4.660156-.65625-7.007812-.929687-1.175782-.125-2.328126-.324219-3.515626-.425782-3.507812-.332031-7.082031-.503906-10.683593-.503906-56.535157.234375-106.304688 37.324219-122.691407 91.433594-.769531 2.582031-.273437 5.375 1.335938 7.535156 1.609375 2.15625 4.144531 3.429688 6.839844 3.433594l28.945312-.0625c.277344.3125.320313.769531.101563 1.128906l-37.121094 48.808594-13.941406 18.332031-51.058594-67.132813c-.375-.496093 0-1.023437 0-1.074218h37.914063c3.992187 0 7.453124-2.765625 8.328124-6.65625 14.875-64.964844 72.097657-111.433594 138.730469-112.664063 66.632813-1.230469 125.53125 43.097657 142.792969 107.464844zm0 0"/><path d="m213.34375 238.957031h85.335938c9.425781 0 17.066406-7.640625 17.066406-17.066406v-34.132813c-.054688-17.882812-11.265625-33.828124-28.074219-39.929687 15.421875-17.066406 14.535156-43.289063-2.003906-59.277344-16.539063-15.988281-42.773438-15.988281-59.3125 0-16.539063 15.988281-17.421875 42.210938-2.003907 59.277344-16.808593 6.101563-28.019531 22.046875-28.074218 39.929687v34.132813c0 9.425781 7.640625 17.066406 17.066406 17.066406zm42.667969-145.066406c14.136719 0 25.601562 11.460937 25.601562 25.601563 0 14.136718-11.464843 25.597656-25.601562 25.597656s-25.601563-11.460938-25.601563-25.597656c0-14.140626 11.464844-25.601563 25.601563-25.601563zm-42.667969 93.867187c0-14.140624 11.464844-25.601562 25.601562-25.601562h34.132813c14.140625 0 25.601563 11.460938 25.601563 25.601562v34.132813h-85.335938zm0 0"/><path d="m469.96875 338.59375-157.953125 52.648438c-2.609375.871093-5.34375 1.316406-8.097656 1.316406h-4.90625c4.058593-11.113282 2.886719-23.460938-3.183594-33.613282l-.757813-1.253906c-9.285156-15.390625-25.929687-24.820312-43.90625-24.867187h-44.644531c-15.746093-.019531-31.019531-5.375-43.324219-15.199219-15.328124-12.226562-34.347656-18.902344-53.957031-18.933594h-16.929687c-3.601563-10.191406-13.21875-17.023437-24.03125-17.066406h-42.664063c-14.140625 0-25.6015622 11.460938-25.6015622 25.597656v179.199219c0 14.140625 11.4609372 25.601563 25.6015622 25.601563h42.664063c7.242187-.023438 14.128906-3.125 18.945312-8.53125h214.015625c12.519531.003906 24.800781-3.441407 35.492188-9.960938l159.921875-97.355469c13.886718-8.449219 19.214844-25.984375 12.371094-40.730469-6.839844-14.746093-23.667969-22.003906-39.089844-16.851562zm-401.691406 156.363281h-42.664063c-4.714843 0-8.535156-3.820312-8.535156-8.535156v-179.199219c0-4.710937 3.820313-8.53125 8.535156-8.53125h42.664063c4.714844 0 8.535156 3.820313 8.535156 8.53125v179.199219c0 4.714844-3.820312 8.535156-8.535156 8.535156zm426.394531-123.230469c-.765625 4.113282-3.25 7.699219-6.828125 9.863282l-159.988281 97.367187c-8.019531 4.886719-17.226563 7.46875-26.617188 7.464844h-207.359375v-170.664063h15.359375c15.746094.015626 31.019531 5.375 43.324219 15.195313 15.328125 12.230469 34.347656 18.90625 53.957031 18.9375h44.628907c11.984374.035156 23.078124 6.320313 29.269531 16.582031l.757812 1.253906c4.660157 7.765626 4.15625 17.578126-1.269531 24.832032h-51.839844c-16.847656-.019532-33.320312 4.972656-47.328125 14.335937l-6.253906 4.164063c-2.597656 1.664062-4.089844 4.601562-3.910156 7.679687.179687 3.078125 2.007812 5.820313 4.777343 7.171875 2.773438 1.351563 6.058594 1.101563 8.597657-.652344l6.253906-4.164062c11.203125-7.492188 24.382813-11.484375 37.863281-11.46875h75.851563c4.585937 0 9.140625-.738281 13.492187-2.1875l157.960938-52.65625c6.082031-2.03125 12.777344.074219 16.605468 5.222656 2.535157 3.339844 3.515626 7.609375 2.695313 11.722656zm0 0"/></svg>