<svg width="50" height="50" viewBox="0 0 50 50" fill="none" xmlns="http://www.w3.org/2000/svg">
<g clip-path="url(#clip0_246_2)">
<path d="M40.0111 28.094C39.8875 27.956 31.9121 17.7106 31.9121 17.7106L24.7078 10.7212L23.7712 29.869L24.7078 44.1633C25.4999 44.7232 26.4265 45.0017 27.3521 45.0017C28.5815 45.0017 29.8079 44.5117 30.7101 43.5432C31.5403 42.6526 31.9495 41.5138 31.9403 40.3781C33.1807 40.3867 34.4228 39.8975 35.3333 38.92C36.1693 38.0229 36.5796 36.8793 36.5665 35.7405C36.629 35.7412 36.6919 35.7398 36.7543 35.7378C37.979 35.6945 39.1133 35.1768 39.9486 34.2804C40.7345 33.4372 41.1715 32.3382 41.1798 31.1863C41.1877 30.042 40.7726 28.9438 40.0111 28.094Z" fill="#FF3D00"/>
<path d="M20.6117 6.74775C19.805 5.96513 18.5195 5.97488 17.7247 6.76964L3.67597 20.8184C2.86552 21.6288 2.87372 22.9453 3.6942 23.7456L24.2266 43.773C24.3801 43.9161 24.5411 44.0456 24.708 44.1637V10.7216L20.6117 6.74775Z" fill="#FD9158"/>
<path d="M26.4516 40.4795C26.4516 39.0324 25.768 37.7428 24.7078 36.9141L23.7712 40.1725L24.7078 44.0449C25.768 43.2161 26.4516 41.9266 26.4516 40.4795Z" fill="#333333"/>
<path d="M21.9268 35.9543C21.9227 35.9543 21.9182 35.9546 21.9137 35.9546C21.9137 35.9502 21.9141 35.946 21.9141 35.9416C21.9141 33.4463 19.8844 31.4166 17.3891 31.4166C17.3867 31.4166 17.3839 31.4169 17.3809 31.4169C17.3809 31.4114 17.3815 31.4066 17.3815 31.4015C17.3815 28.9062 15.3515 26.8765 12.8565 26.8765C10.3616 26.8765 8.33154 28.9062 8.33154 31.4015C8.33154 33.8964 10.3616 35.9265 12.8565 35.9265C12.8593 35.9265 12.862 35.9261 12.8648 35.9261C12.8648 35.9313 12.8644 35.9364 12.8644 35.9416C12.8644 38.4365 14.8942 40.4666 17.3894 40.4666C17.3936 40.4666 17.398 40.4662 17.4025 40.4662C17.4025 40.4703 17.4021 40.4748 17.4021 40.4789C17.4021 42.9742 19.4319 45.0039 21.9271 45.0039C22.975 45.0039 23.9404 44.6448 24.7081 44.0443V36.9135C23.94 36.3134 22.975 35.9543 21.9268 35.9543Z" fill="#333333"/>
<path d="M31.6989 6.77737C30.8955 5.97401 29.593 5.97401 28.7896 6.77737L24.7078 10.8592L23.7712 17.693L24.7078 23.8347L28.663 19.8795C29.4662 19.0763 30.7684 19.0761 31.5718 19.8791L40.5913 28.8933L45.7484 23.7362C46.5518 22.9328 46.5518 21.6303 45.7484 20.8269L31.6989 6.77737Z" fill="#333333"/>
<path d="M16.7934 18.7735C15.005 20.5622 15.005 23.4726 16.7937 25.2609C18.5824 27.0497 21.4928 27.0497 23.2812 25.2609L24.708 23.8344V10.8589L16.7934 18.7735Z" fill="#333333"/>
</g>
<defs>
<clipPath id="clip0_246_2">
<rect width="50" height="50" fill="white"/>
</clipPath>
</defs>
</svg>
