<svg id="Layer_1" enable-background="new 0 0 32 32" height="512" viewBox="0 0 32 32" width="512" xmlns="http://www.w3.org/2000/svg"><path d="m5.25 3v5.5h2.5c.5499878 0 1 .4500122 1 1s-.4500122 1-1 1h-2.5v4.5h2.5c.5499878 0 1 .4500122 1 1s-.4500122 1-1 1h-2.5v4.5h2.5c.5499878 0 1 .4500122 1 1s-.4500122 1-1 1h-2.5v5.5c0 .5499878.4500122 1 1 1h4v-28h-4c-.5499878 0-1 .4500122-1 1z"/><path d="m21.2199707 12.2299805v-.5200195c0-.5699463-.4699707-1.0299683-1.0299683-1.0299683h-2.7999878v2.5800171h2.7999878c.5599976 0 1.0299683-.460022 1.0299683-1.0300293z"/><path d="m21.3900146 15.2600098h-4v2.5799561h4c.5599976 0 1.0299683-.4599609 1.0299683-1.0299683v-.5200196c0-.5700073-.4699707-1.0299682-1.0299683-1.0299682z"/><path d="m24.25 2h-12v28h12c2.210022 0 4-1.7900391 4-4v-20c0-2.210022-1.789978-4-4-4zm-.8300171 22.7399902h-8.3399658c-.5499878 0-1-.4500122-1-1s.4500122-1 1-1h8.3399658c.5499878 0 1 .4500122 1 1s-.4500122 1-1 1zm1-7.9299926c0 1.6699829-1.3599854 3.0299683-3.0299683 3.0299683h-1.6900024v.4200439c0 .5499878-.4500122 1-1 1s-1-.4500122-1-1v-.4200439h-2.6199951c-.5499878 0-1-.4499512-1-1 0-.5499878.4500122-1 1-1h.3099976v-7.1599731h-.3099976c-.5499878 0-1-.4500122-1-1s.4500122-1 1-1h2.6199951v-.419983c0-.5500488.4500122-1 1-1s1 .4499512 1 1v.4199829h.4899902c1.6699829 0 3.0299683 1.3599854 3.0299683 3.0299683v.5200195c0 .5200195-.1499634 1-.3699951 1.4199829.9300537.5200195 1.5700073 1.5 1.5700073 2.6400146z"/><path d="m4.75 15c-.5499878 0-1 .4500122-1 1s.4500122 1 1 1h.5v-2z"/><path d="m4.75 8.5c-.5499878 0-1 .4500122-1 1s.4500122 1 1 1h.5v-2z"/><path d="m4.75 21.5c-.5499878 0-1 .4500122-1 1s.4500122 1 1 1h.5v-2z"/></svg>