<svg clip-rule="evenodd" fill-rule="evenodd" height="512" image-rendering="optimizeQuality" shape-rendering="geometricPrecision" text-rendering="geometricPrecision" viewBox="0 0 18062 18062" width="512" xmlns="http://www.w3.org/2000/svg"><g id="Layer_x0020_1"><path d="m14579 16283h-11891c-170 0-307-137-307-306v-15670c0-170 137-307 307-307h11891c169 0 306 137 306 307v2358c-101-10-203-15-306-15-1758 0-3187 1429-3187 3186s1429 3186 3187 3186c103 0 205-5 306-14v6969c0 169-137 306-306 306zm-1601-1497c85 0 154-69 154-154s-69-154-154-154h-8689c-86 0-155 69-155 154s69 154 155 154zm0-1377c85 0 154-69 154-155 0-85-69-154-154-154h-8689c-86 0-155 69-155 154 0 86 69 155 155 155zm0-1378c85 0 154-69 154-154s-69-154-154-154h-8689c-86 0-155 69-155 154s69 154 155 154zm-6264-4515c42 0 81-16 110-45l2104-2104c60-60 60-158 0-218-61-60-158-60-218 0l-1995 1995-733-733c-60-60-158-60-218 0-61 61-61 158 0 219l841 841c30 29 68 45 109 45zm632 3191c41 0 80-16 109-45l2974-2974c29-29 45-69 45-109v-3317c0-62-37-118-95-142l-2974-1241c-38-16-81-16-119 0l-2974 1241c-57 24-95 80-95 142v3317c0 40 17 80 46 109l2974 2974c29 29 68 45 109 45zm-2820-3192v-3150l2820-1177 2819 1177v3150l-2819 2819zm6976-5709c85 0 154-69 154-155 0-85-69-154-154-154h-5738c-85 0-154 69-154 154 0 86 69 155 154 155z"/><path d="m14579 8718c-1589 0-2882-1293-2882-2882s1293-2881 2882-2881c1588 0 2881 1292 2881 2881s-1293 2882-2881 2882zm636-3036h-1120v-966h1121c85 0 154-69 154-154 0-86-69-155-154-155h-483v-242c0-85-69-154-154-154-86 0-155 69-155 154v242h-483c-85 0-154 69-154 154v1275c0 86 69 155 154 155h1121v966h-483-1-637c-85 0-154 69-154 154s69 154 154 154h483v242c0 85 69 154 155 154 85 0 154-69 154-154v-242h483c85 0 154-69 154-154v-1275c0-85-69-154-154-154z"/><path d="m12800 18062h-11891c-169 0-307-137-307-307v-15669c0-170 138-307 307-307h1167v14198c0 337 274 611 612 611h10418v1167c0 170-137 307-306 307z"/></g></svg>