<svg clip-rule="evenodd" fill-rule="evenodd" height="512" image-rendering="optimizeQuality" shape-rendering="geometricPrecision" text-rendering="geometricPrecision" viewBox="0 0 1707 1707" width="512" xmlns="http://www.w3.org/2000/svg"><g id="Layer_x0020_1" fill="#000002"><path d="m845 498c-36-77-122-124-224-124-101 0-189 48-232 125v110c0 125 103 227 228 227 126 0 228-102 228-227zm-501-3c-15-94 4-151 19-179-65-59-53-165-52-170 1-9 7-16 16-19s18 0 24 7c6 6 12 9 21 9 20 0 48-13 78-26 39-18 83-38 127-38 51 0 92 27 124 80 10-2 22-3 37-3 46 0 84 17 112 49 47 55 61 152 41 290v114c0 151-123 273-274 273s-273-122-273-273z"/><path d="m827 993c-8 0-16-4-20-11l-84-145c-6-11-3-25 8-32 11-6 25-2 32 9l83 145c7 11 3 25-8 31-4 2-7 3-11 3z"/><path d="m421 993c-4 0-8-1-12-3-11-6-15-20-8-31l80-140c7-11 21-15 32-8 11 6 15 20 8 31l-81 140c-4 7-12 11-19 11z"/><path d="m431 1188c-4 0-9-1-12-4-7-4-11-10-11-18l-10-194c-1-9 3-17 11-21 7-5 16-5 23 0l180 103v63l-173 69c-2 1-5 2-8 2zm206-135 182-105c7-4 16-4 23 1 7 4 11 12 11 20l-11 199c0 7-4 14-10 18-4 2-8 3-12 3-3 0-6 0-9-1l-174-70z"/><path d="m1224 1627h-1201c-13 0-23-10-23-23v-317c0-187 152-340 340-340h37c-4 8-6 17-6 26l10 195c1 16 10 30 23 39 8 5 17 8 27 8 6 0 13-2 18-4l175-70 177 71c6 3 12 4 19 4 9 0 18-3 26-8 14-9 22-23 23-39l11-198c0-8-2-16-5-24h32c188 0 340 153 340 340v317c0 13-10 23-23 23z"/><path d="m1415 1009h-103c-12 0-21-8-23-20l-18-110c-23-9-45-21-64-37l-104 40c-11 4-23 0-28-10l-52-90c-6-9-3-22 5-29l87-70c-2-13-3-25-3-37 0-13 1-25 3-38l-87-70c-8-7-11-20-5-29l52-90c5-10 17-14 28-10l104 40c19-16 41-28 64-37l18-110c2-11 11-20 23-20h103c11 0 21 9 23 20l17 110c24 9 45 21 65 37l104-40c10-4 22 0 28 10l52 90c5 9 3 22-6 29l-86 70c2 13 2 25 2 38 0 12 0 24-2 37l86 70c9 7 11 20 6 29l-52 90c-6 10-18 14-28 10l-104-40c-20 16-41 28-65 37l-17 110c-2 12-12 20-23 20zm-52-224c77 0 140-62 140-139 0-78-63-140-140-140s-140 62-140 140c0 77 63 139 140 139zm0-253c63 0 114 51 114 114 0 62-51 114-114 114s-114-52-114-114c0-63 51-114 114-114z"/></g></svg>