<svg clip-rule="evenodd" fill-rule="evenodd" height="512" image-rendering="optimizeQuality" shape-rendering="geometricPrecision" text-rendering="geometricPrecision" viewBox="0 0 1707 1707" width="512" xmlns="http://www.w3.org/2000/svg"><g id="Layer_x0020_1"><g id="_308352096"><path d="m1077 1167c-2 0-4-1-6-1-11-3-18-12-18-23v-210h-123c-39 0-70-30-70-66v-370c0-37 31-67 70-67h680c39 0 70 30 70 67v370c0 36-31 66-70 66h-386l-127 222c-4 7-12 12-20 12z"/><path d="m727 1327c-4 0-7-1-11-3l-166-81c-54 27-110 41-167 41-196-1-356-159-356-354 0-197 160-357 356-357 197 0 357 160 357 357 0 60-17 121-48 176l57 191c3 9 0 18-7 24-5 4-10 6-15 6z"/><path d="m297 267v-130c0-77 60-137 136-137h814c76 0 136 60 136 137v130zm616-110h-166c-13 0-24-11-24-24s11-23 24-23h166c13 0 24 10 24 23s-11 24-24 24z"/><path d="m297 1393v-72c28 6 57 9 86 9 58 0 114-12 167-35l146 71c9 5 20 7 31 7 16 0 32-5 44-15 22-18 31-48 23-75l-52-172c29-56 45-118 45-181 0-222-181-403-404-403-29 0-58 3-86 9v-223h1086v70h-453c-63 0-117 50-117 114v370c0 63 54 113 117 113h77v163c0 33 22 62 54 69 9 1 6 1 16 1 25 0 48-13 61-35l113-198h132v413z"/><path d="m1247 1707h-814c-76 0-136-60-136-137v-130h1086v130c0 77-60 137-136 137zm-314-110h-166c-13 0-24-11-24-24s11-23 24-23h166c13 0 24 10 24 23s-11 24-24 24z"/></g></g></svg>