<svg id="Layer_1" height="512" viewBox="0 0 512 512" width="512" xmlns="http://www.w3.org/2000/svg" data-name="Layer 1"><path d="m490.309 320.422c-1.065 16.942-12.957 31.758-27.535 40l-142.649 80.309a169.624 169.624 0 0 1 -134.707 13.8c-15.343-4.921-70.709-22.467-85.277-27.09v-112.441l21.6-6.68.668-.223a310.592 310.592 0 0 1 30.727-7.793c38.636-9.394 93.5-6.983 133.371-7.2 15.437 0 28.351 14.249 28.871 29.687 6.422-1.221 102.422-20.372 111.922-22.26l31.84-5.715a26.927 26.927 0 0 1 16.847 2.3 25.993 25.993 0 0 1 14.322 23.306z" fill="#f6ccaf"/><path d="m100.141 293.109v155.86a14.843 14.843 0 0 1 -14.841 14.843h-66.8v-185.546h66.8a14.843 14.843 0 0 1 14.841 14.843z" fill="#6fabe6"/><path d="m122.406 308.1v126.4l-22.265-7.051v-112.449l21.6-6.68z" fill="#f3ba93"/><path d="m330.442 319.828c.062 13.047-7.345 37.345-35.7 37.407h-83.05c-9.788-.265-9.842-14.56 0-14.843h83.05c16.625 0 20.039-13.508 20.633-19.594z" fill="#edb996"/><path d="m107.562 48.188h385.938v200.391h-385.938z" fill="#9dcc6b"/><g fill="#84b749"><path d="m233.734 204.047h-52.272a7.42 7.42 0 0 1 -7.023-5.027 27.956 27.956 0 0 0 -17.322-17.32 7.426 7.426 0 0 1 -5.023-7.023v-52.586a7.424 7.424 0 0 1 5.023-7.023 27.96 27.96 0 0 0 17.322-17.323 7.421 7.421 0 0 1 7.023-5.026h52.272a7.422 7.422 0 0 1 0 14.844h-47.334a43.051 43.051 0 0 1 -19.461 19.464v42.712a43.046 43.046 0 0 1 19.461 19.461h47.336a7.422 7.422 0 0 1 0 14.844z"/><path d="m421.593 204.047h-54.265a7.422 7.422 0 1 1 0-14.844h49.172a41.586 41.586 0 0 1 17.627-19.265v-43.111a41.584 41.584 0 0 1 -17.627-19.264h-49.17a7.422 7.422 0 1 1 0-14.844h54.265a7.423 7.423 0 0 1 7.089 5.226c2.5 8.07 8.284 14.5 15.474 17.2a7.419 7.419 0 0 1 4.813 6.947v52.584a7.42 7.42 0 0 1 -4.813 6.947c-7.19 2.7-12.974 9.129-15.474 17.2a7.423 7.423 0 0 1 -7.091 5.224z"/><path d="m389.594 155.805a7.658 7.658 0 0 1 -5.269-2.153 7.546 7.546 0 0 1 -1.559-8.092 6.9 6.9 0 0 1 1.559-2.446 11.249 11.249 0 0 1 1.108-.892 5.657 5.657 0 0 1 1.341-.67 4.678 4.678 0 0 1 1.334-.442 6.626 6.626 0 0 1 2.972 0 4.744 4.744 0 0 1 1.333.442 5.6 5.6 0 0 1 1.334.67 11.434 11.434 0 0 1 1.116.892 7.422 7.422 0 0 1 -5.269 12.691z"/><path d="m211.469 155.805a6.89 6.89 0 0 1 -2.82-.595 5.657 5.657 0 0 1 -1.341-.67q-.553-.441-1.108-.888a7.641 7.641 0 0 1 0-10.538l1.108-.892a5.657 5.657 0 0 1 1.341-.67 4.452 4.452 0 0 1 1.406-.442 7.418 7.418 0 0 1 6.683 12.542 7.822 7.822 0 0 1 -5.269 2.153z"/></g><path d="m337.641 148.383c0 26.643-16.615 48.242-37.11 48.242-49.146-2.269-49.127-94.228 0-96.484 20.495 0 37.11 21.598 37.11 48.242z" fill="#edebf2"/><path d="m337.641 148.383c.513 43.121-43.166 67.161-66.426 29.613a29.861 29.861 0 0 0 14.472 3.785c33.066-.338 47.075-49.86 29.317-77.855 13.285 7.347 22.637 24.492 22.637 44.457z" fill="#dcd8e6"/><path d="m48.187 441.547a7.81 7.81 0 0 1 -5.269-2.153 7.254 7.254 0 0 1 -.891-1.188 4.029 4.029 0 0 1 -.667-1.262 4.8 4.8 0 0 1 -.449-1.337 7.678 7.678 0 0 1 2.007-6.751 7.769 7.769 0 0 1 10.539 0 7.607 7.607 0 0 1 0 10.538 7.826 7.826 0 0 1 -5.27 2.153z" fill="#edebf2"/></svg>