<svg id="Layer_1" enable-background="new 0 0 66 66" height="512" viewBox="0 0 66 66" width="512" xmlns="http://www.w3.org/2000/svg"><g><g><g><g><path d="m59.42 27.23.04.14c-.01-.02-.02-.05-.02-.07-.01-.02-.02-.05-.02-.07z" fill="#f4ba43"/></g></g><g><g><path d="m47.31 5.37 15.92 9.65c1.59.97 2.1 3.04 1.14 4.63l-18.77 30.97c-.97 1.59-3.04 2.1-4.63 1.14l-15.92-9.65c-1.59-.97-2.1-3.04-1.14-4.63l18.77-30.97c.97-1.59 3.04-2.1 4.63-1.14z" fill="#4ec4a5"/><path d="m44.37 47.16c-1.34-.81-3.09-.39-3.91.96l-11.95-7.24c.81-1.34.39-3.09-.96-3.91l16.36-27c1.34.81 3.09.39 3.91-.96l11.95 7.24c-.81 1.34-.38 3.1.96 3.91z" fill="#30aa87"/></g><g><g><g><g><circle cx="44.14" cy="28.57" fill="#fcd131" r="7.2"/></g></g><g><circle cx="44.14" cy="28.57" fill="#ee6a51" r="5.5"/></g><g><g><circle cx="37.57" cy="39.42" fill="#fcd131" r="2.76"/></g><g><circle cx="50.72" cy="17.71" fill="#fcd131" r="2.76"/></g></g><g><g><path d="m46.96 28.04c.12.26.17.54.14.86s-.13.64-.31.98l.5.3c.06.04.1.09.11.15.02.06 0 .13-.04.19s-.09.1-.15.12-.12.01-.19-.03l-.5-.3c-.34.49-.73.89-1.19 1.22-.06.04-.12.07-.2.07-.08.01-.14-.01-.21-.05-.08-.05-.13-.12-.16-.21s-.01-.18.04-.26c.03-.05.07-.09.11-.12.4-.28.73-.62 1-1.02l-1.61-.98c-.28.27-.53.48-.76.64s-.48.26-.75.29c-.27.04-.54-.03-.82-.2-.24-.15-.43-.34-.57-.59-.13-.24-.2-.52-.19-.84s.1-.65.27-1l-.49-.3c-.06-.04-.1-.09-.12-.15-.02-.07-.01-.13.03-.19s.09-.1.16-.12.13-.01.19.03l.48.29c.3-.45.62-.81.97-1.08.13-.1.26-.11.4-.03.07.05.13.11.16.2s.02.17-.03.26c-.02.03-.05.06-.1.09-.31.25-.58.55-.81.91l1.67 1.01c.28-.29.54-.52.77-.68.23-.17.48-.27.76-.3.27-.04.56.04.87.22.26.16.45.37.57.62zm-4.02 1.04c.21-.09.44-.26.71-.52l-1.54-.94c-.13.3-.18.58-.15.83s.15.44.37.57c.2.13.4.15.61.06zm3.04-1.04c-.18-.11-.37-.11-.57-.01-.2.11-.45.29-.73.57l1.51.91c.34-.68.28-1.18-.21-1.47z" fill="#fcd131"/></g></g></g></g></g></g><g><path d="m12.22 40.77.7-.19 8.83-13.5c.95-1.45 2.38-2.5 4.04-2.98l7.71-2.21-6.48 10.4 1.74 3.66 3.28.07 7.65-6.24c1.38-1.13 3.37-1.09 4.71.09 1.41 1.25 1.64 3.37.53 4.89l-9.23 12.6s-2.96 5.63-10.42 6.3l-8.48 1.79z" fill="#ffbfad"/><path d="m16.49 58.8-8.45 2.28c-.65.17-1.32-.2-1.52-.84l-5.32-17.06c-.21-.68.18-1.4.87-1.58l8.45-2.27c.65-.17 1.32.2 1.52.84l5.32 17.05c.21.67-.19 1.39-.87 1.58z" fill="#44394a"/><path d="m14.54 55.28c0 .82-.67 1.48-1.47 1.48-.82 0-1.48-.67-1.48-1.48 0-.8.67-1.47 1.48-1.47.8 0 1.47.66 1.47 1.47z" fill="#332b37"/></g><path d="m35.7 47.36 9.23-12.59c1.11-1.52.88-3.64-.53-4.89-1.34-1.18-3.33-1.22-4.71-.09l-7.65 6.24-3.28-.07-1.74-3.66-4.23 1.22-2.13 5.15 2.66 6.87 2.13 4.65 5.18.45 2.95-.64z" fill="#ffbfad"/><path d="m32.04 48.16-.01.02h-.01c.01-.01.02-.01.02-.02z" fill="#e5d3b3"/></g></svg>