<svg id="Layer_1" enable-background="new 0 0 74 74" height="512" viewBox="0 0 74 74" width="512" xmlns="http://www.w3.org/2000/svg"><g><g><path d="m59.77 69h-52.66c-1.25 0-2.23-1.08-2.1-2.33l1.72-16.55c.39-3.88 3.16-7.11 6.94-8.08l19.76-5.16 19.76 5.16c3.78.97 6.56 4.21 6.94 8.08l1.72 16.55c.14 1.25-.83 2.33-2.08 2.33z" fill="#383838"/><path d="m42.12 39.91-8.68 29.09-8.69-29.09 8.69 2.97z" fill="#dddbdb"/><path d="m32.1 47.27h2.67l1.05 16.03-2.38 4.92-2.38-4.92z" fill="#f33"/><path d="m36.58 42.39c-.93 1.63-1.7 3.25-1.81 4.89-.89.62-1.78.62-2.67 0-.11-1.63-.89-3.25-1.81-4.89 2.26.9 4.35.9 6.29 0z" fill="#ed2424"/><path d="m39.35 40.66-1.63 2.48-4.28-.26-4.28.26-1.64-2.48.26-3.78v-7.95h11.31v7.95z" fill="#efa167"/><path d="m22.84 39.64-1.24 8.27 3.85 1.44-3.01 1.57 9.86 18.08h1.14v-4.97l-8.03-25.06z" fill="#4d4d4d"/><path d="m27.77 36.88-2.37 2.1 2.53 7.88 5.5-3.97c-2.87-1.78-5.15-3.69-5.66-6.01z" fill="#f2f2f2"/><path d="m44.04 39.64 1.24 8.27-3.85 1.44 3.01 1.57-9.87 18.08h-1.13v-4.97l8.03-25.06z" fill="#4d4d4d"/><path d="m39.1 36.88 2.37 2.1-2.53 7.88-5.5-3.97c2.87-1.78 5.15-3.69 5.66-6.01z" fill="#f2f2f2"/><g><path d="m44.41 24.64s.75-6.71 2.17-12.86c.56-3.73-3.73-3.48-3.73-3.48s-1.62-5.28-13.05-2.48-7.96 7.79-7.4 17.05l3.42 2.52z" fill="#4d4d4d"/><g fill="#efa167"><ellipse cx="43" cy="25.46" rx="3.3" ry="2.46" transform="matrix(.247 -.969 .969 .247 7.723 60.848)"/><ellipse cx="23.86" cy="25.46" rx="2.46" ry="3.3" transform="matrix(.969 -.247 .247 .969 -5.542 6.671)"/></g><path d="m43.28 23.63c-.16 1.29-1.06 5.07-1.06 5.07-.33 2.73-1.61 5.25-3.58 7.14l-1.7 1.65c-.72.66-1.65 1.03-2.61 1.03h-1.76c-.97 0-1.9-.37-2.59-1.03l-1.7-1.65c-1.97-1.9-3.25-4.41-3.6-7.12 0 0-.96-3.8-1.08-5.09-.3-3.04.66-6.14 2.19-8.44l11.94-3.46 3.95 3.08c1.81 3.23 1.87 6.59 1.6 8.82z" fill="#ffb476"/><g><g><path d="m35.89 33.3c-1.32 1.59-3.82 1.52-5.27-.07 1.55 1.36 3.84 1.42 5.27.07z" fill="#eda269"/><path d="m37.01 31.2c-1.12 3.63-6.21 3.5-7.63 0 2.54.94 5.08.94 7.63 0z" fill="#ed2424"/><path d="m36.31 32.52c-1.4 1.74-4.13 1.79-5.84.28.74-.37 1.94-.6 3.28-.6.97-.01 1.86.12 2.56.32z" fill="#f33"/><path d="m35.89 31.55v.5c0 .15-.1.29-.24.34-1.56.52-3.2.52-4.91 0-.15-.05-.25-.19-.25-.35v-.49c1.8.47 3.6.47 5.4 0z" fill="#f2f2f2"/><path d="m37.01 31.2c-2.53 1.35-5.06 1.31-7.63 0 2.54.94 5.08.94 7.63 0z" fill="#eda269"/></g><g fill="#efa167"><path d="m30.91 29.95c.33-.24.76-.37 1.2-.31.22.02.43.11.61.23.15.11.31.15.48.15s.33-.04.48-.15c.19-.12.4-.21.61-.23.43-.06.87.07 1.2.31-.38-.13-.79-.16-1.15-.06-.18.05-.35.12-.5.23-.17.13-.41.23-.65.23-.23 0-.48-.1-.65-.23-.15-.11-.32-.18-.5-.23-.34-.1-.75-.08-1.13.06z"/><path d="m35.53 29.55c.07-.41-.17-.77-.41-1.09s-.48-.66-.63-1.04c-.27-.77-.32-1.65.01-2.4-.19.78-.17 1.61.14 2.35.13.38.35.71.58 1.05.22.3.44.72.31 1.13z"/><path d="m30.97 29.55c-.13-.41.09-.83.32-1.14.23-.34.45-.67.58-1.05.31-.73.33-1.56.14-2.35.32.75.28 1.63.01 2.4-.15.39-.4.72-.63 1.04-.25.32-.48.68-.42 1.1z"/></g><path d="m35.13 35.37c-.63.21-1.31.05-1.94.08-.63-.02-1.31.13-1.94-.08.65.08 1.28-.04 1.94-.08.66.03 1.3.15 1.94.08z" fill="#efa167"/><g><g><path d="m40.22 23.96c-1.62.6-3.01.87-4.72.09 1.36-1.33 2.94-1.36 4.72-.09z" fill="#4d4d4d"/><path d="m39.96 23.96c-1.44.6-2.68.87-4.2.09 1.21-1.33 2.62-1.36 4.2-.09z" fill="#f2f2f2"/><path d="m38.79 23.75c0 .29-.12.53-.3.69-.41.09-.79.11-1.23.06-.25-.16-.38-.45-.38-.75 0-.23.08-.45.2-.61.48-.18.99-.16 1.52.04.14.14.19.35.19.57z" fill="#4d4d4d"/><circle cx="37.83" cy="23.74" fill="#3a3a3a" r=".44"/><path d="m37.66 23.52c0 .11-.09.2-.2.2s-.18-.09-.18-.2c0-.09.07-.18.18-.18s.2.09.2.18z" fill="#fff"/></g><path d="m41.09 23.3c-1.36-1.29-3.39-1.35-5.62-1.02-.34 0-.34-.76 0-.76 2.56-.55 4.72-.43 5.62 1.78z" fill="#4d4d4d"/><g><path d="m26.16 23.96c1.62.6 3.01.87 4.72.09-1.37-1.33-2.94-1.36-4.72-.09z" fill="#4d4d4d"/><path d="m26.42 23.96c1.44.6 2.68.87 4.2.09-1.22-1.33-2.62-1.36-4.2-.09z" fill="#f2f2f2"/><path d="m27.59 23.75c0 .29.12.53.3.69.41.09.79.11 1.23.06.25-.16.38-.45.38-.75 0-.23-.08-.45-.2-.61-.48-.18-.99-.16-1.52.04-.14.14-.19.35-.19.57z" fill="#4d4d4d"/><circle cx="28.55" cy="23.74" fill="#3a3a3a" r=".44"/><path d="m28.72 23.52c0 .11.09.2.2.2s.18-.09.18-.2c0-.09-.07-.18-.18-.18s-.2.09-.2.18z" fill="#fff"/></g><path d="m25.29 23.3c1.36-1.29 3.39-1.35 5.62-1.02.34 0 .34-.76 0-.76-2.57-.55-4.72-.43-5.62 1.78z" fill="#4d4d4d"/></g></g><path d="m27.85 12.01c-3.38 4.46-8.93 5.36-8.93 5.36 7.33 3.25 15.05-2.74 15.05-2.74-2.99 3.06-6 3.57-6 3.57 11.99 2.1 15.3-5.61 15.3-5.61l-1.53-2.85" fill="#4d4d4d"/></g></g><g><path d="m69 46.47c0 7.42-6.01 13.44-13.44 13.44s-13.44-6.02-13.44-13.44c0-7.43 6.01-13.45 13.44-13.45s13.44 6.03 13.44 13.45z" fill="#69f"/></g><g fill="#fff"><path d="m63.3 46.47c0 .84-.68 1.51-1.51 1.51h-12.45c-.84 0-1.51-.68-1.51-1.51 0-.84.68-1.51 1.51-1.51h12.44c.84-.01 1.52.67 1.52 1.51z"/><path d="m55.56 54.2c-.84 0-1.51-.68-1.51-1.51v-12.44c0-.84.68-1.51 1.51-1.51.84 0 1.51.68 1.51 1.51v12.44c.01.83-.67 1.51-1.51 1.51z"/></g></g></svg>