<svg id="SvgjsSvg1014" width="288" height="288" xmlns="http://www.w3.org/2000/svg" version="1.1" xmlns:xlink="http://www.w3.org/1999/xlink" xmlns:svgjs="http://svgjs.com/svgjs"><defs id="SvgjsDefs1015"></defs><g id="SvgjsG1016"><svg xmlns="http://www.w3.org/2000/svg" viewBox="0 -48 512 512" width="288" height="288"><g><path fill="#171719" d="m254.933594 207.800781c0 44.882813 36.515625 81.394531 81.402344 81.394531h175.664062v-162.796874h-175.664062c-44.886719 0-81.402344 36.515624-81.402344 81.402343zm128.535156 0c0 25.988281-21.148438 47.132813-47.132812 47.132813-25.992188 0-47.136719-21.144532-47.136719-47.132813 0-25.992187 21.144531-47.136719 47.136719-47.136719 25.984374 0 47.132812 21.144532 47.132812 47.136719zm0 0" class="svgShape color565854-1 selectable"></path><path fill="#171719" d="M319.199219 207.800781c0 9.445313 7.6875 17.132813 17.136719 17.132813 9.445312 0 17.132812-7.6875 17.132812-17.132813 0-9.449219-7.6875-17.136719-17.132812-17.136719-9.449219 0-17.136719 7.6875-17.136719 17.136719zm0 0M447.730469 390.433594c0 9.0625-2.210938 17.613281-6.097657 25.164062h15.199219c30.417969 0 55.167969-24.746094 55.167969-55.164062v-41.234375h-64.269531zm0 0" class="svgShape color565854-2 selectable"></path><path fill="#171719" d="M224.933594 207.800781c0-61.429687 49.976562-111.402343 111.402344-111.402343h81.394531v-71.234376c0-13.875-11.289063-25.164062-25.164063-25.164062h-337.402344c-30.417968 0-55.164062 24.746094-55.164062 55.164062v305.269532c0 30.417968 24.746094 55.164062 55.164062 55.164062h337.402344c13.875 0 25.164063-11.289062 25.164063-25.164062v-71.234375h-81.394531c-61.429688-.003907-111.402344-49.972657-111.402344-111.398438zm0 0M456.835938 0h-15.203126c3.890626 7.550781 6.101563 16.101562 6.101563 25.164062v71.234376h64.265625v-41.230469c0-30.421875-24.746094-55.167969-55.164062-55.167969zm0 0" class="svgShape color565854-3 selectable"></path></g></svg></g></svg>