<?xml version="1.0" encoding="iso-8859-1"?>
<!-- Generator: Adobe Illustrator 19.0.0, SVG Export Plug-In . SVG Version: 6.00 Build 0)  -->
<svg version="1.1" id="Capa_1" xmlns="http://www.w3.org/2000/svg" xmlns:xlink="http://www.w3.org/1999/xlink" x="0px" y="0px"
	 viewBox="0 0 512 512" style="enable-background:new 0 0 512 512;" xml:space="preserve">
<g>
	<g>
		<path d="M336,32h-34.752C294.656,13.376,276.864,0,256,0s-38.656,13.376-45.28,32H176c-8.832,0-16,7.168-16,16v32
			c0,8.832,7.168,16,16,16h160c8.832,0,16-7.168,16-16V48C352,39.168,344.832,32,336,32z"/>
	</g>
</g>
<g>
	<g>
		<path d="M416,64h-32v16c0,26.464-21.536,48-48,48H176c-26.464,0-48-21.536-48-48V64H96c-17.632,0-32,14.368-32,32v384
			c0,17.952,14.048,32,32,32h320c17.952,0,32-14.048,32-32V96C448,78.048,433.952,64,416,64z M272,161.632
			C303.296,168,328,192.704,334.368,224H272V161.632z M240,161.632V240c0,8.832,7.168,16,16,16h78.368
			c-7.424,36.48-39.712,64-78.368,64c-44.096,0-80-35.904-80-80C176,201.376,203.52,169.056,240,161.632z M272,448H144
			c-8.832,0-16-7.168-16-16c0-8.832,7.168-16,16-16h128c8.832,0,16,7.168,16,16C288,440.832,280.832,448,272,448z M368,384H144
			c-8.832,0-16-7.168-16-16c0-8.832,7.168-16,16-16h224c8.832,0,16,7.168,16,16C384,376.832,376.832,384,368,384z"/>
	</g>
</g>
<g>
</g>
<g>
</g>
<g>
</g>
<g>
</g>
<g>
</g>
<g>
</g>
<g>
</g>
<g>
</g>
<g>
</g>
<g>
</g>
<g>
</g>
<g>
</g>
<g>
</g>
<g>
</g>
<g>
</g>
</svg>
