<svg id="Layer_1" enable-background="new 0 0 512 512" viewBox="0 0 512 512" xmlns="http://www.w3.org/2000/svg"><circle cx="256" cy="256" r="256"/><g id="Layer_2_00000168075664814228369750000001197251928892718219_"><g id="Layer_2_copy_15"><g id="_44"><g id="background"><circle cx="256" cy="256" fill="#ff8848" r="251"/></g><path d="m507 256c0 138.6-112.4 251-251 251v-502c138.6 0 251 112.4 251 251z" fill="#ff4c4c"/><path d="m142.4 336c-44.2-46.5-42.3-120.1 4.2-164.3 21.6-20.5 50.3-32 80.1-32h58.1v-40l91.6 60-91.6 60v-40h-58.1c-42.1 0-76.3 34.1-76.3 76.2 0 21.3 8.9 41.7 24.6 56.1l4.7 4.3-34.4 22.7z"/><path d="m171.7 315.7c-33-30.4-35.1-81.8-4.8-114.8 15.4-16.7 37.1-26.2 59.8-26.2h63.1v35.8l25.7-16.8.3-.2 51.5-33.8-51.6-33.7-.3-.2-25.6-16.8v35.7h-63.1c-61.4 0-111.3 49.7-111.3 111.2 0 28.5 10.9 56 30.6 76.7z" fill="#fff5f5"/><path d="m135.7 352.3 91.6-60v40h58.1c42.1 0 76.2-34.1 76.3-76.2 0-21.3-8.9-41.7-24.6-56.1l-4.7-4.4 34.5-22.6 2.9 3c44.2 46.5 42.3 120.1-4.2 164.3-21.6 20.5-50.3 32-80.1 32h-58.1v40z"/><path d="m366 179.4-25.7 16.8c33 30.4 35.1 81.8 4.8 114.8-15.4 16.7-37.1 26.2-59.8 26.2h-63.1v-35.8l-25.7 16.8-.3.2-51.5 33.8 51.5 33.8.3.2 25.7 16.8v-35.8h63.1c61.4 0 111.3-49.7 111.3-111.2 0-28.4-10.9-55.9-30.6-76.6z" fill="#d8e6eb"/><path d="m237 54.9h38v402.2h-38z" transform="matrix(.707 -.707 .707 .707 -106.037 256.003)"/><path d="m242 59.9h28v392.2h-28z" fill="#fff5f5" transform="matrix(.707 -.707 .707 .707 -106.037 256.003)"/><path d="m253.9 55h14v392.2h-14z" fill="#d8e6eb" transform="matrix(.707 -.707 .707 .707 -101.104 258.041)"/></g></g></g></svg>