<svg id="Icons" height="512" viewBox="0 0 60 60" width="512" xmlns="http://www.w3.org/2000/svg"><path d="m42.99 19.34a4 4 0 0 0 -2.99-1.34h-1.13a15.016 15.016 0 0 0 -14.87-13h-.24a15.238 15.238 0 0 0 -14.56 13h-1.2a3.973 3.973 0 0 0 -2.96 1.31c.6-9.94 8.59-18.16 18.66-18.31a19.024 19.024 0 0 1 19.29 18.34z" fill="#ff5722"/><path d="m37.43 6.57a18.926 18.926 0 0 0 -13.73-5.57c-.364 0-.719.044-1.078.07a18.989 18.989 0 0 1 17.257 16.93h.121a4 4 0 0 1 2.99 1.34 18.9 18.9 0 0 0 -5.56-12.77z" fill="#d84315"/><path d="m38.87 18h-1.87a2.006 2.006 0 0 0 -2 2 4.333 4.333 0 0 0 -2-4c-8 1-8-1-14-3s-6 7-6 7a2.006 2.006 0 0 0 -2-2h-1.8a15.238 15.238 0 0 1 14.56-13h.24a15.016 15.016 0 0 1 14.87 13z" fill="#a0522d"/><path d="m9 30h-1a4 4 0 0 1 -4-4v-4a3.951 3.951 0 0 1 1.04-2.68v-.01a3.973 3.973 0 0 1 2.96-1.31z" fill="#ff9801"/><path d="m13 20v8a2.006 2.006 0 0 1 -2 2h-2l-1-12h3a2.006 2.006 0 0 1 2 2z" fill="#ff5722"/><path d="m44 22v4a3.863 3.863 0 0 1 -.14 1.02c-.28-.01-.57-.02-.86-.02a16.251 16.251 0 0 0 -3.79.45l.79-9.45a4 4 0 0 1 2.99 1.34v.01a3.984 3.984 0 0 1 1.01 2.65z" fill="#ef314c"/><path d="m44 22v4a3.863 3.863 0 0 1 -.14 1.02c-.28-.01-.57-.02-.86-.02a16.251 16.251 0 0 0 -3.79.45l.79-9.45a4 4 0 0 1 2.99 1.34v.01a3.984 3.984 0 0 1 1.01 2.65z" fill="#ff9801"/><path d="m42.99 19.35v-.01a4 4 0 0 0 -2.99-1.34l-.1 1.253c.03.031.067.055.095.087v.01a3.984 3.984 0 0 1 1.005 2.65v4a3.863 3.863 0 0 1 -.14 1.02c-.28-.01-.57-.02-.86-.02-.253 0-.5.011-.754.023l-.036.427a16.251 16.251 0 0 1 3.79-.45c.29 0 .58.01.86.02a3.863 3.863 0 0 0 .14-1.02v-4a3.984 3.984 0 0 0 -1.01-2.65z" fill="#f57c00"/><path d="m35.26 28.99a16.073 16.073 0 0 0 -7.57 9.35 3.966 3.966 0 0 1 -2.19.66h-3a3.979 3.979 0 0 1 -2.63-.99l-2.77-2.42-2.73-2.39a4.008 4.008 0 0 1 -1.37-3.02v-10.18s0-9 6-7 6 4 14 3a4.333 4.333 0 0 1 2 4v8a1.95 1.95 0 0 0 .26.99z" fill="#ffe0b2"/><path d="m27 43a16.006 16.006 0 0 0 .41 3.62 14.463 14.463 0 0 1 -3.41.38c-6 0-8-3-8-3a15.949 15.949 0 0 0 1.1-8.41l2.77 2.42a3.979 3.979 0 0 0 2.63.99h3a3.966 3.966 0 0 0 2.19-.66 15.921 15.921 0 0 0 -.69 4.66z" fill="#ffe0b2"/><path d="m43 59h-40.65a1.344 1.344 0 0 1 -1.35-1.35 12.013 12.013 0 0 1 8.21-11.39l6.79-2.26s2 3 8 3a14.463 14.463 0 0 0 3.41-.38 16 16 0 0 0 15.59 12.38z" fill="#02a9f4"/><path d="m43.86 27.02c-.28-.01-.57-.02-.86-.02a16.251 16.251 0 0 0 -3.79.45 15.9 15.9 0 0 0 -3.95 1.54 16 16 0 1 0 8.6-1.97zm6.58 19.37a1.889 1.889 0 0 1 0 2.69l-1.36 1.36a1.889 1.889 0 0 1 -2.69 0l-3.39-3.39-3.39 3.39a1.889 1.889 0 0 1 -2.69 0l-1.36-1.36a1.889 1.889 0 0 1 0-2.69l3.39-3.39-3.39-3.39a1.889 1.889 0 0 1 0-2.69l1.36-1.36a1.889 1.889 0 0 1 2.69 0l3.39 3.39 3.39-3.39a1.889 1.889 0 0 1 2.69 0l1.36 1.36a1.889 1.889 0 0 1 0 2.69l-3.39 3.39z" fill="#f5f5f5"/><path d="m43.86 27.02c-.28-.01-.57-.02-.86-.02-.522 0-1.036.032-1.544.081a15.989 15.989 0 0 1 .029 31.844c.5.047 1 .075 1.515.075a16 16 0 0 0 .86-31.98z" fill="#cfd8dc"/><path d="m40 18-.79 9.45a15.9 15.9 0 0 0 -3.95 1.54 1.95 1.95 0 0 1 -.26-.99v-8a2.006 2.006 0 0 1 2-2z" fill="#ff5722"/><path d="m50.44 46.39a1.889 1.889 0 0 1 0 2.69l-1.36 1.36a1.889 1.889 0 0 1 -2.69 0l-3.39-3.39-3.39 3.39a1.889 1.889 0 0 1 -2.69 0l-1.36-1.36a1.889 1.889 0 0 1 0-2.69l3.39-3.39-3.39-3.39a1.889 1.889 0 0 1 0-2.69l1.36-1.36a1.889 1.889 0 0 1 2.69 0l3.39 3.39 3.39-3.39a1.889 1.889 0 0 1 2.69 0l1.36 1.36a1.889 1.889 0 0 1 0 2.69l-3.39 3.39z" fill="#f44335"/><path d="m47.05 43 3.39-3.39a1.889 1.889 0 0 0 0-2.69l-1.36-1.36a1.889 1.889 0 0 0 -2.69 0l-.155.155 1.2 1.2a1.889 1.889 0 0 1 0 2.69l-3.385 3.395 3.39 3.39a1.889 1.889 0 0 1 0 2.69l-1.2 1.2.155.155a1.889 1.889 0 0 0 2.69 0l1.36-1.36a1.889 1.889 0 0 0 0-2.69z" fill="#c81e1e"/><path d="m21 24a1 1 0 0 0 -1-1h-2a1 1 0 0 0 0 2 1 1 0 0 0 2 0 1 1 0 0 0 1-1z"/><path d="m30 23h-2a1 1 0 0 0 0 2 1 1 0 0 0 2 0 1 1 0 0 0 0-2z"/><path d="m22 21a1 1 0 0 0 -1-1h-4a1 1 0 1 0 0 2h4a1 1 0 0 0 1-1z"/><path d="m27 22h4a1 1 0 1 0 0-2h-4a1 1 0 0 0 0 2z"/><path d="m26 31h-4a1 1 0 0 0 0 2h4a1 1 0 0 0 0-2z"/><path d="m25 34h-2a1 1 0 0 0 0 2h2a1 1 0 0 0 0-2z"/><path d="m23 29h2a1 1 0 0 0 0-2h-2a1 1 0 0 0 0 2z"/><path d="m44.991 26.127c0-.042.009-.085.009-.127v-4a4.945 4.945 0 0 0 -1.036-3.012 20 20 0 0 0 -20.278-18.988c-10.246.155-18.777 8.41-19.606 18.932a4.95 4.95 0 0 0 -1.08 3.068v4a5.006 5.006 0 0 0 5 5h3a2.966 2.966 0 0 0 1.043-.2 5.005 5.005 0 0 0 1.67 3.151l2.44 2.133a15.015 15.015 0 0 1 -.914 7.113l-6.346 2.115a13 13 0 0 0 -8.893 12.338 2.352 2.352 0 0 0 2.35 2.35h40.65a16.995 16.995 0 0 0 1.991-33.873zm-4.676.106.591-7.078a2.994 2.994 0 0 1 2.094 2.845v4a16.975 16.975 0 0 0 -2.685.233zm-4.315 1.293v-5.526-1.981-.019a1 1 0 0 1 1-1h1.913l-.642 7.683a16.772 16.772 0 0 0 -2.271.843zm-23.721-10.226a2.975 2.975 0 0 0 -1.279-.3h-.581a14.1 14.1 0 0 1 13.367-11h.214a14.044 14.044 0 0 1 13.682 11h-.682a2.959 2.959 0 0 0 -1.514.425 4.872 4.872 0 0 0 -2.039-2.32 1.01 1.01 0 0 0 -.571-.1c-5.352.67-6.855-.041-9.347-1.22a34.941 34.941 0 0 0 -4.213-1.736 4.721 4.721 0 0 0 -4.469.456 7.639 7.639 0 0 0 -2.568 4.795zm11.436-15.3h.279a18.012 18.012 0 0 1 17.806 15.348 4.962 4.962 0 0 0 -1.8-.348h-.29a16.01 16.01 0 0 0 -15.71-13h-.257a16.106 16.106 0 0 0 -15.363 13h-.38a4.942 4.942 0 0 0 -1.715.322 18.237 18.237 0 0 1 17.43-15.322zm-18.715 24v-4a2.993 2.993 0 0 1 2.094-2.845l.82 9.836a3 3 0 0 1 -2.914-2.991zm7 2a1 1 0 0 1 -1 1h-1.081l-.834-10h1.915a1 1 0 0 1 1 1zm2 2.18v-2.18-8c0-1.231.37-4.687 2.018-5.872a2.831 2.831 0 0 1 2.666-.181 33.494 33.494 0 0 1 3.991 1.653c2.569 1.215 4.441 2.1 10.083 1.439a3.593 3.593 0 0 1 1.242 2.961v8a3.065 3.065 0 0 0 .072.56 17.062 17.062 0 0 0 -7.2 9.1 2.965 2.965 0 0 1 -1.372.34h-3a2.989 2.989 0 0 1 -1.972-.743l-5.5-4.81a3.009 3.009 0 0 1 -1.028-2.267zm5.21 8.581a4.983 4.983 0 0 0 3.29 1.239h3a4.98 4.98 0 0 0 .792-.068 16.024 16.024 0 0 0 -.04 5.876 14.16 14.16 0 0 1 -2.252.192c-4.114 0-6.114-1.475-6.839-2.185a16.456 16.456 0 0 0 1.082-5.9zm-16.86 19.239a.342.342 0 0 1 -.35-.35 11.005 11.005 0 0 1 7.525-10.441l6.161-2.05c.987.99 3.478 2.841 8.314 2.841a16.082 16.082 0 0 0 2.69-.242 17.068 17.068 0 0 0 8.327 10.242zm40.65 0a15 15 0 1 1 15-15 15.017 15.017 0 0 1 -15 15z"/><path d="m52 38.266a2.868 2.868 0 0 0 -.853-2.055l-1.353-1.354a2.977 2.977 0 0 0 -4.115 0l-2.679 2.674-2.674-2.674a2.977 2.977 0 0 0 -4.115 0l-1.354 1.353a2.9 2.9 0 0 0 0 4.115l2.674 2.675-2.674 2.674a2.9 2.9 0 0 0 0 4.115l1.353 1.354a2.977 2.977 0 0 0 4.115 0l2.675-2.674 2.674 2.674a2.9 2.9 0 0 0 4.115 0l1.354-1.353a2.9 2.9 0 0 0 0-4.117l-2.674-2.673 2.674-2.674a2.875 2.875 0 0 0 .857-2.06zm-2.267.641-3.385 3.386a1 1 0 0 0 0 1.414l3.385 3.386h.005a.9.9 0 0 1 -.005 1.277l-1.363 1.368a.923.923 0 0 1 -1.277-.005l-3.386-3.385a1 1 0 0 0 -1.414 0l-3.393 3.39a.921.921 0 0 1 -1.277-.005l-1.361-1.363a.9.9 0 0 1 .005-1.277l3.385-3.386a1 1 0 0 0 0-1.414l-3.39-3.393a.9.9 0 0 1 .005-1.277l1.363-1.363a.92.92 0 0 1 1.277.005l3.386 3.385a1 1 0 0 0 1.414 0l3.391-3.39a.921.921 0 0 1 1.277.005l1.363 1.363a.9.9 0 0 1 -.005 1.277z"/></svg>