<svg id="Capa_1" enable-background="new 0 0 504.569 504.569" height="512" viewBox="0 0 504.569 504.569" width="512" xmlns="http://www.w3.org/2000/svg"><g><path d="m237.25 30h45v60h-45z" fill="#5f7cad"/><path d="m222.25 30h30v60h-30z" fill="#5e8abd"/><path d="m267.25 0-15 22.5 15 22.5h22.5c4.142 0 7.5-3.358 7.5-7.5v-30c0-4.142-3.358-7.5-7.5-7.5z" fill="#5e9fd1"/><path d="m237.25 0-15 22.5 15 22.5h30v-45z" fill="#64b7de"/><path d="m207.25 7.5v30c0 4.142 3.358 7.5 7.5 7.5h22.5v-45h-22.5c-4.142 0-7.5 3.358-7.5 7.5z" fill="#4cd0ed"/><path d="m102.301 82.791h45v61.521h-45z" fill="#5e8abd" transform="matrix(.707 -.707 .707 .707 -43.74 121.506)"/><path d="m129.567 86.497-21.213 21.213-21.214-21.213 21.213-21.213c5.858-5.858 15.355-5.858 21.213 0 5.859 5.858 5.859 15.355.001 21.213z" fill="#4c5a80"/><path d="m108.354 86.497c5.858 5.858 5.858 15.355 0 21.213l-10.607 10.607c-5.858 5.858-15.355 5.858-21.213 0s-5.858-15.355 0-21.213l10.606-10.607c5.858-5.858 15.356-5.858 21.214 0z" fill="#5c6b96"/><path d="m348.938 91.051h61.521v45h-61.521z" fill="#5e8abd" transform="matrix(.707 -.707 .707 .707 30.918 301.746)"/><path d="m427.966 97.104-21.213-21.213-21.213 21.213 21.213 21.213c5.858 5.858 15.355 5.858 21.213 0s5.858-15.355 0-21.213z" fill="#4c5a80"/><path d="m406.753 97.104c5.858-5.858 5.858-15.355 0-21.213l-10.607-10.607c-5.858-5.858-15.355-5.858-21.213 0s-5.858 15.355 0 21.213l10.607 10.607c5.857 5.858 15.355 5.858 21.213 0z" fill="#5c6b96"/><circle cx="252.25" cy="241" fill="#4cd0ed" r="166"/><circle cx="252.25" cy="241" fill="#fff" r="136"/><circle cx="219.494" cy="140.188" fill="#a9f8f7" r="7.5"/><circle cx="189.945" cy="155.244" fill="#a9f8f7" r="7.5"/><circle cx="166.494" cy="178.695" fill="#a9f8f7" r="7.5"/><circle cx="151.438" cy="208.244" fill="#a9f8f7" r="7.5"/><path d="m252.25 135 30 106-30 106c58.542 0 106-47.458 106-106s-47.458-106-106-106z" fill="#9ac470"/><path d="m328.25 241c0-58.542-34.026-106-76-106v106h-106c0 58.542 47.458 106 106 106 41.974 0 76-47.458 76-106z" fill="#b8d973"/><g fill="#9ac470"><path d="m214.822 489.431h-17.713v-14.931h15.848c4.143 0 7.5-3.358 7.5-7.5s-3.357-7.5-7.5-7.5h-15.847v-14.931h17.712c4.181 0 7.569-3.388 7.569-7.569 0-4.18-3.389-7.569-7.569-7.569h-25.281c-4.179 0-7.569 3.389-7.569 7.569v60c0 4.18 3.389 7.569 7.569 7.569h25.282c.359 0 .711-.025 1.056-.073 3.68-.514 6.514-3.674 6.514-7.496-.002-4.18-3.39-7.569-7.571-7.569z"/><path d="m456.457 489.431h-17.713v-14.931h15.848c4.143 0 7.5-3.358 7.5-7.5s-3.357-7.5-7.5-7.5h-15.848v-14.931h17.712c4.181 0 7.569-3.388 7.569-7.569 0-4.18-3.389-7.569-7.569-7.569h-25.281c-4.179 0-7.569 3.389-7.569 7.569v60c0 4.18 3.389 7.569 7.569 7.569h25.282c.359 0 .71-.025 1.056-.073 3.68-.514 6.514-3.674 6.514-7.496-.001-4.18-3.389-7.569-7.57-7.569z"/><path d="m169.905 429.993c-3.928-1.306-8.176.822-9.481 4.753l-13.884 41.791-14.577-41.996c-1.357-3.913-5.633-5.986-9.544-4.626-3.913 1.358-5.984 5.631-4.626 9.544l20.531 59.15c1.254 3.53 4.602 5.891 8.344 5.891h.061c3.767-.026 7.111-2.439 8.339-6.053l19.591-58.972c1.306-3.931-.823-8.177-4.754-9.482z"/><path d="m279.762 452.593c0-12.734-10.756-23.093-23.976-23.093h-15.964c-4.143 0-7.5 3.358-7.5 7.5v60c0 4.142 3.357 7.5 7.5 7.5s7.5-3.358 7.5-7.5v-17.119l19.294 22.057c1.483 1.695 3.561 2.562 5.648 2.562 1.752 0 3.513-.611 4.935-1.855 3.118-2.727 3.435-7.465.708-10.583l-15.188-17.363c9.85-2.872 17.043-11.693 17.043-22.106zm-23.976 8.094h-8.464v-16.187h8.464c4.865 0 8.976 3.706 8.976 8.093s-4.111 8.094-8.976 8.094z"/><path d="m315.254 429.5h-16.993c-4.143 0-7.5 3.358-7.5 7.5v60c0 1.994.794 3.906 2.207 5.313 1.405 1.401 3.309 2.187 5.293 2.187.547-.002 12.78-.049 17.621-.133 18.022-.315 31.103-16.03 31.103-37.367-.001-22.43-12.753-37.5-31.731-37.5zm.366 59.869c-2.251.039-6.259.071-9.859.093v-44.962h9.493c12.335 0 16.73 11.623 16.73 22.5 0 10.992-5.059 22.172-16.364 22.369z"/><path d="m78.043 429.5c-20.678 0-37.5 16.823-37.5 37.5s16.822 37.5 37.5 37.5 37.5-16.823 37.5-37.5-16.822-37.5-37.5-37.5zm0 60c-12.406 0-22.5-10.094-22.5-22.5s10.094-22.5 22.5-22.5 22.5 10.094 22.5 22.5-10.094 22.5-22.5 22.5z"/><path d="m406.176 429.5c-4.143 0-7.5 3.358-7.5 7.5v41.243c0 2.874-.816 6.585-7.181 9.79-1.96.987-4.087 1.467-6.504 1.467-2.674-.004-4.974-.652-7.057-1.983-4.938-3.155-5.95-5.972-5.95-9.23v-41.287c0-4.142-3.357-7.5-7.5-7.5s-7.5 3.358-7.5 7.5v41.287c0 9.054 4.331 16.413 12.874 21.87 4.499 2.875 9.575 4.336 15.087 4.343 4.793 0 9.252-1.033 13.297-3.07 12.756-6.425 15.434-16.156 15.434-23.187v-41.243c0-4.142-3.358-7.5-7.5-7.5z"/></g></g></svg>