<svg id="Capa_1" enable-background="new 0 0 497 497" height="512" viewBox="0 0 497 497" width="512" xmlns="http://www.w3.org/2000/svg"><g><path d="m248.5 497c115.98 0 210-94.02 210-210 0-96.046-45.145-181.539-115.364-236.447" fill="#ff545a"/><path d="m343.136 50.553c-2.726-2.132-6.555-2.125-9.281.008-6.869 5.374-13.495 11.043-19.866 16.982-17.428-24.758-37.015-47.325-60.84-65.941-2.733-2.136-6.564-2.136-9.297 0-23.825 18.616-43.412 41.183-60.84 65.941-6.371-5.939-12.998-11.608-19.866-16.982-2.726-2.133-6.555-2.14-9.281-.008-70.22 54.908-115.365 140.401-115.365 236.447 0 115.98 94.02 210 210 210 91.127 0 165-87.304 165-195 0-102.139-27.535-193.056-70.364-251.447z" fill="#ff7647"/><path d="m313.988 102.976-65.488 364.024c90.981 0 165-74.019 165-165 0-81.387-39.09-153.637-99.512-199.024z" fill="#ffb44e"/><path d="m383.5 302c0-81.387-27.306-153.637-69.512-199.024-6.629 4.98-13.002 10.283-19.094 15.887-13.748-16.31-29.318-31.036-46.394-43.863-17.076 12.827-32.646 27.553-46.394 43.863-6.092-5.603-12.465-10.907-19.094-15.887-60.422 45.387-99.512 117.637-99.512 199.024 0 90.981 74.019 165 165 165 74.439 0 135-74.019 135-165z" fill="#ffd06a"/><circle cx="248.5" cy="302" fill="#ff9733" r="135"/><path d="m248.5 197v210c57.99 0 105-47.01 105-105s-47.01-105-105-105z" fill="#ffe7b5"/><path d="m323.5 302c0-57.99-33.579-105-75-105-57.99 0-105 47.01-105 105s47.01 105 105 105c41.421 0 75-47.01 75-105z" fill="#fff"/><g fill="#ff7647"><circle cx="248.5" cy="377" r="7.5"/><circle cx="286" cy="366.952" r="7.5"/><circle cx="211" cy="237.048" r="7.5"/><circle cx="313.452" cy="339.5" r="7.5"/><circle cx="183.548" cy="264.5" r="7.5"/><circle cx="173.5" cy="302" r="7.5"/><circle cx="313.452" cy="264.5" r="7.5"/><circle cx="183.548" cy="339.5" r="7.5"/><circle cx="286" cy="237.048" r="7.5"/><circle cx="211" cy="366.952" r="7.5"/></g><path d="m323.5 309.5h-75c-4.142 0-7.5-3.358-7.5-7.5v-75c0-4.142 3.358-7.5 7.5-7.5s7.5 3.358 7.5 7.5v67.5h67.5c4.142 0 7.5 3.358 7.5 7.5s-3.358 7.5-7.5 7.5z" fill="#ff336d"/></g></svg>