<svg height="512" viewBox="0 0 32 32" width="512" xmlns="http://www.w3.org/2000/svg"><g id="_x31_1"><path d="m29.7070313 15.2929688-2-2c-.390625-.390625-1.0234375-.390625-1.4140625 0s-.390625 1.0234375 0 1.4140625l.2929687.2929687h-3.5859375v2h3.5859375l-.2929688.2929688c-.390625.390625-.390625 1.0234375 0 1.4140625.1953126.1953125.4511719.2929687.7070313.2929687s.5117188-.0976563.7070313-.2929688l2-2c.390625-.3906249.390625-1.0234374 0-1.4140624z"/><path d="m21 2h-18c-.5522461 0-1 .4472656-1 1v26c0 .5527344.4477539 1 1 1h18c.5522461 0 1-.4472656 1-1v-26c0-.5527344-.4477539-1-1-1zm-14 13.5c1.6542969 0 3 1.3457031 3 3 0 1.4830933-1.0841064 2.7097168-2.5 2.9494629v1.0505371c0 .2763672-.2236328.5-.5.5s-.5-.2236328-.5-.5v-1.0505371c-1.4158936-.2397461-2.5-1.4663696-2.5-2.9494629 0-.2763672.2236328-.5.5-.5s.5.2236328.5.5c0 1.1030273.8969727 2 2 2s2-.8969727 2-2-.8969727-2-2-2c-1.6542969 0-3-1.3457031-3-3 0-1.4830933 1.0841064-2.7097168 2.5-2.9494629v-1.0505371c0-.2763672.2236328-.5.5-.5s.5.2236328.5.5v1.0505371c1.4158936.2397461 2.5 1.4663696 2.5 2.9494629 0 .2763672-.2236328.5-.5.5s-.5-.2236328-.5-.5c0-1.1030273-.8969727-2-2-2s-2 .8969727-2 2 .8969727 2 2 2zm11.5 8.5h-7c-.2763672 0-.5-.2236328-.5-.5s.2236328-.5.5-.5h7c.2763672 0 .5.2236328.5.5s-.2236328.5-.5.5zm0-3h-7c-.2763672 0-.5-.2236328-.5-.5s.2236328-.5.5-.5h7c.2763672 0 .5.2236328.5.5s-.2236328.5-.5.5zm0-3h-7c-.2763672 0-.5-.2236328-.5-.5s.2236328-.5.5-.5h7c.2763672 0 .5.2236328.5.5s-.2236328.5-.5.5zm0-3h-7c-.2763672 0-.5-.2236328-.5-.5s.2236328-.5.5-.5h7c.2763672 0 .5.2236328.5.5s-.2236328.5-.5.5zm0-3h-7c-.2763672 0-.5-.2236328-.5-.5s.2236328-.5.5-.5h7c.2763672 0 .5.2236328.5.5s-.2236328.5-.5.5zm0-3h-7c-.2763672 0-.5-.2236328-.5-.5s.2236328-.5.5-.5h7c.2763672 0 .5.2236328.5.5s-.2236328.5-.5.5z"/></g></svg>