<svg id="Layer_1" enable-background="new 0 0 128 128" height="512" viewBox="0 0 128 128" width="512" xmlns="http://www.w3.org/2000/svg"><path d="m82.7 53.2s-15.2 15.2-18.6 18.6c0 0-39.9-39.9-40.4-40.4l18.6-18.6" fill="#205124"/><g fill="#2a6c30"><path d="m48.4 18.9c-.4.4-.8.7-1.3 1-1.1.7-2.3 1.2-3.7 1.4-2.7.4-5.4-.5-7.3-2.5l6.1-6.1z"/><path d="m82.7 53.2-6.1 6.2c-3.2-3.2-3.4-8.3-.5-11.7.2.1.8.3 1.7.6z"/><path d="m70.2 65.7-6.1 6.2-6.2-6.2c3.4-3.4 8.9-3.4 12.3 0z"/></g><path d="m12.8 80.8h13.6v29.5h-13.6z" fill="#bc1919"/><path d="m26.3 84.2h7.2v22.7h-7.2z" fill="#8d1313"/><path d="m98.2 91.6c-1.5-4.1-6-6.3-10.2-4.9l-16 5.3c-.1-2.6-1.7-4.9-4.1-5.9l-16.5-6.8c-6.4-2.6-13.7-.6-17.8 5v22.7l20.3 6.5c3.4 1.1 7.1 1 10.5-.3l29.1-11.1c4.1-1.6 6.2-6.3 4.7-10.5z" fill="#de8a67"/><path d="m62.7 99.6-16-6.5c-1-.4-1.5-1.5-1.1-2.5s1.5-1.5 2.5-1.1l16 6.5c2.8 1.2 6.1-.3 7.1-3.2.4-1 1.5-1.5 2.5-1.1s1.5 1.4 1.1 2.4c-1.7 5-7.2 7.5-12.1 5.5z" fill="#d66c41"/><path d="m101.4 16.7h13.6v29.5h-13.6z" fill="#23a9f6"/><path d="m94.2 20.1h7.2v22.7h-7.2z" fill="#1a7fb9"/><path d="m94.2 20.1v22.7c-3.7 5.1-10.1 7.1-16.3 5.5-.7-.2-1.7-.6-1.8-.7l-16.3-6.6c-1.4-.6-2.5-1.6-3.2-2.7-1.9-3.1-.9-7.1 2-9-2.5-2.5-7.3-7.3-9.9-9.9l14.5-5.5c3.4-1.3 7-1.4 10.5-.3z" fill="#de8a67"/><path d="m57 46.1c-2.1 2.1-5.5 2.1-7.6 0s-2.1-5.5 0-7.6c2-2 5.2-2.1 7.3-.3.3.6.7 1.1 1.2 1.5 1.2 2.1.8 4.7-.9 6.4z" fill="#7fa783"/><path d="m30.3 37c-.2.2-.3.4-.5.6l-6.1-6.1 6.1-6.1c.5.5 1 1.1 1.4 1.8 1.8 3 1.5 7-.9 9.8z" fill="#2a6c30"/><path d="m58.7 29.2c1.3-.8 2.9-.9 4.2-.3l14.6 5.9c.2.1.4.1.7.1 1 0 1.8-.8 1.8-1.8 0-.7-.4-1.4-1.1-1.6l-14.6-5.9c-2.6-1-5.5-.7-7.8.8-.1.1-.2.1-.3.2l1.2 1.2z" fill="#d66c41"/></svg>