<svg id="Layer_1" height="512" viewBox="0 0 64 64" width="512" xmlns="http://www.w3.org/2000/svg" data-name="Layer 1"><path d="m59 6v45.5a7.459 7.459 0 0 1 -1.28 4.19l-.03.03a7.469 7.469 0 0 1 -6.19 3.28h-27.5a1 1 0 0 1 -1-1v-52a1 1 0 0 1 1-1h34a1 1 0 0 1 1 1z" fill="#bdd1c8"/><path d="m59 6v35.5a7.459 7.459 0 0 1 -1.28 4.19l-.03.03a7.469 7.469 0 0 1 -6.19 3.28h-27.5a1 1 0 0 1 -1-1v-42a1 1 0 0 1 1-1h34a1 1 0 0 1 1 1z" fill="#d0e4dc"/><path d="m29 17a11.991 11.991 0 1 1 -12-12 11.925 11.925 0 0 1 12 12z" fill="#67c182"/><g fill="#60b17b"><path d="m29 17a11.925 11.925 0 0 1 -2.5 7.32 11.991 11.991 0 0 1 -16.82-16.82 11.991 11.991 0 0 1 19.32 9.5z"/><path d="m50 15h-18a1 1 0 0 1 0-2h18a1 1 0 0 1 0 2z"/><path d="m50 20h-18a1 1 0 0 1 0-2h18a1 1 0 0 1 0 2z"/><path d="m50 25h-18a1 1 0 0 1 0-2h18a1 1 0 0 1 0 2z"/><path d="m50 30h-18a1 1 0 0 1 0-2h18a1 1 0 0 1 0 2z"/><path d="m50 35h-18a1 1 0 0 1 0-2h18a1 1 0 0 1 0 2z"/></g><path d="m16 22a1 1 0 0 1 -.707-.293l-3-3a1 1 0 0 1 1.414-1.414l2.244 2.244 6.3-7.2a1 1 0 1 1 1.5 1.318l-7 8a1 1 0 0 1 -.719.341z" fill="#d0e4dc"/><path d="m56.874 55.949a6.577 6.577 0 0 1 -1.023 1.191 6.94 6.94 0 0 1 -4.735 1.86h-29.616a7.5 7.5 0 0 1 -7.5-7.5v-9.5a1 1 0 0 1 1-1h30a1 1 0 0 1 1 1v8.163a6.98 6.98 0 0 0 6.977 6.977 6.514 6.514 0 0 0 .744-.038 4.692 4.692 0 0 0 .642-.1h.009a6.954 6.954 0 0 0 2.502-1.053z" fill="#67c182"/><path d="m56.59 57a7.458 7.458 0 0 1 -5.09 2h-27a7.5 7.5 0 0 1 -7.5-7.5v-10.5h28a1 1 0 0 1 1 1v7.5a7.5 7.5 0 0 0 7.5 7.5 7.026 7.026 0 0 0 .8-.04c.23-.02.47-.06.69-.96h.01a1.447 1.447 0 0 0 1.5 1z" fill="#60b17b"/></svg>