<svg id="Layer_1" enable-background="new 0 0 66 66" height="512" viewBox="0 0 66 66" width="512" xmlns="http://www.w3.org/2000/svg"><g><g style="fill:none;stroke:#000;stroke-width:1.5;stroke-linecap:round;stroke-linejoin:round;stroke-miterlimit:10"><circle cx="19.6" cy="56.3" r="7.7"/><g><g><path d="m19.6 56.3c-.9 0-1.7-.8-1.7-1.7s.8-1.7 1.7-1.7c.6 0 1.2.3 1.5.8"/><path d="m19.6 56.3c.9 0 1.7.8 1.7 1.7s-.8 1.7-1.7 1.7c-.6 0-1.2-.3-1.5-.8"/><path d="m19.6 52.9v-.8"/></g><path d="m19.6 60.6v-.9"/></g></g><g><g><g><path d="m23.2 31.4c0 2.8-1.8 5.1-4.3 5.9v.4c0 1.1-.9 2-2 2s-2-.9-2-2v-.5c-1.4-.5-2.6-1.4-3.4-2.7-.6-1-.2-2.2.7-2.7 1-.6 2.2-.2 2.7.7.4.7 1.1 1.1 1.9 1.1 1.2 0 2.2-1 2.2-2.2s-1-2.2-2.2-2.2c-.1 0-.1 0-.2 0-3.4-.1-6.1-2.8-6.1-6.2 0-2.7 1.8-5.1 4.2-5.9v-.5c0-1.1.9-2 2-2s2 .9 2 2v.4c1.4.5 2.6 1.4 3.4 2.8.6 1 .2 2.2-.7 2.7-1 .5-2.2.2-2.7-.7-.4-.7-1.1-1.1-1.9-1.1-1.2 0-2.2 1-2.2 2.2s1 2.2 2.2 2.2h.2c3.5.2 6.2 2.9 6.2 6.3z" style="fill:none;stroke:#000;stroke-width:1.5;stroke-linecap:round;stroke-linejoin:round;stroke-miterlimit:10"/></g></g><g style="fill:none;stroke:#000;stroke-width:1.5;stroke-linecap:round;stroke-linejoin:round;stroke-miterlimit:10"><path d="m14.4 50.6h-5.5c-2.3 0-4.1-1.8-4.1-4.1v-38.6c0-2.3 1.8-4.1 4.1-4.1h16.1c2.3 0 4.1 1.8 4.1 4.1v35.3"/><path d="m22.2 3.8-.9 2.5h-8.7l-.8-2.5"/><path d="m14.4 45.4h5.2"/></g></g><g style="fill:none;stroke:#000;stroke-width:1.5;stroke-linecap:round;stroke-linejoin:round;stroke-miterlimit:10"><g><g><circle cx="39.5" cy="23.7" r="6.7"/><g><g><path d="m39.5 23.7c.6-.6 1.5-.6 2.1 0s.6 1.5 0 2.1c-.4.4-.9.5-1.4.4"/><path d="m39.5 23.7c-.6.6-1.5.6-2.1 0s-.6-1.5 0-2.1c.4-.4.9-.5 1.4-.4"/><path d="m41.6 25.8.5.5"/></g><path d="m36.8 21.1.6.5"/></g></g><g><path d="m30.8 43.1-1.7-1.5"/><path d="m29.1 17.1 14.6-14.5c.8-.8 2.1-.8 2.9 0l14 14c.8.8.8 2.1 0 2.9l-23.5 23.5"/><path d="m29.2 39.8c.3-.4.6-.8.9-1.1 2.6-2.6 6.8-2.6 9.4 0 .3.3.6.6.8 1"/><path d="m56.7 12.8c-.7.3-1.5.9-2.1 1.5-2.6 2.6-2.6 6.8 0 9.4.3.3.6.6 1 .8"/><path d="m38.7 7.6c.2.3.6.7.9 1 2.6 2.6 6.8 2.6 9.4 0 .6-.6 1.1-1.4 1.4-2.2"/></g></g><g><path d="m24.4 50.2v-5c0-1.1.9-2 2-2h32.7c1.1 0 2 .9 2 2v16.3c0 1.1-.9 2-2 2h-32.7c-.9 0-1.6-.5-1.9-1.3"/><path d="m24.4 48.1h36.7"/><path d="m26.4 52.6h34.7"/><path d="m28.3 59.8h3"/><path d="m34.7 59.8h3.1"/><circle cx="55.8" cy="58.4" r="2"/><circle cx="47.8" cy="58.4" r="2"/></g></g></g></svg>