<?xml version="1.0" encoding="utf-8"?>
<!-- Generator: Adobe Illustrator 27.1.1, SVG Export Plug-In . SVG Version: 6.00 Build 0)  -->
<svg version="1.1" id="Layer_1" xmlns="http://www.w3.org/2000/svg" xmlns:xlink="http://www.w3.org/1999/xlink" x="0px" y="0px"
	 viewBox="0 0 512 512" style="enable-background:new 0 0 512 512;" xml:space="preserve">
<style type="text/css">
	.st0{fill:#565854;}
</style>
<g id="Check_Balance">
	<path class="st0" d="M465.4,117H333.1c0-0.8,0.5-59,0.5-58.3c0-24.2-19.7-44-44.1-44H60.1c-24.3,0-44,19.8-44,44
		c0,1.3,0.6,356.8,0,393.8c0,24.3,19.7,44,44,44c355.1,1.4,172,0.5,286.6,0.8c5.1,0,9.9-1.6,13.9-4.3c3.8,2.4,8.4,3.8,13.2,3.8h96.4
		c13.6,0,24.7-11.1,24.7-24.7v-3.6c0-7.2-3.1-13.6-8-18.1c4.7-4.4,7.7-10.7,7.7-17.7v-3.6c0-8.4-4.3-15.9-10.8-20.3
		c6.9-4.4,11.5-12.1,11.5-20.9v-3.6c0-13.6-11.1-24.7-24.7-24.7h-96.4c-13.6,0-24.7,11.1-24.7,24.7v3.6c0,8.6,4.4,16.2,11.1,20.6
		c-0.5,0.3-1.1,0.7-1.6,1.1c-3.6-2.1-7.8-3.3-12.3-3.3h-13.6v-94.3h132.3c16.9,0,30.6-13.7,30.6-30.6V147.6
		C495.9,130.7,482.2,117,465.4,117z M479.7,472.1c0,5.3-4.4,9.6-9.6,9.6h-96.4c-1.4,0-2.6-0.3-3.8-0.8c1-2.6,1.5-5.4,1.5-8.4V469
		c0-3.2-0.6-6.3-1.8-9.1c1.3-0.7,2.6-1,4.1-1h96.4c5.3,0,9.6,4.3,9.6,9.6V472.1z M364.5,384.2c0-5.3,4.3-9.6,9.6-9.6h96.4
		c5.3,0,9.6,4.3,9.6,9.6v3.6c0,5.3-4.4,9.7-9.6,9.7h-96.4c-5.3,0-9.6-4.4-9.6-9.7V384.2z M150.9,46.5h47.7c4.1,0,7.5,3.4,7.5,7.5
		c0,4.1-3.4,7.5-7.5,7.5h-47.7c-4.1,0-7.5-3.4-7.5-7.5C143.4,49.9,146.8,46.5,150.9,46.5z M31.6,404.2V88.5H318V117h-60
		c-16.9,0-30.6,13.7-30.6,30.6V360c0,3.1,1.9,5.9,4.7,7c2.6,1.1,6.1,0.5,8.3-1.9l44.3-47.7c3.3-3.5,7.8-5.5,12.6-5.5H318v92.2
		L31.6,404.2z M201.9,460.6h-54.1c-5.2,0-9.3-4.6-9.3-10.2c0-5.6,4.1-10.1,9.3-10.1h54.1c5.1,0,9.3,4.5,9.3,10.1
		C211.2,456,207,460.6,201.9,460.6z M356.3,472.6c0,5.4-4.5,9.6-9.6,9.6c-23,0-73.2,0-96.4,0c-5.3,0-9.6-4.3-9.6-9.6V469
		c0-5.3,4.3-9.6,9.6-9.6h96.4c5.2,0,9.6,4.2,9.6,9.6V472.6z M346.7,421.3c1.3,0,2.5,0.2,3.6,0.8c3.5,1.4,6,4.9,6,8.9v3.7
		c0,3.5-2,6.6-4.8,8.3c-1.4,0.9-3.1,1.4-4.8,1.4c-24.6,0-71.9,0-96.4,0c-5.3,0-9.6-4.4-9.6-9.6V431c0-0.1,0-0.1,0-0.1
		c0.1-3.1,1.5-5.8,3.8-7.5c1.6-1.2,3.6-2,5.8-2C285.2,421.3,312.1,421.3,346.7,421.3z M367.3,206.4c13,2.9,22.7,14.7,22.7,28.5
		c0,13.6-9.3,25.1-21.8,28.3v7.5c0,4.2-3.4,7.5-7.5,7.5c-4.1,0-7.5-3.3-7.5-7.5v-7.5c-12.9-3.3-21.8-15.2-21.8-28.3
		c0-4.2,3.5-7.5,7.5-7.5c4.2,0,7.5,3.3,7.5,7.5c0,7.9,6.4,14.3,14.3,14.3c7.9,0,14.3-6.4,14.3-14.3c0-7.9-6.4-14.3-14.3-14.3
		c-16.5,0-29.4-13.5-29.4-29.4c0-13.1,8.9-25,21.8-28.3v-7.5c0-4.2,3.4-7.5,7.5-7.5c4.1,0,7.5,3.3,7.5,7.5v7.5
		c12.6,3.2,21.8,14.8,21.8,28.3c0,4.1-3.4,7.5-7.5,7.5c-4.2,0-7.5-3.3-7.5-7.5c0-7.9-6.4-14.3-14.3-14.3c-7.9,0-14.3,6.4-14.3,14.3
		C346.3,206.7,363.2,205.4,367.3,206.4z"/>
</g>
</svg>
