<svg id="Layer_1" enable-background="new 0 0 512 512" height="512" viewBox="0 0 512 512" width="512" xmlns="http://www.w3.org/2000/svg"><g id="_x32_7_Pos_Terminal"><g><path d="m336.662 214.79v221.695c0 13.279-10.613 24.105-23.838 24.425v-270.545c13.226.32 23.838 11.146 23.838 24.425z"/><path d="m223.122 1.575-19.412 19.413-19.413-19.413c-2.153-2.153-5.652-1.971-7.52 0l-19.359 19.412-19.411-19.412c-2.08-2.08-5.493-2.08-7.573 0l-19.412 19.412-19.413-19.412c-3.234-3.351-9.119-1.016-9.119 3.787v100.687h149.751v-100.687c.001-4.784-5.764-7.143-9.119-3.787zm-29.439 74.716h-72.636c-2.933 0-5.333-2.347-5.333-5.333 0-2.933 2.399-5.333 5.333-5.333h72.636c2.933 0 5.333 2.399 5.333 5.333 0 2.987-2.399 5.333-5.333 5.333z"/><path d="m274.425 63.439h-31.518v42.611h2.027c2.933 0 5.333 2.399 5.333 5.333 0 2.986-2.399 5.333-5.333 5.333h-175.137c-2.986 0-5.333-2.347-5.333-5.333 0-2.933 2.347-5.333 5.333-5.333h2.027v-42.611h-31.518c-15.306 0-27.732 12.426-27.732 27.731v393.098c0 15.306 12.426 27.731 27.731 27.731h234.121c15.306 0 27.731-12.426 27.731-27.731v-393.098c.001-15.305-12.425-27.731-27.732-27.731zm-180.682 416.589h-17.173c-2.933 0-5.333-2.399-5.333-5.333 0-2.986 2.399-5.333 5.333-5.333h17.173c2.933 0 5.333 2.347 5.333 5.333 0 2.934-2.401 5.333-5.333 5.333zm0-36.104h-17.173c-2.933 0-5.333-2.399-5.333-5.333 0-2.933 2.399-5.333 5.333-5.333h17.173c2.933 0 5.333 2.399 5.333 5.333 0 2.933-2.401 5.333-5.333 5.333zm0-36.105h-17.173c-2.933 0-5.333-2.347-5.333-5.333 0-2.933 2.399-5.333 5.333-5.333h17.173c2.933 0 5.333 2.399 5.333 5.333 0 2.987-2.401 5.333-5.333 5.333zm0-36.051h-17.173c-2.933 0-5.333-2.399-5.333-5.333 0-2.933 2.399-5.333 5.333-5.333h17.173c2.933 0 5.333 2.399 5.333 5.333 0 2.933-2.401 5.333-5.333 5.333zm0-36.104h-17.173c-2.933 0-5.333-2.347-5.333-5.333 0-2.933 2.399-5.333 5.333-5.333h17.173c2.933 0 5.333 2.399 5.333 5.333 0 2.986-2.401 5.333-5.333 5.333zm72.209 144.364h-17.172c-2.933 0-5.333-2.399-5.333-5.333 0-2.986 2.399-5.333 5.333-5.333h17.172c2.933 0 5.333 2.347 5.333 5.333 0 2.934-2.4 5.333-5.333 5.333zm0-36.104h-17.172c-2.933 0-5.333-2.399-5.333-5.333 0-2.933 2.399-5.333 5.333-5.333h17.172c2.933 0 5.333 2.399 5.333 5.333 0 2.933-2.4 5.333-5.333 5.333zm0-36.105h-17.172c-2.933 0-5.333-2.347-5.333-5.333 0-2.933 2.399-5.333 5.333-5.333h17.172c2.933 0 5.333 2.399 5.333 5.333 0 2.987-2.4 5.333-5.333 5.333zm0-36.051h-17.172c-2.933 0-5.333-2.399-5.333-5.333 0-2.933 2.399-5.333 5.333-5.333h17.172c2.933 0 5.333 2.399 5.333 5.333 0 2.933-2.4 5.333-5.333 5.333zm0-36.104h-17.172c-2.933 0-5.333-2.347-5.333-5.333 0-2.933 2.399-5.333 5.333-5.333h17.172c2.933 0 5.333 2.399 5.333 5.333 0 2.986-2.4 5.333-5.333 5.333zm72.209 144.364h-17.173c-2.933 0-5.333-2.399-5.333-5.333 0-2.986 2.399-5.333 5.333-5.333h17.173c2.986 0 5.333 2.347 5.333 5.333 0 2.934-2.347 5.333-5.333 5.333zm0-36.104h-17.173c-2.933 0-5.333-2.399-5.333-5.333 0-2.933 2.399-5.333 5.333-5.333h17.173c2.986 0 5.333 2.399 5.333 5.333 0 2.933-2.347 5.333-5.333 5.333zm0-36.105h-17.173c-2.933 0-5.333-2.347-5.333-5.333 0-2.933 2.399-5.333 5.333-5.333h17.173c2.986 0 5.333 2.399 5.333 5.333 0 2.987-2.347 5.333-5.333 5.333zm0-36.051h-17.173c-2.933 0-5.333-2.399-5.333-5.333 0-2.933 2.399-5.333 5.333-5.333h17.173c2.986 0 5.333 2.399 5.333 5.333 0 2.933-2.347 5.333-5.333 5.333zm0-36.104h-17.173c-2.933 0-5.333-2.347-5.333-5.333 0-2.933 2.399-5.333 5.333-5.333h17.173c2.986 0 5.333 2.399 5.333 5.333 0 2.986-2.347 5.333-5.333 5.333zm35.998-59.17c0 9.12-7.413 16.533-16.479 16.533h-200.575c-9.119 0-16.533-7.413-16.533-16.533v-111.248c0-9.119 7.413-16.533 16.533-16.533h200.575c9.066 0 16.479 7.413 16.479 16.533z"/><path d="m257.662 159.372h-200.561c-3.229 0-5.859 2.63-5.859 5.859v111.285c0 3.229 2.63 5.859 5.859 5.859h200.561c3.229 0 5.854-2.63 5.854-5.859v-111.284c-.001-3.23-2.625-5.86-5.854-5.86z"/><g><path d="m499.427 235.002v18.079h-152.098v-36.105h134.073c9.971.001 18.025 8.053 18.025 18.026z"/><path d="m347.329 263.748h152.098v34.611h-152.098z"/><path d="m499.427 309.025v107.247c0 9.973-8.052 18.025-18.025 18.025h-134.073v-125.272z"/></g></g></g></svg>