<svg id="Layer_1" enable-background="new 0 0 66 66" height="512" viewBox="0 0 66 66" width="512" xmlns="http://www.w3.org/2000/svg"><g><path d="m36.07 10.51c-1.51 1.84-3.06 3.72-4.46 5.47 5.81 1.54 7.42 1.84 15.46 2.69 3.43-3.79 5.38-6.31 8.29-10.06.48-.62 1-1.29 1.55-1.98-.51-.11-1.01-.2-1.48-.29-.41-.08-.8-.15-1.17-.22-3.29-.67-6.66-1.13-9.92-1.57-1.06-.15-2.13-.26-3.17-.32-1.56 1.97-3.36 4.16-5.1 6.28zm11.38-4.63c.06.22-1.99.87-4.08 2.42-2.11 1.52-3.35 3.28-3.54 3.15-.17-.08.85-2.14 3.09-3.76 2.24-1.64 4.51-2 4.53-1.81z"/><path d="m28.4 50.87c-5.95-1.17-13.13-2.57-18.75-4.07-2.13 2.45-3.68 4.1-6.01 6.51l-.35.36c-.81.82-2.16 2.18-2.05 3.04.03.27.27.54.69.8 2.71 1.65 5.92 2.36 9.02 3.05.91.2 1.82.41 2.72.63 4.6 1.15 7.78.6 9.71-1.67 1.42-1.66 2.66-3.25 3.87-4.79.9-1.15 1.82-2.32 2.83-3.54-.55-.1-1.11-.21-1.68-.32zm-5.14 5.41c-.32.5-.76 1.07-1.38 1.59-.6.53-1.43.97-2.36 1.17-1.89.36-3.52-.21-4.59-.62-1.09-.44-1.7-.81-1.67-.91.04-.1.74.1 1.84.4 1.09.28 2.65.71 4.27.39 1.63-.32 2.75-1.48 3.46-2.34.72-.87 1.11-1.48 1.21-1.42.08.05-.14.74-.78 1.74z"/><path d="m28.78 48.92c1.17.23 2.29.45 3.36.66.04.01.07.01.11.02.57.11 1.12.22 1.65.33.01-.01.02-.03.02-.04.16-.27.16-.74.16-1.15l.02-5.25c0-.65 0-.85 14.33-18.15 5.62-6.78 11.41-13.77 13.53-16.59-.03-.03-.06-.07-.1-.1-.73-.68-1.75-1.14-2.86-1.49-.75.96-1.44 1.85-2.08 2.67-3.04 3.91-5.04 6.49-8.73 10.54-.19.21-.46.32-.73.32-.03 0-.07 0-.1-.01-9.24-.97-10.52-1.25-17.73-3.18-.32-.09-.58-.33-.69-.65s-.05-.66.16-.93c1.63-2.07 3.56-4.42 5.42-6.69 1.38-1.68 2.79-3.4 4.09-5.01-2.52.18-4.8.94-6.5 2.87l-17.68 20.04c-5.34 6.05-7.46 9.39-6.32 17.18 5.74 1.69 13.99 3.3 20.67 4.61zm-2.57-11.2c-.18.83-1.71 1.21-3.41.85-1.7-.37-2.94-1.34-2.76-2.17s1.71-1.21 3.41-.85 2.94 1.33 2.76 2.17zm8.4 1.8c-.18.83-1.71 1.21-3.41.85-1.7-.37-2.94-1.34-2.76-2.17s1.71-1.21 3.41-.85 2.94 1.34 2.76 2.17zm3.42-14.17c.18-.83 1.71-1.21 3.41-.85 1.7.37 2.94 1.34 2.76 2.17s-1.71 1.21-3.41.85c-1.71-.36-2.94-1.34-2.76-2.17zm1.42 7.75c-.18.83-1.71 1.21-3.41.85-1.7-.37-2.94-1.34-2.76-2.17s1.71-1.21 3.41-.85c1.71.36 2.94 1.34 2.76 2.17zm-9.82-9.56c.18-.83 1.71-1.21 3.41-.85 1.7.37 2.94 1.34 2.76 2.17s-1.71 1.21-3.41.85-2.94-1.33-2.76-2.17zm1.43 7.75c-.18.83-1.71 1.21-3.41.85-1.7-.37-2.94-1.34-2.76-2.17s1.71-1.21 3.41-.85 2.94 1.34 2.76 2.17zm-9.82-9.56c.18-.83 1.71-1.21 3.41-.85 1.7.37 2.94 1.34 2.76 2.17s-1.71 1.21-3.41.85-2.94-1.33-2.76-2.17zm-4.74 6.43c.18-.83 1.71-1.21 3.41-.85 1.7.37 2.94 1.34 2.76 2.17s-1.71 1.21-3.41.85-2.94-1.34-2.76-2.17zm-1.44 5.57c1.7.37 2.94 1.34 2.76 2.17s-1.71 1.21-3.41.85c-1.7-.37-2.94-1.34-2.76-2.17.19-.83 1.71-1.21 3.41-.85z"/><path d="m63.23 10.38c-2.38 3.1-7.9 9.76-13.26 16.23-5.8 7-12.97 15.66-13.88 17.11l-.02 5.03c0 .6-.01 1.42-.44 2.16-.33.55-.74 1.04-1.56 1.04-.15 0-.31-.02-.49-.05-.41-.08-.84-.17-1.28-.26-1.25 1.49-2.38 2.92-3.47 4.31.04.02.08.02.11.04 1.52.87 3.73.67 5.63-.5 1.86-1.15 3.26-2.96 4.62-4.72 4.25-5.48 8.72-10.47 13.04-15.3 3.1-3.46 6.31-7.05 9.4-10.77 3.15-3.8 4-8.98 2.16-13.21-.16-.4-.35-.76-.56-1.11zm-1.87 9.49c-.31 1.28-1.07 2.97-2.23 4.6s-2.41 2.93-3.35 3.82-1.57 1.39-1.64 1.32c-.08-.07.42-.71 1.25-1.68.83-.98 2-2.31 3.12-3.89s1.91-3.14 2.34-4.33.58-1.97.7-1.95c.09.01.13.83-.19 2.11z"/></g></svg>