<svg id="Capa_1" enable-background="new 0 0 512 512" height="512" viewBox="0 0 512 512" width="512" xmlns="http://www.w3.org/2000/svg"><g id="Price_List_3_"><g><path d="m346 60h-180v-60h180z"/></g><path d="m376 30v60h-240v-60h-75v482h390v-482zm-135 137.763v-32.763h30v32.726c6.246 2.21 12.021 5.645 16.831 10.472l10.591 10.62-21.24 21.182-10.591-10.62c-8.599-8.657-25.576-1.641-25.591 10.62 0 8.276 6.724 15 15 15 24.814 0 45 20.186 45 45 0 19.53-12.578 36.024-30 42.237v32.763h-30v-32.726c-6.246-2.21-12.021-5.645-16.831-10.472l-10.591-10.62 21.24-21.182 10.591 10.62c8.643 8.701 25.605 1.685 25.591-10.62 0-8.276-6.724-15-15-15-24.814 0-45-20.186-45-45 0-19.53 12.578-36.024 30-42.237zm-60 297.237h-30v-30h30zm0-60h-30v-30h30zm195 60h-165v-30h165zm0-60h-165v-30h165z"/></g></svg>