<svg id="Layer_1" enable-background="new 0 0 512 512" height="512" viewBox="0 0 512 512" width="512" xmlns="http://www.w3.org/2000/svg"><path clip-rule="evenodd" d="m410.774 379.706-133.074 113.047c-5.758 4.891-14.383 4.174-19.198-1.597l-76.797-92.032c-4.816-5.771-4.047-14.468 1.711-19.359l133.074-113.048c3.073-2.61 6.703-3.677 10.668-3.132l64.071 8.791c8.224 1.128 15.424 3.375 20.753 9.761 5.329 6.387 6.295 13.929 5.997 22.297l-.623 17.442c13.956 1.35 31.684.494 45.258-4.696 12.808-4.896 13.402-7.711.393-12.777-12.243-4.768-27.401-5.501-37.079-5.238-.413-5.6-1.484-11.006-3.792-15.859 13.514-.702 31.892.485 46.621 6.221 26.805 10.438 26.138 32.423-.456 42.589-21.508 8.223-56.208 8.533-78.441-.126-15.196-5.918-27.605-20.169-14.078-33.774-6.395.944-10.43 5.922-10.473 12.452-.089 13.787 11.961 22.262 23.536 26.709 8.58 3.296 18.23 5.161 27.743 5.999l-.938 26.256c-.144 4.035-1.804 7.465-4.876 10.074zm-76.667-363.706h-250.709v51.954c0 4.418-3.582 8-8 8h-51.954v345.654c0 5.508 4.492 10 10 10h154.529l-18.552-22.233c-10.424-12.492-8.753-31.28 3.636-41.804l26.943-22.889h-50.998c-4.418 0-8-3.582-8-8s3.582-8 8-8h69.833l68.818-58.461h-138.651c-4.418 0-8-3.582-8-8s3.582-8 8-8h155.487c.608 0 1.2.068 1.769.197 6.496-5.46 14.657-7.839 23.076-6.684l14.773 2.027v-223.761c0-5.508-4.493-10-10-10zm-119.245 67.52c1.708 4.073-.208 8.76-4.281 10.469-4.073 1.708-8.76-.208-10.469-4.281-1.433-3.413-5.056-4.682-8.503-3.988-1.913.385-4.304 1.54-4.194 3.824.118 2.439 5.401 3.365 7.209 3.662 10.609 1.742 20.542 6.489 21.988 18.392.057.468.094 1.091.113 1.857.23 9.67-6.691 16.005-15.427 18.416-.065 4.362-3.621 7.879-7.999 7.879-4.418 0-8-3.582-8-8v-.05c-7.505-2.318-13.275-7.812-15.21-15.576-1.053-4.28 1.564-8.603 5.844-9.656s8.604 1.564 9.656 5.844c.874 3.505 4.939 4.73 8.152 4.653.304-.007.773-.049 1.409-.126 1.401-.17 5.683-1.044 5.636-3.01-.001-.046-.015-.068-.05-.357-.379-3.124-6.239-4.117-8.675-4.517-10.369-1.702-20.016-6.944-20.584-18.662-.447-9.201 5.405-16.423 13.822-19.333v-.202c0-4.418 3.582-8 8-8s8 3.582 8 8v.104c5.713 1.929 10.778 6.027 13.563 12.658zm-147.464-59.52v35.954h-35.954zm125.901 29.062c26.615 0 48.191 21.576 48.191 48.192s-21.576 48.192-48.191 48.192c-26.616 0-48.192-21.576-48.192-48.192s21.576-48.192 48.192-48.192zm-131.52 262.698h33.844c2.203 0 4 1.797 4 4v33.845c0 2.203-1.797 4-4 4h-33.844c-2.203 0-4-1.797-4-4v-33.845c0-2.203 1.797-4 4-4zm0-74.462h33.844c2.203 0 4 1.797 4 4v33.845c0 2.203-1.797 4-4 4h-33.844c-2.203 0-4-1.797-4-4v-33.845c0-2.203 1.797-4 4-4zm0-74.461h33.844c2.203 0 4 1.797 4 4v33.844c0 2.203-1.797 4-4 4h-33.844c-2.203 0-4-1.797-4-4v-33.844c0-2.203 1.797-4 4-4zm242.71 12.922c4.418 0 8 3.582 8 8s-3.582 8-8 8h-155.487c-4.418 0-8-3.582-8-8s3.582-8 8-8zm85.724 134.93c.372-1.204.574-2.484.574-3.811 0-1.367-.235-2.683-.659-3.918-2.608 1.41-4.093 2.732-4.1 3.831 0 1.588 3.008 3.266 4.185 3.898zm-63.256 68.584c3.415-6.687 3.259-13.456.944-19.234l.279-.237c3.365-2.848 3.785-7.885.937-11.25s-7.884-3.785-11.25-.937l-.299.254c-7.877-4.774-17.384-4.592-24.343 1.923-8.769 8.21-6.535 19.111-1.072 28.392 1.425 2.42 4.517 7.852 2.116 10.448-.049.053-.151.148-.301.279-1.65 1.445-5.181-1.263-6.363-2.357-.337-.311-.702-.693-1.086-1.132-2.345-2.677-4.013-6.876-1.704-10.084 2.571-3.573 1.76-8.553-1.812-11.125-3.572-2.571-8.554-1.76-11.125 1.812-4.84 6.722-5.293 14.959-2.084 22.429l-.249.212c-3.365 2.848-3.785 7.884-.937 11.25 2.848 3.365 7.885 3.785 11.25.938l.081-.068c7.582 5.335 17.091 6.643 24.531.126.457-.401.953-.889 1.488-1.467 8.331-9.005 5.535-19.831-.053-29.322-1.085-1.843-3.858-6.781-1.803-8.705 1.834-1.717 4.397-.61 6.082.729 2.987 2.373 4.403 6.321 2.587 9.878-2.002 3.918-.449 8.717 3.469 10.719 3.916 2 8.715.446 10.717-3.471zm-28.095-55.138c-27.528-.243-49.843 21.991-49.843 49.66s22.315 50.296 49.843 50.538c27.528.243 49.843-21.991 49.843-49.66s-22.315-50.296-49.843-50.538z" fill-rule="evenodd"/></svg>