<svg id="Icon" viewBox="0 0 64 64" xmlns="http://www.w3.org/2000/svg"><path d="m20 45.88525c0 .86066-.53772 1.62067-1.37921 1.90204-.65375.21863-1.37817.03864-1.9245-.38165l-1.69629-1.30505-1.78125 1.36963c-.69043.53198-1.63428.56018-2.36499.05426-.56488-.39105-.85376-1.07642-.85376-1.76343v-1.76105h-8v15c0 1.6543 1.3457 3 3 3h20c1.6543 0 3-1.3457 3-3v-15h-8zm-8 13.11475h-6c-.55225 0-1-.44775-1-1s.44775-1 1-1h6c.55225 0 1 .44775 1 1s-.44775 1-1 1zm0-3h-6c-.55225 0-1-.44775-1-1s.44775-1 1-1h6c.55225 0 1 .44775 1 1s-.44775 1-1 1zm36.39062-45.95361-2.39062 1.83887v-9.88526h6.00098l.00586 9.88916-.00586-.00391h-.00098l-2.39062-1.83887c-.35938-.27661-.85931-.27661-1.21875 0zm-38.39062 31.95361h-8v-3c0-1.6543 1.3457-3 3-3h5zm34-34h-8v-3c0-1.6543 1.3457-3 3-3h5zm-29.60938 36.04639-2.39062 1.83887v-9.88525h6.00098l.00586 9.88916-.00586-.00391h-.00098l-2.39062-1.83887c-.35938-.27661-.85931-.27661-1.21875 0zm47.60938-39.04639v3h-8v-6h5c1.6543 0 3 1.3457 3 3zm-34 34v3h-8v-6h5c1.6543 0 3 1.3457 3 3zm26-27.11475c0 .86066-.53772 1.62067-1.37921 1.90204-.65375.21863-1.37817.03864-1.9245-.38165l-1.69629-1.30505-1.78125 1.36963c-.69043.53198-1.63428.56018-2.36499.05426-.56488-.39105-.85376-1.07642-.85376-1.76343v-1.76105h-8v15c0 1.6543 1.3457 3 3 3h20c1.6543 0 3-1.3457 3-3v-15h-8zm-8 13.11475h-6c-.55225 0-1-.44775-1-1s.44775-1 1-1h6c.55225 0 1 .44775 1 1s-.44775 1-1 1zm0-3h-6c-.55225 0-1-.44775-1-1s.44775-1 1-1h6c.55225 0 1 .44775 1 1s-.44775 1-1 1zm10.44922 10.56494c1.53174 3.87158 2.7749 9.51709.00098 14.42822-2.28613 4.04785-6.80713 6.66309-13.4375 7.77295l-.0127 2.13477c0 .81152-.48486 1.53711-1.23486 1.84766-.74133.30884-1.6037.14398-2.1792-.43359l-7.25195-7.25195c-.77979-.77979-.77979-2.04834 0-2.82812l7.25195-7.25195c.57324-.57373 1.42969-.74463 2.1792-.43359.75.31055 1.23486 1.03613 1.23486 1.84766v2.15918c1.61035.15674 3.66748-.7124 5.74268-2.44434 3.10986-2.59717 5.54102-6.49365 5.78076-9.26514.05554-1.02539 1.57892-1.24762 1.92578-.28174zm-24.7832-16.48486-7.25195 7.25195c-.57324.57324-1.43066.74414-2.1792.43359-.75-.31055-1.23486-1.03613-1.23486-1.84766v-2.15918c-1.61768-.15918-3.66797.71191-5.74268 2.44434-3.10986 2.59717-5.54102 6.49365-5.78076 9.26514-.05621 1.02344-1.57471 1.25067-1.92578.28174-1.53174-3.87158-2.7749-9.51709-.00098-14.42822 2.28613-4.04785 6.80713-6.66309 13.4375-7.77295l.0127-2.13477c0-.81152.48486-1.53711 1.23486-1.84766.74951-.30908 1.60596-.14062 2.1792.43359l7.25195 7.25195c.77979.77979.77979 2.04834 0 2.82812z"/></svg>