<svg height="512pt" viewBox="0 0 512 512" width="512pt" xmlns="http://www.w3.org/2000/svg"><path d="m76 452h60c8.289062 0 15-6.710938 15-15v-121c0-8.289062-6.710938-15-15-15h-60c-8.289062 0-15 6.710938-15 15v121c0 8.289062 6.710938 15 15 15zm0 0"/><path d="m256 452c8.289062 0 15-6.710938 15-15v-211c0-8.289062-6.710938-15-15-15h-60c-8.289062 0-15 6.710938-15 15v211c0 8.289062 6.710938 15 15 15zm0 0"/><path d="m497 211h-60c-8.289062 0-15 6.710938-15 15v211c0 8.289062 6.710938 15 15 15h60c8.289062 0 15-6.710938 15-15v-211c0-8.289062-6.710938-15-15-15zm0 0"/><path d="m376 452c8.289062 0 15-6.710938 15-15v-151c0-8.289062-6.710938-15-15-15h-60c-8.289062 0-15 6.710938-15 15v151c0 8.289062 6.710938 15 15 15zm0 0"/><path d="m497 31h-60c-8.289062 0-15 6.710938-15 15s6.710938 15 15 15h23.789062l-95.511718 94.511719c-5.867188-2.808594-12.351563-4.511719-19.277344-4.511719-12.101562 0-23.054688 4.855469-31.148438 12.652344l-44.402343-22.199219c.222656-1.808594.550781-3.585937.550781-5.453125 0-24.8125-20.1875-45-45-45s-45 20.1875-45 45c0 4.671875.917969 9.089844 2.246094 13.328125l-52.335938 39.242187c-7.140625-4.769531-15.699218-7.570312-24.910156-7.570312-24.8125 0-45 20.1875-45 45s20.1875 45 45 45 45-20.1875 45-45c0-4.671875-.917969-9.089844-2.246094-13.328125l52.335938-39.242187c7.140625 4.769531 15.699218 7.570312 24.910156 7.570312 12.101562 0 23.054688-4.855469 31.148438-12.652344l44.402343 22.199219c-.222656 1.808594-.550781 3.585937-.550781 5.453125 0 24.8125 20.1875 45 45 45s45-20.1875 45-45c0-6.925781-1.703125-13.410156-4.511719-19.277344l95.511719-94.511718v23.789062c0 8.289062 6.710938 15 15 15s15-6.710938 15-15v-60c0-8.289062-6.710938-15-15-15zm0 0"/><path d="m497 482h-467v-467c0-8.289062-6.710938-15-15-15s-15 6.710938-15 15v482c0 8.289062 6.710938 15 15 15h482c8.289062 0 15-6.710938 15-15s-6.710938-15-15-15zm0 0"/></svg>