<svg id="Capa_1" enable-background="new 0 0 512.007 512.007" height="512" viewBox="0 0 512.007 512.007" width="512" xmlns="http://www.w3.org/2000/svg"><path d="m189.824 400.988c-5.352 0-10.601-.984-15.6-2.924l-121.341-47.102v79.081c0 6.324 3.967 11.969 9.917 14.112l179.626 64.697v-155.686l-15.311 26.358c-7.69 13.24-21.98 21.464-37.291 21.464z"/><path d="m322.191 400.988c-15.312 0-29.601-8.225-37.292-21.464l-12.473-21.473v150.954l180.054-64.851c5.95-2.143 9.917-7.788 9.917-14.112v-80.349l-124.607 48.37c-4.999 1.941-10.247 2.925-15.599 2.925z"/><path d="m153.996 189.559c-8.938-10.886-16.165-23.223-21.281-36.597l-39.978 14.398z"/><path d="m419.538 167.267-40.09-14.692c-5.124 13.523-12.405 25.994-21.429 36.985z"/><path d="m510.138 282.641-49.779-86.882c-3.412-5.954-10.612-8.595-17.064-6.256l-187.288 67.853-187.288-67.853c-6.452-2.339-13.652.302-17.064 6.256l-49.617 86.598c-1.372 2.395-2.15 5.118-2.026 7.875.26 5.766 3.884 10.605 9.006 12.593l175.699 68.203c1.672.649 3.4.959 5.106.959 4.908 0 9.624-2.569 12.215-7.031l53.968-96.557 53.968 96.557c2.592 4.461 7.307 7.031 12.215 7.031 1.706 0 3.434-.31 5.106-.959l175.699-68.203c3.835-1.489 6.83-4.576 8.202-8.454 1.375-3.877.988-8.16-1.058-11.73z"/><path d="m256.007 208.908c56.769 0 102.954-46.185 102.954-102.954s-46.185-102.953-102.954-102.953-102.953 46.185-102.953 102.954 46.184 102.953 102.953 102.953zm-42.606-87.191c-5.858-5.858-5.858-15.355 0-21.213s15.356-5.858 21.213 0l8.461 8.461 34.832-34.832c5.857-5.858 15.355-5.858 21.213 0s5.858 15.355 0 21.213l-45.438 45.438c-2.929 2.929-6.768 4.394-10.606 4.394s-7.678-1.464-10.606-4.393z"/></svg>