<svg height="512" viewBox="0 0 32 32" width="512" xmlns="http://www.w3.org/2000/svg"><g id="_x31_1"><path d="m29.2929688 2.7070313c-.9121094-.9121094-2.5019531-.9121094-3.4140625 0l-8.171875 8.171875c-1.084961 1.0849609-1.7070313 2.586914-1.7070313 4.1210937 0 .5527344.4477539 1 1 1 1.5566406 0 3.0205078-.6064453 4.1210938-1.7070313l8.171875-8.171875c.4560546-.4550781.7070312-1.0615234.7070312-1.7070312 0-.6445312-.2509766-1.2509766-.7070312-1.7070312z"/><path d="m21 26.0002441v-7c0-.0026855-.0011597-.0050659-.0011597-.0077515l-7.4988403 3.3328248v7.6749268l6.8935547-3.0810547c.3681641-.1572266.6064453-.519043.6064453-.9189454z"/><path d="m13.3935547 15.0812988c-.25-.1083984-.5371094-.1083984-.7871094 0 0 0-7.0527954 3.0343628-7.0808105 3.0496826l7.4743652 3.3218995 7.4743652-3.3218994c-.0280151-.0153199-7.0808105-3.0496827-7.0808105-3.0496827z"/><path d="m5 19.0002441v7c0 .3999023.2382813.7617188.6064453.9189453l6.8935547 3.0810547v-7.6749268l-7.4988403-3.3328247c0 .0026856-.0011597.005066-.0011597.0077515z"/><path d="m19.3688354 16.5715332 1.3334351.5557861c.7805786.2927246 1.2977295 1.0390015 1.2977295 1.8726807v7c0 .8336792-.5171509 1.579895-1.2977295 1.8726196l-4.7518921 2.1273804h7.0496216c.5523071 0 1-.4477539 1-1v-16.1717529l-2.171875 2.1717529c-.7080688.708374-1.5471191 1.2344971-2.4592896 1.5715332z"/><path d="m4 26v-7c0-.8336792.5171509-1.5799561 1.2977905-1.8726807l7.3511353-3.0638428c.2263794-.0848999.4758301-.0848999.7021484 0l1.6611938.6923828c.015564-.4238891.0714722-.8444213.1643677-1.2558593h-6.1766357c-.2763672 0-.5-.2236328-.5-.5s.2236328-.5.5-.5h6.4901733c.3393555-.8657837.8463746-1.664978 1.5098267-2.328125l2.671875-2.671875h-10.671875c-.2763672 0-.5-.2236328-.5-.5s.2236328-.5.5-.5h11.671875l3.328125-3.328125v-.171875c0-.5523071-.4476929-1-1-1h-20c-.5522461 0-1 .4476929-1 1v26c0 .5522461.4477539 1 1 1h7.0494995l-4.751709-2.1273804c-.7806396-.2927246-1.2977905-1.0389404-1.2977905-1.8726196zm.1464844-19.8535156c.1953125-.1953125.5117188-.1953125.7070313 0l.6464843.6464844 1.6464844-1.6464844c.1953125-.1953125.5117188-.1953125.7070313 0s.1953125.5117188 0 .7070313l-2 2c-.0976563.0976562-.225586.1464843-.3535157.1464843s-.2558594-.0488281-.3535156-.1464844l-1-1c-.1953125-.1953125-.1953125-.5117187 0-.7070312zm0 6c.1953125-.1953125.5117188-.1953125.7070313 0l.6464843.6464844 1.6464844-1.6464844c.1953125-.1953125.5117188-.1953125.7070313 0s.1953125.5117188 0 .7070313l-2 2c-.0976563.0976562-.225586.1464843-.3535157.1464843s-.2558594-.0488281-.3535156-.1464844l-1-1c-.1953125-.1953125-.1953125-.5117187 0-.7070312z"/></g></svg>