<?xml version="1.0" encoding="utf-8"?>
<!-- Generator: Adobe Illustrator 27.1.1, SVG Export Plug-In . SVG Version: 6.00 Build 0)  -->
<svg version="1.1" id="Layer_1" xmlns="http://www.w3.org/2000/svg" xmlns:xlink="http://www.w3.org/1999/xlink" x="0px" y="0px"
	 viewBox="0 0 32 32" style="enable-background:new 0 0 32 32;" xml:space="preserve">
<style type="text/css">
	.st0{fill:#565854;}
</style>
<g id="Layer_2_00000001632843066386960840000004586552843796738976_">
	<path class="st0" d="M28,22.2H14c-0.4,0-0.7,0.3-0.8,0.8v1c0,2-1.4,3.7-3.3,4.1c-0.2,0-0.4,0.2-0.5,0.3l-0.1,0.1
		c-0.2,0.3-0.1,0.8,0.2,1c0.1,0.1,0.3,0.1,0.4,0.1h13c3.2,0,5.7-2.6,5.8-5.8v-1C28.7,22.6,28.4,22.3,28,22.2z"/>
	<path class="st0" d="M19,20.2H8c-0.4,0-0.8-0.3-0.8-0.8s0.3-0.8,0.8-0.8h11c0.4,0,0.8,0.3,0.8,0.8S19.4,20.2,19,20.2z"/>
	<path class="st0" d="M23.3,2.6c-0.2-0.2-0.6-0.3-0.9-0.3l-0.4,0H22c-1,0-1.9,0.3-2.7,0.9c-1.1,0.8-2.6,0.8-3.7,0
		c-1.6-1.2-3.7-1.2-5.3,0C9.8,3.5,9.2,3.8,8.5,3.8c-0.7,0-1.3-0.2-1.8-0.6c-0.6-0.4-1.3-0.7-2-0.8c-0.4-0.1-0.7,0.1-1,0.3
		C3.4,2.8,3.3,3.2,3.2,3.5V24c0,2.7,1.8,5,4.4,5.6c0.3-0.6,0.6-1.2,1-1.7c0.3-0.4,0.7-0.6,1.1-0.7c1.5-0.3,2.5-1.7,2.5-3.2v-1
		c0-1,0.8-1.7,1.8-1.8h9.8V3.5C23.7,3.2,23.6,2.8,23.3,2.6z M19,16.8H8c-0.4,0-0.8-0.3-0.8-0.8s0.3-0.8,0.8-0.8h11
		c0.4,0,0.8,0.3,0.8,0.8S19.4,16.8,19,16.8z M19,13.2H8c-0.4,0-0.8-0.3-0.8-0.8s0.3-0.8,0.8-0.8h11c0.4,0,0.8,0.3,0.8,0.8
		S19.4,13.2,19,13.2z M19,9.8H8C7.6,9.8,7.2,9.4,7.2,9S7.6,8.2,8,8.2h11c0.4,0,0.8,0.3,0.8,0.8S19.4,9.8,19,9.8z"/>
</g>
</svg>
