<svg id="Layer_1" height="512" viewBox="0 0 520 520" width="512" xmlns="http://www.w3.org/2000/svg" data-name="Layer 1"><path d="m438.441 345.337h-263.768a23.3 23.3 0 0 1 -23.273-23.274v-256.01a23.3 23.3 0 0 1 23.273-23.273h263.768a23.3 23.3 0 0 1 23.274 23.273v256.01a23.3 23.3 0 0 1 -23.274 23.274z" fill="#fc6"/><path d="m438.441 42.78h-131.884v302.557h131.884a23.343 23.343 0 0 0 23.274-23.274v-256.01a23.341 23.341 0 0 0 -23.274-23.273z" fill="#ffba55"/><path d="m341.316 158.019-34.759-21.134-34.757 21.134c-4.9 3.2-11.976-.762-11.788-6.629v-100.853a7.755 7.755 0 0 1 7.758-7.757h77.578a7.755 7.755 0 0 1 7.758 7.757v100.853c.17 5.855-6.866 9.838-11.79 6.629z" fill="#f8834b"/><rect fill="#edebf2" height="77.579" rx="7.758" width="77.579" x="197.947" y="197.937"/><path d="m159.157 159.148a77.668 77.668 0 0 1 -77.578-77.579c4.262-102.919 150.911-102.889 155.157.001a77.668 77.668 0 0 1 -77.579 77.578z" fill="#9dcc6b"/><path d="m159.157 3.99v155.158c102.956-4.37 102.877-150.827 0-155.158z" fill="#84b749"/><path d="m151.369 103.384a7.73 7.73 0 0 1 -5.265-2.061l-19.417-17.936c-7.417-6.914 3.048-18.252 10.531-11.394l14.151 13.072 33.555-31.008c7.459-6.847 17.96 4.465 10.53 11.394l-38.819 35.872a7.731 7.731 0 0 1 -5.266 2.061z" fill="#edebf2"/><path d="m345.346 42.78h-38.789v94.1l34.759 21.134c4.918 3.2 11.969-.761 11.788-6.629v-100.848a7.755 7.755 0 0 0 -7.758-7.757z" fill="#f66824"/><path d="m514.313 278.153c-13.334-32.193-48.025-20.355-87.276.464-10.053 5.544-75.668 41.8-84.1 46.394a.076.076 0 0 0 -.077-.078 31.887 31.887 0 0 0 -21.024-19.007 35.054 35.054 0 0 0 -5.819-.93l-130.017-8.457a51.14 51.14 0 0 0 -44.919 21.49l-32.815 45.306h-34.445a7.781 7.781 0 0 0 -7.758 7.758v113.885a7.781 7.781 0 0 0 7.758 7.758h20.636a149.914 149.914 0 0 0 68.5-16.757 132.441 132.441 0 0 1 65.943-14.973c35.531 1.4 83.862 0 112.1-14.662 36.617-19.007 125.6-96.818 162.14-129.324 11.095-9.852 15.595-25.52 11.173-38.867z" fill="#f6ccaf"/><path d="m503.142 317.02c-36.542 32.506-125.523 110.317-162.142 129.324-28.239 14.662-76.57 16.059-112.1 14.662a132.441 132.441 0 0 0 -65.942 14.973c-27.155 14.811-58.81 17.971-89.138 16.756a7.779 7.779 0 0 1 -7.758-7.757v-31.031a7.781 7.781 0 0 0 7.758 7.758h20.637a149.915 149.915 0 0 0 68.5-16.758 132.45 132.45 0 0 1 65.943-14.972c35.531 1.4 83.862 0 112.1-14.663 36.617-19.006 125.6-96.818 162.14-129.323a37.93 37.93 0 0 0 9.232-12.413c7.367 14.176 3.128 32.462-9.23 43.444z" fill="#edb996"/><path d="m57.9 516.01h-46.142a7.756 7.756 0 0 1 -7.758-7.758v-155.158a7.755 7.755 0 0 1 7.758-7.757h46.142a23.7 23.7 0 0 1 23.675 23.675v123.323a23.7 23.7 0 0 1 -23.675 23.675z" fill="#425b72"/><path d="m4 461.705v46.547a7.781 7.781 0 0 0 7.758 7.758h46.159a23.707 23.707 0 0 0 23.662-23.662v-30.643z" fill="#374f68"/><path d="m50.547 477.22c-.045 10.146-15.472 10.145-15.515 0 .044-10.145 15.468-10.144 15.515 0z" fill="#293b4d"/><path d="m358.613 327.028c0 16.835-12.879 30.876-29.248 31.963l-76.725 4.964a7.828 7.828 0 0 1 -8.3-7.215 7.916 7.916 0 0 1 7.292-8.3l76.8-4.964c8.88-.489 15.785-9.274 14.507-18.464l14.12-7.758a31.465 31.465 0 0 1 1.554 9.774z" fill="#edb996"/></svg>