<svg id="Слой_1" enable-background="new 0 0 512 512" height="512" viewBox="0 0 512 512" width="512" xmlns="http://www.w3.org/2000/svg"><g><g><path d="m473.6 302.08v-58.88c0-21.208-17.192-38.4-38.4-38.4h-358.4c-21.208 0-38.4 17.192-38.4 38.4v58.88c0 2.828 2.292 5.12 5.12 5.12h424.96c2.828 0 5.12-2.292 5.12-5.12z"/><path d="m38.4 337.92v135.68c0 21.208 17.192 38.4 38.4 38.4h358.4c21.208 0 38.4-17.192 38.4-38.4v-135.68c0-2.828-2.292-5.12-5.12-5.12h-424.96c-2.828 0-5.12 2.292-5.12 5.12zm140.8 97.28h-51.2c-7.075 0-12.8-5.725-12.8-12.8s5.725-12.8 12.8-12.8h51.2c7.075 0 12.8 5.725 12.8 12.8s-5.725 12.8-12.8 12.8zm204.8 0h-51.2c-7.075 0-12.8-5.725-12.8-12.8s5.725-12.8 12.8-12.8h51.2c7.075 0 12.8 5.725 12.8 12.8s-5.725 12.8-12.8 12.8z"/></g><g><path d="m341.762 98.562-75.013 75.013-1.787 1.787c-1.025 1.275-2.306 2.05-3.844 2.812h-.256c-1.538.775-3.325 1.025-4.862 1.025-1.538 0-3.325-.25-4.863-1.025h-.256c-1.538-.763-2.819-1.538-3.844-2.812l-1.787-1.787-75.013-75.013c-5.119-4.863-5.119-13.063 0-17.925 4.869-5.112 13.063-5.112 17.925 0l55.037 54.788v-122.625c.001-7.175 5.632-12.8 12.801-12.8s12.8 5.625 12.8 12.8v122.625l55.038-54.788c4.869-5.112 13.063-5.112 17.925 0 5.118 4.863 5.118 13.063-.001 17.925z"/></g></g></svg>