<svg id="Layer_1" height="512" viewBox="0 0 256 256" width="512" xmlns="http://www.w3.org/2000/svg"><g><g><g><circle cx="121.999" cy="74.788" fill="#ffc91d" r="67.334"/></g><g><path d="m167.041 24.746c10.746 11.931 17.292 27.721 17.292 45.043 0 37.188-30.147 67.334-67.334 67.334-17.322 0-33.111-6.545-45.043-17.292 12.325 13.684 30.177 22.292 50.043 22.292 37.188 0 67.334-30.146 67.334-67.334 0-19.867-8.607-37.719-22.292-50.043z" fill="#ffa91a"/></g><g><circle cx="121.999" cy="74.788" fill="#ffa91a" r="52.044"/></g><g><path d="m76.1 73.144c-.052 0-.105-.002-.159-.006-1.102-.086-1.924-1.049-1.837-2.15 1.4-17.794 12.487-33.252 28.934-40.342 1.015-.437 2.192.03 2.628 1.045.438 1.014-.03 2.191-1.045 2.628-15.08 6.5-25.246 20.671-26.529 36.981-.082 1.048-.958 1.844-1.992 1.844zm35.312-41.171c-.908 0-1.729-.622-1.945-1.544-.252-1.076.416-2.152 1.491-2.404l.416-.096c1.071-.246 2.148.431 2.392 1.509.244 1.077-.432 2.148-1.509 2.392l-.385.089c-.155.037-.309.054-.46.054z" fill="#ffc91d"/></g><g><path d="m153.455 33.333c6.641 8.738 10.588 19.634 10.588 31.456 0 28.743-23.301 52.044-52.044 52.044-11.822 0-22.718-3.948-31.456-10.588 9.505 12.508 24.534 20.588 41.456 20.588 28.743 0 52.044-23.301 52.044-52.044 0-16.922-8.081-31.951-20.588-41.456z" fill="#f79219"/></g><g><path d="m156.205 35.582c7.988 9.148 12.838 21.107 12.838 34.206 0 28.743-23.301 52.044-52.044 52.044-13.099 0-25.058-4.85-34.206-12.838 9.54 10.926 23.562 17.838 39.206 17.838 28.743 0 52.044-23.301 52.044-52.044 0-15.644-6.912-29.665-17.838-39.206z" fill="#ef7816"/></g><path d="m135.289 87.977c-1.104 0-2 .896-2 2 0 4.131-3.361 7.493-7.493 7.493h-7.594c-4.131 0-7.493-3.361-7.493-7.493v-30.377c0-4.131 3.361-7.493 7.493-7.493h7.594c4.131 0 7.493 3.361 7.493 7.493 0 1.104.896 2 2 2s2-.896 2-2c0-4.499-2.604-8.391-6.379-10.277v-5.797c0-1.104-.896-2-2-2s-2 .896-2 2v4.638c-.367-.035-.738-.056-1.114-.056h-7.594c-.376 0-.747.021-1.114.056v-4.638c0-1.104-.896-2-2-2s-2 .896-2 2v5.797c-3.775 1.886-6.379 5.779-6.379 10.277v30.376c0 4.499 2.604 8.391 6.379 10.277v5.797c0 1.104.896 2 2 2s2-.896 2-2v-4.638c.367.035.738.056 1.114.056h7.594c.376 0 .747-.021 1.114-.056v4.638c0 1.104.896 2 2 2s2-.896 2-2v-5.797c3.775-1.886 6.379-5.779 6.379-10.277 0-1.104-.896-1.999-2-1.999z" fill="#fff"/></g><g><g><g><g><g><path d="m232.054 145.82c-.09-.09-.181-.181-.271-.271-4.995-4.995-13.09-4.999-18.084-.002-10.622 10.626-27.724 27.729-35.009 35.015-2.228 2.228-5.236 3.466-8.387 3.466h-24.834c8.201-.043 14.838-6.701 14.838-14.912 0-8.238-6.678-14.916-14.916-14.916h-32.256c-8.029 0-15.715 3.25-21.309 9.01l-20.218 20.819h-7.613v49.667h82.959c9.454 0 18.52-3.755 25.206-10.439l59.893-59.883c4.847-4.849 4.848-12.707.001-17.554z" fill="#fcc4ae"/></g><g><path d="m232.758 146.599c.209 3.425-.983 6.919-3.6 9.537l-59.893 59.883c-6.685 6.684-15.752 10.439-25.206 10.439h-80.065v7.236h82.959c9.454 0 18.52-3.755 25.206-10.439l59.893-59.883c4.598-4.597 4.828-11.897.706-16.773z" fill="#f2ad97"/></g><g><path d="m145.39 184.03h-24.422c-1.199 0-2.171-.972-2.171-2.171 0-1.199.972-2.171 2.171-2.171h21.528c8.238 0 14.916-6.678 14.916-14.916 0-2.116-.447-4.125-1.241-5.949 2.556 2.677 4.135 6.296 4.135 10.291 0 8.238-6.678 14.916-14.916 14.916z" fill="#f2ad97"/></g><g><path d="m140.353 178.527h3.025c4.418 0 8-3.582 8-8v-2.825c0-4.418-3.582-8-8-8h-3.025c-1.105 0-2 .895-2 2v14.825c0 1.104.896 2 2 2z" fill="#ffd2c0"/></g><g><path d="m58.994 248.546h-33.683c-2.761 0-5-2.239-5-5v-69.372c0-2.761 2.239-5 5-5h33.683c2.761 0 5 2.239 5 5v69.372c0 2.761-2.238 5-5 5z" fill="#377de2"/></g><g><path d="m63.994 174.174c0-2.761-2.239-5-5-5h-5v64.372c0 2.761-2.239 5-5 5h-28.683v5c0 2.761 2.239 5 5 5h33.683c2.761 0 5-2.239 5-5z" fill="#2266d3"/></g></g></g></g></g><g><g><path d="m192.227 141.537-29.756-29.756c-1.26-1.26-.368-3.414 1.414-3.414h15.427v-39.324c0-1.105.895-2 2-2h24.658c1.105 0 2 .895 2 2v39.324h15.427c1.782 0 2.674 2.154 1.414 3.414l-29.756 29.756c-.781.781-2.047.781-2.828 0z" fill="#648940"/></g><g><g><path d="m204.97 108.366h3v-39.324c0-1.105-.895-2-2-2h-3v39.324c0 1.105.896 2 2 2z" fill="#5a7a39"/></g><g><path d="m223.397 108.367h-5.172l-28.17 28.17c-.781.781-2.047.781-2.828 0l5 5c.781.781 2.047.781 2.828 0l29.756-29.756c1.26-1.26.368-3.414-1.414-3.414z" fill="#5a7a39"/></g></g></g></g></svg>