<?xml version="1.0" encoding="iso-8859-1"?>
<!-- Generator: Adobe Illustrator 19.0.0, SVG Export Plug-In . SVG Version: 6.00 Build 0)  -->
<svg version="1.1" id="Capa_1" xmlns="http://www.w3.org/2000/svg" xmlns:xlink="http://www.w3.org/1999/xlink" x="0px" y="0px"
	 viewBox="0 0 60 60" style="enable-background:new 0 0 60 60;" xml:space="preserve">
<g>
	<g>
		<path d="M54,11c0-2.757-2.243-5-5-5s-5,2.243-5,5v5h5C51.757,16,54,13.757,54,11z"/>
		<path d="M11,6c-2.757,0-5,2.243-5,5s2.243,5,5,5h5v-5C16,8.243,13.757,6,11,6z"/>
		<path d="M6,49c0,2.757,2.243,5,5,5s5-2.243,5-5v-5h-5C8.243,44,6,46.243,6,49z"/>
		<path d="M49,38h-5V22h5c6.065,0,11-4.935,11-11S55.065,0,49,0S38,4.935,38,11v5H22v-5c0-6.065-4.935-11-11-11S0,4.935,0,11
			s4.935,11,11,11h5v16h-5C4.935,38,0,42.935,0,49s4.935,11,11,11s11-4.935,11-11v-5h16v5c0,6.065,4.935,11,11,11s11-4.935,11-11
			S55.065,38,49,38z M18,49c0,3.86-3.14,7-7,7s-7-3.14-7-7s3.14-7,7-7h7V49z M18,18h-7c-3.86,0-7-3.14-7-7s3.14-7,7-7s7,3.14,7,7V18
			z M38,38H22V22h16V38z M42,11c0-3.86,3.14-7,7-7c3.859,0,7,3.14,7,7s-3.141,7-7,7h-7V11z M49,56c-3.86,0-7-3.14-7-7v-7h7
			c3.859,0,7,3.14,7,7S52.859,56,49,56z"/>
		<path d="M49,44h-5v5c0,2.757,2.243,5,5,5s5-2.243,5-5S51.757,44,49,44z"/>
	</g>
</g>
<g>
</g>
<g>
</g>
<g>
</g>
<g>
</g>
<g>
</g>
<g>
</g>
<g>
</g>
<g>
</g>
<g>
</g>
<g>
</g>
<g>
</g>
<g>
</g>
<g>
</g>
<g>
</g>
<g>
</g>
</svg>
