<?xml version="1.0" encoding="iso-8859-1"?>
<!-- Generator: Adobe Illustrator 19.0.0, SVG Export Plug-In . SVG Version: 6.00 Build 0)  -->
<svg version="1.1" id="Layer_1" xmlns="http://www.w3.org/2000/svg" xmlns:xlink="http://www.w3.org/1999/xlink" x="0px" y="0px"
	 viewBox="0 0 512 512" style="enable-background:new 0 0 512 512;" xml:space="preserve">
<g>
	<g>
		<polygon points="350.118,9.78 350.118,33.391 350.118,57.002 350.118,150.585 443.705,150.585 467.316,150.585 490.927,150.585 		
			"/>
	</g>
</g>
<g>
	<g>
		<path d="M484.011,183.976h-16.696H333.422c-9.219,0-16.696-7.475-16.696-16.696V33.391V16.696V0H122.598
			c-9.22,0-16.696,7.475-16.696,16.696v226.178c5.475-0.879,11.044-1.471,16.696-1.747c2.495-0.122,5.004-0.188,7.53-0.188
			c3.071,0,6.126,0.101,9.166,0.282c37.214,2.196,71.893,17.725,98.472,44.307c0.001,0,0.001,0,0.001,0
			c0.001,0.001,0.001,0.001,0.001,0.002c28.752,28.75,44.586,66.977,44.586,107.637c0,20.448-4.009,40.28-11.648,58.602
			c-2.385,5.722-5.126,11.295-8.209,16.696c-3.3,5.778-6.998,11.351-11.067,16.696h232.58c9.222,0,16.696-7.475,16.696-16.696
			V183.976H484.011z"/>
	</g>
</g>
<g>
	<g>
		<path d="M225.144,321.76l-42.054,42.055l-29.35,29.35l71.404,71.404c1.316-1.741,2.559-3.526,3.77-5.328
			c0.041-0.063,0.082-0.126,0.125-0.189c1.545-2.307,3.014-4.659,4.385-7.06c10.133-17.726,15.539-37.861,15.539-58.828
			C248.963,367.058,240.6,342.235,225.144,321.76z"/>
	</g>
</g>
<g>
	<g>
		<path d="M113.432,393.165c0-4.429,1.76-8.674,4.891-11.806l47.606-47.606l35.604-35.604
			c-19.978-15.08-44.095-23.385-69.503-23.781c-0.634-0.01-1.267-0.038-1.902-0.038c-65.525,0-118.835,53.31-118.835,118.836
			S64.603,512,130.128,512c26.105,0,50.928-8.363,71.405-23.818l-83.211-83.211C115.192,401.839,113.432,397.594,113.432,393.165z"
			/>
	</g>
</g>
<g>
</g>
<g>
</g>
<g>
</g>
<g>
</g>
<g>
</g>
<g>
</g>
<g>
</g>
<g>
</g>
<g>
</g>
<g>
</g>
<g>
</g>
<g>
</g>
<g>
</g>
<g>
</g>
<g>
</g>
</svg>
