<svg height="512pt" viewBox="0 0 512 512" width="512pt" xmlns="http://www.w3.org/2000/svg"><path d="m448.800781 0h-192.800781c-34.90625 0-63.199219 28.242188-63.199219 63.199219v289.199219c0 12.269531 14.070313 19.445312 24 12l60.265625-45.199219h171.734375c34.90625 0 63.199219-28.242188 63.199219-63.199219v-192.800781c0-34.90625-28.242188-63.199219-63.199219-63.199219zm-96.402343 246.898438c-8.277344 0-15-6.71875-15-15 0-8.277344 6.722656-15 15-15 8.28125 0 15 6.722656 15 15 0 8.28125-6.71875 15-15 15zm15-66.335938v3.136719c0 8.285156-6.714844 15-15 15-8.28125 0-15-6.714844-15-15v-16.066407c0-8.285156 6.71875-15 15-15 13.878906 0 25.167968-11.289062 25.167968-25.167968 0-13.875-11.289062-25.164063-25.167968-25.164063-13.949219 0-25.164063 11.28125-25.164063 25.148438 0 8.285156-6.71875 15.011719-15 15.011719-8.285156 0-15-6.710938-15-14.992188v-.019531c0-30.507813 24.695313-55.148438 55.148437-55.148438 30.4375 0 55.183594 24.746094 55.183594 55.167969 0 25.21875-17.011718 46.542969-40.167968 53.09375zm0 0"/><path d="m166.238281 311.898438c0 39.160156-31.746093 70.90625-70.90625 70.90625-39.160156 0-70.90625-31.746094-70.90625-70.90625 0-39.164063 31.746094-70.910157 70.90625-70.910157 39.160157 0 70.90625 31.746094 70.90625 70.910157zm0 0"/><path d="m95.332031 382.804688c-52.648437 0-95.332031 42.683593-95.332031 95.332031v18.863281c0 8.285156 6.714844 15 15 15h160.667969c8.28125 0 15-6.714844 15-15v-18.863281c0-52.648438-42.683594-95.332031-95.335938-95.332031zm0 0"/></svg>