<svg id="Layer_1" enable-background="new 0 0 512 512" height="512" viewBox="0 0 512 512" width="512" xmlns="http://www.w3.org/2000/svg"><path clip-rule="evenodd" d="m367.949 221.064h-129.998c-11.376 0-20.683-9.307-20.683-20.683v-15.185c0-6.832 3.358-12.917 8.505-16.689 18.648 21.72 46.304 35.482 77.177 35.482s58.529-13.762 77.177-35.482c5.146 3.771 8.505 9.857 8.505 16.689v15.185c0 11.376-9.307 20.683-20.683 20.683zm-301.682 108.278 74.598 131.81c3.607 6.373 1.344 14.539-5.03 18.146l-25.374 14.361c-6.373 3.607-14.539 1.344-18.146-5.029l-74.598-131.81c-3.607-6.373-1.344-14.539 5.03-18.146l25.374-14.36c6.373-3.609 14.539-1.345 18.146 5.028zm-18.597 17.124c-4.951.724-8.377 5.324-7.653 10.275s5.324 8.377 10.275 7.654c4.951-.724 8.377-5.324 7.653-10.275-.724-4.952-5.324-8.378-10.275-7.654zm41.298-9.497 52.653 93.034 11.249-6.494 119.039 31.897c17.123 4.589 33.639 2.421 48.734-6.871l164.117-101.057c23.373-14.39 13.048-77.376-57.25-36.435l-90.435 52.674c-4.55 2.65-9.181 4.601-13.918 5.905-7.508 11.55-23.417 16.951-36.545 13.528-19.513-5.16-38.997-10.428-58.494-15.651-4.263-1.139-6.795-5.519-5.656-9.781 1.139-4.263 5.519-6.795 9.781-5.656 19.374 5.19 38.729 10.453 58.119 15.581 12.715 1.792 21.741-4.432 25.106-16.994 3.638-13.576-4.699-26.966-18.071-31.302-36.026-6.498-71.351-21.562-92.985-28.577-19.403-6.294-37.354.958-55.007 11.185zm213.982-320.344c-47.321 0-85.682 38.362-85.682 85.682s38.361 85.683 85.682 85.683 85.682-38.362 85.682-85.683-38.361-85.682-85.682-85.682zm32.6 56.559c1.708 4.073-.208 8.76-4.281 10.469-4.073 1.708-8.76-.208-10.469-4.281-3.722-8.865-13.007-12.587-22.071-10.761-6.596 1.329-12.8 5.759-12.44 13.168.42 8.656 11.074 11.204 18.02 12.345 15.896 2.61 31.72 9.222 33.915 27.303.092.764.151 1.673.176 2.718.383 16.066-13.051 25.204-27.45 27.617v4.765c0 4.418-3.582 8-8 8s-8-3.582-8-8v-4.92c-13.105-2.526-23.916-11.023-27.237-24.346-1.053-4.28 1.564-8.603 5.844-9.656s8.603 1.564 9.656 5.844c2.306 9.253 11.868 13.201 20.67 12.99.855-.02 1.888-.103 3.089-.248 6.326-.768 15.678-3.854 15.492-11.671-.005-.233-.043-.637-.113-1.218-1.156-9.519-12.741-12.137-20.602-13.428-15.34-2.519-30.54-9.725-31.395-27.345-.74-15.25 10.417-26.288 24.598-29.405v-5.036c0-4.418 3.582-8 8-8s8 3.582 8 8v4.919c11.259 2.347 20.129 9.533 24.598 20.177zm-60.928 224.43h93.327c10.358 0 18.999 7.717 20.463 17.685l-56.276 32.777c1.857-19.509-10.758-37.776-29.805-43.951-8.147-2.64-18.767-3.999-27.709-6.511zm93.327-66.55c11.375 0 20.682 9.307 20.682 20.683v15.185c0 11.376-9.307 20.683-20.682 20.683h-124.444c-7.25-2.572-14.474-5.254-21.723-7.824-2.822-3.537-4.514-8.01-4.514-12.859v-15.185c0-11.376 9.307-20.683 20.683-20.683z" fill-rule="evenodd"/></svg>