<svg height="512" viewBox="0 0 32 32" width="512" xmlns="http://www.w3.org/2000/svg"><g id="_x31_7"><path d="m29 15h-4c0 2.7568359 2.2431641 5 5 5v-4c0-.5522461-.4472656-1-1-1z"/><path d="m25 30h4c.5527344 0 1-.4477539 1-1v-4c-2.7568359 0-5 2.2431641-5 5z"/><path d="m2 25v4c0 .5522461.4477539 1 1 1h4c0-2.7568359-2.2431641-5-5-5z"/><path d="m24 15h-16c0 3.3085938-2.6914063 6-6 6v3c3.3085938 0 6 2.6914063 6 6h16c0-3.3085938 2.6914063-6 6-6v-3c-3.3085937 0-6-2.6914062-6-6zm-8 7c1.1030273 0 2 .8969727 2 2 0 .9293823-.6397705 1.7054443-1.5 1.9290161v.5709839c0 .2763672-.2236328.5-.5.5s-.5-.2236328-.5-.5v-.5710449c-.8599854-.2235718-1.5-.9996338-1.5-1.9289551 0-.2763672.2236328-.5.5-.5s.5.2236328.5.5c0 .5512695.4487305 1 1 1s1-.4487305 1-1-.4487305-1-1-1c-1.1030273 0-2-.8969727-2-2 0-.9293823.6397705-1.7054443 1.5-1.9290161v-.5709839c0-.2763672.2236328-.5.5-.5s.5.2236328.5.5v.5710449c.8599854.2235718 1.5.9996338 1.5 1.9289551 0 .2763672-.2236328.5-.5.5s-.5-.2236328-.5-.5c0-.5512695-.4487305-1-1-1s-1 .4487305-1 1 .4487305 1 1 1z"/><path d="m7 15h-4c-.5522461 0-1 .4477539-1 1v4c2.7568359 0 5-2.2431641 5-5z"/><path d="m8 11c0-.5523071-.4476929-1-1-1h-2c-.5523071 0-1 .4476929-1 1v3h4z"/><path d="m13 9c0-.5523071-.4476929-1-1-1h-2c-.5523071 0-1 .4476929-1 1v5h4z"/><path d="m18 7c0-.5523071-.4476929-1-1-1h-2c-.5523071 0-1 .4476929-1 1v7h4z"/><path d="m23 5c0-.5523071-.4476929-1-1-1h-2c-.5523071 0-1 .4476929-1 1v9h4z"/><path d="m28 3c0-.5523071-.4476929-1-1-1h-2c-.5523071 0-1 .4476929-1 1v11h4z"/></g></svg>