<svg id="Capa_1" enable-background="new 0 0 510.018 510.018" height="512" viewBox="0 0 510.018 510.018" width="512" xmlns="http://www.w3.org/2000/svg"><g><g><path d="m322.5 375.009h32.5c27.57 0 50-22.43 50-50v-31.59c10.16-6.572 28.85-19.945 47.689-40.021 36.604-39.009 56.422-85.039 57.309-133.111 1.249-67.654-54.989-120.278-119.998-120.278-65.027 0-121.247 52.645-119.997 120.277.887 48.072 20.704 94.103 57.309 133.111 18.838 20.076 37.529 33.449 47.689 40.021v31.59c0 11.028-8.972 20-20 20h-32.5c-28.948 0-52.5 23.552-52.5 52.5s23.552 52.5 52.5 52.5h97.499c8.272 0 15 6.728 15 15 0 8.271-6.728 15-15 15h-315v30h315c24.814 0 45-20.187 45-45 0-24.814-20.186-45-45-45h-97.5c-12.406 0-22.5-10.094-22.5-22.5 0-12.405 10.094-22.499 22.5-22.499zm22.5-255c0-24.853 20.147-45 45-45s45 20.147 45 45-20.147 45-45 45-45-20.148-45-45z"/><path d="m193.395 252.436-88.395-44.198-88.395 44.198 88.395 45.688z"/><path d="m120 429.279 90-45v-106.656l-90 46.518z"/><path d="m0 384.279 90 45v-105.138l-90-46.518z"/></g></g></svg>