<svg id="Layer_3" enable-background="new 0 0 64 64" height="512" viewBox="0 0 64 64" width="512" xmlns="http://www.w3.org/2000/svg"><g><g><path d="m40 15h12v2h-12z" fill="#4ab8e4"/></g><g><path d="m1 27h9v2h-9z" fill="#4ab8e4"/></g><g><path d="m7 19h8v2h-8z" fill="#4ab8e4"/></g><g><path d="m3 19h2v2h-2z" fill="#4ab8e4"/></g><g><path d="m49 21h6v2h-6z" fill="#4ab8e4"/></g><path d="m23.547 14.906-.547 1.094h-6c-1.246 0-2.405.636-3.074 1.687l-5.563 8.742c-.237.373-.363.806-.363 1.248 0 1.283 1.04 2.323 2.323 2.323 1.047 0 2.026-.523 2.607-1.395l5.07-7.605h2l-7 16h-7v6h13l3-6 5 4 4 9h6l-5-14-7-5 3-7 3.932 3.146c.691.553 1.55.854 2.435.854.419 0 .835-.068 1.233-.2l7.102-2.367c.775-.259 1.298-.984 1.298-1.802 0-1.453-1.178-2.631-2.631-2.631-.245 0-.488.034-.723.101l-6.646 1.899-6-6v-1.084z" fill="#fbe1d7"/><path d="m32.4 21.4-1.95 4.56-2.45-1.96-3 7h-9.37l4.37-10h-2v-5h5l.55-1.09 4.45 1.01v1.08z" fill="#1a5097"/><g><path d="m28 17v-1.08l-3.457-.785-6.743 15.865h7.2l3-7 2.45 1.96 1.95-4.56z" fill="#205fa6"/></g><path d="m37 50h-6l-4-9-5-4-3 6h-13v-6h7l2.62-6h9.38l7 5z" fill="#347e62"/><path d="m32 36-7-5h-7.2l-5.1 12h6.3l3-6 5 4 4 9h6z" fill="#3c9271"/><g><path d="m25.928 19c.657 0 1.257-.371 1.551-.959l.521-1.041v-1.084l-4.453-1.01-.547 1.094 1.485 2.228c.322.482.863.772 1.443.772z" fill="#e8c2bf"/></g><path d="m6 39c0-1.105-.895-2-2-2h-2v8c1.792 0 3.382-1.146 3.949-2.846l.051-.154" fill="#3d2f23"/><path d="m33 50c-1.105 0-2 .895-2 2v2h8c0-1.792-1.146-3.382-2.846-3.949l-.154-.051" fill="#3d2f23"/><path d="m27 2c-3.314 0-6 2.686-6 6v2c0 3.314 2.686 6 6 6 3.314 0 6-2.686 6-6v-2c0-3.314-2.686-6-6-6z" fill="#fbe1d7"/><path d="m27 7h5.91c-.477-2.837-2.938-5-5.91-5-3.314 0-6 2.686-6 6v2c0 1.7.71 3.231 1.846 4.323l4.154-3.323z" fill="#424344"/><g><circle cx="47" cy="47" fill="#134681" r="15"/><path d="m47 32c-3.633 0-6.963 1.292-9.559 3.441-2.149 2.596-3.441 5.926-3.441 9.559 0 8.284 6.716 15 15 15 3.633 0 6.964-1.292 9.559-3.441 2.149-2.596 3.441-5.926 3.441-9.559 0-8.284-6.716-15-15-15z" fill="#1a5097"/><circle cx="47" cy="47" fill="#b3b4b8" r="11"/><path d="m46 37c-2.783 0-5.317 1.042-7.254 2.746-1.704 1.937-2.746 4.471-2.746 7.254 0 6.075 4.925 11 11 11 2.783 0 5.317-1.042 7.254-2.746 1.704-1.937 2.746-4.471 2.746-7.254 0-6.075-4.925-11-11-11z" fill="#dbdcde"/><g><path d="m46 39h2v7h-2z" fill="#205fa6"/></g><g><path d="m48.928 46.34h2v4.833h-2z" fill="#205fa6" transform="matrix(.515 -.858 .858 .515 -17.568 66.486)"/></g><g><path d="m47 49c-1.103 0-2-.897-2-2s.897-2 2-2 2 .897 2 2-.897 2-2 2zm0-2.001v.001z" fill="#424344"/></g></g></g></svg>