<svg id="COLOR" height="512" viewBox="0 0 128 128" width="512" xmlns="http://www.w3.org/2000/svg"><path d="m115 58.29v11.42a50.8 50.8 0 0 1 -15.48 36.58c-.85.83-1.73 1.62-2.63 2.38a51 51 0 0 1 -14.37 8.55q-1.42.56-2.91 1a50 50 0 0 1 -14.07 2.4q-.75 0-1.5 0t-1.5 0a50 50 0 0 1 -14.07-2.4q-1.49-.46-2.91-1a51 51 0 0 1 -14.37-8.55c-.9-.76-1.78-1.55-2.63-2.38a50.8 50.8 0 0 1 -15.56-36.58v-11.42z" fill="#fda528"/><g fill="#f08103"><path d="m31.52 96.26v11.43a1.47 1.47 0 0 1 -.37 1c-.9-.76-1.78-1.55-2.63-2.38v-10a1.46 1.46 0 0 1 .4-1 1.47 1.47 0 0 1 1.1-.49 1.5 1.5 0 0 1 1.5 1.44z"/><path d="m48.52 106.34v11.43a1.27 1.27 0 0 1 -.09.47q-1.49-.46-2.91-1v-10.9a1.3 1.3 0 0 1 .1-.52 1.5 1.5 0 0 1 2.9.52z"/><path d="m65.5 109.21v11.43q-.75 0-1.5 0t-1.5 0v-11.43a1.5 1.5 0 0 1 3 0z"/><path d="m82.48 106.09v11.13q-1.42.56-2.91 1a1.27 1.27 0 0 1 -.09-.47v-11.66a1.5 1.5 0 0 1 3-.29 1.36 1.36 0 0 1 0 .29z"/><path d="m99.48 96.26v10c-.85.83-1.73 1.62-2.63 2.38a1.47 1.47 0 0 1 -.37-1v-11.38a1.5 1.5 0 0 1 1.5-1.5 1.47 1.47 0 0 1 1.1.49 1.46 1.46 0 0 1 .4 1.01z"/></g><circle cx="64" cy="58.29" fill="#eeeb79" r="50.96"/><circle cx="64" cy="58.29" fill="#f5bb2b" r="42.96" transform="matrix(.924 -.383 .383 .924 -17.43 28.93)"/><path d="m79.79 46.61h-6.22a18 18 0 0 0 -5.07-8.83h11.29a3.5 3.5 0 0 0 0-7h-31.58a3.5 3.5 0 0 0 0 7h2c7.58 0 14 3.73 16 8.83h-18a3.5 3.5 0 1 0 0 7h18.06c-2 5.09-8.46 8.83-16 8.83h-2a3.5 3.5 0 0 0 0 7h.63l20.1 19.08a3.5 3.5 0 1 0 4.82-5.08l-15.86-15c8-2.23 14.1-7.87 15.66-14.78h6.22a3.5 3.5 0 0 0 0-7z" fill="#f4efe0"/></svg>