<svg fill="none" height="512" viewBox="0 0 32 32" width="512" xmlns="http://www.w3.org/2000/svg"><path d="m15.9998 6.00004v-4.99998h3.7827c.1496-.002872.2979.0278.4341.08976.1361.06197.2567.15365.3527.26829.096.11465.165.24935.2021.39419.037.14484.0411.29614.0119.44276l-.7806 3.80498z" fill="#00aaa8"/><path d="m21.0035 8.00011h-9.0067c-.2654 0-.5199-.10536-.7076-.29289-.1877-.18754-.2931-.44189-.2931-.7071 0-.26522.1054-.51957.2931-.70711.1877-.18753.4422-.29289.7076-.29289h9.0067c.2654 0 .5199.10536.7076.29289.1877.18754.2931.44189.2931.70711 0 .26521-.1054.51956-.2931.7071-.1877.18753-.4422.29289-.7076.29289z" fill="#50d9d7"/><path d="m12.9975 6.00007-1.1909-4.75497c-.0373-.14758-.0404-.301732-.0091-.450698.0314-.148966.0963-.288818.1899-.408897.0937-.120078.2135-.217214.3504-.284003s.2872-.10146883.4395-.10139623h2.3368c.2384-.0034637.4702.07824513.6537.23041223.1834.152166.3065.364791.347.599583l.8857 5.169969z" fill="#00bebd"/><path d="m28.0085 32h-23.01699c-.34563-.0017-.68492-.0929-.98484-.2645-.29991-.1717-.55023-.418-.72657-.7151-.17635-.297-.2727-.6346-.27969-.9799s.07563-.6866.23981-.9905c1.47743-2.6565 2.25241-5.6457 2.25166-8.6849v-2.205c.00056-2.1373.61339-4.2298 1.76606-6.0302 1.15268-1.8004 2.79706-3.23342 4.73876-4.12978.05-.025-.7906 0 9.0066 0 1.9425.89536 3.5875 2.32818 4.7403 4.12878 1.1529 1.8006 1.7652 3.8936 1.7645 6.0312 0 2.905-.2051 6.4699 2.2517 10.8899.1642.3039.2468.6452.2398.9905s-.1034.6829-.2797.9799c-.1763.2971-.4267.5434-.7266.7151-.2999.1716-.6392.2628-.9848.2645z" fill="#00bebd"/><path d="m16.5 27.4999c3.8689 0 7.0052-3.134 7.0052-6.9999 0-3.866-3.1363-7-7.0052-7-3.8688 0-7.00513 3.134-7.00513 7 0 3.8659 3.13633 6.9999 7.00513 6.9999z" fill="#ea9706"/><path d="m16.5002 25.9999c3.0398 0 5.504-2.4624 5.504-5.4999 0-3.0376-2.4642-5.5-5.504-5.5-3.0399 0-5.5041 2.4624-5.5041 5.5 0 3.0375 2.4642 5.4999 5.5041 5.4999z" fill="#ffac00"/><path d="m18.2091 17.7247c0-.124-.1005-.2245-.2246-.2245h-2.8637c-.124 0-.2246.1005-.2246.2245 0 .1239.1006.2244.2246.2244h.6604c.5584 0 1.0239.3879 1.1206.8978h-1.7529c-.124 0-.2246.1005-.2246.2244s.1006.2244.2246.2244h1.7407c-.1191.482-.5706.8417-1.1083.8417h-.6487c-.2024 0-.3014.2477-.1548.387l2.0292 1.9296c.0434.0413.0991.0618.1548.0618.2018 0 .3014-.2477.1548-.387l-1.6222-1.5426h.0869c.7873 0 1.4424-.5594 1.5669-1.2905h.6363c.1241 0 .2246-.1005.2246-.2244s-.1005-.2244-.2246-.2244h-.6281c-.0458-.3488-.2116-.6617-.4563-.8978h1.0844c.1241 0 .2246-.1005.2246-.2244z" fill="#fff" stroke="#fff" stroke-width=".2"/></svg>