<svg id="Layer_1" enable-background="new 0 0 512 512" height="512" viewBox="0 0 512 512" width="512" xmlns="http://www.w3.org/2000/svg"><path clip-rule="evenodd" d="m140.393 176.398c30.915 0 55.977 17.619 55.977 58.251s-25.062 73.571-55.977 73.571c-30.917 0-55.978-32.939-55.978-73.571s25.063-58.251 55.978-58.251zm119.652-101.44h-50.067c-26.206 0-47.647 21.441-47.647 47.646 0 26.206 21.441 47.648 47.647 47.648l50.066-.001zm16-4.1c26.686-8.123 52.283-22.056 75.782-35.527v171.63c-23.52-13.866-48.415-26.313-75.783-33.315zm152.214 52.368c0-15.549-12.605-28.154-28.155-28.154l-1.375.004v-61.675c0-5.284-2.603-9.82-7.163-12.488-4.561-2.668-9.791-2.712-14.396-.123-3.066 1.724-6.182 3.504-9.343 5.321v190.577c2.915 1.817 5.811 3.643 8.692 5.467 4.576 2.898 9.972 3.065 14.717.453s7.492-7.259 7.492-12.675v-58.558l1.375.004c15.551.001 28.156-12.603 28.156-28.153zm-168.215 133.974v-70.951l-35.348.001v44.767c0 14.421 11.762 26.183 26.183 26.183zm194.145-175.268c-3.732 3.732-9.783 3.732-13.516 0-3.732-3.732-3.732-9.784 0-13.516l14.049-14.048c3.732-3.732 9.784-3.732 13.516 0s3.732 9.784 0 13.516zm12.385 50.852c-5.279 0-9.558-4.279-9.558-9.558 0-5.278 4.279-9.558 9.558-9.558h19.868c5.278 0 9.558 4.28 9.558 9.558 0 5.279-4.28 9.558-9.558 9.558zm-28.105 44.339c-3.732-3.732-3.732-9.784 0-13.516s9.784-3.732 13.516 0l14.048 14.048c3.732 3.732 3.732 9.784 0 13.516s-9.784 3.732-13.516 0zm-422.469 315.998h48.525v-87.023c0-4.418 3.582-8 8-8s8 3.582 8 8v87.023h119.735v-87.023c0-4.418 3.582-8 8-8s8 3.582 8 8v87.023h48.526v-113c0-27.682-24.656-43.402-52.708-50.36-47.104-11.685-94.857-12.475-143.368 0-27.988 7.194-52.71 22.662-52.71 50.36z" fill-rule="evenodd"/></svg>