<svg width="69" height="77" viewBox="0 0 69 77" fill="none" xmlns="http://www.w3.org/2000/svg">
<g filter="url(#filter0_d_226_148)">
<g clip-path="url(#clip0_226_148)">
<rect x="10.6858" y="36.1992" width="8.4" height="22.8" rx="4.2" fill="#FF3D00"/>
<rect x="10.6858" y="36.1992" width="8.4" height="8.4" rx="4.2" fill="#FF8B66"/>
</g>
<g clip-path="url(#clip1_226_148)">
<rect x="21.4858" y="27.7988" width="8.4" height="31.2" rx="4.2" fill="#333333"/>
<rect x="21.4858" y="27.7988" width="8.4" height="8.4" rx="4.2" fill="#858585"/>
</g>
<g clip-path="url(#clip2_226_148)">
<rect x="32.2859" y="19.3989" width="8.4" height="39.6" rx="4.2" fill="#FD9158"/>
<rect x="32.2859" y="19.3989" width="8.4" height="8.4" rx="4.2" fill="#FEBD9B"/>
</g>
<g clip-path="url(#clip3_226_148)">
<rect x="43.0859" y="10.999" width="8.4" height="48" rx="4.2" fill="#858585"/>
<rect x="43.0859" y="10.999" width="8.4" height="8.4" rx="4.2" fill="#B7B7B7"/>
</g>
</g>
<defs>
<filter id="filter0_d_226_148" x="-4.34483" y="-0.344827" width="77.5862" height="77.5862" filterUnits="userSpaceOnUse" color-interpolation-filters="sRGB">
<feFlood flood-opacity="0" result="BackgroundImageFix"/>
<feColorMatrix in="SourceAlpha" type="matrix" values="0 0 0 0 0 0 0 0 0 0 0 0 0 0 0 0 0 0 127 0" result="hardAlpha"/>
<feOffset dx="3.44828" dy="3.44828"/>
<feGaussianBlur stdDeviation="6.89655"/>
<feComposite in2="hardAlpha" operator="out"/>
<feColorMatrix type="matrix" values="0 0 0 0 0 0 0 0 0 0 0 0 0 0 0 0 0 0 0.05 0"/>
<feBlend mode="normal" in2="BackgroundImageFix" result="effect1_dropShadow_226_148"/>
<feBlend mode="normal" in="SourceGraphic" in2="effect1_dropShadow_226_148" result="shape"/>
</filter>
<clipPath id="clip0_226_148">
<rect x="10.6858" y="36.1992" width="8.4" height="22.8" rx="4.2" fill="white"/>
</clipPath>
<clipPath id="clip1_226_148">
<rect x="21.4858" y="27.7988" width="8.4" height="31.2" rx="4.2" fill="white"/>
</clipPath>
<clipPath id="clip2_226_148">
<rect x="32.2859" y="19.3989" width="8.4" height="39.6" rx="4.2" fill="white"/>
</clipPath>
<clipPath id="clip3_226_148">
<rect x="43.0859" y="10.999" width="8.4" height="48" rx="4.2" fill="white"/>
</clipPath>
</defs>
</svg>
