<svg height="512pt" viewBox="0 0 512 512" width="512pt" xmlns="http://www.w3.org/2000/svg"><path d="m330 257c0 8.398438-6.597656 15-15 15s-15-6.601562-15-15c0-8.402344 6.597656-15 15-15s15 6.597656 15 15zm0 0"/><path d="m388.5 270.5c.898438-4.199219 1.5-8.699219 1.5-13.5s-.601562-9.300781-1.5-13.5l-1.800781-10.5 26.699219-15.601562-15-25.800782-27 15.601563-8.097657-6.898438c-6.898437-6-14.699219-10.5-23.398437-13.800781l-9.902344-3.300781v-31.199219h-30v31.199219l-9.902344 3.300781c-8.699218 3.300781-16.5 7.800781-23.398437 13.800781l-8.101563 6.898438-27-15.597657-15 25.796876 26.703125 15.601562-1.800781 10.5c-.898438 4.199219-1.5 8.699219-1.5 13.5 0 4.796875.601562 9.300781 1.5 13.5l1.800781 10.5-26.699219 15.601562 15 25.800782 27-15.601563 8.101563 6.898438c6.898437 6 14.699219 10.5 23.398437 13.800781l9.902344 3.300781v31.199219h30v-31.199219l9.898438-3.300781c8.699218-3.300781 16.5-7.800781 23.398437-13.800781l8.101563-6.898438 27 15.597657 15-25.796876-26.703125-15.601562zm-73.5 31.5c-24.902344 0-45-20.101562-45-45 0-24.902344 20.097656-45 45-45s45 20.097656 45 45c0 24.898438-20.097656 45-45 45zm0 0"/><path d="m120 0v362h-30c-49.5 0-90 40.5-90 90v-392c0-33 27-60 60-60zm0 0"/><path d="m150 62v330h-60c-33.136719 0-60 26.863281-60 60s26.863281 60 60 60h422v-450zm300 405c-9.234375 0-280.585938 0-270 0v-30h270zm-30-210c0 2.699219 0 5.699219-.300781 8.398438l34.800781 20.101562-45 78-35.101562-20.402344c-4.796876 3.300782-9.296876 6-14.398438 8.398438v40.503906c-3.90625 0-94.535156 0-90 0v-40.5c-5.097656-2.398438-9.597656-5.101562-14.398438-8.398438l-35.101562 20.398438-45-78 34.800781-20.101562c-.296875-2.699219-.296875-5.699219-.296875-8.398438s0-5.699219.296875-8.398438l-34.800781-20.101562 45-78 35.101562 20.402344c4.796876-3.300782 9.296876-6 14.398438-8.402344v-40.5h90v40.5c5.097656 2.398438 9.597656 5.097656 14.398438 8.398438l35.101562-20.398438 45 78-34.800781 20.097656c.300781 2.703125.300781 5.703125.300781 8.402344zm0 0"/></svg>