<svg id="Capa_1" enable-background="new 0 0 512 512" height="512" viewBox="0 0 512 512" width="512" xmlns="http://www.w3.org/2000/svg"><path d="m120.105 349.468-115.712 115.712c-5.858 5.858-5.858 15.355 0 21.213l21.213 21.214c2.813 2.813 6.628 4.393 10.607 4.393 3.978 0 7.793-1.58 10.607-4.393l115.712-115.712c-16.587-11.444-30.983-25.84-42.427-42.427z"/><path d="m479.747 411.206c-14.212 12.914-33.076 20.794-53.747 20.794-17.429 0-34.009-5.528-47.947-15.986-2.01-1.508-3.936-3.123-5.792-4.814-19.066 15.6-31.261 39.3-31.261 65.8v20c0 8.284 6.716 15 15 15h140c8.284 0 15-6.716 15-15v-20c0-26.496-12.191-50.193-31.253-65.794z"/><path d="m426 402c27.57 0 50-22.43 50-50s-22.43-50-50-50c-4.125 0-8.131.512-11.968 1.458-7.156 23.783-19.535 45.326-35.814 63.276 6.304 20.401 25.339 35.266 47.782 35.266z"/><path d="m480.747 109.206c-14.212 12.914-33.076 20.794-53.747 20.794-20.664 0-39.523-7.876-53.734-20.782-5.955 4.878-11.244 10.541-15.696 16.838 26.903 21.075 47.118 50.311 56.897 83.944h82.533c8.284 0 15-6.716 15-15v-20c0-26.496-12.191-50.193-31.253-65.794z"/><path d="m31.253 109.206c-19.062 15.6-31.253 39.298-31.253 65.794v20c0 8.284 6.716 15 15 15h82.533c9.779-33.634 29.993-62.869 56.897-83.944-4.452-6.297-9.741-11.96-15.696-16.838-14.211 12.906-33.07 20.782-53.734 20.782-20.67 0-39.534-7.88-53.747-20.794z"/><path d="m85 100c-27.57 0-50-22.43-50-50s22.431-50 50-50 50 22.43 50 50-22.43 50-50 50z"/><path d="m427 100c-27.57 0-50-22.43-50-50s22.43-50 50-50 50 22.43 50 50-22.43 50-50 50z"/><path d="m201.13 379.335c16.774 7.492 35.343 11.665 54.87 11.665s38.096-4.173 54.87-11.665v-25.616c-1.21-29.584-25.263-52.719-54.87-52.719s-53.66 23.135-54.87 52.718z"/><circle cx="256" cy="241" r="30"/><path d="m256 121c-74.439 0-135 60.561-135 135 0 42.311 19.571 80.131 50.13 104.902v-7.473c0-.182.003-.364.01-.546.803-22.045 9.977-42.64 25.831-57.991 4.882-4.728 10.244-8.796 15.966-12.175-10.472-10.807-16.937-25.517-16.937-41.717 0-33.084 26.916-60 60-60s60 26.916 60 60c0 16.2-6.464 30.91-16.936 41.717 5.722 3.379 11.083 7.448 15.965 12.175 15.854 15.352 25.027 35.947 25.83 57.992.006.182.01.364.01.546v7.472c30.56-24.771 50.131-62.591 50.131-104.902 0-74.439-60.561-135-135-135z"/></svg>