<svg id="Layer_1" enable-background="new 0 0 512 512" height="512" viewBox="0 0 512 512" width="512" xmlns="http://www.w3.org/2000/svg"><path clip-rule="evenodd" d="m141 16c69.036 0 125 55.964 125 125 0 69.035-55.964 125-125 125-69.035 0-125-55.964-125-125s55.964-125 125-125zm230 230c-69.036 0-125 55.964-125 125s55.964 125 125 125c69.035 0 125-55.964 125-125s-55.965-125-125-125zm-29.536 81.297c0-16.31 13.224-29.534 29.538-29.534s29.538 13.224 29.538 29.534c0 16.314-13.224 29.538-29.538 29.538s-29.538-13.224-29.538-29.538zm93.446 100.468c0 35.295-127.82 35.295-127.82 0s28.617-63.908 63.912-63.908 63.908 28.613 63.908 63.908zm-61.378-245.438c-2.446-2.975-2.018-7.37.957-9.816s7.37-2.018 9.816.957l16.128 19.631v-49.094c0-8.947-3.652-17.072-9.542-22.962s-14.015-9.542-22.962-9.542h-68.549c-3.866 0-7-3.134-7-7s3.134-7 7-7h68.549c12.811 0 24.439 5.222 32.861 13.644s13.644 20.05 13.644 32.861v49.091l16.123-19.628c2.446-2.975 6.841-3.403 9.816-.957s3.403 6.841.957 9.816l-28.434 34.615c-.301.378-.645.73-1.033 1.05-2.975 2.446-7.37 2.018-9.816-.957zm-160.816 218.588c3.866 0 7 3.134 7 7s-3.134 7-7 7h-68.646c-12.811 0-24.439-5.222-32.861-13.644s-13.644-20.049-13.644-32.86v-49.508l-16.123 19.628c-2.446 2.975-6.841 3.403-9.816.957s-3.403-6.841-.957-9.816l28.434-34.615c.301-.378.645-.731 1.033-1.05 2.975-2.446 7.37-2.018 9.816.957l28.515 34.708c2.446 2.975 2.018 7.37-.957 9.816s-7.37 2.018-9.816-.957l-16.128-19.631v49.511c0 8.947 3.652 17.072 9.542 22.962s14.016 9.542 22.962 9.542zm-78.716-189.034v4.909c0 3.866 3.134 7 7 7s7-3.134 7-7v-4.909c0-3.866-3.134-7-7-7s-7 3.135-7 7zm0-113.628v32.583c-3.226 2.226-5.34 5.947-5.34 10.163 0 6.815 5.525 12.34 12.34 12.34 1.912 0 3.722-.435 5.337-1.211l17.801 10.277c3.337 1.918 7.598.767 9.516-2.57s.767-7.598-2.57-9.516l-17.779-10.264c-.289-3.824-2.322-7.161-5.304-9.219v-32.583c0-3.866-3.134-7-7-7s-7.001 3.134-7.001 7zm52.171 97.817 3.471 3.471c2.733 2.733 7.165 2.733 9.899 0 2.733-2.733 2.733-7.165 0-9.899l-3.471-3.471c-2.733-2.733-7.165-2.733-9.899 0s-2.733 7.166 0 9.899zm25.71-48.07h4.909c3.866 0 7-3.134 7-7s-3.134-7-7-7h-4.909c-3.866 0-7 3.134-7 7s3.135 7 7 7zm-15.811-52.172 3.471-3.471c2.733-2.733 2.733-7.165 0-9.899-2.733-2.733-7.165-2.733-9.899 0l-3.471 3.471c-2.733 2.733-2.733 7.165 0 9.898 2.734 2.734 7.166 2.734 9.899.001zm-100.242-9.899-3.471-3.471c-2.733-2.733-7.165-2.733-9.898 0s-2.733 7.165 0 9.899l3.471 3.471c2.733 2.733 7.165 2.733 9.898 0s2.733-7.166 0-9.899zm-25.71 48.071h-4.909c-3.866 0-7 3.134-7 7s3.134 7 7 7h4.909c3.866 0 7-3.134 7-7s-3.134-7-7-7zm15.811 52.171-3.471 3.471c-2.733 2.733-2.733 7.165 0 9.899 2.733 2.733 7.165 2.733 9.898 0l3.471-3.471c2.733-2.733 2.733-7.165 0-9.899-2.732-2.733-7.165-2.733-9.898 0zm62.071-116.053v-4.909c0-3.866-3.134-7-7-7s-7 3.134-7 7v4.909c0 3.866 3.134 7 7 7s7-3.134 7-7zm-7-34.654c-29.142 0-55.526 11.813-74.625 30.911-19.098 19.098-30.911 45.483-30.911 74.625s11.813 55.526 30.911 74.625c19.098 19.098 45.483 30.911 74.625 30.911s55.526-11.813 74.625-30.911c19.098-19.098 30.911-45.483 30.911-74.625s-11.813-55.526-30.911-74.625c-19.099-19.098-45.483-30.911-74.625-30.911zm64.726 40.81c-16.564-16.564-39.449-26.81-64.726-26.81s-48.162 10.246-64.726 26.809c-16.564 16.565-26.81 39.449-26.81 64.727s10.245 48.162 26.81 64.726c16.564 16.564 39.449 26.81 64.726 26.81 25.278 0 48.162-10.245 64.726-26.81 16.564-16.564 26.81-39.449 26.81-64.726-.001-25.278-10.246-48.162-26.81-64.726z" fill-rule="evenodd"/></svg>