<svg height="512" viewBox="0 0 64 64" width="512" xmlns="http://www.w3.org/2000/svg"><g id="Online_Shopping-Shopping-Smartphone-Shopping_Bag-Commerce" data-name="Online Shopping-Shopping-Smartphone-Shopping Bag-Commerce"><path d="m48 16a2 2 0 0 0 -4 0v1h4z"/><path d="m52 19h-2v2h-2v-2h-4v2h-2v-2h-2v8h12z"/><path d="m28 46a1 1 0 0 0 0-2h-4a1 1 0 0 0 0 2z"/><path d="m35.34 34.93-6.53 1.22a1.019 1.019 0 0 1 -1.01-.41 1 1 0 0 1 -.04-1.08l3.38-5.73a15.98 15.98 0 0 1 9.71-21.07 5 5 0 0 0 -4.85-3.86h-20a5 5 0 0 0 -5 5v36a4.032 4.032 0 0 0 .04.6l3.4-5.89a3.948 3.948 0 0 1 2.43-1.87 3.988 3.988 0 0 1 4.7 5.42 2.983 2.983 0 0 1 2.43-1.26h4a3 3 0 0 1 0 6h-4a3.009 3.009 0 0 1 -3-3 2.962 2.962 0 0 1 .17-.95l-3.44 5.95h18.27a5 5 0 0 0 5-5v-6.8a15.922 15.922 0 0 1 -5.66-3.27zm-6.34-14.93h-4v-2h4zm-11-14h2v2h-2zm5 15a5.013 5.013 0 1 1 -2.25-4.17l1.54-1.54 1.42 1.42-1.54 1.54a4.979 4.979 0 0 1 .83 2.75zm-1-13v-2h8v2zm3 14h4v2h-4z"/><path d="m17.707 22.707-1.414-1.414 2.992-2.993a2.951 2.951 0 0 0 -1.285-.3 3 3 0 1 0 3 3 2.951 2.951 0 0 0 -.3-1.285z"/><path d="m52 30v-1h-12v1a1 1 0 0 0 1 1h10a1 1 0 0 0 1-1z"/><path d="m15.13 50.5a1.031 1.031 0 0 0 .01 1.02l2.14 3.56a4.987 4.987 0 0 1 .72 2.57v3.35h-14v-16.81a9.038 9.038 0 0 1 .83-3.76l4.17-9.05v13.62a6.966 6.966 0 0 0 .89 3.41 1 1 0 0 0 1.78.09l4.5-7.79a2 2 0 0 1 1.21-.94 2.06 2.06 0 0 1 1.52.2 2 2 0 0 1 .73 2.74z"/><path d="m57.47 14.97a14 14 0 0 0 -24.29 13.64 1.042 1.042 0 0 1 -.06.91l-2.52 4.26 4.87-.91a1.087 1.087 0 0 1 .18-.01 1.011 1.011 0 0 1 .69.27 14 14 0 0 0 21.13-18.16zm-3.47 15.03a3.009 3.009 0 0 1 -3 3h-10a3.009 3.009 0 0 1 -3-3v-12a1 1 0 0 1 1-1h3v-1a4 4 0 0 1 8 0v1h3a1 1 0 0 1 1 1z"/></g></svg>