<svg id="Layer_1" enable-background="new 0 0 124 124" height="512" viewBox="0 0 124 124" width="512" xmlns="http://www.w3.org/2000/svg"><path d="m43.199 68.266h9.281v20.726h-9.281z"/><path d="m11.243 88.992h4.275v-12.822c0-1.18.953-2.137 2.129-2.137h13.539c1.176 0 2.129.957 2.129 2.137v12.822h5.625v-22.863c0-1.18.953-2.137 2.129-2.137h13.539c1.176 0 2.129.957 2.129 2.137v22.863h5.625v-33.021c0-1.18.953-2.137 2.129-2.137h13.539c1.176 0 2.129.957 2.129 2.137v33.021h3.21v-46.351h-72.126z"/><path d="m66.622 58.108h9.281v30.884h-9.281z"/><path d="m41.747 103.972-.146 9.04c-.012.771-.438 1.476-1.114 1.844l-11.284 6.144h36.151l-11.434-6.176c-.692-.374-1.123-1.1-1.12-1.888l.028-8.964z"/><path d="m19.776 78.307h9.281v10.685h-9.281z"/><path d="m120.164 24.756c-.804 0-1.481-.578-1.611-1.373-.364-2.244-1.285-4.576-2.661-6.746-.409-.645-.322-1.478.212-2.025l2.687-2.755-3.183-3.374-2.533 2.596c-.561.575-1.445.656-2.101.197-1.896-1.329-4.198-2.33-6.482-2.818-.749-.16-1.292-.833-1.292-1.601v-3.857h-4.456v3.966c0 .8-.571 1.48-1.358 1.614-2.178.373-4.444 1.313-6.555 2.719-.649.432-1.52.341-2.067-.219l-2.642-2.708-3.29 3.263 2.582 2.649c.537.549.617 1.413.19 2.055-1.3 1.947-2.28 4.315-2.759 6.668-.155.759-.828 1.31-1.599 1.31h-3.621v4.725h11.283c-.087-.69-.18-1.38-.18-2.077 0-6.721 5.445-12.189 12.138-12.189 6.692 0 12.137 5.468 12.137 12.189 0 6.72-5.445 12.187-12.137 12.187-.84 0-1.665-.127-2.492-.259v11.816h4.505v-3.857c0-.8.571-1.48 1.359-1.614 2.178-.372 4.444-1.311 6.556-2.717.648-.434 1.518-.343 2.066.218l2.641 2.708 3.291-3.264-2.581-2.646c-.538-.552-.619-1.417-.191-2.059 1.302-1.948 2.282-4.315 2.759-6.666.155-.759.828-1.31 1.599-1.31h3.622v-4.747h-3.836z"/><path d="m99.199 35.211c.459.249 1.164.167 1.668.167 4.618 0 8.376-3.774 8.376-8.413 0-4.64-3.758-8.414-8.376-8.414s-8.376 3.774-8.376 8.414c0 .357-.048.933.098 1.266.208.472.421.217.945.406 4.466 1.613 5.233 6.34 5.665 6.574z"/><path d="m91.044 32.816h-88.915c-1.174 0-2.129.959-2.129 2.137v62.608c0 1.178.955 2.137 2.129 2.137h90.356c1.174 0 2.129-.959 2.129-2.137v-46.574-14.317s-.052-3.854-3.57-3.854zm-3.414 58.313c0 1.18-.953 2.137-2.129 2.137h-76.387c-1.176 0-2.129-.957-2.129-2.137v-50.625c0-1.18.953-2.137 2.129-2.137h76.386c1.176 0 2.129.957 2.129 2.137v50.625z"/></svg>