<svg id="Capa_1" enable-background="new 0 0 512 512" height="512" viewBox="0 0 512 512" width="512" xmlns="http://www.w3.org/2000/svg"><path d="m256 472c-57.696 0-111.938-22.468-152.735-63.265-40.797-40.797-63.265-95.039-63.265-152.735s22.468-111.938 63.265-152.735c40.797-40.797 95.039-63.265 152.735-63.265s111.938 22.468 152.735 63.265 63.265 95.039 63.265 152.735-22.468 111.938-63.265 152.735-95.039 63.265-152.735 63.265z" fill="#60b4fa"/><path d="m408.735 103.265c-40.797-40.797-95.039-63.265-152.735-63.265v432c57.696 0 111.938-22.468 152.735-63.265s63.265-95.039 63.265-152.735-22.468-111.938-63.265-152.735z" fill="#4699fa"/><circle cx="256" cy="256" fill="#ededed" r="141"/><path d="m256 115v282c77.872 0 141-63.128 141-141s-63.128-141-141-141z" fill="#d7d7d7"/><path d="m256 311c-30.327 0-55-24.673-55-55s24.673-55 55-55 55 24.673 55 55-24.673 55-55 55z" fill="#ff736e"/><path d="m311 256c0-30.327-24.673-55-55-55v110c30.327 0 55-24.673 55-55z" fill="#ff4641"/><path d="m497 271h-140c-8.284 0-15-6.716-15-15s6.716-15 15-15h140c8.284 0 15 6.716 15 15s-6.716 15-15 15z" fill="#505050"/><g fill="#676767"><path d="m155 271h-140c-8.284 0-15-6.716-15-15s6.716-15 15-15h140c8.284 0 15 6.716 15 15s-6.716 15-15 15z"/><path d="m256 170c-8.284 0-15-6.716-15-15v-140c0-8.284 6.716-15 15-15s15 6.716 15 15v140c0 8.284-6.716 15-15 15z"/><path d="m256 512c-8.284 0-15-6.716-15-15v-140c0-8.284 6.716-15 15-15s15 6.716 15 15v140c0 8.284-6.716 15-15 15z"/></g><path d="m271 155v-140c0-8.284-6.716-15-15-15v170c8.284 0 15-6.716 15-15z" fill="#505050"/><path d="m271 497v-140c0-8.284-6.716-15-15-15v170c8.284 0 15-6.716 15-15z" fill="#505050"/></svg>