<svg id="Layer_1" enable-background="new 0 0 512 512" height="512" viewBox="0 0 512 512" width="512" xmlns="http://www.w3.org/2000/svg"><g><g><path d="m249.31 468c-105.869 0-192-86.131-192-192s86.131-192 192-192 192 86.131 192 192-86.131 192-192 192zm0-368c-97.047 0-176 78.953-176 176s78.953 176 176 176 176-78.953 176-176-78.954-176-176-176z" fill="#289bc3"/></g><g><g><circle cx="257.309" cy="108" fill="#289bc3" r="88"/></g><g><path d="m321.309 164c0-22.091-17.909-40-40-40h-48c-22.091 0-40 17.909-40 40v4.393c16.044 16.997 38.782 27.607 64 27.607s47.956-10.61 64-27.607z" fill="#00d2d2"/></g><g><path d="m257.309 164c-13.255 0-24-10.745-24-24v-16h48v16c0 13.255-10.745 24-24 24z" fill="#d7e6f0"/></g><g><circle cx="257.309" cy="76" fill="#fab991" r="40"/></g></g><g><g><circle cx="121.309" cy="404" fill="#289bc3" r="88"/></g><g><path d="m185.309 460c0-22.091-17.909-40-40-40h-48c-22.091 0-40 17.909-40 40v4.393c16.045 16.997 38.782 27.607 64 27.607s47.956-10.61 64-27.607z" fill="#00d2d2"/></g><g><path d="m121.309 460c-13.255 0-24-10.745-24-24v-16h48v16c0 13.255-10.745 24-24 24z" fill="#d7e6f0"/></g><g><circle cx="121.309" cy="372" fill="#fab991" r="40"/></g></g><g><g><circle cx="393.309" cy="404" fill="#289bc3" r="88"/></g><g><path d="m457.309 460c0-22.091-17.909-40-40-40h-48c-22.091 0-40 17.909-40 40v4.393c16.044 16.997 38.782 27.607 64 27.607s47.956-10.61 64-27.607z" fill="#00d2d2"/></g><g><path d="m393.309 460c-13.255 0-24-10.745-24-24v-16h48v16c0 13.255-10.745 24-24 24z" fill="#d7e6f0"/></g><g><circle cx="393.309" cy="372" fill="#fab991" r="40"/></g></g><g><g><path d="m249.309 372h16c53.019 0 96-42.981 96-96 0-53.019-42.981-96-96-96h-16c-53.019 0-96 42.981-96 96 0 53.019 42.981 96 96 96z" fill="#e64178"/></g><g><circle cx="249.309" cy="276" fill="#ff6e91" r="96"/></g><g><circle cx="249.309" cy="276" fill="#d7e6f0" r="64"/></g><g><circle cx="249.309" cy="276" fill="#ff6e91" r="32"/></g><g><path d="m249.309 260h-136l-11.25-16.875c-2.967-4.452-7.963-7.125-13.313-7.125h-42.592c-12.329 0-19.683 13.741-12.844 24v16h63.952 168.048c-.001-8.836-7.164-16-16.001-16z" fill="#555a6e"/></g><g><path d="m97.261 276h-63.952v16c-6.839 10.259.515 24 12.844 24h42.593c5.35 0 10.345-2.674 13.313-7.125l11.25-16.875h136c8.837 0 16-7.164 16-16z" fill="#463c4b"/></g></g></g></svg>