<svg id="Layer_1" enable-background="new 0 0 512 512" viewBox="0 0 512 512" xmlns="http://www.w3.org/2000/svg"><g clip-rule="evenodd" fill-rule="evenodd"><path d="m84.76 159.67c.87-.19 1.52-.94 1.57-1.83s-.5-1.72-1.34-2.01c-20.38-7.1-34.07-26.36-34.07-47.94 0-27.99 22.76-50.76 50.75-50.76s50.76 22.77 50.76 50.76c0 21.58-13.68 40.84-34.06 47.94-.84.29-1.4 1.11-1.34 2 .05.9.69 1.65 1.57 1.84 35.91 7.92 62.01 40.29 62.01 77.08v84.92h-31.73v-76.71c0-1.1-.9-2-2-2-1.11 0-2 .89-2 2v76.71h-86.4v-76.71c0-1.11-.89-2-2-2-1.1 0-2 .9-2 2v76.71h-31.73v-84.92c0-36.78 26.1-69.16 62.01-77.08z" fill="#60b7ff"/><path d="m103.67 325.67h41.2v122.07h-41.2z" fill="#968996"/><path d="m58.48 325.67h41.19v122.07h-41.19z" fill="#968996"/><path d="m343.26 318.37c47.19 0 85.57 38.38 85.57 85.57s-38.39 85.57-85.57 85.57-85.57-38.38-85.57-85.57c0-47.18 38.38-85.57 85.57-85.57z" fill="#ffd064"/><path d="m343.26 314.37c-11.32 0-22.51 2.12-33.03 6.31l-5.48 2.19v-33.91c0-.47-.18-.92-.48-1.28l-104.21-124.36h286.41l-104.23 124.36c-.3.36-.47.81-.47 1.28v33.91l-5.48-2.19c-10.52-4.19-21.71-6.31-33.03-6.31z" fill="#87d4ed"/><path d="m207.92 121.34v-21.2c0-14.86 12.09-26.95 26.95-26.95h22.27c14.86 0 26.95 12.09 26.95 26.95v21.2z" fill="#60b7ff"/><path d="m479.41 126.19c.34.27.76.41 1.19.41.27 0 .53-.06.78-.15l2.01-.8 1.77 1.24c2.25 1.58 3.59 4.14 3.59 6.89v25.54h-290.98v-25.54c0-2.75 1.34-5.31 3.59-6.89l1.77-1.24 2.01.8c.25.1.51.16.78.16.44 0 .85-.14 1.19-.41l1.09-.85h270.12z" fill="#f1f1f2"/><path d="m305.17 121.34v-21.2c0-14.86 12.09-26.95 26.95-26.95h22.27c14.86 0 26.96 12.08 26.96 26.95v21.2z" fill="#60b7ff"/><path d="m402.43 100.14c0-14.86 12.09-26.95 26.95-26.95h22.27c14.86 0 26.95 12.09 26.95 26.95v21.2h-76.17z" fill="#60b7ff"/><g fill="#f6dccd"><path d="m418.87 45.15c0-11.93 9.71-21.64 21.64-21.64 11.94 0 21.65 9.7 21.65 21.64s-9.72 21.64-21.65 21.64-21.64-9.7-21.64-21.64z"/><path d="m343.26 66.79c-11.94 0-21.64-9.7-21.64-21.64s9.7-21.64 21.64-21.64 21.64 9.7 21.64 21.64-9.7 21.64-21.64 21.64z"/><path d="m246 66.79c-11.93 0-21.64-9.7-21.64-21.64s9.71-21.64 21.64-21.64c11.94 0 21.64 9.7 21.64 21.64s-9.7 21.64-21.64 21.64z"/></g><path d="m176.6 317.67h-23.73v-72.71c0-3.31-2.69-6-6-6-3.32 0-6 2.69-6 6v72.71h-78.39v-72.71c0-3.31-2.68-6-6-6-3.31 0-6 2.69-6 6v72.71h-23.73v-80.92c0-34.87 24.76-65.65 58.87-73.17 2.62-.58 4.54-2.83 4.7-5.51.15-2.68-1.49-5.13-4.02-6.02-18.77-6.53-31.38-24.28-31.38-44.16 0-25.78 20.97-46.76 46.75-46.76s46.76 20.97 46.76 46.76c0 19.88-12.61 37.63-31.38 44.16-2.54.89-4.18 3.34-4.02 6.02s2.08 4.93 4.7 5.51c34.11 7.52 58.87 38.3 58.87 73.17zm-35.73 126.07h-33.2v-114.07h33.2zm-78.39-114.07h33.19v114.07h-33.19zm72.31-173.24c15.76-10.77 25.64-28.82 25.64-48.54 0-32.4-26.36-58.76-58.76-58.76-32.39 0-58.75 26.36-58.75 58.76 0 19.72 9.87 37.77 25.64 48.54-31.91 13.28-53.81 44.99-53.81 80.32v86.92c0 3.31 2.69 6 6 6h29.73v120.07c0 3.31 2.69 6 6 6h90.39c3.31 0 6-2.69 6-6v-120.07h29.73c3.31 0 6-2.69 6-6v-86.92c0-35.33-21.9-67.04-53.81-80.32zm208.47 187.73c3.31 0 6 2.69 6 6v11.04c11.25 2.6 19.64 12.33 19.64 23.92 0 3.31-2.69 6-6 6s-6-2.69-6-6c0-6.95-6.12-12.61-13.64-12.61s-13.64 5.66-13.64 12.61c0 7.36 8.27 11.15 15.21 13.03 15.52 4.21 24.07 12.95 24.07 24.61 0 11.59-8.39 21.33-19.64 23.93v11.03c0 3.32-2.69 6-6 6s-6-2.68-6-6v-11.03c-11.25-2.6-19.64-12.34-19.64-23.93 0-3.31 2.68-6 6-6 3.31 0 6 2.69 6 6 0 6.96 6.12 12.61 13.64 12.61s13.64-5.65 13.64-12.61c0-7.36-8.27-11.15-15.21-13.03-15.52-4.21-24.07-12.95-24.07-24.61 0-11.59 8.39-21.32 19.64-23.92v-11.04c0-3.31 2.69-6 6-6zm35.91-59.05c-.9 1.08-1.4 2.44-1.4 3.85v28.01c-10.68-4.26-22.33-6.6-34.51-6.6s-23.83 2.34-34.51 6.6v-28.01c0-1.41-.5-2.77-1.41-3.85l-98.71-117.79h269.26zm45.66 118.83c0-44.98-36.59-81.57-81.57-81.57s-81.57 36.59-81.57 81.57 36.59 81.57 81.57 81.57 81.57-36.59 81.57-81.57zm-189.96-326.75h22.27c12.65 0 22.95 10.3 22.95 22.95v17.2h-68.17v-17.2c0-12.65 10.29-22.95 22.95-22.95zm11.13-49.68c9.73 0 17.64 7.91 17.64 17.64s-7.91 17.64-17.64 17.64c-9.72 0-17.64-7.91-17.64-17.64s7.92-17.64 17.64-17.64zm63.17 72.63c0-12.65 10.3-22.95 22.95-22.95h22.27c12.66 0 22.96 10.3 22.96 22.95v17.2h-68.18zm34.09-72.63c9.73 0 17.64 7.91 17.64 17.64s-7.91 17.64-17.64 17.64-17.64-7.91-17.64-17.64 7.91-17.64 17.64-17.64zm63.17 72.63c0-12.65 10.29-22.95 22.95-22.95h22.27c12.66 0 22.95 10.3 22.95 22.95v17.2h-68.17zm34.08-72.63c9.73 0 17.65 7.91 17.65 17.64s-7.92 17.64-17.65 17.64c-9.72 0-17.64-7.91-17.64-17.64s7.92-17.64 17.64-17.64zm-238.74 106.27c0-1.5.75-2.82 1.89-3.62.7.28 1.46.44 2.26.44 1.38 0 2.65-.47 3.66-1.26h267.36c1.01.79 2.28 1.26 3.66 1.26.8 0 1.56-.16 2.26-.44 1.14.8 1.89 2.12 1.89 3.62v21.54h-282.98zm294.98 0c0-6.83-4.2-12.71-10.15-15.18v-18.46c0-16.01-10.83-29.53-25.54-33.65 5.6-5.4 9.1-12.96 9.1-21.34 0-16.34-13.3-29.64-29.65-29.64-16.34 0-29.64 13.3-29.64 29.64 0 8.38 3.5 15.94 9.1 21.34-14.71 4.12-25.54 17.64-25.54 33.65v17.2h-5.08v-17.2c0-16.01-10.83-29.53-25.55-33.65 5.6-5.4 9.1-12.96 9.1-21.34 0-16.34-13.3-29.64-29.64-29.64-16.35 0-29.64 13.3-29.64 29.64 0 8.38 3.49 15.94 9.1 21.34-14.72 4.12-25.55 17.64-25.55 33.65v17.2h-5.08v-17.2c0-16.01-10.83-29.53-25.54-33.65 5.6-5.4 9.09-12.96 9.09-21.34 0-16.34-13.29-29.64-29.64-29.64-16.34 0-29.64 13.3-29.64 29.64 0 8.38 3.5 15.94 9.1 21.34-14.72 4.12-25.54 17.64-25.54 33.65v18.46c-5.96 2.48-10.15 8.35-10.15 15.18v27.54.02c0 .17.01.34.02.51.01.03.01.06.01.09.02.19.05.39.09.58.01.07.03.13.04.19.04.13.06.26.1.38.03.08.06.16.09.24.04.11.07.21.12.32.03.09.08.17.12.25.04.09.08.19.13.28.09.17.19.34.3.5.04.05.08.09.11.14.08.11.16.23.25.33.01.01.01.02.02.02l105.58 125.97v31.63c-28.1 16.17-47.06 46.5-47.06 81.17 0 51.6 41.97 93.57 93.57 93.57 51.59 0 93.57-41.97 93.57-93.57 0-34.67-18.96-65-47.06-81.17v-31.63l105.58-125.97s.01-.01.02-.02c.08-.1.16-.22.25-.33.03-.05.07-.09.1-.14.11-.16.21-.33.31-.5.05-.09.09-.19.13-.28.04-.08.08-.16.12-.25.05-.11.08-.22.12-.33.03-.07.06-.15.08-.23.04-.13.07-.26.1-.39.02-.06.04-.12.05-.18.04-.19.07-.39.09-.58 0-.03 0-.06 0-.09.02-.17.03-.34.03-.51 0-.01 0-.01 0-.02z"/></g></svg>