<svg id="Layer_1" enable-background="new 0 0 512 512" viewBox="0 0 512 512" xmlns="http://www.w3.org/2000/svg"><g clip-rule="evenodd" fill-rule="evenodd"><g><g><path d="m256 503.5c88.544 0 160.99-72.446 160.99-160.99v-114.136h-63.071v114.136c0 53.731-44.188 97.919-97.919 97.919s-97.919-44.188-97.919-97.919v-114.136h-63.071v114.136c0 88.545 72.446 160.99 160.99 160.99z" fill="#ff6372"/><path d="m416.99 278.933v-50.558h-63.071v50.558zm-258.909 0v-50.558h-63.071v50.558z" fill="#f0f0f0"/></g><path d="m276.765 239.4-15.761 57.282 40.568 2.649c3.968.259 5.926 4.925 3.33 7.938l-61.386 71.251c-3.333 3.87-9.635.509-8.28-4.415l15.762-57.282-40.569-2.649c-3.969-.259-5.925-4.925-3.33-7.938l61.387-71.252c3.332-3.868 9.634-.508 8.279 4.416z" fill="#ffd54f"/><g><path d="m74.79 174.55h129.817c1.865 0 3.391-1.526 3.391-3.39v-29.34c0-31.96-26.148-58.108-58.108-58.108h-20.382c-31.959 0-58.108 26.148-58.108 58.108v29.339c0 1.865 1.525 3.391 3.39 3.391z" fill="#ffd54f"/><ellipse cx="139.698" cy="49.126" fill="#fedfc5" rx="41.132" ry="40.627"/></g><g><path d="m307.392 174.55h129.817c1.865 0 3.391-1.526 3.391-3.39v-29.34c0-31.96-26.148-58.108-58.108-58.108h-20.382c-31.96 0-58.108 26.148-58.108 58.108v29.339c-.001 1.865 1.525 3.391 3.39 3.391z" fill="#6ce75a"/><ellipse cx="372.3" cy="49.126" fill="#fedfc5" rx="41.132" ry="40.627"/></g><g><path d="m180.329 206.65h151.342c2.174 0 3.953-1.778 3.953-3.953v-34.205c0-37.259-30.484-67.743-67.743-67.743h-23.761c-37.259 0-67.743 30.483-67.743 67.743v34.205c-.001 2.175 1.778 3.953 3.952 3.953z" fill="#43a2ff"/><ellipse cx="256" cy="60.43" fill="#fedfc5" rx="47.951" ry="47.363"/></g></g><path d="m433.102 167.051h-90.013c-.33-17.262-6.65-33.977-17.908-47.212-1.698-1.99-3.5-3.877-5.381-5.674 7.23-10.989 18.512-18.852 31.312-21.724 6.409 3.08 13.598 4.811 21.191 4.811 7.598 0 14.8-1.736 21.21-4.825 23.077 5.141 39.59 25.539 39.59 49.39v25.234zm-104.974 32.1v-30.657c0-28.549-19.866-52.932-47.575-58.889-7.405 3.632-15.738 5.688-24.554 5.688-8.81 0-17.144-2.056-24.549-5.688-27.709 5.957-47.575 30.341-47.575 58.889v30.657zm-159.217-32.1h-90.008v-25.233c0-23.851 16.507-44.25 39.59-49.39 6.414 3.089 13.607 4.825 21.21 4.825 7.589 0 14.777-1.731 21.186-4.815 12.805 2.877 24.087 10.739 31.317 21.733-1.882 1.792-3.684 3.679-5.382 5.669-11.258 13.233-17.578 29.948-17.913 47.211zm-29.209-151.054c18.54 0 33.628 14.861 33.628 33.128s-15.088 33.128-33.628 33.128c-18.545 0-33.633-14.861-33.633-33.128.001-18.266 15.088-33.128 33.633-33.128zm116.298 4.571c22.304 0 40.448 17.88 40.448 39.863 0 21.979-18.144 39.863-40.448 39.863s-40.448-17.885-40.448-39.863c0-21.984 18.144-39.863 40.448-39.863zm116.303-4.571c18.55 0 33.628 14.861 33.628 33.128s-15.078 33.128-33.628 33.128c-18.545 0-33.633-14.861-33.633-33.128-.001-18.266 15.088-33.128 33.633-33.128zm35.967 65.483c7.862-8.551 12.659-19.908 12.659-32.355 0-26.535-21.809-48.126-48.626-48.126-26.813 0-48.631 21.592-48.631 48.126 0 12.466 4.811 23.832 12.697 32.392-11.409 4.915-21.309 13.041-28.398 23.379-3.882-2.457-7.98-4.547-12.23-6.259 9.711-9.886 15.71-23.365 15.71-38.208 0-30.251-24.874-54.866-55.451-54.866-30.576 0-55.451 24.615-55.451 54.866 0 14.843 6 28.322 15.715 38.208-4.254 1.712-8.353 3.802-12.234 6.259-7.094-10.338-16.984-18.465-28.393-23.379 7.881-8.56 12.692-19.927 12.692-32.392 0-26.535-21.814-48.126-48.626-48.126-26.818 0-48.636 21.592-48.636 48.126 0 12.447 4.801 23.804 12.664 32.355-23.757 10.117-39.831 33.543-39.831 60.338v29.341c0 6.004 4.886 10.89 10.89 10.89h94.088v20.649c0 6.315 5.136 11.451 11.451 11.451h151.341c6.32 0 11.461-5.136 11.461-11.451v-20.649h94.079c6.009 0 10.89-4.886 10.89-10.89v-29.341c0-26.795-16.069-50.221-39.83-60.338zm-112.572 224.979-50.056 58.102 12.588-45.749c.599-2.169.189-4.499-1.123-6.343-1.306-1.826-3.372-2.976-5.622-3.127l-35.184-2.301 50.06-58.097-12.588 45.749c-.599 2.179-.189 4.499 1.123 6.339 1.307 1.839 3.372 2.99 5.622 3.141zm-11.701-65.073c1.538-5.579-.967-11.381-6.084-14.111-5.117-2.726-11.333-1.571-15.107 2.816l-61.389 71.251c-3.07 3.57-3.849 8.466-2.028 12.8 1.816 4.33 5.863 7.207 10.551 7.518l31.383 2.052-13.314 48.4c-1.538 5.589.962 11.39 6.079 14.121 1.858.986 3.853 1.457 5.83 1.457 3.471 0 6.872-1.481 9.282-4.268l61.389-71.26c3.061-3.561 3.844-8.461 2.033-12.8-1.821-4.33-5.872-7.211-10.56-7.508l-31.383-2.052 13.319-48.41v-.006zm-27.997 254.612c84.641 0 153.492-68.86 153.492-153.487v-56.078h-48.07v56.078c0 27.987-11.013 54.418-31.01 74.411-19.993 19.997-46.419 31.01-74.411 31.01-27.987 0-54.413-11.013-74.411-31.01-19.993-19.993-31.006-46.424-31.006-74.411v-56.078h-48.075v56.078c-.001 84.627 68.859 153.487 153.491 153.487zm-105.417-260.125v35.562h-48.075v-35.562zm258.908 0v35.562h-48.07v-35.562zm7.5-14.999h-63.073c-4.136 0-7.499 3.358-7.499 7.499v114.138c0 49.857-40.556 90.419-90.419 90.419-49.857 0-90.419-40.561-90.419-90.419v-114.137c0-4.141-3.358-7.499-7.499-7.499h-63.068c-4.146 0-7.504 3.358-7.504 7.499v114.138c0 44.83 17.573 87.089 49.49 119 31.911 31.907 74.171 49.49 119 49.49s87.089-17.583 119-49.49c31.921-31.911 49.49-74.17 49.49-119v-114.138c0-4.142-3.358-7.5-7.499-7.5z"/></g></svg>