<?xml version="1.0" encoding="utf-8"?>
<!-- Generator: Adobe Illustrator 27.1.1, SVG Export Plug-In . SVG Version: 6.00 Build 0)  -->
<svg version="1.1"
	 id="Layer_1" text-rendering="geometricPrecision" image-rendering="optimizeQuality" shape-rendering="geometricPrecision"
	 xmlns="http://www.w3.org/2000/svg" xmlns:xlink="http://www.w3.org/1999/xlink" x="0px" y="0px" viewBox="0 0 122.9 122.9"
	 style="enable-background:new 0 0 122.9 122.9;" xml:space="preserve">
<style type="text/css">
	.st0{fill-rule:evenodd;clip-rule:evenodd;fill:#565854;}
</style>
<g id="Layer_x0020_1">
	<path class="st0" d="M24.9,58.8C12.9,58.8,3.1,49,3.1,37s9.8-21.8,21.8-21.8C37,15.2,46.8,25,46.8,37S37,58.8,24.9,58.8z M18.3,37
		V26.6c0-0.7,0.5-1.4,1.3-1.4c0-0.6,0-1.4,0-2.1c0-1.9,2.9-1.9,2.9,0c0,0.7,0.1,1.4,0.1,2.1h1.8c0-0.6,0.1-1.4,0.1-2.1
		c0-1.9,2.9-1.9,2.9,0v2.4c4.9,1.7,5.5,8.5,1.9,11.5c3.6,3,3,9.9-1.9,11.5c0.1,2,0.1,3.9-1.4,3.9c-1.6,0-1.6-1.7-1.5-3.5h-1.8
		c0.1,1.9,0.1,3.5-1.5,3.5c-1.5,0-1.5-1.7-1.4-3.5c-0.7-0.1-1.3-0.6-1.3-1.4V37z M21.2,35.6H25c5,0,4.9-7.6,0-7.6h-3.8V35.6z"/>
	<path class="st0" d="M97.8,58.8C85.8,58.8,76,49,76,37c0-12.1,9.8-21.9,21.8-21.9c12.1,0,21.9,9.8,21.9,21.9
		C119.7,49,109.9,58.8,97.8,58.8z M96.4,48.3c-4.8-1.2-6.5-7.8-3.5-7.8c0.8,0,1.4,0.6,1.4,1.4c0,4.8,7.1,4.8,7.1,0c0-6-10-1.1-10-10
		c0-3.6,2.3-5.7,5-6.2c-0.1-0.9,0-1.9,0-2.8c0-1.9,2.9-1.9,2.9,0c0,0.9,0.1,1.9,0.1,2.7c2.7,0.6,5,2.7,5,6.3c0,1.9-2.9,1.9-2.9,0
		c0-4.7-7.1-4.8-7.1,0c0,6,10,1.2,10,10c0,3.1-2.1,5.6-5,6.3c0.1,2.2,0.1,4.1-1.5,4.1C96.2,52.4,96.3,50.5,96.4,48.3z"/>
	<path class="st0" d="M114.7,81.8H73.3c4.5-5.6,4.5-13.7,0-19.3h41.4c4.5,0,8.2,3.7,8.2,8.2v2.9C122.8,78.1,119.2,81.8,114.7,81.8z
		 M49.5,81.8H8.1c-4.5,0-8.1-3.7-8.1-8.2v-3c0-4.5,3.7-8.1,8.1-8.1h41.4C45,68.1,45,76.2,49.5,81.8z"/>
	<path class="st0" d="M61.4,85c-7.1,0-12.9-5.8-12.9-12.9c0-7.1,5.8-12.9,12.9-12.9S74.3,65,74.3,72.1C74.3,79.2,68.5,85,61.4,85z"
		/>
	<path class="st0" d="M40,103.5l13.2-22.9c1.9-3.2,6.9-0.4,5,2.9l-11.5,20h29.5l-11.5-20c-1.9-3.2,3.1-6.1,5-2.9l13.2,22.9h9.3
		c3.8,0,3.8,5.8,0,5.8H30.7c-3.7,0-3.7-5.8,0-5.8H40z"/>
	<path class="st0" d="M25,46c5,0,5-7.6,0-7.6h-3.8V46H25z"/>
</g>
</svg>
