<svg id="Capa_1" enable-background="new 0 0 512 512" height="512" viewBox="0 0 512 512" width="512" xmlns="http://www.w3.org/2000/svg"><g><path d="m271 360v-45h-30v45h-211v77h30v-47h181v47h30v-47h181v47h30v-77z" fill="#fc6"/><path d="m271 315h-15v122h15v-47h181v47h30v-77h-211z" fill="#ffa64d"/><g><path d="m256 330c-90.967 0-165-74.019-165-165s74.033-165 165-165 165 74.019 165 165-74.033 165-165 165z" fill="#f36a3d"/></g><path d="m421 165c0-90.981-74.033-165-165-165v330c90.967 0 165-74.019 165-165z" fill="#ec4c36"/><g id="Total_Factor_2_"><g><g><path d="m331 240h-156.475l62.022-75-62.022-75h156.475v60h-30v-30h-62.725l37.178 45-37.178 45h62.725v-30h30z" fill="#ecfffc"/></g></g><g><path d="m256 512c-24.814 0-45-20.186-45-45s20.186-45 45-45 45 20.186 45 45-20.186 45-45 45z" fill="#ffea80"/></g></g><path d="m301 467c0-24.814-20.186-45-45-45v90c24.814 0 45-20.186 45-45z" fill="#fc6"/><g fill="#d4f4ee"><path d="m256 141.454v47.092l19.453-23.546z"/><path d="m256 120h45v30h30v-60h-75z"/><path d="m331 180h-30v30h-45v30h75z"/></g><g><path d="m467 512c-24.814 0-45-20.186-45-45s20.186-45 45-45 45 20.186 45 45-20.186 45-45 45z" fill="#ffea80"/></g><path d="m512 467c0-24.814-20.186-45-45-45v90c24.814 0 45-20.186 45-45z" fill="#fc6"/><g><path d="m45 512c-24.814 0-45-20.186-45-45s20.186-45 45-45 45 20.186 45 45-20.186 45-45 45z" fill="#ffea80"/></g><path d="m90 467c0-24.814-20.186-45-45-45v90c24.814 0 45-20.186 45-45z" fill="#fc6"/></g></svg>