<?xml version="1.0" encoding="utf-8"?>
<!-- Generator: Adobe Illustrator 27.1.1, SVG Export Plug-In . SVG Version: 6.00 Build 0)  -->
<svg version="1.1" id="Layer_2_00000084488441352436463090000018076488638670142092_"
	 xmlns="http://www.w3.org/2000/svg" xmlns:xlink="http://www.w3.org/1999/xlink" x="0px" y="0px" viewBox="0 0 64 64"
	 style="enable-background:new 0 0 64 64;" xml:space="preserve">
<style type="text/css">
	.st0{fill:#565854;}
</style>
<path class="st0" d="M39.7,43.9l-9.5,4.8c-0.1,0-0.2,0.1-0.2,0.1c-0.1,0-0.3,0-0.4-0.2c-0.2-0.2-0.2-0.4-0.1-0.6l4.9-9.5
	c0,0,0,0,0.1-0.1c0,0,0,0,0-0.1l6.4-6.4V18.3h-7.8c-1.5,0-2.7-1.2-2.7-2.7V7.8H2.7C1.8,7.8,1,8.6,1,9.5v45c0,0.9,0.8,1.7,1.7,1.7
	h36.6c0.9,0,1.7-0.8,1.7-1.7V42.8l-1,1C39.9,43.8,39.8,43.8,39.7,43.9L39.7,43.9z M7.9,24.6H34c1.5,0,2.7,1.2,2.7,2.7S35.5,30,34,30
	H7.9c-1.5,0-2.7-1.2-2.7-2.7S6.4,24.6,7.9,24.6z M23,48.8H7.9c-1.5,0-2.7-1.2-2.7-2.7s1.2-2.7,2.7-2.7H23c1.5,0,2.7,1.2,2.7,2.7
	S24.5,48.8,23,48.8z M7.9,39.4c-1.5,0-2.7-1.2-2.7-2.7S6.4,34,7.9,34H28c1.5,0,2.7,1.2,2.7,2.7s-1.2,2.7-2.7,2.7H7.9z"/>
<path class="st0" d="M59.7,15.4c-0.2-0.2-0.5-0.2-0.7,0l-3.1,3.1l3.9,3.9l3.1-3.1c0.2-0.2,0.2-0.5,0-0.7L59.7,15.4z"/>
<path class="st0" d="M7.9,28.9H34c0.9,0,1.7-0.7,1.7-1.6S35,25.6,34,25.6H7.9c-0.9,0-1.7,0.7-1.7,1.6S7,28.9,7.9,28.9z"/>
<path class="st0" d="M28,35H7.9c-0.9,0-1.7,0.7-1.7,1.7s0.7,1.7,1.7,1.7H28c0.9,0,1.6-0.7,1.6-1.7S28.9,35,28,35z"/>
<path class="st0" d="M23,44.4H7.9c-0.9,0-1.7,0.7-1.7,1.7s0.7,1.7,1.7,1.7H23c0.9,0,1.6-0.7,1.6-1.7S24,44.4,23,44.4z"/>
<path class="st0" d="M33.1,17.3h7l-8.7-8.7v7.1C31.4,16.5,32.2,17.3,33.1,17.3z"/>
<path class="st0" d="M38.7,43.2L35,39.6L31.2,47L38.7,43.2z"/>
<path class="st0" d="M35.6,38.7l19.5-19.5l3.9,3.9L39.5,42.6L35.6,38.7z"/>
</svg>
