<svg id="Capa_1" enable-background="new 0 0 512 512" viewBox="0 0 512 512" xmlns="http://www.w3.org/2000/svg"><g><g><g><g><path d="m89.496 171.393c-13.632 0-24.971 10.919-24.971 24.493 0 16.104 11.531 69.037 25.533 69.037l255.438-43.579v-29.138c0-11.495-9.318-20.813-20.813-20.813z" fill="#0593fc"/></g><path d="m355.902 221.344h-1.143l-4.732 5.287-12.881-4.083-7.892-1.204h-2.49-236.706-.562l-.015-.015c-13.583-.307-24.936-11.37-24.953-24.953l-.008-.008v233.106h312.195v-187.317c0-11.495-9.318-20.813-20.813-20.813z" fill="#60b7ff"/><g><g><path d="m355.902 221.344h-29.138c11.495 0 20.813 9.318 20.813 20.813v187.317h29.138v-187.317c0-11.495-9.318-20.813-20.813-20.813z" fill="#26a6fe"/></g></g><g><path d="m369.924 384.961-12.771-17.08-24.702-12.351c-12.242-6.121-25.742-9.308-39.429-9.308s-27.187 3.187-39.429 9.308l-36.2 18.1c-5.014 2.507-10.542 3.812-16.147 3.812h-48.084c-14.258 0-26.339 11.205-26.638 25.46-.096 4.556.987 8.849 2.954 12.605l-1.038 3.289h-6.757l-4.786-6.224-5.036-3.912-25.112-9.76-50.249-76.767c-5.917-9.039-17.97-11.695-27.138-5.98-8.765 5.463-11.883 16.73-7.174 25.922l43.97 85.84c5.668 11.065 14.51 20.187 25.394 26.196l76.682 42.335c18.481 10.202 39.246 15.554 60.356 15.554h169.765l10.715-9.91v-109.996l-7.972-10.902z" fill="#fed2a4"/><path d="m376.274 377.441-19.122-9.561c.001.23.009.459.009.689 0 61.855-34.369 115.679-85.048 143.43h135.381l18.131-69.413-18.131-65.145z" fill="#ffbd86"/><g><path d="m407.494 512v-158.272c0-5.747 4.659-10.406 10.406-10.406h22.894l10.594 76.741-10.593 91.937z" fill="#d8ecfe"/></g><g><path d="m440.795 512v-168.679h60.799c5.747 0 10.406 4.659 10.406 10.406v147.866c0 5.747-4.659 10.406-10.406 10.406h-60.799z" fill="#fd8087"/></g><g><path d="m501.594 343.321h-29.138c5.747 0 10.406 4.659 10.406 10.407v147.866c0 5.747-4.659 10.406-10.406 10.406h29.138c5.747 0 10.406-4.659 10.406-10.406v-147.866c0-5.748-4.659-10.407-10.406-10.407z" fill="#fe646f"/></g></g><g><path d="m170.392 198.005 15.58 9.948 44.674 1.877 26.279-9.01 19.146-36.04v-22.9l-2.065-31.159-6.006-11.074-8.221-8.005c-11.215-7.467-24.677-11.826-39.16-11.826-39.082 0-70.764 31.682-70.764 70.764 0 14.484 4.359 27.945 11.826 39.16z" fill="#ffe177"/><g><path d="m259.778 91.641c7.467 11.215 11.826 24.677 11.826 39.16 0 39.082-31.682 70.764-70.764 70.764-14.484 0-27.945-4.359-39.16-11.826 12.681 19.047 34.34 31.604 58.938 31.604 39.082 0 70.764-31.682 70.764-70.764 0-24.598-12.556-46.257-31.604-58.938z" fill="#ffd15b"/></g></g><g><path d="m121.341 69.409h-14.049v-59.002c0-5.748-4.659-10.407-10.406-10.407h-35.383c-5.747 0-10.407 4.659-10.407 10.407v59.002h-13.806c-3.136 0-6.106 1.74-7.369 4.61-1.184 2.689-.77 5.673.884 7.877l38.236 50.981c1.608 2.144 3.798 3.831 6.355 4.63 5.229 1.634 10.678-.263 13.789-4.411l38.257-51.01c.853-1.137 1.465-2.459 1.641-3.869.593-4.758-3.101-8.808-7.742-8.808z" fill="#80d261"/></g><g><path d="m319.895 69.409h14.049v-59.002c0-5.748 4.659-10.407 10.406-10.407h35.382c5.747 0 10.406 4.659 10.406 10.407v59.002h13.807c3.136 0 6.106 1.74 7.369 4.61 1.184 2.689.77 5.673-.884 7.877l-38.236 50.981c-1.608 2.144-3.798 3.831-6.355 4.63-5.229 1.634-10.678-.263-13.789-4.411l-38.258-51.01c-.853-1.137-1.465-2.459-1.641-3.869-.592-4.758 3.103-8.808 7.744-8.808z" fill="#80d261"/></g></g><path d="m229.314 143.163c-5.483-1.938-11.534-4.269-14.848-6.868-1.345-1.055-2.133-3.251-1.833-5.109.295-1.831 1.566-3.126 3.885-3.959 5.67-2.039 10.654 2.208 10.968 2.481 3.039 2.766 7.744 2.574 10.545-.444 2.818-3.036 2.642-7.781-.394-10.599-2.078-1.929-5.563-4.243-9.898-5.666v-.923c0-4.142-3.358-7.5-7.5-7.5s-7.5 3.358-7.5 7.5v.614c-.43.129-.862.266-1.295.422-7.48 2.689-12.443 8.406-13.618 15.685-1.175 7.285 1.724 14.861 7.385 19.302 5.007 3.927 12.142 6.747 19.106 9.208 5.105 1.805 5.258 5.699 4.895 7.86-.617 3.668-3.703 7.632-9.021 7.667-5.816.046-7.338-.201-11.675-3.038-3.466-2.269-8.115-1.296-10.382 2.17-2.268 3.466-1.296 8.115 2.17 10.382 4.729 3.094 8.311 4.497 12.437 5.091v1.644c0 4.142 3.358 7.5 7.5 7.5s7.5-3.358 7.5-7.5v-2.44c9.104-2.963 14.925-11.028 16.264-18.991 1.829-10.894-4.074-20.736-14.691-24.489z" fill="#fe9738"/></g><path d="m249.17 443.981-11.003-12.062c-1.421-1.558-3.432-2.445-5.541-2.445h-80.091c-10.021 0-18.712-5.669-23.058-13.971 0 .001.001.002.001.003l-17.618-6.847c2.565 20.168 19.821 35.815 40.675 35.815h76.781l8.773 9.617c2.883 3.16 7.82 3.273 10.844.249 2.834-2.835 2.938-7.397.237-10.359z" fill="#ffbd86"/><g fill="#68ca44"><path d="m411.315 74.019c-1.263-2.87-4.233-4.61-7.369-4.61h-13.807v-43.13c-4.034 14.357-11.904 28.562-23.516 40.844-12.778 13.514-28.134 22.644-43.72 27.108l29.149 38.865c3.111 4.149 8.56 6.045 13.789 4.411 2.558-.799 4.748-2.486 6.355-4.63l38.236-50.981c1.653-2.204 2.067-5.187.883-7.877z"/><path d="m128.468 74.019c-1.263-2.87-4.233-4.61-7.369-4.61h-13.807v-43.13c-4.034 14.357-11.904 28.562-23.516 40.844-12.778 13.514-28.134 22.644-43.72 27.108l29.149 38.865c3.111 4.149 8.56 6.045 13.789 4.411 2.558-.799 4.748-2.486 6.355-4.63l38.236-50.981c1.653-2.204 2.067-5.187.883-7.877z"/></g></g><g/><g/><g/><g/><g/><g/><g/><g/><g/><g/><g/><g/><g/><g/><g/></svg>