<svg id="svg17040" height="512" viewBox="0 0 16.933333 16.933334" width="512" xmlns="http://www.w3.org/2000/svg" xmlns:svg="http://www.w3.org/2000/svg"><g id="layer1" transform="translate(0 -280.067)"><path id="path9108" d="m3.9682355 280.59479c-1.8964899 0-3.43905991 1.54309-3.43906991 3.43958-.00001 1.30822.83336001 2.65621 1.64228001 3.70107.80893 1.04487 1.6190201 1.78749 1.6190201 1.78749a.26460982.26460982 0 0 0 .3576 0s.8080399-.74262 1.6169598-1.78749c.8089302-1.04486 1.64279-2.39286 1.64279-3.70107.00001-1.89649-1.54309-3.43958-3.43958-3.43958zm0 1.58802c1.0197402 0 1.85156.83182 1.85156 1.85156 0 1.01975-.8318198 1.85364-1.85156 1.85364-1.0197399 0-1.8515699-.83389-1.8515699-1.85364 0-1.01974.83183-1.85156 1.8515699-1.85156zm3.8876201 2.64583c-.2402099 1.2238-.9834002 2.3409-1.6727699 3.23133-.8391102 1.08387-1.67742 1.85363-1.67742 1.85363-.2999201.27467-.7723601.27467-1.0722801 0 0 0-.84063-.76944-1.68001-1.85363-.0548-.0708-.11015-.14659-.16536-.22014v4.92631h1.9502699c.40889-.33013.92715-.52968 1.48931-.52968.5621602 0 1.0799101.19955 1.4888001.52968h4.5971404v-7.14272c0-.43516-.36014-.79478-.7953-.79478zm4.0503904 2.11667c-.14541.00053-.26304.11866-.26354.26406v5.55677h.36225c.4089-.33013.92715-.52968 1.48931-.52968s1.0799.19955 1.4888.52968h1.4211v-2.38125c-.00017-.0258-.004-.0513-.0114-.076l-.78754-2.62516c-.0383-.1786-.11241-.35417-.24185-.4961-.12943-.14193-.32771-.24236-.54725-.24236zm.52917 1.05678h1.96319c.11725.00002.22051.0772.25373.18965l.63459 2.11719c.0505.16968-.0767.34009-.25373.34003h-1.27538c-.0702.00053-.13767-.0271-.18759-.0765l-.45113-.45321h-.68368c-.14612.00053-.26503-.11743-.26562-.26355v-1.58801c-.000529-.14693.11869-.26618.26562-.26562zm0 3.17603h.52968c.36049-.008.36049.53696 0 .52917h-.52968c-.36048.008-.36048-.53695 0-.52917zm-7.4078205 1.58802c-1.0197399 0-1.85156.83131-1.85156 1.85105s.8318201 1.85363 1.85156 1.85363c1.0197401 0 1.8510501-.83389 1.8510501-1.85363s-.83131-1.85105-1.8510501-1.85105zm8.4666705 0c-1.01974 0-1.85156.83131-1.85156 1.85105s.83182 1.85363 1.85156 1.85363 1.85157-.83389 1.85157-1.85363-.83183-1.85105-1.85157-1.85105zm-11.9062504.52917v1.32188c-.0005292.14617.11738.2651.26355.26562h.81132c-.010001-.0873-.015499-.17578-.015499-.26562 0-.48851.1483802-.9433.4025501-1.32188zm5.4167199 0c.2541701.37858.4025601.83337.4025601 1.32188 0 .0898-.006.17829-.015499.26562h3.7382704c-.01-.0873-.016-.17578-.016-.26562 0-.48851.14839-.9433.40256-1.32188zm8.4666705 0c.25416.37858.40308.83337.40308 1.32188 0 .0898-.006.17829-.016.26562h.28009c.14693.00053.26618-.11869.26562-.26562v-1.32188zm-10.4438105.52916c.4352401 0 .7927199.35747.7927199.79272.0000101.43525-.3574698.7953-.7927199.7953-.4352399 0-.7953-.36006-.7953-.7953.0000201-.43523.3600702-.79272.7953-.79272zm8.4666705 0c.43524 0 .79272.35747.79272.79272 0 .43524-.35747.7953-.79272.7953s-.7953-.36006-.7953-.7953c.00001-.43523.36007-.79272.7953-.79272z" font-variant-ligatures="normal" font-variant-position="normal" font-variant-caps="normal" font-variant-numeric="normal" font-variant-alternates="normal" font-feature-settings="normal" text-indent="0" text-align="start" text-decoration-line="none" text-decoration-style="solid" text-decoration-color="#000000" text-transform="none" text-orientation="mixed" white-space="normal" shape-padding="0" isolation="auto" mix-blend-mode="normal" solid-color="#000000" solid-opacity="1" vector-effect="none"/></g></svg>