<svg id="Layer_1" height="512" viewBox="0 0 100 100" width="512" xmlns="http://www.w3.org/2000/svg"><path d="m82.5 70.833h-5c-1.38 0-2.5-1.119-2.5-2.5 0-1.38 1.12-2.5 2.5-2.5h11.667v-5h-6.667v-4.166h-5v4.166c-4.141 0-7.5 3.356-7.5 7.5 0 4.141 3.359 7.5 7.5 7.5h5c1.38 0 2.5 1.12 2.5 2.5 0 1.381-1.12 2.5-2.5 2.5h-11.667v5h6.667v4.167h5v-4.167c4.141 0 7.5-3.359 7.5-7.5s-3.359-7.5-7.5-7.5z"/><path d="m72.5 36.517v5.149h-5v-5.149c-6.237-.3-12.302-1.738-17.5-4.304v14.453c0 1.834 1.501 3.334 3.333 3.334h33.334c1.832 0 3.333-1.5 3.333-3.333v-14.454c-5.202 2.566-11.263 4.004-17.5 4.304z"/><path d="m90 26.654v-3.32c0-1.834-1.501-3.334-3.333-3.334h-6.667v-6.667c0-1.833-1.501-3.333-3.333-3.333h-13.334c-1.832 0-3.333 1.5-3.333 3.333v6.667h-6.667c-1.832 0-3.333 1.5-3.333 3.333v3.32c11.045 6.667 28.952 6.667 40 .001zm-25-11.654h10v5h-10z"/><path d="m35.833 29.167c-4.136 0-7.5-3.366-7.5-7.5s3.364-7.5 7.5-7.5h7.5v-.833c0-1.834-1.5-3.334-3.333-3.334h-26.667c-1.833 0-3.333 1.5-3.333 3.333v16.667c0 1.833 1.5 3.333 3.333 3.333h26.667c1.833 0 3.333-1.501 3.333-3.333v-.833z"/><path d="m43.333 19.167h-7.5c-1.375 0-2.5 1.126-2.5 2.5s1.125 2.5 2.5 2.5h7.5z"/><path d="m33.333 36.667c-8.096 0-13.633 6.537-12.302 14.525l2.015 12.097c.801 4.798 5.43 8.717 10.287 8.717 4.856 0 9.485-3.919 10.286-8.717l2.012-12.097c1.335-7.989-4.199-14.525-12.298-14.525z"/><path d="m10 76.943 11.081-3.688c3.177 3.295 7.578 5.417 12.253 5.417 4.674 0 9.069-2.122 12.252-5.417l13.001 4.33c2.611.872 4.746 3.834 4.746 6.582v5.833h-53.333z"/></svg>