<svg id="Layer_1" enable-background="new 0 0 512 512" height="512" viewBox="0 0 512 512" width="512" xmlns="http://www.w3.org/2000/svg"><g><path d="m272.066 512h-257.066c-8.284 0-15-6.716-15-15v-128.533c0-8.284 6.716-15 15-15h257.066c8.284 0 15 6.716 15 15v128.533c0 8.284-6.715 15-15 15z" fill="#ffc74c"/><path d="m272.066 353.467h-128.533v158.533h128.533c8.284 0 15-6.716 15-15v-128.533c0-8.284-6.715-15-15-15z" fill="#ff8f48"/><path d="m143.533 96.4c-79.144 0-143.533 64.389-143.533 143.533 0 8.284 6.716 15 15 15h80.333c8.284 0 15-6.716 15-15 0-33.088 5.087-64.991 13.957-87.527 6.719-17.073 14.767-26.006 19.243-26.006s12.524 8.933 19.243 26.006c8.87 22.536 13.957 54.439 13.957 87.527 0 8.284 6.716 15 15 15h80.333c8.284 0 15-6.716 15-15 0-79.144-64.388-143.533-143.533-143.533z" fill="#ff5651"/><path d="m143.533 96.4v30c4.477 0 12.524 8.933 19.243 26.006 8.87 22.536 13.957 54.439 13.957 87.527 0 8.284 6.716 15 15 15h80.333c8.284 0 15-6.716 15-15 0-79.144-64.388-143.533-143.533-143.533z" fill="#e92354"/><path d="m143.533 415.6c-8.284 0-15-6.716-15-15v-160.667c0-8.284 6.716-15 15-15s15 6.716 15 15v160.667c0 8.284-6.716 15-15 15z" fill="#0f1e32"/><g fill="#ffc74c"><path d="m400.6 64.267c-25.989 0-47.133 21.144-47.133 47.133s21.144 47.133 47.133 47.133 47.134-21.144 47.134-47.133-21.145-47.133-47.134-47.133z"/><path d="m400.6 38.033c8.284 0 15-6.716 15-15v-8.033c0-8.284-6.716-15-15-15s-15 6.716-15 15v8.033c0 8.284 6.715 15 15 15z"/><path d="m400.6 184.767c-8.284 0-15 6.716-15 15v8.033c0 8.284 6.716 15 15 15s15-6.716 15-15v-8.033c0-8.285-6.716-15-15-15z"/><path d="m473.689 59.523 5.68-5.679c5.857-5.857 5.858-15.355.001-21.213-5.858-5.859-15.355-5.859-21.214-.001l-5.68 5.679c-5.857 5.857-5.858 15.355-.001 21.213 5.86 5.86 15.357 5.858 21.214.001z"/><path d="m327.509 163.277-5.679 5.679c-5.857 5.858-5.856 15.355.001 21.213 5.872 5.871 15.369 5.845 21.214-.001l5.679-5.679c5.857-5.858 5.856-15.355-.001-21.213-5.86-5.857-15.357-5.857-21.214.001z"/><path d="m343.045 32.631c-5.859-5.859-15.356-5.859-21.214-.001-5.857 5.857-5.858 15.355-.001 21.213l5.679 5.679c5.859 5.859 15.357 5.858 21.214.001s5.858-15.355.001-21.213z"/><path d="m473.689 163.276c-5.859-5.857-15.356-5.857-21.214.001-5.857 5.858-5.856 15.355.001 21.213l5.68 5.679c5.872 5.871 15.369 5.845 21.214-.001 5.857-5.858 5.856-15.355-.001-21.213z"/><path d="m497 96.4h-8.033c-8.284 0-15 6.716-15 15s6.716 15 15 15h8.033c8.284 0 15-6.716 15-15s-6.716-15-15-15z"/><path d="m327.233 111.4c0-8.284-6.716-15-15-15h-8.033c-8.284 0-15 6.716-15 15s6.716 15 15 15h8.033c8.285 0 15-6.716 15-15z"/></g><path d="m432.733 351.333c-8.284 0-15-6.716-15-15v-49.267h-66.4v49.267c0 8.284-6.716 15-15 15s-15-6.716-15-15v-64.267c0-8.284 6.716-15 15-15h96.4c8.284 0 15 6.716 15 15v64.267c0 8.285-6.715 15-15 15z" fill="#ff8f48"/><path d="m417.733 336.333c0 8.284 6.716 15 15 15s15-6.716 15-15v-64.267c0-8.284-6.716-15-15-15h-48.2v30h33.2z" fill="#e95e3f"/><path d="m497 512h-224.934c-8.284 0-15-6.716-15-15v-112.466c0-8.284 6.716-15 15-15 8.276 0 14.987 6.703 15 14.976v.024c0 9.455 7.679 17.133 17.117 17.133h160.683c9.595 0 17.134-7.807 17.134-17.133 0-8.284 6.716-15 15-15s15 6.716 15 15v112.466c0 8.284-6.716 15-15 15z" fill="#93420f"/><path d="m512 497v-112.466c0-8.284-6.716-15-15-15s-15 6.716-15 15c0 9.326-7.539 17.133-17.134 17.133h-80.333v110.333h112.467c8.284 0 15-6.716 15-15z" fill="#5c1e09"/><path d="m464.866 431.667h-160.666c-25.744 0-47.134-20.797-47.134-47.133v-48.2c0-8.284 6.716-15 15-15h224.934c8.284 0 15 6.716 15 15v48.2c0 25.743-20.797 47.133-47.134 47.133z" fill="#c86425"/><path d="m512 384.534v-48.2c0-8.284-6.716-15-15-15h-112.467v110.333h80.333c26.337 0 47.134-21.39 47.134-47.133z" fill="#93420f"/><path d="m336.333 447.733c-8.284 0-15-6.716-15-15v-32.133c0-8.284 6.716-15 15-15s15 6.716 15 15v32.133c0 8.285-6.716 15-15 15z" fill="#ffc74c"/><path d="m432.733 447.733c-8.284 0-15-6.716-15-15v-32.133c0-8.284 6.716-15 15-15s15 6.716 15 15v32.133c0 8.285-6.715 15-15 15z" fill="#ff8f48"/><path d="m191.733 254.933h-96.4c-8.284 0-15-6.716-15-15 0-71.327 21.709-143.533 63.2-143.533s63.2 72.207 63.2 143.533c0 8.284-6.715 15-15 15z" fill="#f2f8f4"/><path d="m191.733 254.933c8.284 0 15-6.716 15-15 0-71.327-21.709-143.533-63.2-143.533v158.533z" fill="#d1e7e8"/><path d="m400.6 64.267v94.267c25.989 0 47.134-21.144 47.134-47.133s-21.145-47.134-47.134-47.134z" fill="#ff8f48"/></g></svg>