<svg height="512" viewBox="0 0 32 32" width="512" xmlns="http://www.w3.org/2000/svg"><g id="_x31_9"><path d="m29.4189453 7.0917969-13-5c-.265625-.1230469-.5722656-.1230469-.8378906 0l-13 5c-.4267578.1972656-.6582031.6640625-.5576172 1.1230469.1005859.4580078.5068359.7851562.9765625.7851562h26c.4697266 0 .8759766-.3271484.9765625-.7851563.1005859-.4589843-.1308594-.9257812-.5576172-1.1230468z"/><path d="m3 29c0 .5527344.4472656 1 1 1h24c.5527344 0 1-.4472656 1-1v-19h-26zm9.5 0c-.8284302 0-1.5-.6715698-1.5-1.5s.6715698-1.5 1.5-1.5 1.5.6715698 1.5 1.5-.6715698 1.5-1.5 1.5zm9 0c-.8284302 0-1.5-.6715698-1.5-1.5s.6715698-1.5 1.5-1.5 1.5.6715698 1.5 1.5-.6715698 1.5-1.5 1.5zm1.5-10v3c0 .5522461-.4476929 1-1 1h-3c-.5523071 0-1-.4477539-1-1v-3c0-.5523071.4476929-1 1-1h3c.5523071 0 1 .4476929 1 1zm-8-6c0-.5523071.4476929-1 1-1h3c.5523071 0 1 .4476929 1 1v3c0 .5522461-.4476929 1-1 1h-3c-.5523071 0-1-.4477539-1-1zm-3 6c0-.5523071.4476929-1 1-1h3c.5523071 0 1 .4476929 1 1v3c0 .5522461-.4476929 1-1 1h-3c-.5523071 0-1-.4477539-1-1zm-3.8535156-7.8535156c.1953125-.1953125.5117188-.1953125.7070313 0l2 2c.0937499.09375.1464843.2207031.1464843.3535156v10.5h12.5c.2763672 0 .5.2236328.5.5s-.2236328.5-.5.5h-13c-.2763672 0-.5-.2236328-.5-.5v-10.7929687l-1.8535156-1.8535156c-.1953125-.1953126-.1953125-.5117188 0-.7070313z"/></g></svg>