<?xml version="1.0" encoding="UTF-8"?>
<svg xmlns="http://www.w3.org/2000/svg" viewBox="0 0 64 64" width="512" height="512"><g id="Ikon"><path d="M59,20.5049V59a3.0033,3.0033,0,0,1-3,3H52V24.9494A2.5,2.5,0,0,0,51.5,20h-39a2.5,2.5,0,0,0-.5,4.9494V62H8a3.0033,3.0033,0,0,1-3-3V20.5049a2.985,2.985,0,0,1,1.3984-2.5371l24.001-15.14a3.0132,3.0132,0,0,1,3.2012,0l24,15.14A2.9836,2.9836,0,0,1,59,20.5049ZM14,28H50V26H14Zm0,4H50V30H14Zm19,4V34H31v2a1,1,0,0,0,2,0Zm3,4H35v4a1,1,0,0,1-1.4746.88L32,44.0586l-1.5254.8218A1,1,0,0,1,29,44V40H28a1.0009,1.0009,0,0,0-1,1v8a1.0009,1.0009,0,0,0,1,1h8a1.0009,1.0009,0,0,0,1-1V41A1.0009,1.0009,0,0,0,36,40Zm-3.5254,2.0425L33,42.3257V40H31v2.3257l.5254-.2832A1.0018,1.0018,0,0,1,32.4746,42.0425ZM42,52H41v4a1,1,0,0,1-1.4746.88L38,56.0586l-1.5254.8218A1,1,0,0,1,35,56V52H34a1.0009,1.0009,0,0,0-1,1v8a1.0009,1.0009,0,0,0,1,1h8a1.0009,1.0009,0,0,0,1-1V53A1.0009,1.0009,0,0,0,42,52Zm-3.5254,2.0425L39,54.3257V52H37v2.3257l.5254-.2832A1.0018,1.0018,0,0,1,38.4746,54.0425ZM30,52H29v4a1,1,0,0,1-1.4746.88L26,56.0586l-1.5254.8218A1,1,0,0,1,23,56V52H22a1.0009,1.0009,0,0,0-1,1v8a1.0009,1.0009,0,0,0,1,1h8a1.0009,1.0009,0,0,0,1-1V53A1.0009,1.0009,0,0,0,30,52Zm-3.5254,2.0425L27,54.3257V52H25v2.3257l.5254-.2832A1.0018,1.0018,0,0,1,26.4746,54.0425Z"/></g></svg>
