<?xml version="1.0" encoding="iso-8859-1"?>
<!-- Generator: Adobe Illustrator 19.0.0, SVG Export Plug-In . SVG Version: 6.00 Build 0)  -->
<svg version="1.1" id="Capa_1" xmlns="http://www.w3.org/2000/svg" xmlns:xlink="http://www.w3.org/1999/xlink" x="0px" y="0px"
	 viewBox="0 0 512 512" style="enable-background:new 0 0 512 512;" xml:space="preserve">
<g>
	<g>
		<path d="M192.553,118.024C167.754,93.226,42.158-28.635,6.943,6.653c-35.332,35.361,86.572,160.825,111.372,185.61
			c7.192,7.196,14.409,14.055,21.606,20.83l73.464-73.464C206.61,132.431,199.749,125.215,192.553,118.024z"/>
	</g>
</g>
<g>
	<g>
		<path d="M233.582,161.855l-71.435,71.435c20.209,17.816,39.831,33.673,57.44,46.069c2.807-14.121,9.119-27.769,20.706-39.356
			c10.785-10.796,24.331-17.941,39.146-21.006C267.076,201.465,251.299,181.951,233.582,161.855z"/>
	</g>
</g>
<g>
	<g>
		<path d="M368.672,351.668c-1.333-10.957-8.994-66.533-27.612-85.151c-20.391-20.391-56.631-28.242-79.556-5.303
			c-22.925,22.925-15.103,59.136,5.303,79.556c18.618,18.618,74.194,26.279,85.151,27.612l19.058,2.344L368.672,351.668z"/>
	</g>
</g>
<g>
	<g>
		<path d="M97.09,213.475c-37.024-37.006-63.411-67.723-82.626-93.765H0v120h124.486C115.389,231.258,106.249,222.639,97.09,213.475
			z"/>
	</g>
</g>
<g>
	<g>
		<path d="M235.941,119.71c19.486,20.695,36.685,40.908,51.522,60H360v30h-50.786c2.26,3.367,4.834,6.92,6.857,10.146
			c14.399,3.397,28.149,10.305,39.708,19.854H512v-120H235.941z M452,209.71h-62v-30h62V209.71z"/>
	</g>
</g>
<g>
	<g>
		<path d="M378.387,269.71c11.885,25.263,17.562,57.759,20.065,78.34l7.031,57.144l-57.188-7.031
			c-28.257-3.442-79.248-12.715-102.7-36.182c-12.299-12.305-21.14-28.652-25.272-46.088
			c-18.604-11.647-39.765-27.515-61.998-46.183H0v242h512v-242H378.387z"/>
	</g>
</g>
<g>
</g>
<g>
</g>
<g>
</g>
<g>
</g>
<g>
</g>
<g>
</g>
<g>
</g>
<g>
</g>
<g>
</g>
<g>
</g>
<g>
</g>
<g>
</g>
<g>
</g>
<g>
</g>
<g>
</g>
</svg>
