<svg width="779" height="200" viewBox="0 0 779 200" fill="none" xmlns="http://www.w3.org/2000/svg">
<g clip-path="url(#clip0_1_141)">
<path d="M132.57 0V66.96V199.25L199.14 132.68V0H132.57Z" fill="#FF3D00"/>
<path d="M0 66.96H132.57V0H66.58L0 66.96Z" fill="#D12400"/>
<path d="M479.78 103.01C460.01 103.01 443.98 86.71 444.43 66.84C444.87 47.51 461.15 32.29 480.48 32.29L508.63 32.22V0.520022H480.84C443.97 0.510022 413.19 29.78 412.65 66.64C412.1 104.12 442.43 134.78 479.78 134.78L489.07 134.76L513.44 103.07L479.77 103L479.78 103.01Z" fill="#000023"/>
<path d="M508.64 0.51001L508.6 134.61C508.6 134.61 508.62 134.61 508.64 134.61H543.09C543.09 134.61 543.13 134.63 543.13 134.61V33.64L508.64 0.51001Z" fill="#000023"/>
<path d="M298.8 0.0100098C298.8 0.0100098 298.77 0.0500098 298.8 0.0800098V30.95C298.8 30.95 298.79 30.96 298.8 30.96H346.25C346.25 30.96 346.29 30.98 346.29 31V134.6L382.01 103.41C382.01 103.41 382.02 103.39 382.02 103.38V31.01C382.02 31.01 382.04 30.97 382.06 30.97H407.41L432.61 0.0100098H298.8Z" fill="#000023"/>
<path d="M733.69 74.7101C733.69 74.7101 730.92 74.6701 730.93 74.6601L774.71 19.0101L774.53 0.200059L752.12 0.0600586L700.15 65.7101C700.15 65.7101 700.15 65.7301 700.15 65.7401V83.0201C700.15 83.0201 700.15 83.0401 700.15 83.0501L741.04 134.05L778.92 133.98L733.68 74.7201L733.69 74.7101Z" fill="#000023"/>
<path d="M656.88 103.58C656.88 103.58 656.86 103.56 656.85 103.56H601.07C601.07 103.56 601.02 103.52 601.04 103.49L655.82 28.92C655.82 28.92 655.83 28.89 655.82 28.87L633.63 0.0100098C633.63 0.0100098 633.61 0.0100098 633.6 0.0100098H526.43L558.35 30.67H612.48C612.48 30.67 612.53 30.71 612.51 30.74L558.39 104.01V104.03V134.62C558.39 134.62 558.41 134.62 558.43 134.62H682.69L656.89 103.59L656.88 103.58Z" fill="#000023"/>
<path d="M700.07 133.85L700.14 0.00998752C700.14 0.00998752 700.12 0.00998752 700.1 0.00998752H666.16C666.16 0.00998752 666.12 -0.0100125 666.12 0.00998752V94.99L700.07 133.84V133.85Z" fill="#000023"/>
<path d="M318.09 170.04V173.07H309.93V198.94H306.2V173.07H298.04V170.04H318.09Z" fill="#414042"/>
<path d="M345.81 170.04V198.95H342.04V185.58H327.36V198.95H323.63V170.04H327.36V182.54H342.04V170.04H345.81Z" fill="#414042"/>
<path d="M357.37 173.07V182.95H368.36V185.82H357.37V195.91H369.59V198.94H353.64V170.03H369.59V173.06H357.37V173.07Z" fill="#414042"/>
<path d="M391.93 173.07V182.95H402.92V185.82H391.93V195.91H404.15V198.94H388.2V170.03H404.15V173.06H391.93V173.07Z" fill="#414042"/>
<path d="M426.13 198.94L418.59 187.13H414.53V198.94H410.8V170.03H420.31C423.59 170.03 426.05 170.82 427.69 172.39C429.33 173.96 430.15 176.05 430.15 178.64C430.15 180.99 429.49 182.88 428.18 184.32C426.87 185.75 424.97 186.65 422.48 187.01L430.35 198.94H426.13ZM414.53 184.43H419.98C424.22 184.43 426.34 182.57 426.34 178.85C426.34 175.13 424.22 173.27 419.98 173.27H414.53V184.42V184.43Z" fill="#414042"/>
<path d="M440.27 187.3V198.94H436.54V170.03H445.72C449.03 170.03 451.5 170.8 453.14 172.35C454.78 173.89 455.6 176.01 455.6 178.68C455.6 181.35 454.75 183.5 453.06 185.01C451.36 186.53 448.92 187.29 445.72 187.29H440.27V187.3ZM450.3 182.75C451.3 181.79 451.8 180.44 451.8 178.69C451.8 176.94 451.3 175.51 450.3 174.57C449.3 173.63 447.67 173.15 445.4 173.15H440.28V184.18H445.4C447.67 184.18 449.3 183.7 450.3 182.74V182.75Z" fill="#414042"/>
<path d="M491.07 195.25C490.41 196.43 489.42 197.38 488.08 198.12C486.74 198.86 485.09 199.23 483.12 199.23C481.15 199.23 479.51 198.88 478.02 198.18C476.53 197.48 475.34 196.53 474.45 195.31C473.56 194.09 473.05 192.71 472.91 191.15H476.89C476.97 191.97 477.25 192.77 477.73 193.55C478.21 194.33 478.89 194.97 479.78 195.48C480.67 195.99 481.74 196.24 483 196.24C484.64 196.24 485.9 195.8 486.77 194.93C487.64 194.05 488.08 192.93 488.08 191.57C488.08 190.4 487.77 189.44 487.16 188.7C486.55 187.96 485.79 187.38 484.88 186.96C483.98 186.54 482.75 186.08 481.19 185.59C479.36 184.99 477.89 184.42 476.78 183.89C475.67 183.36 474.73 182.56 473.95 181.49C473.17 180.42 472.78 179.02 472.78 177.27C472.78 175.77 473.14 174.44 473.87 173.29C474.59 172.14 475.63 171.25 476.99 170.62C478.34 169.99 479.93 169.68 481.77 169.68C484.61 169.68 486.87 170.37 488.53 171.75C490.19 173.13 491.17 174.89 491.44 177.02H487.42C487.2 175.87 486.61 174.86 485.66 173.99C484.71 173.12 483.41 172.68 481.77 172.68C480.27 172.68 479.06 173.07 478.16 173.85C477.26 174.63 476.81 175.73 476.81 177.15C476.81 178.27 477.1 179.18 477.69 179.88C478.28 180.58 479.01 181.12 479.88 181.52C480.75 181.92 481.96 182.36 483.49 182.85C485.35 183.45 486.85 184.03 487.98 184.57C489.11 185.12 490.08 185.94 490.87 187.05C491.66 188.16 492.06 189.63 492.06 191.46C492.06 192.83 491.73 194.1 491.08 195.27L491.07 195.25Z" fill="#414042"/>
<path d="M519.38 171.55C521.53 172.81 523.21 174.56 524.44 176.82C525.67 179.07 526.28 181.62 526.28 184.47C526.28 187.32 525.67 189.86 524.44 192.12C523.21 194.37 521.52 196.13 519.38 197.39C517.23 198.65 514.82 199.28 512.14 199.28C509.46 199.28 507.04 198.65 504.86 197.39C502.68 196.13 500.98 194.38 499.76 192.12C498.53 189.87 497.91 187.32 497.91 184.47C497.91 181.62 498.53 179.08 499.76 176.82C500.99 174.57 502.69 172.81 504.86 171.55C507.03 170.29 509.46 169.66 512.14 169.66C514.82 169.66 517.23 170.29 519.38 171.55ZM506.8 174.53C505.23 175.45 504 176.76 503.11 178.47C502.22 180.18 501.78 182.18 501.78 184.48C501.78 186.78 502.22 188.74 503.11 190.47C504 192.19 505.23 193.51 506.8 194.43C508.37 195.35 510.15 195.8 512.15 195.8C514.15 195.8 515.89 195.34 517.46 194.41C519.03 193.48 520.26 192.16 521.15 190.45C522.04 188.74 522.48 186.75 522.48 184.49C522.48 182.23 522.04 180.19 521.15 178.48C520.26 176.77 519.03 175.46 517.46 174.54C515.89 173.62 514.12 173.17 512.15 173.17C510.18 173.17 508.37 173.63 506.8 174.54V174.53Z" fill="#414042"/>
<path d="M536.91 196.03H547.16V198.94H533.18V170.03H536.91V196.02V196.03Z" fill="#414042"/>
<path d="M556.34 170.04V187.38C556.34 190.22 556.97 192.32 558.23 193.67C559.49 195.02 561.22 195.7 563.44 195.7C565.66 195.7 567.33 195.02 568.56 193.65C569.79 192.28 570.4 190.19 570.4 187.38V170.04H574.13V187.38C574.13 191.32 573.15 194.27 571.2 196.26C569.24 198.24 566.63 199.23 563.35 199.23C560.07 199.23 557.49 198.24 555.54 196.26C553.59 194.28 552.61 191.32 552.61 187.38V170.04H556.34Z" fill="#414042"/>
<path d="M599.47 170.04V173.07H591.31V198.94H587.58V173.07H579.42V170.04H599.47Z" fill="#414042"/>
<path d="M608.74 170.04V198.95H605.01V170.04H608.74Z" fill="#414042"/>
<path d="M637.05 171.55C639.2 172.81 640.88 174.56 642.11 176.82C643.34 179.07 643.95 181.62 643.95 184.47C643.95 187.32 643.33 189.86 642.11 192.12C640.88 194.37 639.19 196.13 637.05 197.39C634.9 198.65 632.49 199.28 629.81 199.28C627.13 199.28 624.71 198.65 622.53 197.39C620.35 196.13 618.66 194.38 617.43 192.12C616.2 189.87 615.59 187.32 615.59 184.47C615.59 181.62 616.21 179.08 617.43 176.82C618.66 174.57 620.36 172.81 622.53 171.55C624.7 170.29 627.13 169.66 629.81 169.66C632.49 169.66 634.9 170.29 637.05 171.55ZM624.46 174.53C622.89 175.45 621.66 176.76 620.77 178.47C619.88 180.18 619.44 182.18 619.44 184.48C619.44 186.78 619.88 188.74 620.77 190.47C621.66 192.19 622.89 193.51 624.46 194.43C626.03 195.35 627.81 195.8 629.81 195.8C631.81 195.8 633.55 195.34 635.12 194.41C636.69 193.48 637.92 192.16 638.81 190.45C639.7 188.74 640.14 186.75 640.14 184.49C640.14 182.23 639.7 180.19 638.81 178.48C637.92 176.77 636.69 175.46 635.12 174.54C633.55 173.62 631.78 173.17 629.81 173.17C627.84 173.17 626.03 173.63 624.46 174.54V174.53Z" fill="#414042"/>
<path d="M673.31 198.94H669.58L654.57 176.1V198.94H650.84V170.03H654.57L669.58 192.91V170.03H673.31V198.94Z" fill="#414042"/>
</g>
<defs>
<clipPath id="clip0_1_141">
<rect width="778.93" height="199.27" fill="white"/>
</clipPath>
</defs>
</svg>
